G75*
%MOIN*%
%OFA0B0*%
%FSLAX25Y25*%
%IPPOS*%
%LPD*%
%AMOC8*
5,1,8,0,0,1.08239X$1,22.5*
%
%ADD10C,0.00300*%
%ADD11C,0.00600*%
%ADD12C,0.00500*%
%ADD13R,0.02559X0.05512*%
%ADD14R,0.05512X0.02559*%
%ADD15C,0.00400*%
%ADD16C,0.00800*%
%ADD17C,0.00100*%
%ADD18C,0.00787*%
D10*
X0046448Y0039260D02*
X0046448Y0040711D01*
X0046931Y0041195D01*
X0048866Y0041195D01*
X0049350Y0040711D01*
X0049350Y0039260D01*
X0046448Y0039260D01*
X0046931Y0042206D02*
X0047415Y0042206D01*
X0047899Y0042690D01*
X0047899Y0043658D01*
X0048383Y0044141D01*
X0048866Y0044141D01*
X0049350Y0043658D01*
X0049350Y0042690D01*
X0048866Y0042206D01*
X0046931Y0042206D02*
X0046448Y0042690D01*
X0046448Y0043658D01*
X0046931Y0044141D01*
X0046448Y0045153D02*
X0048866Y0045153D01*
X0049350Y0045637D01*
X0049350Y0046604D01*
X0048866Y0047088D01*
X0046448Y0047088D01*
X0046448Y0048099D02*
X0046448Y0049551D01*
X0046931Y0050034D01*
X0047415Y0050034D01*
X0047899Y0049551D01*
X0047899Y0048099D01*
X0049350Y0048099D02*
X0046448Y0048099D01*
X0047899Y0049551D02*
X0048383Y0050034D01*
X0048866Y0050034D01*
X0049350Y0049551D01*
X0049350Y0048099D01*
X0048866Y0051046D02*
X0049350Y0051530D01*
X0049350Y0052497D01*
X0048866Y0052981D01*
X0048383Y0052981D01*
X0047899Y0052497D01*
X0047899Y0052013D01*
X0047899Y0052497D02*
X0047415Y0052981D01*
X0046931Y0052981D01*
X0046448Y0052497D01*
X0046448Y0051530D01*
X0046931Y0051046D01*
X0079175Y0032619D02*
X0079659Y0033102D01*
X0080627Y0033102D01*
X0081110Y0032619D01*
X0082122Y0032135D02*
X0083089Y0033102D01*
X0083089Y0030200D01*
X0082122Y0030200D02*
X0084057Y0030200D01*
X0085068Y0030200D02*
X0085068Y0030684D01*
X0087003Y0032619D01*
X0087003Y0033102D01*
X0085068Y0033102D01*
X0089425Y0032619D02*
X0089425Y0030684D01*
X0089909Y0030200D01*
X0090877Y0030200D01*
X0091360Y0030684D01*
X0092372Y0030200D02*
X0094307Y0030200D01*
X0093339Y0030200D02*
X0093339Y0033102D01*
X0092372Y0032135D01*
X0091360Y0032619D02*
X0090877Y0033102D01*
X0089909Y0033102D01*
X0089425Y0032619D01*
X0095318Y0031651D02*
X0096770Y0031651D01*
X0097253Y0031167D01*
X0097253Y0030684D01*
X0096770Y0030200D01*
X0095802Y0030200D01*
X0095318Y0030684D01*
X0095318Y0031651D01*
X0096286Y0032619D01*
X0097253Y0033102D01*
X0081110Y0030684D02*
X0080627Y0030200D01*
X0079659Y0030200D01*
X0079175Y0030684D01*
X0079175Y0032619D01*
X0121259Y0038309D02*
X0121743Y0037826D01*
X0122711Y0037826D01*
X0123194Y0038309D01*
X0123194Y0040728D01*
X0124206Y0040244D02*
X0124690Y0040728D01*
X0125657Y0040728D01*
X0126141Y0040244D01*
X0126141Y0039761D01*
X0125657Y0039277D01*
X0124690Y0039277D01*
X0124206Y0039761D01*
X0124206Y0040244D01*
X0124690Y0039277D02*
X0124206Y0038793D01*
X0124206Y0038309D01*
X0124690Y0037826D01*
X0125657Y0037826D01*
X0126141Y0038309D01*
X0126141Y0038793D01*
X0125657Y0039277D01*
X0121259Y0038309D02*
X0121259Y0040728D01*
X0148729Y0032337D02*
X0148729Y0030402D01*
X0149212Y0029919D01*
X0150180Y0029919D01*
X0150664Y0030402D01*
X0151675Y0030402D02*
X0152159Y0029919D01*
X0153126Y0029919D01*
X0153610Y0030402D01*
X0153610Y0030886D01*
X0153126Y0031370D01*
X0152643Y0031370D01*
X0153126Y0031370D02*
X0153610Y0031853D01*
X0153610Y0032337D01*
X0153126Y0032821D01*
X0152159Y0032821D01*
X0151675Y0032337D01*
X0150664Y0032337D02*
X0150180Y0032821D01*
X0149212Y0032821D01*
X0148729Y0032337D01*
X0154622Y0032337D02*
X0155105Y0032821D01*
X0156073Y0032821D01*
X0156557Y0032337D01*
X0156557Y0031853D01*
X0154622Y0029919D01*
X0156557Y0029919D01*
X0158675Y0030434D02*
X0159159Y0029950D01*
X0160127Y0029950D01*
X0160610Y0030434D01*
X0161622Y0030434D02*
X0162106Y0029950D01*
X0163073Y0029950D01*
X0163557Y0030434D01*
X0163557Y0030917D01*
X0163073Y0031401D01*
X0162589Y0031401D01*
X0163073Y0031401D02*
X0163557Y0031885D01*
X0163557Y0032369D01*
X0163073Y0032852D01*
X0162106Y0032852D01*
X0161622Y0032369D01*
X0160610Y0032369D02*
X0160127Y0032852D01*
X0159159Y0032852D01*
X0158675Y0032369D01*
X0158675Y0030434D01*
X0164568Y0030434D02*
X0165052Y0029950D01*
X0166020Y0029950D01*
X0166503Y0030434D01*
X0166503Y0030917D01*
X0166020Y0031401D01*
X0165536Y0031401D01*
X0166020Y0031401D02*
X0166503Y0031885D01*
X0166503Y0032369D01*
X0166020Y0032852D01*
X0165052Y0032852D01*
X0164568Y0032369D01*
X0195113Y0043996D02*
X0195113Y0045931D01*
X0195597Y0046415D01*
X0196565Y0046415D01*
X0197048Y0045931D01*
X0198060Y0044963D02*
X0199511Y0046415D01*
X0199511Y0043512D01*
X0199995Y0044963D02*
X0198060Y0044963D01*
X0197048Y0043996D02*
X0196565Y0043512D01*
X0195597Y0043512D01*
X0195113Y0043996D01*
X0201006Y0043996D02*
X0201490Y0043512D01*
X0202458Y0043512D01*
X0202941Y0043996D01*
X0202941Y0044480D01*
X0202458Y0044963D01*
X0201006Y0044963D01*
X0201006Y0043996D01*
X0201006Y0044963D02*
X0201974Y0045931D01*
X0202941Y0046415D01*
X0251765Y0044069D02*
X0251765Y0042134D01*
X0252249Y0041650D01*
X0253216Y0041650D01*
X0253700Y0042134D01*
X0254711Y0043101D02*
X0256646Y0043101D01*
X0257658Y0042617D02*
X0258142Y0043101D01*
X0259109Y0043101D01*
X0259593Y0042617D01*
X0259593Y0042134D01*
X0259109Y0041650D01*
X0258142Y0041650D01*
X0257658Y0042134D01*
X0257658Y0042617D01*
X0258142Y0043101D02*
X0257658Y0043585D01*
X0257658Y0044069D01*
X0258142Y0044552D01*
X0259109Y0044552D01*
X0259593Y0044069D01*
X0259593Y0043585D01*
X0259109Y0043101D01*
X0256163Y0041650D02*
X0256163Y0044552D01*
X0254711Y0043101D01*
X0253700Y0044069D02*
X0253216Y0044552D01*
X0252249Y0044552D01*
X0251765Y0044069D01*
X0274265Y0049150D02*
X0275232Y0049150D01*
X0274749Y0049150D02*
X0274749Y0052052D01*
X0275232Y0052052D02*
X0274265Y0052052D01*
X0276229Y0051569D02*
X0276229Y0049634D01*
X0276713Y0049150D01*
X0277681Y0049150D01*
X0278164Y0049634D01*
X0279176Y0049150D02*
X0281111Y0051085D01*
X0281111Y0051569D01*
X0280627Y0052052D01*
X0279660Y0052052D01*
X0279176Y0051569D01*
X0278164Y0051569D02*
X0277681Y0052052D01*
X0276713Y0052052D01*
X0276229Y0051569D01*
X0279176Y0049150D02*
X0281111Y0049150D01*
X0324265Y0071650D02*
X0325716Y0071650D01*
X0326200Y0072134D01*
X0326200Y0072617D01*
X0325716Y0073101D01*
X0324265Y0073101D01*
X0324265Y0071650D02*
X0324265Y0074552D01*
X0325716Y0074552D01*
X0326200Y0074069D01*
X0326200Y0073585D01*
X0325716Y0073101D01*
X0327211Y0072134D02*
X0327695Y0072617D01*
X0329146Y0072617D01*
X0329146Y0073101D02*
X0329146Y0071650D01*
X0327695Y0071650D01*
X0327211Y0072134D01*
X0327695Y0073585D02*
X0328663Y0073585D01*
X0329146Y0073101D01*
X0330158Y0073585D02*
X0331125Y0073585D01*
X0330642Y0074069D02*
X0330642Y0072134D01*
X0331125Y0071650D01*
X0332606Y0072134D02*
X0332606Y0074069D01*
X0332122Y0073585D02*
X0333090Y0073585D01*
X0334087Y0073101D02*
X0336022Y0073101D01*
X0336765Y0073101D02*
X0338216Y0073101D01*
X0338700Y0072617D01*
X0338700Y0072134D01*
X0338216Y0071650D01*
X0336765Y0071650D01*
X0336765Y0074552D01*
X0338216Y0074552D01*
X0338700Y0074069D01*
X0338700Y0073585D01*
X0338216Y0073101D01*
X0339711Y0072134D02*
X0340195Y0072617D01*
X0341646Y0072617D01*
X0341646Y0073101D02*
X0341646Y0071650D01*
X0340195Y0071650D01*
X0339711Y0072134D01*
X0340195Y0073585D02*
X0341163Y0073585D01*
X0341646Y0073101D01*
X0342658Y0073585D02*
X0343625Y0073585D01*
X0343142Y0074069D02*
X0343142Y0072134D01*
X0343625Y0071650D01*
X0345106Y0072134D02*
X0345590Y0071650D01*
X0345106Y0072134D02*
X0345106Y0074069D01*
X0344622Y0073585D02*
X0345590Y0073585D01*
X0346587Y0073101D02*
X0348522Y0073101D01*
X0347554Y0074069D02*
X0347554Y0072134D01*
X0347730Y0065638D02*
X0347246Y0065638D01*
X0346762Y0065155D01*
X0346762Y0064187D01*
X0347246Y0063703D01*
X0347246Y0062692D02*
X0348214Y0062692D01*
X0348697Y0062208D01*
X0348697Y0060757D01*
X0349665Y0060757D02*
X0346762Y0060757D01*
X0346762Y0062208D01*
X0347246Y0062692D01*
X0349665Y0063703D02*
X0347730Y0065638D01*
X0349665Y0065638D02*
X0349665Y0063703D01*
X0349181Y0059262D02*
X0346762Y0059262D01*
X0346762Y0059745D02*
X0346762Y0058778D01*
X0349181Y0059262D02*
X0349665Y0058778D01*
X0349665Y0058294D01*
X0349181Y0057810D01*
X0355232Y0049552D02*
X0356200Y0048585D01*
X0356200Y0046650D01*
X0357211Y0046650D02*
X0357211Y0049552D01*
X0358663Y0049552D01*
X0359146Y0049069D01*
X0359146Y0048101D01*
X0358663Y0047617D01*
X0357211Y0047617D01*
X0358179Y0047617D02*
X0359146Y0046650D01*
X0360158Y0046650D02*
X0361609Y0046650D01*
X0362093Y0047134D01*
X0362093Y0049069D01*
X0361609Y0049552D01*
X0360158Y0049552D01*
X0360158Y0046650D01*
X0356200Y0048101D02*
X0354265Y0048101D01*
X0354265Y0048585D02*
X0355232Y0049552D01*
X0354265Y0048585D02*
X0354265Y0046650D01*
X0355232Y0039069D02*
X0355232Y0037134D01*
X0354265Y0038101D02*
X0356200Y0038101D01*
X0357211Y0037134D02*
X0357695Y0036650D01*
X0358663Y0036650D01*
X0359146Y0037134D01*
X0359146Y0037617D01*
X0358663Y0038101D01*
X0358179Y0038101D01*
X0358663Y0038101D02*
X0359146Y0038585D01*
X0359146Y0039069D01*
X0358663Y0039552D01*
X0357695Y0039552D01*
X0357211Y0039069D01*
X0360158Y0039552D02*
X0360158Y0037617D01*
X0361125Y0036650D01*
X0362093Y0037617D01*
X0362093Y0039552D01*
X0363105Y0039069D02*
X0363588Y0039552D01*
X0364556Y0039552D01*
X0365039Y0039069D01*
X0365039Y0038585D01*
X0364556Y0038101D01*
X0365039Y0037617D01*
X0365039Y0037134D01*
X0364556Y0036650D01*
X0363588Y0036650D01*
X0363105Y0037134D01*
X0364072Y0038101D02*
X0364556Y0038101D01*
X0365039Y0029552D02*
X0363105Y0029552D01*
X0364072Y0029552D02*
X0364072Y0026650D01*
X0361125Y0026650D02*
X0361125Y0029552D01*
X0360158Y0029552D02*
X0362093Y0029552D01*
X0359146Y0028585D02*
X0359146Y0026650D01*
X0359146Y0028101D02*
X0357211Y0028101D01*
X0357211Y0028585D02*
X0358179Y0029552D01*
X0359146Y0028585D01*
X0357211Y0028585D02*
X0357211Y0026650D01*
X0356200Y0027134D02*
X0355716Y0026650D01*
X0354265Y0026650D01*
X0354265Y0029552D01*
X0355716Y0029552D01*
X0356200Y0029069D01*
X0356200Y0028585D01*
X0355716Y0028101D01*
X0354265Y0028101D01*
X0355716Y0028101D02*
X0356200Y0027617D01*
X0356200Y0027134D01*
X0404265Y0026650D02*
X0405716Y0026650D01*
X0406200Y0027134D01*
X0406200Y0027617D01*
X0405716Y0028101D01*
X0404265Y0028101D01*
X0404265Y0026650D02*
X0404265Y0029552D01*
X0405716Y0029552D01*
X0406200Y0029069D01*
X0406200Y0028585D01*
X0405716Y0028101D01*
X0407211Y0028101D02*
X0409146Y0028101D01*
X0409146Y0028585D02*
X0409146Y0026650D01*
X0407211Y0026650D02*
X0407211Y0028585D01*
X0408179Y0029552D01*
X0409146Y0028585D01*
X0410158Y0029552D02*
X0412093Y0029552D01*
X0411125Y0029552D02*
X0411125Y0026650D01*
X0414072Y0026650D02*
X0414072Y0029552D01*
X0413105Y0029552D02*
X0415039Y0029552D01*
X0414556Y0036650D02*
X0413588Y0036650D01*
X0413105Y0037134D01*
X0412093Y0037617D02*
X0412093Y0039552D01*
X0413105Y0039069D02*
X0413588Y0039552D01*
X0414556Y0039552D01*
X0415039Y0039069D01*
X0415039Y0038585D01*
X0414556Y0038101D01*
X0415039Y0037617D01*
X0415039Y0037134D01*
X0414556Y0036650D01*
X0414556Y0038101D02*
X0414072Y0038101D01*
X0412093Y0037617D02*
X0411125Y0036650D01*
X0410158Y0037617D01*
X0410158Y0039552D01*
X0409146Y0039069D02*
X0409146Y0038585D01*
X0408663Y0038101D01*
X0409146Y0037617D01*
X0409146Y0037134D01*
X0408663Y0036650D01*
X0407695Y0036650D01*
X0407211Y0037134D01*
X0408179Y0038101D02*
X0408663Y0038101D01*
X0409146Y0039069D02*
X0408663Y0039552D01*
X0407695Y0039552D01*
X0407211Y0039069D01*
X0406200Y0038101D02*
X0404265Y0038101D01*
X0404265Y0046650D02*
X0404265Y0048585D01*
X0405232Y0049552D01*
X0406200Y0048585D01*
X0406200Y0046650D01*
X0407211Y0046650D02*
X0407211Y0049552D01*
X0408663Y0049552D01*
X0409146Y0049069D01*
X0409146Y0048101D01*
X0408663Y0047617D01*
X0407211Y0047617D01*
X0408179Y0047617D02*
X0409146Y0046650D01*
X0410158Y0046650D02*
X0410158Y0049552D01*
X0411609Y0049552D01*
X0412093Y0049069D01*
X0412093Y0047134D01*
X0411609Y0046650D01*
X0410158Y0046650D01*
X0406200Y0048101D02*
X0404265Y0048101D01*
X0400434Y0054563D02*
X0399467Y0054563D01*
X0398983Y0055047D01*
X0397972Y0055047D02*
X0397488Y0054563D01*
X0396520Y0054563D01*
X0396037Y0055047D01*
X0396520Y0056015D02*
X0397488Y0056015D01*
X0397972Y0055531D01*
X0397972Y0055047D01*
X0396520Y0056015D02*
X0396037Y0056498D01*
X0396037Y0056982D01*
X0396520Y0057466D01*
X0397488Y0057466D01*
X0397972Y0056982D01*
X0398983Y0056982D02*
X0399467Y0057466D01*
X0400434Y0057466D01*
X0400918Y0056982D01*
X0400918Y0056498D01*
X0400434Y0056015D01*
X0400918Y0055531D01*
X0400918Y0055047D01*
X0400434Y0054563D01*
X0400434Y0056015D02*
X0399951Y0056015D01*
X0400665Y0059150D02*
X0398730Y0059150D01*
X0398730Y0062052D01*
X0397719Y0062052D02*
X0395784Y0062052D01*
X0395784Y0059150D01*
X0397719Y0059150D01*
X0396751Y0060601D02*
X0395784Y0060601D01*
X0394772Y0060117D02*
X0394772Y0059634D01*
X0394288Y0059150D01*
X0393321Y0059150D01*
X0392837Y0059634D01*
X0393321Y0060601D02*
X0394288Y0060601D01*
X0394772Y0060117D01*
X0394772Y0061569D02*
X0394288Y0062052D01*
X0393321Y0062052D01*
X0392837Y0061569D01*
X0392837Y0061085D01*
X0393321Y0060601D01*
X0388879Y0060601D02*
X0388879Y0061569D01*
X0388395Y0062052D01*
X0386944Y0062052D01*
X0386944Y0059150D01*
X0386944Y0060117D02*
X0388395Y0060117D01*
X0388879Y0060601D01*
X0387912Y0060117D02*
X0388879Y0059150D01*
X0385933Y0059150D02*
X0385933Y0062052D01*
X0383998Y0062052D02*
X0383998Y0059150D01*
X0384965Y0060117D01*
X0385933Y0059150D01*
X0382986Y0060601D02*
X0382986Y0061569D01*
X0382502Y0062052D01*
X0381051Y0062052D01*
X0381051Y0059150D01*
X0381051Y0060117D02*
X0382502Y0060117D01*
X0382986Y0060601D01*
X0377093Y0060601D02*
X0377093Y0061569D01*
X0376609Y0062052D01*
X0375158Y0062052D01*
X0375158Y0059150D01*
X0375158Y0060117D02*
X0376609Y0060117D01*
X0377093Y0060601D01*
X0374146Y0059634D02*
X0373663Y0059150D01*
X0372695Y0059150D01*
X0372211Y0059634D01*
X0372211Y0061569D01*
X0372695Y0062052D01*
X0373663Y0062052D01*
X0374146Y0061569D01*
X0371200Y0062052D02*
X0371200Y0059150D01*
X0371200Y0060601D02*
X0369265Y0060601D01*
X0369265Y0059150D02*
X0369265Y0062052D01*
X0364435Y0078489D02*
X0362500Y0078489D01*
X0363467Y0078489D02*
X0363467Y0081392D01*
X0362500Y0080424D01*
X0361488Y0079941D02*
X0361488Y0078973D01*
X0361004Y0078489D01*
X0360037Y0078489D01*
X0359553Y0078973D01*
X0359553Y0079941D02*
X0360521Y0080424D01*
X0361004Y0080424D01*
X0361488Y0079941D01*
X0361488Y0081392D02*
X0359553Y0081392D01*
X0359553Y0079941D01*
X0358541Y0080908D02*
X0358058Y0081392D01*
X0357090Y0081392D01*
X0356607Y0080908D01*
X0356607Y0078973D01*
X0357090Y0078489D01*
X0358058Y0078489D01*
X0358541Y0078973D01*
X0343051Y0085767D02*
X0343051Y0088236D01*
X0342433Y0088853D01*
X0340582Y0088853D01*
X0340582Y0085150D01*
X0342433Y0085150D01*
X0343051Y0085767D01*
X0339367Y0085150D02*
X0339367Y0088853D01*
X0336899Y0088853D02*
X0339367Y0085150D01*
X0336899Y0085150D02*
X0336899Y0088853D01*
X0335684Y0088236D02*
X0335067Y0088853D01*
X0333833Y0088853D01*
X0333216Y0088236D01*
X0333216Y0085767D01*
X0333833Y0085150D01*
X0335067Y0085150D01*
X0335684Y0085767D01*
X0335684Y0087002D01*
X0334450Y0087002D01*
X0332606Y0072134D02*
X0333090Y0071650D01*
X0297165Y0080757D02*
X0294262Y0080757D01*
X0294262Y0082208D01*
X0294746Y0082692D01*
X0295714Y0082692D01*
X0296197Y0082208D01*
X0296197Y0080757D01*
X0296197Y0081724D02*
X0297165Y0082692D01*
X0296681Y0083703D02*
X0297165Y0084187D01*
X0297165Y0085155D01*
X0296681Y0085638D01*
X0296197Y0085638D01*
X0295714Y0085155D01*
X0295714Y0084671D01*
X0295714Y0085155D02*
X0295230Y0085638D01*
X0294746Y0085638D01*
X0294262Y0085155D01*
X0294262Y0084187D01*
X0294746Y0083703D01*
X0293562Y0099150D02*
X0295981Y0099150D01*
X0296465Y0099634D01*
X0296465Y0100601D01*
X0295981Y0101085D01*
X0293562Y0101085D01*
X0294046Y0102097D02*
X0293562Y0102580D01*
X0293562Y0103548D01*
X0294046Y0104031D01*
X0294530Y0104031D01*
X0296465Y0102097D01*
X0296465Y0104031D01*
X0279665Y0104262D02*
X0279665Y0103294D01*
X0279181Y0102810D01*
X0277246Y0102810D01*
X0276762Y0103294D01*
X0276762Y0104262D01*
X0277246Y0104745D01*
X0277246Y0105757D02*
X0276762Y0106241D01*
X0276762Y0107208D01*
X0277246Y0107692D01*
X0277730Y0107692D01*
X0278214Y0107208D01*
X0278697Y0107692D01*
X0279181Y0107692D01*
X0279665Y0107208D01*
X0279665Y0106241D01*
X0279181Y0105757D01*
X0279181Y0104745D02*
X0279665Y0104262D01*
X0278214Y0106724D02*
X0278214Y0107208D01*
X0277730Y0108703D02*
X0276762Y0109671D01*
X0279665Y0109671D01*
X0279665Y0110638D02*
X0279665Y0108703D01*
X0279181Y0112810D02*
X0277246Y0112810D01*
X0276762Y0113294D01*
X0276762Y0114262D01*
X0277246Y0114745D01*
X0277246Y0115757D02*
X0276762Y0116241D01*
X0276762Y0117208D01*
X0277246Y0117692D01*
X0277730Y0117692D01*
X0279665Y0115757D01*
X0279665Y0117692D01*
X0279665Y0118703D02*
X0279181Y0118703D01*
X0277246Y0120638D01*
X0276762Y0120638D01*
X0276762Y0118703D01*
X0279181Y0114745D02*
X0279665Y0114262D01*
X0279665Y0113294D01*
X0279181Y0112810D01*
X0289262Y0120794D02*
X0289746Y0120310D01*
X0291681Y0120310D01*
X0292165Y0120794D01*
X0292165Y0121762D01*
X0291681Y0122245D01*
X0292165Y0123257D02*
X0290230Y0125192D01*
X0289746Y0125192D01*
X0289262Y0124708D01*
X0289262Y0123741D01*
X0289746Y0123257D01*
X0289746Y0122245D02*
X0289262Y0121762D01*
X0289262Y0120794D01*
X0292165Y0123257D02*
X0292165Y0125192D01*
X0291681Y0126203D02*
X0292165Y0126687D01*
X0292165Y0127655D01*
X0291681Y0128138D01*
X0291197Y0128138D01*
X0290714Y0127655D01*
X0290714Y0127171D01*
X0290714Y0127655D02*
X0290230Y0128138D01*
X0289746Y0128138D01*
X0289262Y0127655D01*
X0289262Y0126687D01*
X0289746Y0126203D01*
X0294262Y0127655D02*
X0295714Y0126203D01*
X0295714Y0128138D01*
X0297165Y0127655D02*
X0294262Y0127655D01*
X0294746Y0125192D02*
X0294262Y0124708D01*
X0294262Y0123741D01*
X0294746Y0123257D01*
X0296681Y0123257D01*
X0297165Y0123741D01*
X0297165Y0124708D01*
X0296681Y0125192D01*
X0268456Y0124116D02*
X0265320Y0120980D01*
X0266888Y0120980D02*
X0266888Y0124116D01*
X0265320Y0124116D02*
X0268456Y0120980D01*
X0268456Y0122548D02*
X0265320Y0122548D01*
X0260981Y0116350D02*
X0260014Y0116350D01*
X0259530Y0115866D01*
X0259530Y0113448D01*
X0258518Y0114415D02*
X0257551Y0113448D01*
X0257551Y0116350D01*
X0258518Y0116350D02*
X0256583Y0116350D01*
X0260981Y0116350D02*
X0261465Y0115866D01*
X0261465Y0113448D01*
X0259181Y0105638D02*
X0258697Y0105638D01*
X0258214Y0105155D01*
X0258214Y0103703D01*
X0259181Y0103703D01*
X0259665Y0104187D01*
X0259665Y0105155D01*
X0259181Y0105638D01*
X0257246Y0104671D02*
X0258214Y0103703D01*
X0258697Y0102692D02*
X0258214Y0102208D01*
X0258214Y0101724D01*
X0258214Y0102208D02*
X0257730Y0102692D01*
X0257246Y0102692D01*
X0256762Y0102208D01*
X0256762Y0101241D01*
X0257246Y0100757D01*
X0257246Y0099745D02*
X0256762Y0099262D01*
X0256762Y0098294D01*
X0257246Y0097810D01*
X0259181Y0097810D01*
X0259665Y0098294D01*
X0259665Y0099262D01*
X0259181Y0099745D01*
X0259181Y0100757D02*
X0259665Y0101241D01*
X0259665Y0102208D01*
X0259181Y0102692D01*
X0258697Y0102692D01*
X0257246Y0104671D02*
X0256762Y0105638D01*
X0264046Y0096978D02*
X0263562Y0096494D01*
X0263562Y0095527D01*
X0264046Y0095043D01*
X0264530Y0095043D01*
X0265014Y0095527D01*
X0265014Y0096978D01*
X0265981Y0096978D02*
X0264046Y0096978D01*
X0265981Y0096978D02*
X0266465Y0096494D01*
X0266465Y0095527D01*
X0265981Y0095043D01*
X0265014Y0094031D02*
X0265014Y0092097D01*
X0263562Y0093548D01*
X0266465Y0093548D01*
X0265981Y0091085D02*
X0266465Y0090601D01*
X0266465Y0089634D01*
X0265981Y0089150D01*
X0264046Y0089150D01*
X0263562Y0089634D01*
X0263562Y0090601D01*
X0264046Y0091085D01*
X0259665Y0091241D02*
X0259181Y0090757D01*
X0259665Y0091241D02*
X0259665Y0092208D01*
X0259181Y0092692D01*
X0258697Y0092692D01*
X0258214Y0092208D01*
X0258214Y0091724D01*
X0258214Y0092208D02*
X0257730Y0092692D01*
X0257246Y0092692D01*
X0256762Y0092208D01*
X0256762Y0091241D01*
X0257246Y0090757D01*
X0257246Y0089745D02*
X0256762Y0089262D01*
X0256762Y0088294D01*
X0257246Y0087810D01*
X0259181Y0087810D01*
X0259665Y0088294D01*
X0259665Y0089262D01*
X0259181Y0089745D01*
X0259181Y0093703D02*
X0257246Y0095638D01*
X0256762Y0095638D01*
X0256762Y0093703D01*
X0259181Y0093703D02*
X0259665Y0093703D01*
X0259253Y0080352D02*
X0257318Y0080352D01*
X0255823Y0080352D02*
X0254372Y0078901D01*
X0256307Y0078901D01*
X0257318Y0077934D02*
X0257318Y0077450D01*
X0257318Y0077934D02*
X0259253Y0079869D01*
X0259253Y0080352D01*
X0255823Y0080352D02*
X0255823Y0077450D01*
X0253360Y0077934D02*
X0252877Y0077450D01*
X0251909Y0077450D01*
X0251425Y0077934D01*
X0251425Y0079869D01*
X0251909Y0080352D01*
X0252877Y0080352D01*
X0253360Y0079869D01*
X0226150Y0080697D02*
X0224215Y0080697D01*
X0225183Y0080697D02*
X0225183Y0083600D01*
X0224215Y0082632D01*
X0223204Y0083116D02*
X0222720Y0083600D01*
X0221752Y0083600D01*
X0221269Y0083116D01*
X0221269Y0081181D01*
X0221752Y0080697D01*
X0222720Y0080697D01*
X0223204Y0081181D01*
X0220272Y0080697D02*
X0219304Y0080697D01*
X0219788Y0080697D02*
X0219788Y0083600D01*
X0219304Y0083600D02*
X0220272Y0083600D01*
X0201543Y0081400D02*
X0199608Y0081400D01*
X0199608Y0079948D01*
X0200575Y0080432D01*
X0201059Y0080432D01*
X0201543Y0079948D01*
X0201543Y0078981D01*
X0201059Y0078497D01*
X0200092Y0078497D01*
X0199608Y0078981D01*
X0198596Y0079948D02*
X0196661Y0079948D01*
X0198113Y0081400D01*
X0198113Y0078497D01*
X0195650Y0078981D02*
X0195166Y0078497D01*
X0194199Y0078497D01*
X0193715Y0078981D01*
X0193715Y0080916D01*
X0194199Y0081400D01*
X0195166Y0081400D01*
X0195650Y0080916D01*
X0169062Y0079823D02*
X0167127Y0077888D01*
X0167611Y0077405D01*
X0168579Y0077405D01*
X0169062Y0077888D01*
X0169062Y0079823D01*
X0168579Y0080307D01*
X0167611Y0080307D01*
X0167127Y0079823D01*
X0167127Y0077888D01*
X0166116Y0077405D02*
X0164181Y0077405D01*
X0166116Y0079340D01*
X0166116Y0079823D01*
X0165632Y0080307D01*
X0164665Y0080307D01*
X0164181Y0079823D01*
X0163169Y0079823D02*
X0162686Y0080307D01*
X0161718Y0080307D01*
X0161234Y0079823D01*
X0161234Y0077888D01*
X0161718Y0077405D01*
X0162686Y0077405D01*
X0163169Y0077888D01*
X0158812Y0077940D02*
X0158812Y0079875D01*
X0158329Y0080358D01*
X0157361Y0080358D01*
X0156877Y0079875D01*
X0156877Y0079391D01*
X0157361Y0078907D01*
X0158812Y0078907D01*
X0158812Y0077940D02*
X0158329Y0077456D01*
X0157361Y0077456D01*
X0156877Y0077940D01*
X0155866Y0077456D02*
X0153931Y0077456D01*
X0154898Y0077456D02*
X0154898Y0080358D01*
X0153931Y0079391D01*
X0152919Y0079875D02*
X0152436Y0080358D01*
X0151468Y0080358D01*
X0150984Y0079875D01*
X0150984Y0077940D01*
X0151468Y0077456D01*
X0152436Y0077456D01*
X0152919Y0077940D01*
X0095753Y0075869D02*
X0095270Y0076352D01*
X0094302Y0076352D01*
X0093818Y0075869D01*
X0093818Y0075385D01*
X0094302Y0074901D01*
X0095753Y0074901D01*
X0095753Y0073934D02*
X0095753Y0075869D01*
X0095753Y0073934D02*
X0095270Y0073450D01*
X0094302Y0073450D01*
X0093818Y0073934D01*
X0092807Y0073450D02*
X0090872Y0073450D01*
X0092807Y0075385D01*
X0092807Y0075869D01*
X0092323Y0076352D01*
X0091356Y0076352D01*
X0090872Y0075869D01*
X0089860Y0075869D02*
X0089377Y0076352D01*
X0088409Y0076352D01*
X0087925Y0075869D01*
X0087925Y0073934D01*
X0088409Y0073450D01*
X0089377Y0073450D01*
X0089860Y0073934D01*
X0085753Y0073934D02*
X0085270Y0073450D01*
X0084302Y0073450D01*
X0083818Y0073934D01*
X0085753Y0075869D01*
X0085753Y0073934D01*
X0083818Y0073934D02*
X0083818Y0075869D01*
X0084302Y0076352D01*
X0085270Y0076352D01*
X0085753Y0075869D01*
X0082807Y0075869D02*
X0082323Y0076352D01*
X0081356Y0076352D01*
X0080872Y0075869D01*
X0079860Y0075869D02*
X0079377Y0076352D01*
X0078409Y0076352D01*
X0077925Y0075869D01*
X0077925Y0073934D01*
X0078409Y0073450D01*
X0079377Y0073450D01*
X0079860Y0073934D01*
X0080872Y0073934D02*
X0081356Y0073450D01*
X0082323Y0073450D01*
X0082807Y0073934D01*
X0082807Y0074417D01*
X0082323Y0074901D01*
X0081839Y0074901D01*
X0082323Y0074901D02*
X0082807Y0075385D01*
X0082807Y0075869D01*
X0074181Y0112810D02*
X0074665Y0113294D01*
X0074665Y0113778D01*
X0074181Y0114262D01*
X0071762Y0114262D01*
X0071762Y0114745D02*
X0071762Y0113778D01*
X0071762Y0115757D02*
X0071762Y0117208D01*
X0072246Y0117692D01*
X0073214Y0117692D01*
X0073697Y0117208D01*
X0073697Y0115757D01*
X0074665Y0115757D02*
X0071762Y0115757D01*
X0071762Y0118703D02*
X0073214Y0118703D01*
X0072730Y0119671D01*
X0072730Y0120155D01*
X0073214Y0120638D01*
X0074181Y0120638D01*
X0074665Y0120155D01*
X0074665Y0119187D01*
X0074181Y0118703D01*
X0071762Y0118703D02*
X0071762Y0120638D01*
X0073372Y0135950D02*
X0075307Y0135950D01*
X0076318Y0135950D02*
X0078253Y0135950D01*
X0077286Y0135950D02*
X0077286Y0138852D01*
X0076318Y0137885D01*
X0076318Y0140950D02*
X0078253Y0142885D01*
X0078253Y0143369D01*
X0077770Y0143852D01*
X0076802Y0143852D01*
X0076318Y0143369D01*
X0076318Y0140950D02*
X0078253Y0140950D01*
X0075307Y0140950D02*
X0073372Y0140950D01*
X0073372Y0143852D01*
X0073372Y0138852D02*
X0073372Y0135950D01*
X0121259Y0130610D02*
X0121259Y0128191D01*
X0121743Y0127707D01*
X0122711Y0127707D01*
X0123194Y0128191D01*
X0123194Y0130610D01*
X0124206Y0130610D02*
X0126141Y0130610D01*
X0126141Y0130126D01*
X0124206Y0128191D01*
X0124206Y0127707D01*
X0124184Y0157215D02*
X0123216Y0157215D01*
X0122733Y0157699D01*
X0123216Y0158667D02*
X0124184Y0158667D01*
X0124668Y0158183D01*
X0124668Y0157699D01*
X0124184Y0157215D01*
X0125679Y0157215D02*
X0127614Y0157215D01*
X0126647Y0157215D02*
X0126647Y0160118D01*
X0125679Y0159150D01*
X0124668Y0159634D02*
X0124184Y0160118D01*
X0123216Y0160118D01*
X0122733Y0159634D01*
X0122733Y0159150D01*
X0123216Y0158667D01*
X0121721Y0158667D02*
X0121721Y0159634D01*
X0121237Y0160118D01*
X0119786Y0160118D01*
X0119786Y0157215D01*
X0119786Y0158183D02*
X0121237Y0158183D01*
X0121721Y0158667D01*
X0098253Y0161434D02*
X0097770Y0160950D01*
X0096802Y0160950D01*
X0096318Y0161434D01*
X0096318Y0162401D02*
X0097286Y0162885D01*
X0097770Y0162885D01*
X0098253Y0162401D01*
X0098253Y0161434D01*
X0096318Y0162401D02*
X0096318Y0163852D01*
X0098253Y0163852D01*
X0095307Y0163369D02*
X0094823Y0163852D01*
X0093856Y0163852D01*
X0093372Y0163369D01*
X0092360Y0163369D02*
X0091877Y0163852D01*
X0090909Y0163852D01*
X0090425Y0163369D01*
X0090425Y0161434D01*
X0090909Y0160950D01*
X0091877Y0160950D01*
X0092360Y0161434D01*
X0093372Y0160950D02*
X0095307Y0162885D01*
X0095307Y0163369D01*
X0095307Y0160950D02*
X0093372Y0160950D01*
X0068253Y0162401D02*
X0066318Y0162401D01*
X0067770Y0163852D01*
X0067770Y0160950D01*
X0065307Y0160950D02*
X0063372Y0160950D01*
X0065307Y0162885D01*
X0065307Y0163369D01*
X0064823Y0163852D01*
X0063856Y0163852D01*
X0063372Y0163369D01*
X0062360Y0163369D02*
X0061877Y0163852D01*
X0060909Y0163852D01*
X0060425Y0163369D01*
X0060425Y0161434D01*
X0060909Y0160950D01*
X0061877Y0160950D01*
X0062360Y0161434D01*
X0032986Y0179150D02*
X0031051Y0179150D01*
X0032986Y0181085D01*
X0032986Y0181569D01*
X0032502Y0182052D01*
X0031535Y0182052D01*
X0031051Y0181569D01*
X0030039Y0181569D02*
X0030039Y0181085D01*
X0029556Y0180601D01*
X0028105Y0180601D01*
X0027093Y0179634D02*
X0027093Y0182052D01*
X0028105Y0182052D02*
X0029556Y0182052D01*
X0030039Y0181569D01*
X0029556Y0180601D02*
X0030039Y0180117D01*
X0030039Y0179634D01*
X0029556Y0179150D01*
X0028105Y0179150D01*
X0028105Y0182052D01*
X0027093Y0179634D02*
X0026609Y0179150D01*
X0025642Y0179150D01*
X0025158Y0179634D01*
X0025158Y0182052D01*
X0024146Y0181569D02*
X0023663Y0182052D01*
X0022695Y0182052D01*
X0022211Y0181569D01*
X0022211Y0181085D01*
X0022695Y0180601D01*
X0023663Y0180601D01*
X0024146Y0180117D01*
X0024146Y0179634D01*
X0023663Y0179150D01*
X0022695Y0179150D01*
X0022211Y0179634D01*
X0021200Y0179634D02*
X0021200Y0181569D01*
X0020716Y0182052D01*
X0019265Y0182052D01*
X0019265Y0179150D01*
X0020716Y0179150D01*
X0021200Y0179634D01*
X0052925Y0180950D02*
X0052925Y0183852D01*
X0054377Y0183852D01*
X0054860Y0183369D01*
X0054860Y0182401D01*
X0054377Y0181917D01*
X0052925Y0181917D01*
X0053893Y0181917D02*
X0054860Y0180950D01*
X0055872Y0180950D02*
X0057807Y0180950D01*
X0056839Y0180950D02*
X0056839Y0183852D01*
X0055872Y0182885D01*
X0058818Y0183369D02*
X0058818Y0181434D01*
X0060753Y0183369D01*
X0060753Y0181434D01*
X0060270Y0180950D01*
X0059302Y0180950D01*
X0058818Y0181434D01*
X0058818Y0183369D02*
X0059302Y0183852D01*
X0060270Y0183852D01*
X0060753Y0183369D01*
X0090425Y0183852D02*
X0090425Y0180950D01*
X0090425Y0181917D02*
X0091877Y0181917D01*
X0092360Y0182401D01*
X0092360Y0183369D01*
X0091877Y0183852D01*
X0090425Y0183852D01*
X0091393Y0181917D02*
X0092360Y0180950D01*
X0093372Y0180950D02*
X0095307Y0180950D01*
X0094339Y0180950D02*
X0094339Y0183852D01*
X0093372Y0182885D01*
X0096318Y0182885D02*
X0097286Y0183852D01*
X0097286Y0180950D01*
X0098253Y0180950D02*
X0096318Y0180950D01*
X0152175Y0159869D02*
X0152175Y0157934D01*
X0152659Y0157450D01*
X0153627Y0157450D01*
X0154110Y0157934D01*
X0155122Y0157450D02*
X0157057Y0157450D01*
X0156089Y0157450D02*
X0156089Y0160352D01*
X0155122Y0159385D01*
X0154110Y0159869D02*
X0153627Y0160352D01*
X0152659Y0160352D01*
X0152175Y0159869D01*
X0158068Y0159869D02*
X0158552Y0160352D01*
X0159520Y0160352D01*
X0160003Y0159869D01*
X0160003Y0159385D01*
X0159520Y0158901D01*
X0160003Y0158417D01*
X0160003Y0157934D01*
X0159520Y0157450D01*
X0158552Y0157450D01*
X0158068Y0157934D01*
X0159036Y0158901D02*
X0159520Y0158901D01*
X0165175Y0159869D02*
X0165175Y0157934D01*
X0165659Y0157450D01*
X0166627Y0157450D01*
X0167110Y0157934D01*
X0168122Y0157450D02*
X0170057Y0157450D01*
X0169089Y0157450D02*
X0169089Y0160352D01*
X0168122Y0159385D01*
X0167110Y0159869D02*
X0166627Y0160352D01*
X0165659Y0160352D01*
X0165175Y0159869D01*
X0171068Y0160352D02*
X0171068Y0158901D01*
X0172036Y0159385D01*
X0172520Y0159385D01*
X0173003Y0158901D01*
X0173003Y0157934D01*
X0172520Y0157450D01*
X0171552Y0157450D01*
X0171068Y0157934D01*
X0171068Y0160352D02*
X0173003Y0160352D01*
X0188562Y0151494D02*
X0189046Y0151978D01*
X0189530Y0151978D01*
X0190014Y0151494D01*
X0190014Y0150527D01*
X0189530Y0150043D01*
X0189046Y0150043D01*
X0188562Y0150527D01*
X0188562Y0151494D01*
X0190014Y0151494D02*
X0190497Y0151978D01*
X0190981Y0151978D01*
X0191465Y0151494D01*
X0191465Y0150527D01*
X0190981Y0150043D01*
X0190497Y0150043D01*
X0190014Y0150527D01*
X0191465Y0149031D02*
X0191465Y0147097D01*
X0191465Y0148064D02*
X0188562Y0148064D01*
X0189530Y0147097D01*
X0189046Y0146085D02*
X0188562Y0145601D01*
X0188562Y0144634D01*
X0189046Y0144150D01*
X0190981Y0144150D01*
X0191465Y0144634D01*
X0191465Y0145601D01*
X0190981Y0146085D01*
X0193562Y0145601D02*
X0193562Y0144634D01*
X0194046Y0144150D01*
X0195981Y0144150D01*
X0196465Y0144634D01*
X0196465Y0145601D01*
X0195981Y0146085D01*
X0196465Y0147097D02*
X0196465Y0149031D01*
X0196465Y0148064D02*
X0193562Y0148064D01*
X0194530Y0147097D01*
X0194046Y0146085D02*
X0193562Y0145601D01*
X0194046Y0150043D02*
X0193562Y0150527D01*
X0193562Y0151494D01*
X0194046Y0151978D01*
X0195981Y0150043D01*
X0196465Y0150527D01*
X0196465Y0151494D01*
X0195981Y0151978D01*
X0194046Y0151978D01*
X0194046Y0150043D02*
X0195981Y0150043D01*
X0193965Y0139478D02*
X0193965Y0137543D01*
X0193965Y0138511D02*
X0191062Y0138511D01*
X0192030Y0137543D01*
X0192030Y0136531D02*
X0191546Y0136531D01*
X0191062Y0136048D01*
X0191062Y0135080D01*
X0191546Y0134597D01*
X0191546Y0133585D02*
X0191062Y0133101D01*
X0191062Y0132134D01*
X0191546Y0131650D01*
X0193481Y0131650D01*
X0193965Y0132134D01*
X0193965Y0133101D01*
X0193481Y0133585D01*
X0193965Y0134597D02*
X0192030Y0136531D01*
X0193965Y0136531D02*
X0193965Y0134597D01*
X0196062Y0135564D02*
X0198965Y0135564D01*
X0198965Y0134597D02*
X0198965Y0136531D01*
X0198965Y0137543D02*
X0198965Y0139478D01*
X0198965Y0138511D02*
X0196062Y0138511D01*
X0197030Y0137543D01*
X0196062Y0135564D02*
X0197030Y0134597D01*
X0196546Y0133585D02*
X0196062Y0133101D01*
X0196062Y0132134D01*
X0196546Y0131650D01*
X0198481Y0131650D01*
X0198965Y0132134D01*
X0198965Y0133101D01*
X0198481Y0133585D01*
X0197514Y0124478D02*
X0197514Y0122543D01*
X0196062Y0123994D01*
X0198965Y0123994D01*
X0198481Y0121531D02*
X0198965Y0121048D01*
X0198965Y0120080D01*
X0198481Y0119597D01*
X0198481Y0118585D02*
X0198965Y0118101D01*
X0198965Y0117134D01*
X0198481Y0116650D01*
X0196546Y0116650D01*
X0196062Y0117134D01*
X0196062Y0118101D01*
X0196546Y0118585D01*
X0196546Y0119597D02*
X0196062Y0120080D01*
X0196062Y0121048D01*
X0196546Y0121531D01*
X0197030Y0121531D01*
X0197514Y0121048D01*
X0197997Y0121531D01*
X0198481Y0121531D01*
X0197514Y0121048D02*
X0197514Y0120564D01*
X0193965Y0121048D02*
X0193481Y0121531D01*
X0192997Y0121531D01*
X0192514Y0121048D01*
X0192514Y0120564D01*
X0192514Y0121048D02*
X0192030Y0121531D01*
X0191546Y0121531D01*
X0191062Y0121048D01*
X0191062Y0120080D01*
X0191546Y0119597D01*
X0191546Y0118585D02*
X0191062Y0118101D01*
X0191062Y0117134D01*
X0191546Y0116650D01*
X0193481Y0116650D01*
X0193965Y0117134D01*
X0193965Y0118101D01*
X0193481Y0118585D01*
X0193481Y0119597D02*
X0193965Y0120080D01*
X0193965Y0121048D01*
X0193481Y0122543D02*
X0193965Y0123027D01*
X0193965Y0123994D01*
X0193481Y0124478D01*
X0192514Y0124478D01*
X0192030Y0123994D01*
X0192030Y0123511D01*
X0192514Y0122543D01*
X0191062Y0122543D01*
X0191062Y0124478D01*
X0191546Y0161650D02*
X0193481Y0161650D01*
X0193965Y0162134D01*
X0193965Y0163101D01*
X0193481Y0163585D01*
X0193965Y0164597D02*
X0193965Y0166531D01*
X0193965Y0165564D02*
X0191062Y0165564D01*
X0192030Y0164597D01*
X0191546Y0163585D02*
X0191062Y0163101D01*
X0191062Y0162134D01*
X0191546Y0161650D01*
X0196062Y0162134D02*
X0196546Y0161650D01*
X0198481Y0161650D01*
X0198965Y0162134D01*
X0198965Y0163101D01*
X0198481Y0163585D01*
X0198481Y0164597D02*
X0198965Y0165080D01*
X0198965Y0166048D01*
X0198481Y0166531D01*
X0196546Y0166531D01*
X0196062Y0166048D01*
X0196062Y0165080D01*
X0196546Y0164597D01*
X0197030Y0164597D01*
X0197514Y0165080D01*
X0197514Y0166531D01*
X0196546Y0163585D02*
X0196062Y0163101D01*
X0196062Y0162134D01*
X0192514Y0167543D02*
X0192514Y0169478D01*
X0193965Y0168994D02*
X0191062Y0168994D01*
X0192514Y0167543D01*
X0194086Y0178450D02*
X0194086Y0181352D01*
X0195537Y0181352D01*
X0196021Y0180869D01*
X0196021Y0179901D01*
X0195537Y0179417D01*
X0194086Y0179417D01*
X0195053Y0179417D02*
X0196021Y0178450D01*
X0197032Y0177966D02*
X0198967Y0177966D01*
X0199979Y0178934D02*
X0200463Y0178450D01*
X0201430Y0178450D01*
X0201914Y0178934D01*
X0201914Y0179417D01*
X0201430Y0179901D01*
X0200463Y0179901D01*
X0199979Y0180385D01*
X0199979Y0180869D01*
X0200463Y0181352D01*
X0201430Y0181352D01*
X0201914Y0180869D01*
X0202925Y0181352D02*
X0202925Y0178450D01*
X0204860Y0178450D01*
X0203893Y0179901D02*
X0202925Y0179901D01*
X0202925Y0181352D02*
X0204860Y0181352D01*
X0205872Y0181352D02*
X0207807Y0181352D01*
X0206839Y0181352D02*
X0206839Y0178450D01*
X0208818Y0178450D02*
X0210753Y0178450D01*
X0209786Y0178450D02*
X0209786Y0181352D01*
X0208818Y0180385D01*
X0217642Y0190804D02*
X0218610Y0190804D01*
X0219094Y0191287D01*
X0220105Y0190804D02*
X0222040Y0192739D01*
X0222040Y0193222D01*
X0221556Y0193706D01*
X0220589Y0193706D01*
X0220105Y0193222D01*
X0219094Y0193222D02*
X0218610Y0193706D01*
X0217642Y0193706D01*
X0217159Y0193222D01*
X0217159Y0191287D01*
X0217642Y0190804D01*
X0220105Y0190804D02*
X0222040Y0190804D01*
X0236765Y0192134D02*
X0237249Y0191650D01*
X0238216Y0191650D01*
X0238700Y0192134D01*
X0239711Y0192134D02*
X0239711Y0192617D01*
X0240195Y0193101D01*
X0241163Y0193101D01*
X0241646Y0192617D01*
X0241646Y0192134D01*
X0241163Y0191650D01*
X0240195Y0191650D01*
X0239711Y0192134D01*
X0240195Y0193101D02*
X0239711Y0193585D01*
X0239711Y0194069D01*
X0240195Y0194552D01*
X0241163Y0194552D01*
X0241646Y0194069D01*
X0241646Y0193585D01*
X0241163Y0193101D01*
X0238700Y0194069D02*
X0238216Y0194552D01*
X0237249Y0194552D01*
X0236765Y0194069D01*
X0236765Y0192134D01*
X0237249Y0196650D02*
X0238216Y0196650D01*
X0238700Y0197134D01*
X0239711Y0197134D02*
X0239711Y0198101D01*
X0241163Y0198101D01*
X0241646Y0197617D01*
X0241646Y0197134D01*
X0241163Y0196650D01*
X0240195Y0196650D01*
X0239711Y0197134D01*
X0239711Y0198101D02*
X0240679Y0199069D01*
X0241646Y0199552D01*
X0238700Y0199069D02*
X0238216Y0199552D01*
X0237249Y0199552D01*
X0236765Y0199069D01*
X0236765Y0197134D01*
X0237249Y0196650D01*
X0251765Y0197134D02*
X0252249Y0196650D01*
X0253216Y0196650D01*
X0253700Y0197134D01*
X0254711Y0197134D02*
X0255195Y0196650D01*
X0256163Y0196650D01*
X0256646Y0197134D01*
X0256646Y0198101D01*
X0256163Y0198585D01*
X0255679Y0198585D01*
X0254711Y0198101D01*
X0254711Y0199552D01*
X0256646Y0199552D01*
X0253700Y0199069D02*
X0253216Y0199552D01*
X0252249Y0199552D01*
X0251765Y0199069D01*
X0251765Y0197134D01*
X0252249Y0194552D02*
X0251765Y0194069D01*
X0251765Y0192134D01*
X0252249Y0191650D01*
X0253216Y0191650D01*
X0253700Y0192134D01*
X0254711Y0192134D02*
X0256646Y0194069D01*
X0256646Y0194552D01*
X0254711Y0194552D01*
X0253700Y0194069D02*
X0253216Y0194552D01*
X0252249Y0194552D01*
X0254711Y0192134D02*
X0254711Y0191650D01*
X0271062Y0192134D02*
X0271546Y0191650D01*
X0273481Y0191650D01*
X0273965Y0192134D01*
X0273965Y0193101D01*
X0273481Y0193585D01*
X0273965Y0194597D02*
X0272030Y0196531D01*
X0271546Y0196531D01*
X0271062Y0196048D01*
X0271062Y0195080D01*
X0271546Y0194597D01*
X0271546Y0193585D02*
X0271062Y0193101D01*
X0271062Y0192134D01*
X0271546Y0189031D02*
X0272030Y0189031D01*
X0272514Y0188548D01*
X0272997Y0189031D01*
X0273481Y0189031D01*
X0273965Y0188548D01*
X0273965Y0187580D01*
X0273481Y0187097D01*
X0273481Y0186085D02*
X0273965Y0185601D01*
X0273965Y0184634D01*
X0273481Y0184150D01*
X0271546Y0184150D01*
X0271062Y0184634D01*
X0271062Y0185601D01*
X0271546Y0186085D01*
X0271546Y0187097D02*
X0271062Y0187580D01*
X0271062Y0188548D01*
X0271546Y0189031D01*
X0272514Y0188548D02*
X0272514Y0188064D01*
X0273965Y0194597D02*
X0273965Y0196531D01*
X0273965Y0197543D02*
X0272030Y0199478D01*
X0271546Y0199478D01*
X0271062Y0198994D01*
X0271062Y0198027D01*
X0271546Y0197543D01*
X0273965Y0197543D02*
X0273965Y0199478D01*
X0282562Y0180814D02*
X0285465Y0180814D01*
X0285465Y0179847D02*
X0285465Y0181781D01*
X0283530Y0179847D02*
X0282562Y0180814D01*
X0283046Y0178835D02*
X0282562Y0178351D01*
X0282562Y0177384D01*
X0283046Y0176900D01*
X0284981Y0176900D01*
X0285465Y0177384D01*
X0285465Y0178351D01*
X0284981Y0178835D01*
X0284947Y0166638D02*
X0285431Y0166638D01*
X0285915Y0166155D01*
X0285915Y0165187D01*
X0285431Y0164703D01*
X0284947Y0164703D01*
X0284464Y0165187D01*
X0284464Y0166155D01*
X0284947Y0166638D01*
X0284464Y0166155D02*
X0283980Y0166638D01*
X0283496Y0166638D01*
X0283012Y0166155D01*
X0283012Y0165187D01*
X0283496Y0164703D01*
X0283980Y0164703D01*
X0284464Y0165187D01*
X0284947Y0163692D02*
X0285431Y0163692D01*
X0285915Y0163208D01*
X0285915Y0162241D01*
X0285431Y0161757D01*
X0285431Y0160745D02*
X0285915Y0160262D01*
X0285915Y0159294D01*
X0285431Y0158810D01*
X0283496Y0158810D01*
X0283012Y0159294D01*
X0283012Y0160262D01*
X0283496Y0160745D01*
X0283496Y0161757D02*
X0283012Y0162241D01*
X0283012Y0163208D01*
X0283496Y0163692D01*
X0283980Y0163692D01*
X0284464Y0163208D01*
X0284947Y0163692D01*
X0284464Y0163208D02*
X0284464Y0162724D01*
X0291546Y0149478D02*
X0292030Y0149478D01*
X0292514Y0148994D01*
X0292997Y0149478D01*
X0293481Y0149478D01*
X0293965Y0148994D01*
X0293965Y0148027D01*
X0293481Y0147543D01*
X0292514Y0148511D02*
X0292514Y0148994D01*
X0291546Y0149478D02*
X0291062Y0148994D01*
X0291062Y0148027D01*
X0291546Y0147543D01*
X0292514Y0146531D02*
X0292514Y0144597D01*
X0291062Y0146048D01*
X0293965Y0146048D01*
X0296062Y0146048D02*
X0297514Y0144597D01*
X0297514Y0146531D01*
X0297514Y0147543D02*
X0297514Y0149478D01*
X0298965Y0148994D02*
X0296062Y0148994D01*
X0297514Y0147543D01*
X0298965Y0146048D02*
X0296062Y0146048D01*
X0296546Y0143585D02*
X0296062Y0143101D01*
X0296062Y0142134D01*
X0296546Y0141650D01*
X0298481Y0141650D01*
X0298965Y0142134D01*
X0298965Y0143101D01*
X0298481Y0143585D01*
X0293965Y0143101D02*
X0293481Y0143585D01*
X0293965Y0143101D02*
X0293965Y0142134D01*
X0293481Y0141650D01*
X0291546Y0141650D01*
X0291062Y0142134D01*
X0291062Y0143101D01*
X0291546Y0143585D01*
X0328562Y0149150D02*
X0328562Y0150601D01*
X0329046Y0151085D01*
X0330014Y0151085D01*
X0330497Y0150601D01*
X0330497Y0149150D01*
X0330497Y0150117D02*
X0331465Y0151085D01*
X0331465Y0152097D02*
X0328562Y0154031D01*
X0328562Y0152097D02*
X0331465Y0154031D01*
X0331949Y0155043D02*
X0331949Y0156978D01*
X0331465Y0157990D02*
X0331465Y0159441D01*
X0330981Y0159925D01*
X0329046Y0159925D01*
X0328562Y0159441D01*
X0328562Y0157990D01*
X0331465Y0157990D01*
X0333562Y0157990D02*
X0333562Y0159441D01*
X0334046Y0159925D01*
X0335981Y0159925D01*
X0336465Y0159441D01*
X0336465Y0157990D01*
X0333562Y0157990D01*
X0334530Y0160936D02*
X0333562Y0161904D01*
X0334530Y0162871D01*
X0336465Y0162871D01*
X0335981Y0163883D02*
X0336465Y0164366D01*
X0336465Y0165334D01*
X0335981Y0165818D01*
X0334046Y0165818D02*
X0333562Y0165334D01*
X0333562Y0164366D01*
X0334046Y0163883D01*
X0335981Y0163883D01*
X0335014Y0162871D02*
X0335014Y0160936D01*
X0334530Y0160936D02*
X0336465Y0160936D01*
X0336949Y0156978D02*
X0336949Y0155043D01*
X0336465Y0154031D02*
X0336465Y0152097D01*
X0336465Y0153064D02*
X0333562Y0153064D01*
X0334530Y0152097D01*
X0335014Y0151085D02*
X0335497Y0150601D01*
X0335497Y0149150D01*
X0335497Y0150117D02*
X0336465Y0151085D01*
X0335014Y0151085D02*
X0334046Y0151085D01*
X0333562Y0150601D01*
X0333562Y0149150D01*
X0336465Y0149150D01*
X0331465Y0149150D02*
X0328562Y0149150D01*
X0329530Y0160936D02*
X0328562Y0161904D01*
X0329530Y0162871D01*
X0331465Y0162871D01*
X0330981Y0163883D02*
X0331465Y0164366D01*
X0331465Y0165334D01*
X0330981Y0165818D01*
X0329046Y0165818D02*
X0328562Y0165334D01*
X0328562Y0164366D01*
X0329046Y0163883D01*
X0330981Y0163883D01*
X0330014Y0162871D02*
X0330014Y0160936D01*
X0329530Y0160936D02*
X0331465Y0160936D01*
X0331465Y0171650D02*
X0328562Y0171650D01*
X0328562Y0173101D01*
X0329046Y0173585D01*
X0330014Y0173585D01*
X0330497Y0173101D01*
X0330497Y0171650D01*
X0330497Y0172617D02*
X0331465Y0173585D01*
X0331465Y0175564D02*
X0330014Y0175564D01*
X0329046Y0176531D01*
X0328562Y0176531D01*
X0330014Y0175564D02*
X0329046Y0174597D01*
X0328562Y0174597D01*
X0331949Y0177543D02*
X0331949Y0179478D01*
X0331465Y0180490D02*
X0331465Y0181941D01*
X0330981Y0182425D01*
X0329046Y0182425D01*
X0328562Y0181941D01*
X0328562Y0180490D01*
X0331465Y0180490D01*
X0333562Y0180490D02*
X0333562Y0181941D01*
X0334046Y0182425D01*
X0335981Y0182425D01*
X0336465Y0181941D01*
X0336465Y0180490D01*
X0333562Y0180490D01*
X0334530Y0183436D02*
X0333562Y0184404D01*
X0334530Y0185371D01*
X0336465Y0185371D01*
X0335981Y0186383D02*
X0336465Y0186866D01*
X0336465Y0187834D01*
X0335981Y0188318D01*
X0334046Y0188318D02*
X0333562Y0187834D01*
X0333562Y0186866D01*
X0334046Y0186383D01*
X0335981Y0186383D01*
X0335014Y0185371D02*
X0335014Y0183436D01*
X0334530Y0183436D02*
X0336465Y0183436D01*
X0331465Y0183436D02*
X0329530Y0183436D01*
X0328562Y0184404D01*
X0329530Y0185371D01*
X0331465Y0185371D01*
X0330981Y0186383D02*
X0331465Y0186866D01*
X0331465Y0187834D01*
X0330981Y0188318D01*
X0329046Y0188318D02*
X0328562Y0187834D01*
X0328562Y0186866D01*
X0329046Y0186383D01*
X0330981Y0186383D01*
X0330014Y0185371D02*
X0330014Y0183436D01*
X0336949Y0179478D02*
X0336949Y0177543D01*
X0336465Y0176048D02*
X0333562Y0176048D01*
X0335014Y0174597D01*
X0335014Y0176531D01*
X0335014Y0173585D02*
X0335497Y0173101D01*
X0335497Y0171650D01*
X0335497Y0172617D02*
X0336465Y0173585D01*
X0335014Y0173585D02*
X0334046Y0173585D01*
X0333562Y0173101D01*
X0333562Y0171650D01*
X0336465Y0171650D01*
X0356265Y0178150D02*
X0356265Y0181052D01*
X0357716Y0181052D01*
X0358200Y0180569D01*
X0358200Y0179601D01*
X0357716Y0179117D01*
X0356265Y0179117D01*
X0357232Y0179117D02*
X0358200Y0178150D01*
X0359211Y0178150D02*
X0361146Y0180085D01*
X0361146Y0180569D01*
X0360663Y0181052D01*
X0359695Y0181052D01*
X0359211Y0180569D01*
X0359663Y0182650D02*
X0360146Y0183134D01*
X0360146Y0184101D01*
X0359179Y0184101D01*
X0358211Y0183134D02*
X0358695Y0182650D01*
X0359663Y0182650D01*
X0358211Y0183134D02*
X0358211Y0185069D01*
X0358695Y0185552D01*
X0359663Y0185552D01*
X0360146Y0185069D01*
X0357200Y0185069D02*
X0357200Y0184101D01*
X0356716Y0183617D01*
X0355265Y0183617D01*
X0355265Y0182650D02*
X0355265Y0185552D01*
X0356716Y0185552D01*
X0357200Y0185069D01*
X0356232Y0183617D02*
X0357200Y0182650D01*
X0361158Y0182166D02*
X0363093Y0182166D01*
X0364105Y0182650D02*
X0365556Y0182650D01*
X0366039Y0183134D01*
X0366039Y0185069D01*
X0365556Y0185552D01*
X0364105Y0185552D01*
X0364105Y0182650D01*
X0365105Y0181052D02*
X0366556Y0181052D01*
X0367039Y0180569D01*
X0367039Y0178634D01*
X0366556Y0178150D01*
X0365105Y0178150D01*
X0365105Y0181052D01*
X0367051Y0182650D02*
X0367051Y0184585D01*
X0368019Y0185552D01*
X0368986Y0184585D01*
X0368986Y0182650D01*
X0369998Y0183134D02*
X0370481Y0182650D01*
X0371449Y0182650D01*
X0371933Y0183134D01*
X0371933Y0185069D02*
X0371449Y0185552D01*
X0370481Y0185552D01*
X0369998Y0185069D01*
X0369998Y0183134D01*
X0368986Y0184101D02*
X0367051Y0184101D01*
X0369019Y0181052D02*
X0369986Y0180085D01*
X0369986Y0178150D01*
X0370998Y0178634D02*
X0370998Y0180569D01*
X0371481Y0181052D01*
X0372449Y0181052D01*
X0372933Y0180569D01*
X0372933Y0178634D02*
X0372449Y0178150D01*
X0371481Y0178150D01*
X0370998Y0178634D01*
X0369986Y0179601D02*
X0368051Y0179601D01*
X0368051Y0180085D02*
X0369019Y0181052D01*
X0368051Y0180085D02*
X0368051Y0178150D01*
X0364093Y0177666D02*
X0362158Y0177666D01*
X0361146Y0178150D02*
X0359211Y0178150D01*
X0373562Y0175334D02*
X0373562Y0174366D01*
X0374046Y0173883D01*
X0375981Y0173883D01*
X0376465Y0174366D01*
X0376465Y0175334D01*
X0375981Y0175818D01*
X0374046Y0175818D02*
X0373562Y0175334D01*
X0374530Y0172871D02*
X0376465Y0172871D01*
X0375014Y0172871D02*
X0375014Y0170936D01*
X0374530Y0170936D02*
X0373562Y0171904D01*
X0374530Y0172871D01*
X0374530Y0170936D02*
X0376465Y0170936D01*
X0375981Y0169925D02*
X0374046Y0169925D01*
X0373562Y0169441D01*
X0373562Y0167990D01*
X0376465Y0167990D01*
X0376465Y0169441D01*
X0375981Y0169925D01*
X0376949Y0166978D02*
X0376949Y0165043D01*
X0375014Y0163064D02*
X0375014Y0162097D01*
X0375014Y0161085D02*
X0375497Y0160601D01*
X0375497Y0159150D01*
X0375497Y0160117D02*
X0376465Y0161085D01*
X0376465Y0162097D02*
X0373562Y0162097D01*
X0373562Y0164031D01*
X0374046Y0161085D02*
X0375014Y0161085D01*
X0374046Y0161085D02*
X0373562Y0160601D01*
X0373562Y0159150D01*
X0376465Y0159150D01*
X0379262Y0149671D02*
X0382165Y0149671D01*
X0382165Y0150638D02*
X0382165Y0148703D01*
X0382165Y0147208D02*
X0379262Y0147208D01*
X0380714Y0145757D01*
X0380714Y0147692D01*
X0380230Y0148703D02*
X0379262Y0149671D01*
X0379746Y0144745D02*
X0379262Y0144262D01*
X0379262Y0143294D01*
X0379746Y0142810D01*
X0381681Y0142810D01*
X0382165Y0143294D01*
X0382165Y0144262D01*
X0381681Y0144745D01*
X0382165Y0140638D02*
X0382165Y0138703D01*
X0380230Y0140638D01*
X0379746Y0140638D01*
X0379262Y0140155D01*
X0379262Y0139187D01*
X0379746Y0138703D01*
X0380714Y0137692D02*
X0380714Y0135757D01*
X0379262Y0137208D01*
X0382165Y0137208D01*
X0381681Y0134745D02*
X0382165Y0134262D01*
X0382165Y0133294D01*
X0381681Y0132810D01*
X0379746Y0132810D01*
X0379262Y0133294D01*
X0379262Y0134262D01*
X0379746Y0134745D01*
X0394395Y0131216D02*
X0394395Y0128313D01*
X0394395Y0129281D02*
X0395846Y0129281D01*
X0396330Y0129765D01*
X0396330Y0130732D01*
X0395846Y0131216D01*
X0394395Y0131216D01*
X0395362Y0129281D02*
X0396330Y0128313D01*
X0397341Y0127830D02*
X0399276Y0127830D01*
X0400288Y0128313D02*
X0400288Y0131216D01*
X0400288Y0129765D02*
X0402223Y0129765D01*
X0403234Y0130732D02*
X0403234Y0128797D01*
X0403718Y0128313D01*
X0404686Y0128313D01*
X0405169Y0128797D01*
X0405169Y0129765D01*
X0404202Y0129765D01*
X0405169Y0130732D02*
X0404686Y0131216D01*
X0403718Y0131216D01*
X0403234Y0130732D01*
X0402223Y0131216D02*
X0402223Y0128313D01*
X0406181Y0128313D02*
X0408116Y0128313D01*
X0407148Y0128313D02*
X0407148Y0131216D01*
X0406181Y0130248D01*
X0406285Y0121552D02*
X0405801Y0121069D01*
X0406285Y0121552D02*
X0407252Y0121552D01*
X0407736Y0121069D01*
X0407736Y0120585D01*
X0405801Y0118650D01*
X0407736Y0118650D01*
X0404789Y0119134D02*
X0404789Y0120101D01*
X0403822Y0120101D01*
X0402855Y0119134D02*
X0403338Y0118650D01*
X0404306Y0118650D01*
X0404789Y0119134D01*
X0402855Y0119134D02*
X0402855Y0121069D01*
X0403338Y0121552D01*
X0404306Y0121552D01*
X0404789Y0121069D01*
X0401843Y0121552D02*
X0401843Y0118650D01*
X0401843Y0120101D02*
X0399908Y0120101D01*
X0399908Y0118650D02*
X0399908Y0121552D01*
X0395950Y0121069D02*
X0395466Y0121552D01*
X0394015Y0121552D01*
X0394015Y0118650D01*
X0394015Y0119617D02*
X0395466Y0119617D01*
X0395950Y0120101D01*
X0395950Y0121069D01*
X0394982Y0119617D02*
X0395950Y0118650D01*
X0396961Y0118166D02*
X0398896Y0118166D01*
X0399853Y0111387D02*
X0399853Y0108485D01*
X0398841Y0108001D02*
X0396906Y0108001D01*
X0395895Y0108485D02*
X0394927Y0109452D01*
X0395411Y0109452D02*
X0393960Y0109452D01*
X0393960Y0108485D02*
X0393960Y0111387D01*
X0395411Y0111387D01*
X0395895Y0110903D01*
X0395895Y0109936D01*
X0395411Y0109452D01*
X0399853Y0109936D02*
X0401788Y0109936D01*
X0402799Y0110903D02*
X0402799Y0108968D01*
X0403283Y0108485D01*
X0404251Y0108485D01*
X0404734Y0108968D01*
X0404734Y0109936D01*
X0403767Y0109936D01*
X0404734Y0110903D02*
X0404251Y0111387D01*
X0403283Y0111387D01*
X0402799Y0110903D01*
X0401788Y0111387D02*
X0401788Y0108485D01*
X0405746Y0108968D02*
X0406230Y0108485D01*
X0407197Y0108485D01*
X0407681Y0108968D01*
X0407681Y0109452D01*
X0407197Y0109936D01*
X0406713Y0109936D01*
X0407197Y0109936D02*
X0407681Y0110420D01*
X0407681Y0110903D01*
X0407197Y0111387D01*
X0406230Y0111387D01*
X0405746Y0110903D01*
X0390887Y0103169D02*
X0387751Y0100033D01*
X0387751Y0101601D02*
X0390887Y0101601D01*
X0390887Y0100033D02*
X0387751Y0103169D01*
X0389319Y0103169D02*
X0389319Y0100033D01*
X0389749Y0093850D02*
X0389265Y0093366D01*
X0389265Y0092399D01*
X0389749Y0091915D01*
X0392167Y0091915D01*
X0390716Y0090903D02*
X0389749Y0090903D01*
X0389265Y0090420D01*
X0389265Y0089452D01*
X0389749Y0088969D01*
X0390232Y0088969D01*
X0390716Y0089452D01*
X0390716Y0090903D01*
X0391684Y0089936D01*
X0392167Y0088969D01*
X0392167Y0093850D02*
X0389749Y0093850D01*
X0401762Y0092171D02*
X0404665Y0092171D01*
X0404665Y0093138D02*
X0404665Y0091203D01*
X0404665Y0090192D02*
X0403697Y0089224D01*
X0403697Y0089708D02*
X0403697Y0088257D01*
X0404665Y0088257D02*
X0401762Y0088257D01*
X0401762Y0089708D01*
X0402246Y0090192D01*
X0403214Y0090192D01*
X0403697Y0089708D01*
X0402730Y0091203D02*
X0401762Y0092171D01*
X0429265Y0074552D02*
X0430716Y0074552D01*
X0431200Y0074069D01*
X0431200Y0073585D01*
X0430716Y0073101D01*
X0429265Y0073101D01*
X0429265Y0071650D02*
X0430716Y0071650D01*
X0431200Y0072134D01*
X0431200Y0072617D01*
X0430716Y0073101D01*
X0432211Y0072134D02*
X0432695Y0072617D01*
X0434146Y0072617D01*
X0434146Y0073101D02*
X0434146Y0071650D01*
X0432695Y0071650D01*
X0432211Y0072134D01*
X0432695Y0073585D02*
X0433663Y0073585D01*
X0434146Y0073101D01*
X0435158Y0073585D02*
X0436125Y0073585D01*
X0435642Y0074069D02*
X0435642Y0072134D01*
X0436125Y0071650D01*
X0437606Y0072134D02*
X0438090Y0071650D01*
X0437606Y0072134D02*
X0437606Y0074069D01*
X0437122Y0073585D02*
X0438090Y0073585D01*
X0439087Y0073101D02*
X0441022Y0073101D01*
X0441765Y0073101D02*
X0443216Y0073101D01*
X0443700Y0072617D01*
X0443700Y0072134D01*
X0443216Y0071650D01*
X0441765Y0071650D01*
X0441765Y0074552D01*
X0443216Y0074552D01*
X0443700Y0074069D01*
X0443700Y0073585D01*
X0443216Y0073101D01*
X0444711Y0072134D02*
X0445195Y0072617D01*
X0446646Y0072617D01*
X0446646Y0073101D02*
X0446646Y0071650D01*
X0445195Y0071650D01*
X0444711Y0072134D01*
X0445195Y0073585D02*
X0446163Y0073585D01*
X0446646Y0073101D01*
X0447658Y0073585D02*
X0448625Y0073585D01*
X0448142Y0074069D02*
X0448142Y0072134D01*
X0448625Y0071650D01*
X0450106Y0072134D02*
X0450106Y0074069D01*
X0449622Y0073585D02*
X0450590Y0073585D01*
X0451587Y0073101D02*
X0453522Y0073101D01*
X0452554Y0074069D02*
X0452554Y0072134D01*
X0450590Y0071650D02*
X0450106Y0072134D01*
X0452914Y0065938D02*
X0452914Y0064003D01*
X0451462Y0065455D01*
X0454365Y0065455D01*
X0452914Y0062992D02*
X0453397Y0062508D01*
X0453397Y0061057D01*
X0454365Y0061057D02*
X0451462Y0061057D01*
X0451462Y0062508D01*
X0451946Y0062992D01*
X0452914Y0062992D01*
X0451462Y0060045D02*
X0451462Y0059078D01*
X0451462Y0059562D02*
X0453881Y0059562D01*
X0454365Y0059078D01*
X0454365Y0058594D01*
X0453881Y0058110D01*
X0429265Y0071650D02*
X0429265Y0074552D01*
X0378235Y0117252D02*
X0377751Y0116768D01*
X0376783Y0116768D01*
X0376300Y0117252D01*
X0378235Y0119187D01*
X0378235Y0117252D01*
X0378235Y0119187D02*
X0377751Y0119671D01*
X0376783Y0119671D01*
X0376300Y0119187D01*
X0376300Y0117252D01*
X0375288Y0117252D02*
X0374804Y0116768D01*
X0373837Y0116768D01*
X0373353Y0117252D01*
X0373353Y0118219D02*
X0374321Y0118703D01*
X0374804Y0118703D01*
X0375288Y0118219D01*
X0375288Y0117252D01*
X0373353Y0118219D02*
X0373353Y0119671D01*
X0375288Y0119671D01*
X0372342Y0119187D02*
X0371858Y0119671D01*
X0370890Y0119671D01*
X0370407Y0119187D01*
X0370407Y0117252D01*
X0370890Y0116768D01*
X0371858Y0116768D01*
X0372342Y0117252D01*
X0363626Y0139943D02*
X0360723Y0139943D01*
X0360723Y0141395D01*
X0361207Y0141878D01*
X0362174Y0141878D01*
X0362658Y0141395D01*
X0362658Y0139943D01*
X0362658Y0140911D02*
X0363626Y0141878D01*
X0363142Y0142890D02*
X0363626Y0143374D01*
X0363626Y0144341D01*
X0363142Y0144825D01*
X0362658Y0144825D01*
X0362174Y0144341D01*
X0362174Y0143857D01*
X0362174Y0144341D02*
X0361691Y0144825D01*
X0361207Y0144825D01*
X0360723Y0144341D01*
X0360723Y0143374D01*
X0361207Y0142890D01*
X0364109Y0145836D02*
X0364109Y0147771D01*
X0363626Y0148783D02*
X0363626Y0150234D01*
X0363142Y0150718D01*
X0361207Y0150718D01*
X0360723Y0150234D01*
X0360723Y0148783D01*
X0363626Y0148783D01*
X0363626Y0151729D02*
X0361691Y0151729D01*
X0360723Y0152697D01*
X0361691Y0153664D01*
X0363626Y0153664D01*
X0363142Y0154676D02*
X0363626Y0155160D01*
X0363626Y0156127D01*
X0363142Y0156611D01*
X0363142Y0154676D02*
X0361207Y0154676D01*
X0360723Y0155160D01*
X0360723Y0156127D01*
X0361207Y0156611D01*
X0362174Y0153664D02*
X0362174Y0151729D01*
X0410691Y0174893D02*
X0411658Y0174893D01*
X0411174Y0174893D02*
X0411174Y0177795D01*
X0410691Y0177795D02*
X0411658Y0177795D01*
X0412655Y0177311D02*
X0412655Y0175376D01*
X0413139Y0174893D01*
X0414106Y0174893D01*
X0414590Y0175376D01*
X0415601Y0175376D02*
X0416085Y0174893D01*
X0417053Y0174893D01*
X0417536Y0175376D01*
X0417536Y0175860D01*
X0417053Y0176344D01*
X0416569Y0176344D01*
X0417053Y0176344D02*
X0417536Y0176827D01*
X0417536Y0177311D01*
X0417053Y0177795D01*
X0416085Y0177795D01*
X0415601Y0177311D01*
X0414590Y0177311D02*
X0414106Y0177795D01*
X0413139Y0177795D01*
X0412655Y0177311D01*
X0407039Y0186650D02*
X0407039Y0189552D01*
X0407039Y0188101D02*
X0405105Y0188101D01*
X0405105Y0186650D02*
X0405105Y0189552D01*
X0404093Y0186166D02*
X0402158Y0186166D01*
X0401146Y0186650D02*
X0399211Y0186650D01*
X0400179Y0186650D02*
X0400179Y0189552D01*
X0399211Y0188585D01*
X0398200Y0189069D02*
X0398200Y0188101D01*
X0397716Y0187617D01*
X0396265Y0187617D01*
X0396265Y0186650D02*
X0396265Y0189552D01*
X0397716Y0189552D01*
X0398200Y0189069D01*
X0397232Y0187617D02*
X0398200Y0186650D01*
X0425765Y0191400D02*
X0425765Y0194302D01*
X0427216Y0194302D01*
X0427700Y0193819D01*
X0427700Y0192851D01*
X0427216Y0192367D01*
X0425765Y0192367D01*
X0426732Y0192367D02*
X0427700Y0191400D01*
X0428711Y0191400D02*
X0430646Y0193335D01*
X0430646Y0193819D01*
X0430163Y0194302D01*
X0429195Y0194302D01*
X0428711Y0193819D01*
X0428711Y0191400D02*
X0430646Y0191400D01*
X0431658Y0190916D02*
X0433593Y0190916D01*
X0434605Y0191400D02*
X0434605Y0194302D01*
X0434605Y0192851D02*
X0436539Y0192851D01*
X0436539Y0194302D02*
X0436539Y0191400D01*
X0447246Y0180638D02*
X0446762Y0180155D01*
X0446762Y0179187D01*
X0447246Y0178703D01*
X0447730Y0178703D01*
X0448214Y0179187D01*
X0448214Y0180638D01*
X0449181Y0180638D02*
X0447246Y0180638D01*
X0449181Y0180638D02*
X0449665Y0180155D01*
X0449665Y0179187D01*
X0449181Y0178703D01*
X0449181Y0177692D02*
X0449665Y0177208D01*
X0449665Y0176241D01*
X0449181Y0175757D01*
X0449181Y0174745D02*
X0449665Y0174262D01*
X0449665Y0173294D01*
X0449181Y0172810D01*
X0447246Y0172810D01*
X0446762Y0173294D01*
X0446762Y0174262D01*
X0447246Y0174745D01*
X0447246Y0175757D02*
X0446762Y0176241D01*
X0446762Y0177208D01*
X0447246Y0177692D01*
X0447730Y0177692D01*
X0448214Y0177208D01*
X0448697Y0177692D01*
X0449181Y0177692D01*
X0448214Y0177208D02*
X0448214Y0176724D01*
X0451762Y0177208D02*
X0453214Y0175757D01*
X0453214Y0177692D01*
X0454181Y0178703D02*
X0452246Y0178703D01*
X0451762Y0179187D01*
X0451762Y0180155D01*
X0452246Y0180638D01*
X0454181Y0178703D01*
X0454665Y0179187D01*
X0454665Y0180155D01*
X0454181Y0180638D01*
X0452246Y0180638D01*
X0451762Y0177208D02*
X0454665Y0177208D01*
X0454181Y0174745D02*
X0454665Y0174262D01*
X0454665Y0173294D01*
X0454181Y0172810D01*
X0452246Y0172810D01*
X0451762Y0173294D01*
X0451762Y0174262D01*
X0452246Y0174745D01*
X0434665Y0165138D02*
X0431762Y0165138D01*
X0433214Y0165138D02*
X0433214Y0163203D01*
X0434665Y0163203D02*
X0431762Y0163203D01*
X0435149Y0162192D02*
X0435149Y0160257D01*
X0434181Y0159245D02*
X0433697Y0159245D01*
X0433214Y0158762D01*
X0433214Y0157310D01*
X0434181Y0157310D01*
X0434665Y0157794D01*
X0434665Y0158762D01*
X0434181Y0159245D01*
X0432246Y0158278D02*
X0433214Y0157310D01*
X0433214Y0156299D02*
X0433697Y0155815D01*
X0433697Y0154364D01*
X0433697Y0155331D02*
X0434665Y0156299D01*
X0433214Y0156299D02*
X0432246Y0156299D01*
X0431762Y0155815D01*
X0431762Y0154364D01*
X0434665Y0154364D01*
X0432246Y0158278D02*
X0431762Y0159245D01*
X0431930Y0149102D02*
X0432414Y0148619D01*
X0432414Y0147651D01*
X0431930Y0147167D01*
X0430479Y0147167D01*
X0430479Y0146200D02*
X0430479Y0149102D01*
X0431930Y0149102D01*
X0433425Y0149102D02*
X0435360Y0149102D01*
X0435360Y0148619D01*
X0433425Y0146684D01*
X0433425Y0146200D01*
X0432414Y0146200D02*
X0431446Y0147167D01*
X0436372Y0145716D02*
X0438307Y0145716D01*
X0439318Y0146200D02*
X0439318Y0149102D01*
X0439318Y0147651D02*
X0441253Y0147651D01*
X0441253Y0149102D02*
X0441253Y0146200D01*
X0455574Y0132091D02*
X0455574Y0130156D01*
X0455574Y0131124D02*
X0452672Y0131124D01*
X0453639Y0130156D01*
X0453156Y0129145D02*
X0454123Y0129145D01*
X0454607Y0128661D01*
X0454607Y0127210D01*
X0455574Y0127210D02*
X0452672Y0127210D01*
X0452672Y0128661D01*
X0453156Y0129145D01*
X0452672Y0126198D02*
X0452672Y0125231D01*
X0452672Y0125714D02*
X0455091Y0125714D01*
X0455574Y0125231D01*
X0455574Y0124747D01*
X0455091Y0124263D01*
X0313965Y0224150D02*
X0313965Y0226085D01*
X0313965Y0225117D02*
X0311062Y0225117D01*
X0312030Y0224150D01*
X0306465Y0224150D02*
X0304530Y0226085D01*
X0304046Y0226085D01*
X0303562Y0225601D01*
X0303562Y0224634D01*
X0304046Y0224150D01*
X0306465Y0224150D02*
X0306465Y0226085D01*
X0296465Y0225601D02*
X0296465Y0224634D01*
X0295981Y0224150D01*
X0295014Y0225117D02*
X0295014Y0225601D01*
X0295497Y0226085D01*
X0295981Y0226085D01*
X0296465Y0225601D01*
X0295014Y0225601D02*
X0294530Y0226085D01*
X0294046Y0226085D01*
X0293562Y0225601D01*
X0293562Y0224634D01*
X0294046Y0224150D01*
X0286465Y0225601D02*
X0283562Y0225601D01*
X0285014Y0224150D01*
X0285014Y0226085D01*
X0276465Y0225601D02*
X0276465Y0224634D01*
X0275981Y0224150D01*
X0275014Y0224150D02*
X0274530Y0225117D01*
X0274530Y0225601D01*
X0275014Y0226085D01*
X0275981Y0226085D01*
X0276465Y0225601D01*
X0275014Y0224150D02*
X0273562Y0224150D01*
X0273562Y0226085D01*
X0266465Y0225601D02*
X0266465Y0224634D01*
X0265981Y0224150D01*
X0265014Y0224150D01*
X0265014Y0225601D01*
X0265497Y0226085D01*
X0265981Y0226085D01*
X0266465Y0225601D01*
X0265014Y0224150D02*
X0264046Y0225117D01*
X0263562Y0226085D01*
X0256465Y0224150D02*
X0255981Y0224150D01*
X0254046Y0226085D01*
X0253562Y0226085D01*
X0253562Y0224150D01*
X0238965Y0224634D02*
X0238481Y0224150D01*
X0237997Y0224150D01*
X0237514Y0224634D01*
X0237514Y0225601D01*
X0237997Y0226085D01*
X0238481Y0226085D01*
X0238965Y0225601D01*
X0238965Y0224634D01*
X0237514Y0224634D02*
X0237030Y0224150D01*
X0236546Y0224150D01*
X0236062Y0224634D01*
X0236062Y0225601D01*
X0236546Y0226085D01*
X0237030Y0226085D01*
X0237514Y0225601D01*
X0228965Y0225601D02*
X0228965Y0224634D01*
X0228481Y0224150D01*
X0227514Y0224634D02*
X0227514Y0226085D01*
X0228481Y0226085D02*
X0226546Y0226085D01*
X0226062Y0225601D01*
X0226062Y0224634D01*
X0226546Y0224150D01*
X0227030Y0224150D01*
X0227514Y0224634D01*
X0228965Y0225601D02*
X0228481Y0226085D01*
X0218965Y0226048D02*
X0218965Y0225080D01*
X0218481Y0224597D01*
X0216546Y0226531D01*
X0218481Y0226531D01*
X0218965Y0226048D01*
X0218481Y0224597D02*
X0216546Y0224597D01*
X0216062Y0225080D01*
X0216062Y0226048D01*
X0216546Y0226531D01*
X0218965Y0223585D02*
X0218965Y0221650D01*
X0218965Y0222617D02*
X0216062Y0222617D01*
X0217030Y0221650D01*
X0208965Y0221650D02*
X0208965Y0223585D01*
X0208965Y0222617D02*
X0206062Y0222617D01*
X0207030Y0221650D01*
X0207030Y0224597D02*
X0206062Y0225564D01*
X0208965Y0225564D01*
X0208965Y0224597D02*
X0208965Y0226531D01*
X0198965Y0226531D02*
X0198965Y0224597D01*
X0197030Y0226531D01*
X0196546Y0226531D01*
X0196062Y0226048D01*
X0196062Y0225080D01*
X0196546Y0224597D01*
X0196062Y0222617D02*
X0198965Y0222617D01*
X0198965Y0221650D02*
X0198965Y0223585D01*
X0197030Y0221650D02*
X0196062Y0222617D01*
X0188965Y0222617D02*
X0186062Y0222617D01*
X0187030Y0221650D01*
X0188965Y0221650D02*
X0188965Y0223585D01*
X0188481Y0224597D02*
X0188965Y0225080D01*
X0188965Y0226048D01*
X0188481Y0226531D01*
X0187997Y0226531D01*
X0187514Y0226048D01*
X0187514Y0225564D01*
X0187514Y0226048D02*
X0187030Y0226531D01*
X0186546Y0226531D01*
X0186062Y0226048D01*
X0186062Y0225080D01*
X0186546Y0224597D01*
X0180753Y0225385D02*
X0179302Y0225385D01*
X0178818Y0224901D01*
X0178818Y0223934D01*
X0179302Y0223450D01*
X0180753Y0223450D01*
X0180753Y0226352D01*
X0177807Y0224901D02*
X0177807Y0223450D01*
X0177807Y0224901D02*
X0177323Y0225385D01*
X0175872Y0225385D01*
X0175872Y0223450D01*
X0174860Y0223450D02*
X0173409Y0223450D01*
X0172925Y0223934D01*
X0172925Y0224901D01*
X0173409Y0225385D01*
X0174860Y0225385D01*
X0174860Y0222966D01*
X0174377Y0222483D01*
X0173893Y0222483D01*
X0212249Y0019552D02*
X0213216Y0019552D01*
X0213700Y0019069D01*
X0213700Y0018585D01*
X0213216Y0018101D01*
X0213700Y0017617D01*
X0213700Y0017134D01*
X0213216Y0016650D01*
X0212249Y0016650D01*
X0211765Y0017134D01*
X0212732Y0018101D02*
X0213216Y0018101D01*
X0214711Y0018585D02*
X0215679Y0016650D01*
X0216646Y0018585D01*
X0217658Y0019069D02*
X0218142Y0019552D01*
X0219109Y0019552D01*
X0219593Y0019069D01*
X0219593Y0018585D01*
X0219109Y0018101D01*
X0219593Y0017617D01*
X0219593Y0017134D01*
X0219109Y0016650D01*
X0218142Y0016650D01*
X0217658Y0017134D01*
X0218625Y0018101D02*
X0219109Y0018101D01*
X0221765Y0018101D02*
X0222732Y0018585D01*
X0223216Y0018585D01*
X0223700Y0018101D01*
X0223700Y0017134D01*
X0223216Y0016650D01*
X0222249Y0016650D01*
X0221765Y0017134D01*
X0221765Y0018101D02*
X0221765Y0019552D01*
X0223700Y0019552D01*
X0224711Y0019552D02*
X0224711Y0017617D01*
X0225679Y0016650D01*
X0226646Y0017617D01*
X0226646Y0019552D01*
X0231765Y0018101D02*
X0231765Y0017134D01*
X0232249Y0016650D01*
X0233700Y0016650D01*
X0233700Y0016166D02*
X0233700Y0018585D01*
X0232249Y0018585D01*
X0231765Y0018101D01*
X0232732Y0015683D02*
X0233216Y0015683D01*
X0233700Y0016166D01*
X0234711Y0016650D02*
X0234711Y0018585D01*
X0236163Y0018585D01*
X0236646Y0018101D01*
X0236646Y0016650D01*
X0237658Y0017134D02*
X0237658Y0018101D01*
X0238142Y0018585D01*
X0239593Y0018585D01*
X0239593Y0019552D02*
X0239593Y0016650D01*
X0238142Y0016650D01*
X0237658Y0017134D01*
X0212249Y0019552D02*
X0211765Y0019069D01*
D11*
X0041300Y0035343D02*
X0001300Y0035343D01*
X0001300Y0058843D01*
X0041800Y0058843D01*
X0043800Y0056843D01*
X0043800Y0037843D01*
X0041300Y0035343D01*
X0024800Y0047043D02*
X0024802Y0047204D01*
X0024808Y0047364D01*
X0024818Y0047525D01*
X0024832Y0047685D01*
X0024850Y0047845D01*
X0024871Y0048004D01*
X0024897Y0048163D01*
X0024927Y0048321D01*
X0024960Y0048478D01*
X0024998Y0048635D01*
X0025039Y0048790D01*
X0025084Y0048944D01*
X0025133Y0049097D01*
X0025186Y0049249D01*
X0025242Y0049400D01*
X0025303Y0049549D01*
X0025366Y0049697D01*
X0025434Y0049843D01*
X0025505Y0049987D01*
X0025579Y0050129D01*
X0025657Y0050270D01*
X0025739Y0050408D01*
X0025824Y0050545D01*
X0025912Y0050679D01*
X0026004Y0050811D01*
X0026099Y0050941D01*
X0026197Y0051069D01*
X0026298Y0051194D01*
X0026402Y0051316D01*
X0026509Y0051436D01*
X0026619Y0051553D01*
X0026732Y0051668D01*
X0026848Y0051779D01*
X0026967Y0051888D01*
X0027088Y0051993D01*
X0027212Y0052096D01*
X0027338Y0052196D01*
X0027466Y0052292D01*
X0027597Y0052385D01*
X0027731Y0052475D01*
X0027866Y0052562D01*
X0028004Y0052645D01*
X0028143Y0052725D01*
X0028285Y0052801D01*
X0028428Y0052874D01*
X0028573Y0052943D01*
X0028720Y0053009D01*
X0028868Y0053071D01*
X0029018Y0053129D01*
X0029169Y0053184D01*
X0029322Y0053235D01*
X0029476Y0053282D01*
X0029631Y0053325D01*
X0029787Y0053364D01*
X0029943Y0053400D01*
X0030101Y0053431D01*
X0030259Y0053459D01*
X0030418Y0053483D01*
X0030578Y0053503D01*
X0030738Y0053519D01*
X0030898Y0053531D01*
X0031059Y0053539D01*
X0031220Y0053543D01*
X0031380Y0053543D01*
X0031541Y0053539D01*
X0031702Y0053531D01*
X0031862Y0053519D01*
X0032022Y0053503D01*
X0032182Y0053483D01*
X0032341Y0053459D01*
X0032499Y0053431D01*
X0032657Y0053400D01*
X0032813Y0053364D01*
X0032969Y0053325D01*
X0033124Y0053282D01*
X0033278Y0053235D01*
X0033431Y0053184D01*
X0033582Y0053129D01*
X0033732Y0053071D01*
X0033880Y0053009D01*
X0034027Y0052943D01*
X0034172Y0052874D01*
X0034315Y0052801D01*
X0034457Y0052725D01*
X0034596Y0052645D01*
X0034734Y0052562D01*
X0034869Y0052475D01*
X0035003Y0052385D01*
X0035134Y0052292D01*
X0035262Y0052196D01*
X0035388Y0052096D01*
X0035512Y0051993D01*
X0035633Y0051888D01*
X0035752Y0051779D01*
X0035868Y0051668D01*
X0035981Y0051553D01*
X0036091Y0051436D01*
X0036198Y0051316D01*
X0036302Y0051194D01*
X0036403Y0051069D01*
X0036501Y0050941D01*
X0036596Y0050811D01*
X0036688Y0050679D01*
X0036776Y0050545D01*
X0036861Y0050408D01*
X0036943Y0050270D01*
X0037021Y0050129D01*
X0037095Y0049987D01*
X0037166Y0049843D01*
X0037234Y0049697D01*
X0037297Y0049549D01*
X0037358Y0049400D01*
X0037414Y0049249D01*
X0037467Y0049097D01*
X0037516Y0048944D01*
X0037561Y0048790D01*
X0037602Y0048635D01*
X0037640Y0048478D01*
X0037673Y0048321D01*
X0037703Y0048163D01*
X0037729Y0048004D01*
X0037750Y0047845D01*
X0037768Y0047685D01*
X0037782Y0047525D01*
X0037792Y0047364D01*
X0037798Y0047204D01*
X0037800Y0047043D01*
X0037798Y0046882D01*
X0037792Y0046722D01*
X0037782Y0046561D01*
X0037768Y0046401D01*
X0037750Y0046241D01*
X0037729Y0046082D01*
X0037703Y0045923D01*
X0037673Y0045765D01*
X0037640Y0045608D01*
X0037602Y0045451D01*
X0037561Y0045296D01*
X0037516Y0045142D01*
X0037467Y0044989D01*
X0037414Y0044837D01*
X0037358Y0044686D01*
X0037297Y0044537D01*
X0037234Y0044389D01*
X0037166Y0044243D01*
X0037095Y0044099D01*
X0037021Y0043957D01*
X0036943Y0043816D01*
X0036861Y0043678D01*
X0036776Y0043541D01*
X0036688Y0043407D01*
X0036596Y0043275D01*
X0036501Y0043145D01*
X0036403Y0043017D01*
X0036302Y0042892D01*
X0036198Y0042770D01*
X0036091Y0042650D01*
X0035981Y0042533D01*
X0035868Y0042418D01*
X0035752Y0042307D01*
X0035633Y0042198D01*
X0035512Y0042093D01*
X0035388Y0041990D01*
X0035262Y0041890D01*
X0035134Y0041794D01*
X0035003Y0041701D01*
X0034869Y0041611D01*
X0034734Y0041524D01*
X0034596Y0041441D01*
X0034457Y0041361D01*
X0034315Y0041285D01*
X0034172Y0041212D01*
X0034027Y0041143D01*
X0033880Y0041077D01*
X0033732Y0041015D01*
X0033582Y0040957D01*
X0033431Y0040902D01*
X0033278Y0040851D01*
X0033124Y0040804D01*
X0032969Y0040761D01*
X0032813Y0040722D01*
X0032657Y0040686D01*
X0032499Y0040655D01*
X0032341Y0040627D01*
X0032182Y0040603D01*
X0032022Y0040583D01*
X0031862Y0040567D01*
X0031702Y0040555D01*
X0031541Y0040547D01*
X0031380Y0040543D01*
X0031220Y0040543D01*
X0031059Y0040547D01*
X0030898Y0040555D01*
X0030738Y0040567D01*
X0030578Y0040583D01*
X0030418Y0040603D01*
X0030259Y0040627D01*
X0030101Y0040655D01*
X0029943Y0040686D01*
X0029787Y0040722D01*
X0029631Y0040761D01*
X0029476Y0040804D01*
X0029322Y0040851D01*
X0029169Y0040902D01*
X0029018Y0040957D01*
X0028868Y0041015D01*
X0028720Y0041077D01*
X0028573Y0041143D01*
X0028428Y0041212D01*
X0028285Y0041285D01*
X0028143Y0041361D01*
X0028004Y0041441D01*
X0027866Y0041524D01*
X0027731Y0041611D01*
X0027597Y0041701D01*
X0027466Y0041794D01*
X0027338Y0041890D01*
X0027212Y0041990D01*
X0027088Y0042093D01*
X0026967Y0042198D01*
X0026848Y0042307D01*
X0026732Y0042418D01*
X0026619Y0042533D01*
X0026509Y0042650D01*
X0026402Y0042770D01*
X0026298Y0042892D01*
X0026197Y0043017D01*
X0026099Y0043145D01*
X0026004Y0043275D01*
X0025912Y0043407D01*
X0025824Y0043541D01*
X0025739Y0043678D01*
X0025657Y0043816D01*
X0025579Y0043957D01*
X0025505Y0044099D01*
X0025434Y0044243D01*
X0025366Y0044389D01*
X0025303Y0044537D01*
X0025242Y0044686D01*
X0025186Y0044837D01*
X0025133Y0044989D01*
X0025084Y0045142D01*
X0025039Y0045296D01*
X0024998Y0045451D01*
X0024960Y0045608D01*
X0024927Y0045765D01*
X0024897Y0045923D01*
X0024871Y0046082D01*
X0024850Y0046241D01*
X0024832Y0046401D01*
X0024818Y0046561D01*
X0024808Y0046722D01*
X0024802Y0046882D01*
X0024800Y0047043D01*
X0001300Y0058843D02*
X0001300Y0133843D01*
X0001300Y0157343D01*
X0041800Y0157343D01*
X0043800Y0155343D01*
X0043800Y0135843D01*
X0041800Y0133843D01*
X0001300Y0133843D01*
X0024800Y0145643D02*
X0024802Y0145804D01*
X0024808Y0145964D01*
X0024818Y0146125D01*
X0024832Y0146285D01*
X0024850Y0146445D01*
X0024871Y0146604D01*
X0024897Y0146763D01*
X0024927Y0146921D01*
X0024960Y0147078D01*
X0024998Y0147235D01*
X0025039Y0147390D01*
X0025084Y0147544D01*
X0025133Y0147697D01*
X0025186Y0147849D01*
X0025242Y0148000D01*
X0025303Y0148149D01*
X0025366Y0148297D01*
X0025434Y0148443D01*
X0025505Y0148587D01*
X0025579Y0148729D01*
X0025657Y0148870D01*
X0025739Y0149008D01*
X0025824Y0149145D01*
X0025912Y0149279D01*
X0026004Y0149411D01*
X0026099Y0149541D01*
X0026197Y0149669D01*
X0026298Y0149794D01*
X0026402Y0149916D01*
X0026509Y0150036D01*
X0026619Y0150153D01*
X0026732Y0150268D01*
X0026848Y0150379D01*
X0026967Y0150488D01*
X0027088Y0150593D01*
X0027212Y0150696D01*
X0027338Y0150796D01*
X0027466Y0150892D01*
X0027597Y0150985D01*
X0027731Y0151075D01*
X0027866Y0151162D01*
X0028004Y0151245D01*
X0028143Y0151325D01*
X0028285Y0151401D01*
X0028428Y0151474D01*
X0028573Y0151543D01*
X0028720Y0151609D01*
X0028868Y0151671D01*
X0029018Y0151729D01*
X0029169Y0151784D01*
X0029322Y0151835D01*
X0029476Y0151882D01*
X0029631Y0151925D01*
X0029787Y0151964D01*
X0029943Y0152000D01*
X0030101Y0152031D01*
X0030259Y0152059D01*
X0030418Y0152083D01*
X0030578Y0152103D01*
X0030738Y0152119D01*
X0030898Y0152131D01*
X0031059Y0152139D01*
X0031220Y0152143D01*
X0031380Y0152143D01*
X0031541Y0152139D01*
X0031702Y0152131D01*
X0031862Y0152119D01*
X0032022Y0152103D01*
X0032182Y0152083D01*
X0032341Y0152059D01*
X0032499Y0152031D01*
X0032657Y0152000D01*
X0032813Y0151964D01*
X0032969Y0151925D01*
X0033124Y0151882D01*
X0033278Y0151835D01*
X0033431Y0151784D01*
X0033582Y0151729D01*
X0033732Y0151671D01*
X0033880Y0151609D01*
X0034027Y0151543D01*
X0034172Y0151474D01*
X0034315Y0151401D01*
X0034457Y0151325D01*
X0034596Y0151245D01*
X0034734Y0151162D01*
X0034869Y0151075D01*
X0035003Y0150985D01*
X0035134Y0150892D01*
X0035262Y0150796D01*
X0035388Y0150696D01*
X0035512Y0150593D01*
X0035633Y0150488D01*
X0035752Y0150379D01*
X0035868Y0150268D01*
X0035981Y0150153D01*
X0036091Y0150036D01*
X0036198Y0149916D01*
X0036302Y0149794D01*
X0036403Y0149669D01*
X0036501Y0149541D01*
X0036596Y0149411D01*
X0036688Y0149279D01*
X0036776Y0149145D01*
X0036861Y0149008D01*
X0036943Y0148870D01*
X0037021Y0148729D01*
X0037095Y0148587D01*
X0037166Y0148443D01*
X0037234Y0148297D01*
X0037297Y0148149D01*
X0037358Y0148000D01*
X0037414Y0147849D01*
X0037467Y0147697D01*
X0037516Y0147544D01*
X0037561Y0147390D01*
X0037602Y0147235D01*
X0037640Y0147078D01*
X0037673Y0146921D01*
X0037703Y0146763D01*
X0037729Y0146604D01*
X0037750Y0146445D01*
X0037768Y0146285D01*
X0037782Y0146125D01*
X0037792Y0145964D01*
X0037798Y0145804D01*
X0037800Y0145643D01*
X0037798Y0145482D01*
X0037792Y0145322D01*
X0037782Y0145161D01*
X0037768Y0145001D01*
X0037750Y0144841D01*
X0037729Y0144682D01*
X0037703Y0144523D01*
X0037673Y0144365D01*
X0037640Y0144208D01*
X0037602Y0144051D01*
X0037561Y0143896D01*
X0037516Y0143742D01*
X0037467Y0143589D01*
X0037414Y0143437D01*
X0037358Y0143286D01*
X0037297Y0143137D01*
X0037234Y0142989D01*
X0037166Y0142843D01*
X0037095Y0142699D01*
X0037021Y0142557D01*
X0036943Y0142416D01*
X0036861Y0142278D01*
X0036776Y0142141D01*
X0036688Y0142007D01*
X0036596Y0141875D01*
X0036501Y0141745D01*
X0036403Y0141617D01*
X0036302Y0141492D01*
X0036198Y0141370D01*
X0036091Y0141250D01*
X0035981Y0141133D01*
X0035868Y0141018D01*
X0035752Y0140907D01*
X0035633Y0140798D01*
X0035512Y0140693D01*
X0035388Y0140590D01*
X0035262Y0140490D01*
X0035134Y0140394D01*
X0035003Y0140301D01*
X0034869Y0140211D01*
X0034734Y0140124D01*
X0034596Y0140041D01*
X0034457Y0139961D01*
X0034315Y0139885D01*
X0034172Y0139812D01*
X0034027Y0139743D01*
X0033880Y0139677D01*
X0033732Y0139615D01*
X0033582Y0139557D01*
X0033431Y0139502D01*
X0033278Y0139451D01*
X0033124Y0139404D01*
X0032969Y0139361D01*
X0032813Y0139322D01*
X0032657Y0139286D01*
X0032499Y0139255D01*
X0032341Y0139227D01*
X0032182Y0139203D01*
X0032022Y0139183D01*
X0031862Y0139167D01*
X0031702Y0139155D01*
X0031541Y0139147D01*
X0031380Y0139143D01*
X0031220Y0139143D01*
X0031059Y0139147D01*
X0030898Y0139155D01*
X0030738Y0139167D01*
X0030578Y0139183D01*
X0030418Y0139203D01*
X0030259Y0139227D01*
X0030101Y0139255D01*
X0029943Y0139286D01*
X0029787Y0139322D01*
X0029631Y0139361D01*
X0029476Y0139404D01*
X0029322Y0139451D01*
X0029169Y0139502D01*
X0029018Y0139557D01*
X0028868Y0139615D01*
X0028720Y0139677D01*
X0028573Y0139743D01*
X0028428Y0139812D01*
X0028285Y0139885D01*
X0028143Y0139961D01*
X0028004Y0140041D01*
X0027866Y0140124D01*
X0027731Y0140211D01*
X0027597Y0140301D01*
X0027466Y0140394D01*
X0027338Y0140490D01*
X0027212Y0140590D01*
X0027088Y0140693D01*
X0026967Y0140798D01*
X0026848Y0140907D01*
X0026732Y0141018D01*
X0026619Y0141133D01*
X0026509Y0141250D01*
X0026402Y0141370D01*
X0026298Y0141492D01*
X0026197Y0141617D01*
X0026099Y0141745D01*
X0026004Y0141875D01*
X0025912Y0142007D01*
X0025824Y0142141D01*
X0025739Y0142278D01*
X0025657Y0142416D01*
X0025579Y0142557D01*
X0025505Y0142699D01*
X0025434Y0142843D01*
X0025366Y0142989D01*
X0025303Y0143137D01*
X0025242Y0143286D01*
X0025186Y0143437D01*
X0025133Y0143589D01*
X0025084Y0143742D01*
X0025039Y0143896D01*
X0024998Y0144051D01*
X0024960Y0144208D01*
X0024927Y0144365D01*
X0024897Y0144523D01*
X0024871Y0144682D01*
X0024850Y0144841D01*
X0024832Y0145001D01*
X0024818Y0145161D01*
X0024808Y0145322D01*
X0024802Y0145482D01*
X0024800Y0145643D01*
X0049115Y0119000D02*
X0051615Y0121500D01*
X0066615Y0121500D01*
X0069115Y0119000D01*
X0069115Y0114000D01*
X0066615Y0111500D01*
X0051615Y0111500D01*
X0049115Y0109000D01*
X0049115Y0104000D01*
X0051615Y0101500D01*
X0066615Y0101500D01*
X0069115Y0099000D01*
X0069115Y0094000D01*
X0066615Y0091500D01*
X0051615Y0091500D01*
X0049115Y0089000D01*
X0049115Y0084000D01*
X0051615Y0081500D01*
X0049115Y0079000D01*
X0049115Y0074000D01*
X0051615Y0071500D01*
X0066615Y0071500D01*
X0069115Y0074000D01*
X0069115Y0079000D01*
X0066615Y0081500D01*
X0051615Y0081500D01*
X0066615Y0081500D02*
X0069115Y0084000D01*
X0069115Y0089000D01*
X0066615Y0091500D01*
X0051615Y0091500D02*
X0049115Y0094000D01*
X0049115Y0099000D01*
X0051615Y0101500D01*
X0066615Y0101500D02*
X0069115Y0104000D01*
X0069115Y0109000D01*
X0066615Y0111500D01*
X0051615Y0111500D02*
X0049115Y0114000D01*
X0049115Y0119000D01*
X0037017Y0184551D02*
X0018017Y0184551D01*
X0015517Y0187051D01*
X0015517Y0227051D01*
X0039017Y0227051D01*
X0039017Y0186551D01*
X0037017Y0184551D01*
X0020717Y0197051D02*
X0020719Y0197212D01*
X0020725Y0197372D01*
X0020735Y0197533D01*
X0020749Y0197693D01*
X0020767Y0197853D01*
X0020788Y0198012D01*
X0020814Y0198171D01*
X0020844Y0198329D01*
X0020877Y0198486D01*
X0020915Y0198643D01*
X0020956Y0198798D01*
X0021001Y0198952D01*
X0021050Y0199105D01*
X0021103Y0199257D01*
X0021159Y0199408D01*
X0021220Y0199557D01*
X0021283Y0199705D01*
X0021351Y0199851D01*
X0021422Y0199995D01*
X0021496Y0200137D01*
X0021574Y0200278D01*
X0021656Y0200416D01*
X0021741Y0200553D01*
X0021829Y0200687D01*
X0021921Y0200819D01*
X0022016Y0200949D01*
X0022114Y0201077D01*
X0022215Y0201202D01*
X0022319Y0201324D01*
X0022426Y0201444D01*
X0022536Y0201561D01*
X0022649Y0201676D01*
X0022765Y0201787D01*
X0022884Y0201896D01*
X0023005Y0202001D01*
X0023129Y0202104D01*
X0023255Y0202204D01*
X0023383Y0202300D01*
X0023514Y0202393D01*
X0023648Y0202483D01*
X0023783Y0202570D01*
X0023921Y0202653D01*
X0024060Y0202733D01*
X0024202Y0202809D01*
X0024345Y0202882D01*
X0024490Y0202951D01*
X0024637Y0203017D01*
X0024785Y0203079D01*
X0024935Y0203137D01*
X0025086Y0203192D01*
X0025239Y0203243D01*
X0025393Y0203290D01*
X0025548Y0203333D01*
X0025704Y0203372D01*
X0025860Y0203408D01*
X0026018Y0203439D01*
X0026176Y0203467D01*
X0026335Y0203491D01*
X0026495Y0203511D01*
X0026655Y0203527D01*
X0026815Y0203539D01*
X0026976Y0203547D01*
X0027137Y0203551D01*
X0027297Y0203551D01*
X0027458Y0203547D01*
X0027619Y0203539D01*
X0027779Y0203527D01*
X0027939Y0203511D01*
X0028099Y0203491D01*
X0028258Y0203467D01*
X0028416Y0203439D01*
X0028574Y0203408D01*
X0028730Y0203372D01*
X0028886Y0203333D01*
X0029041Y0203290D01*
X0029195Y0203243D01*
X0029348Y0203192D01*
X0029499Y0203137D01*
X0029649Y0203079D01*
X0029797Y0203017D01*
X0029944Y0202951D01*
X0030089Y0202882D01*
X0030232Y0202809D01*
X0030374Y0202733D01*
X0030513Y0202653D01*
X0030651Y0202570D01*
X0030786Y0202483D01*
X0030920Y0202393D01*
X0031051Y0202300D01*
X0031179Y0202204D01*
X0031305Y0202104D01*
X0031429Y0202001D01*
X0031550Y0201896D01*
X0031669Y0201787D01*
X0031785Y0201676D01*
X0031898Y0201561D01*
X0032008Y0201444D01*
X0032115Y0201324D01*
X0032219Y0201202D01*
X0032320Y0201077D01*
X0032418Y0200949D01*
X0032513Y0200819D01*
X0032605Y0200687D01*
X0032693Y0200553D01*
X0032778Y0200416D01*
X0032860Y0200278D01*
X0032938Y0200137D01*
X0033012Y0199995D01*
X0033083Y0199851D01*
X0033151Y0199705D01*
X0033214Y0199557D01*
X0033275Y0199408D01*
X0033331Y0199257D01*
X0033384Y0199105D01*
X0033433Y0198952D01*
X0033478Y0198798D01*
X0033519Y0198643D01*
X0033557Y0198486D01*
X0033590Y0198329D01*
X0033620Y0198171D01*
X0033646Y0198012D01*
X0033667Y0197853D01*
X0033685Y0197693D01*
X0033699Y0197533D01*
X0033709Y0197372D01*
X0033715Y0197212D01*
X0033717Y0197051D01*
X0033715Y0196890D01*
X0033709Y0196730D01*
X0033699Y0196569D01*
X0033685Y0196409D01*
X0033667Y0196249D01*
X0033646Y0196090D01*
X0033620Y0195931D01*
X0033590Y0195773D01*
X0033557Y0195616D01*
X0033519Y0195459D01*
X0033478Y0195304D01*
X0033433Y0195150D01*
X0033384Y0194997D01*
X0033331Y0194845D01*
X0033275Y0194694D01*
X0033214Y0194545D01*
X0033151Y0194397D01*
X0033083Y0194251D01*
X0033012Y0194107D01*
X0032938Y0193965D01*
X0032860Y0193824D01*
X0032778Y0193686D01*
X0032693Y0193549D01*
X0032605Y0193415D01*
X0032513Y0193283D01*
X0032418Y0193153D01*
X0032320Y0193025D01*
X0032219Y0192900D01*
X0032115Y0192778D01*
X0032008Y0192658D01*
X0031898Y0192541D01*
X0031785Y0192426D01*
X0031669Y0192315D01*
X0031550Y0192206D01*
X0031429Y0192101D01*
X0031305Y0191998D01*
X0031179Y0191898D01*
X0031051Y0191802D01*
X0030920Y0191709D01*
X0030786Y0191619D01*
X0030651Y0191532D01*
X0030513Y0191449D01*
X0030374Y0191369D01*
X0030232Y0191293D01*
X0030089Y0191220D01*
X0029944Y0191151D01*
X0029797Y0191085D01*
X0029649Y0191023D01*
X0029499Y0190965D01*
X0029348Y0190910D01*
X0029195Y0190859D01*
X0029041Y0190812D01*
X0028886Y0190769D01*
X0028730Y0190730D01*
X0028574Y0190694D01*
X0028416Y0190663D01*
X0028258Y0190635D01*
X0028099Y0190611D01*
X0027939Y0190591D01*
X0027779Y0190575D01*
X0027619Y0190563D01*
X0027458Y0190555D01*
X0027297Y0190551D01*
X0027137Y0190551D01*
X0026976Y0190555D01*
X0026815Y0190563D01*
X0026655Y0190575D01*
X0026495Y0190591D01*
X0026335Y0190611D01*
X0026176Y0190635D01*
X0026018Y0190663D01*
X0025860Y0190694D01*
X0025704Y0190730D01*
X0025548Y0190769D01*
X0025393Y0190812D01*
X0025239Y0190859D01*
X0025086Y0190910D01*
X0024935Y0190965D01*
X0024785Y0191023D01*
X0024637Y0191085D01*
X0024490Y0191151D01*
X0024345Y0191220D01*
X0024202Y0191293D01*
X0024060Y0191369D01*
X0023921Y0191449D01*
X0023783Y0191532D01*
X0023648Y0191619D01*
X0023514Y0191709D01*
X0023383Y0191802D01*
X0023255Y0191898D01*
X0023129Y0191998D01*
X0023005Y0192101D01*
X0022884Y0192206D01*
X0022765Y0192315D01*
X0022649Y0192426D01*
X0022536Y0192541D01*
X0022426Y0192658D01*
X0022319Y0192778D01*
X0022215Y0192900D01*
X0022114Y0193025D01*
X0022016Y0193153D01*
X0021921Y0193283D01*
X0021829Y0193415D01*
X0021741Y0193549D01*
X0021656Y0193686D01*
X0021574Y0193824D01*
X0021496Y0193965D01*
X0021422Y0194107D01*
X0021351Y0194251D01*
X0021283Y0194397D01*
X0021220Y0194545D01*
X0021159Y0194694D01*
X0021103Y0194845D01*
X0021050Y0194997D01*
X0021001Y0195150D01*
X0020956Y0195304D01*
X0020915Y0195459D01*
X0020877Y0195616D01*
X0020844Y0195773D01*
X0020814Y0195931D01*
X0020788Y0196090D01*
X0020767Y0196249D01*
X0020749Y0196409D01*
X0020735Y0196569D01*
X0020725Y0196730D01*
X0020719Y0196890D01*
X0020717Y0197051D01*
X0039017Y0227051D02*
X0114017Y0227051D01*
X0137517Y0227051D01*
X0137517Y0186551D01*
X0135517Y0184551D01*
X0116017Y0184551D01*
X0114017Y0186551D01*
X0114017Y0227051D01*
X0119317Y0197051D02*
X0119319Y0197212D01*
X0119325Y0197372D01*
X0119335Y0197533D01*
X0119349Y0197693D01*
X0119367Y0197853D01*
X0119388Y0198012D01*
X0119414Y0198171D01*
X0119444Y0198329D01*
X0119477Y0198486D01*
X0119515Y0198643D01*
X0119556Y0198798D01*
X0119601Y0198952D01*
X0119650Y0199105D01*
X0119703Y0199257D01*
X0119759Y0199408D01*
X0119820Y0199557D01*
X0119883Y0199705D01*
X0119951Y0199851D01*
X0120022Y0199995D01*
X0120096Y0200137D01*
X0120174Y0200278D01*
X0120256Y0200416D01*
X0120341Y0200553D01*
X0120429Y0200687D01*
X0120521Y0200819D01*
X0120616Y0200949D01*
X0120714Y0201077D01*
X0120815Y0201202D01*
X0120919Y0201324D01*
X0121026Y0201444D01*
X0121136Y0201561D01*
X0121249Y0201676D01*
X0121365Y0201787D01*
X0121484Y0201896D01*
X0121605Y0202001D01*
X0121729Y0202104D01*
X0121855Y0202204D01*
X0121983Y0202300D01*
X0122114Y0202393D01*
X0122248Y0202483D01*
X0122383Y0202570D01*
X0122521Y0202653D01*
X0122660Y0202733D01*
X0122802Y0202809D01*
X0122945Y0202882D01*
X0123090Y0202951D01*
X0123237Y0203017D01*
X0123385Y0203079D01*
X0123535Y0203137D01*
X0123686Y0203192D01*
X0123839Y0203243D01*
X0123993Y0203290D01*
X0124148Y0203333D01*
X0124304Y0203372D01*
X0124460Y0203408D01*
X0124618Y0203439D01*
X0124776Y0203467D01*
X0124935Y0203491D01*
X0125095Y0203511D01*
X0125255Y0203527D01*
X0125415Y0203539D01*
X0125576Y0203547D01*
X0125737Y0203551D01*
X0125897Y0203551D01*
X0126058Y0203547D01*
X0126219Y0203539D01*
X0126379Y0203527D01*
X0126539Y0203511D01*
X0126699Y0203491D01*
X0126858Y0203467D01*
X0127016Y0203439D01*
X0127174Y0203408D01*
X0127330Y0203372D01*
X0127486Y0203333D01*
X0127641Y0203290D01*
X0127795Y0203243D01*
X0127948Y0203192D01*
X0128099Y0203137D01*
X0128249Y0203079D01*
X0128397Y0203017D01*
X0128544Y0202951D01*
X0128689Y0202882D01*
X0128832Y0202809D01*
X0128974Y0202733D01*
X0129113Y0202653D01*
X0129251Y0202570D01*
X0129386Y0202483D01*
X0129520Y0202393D01*
X0129651Y0202300D01*
X0129779Y0202204D01*
X0129905Y0202104D01*
X0130029Y0202001D01*
X0130150Y0201896D01*
X0130269Y0201787D01*
X0130385Y0201676D01*
X0130498Y0201561D01*
X0130608Y0201444D01*
X0130715Y0201324D01*
X0130819Y0201202D01*
X0130920Y0201077D01*
X0131018Y0200949D01*
X0131113Y0200819D01*
X0131205Y0200687D01*
X0131293Y0200553D01*
X0131378Y0200416D01*
X0131460Y0200278D01*
X0131538Y0200137D01*
X0131612Y0199995D01*
X0131683Y0199851D01*
X0131751Y0199705D01*
X0131814Y0199557D01*
X0131875Y0199408D01*
X0131931Y0199257D01*
X0131984Y0199105D01*
X0132033Y0198952D01*
X0132078Y0198798D01*
X0132119Y0198643D01*
X0132157Y0198486D01*
X0132190Y0198329D01*
X0132220Y0198171D01*
X0132246Y0198012D01*
X0132267Y0197853D01*
X0132285Y0197693D01*
X0132299Y0197533D01*
X0132309Y0197372D01*
X0132315Y0197212D01*
X0132317Y0197051D01*
X0132315Y0196890D01*
X0132309Y0196730D01*
X0132299Y0196569D01*
X0132285Y0196409D01*
X0132267Y0196249D01*
X0132246Y0196090D01*
X0132220Y0195931D01*
X0132190Y0195773D01*
X0132157Y0195616D01*
X0132119Y0195459D01*
X0132078Y0195304D01*
X0132033Y0195150D01*
X0131984Y0194997D01*
X0131931Y0194845D01*
X0131875Y0194694D01*
X0131814Y0194545D01*
X0131751Y0194397D01*
X0131683Y0194251D01*
X0131612Y0194107D01*
X0131538Y0193965D01*
X0131460Y0193824D01*
X0131378Y0193686D01*
X0131293Y0193549D01*
X0131205Y0193415D01*
X0131113Y0193283D01*
X0131018Y0193153D01*
X0130920Y0193025D01*
X0130819Y0192900D01*
X0130715Y0192778D01*
X0130608Y0192658D01*
X0130498Y0192541D01*
X0130385Y0192426D01*
X0130269Y0192315D01*
X0130150Y0192206D01*
X0130029Y0192101D01*
X0129905Y0191998D01*
X0129779Y0191898D01*
X0129651Y0191802D01*
X0129520Y0191709D01*
X0129386Y0191619D01*
X0129251Y0191532D01*
X0129113Y0191449D01*
X0128974Y0191369D01*
X0128832Y0191293D01*
X0128689Y0191220D01*
X0128544Y0191151D01*
X0128397Y0191085D01*
X0128249Y0191023D01*
X0128099Y0190965D01*
X0127948Y0190910D01*
X0127795Y0190859D01*
X0127641Y0190812D01*
X0127486Y0190769D01*
X0127330Y0190730D01*
X0127174Y0190694D01*
X0127016Y0190663D01*
X0126858Y0190635D01*
X0126699Y0190611D01*
X0126539Y0190591D01*
X0126379Y0190575D01*
X0126219Y0190563D01*
X0126058Y0190555D01*
X0125897Y0190551D01*
X0125737Y0190551D01*
X0125576Y0190555D01*
X0125415Y0190563D01*
X0125255Y0190575D01*
X0125095Y0190591D01*
X0124935Y0190611D01*
X0124776Y0190635D01*
X0124618Y0190663D01*
X0124460Y0190694D01*
X0124304Y0190730D01*
X0124148Y0190769D01*
X0123993Y0190812D01*
X0123839Y0190859D01*
X0123686Y0190910D01*
X0123535Y0190965D01*
X0123385Y0191023D01*
X0123237Y0191085D01*
X0123090Y0191151D01*
X0122945Y0191220D01*
X0122802Y0191293D01*
X0122660Y0191369D01*
X0122521Y0191449D01*
X0122383Y0191532D01*
X0122248Y0191619D01*
X0122114Y0191709D01*
X0121983Y0191802D01*
X0121855Y0191898D01*
X0121729Y0191998D01*
X0121605Y0192101D01*
X0121484Y0192206D01*
X0121365Y0192315D01*
X0121249Y0192426D01*
X0121136Y0192541D01*
X0121026Y0192658D01*
X0120919Y0192778D01*
X0120815Y0192900D01*
X0120714Y0193025D01*
X0120616Y0193153D01*
X0120521Y0193283D01*
X0120429Y0193415D01*
X0120341Y0193549D01*
X0120256Y0193686D01*
X0120174Y0193824D01*
X0120096Y0193965D01*
X0120022Y0194107D01*
X0119951Y0194251D01*
X0119883Y0194397D01*
X0119820Y0194545D01*
X0119759Y0194694D01*
X0119703Y0194845D01*
X0119650Y0194997D01*
X0119601Y0195150D01*
X0119556Y0195304D01*
X0119515Y0195459D01*
X0119477Y0195616D01*
X0119444Y0195773D01*
X0119414Y0195931D01*
X0119388Y0196090D01*
X0119367Y0196249D01*
X0119349Y0196409D01*
X0119335Y0196569D01*
X0119325Y0196730D01*
X0119319Y0196890D01*
X0119317Y0197051D01*
X0220306Y0136650D02*
X0224306Y0136650D01*
X0230906Y0148550D02*
X0230906Y0149650D01*
X0232006Y0149650D01*
X0241906Y0156250D02*
X0241906Y0160250D01*
X0257406Y0149650D02*
X0258506Y0149650D01*
X0258506Y0148550D01*
X0265006Y0142550D02*
X0269006Y0142550D01*
X0256806Y0125350D02*
X0255206Y0123750D01*
X0257406Y0122050D02*
X0258506Y0122050D01*
X0258506Y0123150D01*
X0239906Y0115450D02*
X0239906Y0111450D01*
X0232006Y0122050D02*
X0230906Y0122050D01*
X0230906Y0123150D01*
X0280170Y0104886D02*
X0280170Y0098508D01*
X0280540Y0098508D01*
X0283713Y0098508D02*
X0284083Y0098508D01*
X0287454Y0098508D02*
X0287824Y0098508D01*
X0290997Y0098508D02*
X0291367Y0098508D01*
X0291367Y0104886D01*
X0290997Y0104886D01*
X0287824Y0104886D02*
X0283713Y0104886D01*
X0280540Y0104886D02*
X0280170Y0104886D01*
X0230477Y0078760D02*
X0230477Y0054161D01*
X0216855Y0054161D01*
X0216855Y0078760D01*
X0230477Y0078760D01*
X0271383Y0077559D02*
X0271383Y0052961D01*
X0285005Y0052961D01*
X0285005Y0077559D01*
X0271383Y0077559D01*
X0324115Y0066500D02*
X0324115Y0061500D01*
X0326615Y0059000D01*
X0331615Y0059000D01*
X0334115Y0061500D01*
X0334115Y0066500D01*
X0331615Y0069000D01*
X0326615Y0069000D01*
X0324115Y0066500D01*
X0334115Y0066500D02*
X0336615Y0069000D01*
X0341615Y0069000D01*
X0344115Y0066500D01*
X0344115Y0061500D01*
X0341615Y0059000D01*
X0336615Y0059000D01*
X0334115Y0061500D01*
X0367817Y0084719D02*
X0367817Y0095919D01*
X0387617Y0095919D02*
X0387617Y0091519D01*
X0387617Y0089119D01*
X0387617Y0084719D01*
X0387617Y0089119D02*
X0387548Y0089121D01*
X0387480Y0089127D01*
X0387412Y0089137D01*
X0387345Y0089150D01*
X0387279Y0089168D01*
X0387214Y0089189D01*
X0387150Y0089214D01*
X0387088Y0089242D01*
X0387027Y0089274D01*
X0386968Y0089309D01*
X0386912Y0089348D01*
X0386857Y0089390D01*
X0386806Y0089435D01*
X0386756Y0089483D01*
X0386710Y0089533D01*
X0386667Y0089586D01*
X0386626Y0089642D01*
X0386589Y0089699D01*
X0386556Y0089759D01*
X0386525Y0089821D01*
X0386499Y0089884D01*
X0386476Y0089948D01*
X0386456Y0090014D01*
X0386441Y0090081D01*
X0386429Y0090148D01*
X0386421Y0090216D01*
X0386417Y0090285D01*
X0386417Y0090353D01*
X0386421Y0090422D01*
X0386429Y0090490D01*
X0386441Y0090557D01*
X0386456Y0090624D01*
X0386476Y0090690D01*
X0386499Y0090754D01*
X0386525Y0090817D01*
X0386556Y0090879D01*
X0386589Y0090939D01*
X0386626Y0090996D01*
X0386667Y0091052D01*
X0386710Y0091105D01*
X0386756Y0091155D01*
X0386806Y0091203D01*
X0386857Y0091248D01*
X0386912Y0091290D01*
X0386968Y0091329D01*
X0387027Y0091364D01*
X0387088Y0091396D01*
X0387150Y0091424D01*
X0387214Y0091449D01*
X0387279Y0091470D01*
X0387345Y0091488D01*
X0387412Y0091501D01*
X0387480Y0091511D01*
X0387548Y0091517D01*
X0387617Y0091519D01*
X0431024Y0105953D02*
X0431024Y0112953D01*
X0432524Y0114453D01*
X0431024Y0115953D01*
X0431024Y0122953D01*
X0432524Y0124453D01*
X0431024Y0125953D01*
X0431024Y0132953D01*
X0432524Y0134453D01*
X0449524Y0134453D01*
X0451024Y0132953D01*
X0451024Y0125953D01*
X0449524Y0124453D01*
X0451024Y0122953D01*
X0451024Y0115953D01*
X0449524Y0114453D01*
X0451024Y0112953D01*
X0451024Y0105953D01*
X0449524Y0104453D01*
X0432524Y0104453D01*
X0431024Y0105953D01*
X0431615Y0069000D02*
X0436615Y0069000D01*
X0439115Y0066500D01*
X0441615Y0069000D01*
X0446615Y0069000D01*
X0449115Y0066500D01*
X0449115Y0061500D01*
X0446615Y0059000D01*
X0441615Y0059000D01*
X0439115Y0061500D01*
X0436615Y0059000D01*
X0431615Y0059000D01*
X0429115Y0061500D01*
X0429115Y0066500D01*
X0431615Y0069000D01*
X0439115Y0066500D02*
X0439115Y0061500D01*
D12*
X0428865Y0084250D02*
X0428865Y0085751D01*
X0428865Y0085001D02*
X0424361Y0085001D01*
X0424361Y0085751D02*
X0424361Y0084250D01*
X0425112Y0087319D02*
X0424361Y0088070D01*
X0424361Y0089571D01*
X0425112Y0090322D01*
X0428114Y0090322D01*
X0428865Y0089571D01*
X0428865Y0088070D01*
X0428114Y0087319D01*
X0425112Y0087319D01*
X0424361Y0091923D02*
X0428114Y0091923D01*
X0428865Y0092674D01*
X0428865Y0094175D01*
X0428114Y0094926D01*
X0424361Y0094926D01*
X0424361Y0096527D02*
X0424361Y0099530D01*
X0424361Y0098028D02*
X0428865Y0098028D01*
X0426613Y0101131D02*
X0426613Y0104134D01*
X0425521Y0107099D02*
X0424771Y0107849D01*
X0424771Y0109351D01*
X0425521Y0110101D01*
X0426272Y0110101D01*
X0427022Y0109351D01*
X0427773Y0110101D01*
X0428524Y0110101D01*
X0429274Y0109351D01*
X0429274Y0107849D01*
X0428524Y0107099D01*
X0427022Y0108600D02*
X0427022Y0109351D01*
X0425521Y0117099D02*
X0424771Y0117849D01*
X0424771Y0119351D01*
X0425521Y0120101D01*
X0426272Y0120101D01*
X0429274Y0117099D01*
X0429274Y0120101D01*
X0429274Y0127099D02*
X0429274Y0130101D01*
X0429274Y0128600D02*
X0424771Y0128600D01*
X0426272Y0127099D01*
X0456613Y0104134D02*
X0456613Y0101131D01*
X0455112Y0102632D02*
X0458114Y0102632D01*
X0454361Y0099530D02*
X0454361Y0096527D01*
X0454361Y0098028D02*
X0458865Y0098028D01*
X0458114Y0094926D02*
X0454361Y0094926D01*
X0454361Y0091923D02*
X0458114Y0091923D01*
X0458865Y0092674D01*
X0458865Y0094175D01*
X0458114Y0094926D01*
X0458114Y0090322D02*
X0455112Y0090322D01*
X0454361Y0089571D01*
X0454361Y0088070D01*
X0455112Y0087319D01*
X0458114Y0087319D01*
X0458865Y0088070D01*
X0458865Y0089571D01*
X0458114Y0090322D01*
X0458865Y0085751D02*
X0458865Y0084250D01*
X0458865Y0085001D02*
X0454361Y0085001D01*
X0454361Y0085751D02*
X0454361Y0084250D01*
X0105165Y0189801D02*
X0102163Y0189801D01*
X0103664Y0189801D02*
X0103664Y0194305D01*
X0102163Y0192804D01*
X0102913Y0200301D02*
X0102163Y0201052D01*
X0102163Y0202553D01*
X0104415Y0202553D01*
X0105165Y0201802D01*
X0105165Y0201052D01*
X0104415Y0200301D01*
X0102913Y0200301D01*
X0102163Y0202553D02*
X0103664Y0204054D01*
X0105165Y0204805D01*
X0046665Y0203554D02*
X0046665Y0200552D01*
X0045915Y0199801D01*
X0044413Y0199801D01*
X0043663Y0200552D01*
X0044413Y0202053D02*
X0043663Y0202804D01*
X0043663Y0203554D01*
X0044413Y0204305D01*
X0045915Y0204305D01*
X0046665Y0203554D01*
X0046665Y0202053D02*
X0044413Y0202053D01*
X0043663Y0194305D02*
X0043663Y0192053D01*
X0045164Y0192804D01*
X0045915Y0192804D01*
X0046665Y0192053D01*
X0046665Y0190552D01*
X0045915Y0189801D01*
X0044413Y0189801D01*
X0043663Y0190552D01*
X0043663Y0194305D02*
X0046665Y0194305D01*
X0038550Y0124991D02*
X0038550Y0121989D01*
X0038550Y0123490D02*
X0034046Y0123490D01*
X0035547Y0121989D01*
X0028050Y0122739D02*
X0028050Y0124241D01*
X0027299Y0124991D01*
X0026549Y0124991D01*
X0025798Y0124241D01*
X0025798Y0121989D01*
X0027299Y0121989D01*
X0028050Y0122739D01*
X0025798Y0121989D02*
X0024297Y0123490D01*
X0023546Y0124991D01*
X0024797Y0066491D02*
X0024046Y0065741D01*
X0024046Y0064239D01*
X0024797Y0063489D01*
X0025547Y0063489D01*
X0026298Y0064239D01*
X0026298Y0066491D01*
X0027799Y0066491D02*
X0024797Y0066491D01*
X0027799Y0066491D02*
X0028550Y0065741D01*
X0028550Y0064239D01*
X0027799Y0063489D01*
X0034046Y0063489D02*
X0034046Y0066491D01*
X0035547Y0065741D02*
X0036298Y0066491D01*
X0037799Y0066491D01*
X0038550Y0065741D01*
X0038550Y0064239D01*
X0037799Y0063489D01*
X0036298Y0063489D02*
X0035547Y0064990D01*
X0035547Y0065741D01*
X0036298Y0063489D02*
X0034046Y0063489D01*
D13*
X0208793Y0174006D03*
X0214593Y0174006D03*
X0362100Y0172904D03*
X0367900Y0172904D03*
X0368020Y0162537D03*
X0362220Y0162537D03*
X0398399Y0181289D03*
X0404199Y0181289D03*
X0427533Y0186289D03*
X0433333Y0186289D03*
X0424535Y0146494D03*
X0418735Y0146494D03*
X0420124Y0129419D03*
X0414324Y0129419D03*
X0414482Y0119577D03*
X0420282Y0119577D03*
X0420439Y0109341D03*
X0414639Y0109341D03*
X0288254Y0084833D03*
X0282454Y0084833D03*
D14*
X0369081Y0146593D03*
X0369081Y0152393D03*
X0350054Y0155410D03*
X0350054Y0161210D03*
X0341404Y0161251D03*
X0341404Y0155451D03*
X0341393Y0174308D03*
X0350066Y0174349D03*
X0350066Y0180149D03*
X0341393Y0180108D03*
X0381373Y0173415D03*
X0381373Y0167615D03*
X0426522Y0163613D03*
X0426522Y0157813D03*
D15*
X0387932Y0194450D02*
X0387932Y0198053D01*
X0386731Y0198053D02*
X0389133Y0198053D01*
X0385450Y0198053D02*
X0385450Y0195051D01*
X0384849Y0194450D01*
X0383648Y0194450D01*
X0383048Y0195051D01*
X0383048Y0198053D01*
X0381766Y0197453D02*
X0381166Y0198053D01*
X0379965Y0198053D01*
X0379364Y0197453D01*
X0379364Y0195051D01*
X0379965Y0194450D01*
X0381166Y0194450D01*
X0381766Y0195051D01*
X0381766Y0197453D01*
X0378083Y0197453D02*
X0377483Y0198053D01*
X0376282Y0198053D01*
X0375681Y0197453D01*
X0375681Y0195051D01*
X0376282Y0194450D01*
X0377483Y0194450D01*
X0378083Y0195051D01*
X0374400Y0194450D02*
X0374400Y0196852D01*
X0373199Y0198053D01*
X0371998Y0196852D01*
X0371998Y0194450D01*
X0370717Y0195051D02*
X0370717Y0197453D01*
X0370116Y0198053D01*
X0368315Y0198053D01*
X0368315Y0194450D01*
X0370116Y0194450D01*
X0370717Y0195051D01*
X0371998Y0196252D02*
X0374400Y0196252D01*
X0308915Y0168968D02*
X0307113Y0167167D01*
X0307714Y0166566D02*
X0305312Y0168968D01*
X0305312Y0166566D02*
X0308915Y0166566D01*
X0308915Y0165285D02*
X0308915Y0162883D01*
X0305312Y0162883D01*
X0305912Y0161602D02*
X0305312Y0161002D01*
X0305312Y0159801D01*
X0305912Y0159200D01*
X0308314Y0159200D01*
X0308915Y0159801D01*
X0308915Y0161002D01*
X0308314Y0161602D01*
X0319761Y0108803D02*
X0319761Y0106401D01*
X0320962Y0105200D01*
X0322163Y0106401D01*
X0322163Y0108803D01*
X0323444Y0108803D02*
X0324645Y0108803D01*
X0324044Y0108803D02*
X0324044Y0105200D01*
X0323444Y0105200D02*
X0324645Y0105200D01*
X0325899Y0105200D02*
X0325899Y0108803D01*
X0328301Y0105200D01*
X0328301Y0108803D01*
X0333266Y0108803D02*
X0335668Y0105200D01*
X0335668Y0108803D01*
X0336949Y0108803D02*
X0336949Y0105200D01*
X0339351Y0105200D01*
X0340632Y0105801D02*
X0341232Y0105200D01*
X0342433Y0105200D01*
X0343034Y0105801D01*
X0343034Y0107002D01*
X0341833Y0107002D01*
X0343034Y0108203D02*
X0342433Y0108803D01*
X0341232Y0108803D01*
X0340632Y0108203D01*
X0340632Y0105801D01*
X0338150Y0107002D02*
X0336949Y0107002D01*
X0336949Y0108803D02*
X0339351Y0108803D01*
X0333266Y0108803D02*
X0333266Y0105200D01*
X0331984Y0104599D02*
X0329582Y0104599D01*
X0328301Y0098803D02*
X0328301Y0095200D01*
X0325899Y0098803D01*
X0325899Y0095200D01*
X0324645Y0095200D02*
X0323444Y0095200D01*
X0324044Y0095200D02*
X0324044Y0098803D01*
X0323444Y0098803D02*
X0324645Y0098803D01*
X0322163Y0098803D02*
X0322163Y0096401D01*
X0320962Y0095200D01*
X0319761Y0096401D01*
X0319761Y0098803D01*
X0319782Y0099200D02*
X0320983Y0099200D01*
X0321583Y0099801D01*
X0321583Y0102203D01*
X0320983Y0102803D01*
X0319782Y0102803D01*
X0319181Y0102203D01*
X0319181Y0099801D01*
X0319782Y0099200D01*
X0317900Y0099801D02*
X0317900Y0102203D01*
X0317300Y0102803D01*
X0315498Y0102803D01*
X0315498Y0099200D01*
X0317300Y0099200D01*
X0317900Y0099801D01*
X0314217Y0099801D02*
X0313616Y0099200D01*
X0312415Y0099200D01*
X0311815Y0099801D01*
X0312415Y0101002D02*
X0311815Y0101602D01*
X0311815Y0102203D01*
X0312415Y0102803D01*
X0313616Y0102803D01*
X0314217Y0102203D01*
X0313616Y0101002D02*
X0314217Y0100401D01*
X0314217Y0099801D01*
X0313616Y0101002D02*
X0312415Y0101002D01*
X0312415Y0092803D02*
X0311815Y0092203D01*
X0311815Y0091602D01*
X0312415Y0091002D01*
X0313616Y0091002D01*
X0314217Y0090401D01*
X0314217Y0089801D01*
X0313616Y0089200D01*
X0312415Y0089200D01*
X0311815Y0089801D01*
X0312415Y0092803D02*
X0313616Y0092803D01*
X0314217Y0092203D01*
X0315498Y0092203D02*
X0315498Y0089801D01*
X0316099Y0089200D01*
X0317300Y0089200D01*
X0317900Y0089801D01*
X0319181Y0089200D02*
X0321583Y0089200D01*
X0322864Y0089200D02*
X0322864Y0092803D01*
X0323465Y0091002D02*
X0325266Y0089200D01*
X0322864Y0090401D02*
X0325266Y0092803D01*
X0329582Y0094599D02*
X0331984Y0094599D01*
X0333266Y0095200D02*
X0333266Y0098803D01*
X0335067Y0098803D01*
X0335668Y0098203D01*
X0335668Y0097002D01*
X0335067Y0096401D01*
X0333266Y0096401D01*
X0336949Y0095801D02*
X0337549Y0095200D01*
X0338750Y0095200D01*
X0339351Y0095801D01*
X0339351Y0098203D01*
X0338750Y0098803D01*
X0337549Y0098803D01*
X0336949Y0098203D01*
X0336949Y0095801D01*
X0340632Y0095801D02*
X0341232Y0095200D01*
X0342433Y0095200D01*
X0343034Y0095801D01*
X0343034Y0096401D01*
X0342433Y0097002D01*
X0341232Y0097002D01*
X0340632Y0097602D01*
X0340632Y0098203D01*
X0341232Y0098803D01*
X0342433Y0098803D01*
X0343034Y0098203D01*
X0319181Y0092803D02*
X0319181Y0089200D01*
X0317900Y0092203D02*
X0317300Y0092803D01*
X0316099Y0092803D01*
X0315498Y0092203D01*
X0315498Y0082803D02*
X0317300Y0082803D01*
X0317900Y0082203D01*
X0317900Y0079801D01*
X0317300Y0079200D01*
X0315498Y0079200D01*
X0315498Y0082803D01*
X0314217Y0082203D02*
X0313616Y0082803D01*
X0312415Y0082803D01*
X0311815Y0082203D01*
X0311815Y0081602D01*
X0312415Y0081002D01*
X0313616Y0081002D01*
X0314217Y0080401D01*
X0314217Y0079801D01*
X0313616Y0079200D01*
X0312415Y0079200D01*
X0311815Y0079801D01*
X0319181Y0079200D02*
X0320382Y0079200D01*
X0319782Y0079200D02*
X0319782Y0082803D01*
X0320382Y0082803D02*
X0319181Y0082803D01*
X0321637Y0082203D02*
X0321637Y0079801D01*
X0322237Y0079200D01*
X0323438Y0079200D01*
X0324039Y0079801D01*
X0324039Y0082203D01*
X0323438Y0082803D01*
X0322237Y0082803D01*
X0321637Y0082203D01*
X0312915Y0072919D02*
X0310513Y0072919D01*
X0309312Y0071718D01*
X0310513Y0070517D01*
X0312915Y0070517D01*
X0311714Y0069236D02*
X0312915Y0068035D01*
X0311714Y0066834D01*
X0309312Y0066834D01*
X0309912Y0065553D02*
X0310513Y0065553D01*
X0311113Y0064952D01*
X0311113Y0063751D01*
X0310513Y0063151D01*
X0309912Y0063151D01*
X0309312Y0063751D01*
X0309312Y0064952D01*
X0309912Y0065553D01*
X0311113Y0064952D02*
X0311714Y0065553D01*
X0312314Y0065553D01*
X0312915Y0064952D01*
X0312915Y0063751D01*
X0312314Y0063151D01*
X0311714Y0063151D01*
X0311113Y0063751D01*
X0312314Y0061909D02*
X0312915Y0061909D01*
X0312915Y0061309D01*
X0312314Y0061309D01*
X0312314Y0061909D01*
X0312915Y0060028D02*
X0312915Y0057626D01*
X0312915Y0058827D02*
X0309312Y0058827D01*
X0310513Y0057626D01*
X0311714Y0069236D02*
X0309312Y0069236D01*
X0311113Y0070517D02*
X0311113Y0072919D01*
X0298483Y0035303D02*
X0296681Y0035303D01*
X0296681Y0031700D01*
X0298483Y0031700D01*
X0299083Y0032301D01*
X0299083Y0034703D01*
X0298483Y0035303D01*
X0295400Y0035303D02*
X0295400Y0031700D01*
X0292998Y0035303D01*
X0292998Y0031700D01*
X0291717Y0032301D02*
X0291717Y0033502D01*
X0290516Y0033502D01*
X0291717Y0034703D02*
X0291116Y0035303D01*
X0289915Y0035303D01*
X0289315Y0034703D01*
X0289315Y0032301D01*
X0289915Y0031700D01*
X0291116Y0031700D01*
X0291717Y0032301D01*
X0286583Y0032301D02*
X0286583Y0032901D01*
X0285983Y0033502D01*
X0285382Y0033502D01*
X0285983Y0033502D02*
X0286583Y0034102D01*
X0286583Y0034703D01*
X0285983Y0035303D01*
X0284782Y0035303D01*
X0284181Y0034703D01*
X0282900Y0035303D02*
X0282900Y0032901D01*
X0281699Y0031700D01*
X0280498Y0032901D01*
X0280498Y0035303D01*
X0279217Y0034703D02*
X0279217Y0034102D01*
X0278616Y0033502D01*
X0279217Y0032901D01*
X0279217Y0032301D01*
X0278616Y0031700D01*
X0277415Y0031700D01*
X0276815Y0032301D01*
X0278016Y0033502D02*
X0278616Y0033502D01*
X0279217Y0034703D02*
X0278616Y0035303D01*
X0277415Y0035303D01*
X0276815Y0034703D01*
X0284181Y0032301D02*
X0284782Y0031700D01*
X0285983Y0031700D01*
X0286583Y0032301D01*
X0184131Y0077109D02*
X0184131Y0079511D01*
X0184131Y0078310D02*
X0180528Y0078310D01*
X0181729Y0077109D01*
X0183531Y0080793D02*
X0183531Y0081393D01*
X0184131Y0081393D01*
X0184131Y0080793D01*
X0183531Y0080793D01*
X0183531Y0082634D02*
X0182930Y0082634D01*
X0182330Y0083235D01*
X0182330Y0084436D01*
X0182930Y0085036D01*
X0183531Y0085036D01*
X0184131Y0084436D01*
X0184131Y0083235D01*
X0183531Y0082634D01*
X0182330Y0083235D02*
X0181729Y0082634D01*
X0181129Y0082634D01*
X0180528Y0083235D01*
X0180528Y0084436D01*
X0181129Y0085036D01*
X0181729Y0085036D01*
X0182330Y0084436D01*
X0182930Y0086317D02*
X0180528Y0086317D01*
X0180528Y0088719D02*
X0182930Y0088719D01*
X0184131Y0087518D01*
X0182930Y0086317D01*
X0184131Y0090000D02*
X0180528Y0090000D01*
X0180528Y0091802D01*
X0181129Y0092402D01*
X0183531Y0092402D01*
X0184131Y0091802D01*
X0184131Y0090000D01*
D16*
X0317166Y0048213D02*
X0317166Y0034433D01*
X0320316Y0038370D02*
X0320316Y0048213D01*
X0317166Y0048213D01*
X0320316Y0038370D02*
X0325040Y0038370D01*
X0340788Y0038370D02*
X0345513Y0038370D01*
X0345513Y0048213D01*
X0348662Y0048213D01*
X0348662Y0034433D01*
X0340788Y0018685D02*
X0325040Y0018685D01*
X0367166Y0017228D02*
X0367166Y0057228D01*
X0401891Y0057228D01*
X0401891Y0017228D01*
X0367166Y0017228D01*
X0422914Y0034984D02*
X0422914Y0048764D01*
X0426064Y0048764D01*
X0426064Y0038921D01*
X0430788Y0038921D01*
X0446536Y0038921D02*
X0451261Y0038921D01*
X0451261Y0048764D01*
X0454410Y0048764D01*
X0454410Y0034984D01*
X0446536Y0019236D02*
X0430788Y0019236D01*
D17*
X0449995Y0049950D02*
X0450246Y0049950D01*
X0450496Y0050200D01*
X0450496Y0051451D01*
X0450246Y0051451D02*
X0450746Y0051451D01*
X0451218Y0051451D02*
X0451969Y0051451D01*
X0452219Y0051201D01*
X0452219Y0050701D01*
X0451969Y0050450D01*
X0451218Y0050450D01*
X0451218Y0049950D02*
X0451218Y0051451D01*
X0452692Y0050701D02*
X0453442Y0050701D01*
X0453693Y0050450D01*
X0453693Y0050200D01*
X0453442Y0049950D01*
X0452942Y0049950D01*
X0452692Y0050200D01*
X0452692Y0050701D01*
X0453192Y0051201D01*
X0453693Y0051451D01*
X0449995Y0049950D02*
X0449745Y0050200D01*
X0348693Y0050200D02*
X0348442Y0049950D01*
X0347942Y0049950D01*
X0347692Y0050200D01*
X0347219Y0050701D02*
X0346969Y0050450D01*
X0346218Y0050450D01*
X0346218Y0049950D02*
X0346218Y0051451D01*
X0346969Y0051451D01*
X0347219Y0051201D01*
X0347219Y0050701D01*
X0347692Y0051201D02*
X0347942Y0051451D01*
X0348442Y0051451D01*
X0348693Y0051201D01*
X0348693Y0050951D01*
X0348442Y0050701D01*
X0348693Y0050450D01*
X0348693Y0050200D01*
X0348442Y0050701D02*
X0348192Y0050701D01*
X0345746Y0051451D02*
X0345246Y0051451D01*
X0345496Y0051451D02*
X0345496Y0050200D01*
X0345246Y0049950D01*
X0344995Y0049950D01*
X0344745Y0050200D01*
D18*
X0146398Y0041618D02*
X0138820Y0041618D01*
X0137442Y0041500D02*
X0137442Y0082051D01*
X0110670Y0082051D01*
X0110670Y0041500D01*
X0137442Y0041500D01*
X0137442Y0086382D02*
X0110670Y0086382D01*
X0110670Y0126933D01*
X0137442Y0126933D01*
X0137442Y0086382D01*
X0138820Y0086500D02*
X0146398Y0086500D01*
X0138623Y0132150D02*
X0109489Y0132150D01*
X0109489Y0155181D01*
X0138623Y0155181D01*
X0138623Y0132150D01*
X0140001Y0133508D02*
X0146300Y0133508D01*
X0393052Y0169945D02*
X0398564Y0169945D01*
X0399942Y0169748D02*
X0399942Y0157937D01*
X0408997Y0157937D01*
X0408997Y0169748D01*
X0399942Y0169748D01*
M02*
