%
M48
M72
T01C0.0150
T02C0.0360
T03C0.0400
T04C0.0420
T05C0.0433
T06C0.0520
T07C0.1300
%
T01
X1411Y3650
X5911Y3650
X7642Y3815
X7602Y4642
X8862Y5430
X8784Y5941
X8784Y6453
X9138Y6926
X9217Y7910
X8411Y7900
X10411Y8400
X8563Y10117
X9807Y12437
X7161Y12900
X6661Y13150
X6661Y13900
X5661Y14650
X5791Y15508
X4661Y15650
X1411Y15650
X4411Y18150
X6911Y17650
X8411Y17650
X8705Y15489
X8705Y14248
X14161Y12900
X15122Y12437
X15911Y11150
X16411Y10650
X16911Y10150
X16973Y9327
X17012Y8500
X14986Y7928
X16161Y6650
X16661Y6400
X16911Y5900
X18929Y6851
X19284Y7441
X23661Y9650
X23661Y10150
X25045Y11120
X25557Y10963
X25990Y10963
X27250Y10372
X26581Y10254
X28195Y11233
X28982Y11233
X26108Y11869
X23411Y11150
X20161Y10650
X20154Y11965
X19687Y12624
X20163Y13246
X19896Y14026
X19927Y14743
X20242Y15294
X19809Y15924
X20203Y16593
X22408Y17341
X23077Y17183
X23077Y16278
X22604Y16081
X26856Y15136
X28904Y14467
X29140Y13876
X28904Y13207
X34100Y14849
X35006Y14849
X36896Y13983
X38411Y12900
X39911Y14150
X41030Y14888
X44266Y17329
X44148Y17959
X35045Y18746
X34179Y18904
X30911Y20150
X30411Y20150
X27841Y18758
X26778Y18443
X25872Y18837
X25161Y18900
X24632Y18975
X23943Y18798
X21108Y18561
X17602Y15233
X17957Y14485
X16303Y13933
X16303Y15252
X14161Y15650
X24534Y8955
X24161Y7900
X25036Y7203
X24681Y6652
X25036Y4959
X26911Y4400
X30161Y1650
X19284Y5000
X17130Y3815
X16933Y4563
X14161Y3650
X14161Y1650
X10661Y3650
X32921Y7567
X36169Y9914
X39870Y7827
X45010Y5317
T02
X44602Y10945
X43602Y10945
X43602Y11945
X44602Y11945
X44602Y12945
X43602Y12945
T03
X43411Y6400
X44411Y6400
X33911Y6400
X32911Y6400
X25361Y2550
X24361Y2550
X23361Y2550
X22361Y2550
X21361Y2550
X20361Y2550
X19359Y2545
X18359Y2545
X6411Y7650
X5411Y7650
X5411Y8650
X6411Y8650
X6411Y9650
X5411Y9650
X5411Y10650
X6411Y10650
X6411Y11650
X5411Y11650
X3630Y11794
X2630Y11254
X3630Y10714
X2630Y10174
X3630Y9634
X2630Y9094
X3630Y8554
X2630Y8014
X3630Y7474
X5492Y19205
X6572Y19205
X7652Y19205
X8732Y19205
X9812Y19205
X9272Y20205
X8192Y20205
X7112Y20205
X6032Y20205
T04
X14761Y21550
X15761Y21550
X16761Y21550
X17761Y21550
X18761Y21550
X19761Y21550
X20761Y21550
X21761Y21550
X22761Y21550
X23761Y21550
X25361Y21550
X26361Y21550
X27361Y21550
X28361Y21550
X29361Y21550
X30361Y21550
X31361Y21550
X32361Y21550
X34361Y21550
X35361Y21550
X36361Y21550
X37361Y21550
X38361Y21550
X39361Y21550
X40361Y21550
X41361Y21550
X33361Y13550
X32361Y13550
X32361Y12550
X33361Y12550
X33361Y11550
X32361Y11550
T05
X37453Y4723
X37453Y3723
X37453Y2723
X39453Y2723
X39453Y3723
X39453Y4723
T06
X34911Y8650
X34911Y9650
X34911Y10650
X30661Y10400
X30661Y9400
X30661Y8400
X30358Y6607
X29161Y2400
X28161Y2400
X18183Y6841
X29860Y16288
X37911Y18650
X43661Y9400
X44661Y9400
T07
X12582Y19705
X2722Y19705
X3130Y14564
X3130Y4704
M30
