G75*
%MOIN*%
%OFA0B0*%
%FSLAX25Y25*%
%IPPOS*%
%LPD*%
%AMOC8*
5,1,8,0,0,1.08239X$1,22.5*
%
%ADD10C,0.06000*%
%ADD11C,0.17000*%
%ADD12C,0.05400*%
%ADD13C,0.07800*%
%ADD14C,0.06496*%
%ADD15C,0.06300*%
%ADD16C,0.02700*%
%ADD17C,0.01000*%
%ADD18C,0.01600*%
D10*
X0036300Y0074743D03*
X0026300Y0080143D03*
X0036300Y0085543D03*
X0026300Y0090943D03*
X0036300Y0096343D03*
X0026300Y0101743D03*
X0036300Y0107143D03*
X0026300Y0112543D03*
X0036300Y0117943D03*
X0054115Y0116500D03*
X0064115Y0116500D03*
X0064115Y0106500D03*
X0054115Y0106500D03*
X0054115Y0096500D03*
X0064115Y0096500D03*
X0064115Y0086500D03*
X0054115Y0086500D03*
X0054115Y0076500D03*
X0064115Y0076500D03*
X0183587Y0025449D03*
X0193587Y0025449D03*
X0203615Y0025496D03*
X0213615Y0025500D03*
X0223615Y0025500D03*
X0233615Y0025500D03*
X0243615Y0025500D03*
X0253615Y0025500D03*
X0329115Y0064000D03*
X0339115Y0064000D03*
X0434115Y0064000D03*
X0444115Y0064000D03*
X0098117Y0192051D03*
X0087317Y0192051D03*
X0076517Y0192051D03*
X0065717Y0192051D03*
X0054917Y0192051D03*
X0060317Y0202051D03*
X0071117Y0202051D03*
X0081917Y0202051D03*
X0092717Y0202051D03*
D11*
X0125817Y0197051D03*
X0027217Y0197051D03*
X0031300Y0145643D03*
X0031300Y0047043D03*
D12*
X0436024Y0109453D03*
X0446024Y0109453D03*
X0446024Y0119453D03*
X0436024Y0119453D03*
X0436024Y0129453D03*
X0446024Y0129453D03*
D13*
X0446615Y0094000D03*
X0436615Y0094000D03*
X0349115Y0096500D03*
X0349115Y0086500D03*
X0349115Y0106500D03*
X0306615Y0104000D03*
X0306615Y0094000D03*
X0306615Y0084000D03*
X0303583Y0066067D03*
X0291615Y0024000D03*
X0281615Y0024000D03*
X0181831Y0068409D03*
X0298603Y0162878D03*
X0379115Y0186500D03*
D14*
X0374528Y0047228D03*
X0374528Y0037228D03*
X0374528Y0027228D03*
X0394528Y0027228D03*
X0394528Y0037228D03*
X0394528Y0047228D03*
D15*
X0333615Y0115500D03*
X0323615Y0115500D03*
X0323615Y0125500D03*
X0333615Y0125500D03*
X0333615Y0135500D03*
X0323615Y0135500D03*
X0323615Y0215500D03*
X0313615Y0215500D03*
X0303615Y0215500D03*
X0293615Y0215500D03*
X0283615Y0215500D03*
X0273615Y0215500D03*
X0263615Y0215500D03*
X0253615Y0215500D03*
X0237615Y0215500D03*
X0227615Y0215500D03*
X0217615Y0215500D03*
X0207615Y0215500D03*
X0197615Y0215500D03*
X0187615Y0215500D03*
X0177615Y0215500D03*
X0167615Y0215500D03*
X0157615Y0215500D03*
X0147615Y0215500D03*
X0343615Y0215500D03*
X0353615Y0215500D03*
X0363615Y0215500D03*
X0373615Y0215500D03*
X0383615Y0215500D03*
X0393615Y0215500D03*
X0403615Y0215500D03*
X0413615Y0215500D03*
D16*
X0350454Y0187465D03*
X0341792Y0189039D03*
X0309115Y0201500D03*
X0304115Y0201500D03*
X0278406Y0187583D03*
X0267776Y0184433D03*
X0258721Y0188370D03*
X0251615Y0189000D03*
X0246320Y0189748D03*
X0239430Y0187976D03*
X0224076Y0173409D03*
X0230769Y0171835D03*
X0230769Y0162780D03*
X0226044Y0160811D03*
X0202028Y0165929D03*
X0198091Y0159236D03*
X0202422Y0152937D03*
X0199272Y0147425D03*
X0198957Y0140260D03*
X0201635Y0132465D03*
X0196871Y0126244D03*
X0201538Y0119650D03*
X0201615Y0106500D03*
X0234115Y0111500D03*
X0236615Y0101500D03*
X0236615Y0096500D03*
X0245335Y0089551D03*
X0241615Y0079000D03*
X0250355Y0072031D03*
X0246812Y0066520D03*
X0250355Y0049591D03*
X0269115Y0044000D03*
X0301615Y0016500D03*
X0192835Y0050004D03*
X0171300Y0038154D03*
X0169331Y0045634D03*
X0169115Y0059000D03*
X0166615Y0064000D03*
X0161615Y0066500D03*
X0149863Y0079276D03*
X0170119Y0085004D03*
X0169725Y0093272D03*
X0169115Y0101500D03*
X0164115Y0106500D03*
X0159115Y0111500D03*
X0151221Y0124374D03*
X0141615Y0129000D03*
X0163032Y0139335D03*
X0179568Y0144846D03*
X0176024Y0152327D03*
X0163032Y0152524D03*
X0141615Y0156500D03*
X0098072Y0124374D03*
X0071615Y0129000D03*
X0066615Y0131500D03*
X0066615Y0139000D03*
X0056615Y0146500D03*
X0057914Y0155083D03*
X0046615Y0156500D03*
X0014115Y0156500D03*
X0044115Y0181500D03*
X0069115Y0176500D03*
X0084115Y0176500D03*
X0087048Y0154886D03*
X0087048Y0142484D03*
X0085631Y0101165D03*
X0104115Y0084000D03*
X0092166Y0079098D03*
X0084115Y0079000D03*
X0091379Y0069256D03*
X0087835Y0064531D03*
X0087835Y0059413D03*
X0088623Y0054295D03*
X0076024Y0046421D03*
X0076418Y0038154D03*
X0059115Y0036500D03*
X0106615Y0036500D03*
X0141615Y0036500D03*
X0141615Y0016500D03*
X0189292Y0068508D03*
X0192835Y0074413D03*
X0250454Y0111205D03*
X0255572Y0109630D03*
X0259902Y0109630D03*
X0272501Y0103724D03*
X0265808Y0102543D03*
X0281950Y0112327D03*
X0289824Y0112327D03*
X0261083Y0118685D03*
X0289036Y0132071D03*
X0291398Y0138764D03*
X0289036Y0144669D03*
X0268564Y0151362D03*
X0211083Y0185614D03*
X0341005Y0148488D03*
X0350060Y0148488D03*
X0368957Y0139827D03*
X0384115Y0129000D03*
X0399115Y0141500D03*
X0410296Y0148882D03*
X0442658Y0173291D03*
X0441477Y0179591D03*
X0361694Y0099138D03*
X0398702Y0078272D03*
X0450099Y0053173D03*
X0329213Y0075673D03*
X0014115Y0036500D03*
D17*
X0012515Y0034000D02*
X0012515Y0159000D01*
X0068115Y0159000D01*
X0068115Y0131086D01*
X0068701Y0130500D01*
X0109115Y0130500D01*
X0109115Y0034000D01*
X0012515Y0034000D01*
X0012515Y0034443D02*
X0109115Y0034443D01*
X0109115Y0035442D02*
X0012515Y0035442D01*
X0012515Y0036440D02*
X0074808Y0036440D01*
X0075445Y0035804D02*
X0077392Y0035804D01*
X0078768Y0037180D01*
X0078768Y0039127D01*
X0077392Y0040504D01*
X0075445Y0040504D01*
X0074068Y0039127D01*
X0074068Y0037180D01*
X0075445Y0035804D01*
X0074068Y0037439D02*
X0012515Y0037439D01*
X0012515Y0038437D02*
X0027250Y0038437D01*
X0025919Y0038989D02*
X0029410Y0037543D01*
X0033190Y0037543D01*
X0036681Y0038989D01*
X0039354Y0041661D01*
X0040800Y0045153D01*
X0040800Y0048932D01*
X0039354Y0052424D01*
X0036681Y0055096D01*
X0033190Y0056543D01*
X0029410Y0056543D01*
X0025919Y0055096D01*
X0023246Y0052424D01*
X0021800Y0048932D01*
X0021800Y0045153D01*
X0023246Y0041661D01*
X0025919Y0038989D01*
X0025471Y0039436D02*
X0012515Y0039436D01*
X0012515Y0040434D02*
X0024473Y0040434D01*
X0023474Y0041433D02*
X0012515Y0041433D01*
X0012515Y0042432D02*
X0022927Y0042432D01*
X0022514Y0043430D02*
X0012515Y0043430D01*
X0012515Y0044429D02*
X0022100Y0044429D01*
X0021800Y0045427D02*
X0012515Y0045427D01*
X0012515Y0046426D02*
X0021800Y0046426D01*
X0021800Y0047424D02*
X0012515Y0047424D01*
X0012515Y0048423D02*
X0021800Y0048423D01*
X0022003Y0049421D02*
X0012515Y0049421D01*
X0012515Y0050420D02*
X0022416Y0050420D01*
X0022830Y0051418D02*
X0012515Y0051418D01*
X0012515Y0052417D02*
X0023243Y0052417D01*
X0024238Y0053415D02*
X0012515Y0053415D01*
X0012515Y0054414D02*
X0025236Y0054414D01*
X0026681Y0055412D02*
X0012515Y0055412D01*
X0012515Y0056411D02*
X0029092Y0056411D01*
X0033508Y0056411D02*
X0087415Y0056411D01*
X0087649Y0056645D02*
X0086273Y0055269D01*
X0086273Y0053322D01*
X0087649Y0051945D01*
X0089596Y0051945D01*
X0090973Y0053322D01*
X0090973Y0055269D01*
X0089596Y0056645D01*
X0087649Y0056645D01*
X0086862Y0057063D02*
X0088809Y0057063D01*
X0090185Y0058440D01*
X0090185Y0060387D01*
X0088809Y0061763D01*
X0086862Y0061763D01*
X0085485Y0060387D01*
X0085485Y0058440D01*
X0086862Y0057063D01*
X0086516Y0057409D02*
X0012515Y0057409D01*
X0012515Y0058408D02*
X0085518Y0058408D01*
X0085485Y0059406D02*
X0012515Y0059406D01*
X0012515Y0060405D02*
X0085503Y0060405D01*
X0086502Y0061403D02*
X0012515Y0061403D01*
X0012515Y0062402D02*
X0086642Y0062402D01*
X0086862Y0062181D02*
X0088809Y0062181D01*
X0090185Y0063558D01*
X0090185Y0065505D01*
X0088809Y0066881D01*
X0086862Y0066881D01*
X0085485Y0065505D01*
X0085485Y0063558D01*
X0086862Y0062181D01*
X0085643Y0063400D02*
X0012515Y0063400D01*
X0012515Y0064399D02*
X0085485Y0064399D01*
X0085485Y0065397D02*
X0012515Y0065397D01*
X0012515Y0066396D02*
X0086376Y0066396D01*
X0089295Y0066396D02*
X0109115Y0066396D01*
X0109115Y0067394D02*
X0092841Y0067394D01*
X0092352Y0066906D02*
X0093729Y0068282D01*
X0093729Y0070229D01*
X0092352Y0071606D01*
X0090405Y0071606D01*
X0089029Y0070229D01*
X0089029Y0068282D01*
X0090405Y0066906D01*
X0092352Y0066906D01*
X0093729Y0068393D02*
X0109115Y0068393D01*
X0109115Y0069391D02*
X0093729Y0069391D01*
X0093568Y0070390D02*
X0109115Y0070390D01*
X0109115Y0071388D02*
X0092570Y0071388D01*
X0090188Y0071388D02*
X0038603Y0071388D01*
X0038566Y0071351D02*
X0039691Y0072477D01*
X0040300Y0073947D01*
X0040300Y0075538D01*
X0039691Y0077008D01*
X0038566Y0078134D01*
X0037096Y0078743D01*
X0035504Y0078743D01*
X0034034Y0078134D01*
X0032909Y0077008D01*
X0032300Y0075538D01*
X0032300Y0073947D01*
X0032909Y0072477D01*
X0034034Y0071351D01*
X0035504Y0070743D01*
X0037096Y0070743D01*
X0038566Y0071351D01*
X0039601Y0072387D02*
X0052275Y0072387D01*
X0052388Y0072330D02*
X0053061Y0072111D01*
X0053615Y0072023D01*
X0053615Y0076000D01*
X0054615Y0076000D01*
X0054615Y0077000D01*
X0058592Y0077000D01*
X0058504Y0077554D01*
X0058285Y0078227D01*
X0057964Y0078859D01*
X0057547Y0079432D01*
X0057047Y0079932D01*
X0056473Y0080349D01*
X0055842Y0080670D01*
X0055169Y0080889D01*
X0054615Y0080977D01*
X0054615Y0077000D01*
X0053615Y0077000D01*
X0053615Y0080977D01*
X0053061Y0080889D01*
X0052388Y0080670D01*
X0051756Y0080349D01*
X0051183Y0079932D01*
X0050683Y0079432D01*
X0050266Y0078859D01*
X0049945Y0078227D01*
X0049726Y0077554D01*
X0049638Y0077000D01*
X0053615Y0077000D01*
X0053615Y0076000D01*
X0049638Y0076000D01*
X0049726Y0075446D01*
X0049945Y0074773D01*
X0050266Y0074141D01*
X0050683Y0073568D01*
X0051183Y0073068D01*
X0051756Y0072651D01*
X0052388Y0072330D01*
X0053615Y0072387D02*
X0054615Y0072387D01*
X0054615Y0072023D02*
X0055169Y0072111D01*
X0055842Y0072330D01*
X0056473Y0072651D01*
X0057047Y0073068D01*
X0057547Y0073568D01*
X0057964Y0074141D01*
X0058285Y0074773D01*
X0058504Y0075446D01*
X0058592Y0076000D01*
X0054615Y0076000D01*
X0054615Y0072023D01*
X0054615Y0073385D02*
X0053615Y0073385D01*
X0053615Y0074384D02*
X0054615Y0074384D01*
X0054615Y0075382D02*
X0053615Y0075382D01*
X0053615Y0076381D02*
X0039951Y0076381D01*
X0040300Y0075382D02*
X0049747Y0075382D01*
X0050143Y0074384D02*
X0040300Y0074384D01*
X0040067Y0073385D02*
X0050866Y0073385D01*
X0049698Y0077379D02*
X0039320Y0077379D01*
X0037976Y0078378D02*
X0050021Y0078378D01*
X0050643Y0079376D02*
X0030735Y0079376D01*
X0030777Y0079643D02*
X0026800Y0079643D01*
X0026800Y0080642D01*
X0030777Y0080642D01*
X0030689Y0081196D01*
X0030470Y0081870D01*
X0030149Y0082501D01*
X0029732Y0083074D01*
X0029232Y0083575D01*
X0028659Y0083991D01*
X0028027Y0084313D01*
X0027354Y0084532D01*
X0026800Y0084619D01*
X0026800Y0080643D01*
X0025800Y0080643D01*
X0025800Y0084619D01*
X0025246Y0084532D01*
X0024573Y0084313D01*
X0023941Y0083991D01*
X0023368Y0083575D01*
X0022868Y0083074D01*
X0022451Y0082501D01*
X0022130Y0081870D01*
X0021911Y0081196D01*
X0021823Y0080642D01*
X0025800Y0080642D01*
X0025800Y0079643D01*
X0021823Y0079643D01*
X0021911Y0079089D01*
X0022130Y0078415D01*
X0022451Y0077784D01*
X0022868Y0077211D01*
X0023368Y0076710D01*
X0023941Y0076294D01*
X0024573Y0075972D01*
X0025246Y0075753D01*
X0025800Y0075666D01*
X0025800Y0079642D01*
X0026800Y0079642D01*
X0026800Y0075666D01*
X0027354Y0075753D01*
X0028027Y0075972D01*
X0028659Y0076294D01*
X0029232Y0076710D01*
X0029732Y0077211D01*
X0030149Y0077784D01*
X0030470Y0078415D01*
X0030689Y0079089D01*
X0030777Y0079643D01*
X0030451Y0078378D02*
X0034624Y0078378D01*
X0033280Y0077379D02*
X0029855Y0077379D01*
X0028778Y0076381D02*
X0032649Y0076381D01*
X0032300Y0075382D02*
X0012515Y0075382D01*
X0012515Y0074384D02*
X0032300Y0074384D01*
X0032533Y0073385D02*
X0012515Y0073385D01*
X0012515Y0072387D02*
X0032999Y0072387D01*
X0033997Y0071388D02*
X0012515Y0071388D01*
X0012515Y0070390D02*
X0089189Y0070390D01*
X0089029Y0069391D02*
X0012515Y0069391D01*
X0012515Y0068393D02*
X0089029Y0068393D01*
X0089917Y0067394D02*
X0012515Y0067394D01*
X0012515Y0076381D02*
X0023822Y0076381D01*
X0022745Y0077379D02*
X0012515Y0077379D01*
X0012515Y0078378D02*
X0022149Y0078378D01*
X0021865Y0079376D02*
X0012515Y0079376D01*
X0012515Y0080375D02*
X0025800Y0080375D01*
X0025800Y0081373D02*
X0026800Y0081373D01*
X0026800Y0080375D02*
X0051808Y0080375D01*
X0053615Y0080375D02*
X0054615Y0080375D01*
X0054615Y0079376D02*
X0053615Y0079376D01*
X0053615Y0078378D02*
X0054615Y0078378D01*
X0054615Y0077379D02*
X0053615Y0077379D01*
X0054615Y0076381D02*
X0063615Y0076381D01*
X0063615Y0076000D02*
X0059638Y0076000D01*
X0059726Y0075446D01*
X0059945Y0074773D01*
X0060266Y0074141D01*
X0060683Y0073568D01*
X0061183Y0073068D01*
X0061756Y0072651D01*
X0062388Y0072330D01*
X0063061Y0072111D01*
X0063615Y0072023D01*
X0063615Y0076000D01*
X0064615Y0076000D01*
X0064615Y0077000D01*
X0068592Y0077000D01*
X0068504Y0077554D01*
X0068285Y0078227D01*
X0067964Y0078859D01*
X0067547Y0079432D01*
X0067047Y0079932D01*
X0066473Y0080349D01*
X0065842Y0080670D01*
X0065169Y0080889D01*
X0064615Y0080977D01*
X0064615Y0077000D01*
X0063615Y0077000D01*
X0063615Y0080977D01*
X0063061Y0080889D01*
X0062388Y0080670D01*
X0061756Y0080349D01*
X0061183Y0079932D01*
X0060683Y0079432D01*
X0060266Y0078859D01*
X0059945Y0078227D01*
X0059726Y0077554D01*
X0059638Y0077000D01*
X0063615Y0077000D01*
X0063615Y0076000D01*
X0063615Y0075382D02*
X0064615Y0075382D01*
X0064615Y0076000D02*
X0064615Y0072023D01*
X0065169Y0072111D01*
X0065842Y0072330D01*
X0066473Y0072651D01*
X0067047Y0073068D01*
X0067547Y0073568D01*
X0067964Y0074141D01*
X0068285Y0074773D01*
X0068504Y0075446D01*
X0068592Y0076000D01*
X0064615Y0076000D01*
X0064615Y0076381D02*
X0109115Y0076381D01*
X0109115Y0077379D02*
X0085818Y0077379D01*
X0086465Y0078027D02*
X0085088Y0076650D01*
X0083142Y0076650D01*
X0081765Y0078027D01*
X0081765Y0079973D01*
X0083142Y0081350D01*
X0085088Y0081350D01*
X0086465Y0079973D01*
X0086465Y0078027D01*
X0086465Y0078378D02*
X0109115Y0078378D01*
X0109115Y0079376D02*
X0086465Y0079376D01*
X0086063Y0080375D02*
X0109115Y0080375D01*
X0109115Y0081373D02*
X0030632Y0081373D01*
X0030214Y0082372D02*
X0033814Y0082372D01*
X0034034Y0082151D02*
X0035504Y0081543D01*
X0037096Y0081543D01*
X0038566Y0082151D01*
X0039691Y0083277D01*
X0040300Y0084747D01*
X0040300Y0086338D01*
X0039691Y0087808D01*
X0038566Y0088934D01*
X0037096Y0089543D01*
X0035504Y0089543D01*
X0034034Y0088934D01*
X0032909Y0087808D01*
X0032300Y0086338D01*
X0032300Y0084747D01*
X0032909Y0083277D01*
X0034034Y0082151D01*
X0032870Y0083370D02*
X0029436Y0083370D01*
X0027855Y0084369D02*
X0032457Y0084369D01*
X0032300Y0085368D02*
X0012515Y0085368D01*
X0012515Y0086366D02*
X0032312Y0086366D01*
X0032725Y0087365D02*
X0028114Y0087365D01*
X0028566Y0087551D02*
X0029691Y0088677D01*
X0030300Y0090147D01*
X0030300Y0091738D01*
X0029691Y0093208D01*
X0028566Y0094334D01*
X0027096Y0094943D01*
X0025504Y0094943D01*
X0024034Y0094334D01*
X0022909Y0093208D01*
X0022300Y0091738D01*
X0022300Y0090147D01*
X0022909Y0088677D01*
X0024034Y0087551D01*
X0025504Y0086943D01*
X0027096Y0086943D01*
X0028566Y0087551D01*
X0029377Y0088363D02*
X0033464Y0088363D01*
X0035067Y0089362D02*
X0029975Y0089362D01*
X0030300Y0090360D02*
X0052981Y0090360D01*
X0053319Y0090500D02*
X0051849Y0089891D01*
X0050724Y0088766D01*
X0050115Y0087296D01*
X0050115Y0085704D01*
X0050724Y0084234D01*
X0051849Y0083109D01*
X0053319Y0082500D01*
X0054911Y0082500D01*
X0056381Y0083109D01*
X0057506Y0084234D01*
X0058115Y0085704D01*
X0058115Y0087296D01*
X0057506Y0088766D01*
X0056381Y0089891D01*
X0054911Y0090500D01*
X0053319Y0090500D01*
X0055248Y0090360D02*
X0062981Y0090360D01*
X0063319Y0090500D02*
X0061849Y0089891D01*
X0060724Y0088766D01*
X0060115Y0087296D01*
X0060115Y0085704D01*
X0060724Y0084234D01*
X0061849Y0083109D01*
X0063319Y0082500D01*
X0064911Y0082500D01*
X0066381Y0083109D01*
X0067506Y0084234D01*
X0068115Y0085704D01*
X0068115Y0087296D01*
X0067506Y0088766D01*
X0066381Y0089891D01*
X0064911Y0090500D01*
X0063319Y0090500D01*
X0065248Y0090360D02*
X0109115Y0090360D01*
X0109115Y0089362D02*
X0066910Y0089362D01*
X0067673Y0088363D02*
X0109115Y0088363D01*
X0109115Y0087365D02*
X0068086Y0087365D01*
X0068115Y0086366D02*
X0109115Y0086366D01*
X0109115Y0085368D02*
X0067975Y0085368D01*
X0067562Y0084369D02*
X0109115Y0084369D01*
X0109115Y0083370D02*
X0066642Y0083370D01*
X0066422Y0080375D02*
X0082167Y0080375D01*
X0081765Y0079376D02*
X0067587Y0079376D01*
X0068209Y0078378D02*
X0081765Y0078378D01*
X0082412Y0077379D02*
X0068532Y0077379D01*
X0068483Y0075382D02*
X0109115Y0075382D01*
X0109115Y0074384D02*
X0068087Y0074384D01*
X0067364Y0073385D02*
X0109115Y0073385D01*
X0109115Y0072387D02*
X0065955Y0072387D01*
X0064615Y0072387D02*
X0063615Y0072387D01*
X0063615Y0073385D02*
X0064615Y0073385D01*
X0064615Y0074384D02*
X0063615Y0074384D01*
X0064115Y0076500D02*
X0076024Y0064591D01*
X0076024Y0062957D01*
X0092166Y0079098D01*
X0092166Y0094630D01*
X0085631Y0101165D01*
X0085631Y0111933D01*
X0098072Y0124374D01*
X0104115Y0118331D01*
X0104115Y0084000D01*
X0104115Y0039000D01*
X0106615Y0036500D01*
X0109115Y0036440D02*
X0078028Y0036440D01*
X0078768Y0037439D02*
X0109115Y0037439D01*
X0109115Y0038437D02*
X0078768Y0038437D01*
X0078459Y0039436D02*
X0109115Y0039436D01*
X0109115Y0040434D02*
X0077461Y0040434D01*
X0075376Y0040434D02*
X0038127Y0040434D01*
X0037128Y0039436D02*
X0074377Y0039436D01*
X0074068Y0038437D02*
X0035350Y0038437D01*
X0039126Y0041433D02*
X0109115Y0041433D01*
X0109115Y0042432D02*
X0039673Y0042432D01*
X0040086Y0043430D02*
X0109115Y0043430D01*
X0109115Y0044429D02*
X0040500Y0044429D01*
X0040800Y0045427D02*
X0109115Y0045427D01*
X0109115Y0046426D02*
X0040800Y0046426D01*
X0040800Y0047424D02*
X0109115Y0047424D01*
X0109115Y0048423D02*
X0040800Y0048423D01*
X0040597Y0049421D02*
X0109115Y0049421D01*
X0109115Y0050420D02*
X0040184Y0050420D01*
X0039770Y0051418D02*
X0109115Y0051418D01*
X0109115Y0052417D02*
X0090068Y0052417D01*
X0090973Y0053415D02*
X0109115Y0053415D01*
X0109115Y0054414D02*
X0090973Y0054414D01*
X0090829Y0055412D02*
X0109115Y0055412D01*
X0109115Y0056411D02*
X0089831Y0056411D01*
X0089155Y0057409D02*
X0109115Y0057409D01*
X0109115Y0058408D02*
X0090153Y0058408D01*
X0090185Y0059406D02*
X0109115Y0059406D01*
X0109115Y0060405D02*
X0090167Y0060405D01*
X0089169Y0061403D02*
X0109115Y0061403D01*
X0109115Y0062402D02*
X0089029Y0062402D01*
X0090028Y0063400D02*
X0109115Y0063400D01*
X0109115Y0064399D02*
X0090185Y0064399D01*
X0090185Y0065397D02*
X0109115Y0065397D01*
X0086416Y0055412D02*
X0035919Y0055412D01*
X0037364Y0054414D02*
X0086273Y0054414D01*
X0086273Y0053415D02*
X0038362Y0053415D01*
X0039357Y0052417D02*
X0087178Y0052417D01*
X0076024Y0046421D02*
X0066103Y0036500D01*
X0059115Y0036500D01*
X0014115Y0036500D01*
X0076024Y0046421D02*
X0076024Y0062957D01*
X0062275Y0072387D02*
X0055955Y0072387D01*
X0057364Y0073385D02*
X0060866Y0073385D01*
X0060143Y0074384D02*
X0058087Y0074384D01*
X0058483Y0075382D02*
X0059747Y0075382D01*
X0059698Y0077379D02*
X0058532Y0077379D01*
X0058209Y0078378D02*
X0060021Y0078378D01*
X0060643Y0079376D02*
X0057587Y0079376D01*
X0056422Y0080375D02*
X0061808Y0080375D01*
X0063615Y0080375D02*
X0064615Y0080375D01*
X0064615Y0079376D02*
X0063615Y0079376D01*
X0063615Y0078378D02*
X0064615Y0078378D01*
X0064615Y0077379D02*
X0063615Y0077379D01*
X0061588Y0083370D02*
X0056642Y0083370D01*
X0057562Y0084369D02*
X0060668Y0084369D01*
X0060254Y0085368D02*
X0057975Y0085368D01*
X0058115Y0086366D02*
X0060115Y0086366D01*
X0060144Y0087365D02*
X0058086Y0087365D01*
X0057673Y0088363D02*
X0060557Y0088363D01*
X0061320Y0089362D02*
X0056910Y0089362D01*
X0054911Y0092500D02*
X0053319Y0092500D01*
X0051849Y0093109D01*
X0050724Y0094234D01*
X0050115Y0095704D01*
X0050115Y0097296D01*
X0050724Y0098766D01*
X0051849Y0099891D01*
X0053319Y0100500D01*
X0054911Y0100500D01*
X0056381Y0099891D01*
X0057506Y0098766D01*
X0058115Y0097296D01*
X0058115Y0095704D01*
X0057506Y0094234D01*
X0056381Y0093109D01*
X0054911Y0092500D01*
X0056627Y0093356D02*
X0061602Y0093356D01*
X0061849Y0093109D02*
X0063319Y0092500D01*
X0064911Y0092500D01*
X0066381Y0093109D01*
X0067506Y0094234D01*
X0068115Y0095704D01*
X0068115Y0097296D01*
X0067506Y0098766D01*
X0066381Y0099891D01*
X0064911Y0100500D01*
X0063319Y0100500D01*
X0061849Y0099891D01*
X0060724Y0098766D01*
X0060115Y0097296D01*
X0060115Y0095704D01*
X0060724Y0094234D01*
X0061849Y0093109D01*
X0060674Y0094354D02*
X0057556Y0094354D01*
X0057969Y0095353D02*
X0060261Y0095353D01*
X0060115Y0096351D02*
X0058115Y0096351D01*
X0058093Y0097350D02*
X0060137Y0097350D01*
X0060551Y0098348D02*
X0057679Y0098348D01*
X0056925Y0099347D02*
X0061305Y0099347D01*
X0062946Y0100345D02*
X0055284Y0100345D01*
X0054911Y0102500D02*
X0053319Y0102500D01*
X0051849Y0103109D01*
X0050724Y0104234D01*
X0050115Y0105704D01*
X0050115Y0107296D01*
X0050724Y0108766D01*
X0051849Y0109891D01*
X0053319Y0110500D01*
X0054911Y0110500D01*
X0056381Y0109891D01*
X0057506Y0108766D01*
X0058115Y0107296D01*
X0058115Y0105704D01*
X0057506Y0104234D01*
X0056381Y0103109D01*
X0054911Y0102500D01*
X0056613Y0103341D02*
X0061617Y0103341D01*
X0061849Y0103109D02*
X0063319Y0102500D01*
X0064911Y0102500D01*
X0066381Y0103109D01*
X0067506Y0104234D01*
X0068115Y0105704D01*
X0068115Y0107296D01*
X0067506Y0108766D01*
X0066381Y0109891D01*
X0064911Y0110500D01*
X0063319Y0110500D01*
X0061849Y0109891D01*
X0060724Y0108766D01*
X0060115Y0107296D01*
X0060115Y0105704D01*
X0060724Y0104234D01*
X0061849Y0103109D01*
X0060680Y0104339D02*
X0057549Y0104339D01*
X0057963Y0105338D02*
X0060267Y0105338D01*
X0060115Y0106336D02*
X0058115Y0106336D01*
X0058099Y0107335D02*
X0060131Y0107335D01*
X0060545Y0108333D02*
X0057685Y0108333D01*
X0056940Y0109332D02*
X0061290Y0109332D01*
X0062910Y0110330D02*
X0055320Y0110330D01*
X0054911Y0112500D02*
X0053319Y0112500D01*
X0051849Y0113109D01*
X0050724Y0114234D01*
X0050115Y0115704D01*
X0050115Y0117296D01*
X0050724Y0118766D01*
X0051849Y0119891D01*
X0053319Y0120500D01*
X0054911Y0120500D01*
X0056381Y0119891D01*
X0057506Y0118766D01*
X0058115Y0117296D01*
X0058115Y0115704D01*
X0057506Y0114234D01*
X0056381Y0113109D01*
X0054911Y0112500D01*
X0056598Y0113326D02*
X0061632Y0113326D01*
X0061849Y0113109D02*
X0063319Y0112500D01*
X0064911Y0112500D01*
X0066381Y0113109D01*
X0067506Y0114234D01*
X0068115Y0115704D01*
X0068115Y0117296D01*
X0067506Y0118766D01*
X0066381Y0119891D01*
X0064911Y0120500D01*
X0063319Y0120500D01*
X0061849Y0119891D01*
X0060724Y0118766D01*
X0060115Y0117296D01*
X0060115Y0115704D01*
X0060724Y0114234D01*
X0061849Y0113109D01*
X0060687Y0114324D02*
X0057543Y0114324D01*
X0057957Y0115323D02*
X0060273Y0115323D01*
X0060115Y0116321D02*
X0058115Y0116321D01*
X0058105Y0117320D02*
X0060125Y0117320D01*
X0060539Y0118318D02*
X0057691Y0118318D01*
X0056955Y0119317D02*
X0061275Y0119317D01*
X0062874Y0120315D02*
X0055356Y0120315D01*
X0052874Y0120315D02*
X0039584Y0120315D01*
X0039691Y0120208D02*
X0038566Y0121334D01*
X0037096Y0121943D01*
X0035504Y0121943D01*
X0034034Y0121334D01*
X0032909Y0120208D01*
X0032300Y0118738D01*
X0032300Y0117147D01*
X0032909Y0115677D01*
X0034034Y0114551D01*
X0035504Y0113943D01*
X0037096Y0113943D01*
X0038566Y0114551D01*
X0039691Y0115677D01*
X0040300Y0117147D01*
X0040300Y0118738D01*
X0039691Y0120208D01*
X0040060Y0119317D02*
X0051275Y0119317D01*
X0050539Y0118318D02*
X0040300Y0118318D01*
X0040300Y0117320D02*
X0050125Y0117320D01*
X0050115Y0116321D02*
X0039958Y0116321D01*
X0039337Y0115323D02*
X0050273Y0115323D01*
X0050687Y0114324D02*
X0038017Y0114324D01*
X0034583Y0114324D02*
X0029892Y0114324D01*
X0029691Y0114808D02*
X0028566Y0115934D01*
X0027096Y0116543D01*
X0025504Y0116543D01*
X0024034Y0115934D01*
X0022909Y0114808D01*
X0022300Y0113338D01*
X0022300Y0111747D01*
X0022909Y0110277D01*
X0024034Y0109151D01*
X0025504Y0108543D01*
X0027096Y0108543D01*
X0028566Y0109151D01*
X0029691Y0110277D01*
X0030300Y0111747D01*
X0030300Y0113338D01*
X0029691Y0114808D01*
X0029177Y0115323D02*
X0033263Y0115323D01*
X0032642Y0116321D02*
X0027630Y0116321D01*
X0024970Y0116321D02*
X0012515Y0116321D01*
X0012515Y0115323D02*
X0023423Y0115323D01*
X0022708Y0114324D02*
X0012515Y0114324D01*
X0012515Y0113326D02*
X0022300Y0113326D01*
X0022300Y0112327D02*
X0012515Y0112327D01*
X0012515Y0111329D02*
X0022473Y0111329D01*
X0022887Y0110330D02*
X0012515Y0110330D01*
X0012515Y0109332D02*
X0023854Y0109332D01*
X0028746Y0109332D02*
X0032877Y0109332D01*
X0032909Y0109408D02*
X0032300Y0107938D01*
X0032300Y0106347D01*
X0032909Y0104877D01*
X0034034Y0103751D01*
X0035504Y0103143D01*
X0037096Y0103143D01*
X0038566Y0103751D01*
X0039691Y0104877D01*
X0040300Y0106347D01*
X0040300Y0107938D01*
X0039691Y0109408D01*
X0038566Y0110534D01*
X0037096Y0111143D01*
X0035504Y0111143D01*
X0034034Y0110534D01*
X0032909Y0109408D01*
X0032464Y0108333D02*
X0012515Y0108333D01*
X0012515Y0107335D02*
X0032300Y0107335D01*
X0032304Y0106336D02*
X0012515Y0106336D01*
X0012515Y0105338D02*
X0024527Y0105338D01*
X0024034Y0105134D02*
X0025504Y0105743D01*
X0027096Y0105743D01*
X0028566Y0105134D01*
X0029691Y0104008D01*
X0030300Y0102538D01*
X0030300Y0100947D01*
X0029691Y0099477D01*
X0028566Y0098351D01*
X0027096Y0097743D01*
X0025504Y0097743D01*
X0024034Y0098351D01*
X0022909Y0099477D01*
X0022300Y0100947D01*
X0022300Y0102538D01*
X0022909Y0104008D01*
X0024034Y0105134D01*
X0023240Y0104339D02*
X0012515Y0104339D01*
X0012515Y0103341D02*
X0022632Y0103341D01*
X0022300Y0102342D02*
X0012515Y0102342D01*
X0012515Y0101344D02*
X0022300Y0101344D01*
X0022549Y0100345D02*
X0012515Y0100345D01*
X0012515Y0099347D02*
X0023039Y0099347D01*
X0024042Y0098348D02*
X0012515Y0098348D01*
X0012515Y0097350D02*
X0032388Y0097350D01*
X0032300Y0097138D02*
X0032300Y0095547D01*
X0032909Y0094077D01*
X0034034Y0092951D01*
X0035504Y0092343D01*
X0037096Y0092343D01*
X0038566Y0092951D01*
X0039691Y0094077D01*
X0040300Y0095547D01*
X0040300Y0097138D01*
X0039691Y0098608D01*
X0038566Y0099734D01*
X0037096Y0100343D01*
X0035504Y0100343D01*
X0034034Y0099734D01*
X0032909Y0098608D01*
X0032300Y0097138D01*
X0032300Y0096351D02*
X0012515Y0096351D01*
X0012515Y0095353D02*
X0032380Y0095353D01*
X0032794Y0094354D02*
X0028516Y0094354D01*
X0029544Y0093356D02*
X0033630Y0093356D01*
X0035469Y0092357D02*
X0030044Y0092357D01*
X0030300Y0091359D02*
X0109115Y0091359D01*
X0109115Y0092357D02*
X0037131Y0092357D01*
X0038970Y0093356D02*
X0051602Y0093356D01*
X0050674Y0094354D02*
X0039806Y0094354D01*
X0040220Y0095353D02*
X0050261Y0095353D01*
X0050115Y0096351D02*
X0040300Y0096351D01*
X0040212Y0097350D02*
X0050137Y0097350D01*
X0050551Y0098348D02*
X0039799Y0098348D01*
X0038953Y0099347D02*
X0051305Y0099347D01*
X0052946Y0100345D02*
X0030051Y0100345D01*
X0030300Y0101344D02*
X0109115Y0101344D01*
X0109115Y0102342D02*
X0030300Y0102342D01*
X0029968Y0103341D02*
X0035026Y0103341D01*
X0033446Y0104339D02*
X0029360Y0104339D01*
X0028073Y0105338D02*
X0032718Y0105338D01*
X0037574Y0103341D02*
X0051617Y0103341D01*
X0050680Y0104339D02*
X0039154Y0104339D01*
X0039882Y0105338D02*
X0050267Y0105338D01*
X0050115Y0106336D02*
X0040296Y0106336D01*
X0040300Y0107335D02*
X0050131Y0107335D01*
X0050545Y0108333D02*
X0040136Y0108333D01*
X0039723Y0109332D02*
X0051290Y0109332D01*
X0052910Y0110330D02*
X0038769Y0110330D01*
X0033831Y0110330D02*
X0029713Y0110330D01*
X0030127Y0111329D02*
X0109115Y0111329D01*
X0109115Y0112327D02*
X0030300Y0112327D01*
X0030300Y0113326D02*
X0051632Y0113326D01*
X0065320Y0110330D02*
X0109115Y0110330D01*
X0109115Y0109332D02*
X0066940Y0109332D01*
X0067685Y0108333D02*
X0109115Y0108333D01*
X0109115Y0107335D02*
X0068099Y0107335D01*
X0068115Y0106336D02*
X0109115Y0106336D01*
X0109115Y0105338D02*
X0067963Y0105338D01*
X0067549Y0104339D02*
X0109115Y0104339D01*
X0109115Y0103341D02*
X0066613Y0103341D01*
X0065284Y0100345D02*
X0109115Y0100345D01*
X0109115Y0099347D02*
X0066925Y0099347D01*
X0067679Y0098348D02*
X0109115Y0098348D01*
X0109115Y0097350D02*
X0068093Y0097350D01*
X0068115Y0096351D02*
X0109115Y0096351D01*
X0109115Y0095353D02*
X0067969Y0095353D01*
X0067556Y0094354D02*
X0109115Y0094354D01*
X0109115Y0093356D02*
X0066627Y0093356D01*
X0051320Y0089362D02*
X0037533Y0089362D01*
X0039136Y0088363D02*
X0050557Y0088363D01*
X0050144Y0087365D02*
X0039875Y0087365D01*
X0040288Y0086366D02*
X0050115Y0086366D01*
X0050254Y0085368D02*
X0040300Y0085368D01*
X0040143Y0084369D02*
X0050668Y0084369D01*
X0051588Y0083370D02*
X0039730Y0083370D01*
X0038786Y0082372D02*
X0109115Y0082372D01*
X0139115Y0082372D02*
X0172615Y0082372D01*
X0172615Y0083370D02*
X0171809Y0083370D01*
X0172469Y0084031D02*
X0171092Y0082654D01*
X0169145Y0082654D01*
X0167769Y0084031D01*
X0167769Y0085977D01*
X0169145Y0087354D01*
X0171092Y0087354D01*
X0172469Y0085977D01*
X0172469Y0084031D01*
X0172469Y0084369D02*
X0172615Y0084369D01*
X0172615Y0085368D02*
X0172469Y0085368D01*
X0172615Y0086366D02*
X0172080Y0086366D01*
X0172615Y0087365D02*
X0139115Y0087365D01*
X0139115Y0088363D02*
X0172615Y0088363D01*
X0172615Y0089362D02*
X0139115Y0089362D01*
X0139115Y0090360D02*
X0172615Y0090360D01*
X0172615Y0091359D02*
X0139115Y0091359D01*
X0139115Y0092357D02*
X0172615Y0092357D01*
X0172615Y0093356D02*
X0139115Y0093356D01*
X0139115Y0094354D02*
X0172615Y0094354D01*
X0172615Y0095353D02*
X0139115Y0095353D01*
X0139115Y0096351D02*
X0172615Y0096351D01*
X0172615Y0097350D02*
X0139115Y0097350D01*
X0139115Y0098348D02*
X0172615Y0098348D01*
X0172615Y0099347D02*
X0170285Y0099347D01*
X0170088Y0099150D02*
X0171465Y0100527D01*
X0171465Y0102473D01*
X0170088Y0103850D01*
X0168142Y0103850D01*
X0166765Y0102473D01*
X0166765Y0100527D01*
X0168142Y0099150D01*
X0170088Y0099150D01*
X0171284Y0100345D02*
X0172615Y0100345D01*
X0172615Y0101344D02*
X0171465Y0101344D01*
X0171465Y0102342D02*
X0172615Y0102342D01*
X0172615Y0103341D02*
X0170598Y0103341D01*
X0172615Y0104339D02*
X0165278Y0104339D01*
X0165088Y0104150D02*
X0166465Y0105527D01*
X0166465Y0107473D01*
X0165615Y0108323D01*
X0165615Y0120879D01*
X0179115Y0134379D01*
X0179115Y0133621D01*
X0172615Y0127121D01*
X0172615Y0079621D01*
X0165115Y0072121D01*
X0165115Y0065823D01*
X0164265Y0064973D01*
X0164265Y0063027D01*
X0165642Y0061650D01*
X0167588Y0061650D01*
X0168965Y0063027D01*
X0168965Y0064973D01*
X0168115Y0065823D01*
X0168115Y0070879D01*
X0174736Y0077500D01*
X0175615Y0078379D01*
X0175615Y0125879D01*
X0179115Y0129379D01*
X0179115Y0072588D01*
X0179056Y0072563D01*
X0177677Y0071185D01*
X0176931Y0069384D01*
X0176931Y0067435D01*
X0177677Y0065634D01*
X0179056Y0064255D01*
X0179115Y0064231D01*
X0179115Y0014900D01*
X0139115Y0014900D01*
X0139115Y0174000D01*
X0179115Y0174000D01*
X0179115Y0147196D01*
X0178594Y0147196D01*
X0177218Y0145820D01*
X0177218Y0143873D01*
X0178594Y0142496D01*
X0179115Y0142496D01*
X0179115Y0138621D01*
X0163494Y0123000D01*
X0163494Y0123000D01*
X0162615Y0122121D01*
X0162615Y0108323D01*
X0161765Y0107473D01*
X0161765Y0105527D01*
X0163142Y0104150D01*
X0165088Y0104150D01*
X0166276Y0105338D02*
X0172615Y0105338D01*
X0172615Y0106336D02*
X0166465Y0106336D01*
X0166465Y0107335D02*
X0172615Y0107335D01*
X0172615Y0108333D02*
X0165615Y0108333D01*
X0165615Y0109332D02*
X0172615Y0109332D01*
X0172615Y0110330D02*
X0165615Y0110330D01*
X0165615Y0111329D02*
X0172615Y0111329D01*
X0172615Y0112327D02*
X0165615Y0112327D01*
X0165615Y0113326D02*
X0172615Y0113326D01*
X0172615Y0114324D02*
X0165615Y0114324D01*
X0165615Y0115323D02*
X0172615Y0115323D01*
X0172615Y0116321D02*
X0165615Y0116321D01*
X0165615Y0117320D02*
X0172615Y0117320D01*
X0172615Y0118318D02*
X0165615Y0118318D01*
X0165615Y0119317D02*
X0172615Y0119317D01*
X0172615Y0120315D02*
X0165615Y0120315D01*
X0166050Y0121314D02*
X0172615Y0121314D01*
X0172615Y0122312D02*
X0167049Y0122312D01*
X0168047Y0123311D02*
X0172615Y0123311D01*
X0172615Y0124309D02*
X0169046Y0124309D01*
X0170044Y0125308D02*
X0172615Y0125308D01*
X0172615Y0126306D02*
X0171043Y0126306D01*
X0172041Y0127305D02*
X0172799Y0127305D01*
X0173040Y0128303D02*
X0173797Y0128303D01*
X0174038Y0129302D02*
X0174796Y0129302D01*
X0175037Y0130301D02*
X0175794Y0130301D01*
X0176035Y0131299D02*
X0176793Y0131299D01*
X0177034Y0132298D02*
X0177791Y0132298D01*
X0178032Y0133296D02*
X0178790Y0133296D01*
X0179031Y0134295D02*
X0179115Y0134295D01*
X0176785Y0136292D02*
X0139115Y0136292D01*
X0139115Y0137290D02*
X0177784Y0137290D01*
X0176615Y0137290D01*
X0176615Y0136292D02*
X0176785Y0136292D01*
X0176615Y0136121D02*
X0176615Y0210950D01*
X0177115Y0210871D01*
X0177115Y0215000D01*
X0178115Y0215000D01*
X0178115Y0216000D01*
X0182244Y0216000D01*
X0182150Y0216589D01*
X0181924Y0217285D01*
X0181592Y0217937D01*
X0181162Y0218529D01*
X0180644Y0219047D01*
X0180052Y0219477D01*
X0179400Y0219809D01*
X0178813Y0220000D01*
X0193494Y0220000D01*
X0194870Y0218624D01*
X0194097Y0217851D01*
X0193465Y0216325D01*
X0193465Y0214675D01*
X0194097Y0213149D01*
X0195264Y0211982D01*
X0196789Y0211350D01*
X0198440Y0211350D01*
X0199966Y0211982D01*
X0201133Y0213149D01*
X0201765Y0214675D01*
X0201765Y0216325D01*
X0201133Y0217851D01*
X0199966Y0219018D01*
X0198440Y0219650D01*
X0198086Y0219650D01*
X0195615Y0222121D01*
X0195615Y0222121D01*
X0194736Y0223000D01*
X0176615Y0223000D01*
X0176615Y0226801D01*
X0304115Y0226801D01*
X0304115Y0219650D01*
X0302789Y0219650D01*
X0301264Y0219018D01*
X0300097Y0217851D01*
X0299465Y0216325D01*
X0299465Y0214675D01*
X0300097Y0213149D01*
X0301264Y0211982D01*
X0302789Y0211350D01*
X0304115Y0211350D01*
X0304115Y0206121D01*
X0303494Y0205500D01*
X0275736Y0205500D01*
X0281939Y0211702D01*
X0282789Y0211350D01*
X0284440Y0211350D01*
X0285966Y0211982D01*
X0287133Y0213149D01*
X0287765Y0214675D01*
X0287765Y0216325D01*
X0287133Y0217851D01*
X0285966Y0219018D01*
X0284440Y0219650D01*
X0282789Y0219650D01*
X0281264Y0219018D01*
X0280097Y0217851D01*
X0279465Y0216325D01*
X0279465Y0214675D01*
X0279817Y0213824D01*
X0273994Y0208000D01*
X0185994Y0208000D01*
X0185115Y0207121D01*
X0182615Y0204621D01*
X0182615Y0142121D01*
X0176615Y0136121D01*
X0175787Y0135293D02*
X0139115Y0135293D01*
X0139115Y0134295D02*
X0174788Y0134295D01*
X0173790Y0133296D02*
X0139115Y0133296D01*
X0139115Y0132298D02*
X0172791Y0132298D01*
X0171793Y0131299D02*
X0139115Y0131299D01*
X0139115Y0130301D02*
X0170794Y0130301D01*
X0169796Y0129302D02*
X0139115Y0129302D01*
X0139115Y0128303D02*
X0168797Y0128303D01*
X0167799Y0127305D02*
X0139115Y0127305D01*
X0139115Y0126306D02*
X0166800Y0126306D01*
X0165802Y0125308D02*
X0139115Y0125308D01*
X0139115Y0124309D02*
X0164803Y0124309D01*
X0163805Y0123311D02*
X0139115Y0123311D01*
X0139115Y0122312D02*
X0162806Y0122312D01*
X0162615Y0121314D02*
X0139115Y0121314D01*
X0139115Y0120315D02*
X0162615Y0120315D01*
X0162615Y0119317D02*
X0139115Y0119317D01*
X0139115Y0118318D02*
X0162615Y0118318D01*
X0162615Y0117320D02*
X0139115Y0117320D01*
X0139115Y0116321D02*
X0162615Y0116321D01*
X0162615Y0115323D02*
X0139115Y0115323D01*
X0139115Y0114324D02*
X0162615Y0114324D01*
X0162615Y0113326D02*
X0160613Y0113326D01*
X0160088Y0113850D02*
X0158142Y0113850D01*
X0156765Y0112473D01*
X0156765Y0110527D01*
X0158142Y0109150D01*
X0160088Y0109150D01*
X0161465Y0110527D01*
X0161465Y0112473D01*
X0160088Y0113850D01*
X0161465Y0112327D02*
X0162615Y0112327D01*
X0162615Y0111329D02*
X0161465Y0111329D01*
X0161269Y0110330D02*
X0162615Y0110330D01*
X0162615Y0109332D02*
X0160270Y0109332D01*
X0157960Y0109332D02*
X0139115Y0109332D01*
X0139115Y0110330D02*
X0156961Y0110330D01*
X0156765Y0111329D02*
X0139115Y0111329D01*
X0139115Y0112327D02*
X0156765Y0112327D01*
X0157617Y0113326D02*
X0139115Y0113326D01*
X0139115Y0108333D02*
X0162615Y0108333D01*
X0161765Y0107335D02*
X0139115Y0107335D01*
X0139115Y0106336D02*
X0161765Y0106336D01*
X0161954Y0105338D02*
X0139115Y0105338D01*
X0139115Y0104339D02*
X0162952Y0104339D01*
X0164115Y0106500D02*
X0164115Y0121500D01*
X0184115Y0141500D01*
X0184115Y0204000D01*
X0186615Y0206500D01*
X0274615Y0206500D01*
X0283615Y0215500D01*
X0287415Y0217171D02*
X0289815Y0217171D01*
X0290097Y0217851D02*
X0289465Y0216325D01*
X0289465Y0214675D01*
X0290097Y0213149D01*
X0291264Y0211982D01*
X0292789Y0211350D01*
X0294440Y0211350D01*
X0295966Y0211982D01*
X0297133Y0213149D01*
X0297765Y0214675D01*
X0297765Y0216325D01*
X0297133Y0217851D01*
X0295966Y0219018D01*
X0294440Y0219650D01*
X0292789Y0219650D01*
X0291264Y0219018D01*
X0290097Y0217851D01*
X0290416Y0218170D02*
X0286814Y0218170D01*
X0285604Y0219168D02*
X0291626Y0219168D01*
X0289465Y0216172D02*
X0287765Y0216172D01*
X0287765Y0215174D02*
X0289465Y0215174D01*
X0289672Y0214175D02*
X0287558Y0214175D01*
X0287145Y0213177D02*
X0290085Y0213177D01*
X0291068Y0212178D02*
X0286162Y0212178D01*
X0281416Y0211180D02*
X0304115Y0211180D01*
X0304115Y0210181D02*
X0280418Y0210181D01*
X0279419Y0209183D02*
X0304115Y0209183D01*
X0304115Y0208184D02*
X0278421Y0208184D01*
X0277422Y0207186D02*
X0304115Y0207186D01*
X0304115Y0206187D02*
X0276424Y0206187D01*
X0274178Y0208184D02*
X0176615Y0208184D01*
X0176615Y0207186D02*
X0185180Y0207186D01*
X0184181Y0206187D02*
X0176615Y0206187D01*
X0176615Y0205189D02*
X0183183Y0205189D01*
X0182615Y0204190D02*
X0176615Y0204190D01*
X0176615Y0203192D02*
X0182615Y0203192D01*
X0182615Y0202193D02*
X0176615Y0202193D01*
X0176615Y0201195D02*
X0182615Y0201195D01*
X0182615Y0200196D02*
X0176615Y0200196D01*
X0176615Y0199198D02*
X0182615Y0199198D01*
X0182615Y0198199D02*
X0176615Y0198199D01*
X0176615Y0197201D02*
X0182615Y0197201D01*
X0182615Y0196202D02*
X0176615Y0196202D01*
X0176615Y0195204D02*
X0182615Y0195204D01*
X0182615Y0194205D02*
X0176615Y0194205D01*
X0176615Y0193207D02*
X0182615Y0193207D01*
X0182615Y0192208D02*
X0176615Y0192208D01*
X0176615Y0191210D02*
X0182615Y0191210D01*
X0182615Y0190211D02*
X0176615Y0190211D01*
X0176615Y0189213D02*
X0182615Y0189213D01*
X0182615Y0188214D02*
X0176615Y0188214D01*
X0176615Y0187216D02*
X0182615Y0187216D01*
X0182615Y0186217D02*
X0176615Y0186217D01*
X0176615Y0185219D02*
X0182615Y0185219D01*
X0182615Y0184220D02*
X0176615Y0184220D01*
X0176615Y0183222D02*
X0182615Y0183222D01*
X0182615Y0182223D02*
X0176615Y0182223D01*
X0176024Y0182091D02*
X0174115Y0184000D01*
X0136615Y0184000D01*
X0119115Y0184000D01*
X0111615Y0176500D01*
X0084115Y0176500D01*
X0069115Y0176500D01*
X0066512Y0188051D02*
X0067982Y0188660D01*
X0069108Y0189785D01*
X0069717Y0191256D01*
X0069717Y0192847D01*
X0069108Y0194317D01*
X0067982Y0195442D01*
X0066512Y0196051D01*
X0064921Y0196051D01*
X0063451Y0195442D01*
X0062325Y0194317D01*
X0061717Y0192847D01*
X0061717Y0191256D01*
X0062325Y0189785D01*
X0063451Y0188660D01*
X0064921Y0188051D01*
X0066512Y0188051D01*
X0066906Y0188214D02*
X0075327Y0188214D01*
X0075721Y0188051D02*
X0077312Y0188051D01*
X0078782Y0188660D01*
X0079908Y0189785D01*
X0080517Y0191256D01*
X0080517Y0192847D01*
X0079908Y0194317D01*
X0078782Y0195442D01*
X0077312Y0196051D01*
X0075721Y0196051D01*
X0074251Y0195442D01*
X0073125Y0194317D01*
X0072517Y0192847D01*
X0072517Y0191256D01*
X0073125Y0189785D01*
X0074251Y0188660D01*
X0075721Y0188051D01*
X0077706Y0188214D02*
X0086127Y0188214D01*
X0086521Y0188051D02*
X0088112Y0188051D01*
X0089582Y0188660D01*
X0090708Y0189785D01*
X0091317Y0191256D01*
X0091317Y0192847D01*
X0090708Y0194317D01*
X0089582Y0195442D01*
X0088817Y0195759D01*
X0088817Y0199793D01*
X0088868Y0199693D01*
X0089284Y0199120D01*
X0089785Y0198619D01*
X0090358Y0198202D01*
X0090989Y0197881D01*
X0091663Y0197662D01*
X0092217Y0197574D01*
X0092217Y0201551D01*
X0093217Y0201551D01*
X0093217Y0202551D01*
X0097193Y0202551D01*
X0097106Y0203105D01*
X0096887Y0203779D01*
X0096565Y0204410D01*
X0096149Y0204983D01*
X0095648Y0205484D01*
X0095075Y0205900D01*
X0094444Y0206221D01*
X0093770Y0206440D01*
X0093217Y0206528D01*
X0093217Y0202551D01*
X0092217Y0202551D01*
X0092217Y0206528D01*
X0091663Y0206440D01*
X0090989Y0206221D01*
X0090358Y0205900D01*
X0089785Y0205484D01*
X0089284Y0204983D01*
X0088868Y0204410D01*
X0088817Y0204309D01*
X0088817Y0219080D01*
X0089736Y0220000D01*
X0176417Y0220000D01*
X0175830Y0219809D01*
X0175178Y0219477D01*
X0174586Y0219047D01*
X0174068Y0218529D01*
X0173638Y0217937D01*
X0173306Y0217285D01*
X0173079Y0216589D01*
X0172986Y0216000D01*
X0177115Y0216000D01*
X0177115Y0215000D01*
X0178115Y0215000D01*
X0182244Y0215000D01*
X0182150Y0214411D01*
X0181924Y0213715D01*
X0181592Y0213063D01*
X0181162Y0212471D01*
X0180644Y0211953D01*
X0180052Y0211523D01*
X0179400Y0211191D01*
X0178704Y0210964D01*
X0179115Y0211098D01*
X0179115Y0174000D01*
X0012515Y0174000D01*
X0012515Y0226801D01*
X0179115Y0226801D01*
X0179115Y0223000D01*
X0088494Y0223000D01*
X0085817Y0220323D01*
X0085817Y0203088D01*
X0085308Y0204317D01*
X0084182Y0205442D01*
X0082712Y0206051D01*
X0081121Y0206051D01*
X0079651Y0205442D01*
X0078525Y0204317D01*
X0077917Y0202847D01*
X0077917Y0201256D01*
X0078525Y0199785D01*
X0079651Y0198660D01*
X0081121Y0198051D01*
X0082712Y0198051D01*
X0084182Y0198660D01*
X0085308Y0199785D01*
X0085817Y0201014D01*
X0085817Y0195759D01*
X0085051Y0195442D01*
X0083925Y0194317D01*
X0083317Y0192847D01*
X0083317Y0191256D01*
X0083925Y0189785D01*
X0085051Y0188660D01*
X0086521Y0188051D01*
X0088506Y0188214D02*
X0096927Y0188214D01*
X0097321Y0188051D02*
X0098912Y0188051D01*
X0100382Y0188660D01*
X0101508Y0189785D01*
X0102117Y0191256D01*
X0102117Y0192847D01*
X0101508Y0194317D01*
X0100382Y0195442D01*
X0098912Y0196051D01*
X0097321Y0196051D01*
X0095851Y0195442D01*
X0094725Y0194317D01*
X0094117Y0192847D01*
X0094117Y0191256D01*
X0094725Y0189785D01*
X0095851Y0188660D01*
X0097321Y0188051D01*
X0099306Y0188214D02*
X0122326Y0188214D01*
X0123927Y0187551D02*
X0127706Y0187551D01*
X0131198Y0188997D01*
X0133870Y0191670D01*
X0135317Y0195162D01*
X0135317Y0198941D01*
X0133870Y0202432D01*
X0131198Y0205105D01*
X0127706Y0206551D01*
X0123927Y0206551D01*
X0120435Y0205105D01*
X0117763Y0202432D01*
X0116317Y0198941D01*
X0116317Y0195162D01*
X0117763Y0191670D01*
X0120435Y0188997D01*
X0123927Y0187551D01*
X0120220Y0189213D02*
X0100935Y0189213D01*
X0101684Y0190211D02*
X0119221Y0190211D01*
X0118223Y0191210D02*
X0102098Y0191210D01*
X0102117Y0192208D02*
X0117540Y0192208D01*
X0117126Y0193207D02*
X0101967Y0193207D01*
X0101554Y0194205D02*
X0116713Y0194205D01*
X0116317Y0195204D02*
X0100621Y0195204D01*
X0095612Y0195204D02*
X0089821Y0195204D01*
X0090754Y0194205D02*
X0094679Y0194205D01*
X0094266Y0193207D02*
X0091167Y0193207D01*
X0091317Y0192208D02*
X0094117Y0192208D01*
X0094136Y0191210D02*
X0091298Y0191210D01*
X0090884Y0190211D02*
X0094549Y0190211D01*
X0095298Y0189213D02*
X0090135Y0189213D01*
X0087317Y0192051D02*
X0087317Y0219702D01*
X0089115Y0221500D01*
X0194115Y0221500D01*
X0197615Y0218000D01*
X0197615Y0215500D01*
X0201415Y0217171D02*
X0203815Y0217171D01*
X0204097Y0217851D02*
X0203465Y0216325D01*
X0203465Y0214675D01*
X0204097Y0213149D01*
X0205264Y0211982D01*
X0206789Y0211350D01*
X0208440Y0211350D01*
X0209966Y0211982D01*
X0211133Y0213149D01*
X0211765Y0214675D01*
X0211765Y0216325D01*
X0211133Y0217851D01*
X0209966Y0219018D01*
X0208440Y0219650D01*
X0206789Y0219650D01*
X0205264Y0219018D01*
X0204097Y0217851D01*
X0204416Y0218170D02*
X0200814Y0218170D01*
X0199604Y0219168D02*
X0205626Y0219168D01*
X0203465Y0216172D02*
X0201765Y0216172D01*
X0201765Y0215174D02*
X0203465Y0215174D01*
X0203672Y0214175D02*
X0201558Y0214175D01*
X0201145Y0213177D02*
X0204085Y0213177D01*
X0205068Y0212178D02*
X0200162Y0212178D01*
X0195068Y0212178D02*
X0190162Y0212178D01*
X0189966Y0211982D02*
X0191133Y0213149D01*
X0191765Y0214675D01*
X0191765Y0216325D01*
X0191133Y0217851D01*
X0189966Y0219018D01*
X0188440Y0219650D01*
X0186789Y0219650D01*
X0185264Y0219018D01*
X0184097Y0217851D01*
X0183465Y0216325D01*
X0183465Y0214675D01*
X0184097Y0213149D01*
X0185264Y0211982D01*
X0186789Y0211350D01*
X0188440Y0211350D01*
X0189966Y0211982D01*
X0191145Y0213177D02*
X0194085Y0213177D01*
X0193672Y0214175D02*
X0191558Y0214175D01*
X0191765Y0215174D02*
X0193465Y0215174D01*
X0193465Y0216172D02*
X0191765Y0216172D01*
X0191415Y0217171D02*
X0193815Y0217171D01*
X0194416Y0218170D02*
X0190814Y0218170D01*
X0189604Y0219168D02*
X0194326Y0219168D01*
X0196571Y0221165D02*
X0304115Y0221165D01*
X0304115Y0220167D02*
X0197570Y0220167D01*
X0195573Y0222164D02*
X0304115Y0222164D01*
X0304115Y0223162D02*
X0176615Y0223162D01*
X0176615Y0224161D02*
X0304115Y0224161D01*
X0304115Y0225159D02*
X0176615Y0225159D01*
X0176615Y0226158D02*
X0304115Y0226158D01*
X0301626Y0219168D02*
X0295604Y0219168D01*
X0296814Y0218170D02*
X0300416Y0218170D01*
X0299815Y0217171D02*
X0297415Y0217171D01*
X0297765Y0216172D02*
X0299465Y0216172D01*
X0299465Y0215174D02*
X0297765Y0215174D01*
X0297558Y0214175D02*
X0299672Y0214175D01*
X0300085Y0213177D02*
X0297145Y0213177D01*
X0296162Y0212178D02*
X0301068Y0212178D01*
X0309115Y0209000D02*
X0304115Y0204000D01*
X0189115Y0204000D01*
X0186615Y0201500D01*
X0186615Y0139000D01*
X0174115Y0126500D01*
X0174115Y0079000D01*
X0166615Y0071500D01*
X0166615Y0064000D01*
X0168340Y0062402D02*
X0179115Y0062402D01*
X0179115Y0063400D02*
X0168965Y0063400D01*
X0168965Y0064399D02*
X0178913Y0064399D01*
X0176615Y0064399D01*
X0176615Y0065397D02*
X0177914Y0065397D01*
X0168541Y0065397D01*
X0168115Y0066396D02*
X0177362Y0066396D01*
X0176615Y0066396D01*
X0176615Y0067394D02*
X0176948Y0067394D01*
X0168115Y0067394D01*
X0168115Y0068393D02*
X0176931Y0068393D01*
X0176615Y0068393D01*
X0176615Y0069391D02*
X0176934Y0069391D01*
X0168115Y0069391D01*
X0168115Y0070390D02*
X0177348Y0070390D01*
X0176615Y0070390D01*
X0176615Y0071388D02*
X0177881Y0071388D01*
X0168625Y0071388D01*
X0169623Y0072387D02*
X0178879Y0072387D01*
X0176615Y0072387D01*
X0176615Y0073385D02*
X0304115Y0073385D01*
X0304115Y0072387D02*
X0184784Y0072387D01*
X0184607Y0072563D02*
X0182806Y0073309D01*
X0180857Y0073309D01*
X0179056Y0072563D01*
X0177677Y0071185D01*
X0176931Y0069384D01*
X0176931Y0067435D01*
X0177677Y0065634D01*
X0179056Y0064255D01*
X0180857Y0063509D01*
X0182806Y0063509D01*
X0184607Y0064255D01*
X0185986Y0065634D01*
X0186731Y0067435D01*
X0186731Y0069384D01*
X0185986Y0071185D01*
X0184607Y0072563D01*
X0185782Y0071388D02*
X0304115Y0071388D01*
X0304115Y0070967D02*
X0302609Y0070967D01*
X0300808Y0070221D01*
X0299429Y0068843D01*
X0298683Y0067042D01*
X0298683Y0065092D01*
X0299429Y0063291D01*
X0300808Y0061913D01*
X0302609Y0061167D01*
X0304115Y0061167D01*
X0304115Y0014900D01*
X0176615Y0014900D01*
X0176615Y0126879D01*
X0187236Y0137500D01*
X0188115Y0138379D01*
X0188115Y0200879D01*
X0189736Y0202500D01*
X0301792Y0202500D01*
X0301765Y0202473D01*
X0301765Y0200527D01*
X0303142Y0199150D01*
X0304115Y0199150D01*
X0304115Y0108268D01*
X0303839Y0108154D01*
X0302461Y0106776D01*
X0301715Y0104975D01*
X0301715Y0103025D01*
X0302461Y0101224D01*
X0303839Y0099846D01*
X0304115Y0099732D01*
X0304115Y0098268D01*
X0303839Y0098154D01*
X0302461Y0096776D01*
X0301715Y0094975D01*
X0301715Y0093025D01*
X0302461Y0091224D01*
X0303839Y0089846D01*
X0304115Y0089732D01*
X0304115Y0088268D01*
X0303839Y0088154D01*
X0302461Y0086776D01*
X0301715Y0084975D01*
X0301715Y0083025D01*
X0302461Y0081224D01*
X0303839Y0079846D01*
X0304115Y0079732D01*
X0304115Y0070967D01*
X0301216Y0070390D02*
X0190734Y0070390D01*
X0190266Y0070858D02*
X0191642Y0069481D01*
X0191642Y0067534D01*
X0190266Y0066158D01*
X0188319Y0066158D01*
X0186942Y0067534D01*
X0186942Y0069481D01*
X0188319Y0070858D01*
X0190266Y0070858D01*
X0191642Y0069391D02*
X0299978Y0069391D01*
X0299243Y0068393D02*
X0248262Y0068393D01*
X0247785Y0068870D02*
X0245838Y0068870D01*
X0244462Y0067493D01*
X0244462Y0065546D01*
X0245838Y0064170D01*
X0247785Y0064170D01*
X0249162Y0065546D01*
X0249162Y0067493D01*
X0247785Y0068870D01*
X0249162Y0067394D02*
X0298830Y0067394D01*
X0298683Y0066396D02*
X0249162Y0066396D01*
X0249013Y0065397D02*
X0298683Y0065397D01*
X0298971Y0064399D02*
X0248014Y0064399D01*
X0245609Y0064399D02*
X0184750Y0064399D01*
X0185749Y0065397D02*
X0244611Y0065397D01*
X0244462Y0066396D02*
X0190503Y0066396D01*
X0191502Y0067394D02*
X0244462Y0067394D01*
X0245362Y0068393D02*
X0191642Y0068393D01*
X0188081Y0066396D02*
X0186301Y0066396D01*
X0186715Y0067394D02*
X0187082Y0067394D01*
X0186942Y0068393D02*
X0186731Y0068393D01*
X0186729Y0069391D02*
X0186942Y0069391D01*
X0186315Y0070390D02*
X0187851Y0070390D01*
X0192835Y0074413D02*
X0206615Y0088193D01*
X0206615Y0091500D01*
X0208564Y0089551D01*
X0245335Y0089551D01*
X0250454Y0089551D01*
X0250355Y0089453D01*
X0250355Y0072031D01*
X0250355Y0049591D01*
X0247206Y0049591D01*
X0234115Y0036500D01*
X0234115Y0026000D01*
X0238092Y0026000D01*
X0238004Y0026554D01*
X0237785Y0027227D01*
X0237464Y0027859D01*
X0237047Y0028432D01*
X0236547Y0028932D01*
X0235973Y0029349D01*
X0235342Y0029670D01*
X0234669Y0029889D01*
X0234115Y0029977D01*
X0234115Y0026000D01*
X0234115Y0025000D01*
X0238092Y0025000D01*
X0238004Y0024446D01*
X0237785Y0023773D01*
X0237464Y0023141D01*
X0237047Y0022568D01*
X0236547Y0022068D01*
X0235973Y0021651D01*
X0235342Y0021330D01*
X0234669Y0021111D01*
X0234115Y0021023D01*
X0234115Y0025000D01*
X0233115Y0025000D01*
X0233115Y0021023D01*
X0232561Y0021111D01*
X0231888Y0021330D01*
X0231256Y0021651D01*
X0230683Y0022068D01*
X0230183Y0022568D01*
X0229766Y0023141D01*
X0229445Y0023773D01*
X0229226Y0024446D01*
X0229138Y0025000D01*
X0233115Y0025000D01*
X0233115Y0026000D01*
X0233115Y0029977D01*
X0232561Y0029889D01*
X0231888Y0029670D01*
X0231256Y0029349D01*
X0230683Y0028932D01*
X0230183Y0028432D01*
X0229766Y0027859D01*
X0229445Y0027227D01*
X0229226Y0026554D01*
X0229138Y0026000D01*
X0233115Y0026000D01*
X0234115Y0026000D01*
X0233615Y0025500D01*
X0227115Y0019000D01*
X0179115Y0019000D01*
X0176615Y0021500D01*
X0176615Y0039000D01*
X0169981Y0045634D01*
X0169331Y0045634D01*
X0152481Y0045634D01*
X0149115Y0049000D01*
X0149115Y0078528D01*
X0149863Y0079276D01*
X0155729Y0079276D01*
X0169725Y0093272D01*
X0166497Y0096500D01*
X0151615Y0096500D01*
X0151221Y0096894D01*
X0151221Y0124374D01*
X0151221Y0127524D01*
X0149745Y0129000D01*
X0141615Y0129000D01*
X0141615Y0036500D01*
X0141615Y0016500D01*
X0139115Y0016470D02*
X0179115Y0016470D01*
X0179115Y0015472D02*
X0139115Y0015472D01*
X0139115Y0017469D02*
X0179115Y0017469D01*
X0179115Y0018467D02*
X0139115Y0018467D01*
X0139115Y0019466D02*
X0179115Y0019466D01*
X0179115Y0020464D02*
X0139115Y0020464D01*
X0139115Y0021463D02*
X0179115Y0021463D01*
X0179115Y0022461D02*
X0139115Y0022461D01*
X0139115Y0023460D02*
X0179115Y0023460D01*
X0180082Y0023460D02*
X0176615Y0023460D01*
X0176615Y0024458D02*
X0179668Y0024458D01*
X0179587Y0024653D02*
X0180196Y0023183D01*
X0181322Y0022058D01*
X0182792Y0021449D01*
X0184383Y0021449D01*
X0185853Y0022058D01*
X0186978Y0023183D01*
X0187587Y0024653D01*
X0187587Y0026244D01*
X0186978Y0027715D01*
X0185853Y0028840D01*
X0184383Y0029449D01*
X0182792Y0029449D01*
X0181322Y0028840D01*
X0180196Y0027715D01*
X0179587Y0026244D01*
X0179587Y0024653D01*
X0179115Y0024458D02*
X0139115Y0024458D01*
X0139115Y0025457D02*
X0179115Y0025457D01*
X0179587Y0025457D02*
X0176615Y0025457D01*
X0176615Y0026455D02*
X0179675Y0026455D01*
X0179115Y0026455D02*
X0139115Y0026455D01*
X0139115Y0027454D02*
X0179115Y0027454D01*
X0180088Y0027454D02*
X0176615Y0027454D01*
X0176615Y0028452D02*
X0180934Y0028452D01*
X0179115Y0028452D02*
X0139115Y0028452D01*
X0139115Y0029451D02*
X0179115Y0029451D01*
X0179115Y0030449D02*
X0139115Y0030449D01*
X0139115Y0031448D02*
X0179115Y0031448D01*
X0179115Y0032446D02*
X0139115Y0032446D01*
X0139115Y0033445D02*
X0179115Y0033445D01*
X0179115Y0034443D02*
X0139115Y0034443D01*
X0139115Y0035442D02*
X0179115Y0035442D01*
X0179115Y0036440D02*
X0172910Y0036440D01*
X0172273Y0035804D02*
X0173650Y0037180D01*
X0173650Y0039127D01*
X0172273Y0040504D01*
X0170327Y0040504D01*
X0168950Y0039127D01*
X0168950Y0037180D01*
X0170327Y0035804D01*
X0172273Y0035804D01*
X0173650Y0037439D02*
X0179115Y0037439D01*
X0179115Y0038437D02*
X0173650Y0038437D01*
X0173341Y0039436D02*
X0179115Y0039436D01*
X0179115Y0040434D02*
X0172342Y0040434D01*
X0170258Y0040434D02*
X0139115Y0040434D01*
X0139115Y0039436D02*
X0169259Y0039436D01*
X0168950Y0038437D02*
X0139115Y0038437D01*
X0139115Y0037439D02*
X0168950Y0037439D01*
X0169690Y0036440D02*
X0139115Y0036440D01*
X0139115Y0041433D02*
X0179115Y0041433D01*
X0179115Y0042432D02*
X0139115Y0042432D01*
X0139115Y0043430D02*
X0179115Y0043430D01*
X0179115Y0044429D02*
X0139115Y0044429D01*
X0139115Y0045427D02*
X0179115Y0045427D01*
X0179115Y0046426D02*
X0139115Y0046426D01*
X0139115Y0047424D02*
X0179115Y0047424D01*
X0179115Y0048423D02*
X0139115Y0048423D01*
X0139115Y0049421D02*
X0179115Y0049421D01*
X0179115Y0050420D02*
X0139115Y0050420D01*
X0139115Y0051418D02*
X0179115Y0051418D01*
X0179115Y0052417D02*
X0139115Y0052417D01*
X0139115Y0053415D02*
X0179115Y0053415D01*
X0179115Y0054414D02*
X0139115Y0054414D01*
X0139115Y0055412D02*
X0179115Y0055412D01*
X0179115Y0056411D02*
X0139115Y0056411D01*
X0139115Y0057409D02*
X0167382Y0057409D01*
X0166765Y0058027D02*
X0168142Y0056650D01*
X0170088Y0056650D01*
X0171465Y0058027D01*
X0171465Y0059973D01*
X0170088Y0061350D01*
X0168142Y0061350D01*
X0166765Y0059973D01*
X0166765Y0058027D01*
X0166765Y0058408D02*
X0139115Y0058408D01*
X0139115Y0059406D02*
X0166765Y0059406D01*
X0167196Y0060405D02*
X0139115Y0060405D01*
X0139115Y0061403D02*
X0179115Y0061403D01*
X0179115Y0060405D02*
X0171034Y0060405D01*
X0171465Y0059406D02*
X0179115Y0059406D01*
X0179115Y0058408D02*
X0171465Y0058408D01*
X0170848Y0057409D02*
X0179115Y0057409D01*
X0176615Y0057409D02*
X0304115Y0057409D01*
X0304115Y0056411D02*
X0176615Y0056411D01*
X0176615Y0055412D02*
X0304115Y0055412D01*
X0304115Y0054414D02*
X0176615Y0054414D01*
X0176615Y0053415D02*
X0304115Y0053415D01*
X0304115Y0052417D02*
X0176615Y0052417D01*
X0176615Y0051418D02*
X0304115Y0051418D01*
X0304115Y0050420D02*
X0176615Y0050420D01*
X0176615Y0049421D02*
X0304115Y0049421D01*
X0304115Y0048423D02*
X0176615Y0048423D01*
X0176615Y0047424D02*
X0304115Y0047424D01*
X0304115Y0046426D02*
X0176615Y0046426D01*
X0176615Y0045427D02*
X0267219Y0045427D01*
X0266765Y0044973D02*
X0266765Y0043027D01*
X0268142Y0041650D01*
X0270088Y0041650D01*
X0271465Y0043027D01*
X0271465Y0044973D01*
X0270088Y0046350D01*
X0268142Y0046350D01*
X0266765Y0044973D01*
X0266765Y0044429D02*
X0176615Y0044429D01*
X0176615Y0043430D02*
X0266765Y0043430D01*
X0267360Y0042432D02*
X0176615Y0042432D01*
X0176615Y0041433D02*
X0304115Y0041433D01*
X0304115Y0040434D02*
X0176615Y0040434D01*
X0176615Y0039436D02*
X0304115Y0039436D01*
X0304115Y0038437D02*
X0176615Y0038437D01*
X0176615Y0037439D02*
X0304115Y0037439D01*
X0304115Y0036440D02*
X0176615Y0036440D01*
X0176615Y0035442D02*
X0304115Y0035442D01*
X0304115Y0034443D02*
X0176615Y0034443D01*
X0176615Y0033445D02*
X0304115Y0033445D01*
X0304115Y0032446D02*
X0176615Y0032446D01*
X0176615Y0031448D02*
X0304115Y0031448D01*
X0304115Y0030449D02*
X0176615Y0030449D01*
X0176615Y0029451D02*
X0202710Y0029451D01*
X0202819Y0029496D02*
X0201349Y0028887D01*
X0200224Y0027762D01*
X0199615Y0026292D01*
X0199615Y0024700D01*
X0200224Y0023230D01*
X0201349Y0022105D01*
X0202819Y0021496D01*
X0204411Y0021496D01*
X0205881Y0022105D01*
X0207006Y0023230D01*
X0207615Y0024700D01*
X0207615Y0026292D01*
X0207006Y0027762D01*
X0205881Y0028887D01*
X0204411Y0029496D01*
X0202819Y0029496D01*
X0204520Y0029451D02*
X0212701Y0029451D01*
X0212819Y0029500D02*
X0211349Y0028891D01*
X0210224Y0027766D01*
X0209615Y0026296D01*
X0209615Y0024704D01*
X0210224Y0023234D01*
X0211349Y0022109D01*
X0212819Y0021500D01*
X0214411Y0021500D01*
X0215881Y0022109D01*
X0217006Y0023234D01*
X0217615Y0024704D01*
X0217615Y0026296D01*
X0217006Y0027766D01*
X0215881Y0028891D01*
X0214411Y0029500D01*
X0212819Y0029500D01*
X0214529Y0029451D02*
X0222701Y0029451D01*
X0222819Y0029500D02*
X0221349Y0028891D01*
X0220224Y0027766D01*
X0219615Y0026296D01*
X0219615Y0024704D01*
X0220224Y0023234D01*
X0221349Y0022109D01*
X0222819Y0021500D01*
X0224411Y0021500D01*
X0225881Y0022109D01*
X0227006Y0023234D01*
X0227615Y0024704D01*
X0227615Y0026296D01*
X0227006Y0027766D01*
X0225881Y0028891D01*
X0224411Y0029500D01*
X0222819Y0029500D01*
X0224529Y0029451D02*
X0231457Y0029451D01*
X0230203Y0028452D02*
X0226319Y0028452D01*
X0227135Y0027454D02*
X0229560Y0027454D01*
X0229210Y0026455D02*
X0227549Y0026455D01*
X0227615Y0025457D02*
X0233115Y0025457D01*
X0233115Y0026455D02*
X0234115Y0026455D01*
X0234115Y0025457D02*
X0239615Y0025457D01*
X0239615Y0024704D02*
X0239615Y0026296D01*
X0240224Y0027766D01*
X0241349Y0028891D01*
X0242819Y0029500D01*
X0244411Y0029500D01*
X0245881Y0028891D01*
X0247006Y0027766D01*
X0247615Y0026296D01*
X0247615Y0024704D01*
X0247006Y0023234D01*
X0245881Y0022109D01*
X0244411Y0021500D01*
X0242819Y0021500D01*
X0241349Y0022109D01*
X0240224Y0023234D01*
X0239615Y0024704D01*
X0239717Y0024458D02*
X0238006Y0024458D01*
X0237626Y0023460D02*
X0240130Y0023460D01*
X0240997Y0022461D02*
X0236940Y0022461D01*
X0235604Y0021463D02*
X0277362Y0021463D01*
X0277461Y0021224D02*
X0278839Y0019846D01*
X0280640Y0019100D01*
X0282590Y0019100D01*
X0284391Y0019846D01*
X0285769Y0021224D01*
X0286369Y0022672D01*
X0286611Y0021927D01*
X0286996Y0021170D01*
X0287496Y0020482D01*
X0288097Y0019881D01*
X0288785Y0019382D01*
X0289542Y0018996D01*
X0290350Y0018733D01*
X0291115Y0018612D01*
X0291115Y0023500D01*
X0292115Y0023500D01*
X0292115Y0024500D01*
X0297003Y0024500D01*
X0296882Y0025265D01*
X0296619Y0026073D01*
X0296233Y0026830D01*
X0295734Y0027518D01*
X0295133Y0028119D01*
X0294445Y0028618D01*
X0293688Y0029004D01*
X0292879Y0029267D01*
X0292115Y0029388D01*
X0292115Y0024500D01*
X0291115Y0024500D01*
X0291115Y0029388D01*
X0290350Y0029267D01*
X0289542Y0029004D01*
X0288785Y0028618D01*
X0288097Y0028119D01*
X0287496Y0027518D01*
X0286996Y0026830D01*
X0286611Y0026073D01*
X0286369Y0025328D01*
X0285769Y0026776D01*
X0284391Y0028154D01*
X0282590Y0028900D01*
X0280640Y0028900D01*
X0278839Y0028154D01*
X0277461Y0026776D01*
X0276715Y0024975D01*
X0276715Y0023025D01*
X0277461Y0021224D01*
X0278221Y0020464D02*
X0176615Y0020464D01*
X0176615Y0019466D02*
X0279757Y0019466D01*
X0283473Y0019466D02*
X0288669Y0019466D01*
X0287514Y0020464D02*
X0285009Y0020464D01*
X0285868Y0021463D02*
X0286847Y0021463D01*
X0286437Y0022461D02*
X0286281Y0022461D01*
X0291115Y0022461D02*
X0292115Y0022461D01*
X0292115Y0021463D02*
X0291115Y0021463D01*
X0291115Y0020464D02*
X0292115Y0020464D01*
X0292115Y0019466D02*
X0291115Y0019466D01*
X0292115Y0018612D02*
X0292879Y0018733D01*
X0293688Y0018996D01*
X0294445Y0019382D01*
X0295133Y0019881D01*
X0295734Y0020482D01*
X0296233Y0021170D01*
X0296619Y0021927D01*
X0296882Y0022735D01*
X0297003Y0023500D01*
X0292115Y0023500D01*
X0292115Y0018612D01*
X0294561Y0019466D02*
X0304115Y0019466D01*
X0304115Y0020464D02*
X0295716Y0020464D01*
X0296383Y0021463D02*
X0304115Y0021463D01*
X0304115Y0022461D02*
X0296793Y0022461D01*
X0296997Y0023460D02*
X0304115Y0023460D01*
X0304115Y0024458D02*
X0292115Y0024458D01*
X0291615Y0024000D02*
X0294115Y0024000D01*
X0301615Y0016500D01*
X0304115Y0016470D02*
X0176615Y0016470D01*
X0176615Y0015472D02*
X0304115Y0015472D01*
X0304115Y0017469D02*
X0176615Y0017469D01*
X0176615Y0018467D02*
X0304115Y0018467D01*
X0304115Y0025457D02*
X0296820Y0025457D01*
X0296424Y0026455D02*
X0304115Y0026455D01*
X0304115Y0027454D02*
X0295780Y0027454D01*
X0294674Y0028452D02*
X0304115Y0028452D01*
X0304115Y0029451D02*
X0254529Y0029451D01*
X0254411Y0029500D02*
X0252819Y0029500D01*
X0251349Y0028891D01*
X0250224Y0027766D01*
X0249615Y0026296D01*
X0249615Y0024704D01*
X0250224Y0023234D01*
X0251349Y0022109D01*
X0252819Y0021500D01*
X0254411Y0021500D01*
X0255881Y0022109D01*
X0257006Y0023234D01*
X0257615Y0024704D01*
X0257615Y0026296D01*
X0257006Y0027766D01*
X0255881Y0028891D01*
X0254411Y0029500D01*
X0252701Y0029451D02*
X0244529Y0029451D01*
X0242701Y0029451D02*
X0235773Y0029451D01*
X0237027Y0028452D02*
X0240910Y0028452D01*
X0240095Y0027454D02*
X0237670Y0027454D01*
X0238020Y0026455D02*
X0239681Y0026455D01*
X0246319Y0028452D02*
X0250910Y0028452D01*
X0250095Y0027454D02*
X0247135Y0027454D01*
X0247549Y0026455D02*
X0249681Y0026455D01*
X0249615Y0025457D02*
X0247615Y0025457D01*
X0247513Y0024458D02*
X0249717Y0024458D01*
X0250130Y0023460D02*
X0247099Y0023460D01*
X0246233Y0022461D02*
X0250997Y0022461D01*
X0256233Y0022461D02*
X0276949Y0022461D01*
X0276715Y0023460D02*
X0257099Y0023460D01*
X0257513Y0024458D02*
X0276715Y0024458D01*
X0276915Y0025457D02*
X0257615Y0025457D01*
X0257549Y0026455D02*
X0277328Y0026455D01*
X0278139Y0027454D02*
X0257135Y0027454D01*
X0256319Y0028452D02*
X0279560Y0028452D01*
X0283670Y0028452D02*
X0288556Y0028452D01*
X0287450Y0027454D02*
X0285091Y0027454D01*
X0285902Y0026455D02*
X0286805Y0026455D01*
X0286410Y0025457D02*
X0286315Y0025457D01*
X0291115Y0025457D02*
X0292115Y0025457D01*
X0292115Y0026455D02*
X0291115Y0026455D01*
X0291115Y0027454D02*
X0292115Y0027454D01*
X0292115Y0028452D02*
X0291115Y0028452D01*
X0291615Y0024000D02*
X0291615Y0049591D01*
X0327068Y0049591D01*
X0327068Y0061953D01*
X0329115Y0064000D01*
X0331615Y0061500D01*
X0331615Y0049000D01*
X0341615Y0049000D01*
X0349115Y0056500D01*
X0349115Y0060929D01*
X0361615Y0060929D01*
X0361615Y0084000D01*
X0361615Y0086500D01*
X0361615Y0094000D01*
X0361615Y0099059D01*
X0361694Y0099138D01*
X0361694Y0125614D01*
X0358721Y0128587D01*
X0358721Y0139827D01*
X0350060Y0148488D01*
X0350060Y0153606D01*
X0344942Y0158724D01*
X0344942Y0178803D01*
X0350454Y0184315D01*
X0350454Y0187465D01*
X0344142Y0188066D02*
X0342766Y0186689D01*
X0340819Y0186689D01*
X0339442Y0188066D01*
X0339442Y0190013D01*
X0340819Y0191389D01*
X0342766Y0191389D01*
X0344142Y0190013D01*
X0344142Y0188066D01*
X0344142Y0188214D02*
X0374521Y0188214D01*
X0373764Y0188214D02*
X0359043Y0188214D01*
X0359031Y0187216D02*
X0373515Y0187216D01*
X0373515Y0187614D02*
X0373515Y0185386D01*
X0374368Y0183328D01*
X0375943Y0181753D01*
X0378001Y0180900D01*
X0380229Y0180900D01*
X0382287Y0181753D01*
X0383862Y0183328D01*
X0384715Y0185386D01*
X0384715Y0187614D01*
X0383862Y0189672D01*
X0382287Y0191247D01*
X0380229Y0192100D01*
X0378001Y0192100D01*
X0375943Y0191247D01*
X0374368Y0189672D01*
X0373515Y0187614D01*
X0374215Y0187475D02*
X0374215Y0185525D01*
X0374961Y0183724D01*
X0376339Y0182346D01*
X0378140Y0181600D01*
X0380090Y0181600D01*
X0381891Y0182346D01*
X0383269Y0183724D01*
X0384015Y0185525D01*
X0384015Y0187475D01*
X0383269Y0189276D01*
X0381891Y0190654D01*
X0380090Y0191400D01*
X0378140Y0191400D01*
X0376339Y0190654D01*
X0374961Y0189276D01*
X0374215Y0187475D01*
X0374215Y0187216D02*
X0343292Y0187216D01*
X0344142Y0189213D02*
X0374935Y0189213D01*
X0374177Y0189213D02*
X0359056Y0189213D01*
X0359068Y0190211D02*
X0374907Y0190211D01*
X0375897Y0190211D02*
X0343944Y0190211D01*
X0342945Y0191210D02*
X0377681Y0191210D01*
X0375905Y0191210D02*
X0359080Y0191210D01*
X0359093Y0192208D02*
X0451618Y0192208D01*
X0451620Y0191210D02*
X0382325Y0191210D01*
X0382333Y0190211D02*
X0431615Y0190211D01*
X0431615Y0189213D02*
X0383295Y0189213D01*
X0384053Y0189213D02*
X0451623Y0189213D01*
X0451621Y0190211D02*
X0383323Y0190211D01*
X0383709Y0188214D02*
X0431615Y0188214D01*
X0431615Y0187216D02*
X0384015Y0187216D01*
X0384715Y0187216D02*
X0451627Y0187216D01*
X0451625Y0188214D02*
X0384466Y0188214D01*
X0384715Y0186217D02*
X0451628Y0186217D01*
X0451630Y0185219D02*
X0384646Y0185219D01*
X0383888Y0185219D02*
X0431615Y0185219D01*
X0431615Y0186217D02*
X0384015Y0186217D01*
X0384232Y0184220D02*
X0451632Y0184220D01*
X0451633Y0183222D02*
X0383756Y0183222D01*
X0382766Y0183222D02*
X0431615Y0183222D01*
X0431615Y0184220D02*
X0383474Y0184220D01*
X0382758Y0182223D02*
X0451635Y0182223D01*
X0451637Y0181225D02*
X0381012Y0181225D01*
X0381594Y0182223D02*
X0431615Y0182223D01*
X0431615Y0181225D02*
X0324115Y0181225D01*
X0324115Y0182223D02*
X0376636Y0182223D01*
X0377217Y0181225D02*
X0358957Y0181225D01*
X0358969Y0182223D02*
X0375472Y0182223D01*
X0375464Y0183222D02*
X0324115Y0183222D01*
X0324115Y0184220D02*
X0374756Y0184220D01*
X0373998Y0184220D02*
X0358994Y0184220D01*
X0358982Y0183222D02*
X0374474Y0183222D01*
X0374342Y0185219D02*
X0324115Y0185219D01*
X0324115Y0186217D02*
X0374215Y0186217D01*
X0373515Y0186217D02*
X0359019Y0186217D01*
X0359006Y0185219D02*
X0373584Y0185219D01*
X0380549Y0191210D02*
X0431615Y0191210D01*
X0431615Y0192208D02*
X0324115Y0192208D01*
X0324115Y0191210D02*
X0340639Y0191210D01*
X0339641Y0190211D02*
X0324115Y0190211D01*
X0324115Y0189213D02*
X0339442Y0189213D01*
X0339442Y0188214D02*
X0324115Y0188214D01*
X0324115Y0187216D02*
X0340292Y0187216D01*
X0324115Y0193207D02*
X0431615Y0193207D01*
X0431615Y0194000D02*
X0324115Y0194000D01*
X0324115Y0142500D01*
X0342029Y0142500D01*
X0342615Y0141914D01*
X0342615Y0106086D01*
X0342029Y0105500D01*
X0324115Y0105500D01*
X0324115Y0014900D01*
X0431615Y0014900D01*
X0431615Y0060843D01*
X0430724Y0061734D01*
X0430115Y0063204D01*
X0430115Y0064796D01*
X0430724Y0066266D01*
X0431615Y0067157D01*
X0431615Y0091919D01*
X0431611Y0091927D01*
X0431348Y0092735D01*
X0431227Y0093500D01*
X0431615Y0093500D01*
X0431615Y0094500D01*
X0431227Y0094500D01*
X0431348Y0095265D01*
X0431611Y0096073D01*
X0431615Y0096081D01*
X0431615Y0194000D01*
X0451615Y0194000D02*
X0451713Y0136677D01*
X0358406Y0136677D01*
X0359115Y0194000D01*
X0451615Y0194000D01*
X0451616Y0193207D02*
X0359105Y0193207D01*
X0358945Y0180226D02*
X0451639Y0180226D01*
X0451640Y0179228D02*
X0358932Y0179228D01*
X0358920Y0178229D02*
X0451642Y0178229D01*
X0451644Y0177231D02*
X0358908Y0177231D01*
X0358895Y0176232D02*
X0441788Y0176232D01*
X0442052Y0176341D02*
X0440931Y0175877D01*
X0440073Y0175019D01*
X0439608Y0173898D01*
X0439608Y0172685D01*
X0440073Y0171564D01*
X0440931Y0170706D01*
X0442052Y0170241D01*
X0443265Y0170241D01*
X0444386Y0170706D01*
X0445244Y0171564D01*
X0445708Y0172685D01*
X0445708Y0173898D01*
X0445244Y0175019D01*
X0444386Y0175877D01*
X0443265Y0176341D01*
X0442052Y0176341D01*
X0443529Y0176232D02*
X0451645Y0176232D01*
X0451647Y0175234D02*
X0445029Y0175234D01*
X0445569Y0174235D02*
X0451649Y0174235D01*
X0451651Y0173237D02*
X0445708Y0173237D01*
X0445523Y0172238D02*
X0451652Y0172238D01*
X0451654Y0171239D02*
X0444920Y0171239D01*
X0440397Y0171239D02*
X0358834Y0171239D01*
X0358821Y0170241D02*
X0451656Y0170241D01*
X0451657Y0169242D02*
X0358809Y0169242D01*
X0358797Y0168244D02*
X0451659Y0168244D01*
X0451661Y0167245D02*
X0358784Y0167245D01*
X0358772Y0166247D02*
X0451663Y0166247D01*
X0451664Y0165248D02*
X0358760Y0165248D01*
X0358747Y0164250D02*
X0451666Y0164250D01*
X0451668Y0163251D02*
X0358735Y0163251D01*
X0358722Y0162253D02*
X0451669Y0162253D01*
X0451671Y0161254D02*
X0358710Y0161254D01*
X0358698Y0160256D02*
X0451673Y0160256D01*
X0451675Y0159257D02*
X0358685Y0159257D01*
X0358673Y0158259D02*
X0451676Y0158259D01*
X0451678Y0157260D02*
X0358661Y0157260D01*
X0358648Y0156262D02*
X0451680Y0156262D01*
X0451681Y0155263D02*
X0358636Y0155263D01*
X0358624Y0154265D02*
X0451683Y0154265D01*
X0451685Y0153266D02*
X0358611Y0153266D01*
X0358599Y0152268D02*
X0451687Y0152268D01*
X0451688Y0151269D02*
X0358587Y0151269D01*
X0358574Y0150271D02*
X0451690Y0150271D01*
X0451692Y0149272D02*
X0358562Y0149272D01*
X0358550Y0148274D02*
X0451693Y0148274D01*
X0451695Y0147275D02*
X0358537Y0147275D01*
X0358525Y0146277D02*
X0451697Y0146277D01*
X0451699Y0145278D02*
X0358513Y0145278D01*
X0358500Y0144280D02*
X0451700Y0144280D01*
X0451702Y0143281D02*
X0358488Y0143281D01*
X0358476Y0142283D02*
X0451704Y0142283D01*
X0451705Y0141284D02*
X0358463Y0141284D01*
X0358451Y0140286D02*
X0451707Y0140286D01*
X0451709Y0139287D02*
X0358439Y0139287D01*
X0358721Y0139827D02*
X0368957Y0139827D01*
X0378013Y0148882D01*
X0393839Y0148882D01*
X0393643Y0149079D01*
X0392658Y0148094D01*
X0393643Y0149079D02*
X0409981Y0165417D01*
X0409981Y0175260D01*
X0414312Y0179591D01*
X0441477Y0179591D01*
X0440287Y0175234D02*
X0358883Y0175234D01*
X0358871Y0174235D02*
X0439748Y0174235D01*
X0439608Y0173237D02*
X0358858Y0173237D01*
X0358846Y0172238D02*
X0439793Y0172238D01*
X0431615Y0172238D02*
X0324115Y0172238D01*
X0324115Y0173237D02*
X0431615Y0173237D01*
X0431615Y0174235D02*
X0324115Y0174235D01*
X0324115Y0175234D02*
X0431615Y0175234D01*
X0431615Y0176232D02*
X0324115Y0176232D01*
X0324115Y0177231D02*
X0431615Y0177231D01*
X0431615Y0178229D02*
X0324115Y0178229D01*
X0324115Y0179228D02*
X0431615Y0179228D01*
X0431615Y0180226D02*
X0324115Y0180226D01*
X0324115Y0171239D02*
X0431615Y0171239D01*
X0431615Y0170241D02*
X0324115Y0170241D01*
X0324115Y0169242D02*
X0431615Y0169242D01*
X0431615Y0168244D02*
X0324115Y0168244D01*
X0324115Y0167245D02*
X0431615Y0167245D01*
X0431615Y0166247D02*
X0324115Y0166247D01*
X0324115Y0165248D02*
X0431615Y0165248D01*
X0431615Y0164250D02*
X0324115Y0164250D01*
X0324115Y0163251D02*
X0431615Y0163251D01*
X0431615Y0162253D02*
X0324115Y0162253D01*
X0324115Y0161254D02*
X0431615Y0161254D01*
X0431615Y0160256D02*
X0324115Y0160256D01*
X0324115Y0159257D02*
X0431615Y0159257D01*
X0431615Y0158259D02*
X0324115Y0158259D01*
X0324115Y0157260D02*
X0431615Y0157260D01*
X0431615Y0156262D02*
X0324115Y0156262D01*
X0324115Y0155263D02*
X0431615Y0155263D01*
X0431615Y0154265D02*
X0324115Y0154265D01*
X0324115Y0153266D02*
X0431615Y0153266D01*
X0431615Y0152268D02*
X0324115Y0152268D01*
X0324115Y0151269D02*
X0431615Y0151269D01*
X0431615Y0150271D02*
X0342546Y0150271D01*
X0341978Y0150838D02*
X0340031Y0150838D01*
X0338655Y0149462D01*
X0338655Y0147515D01*
X0340031Y0146138D01*
X0341978Y0146138D01*
X0343355Y0147515D01*
X0343355Y0149462D01*
X0341978Y0150838D01*
X0343355Y0149272D02*
X0431615Y0149272D01*
X0431615Y0148274D02*
X0343355Y0148274D01*
X0343115Y0147275D02*
X0431615Y0147275D01*
X0431615Y0146277D02*
X0342117Y0146277D01*
X0339893Y0146277D02*
X0324115Y0146277D01*
X0324115Y0147275D02*
X0338894Y0147275D01*
X0338655Y0148274D02*
X0324115Y0148274D01*
X0324115Y0149272D02*
X0338655Y0149272D01*
X0339464Y0150271D02*
X0324115Y0150271D01*
X0324115Y0145278D02*
X0431615Y0145278D01*
X0431615Y0144280D02*
X0324115Y0144280D01*
X0324115Y0143281D02*
X0431615Y0143281D01*
X0431615Y0142283D02*
X0342247Y0142283D01*
X0342615Y0141284D02*
X0431615Y0141284D01*
X0431615Y0140286D02*
X0342615Y0140286D01*
X0342615Y0139287D02*
X0431615Y0139287D01*
X0431615Y0138289D02*
X0342615Y0138289D01*
X0342615Y0137290D02*
X0431615Y0137290D01*
X0431615Y0136292D02*
X0342615Y0136292D01*
X0342615Y0135293D02*
X0431615Y0135293D01*
X0431615Y0134295D02*
X0342615Y0134295D01*
X0342615Y0133296D02*
X0431615Y0133296D01*
X0431615Y0132298D02*
X0342615Y0132298D01*
X0342615Y0131299D02*
X0383091Y0131299D01*
X0383142Y0131350D02*
X0381765Y0129973D01*
X0381765Y0128027D01*
X0383142Y0126650D01*
X0385088Y0126650D01*
X0386465Y0128027D01*
X0386465Y0129973D01*
X0385088Y0131350D01*
X0383142Y0131350D01*
X0382092Y0130301D02*
X0342615Y0130301D01*
X0342615Y0129302D02*
X0381765Y0129302D01*
X0381765Y0128303D02*
X0342615Y0128303D01*
X0342615Y0127305D02*
X0382487Y0127305D01*
X0385743Y0127305D02*
X0431615Y0127305D01*
X0431615Y0128303D02*
X0386465Y0128303D01*
X0386465Y0129302D02*
X0431615Y0129302D01*
X0431615Y0130301D02*
X0386138Y0130301D01*
X0385139Y0131299D02*
X0431615Y0131299D01*
X0431615Y0126306D02*
X0342615Y0126306D01*
X0342615Y0125308D02*
X0431615Y0125308D01*
X0431615Y0124309D02*
X0342615Y0124309D01*
X0342615Y0123311D02*
X0431615Y0123311D01*
X0431615Y0122312D02*
X0342615Y0122312D01*
X0342615Y0121314D02*
X0431615Y0121314D01*
X0431615Y0120315D02*
X0342615Y0120315D01*
X0342615Y0119317D02*
X0431615Y0119317D01*
X0431615Y0118318D02*
X0342615Y0118318D01*
X0342615Y0117320D02*
X0431615Y0117320D01*
X0431615Y0116321D02*
X0342615Y0116321D01*
X0342615Y0115323D02*
X0431615Y0115323D01*
X0431615Y0114324D02*
X0342615Y0114324D01*
X0342615Y0113326D02*
X0431615Y0113326D01*
X0431615Y0112327D02*
X0342615Y0112327D01*
X0342615Y0111329D02*
X0347968Y0111329D01*
X0348140Y0111400D02*
X0346339Y0110654D01*
X0344961Y0109276D01*
X0344215Y0107475D01*
X0344215Y0105525D01*
X0344961Y0103724D01*
X0346339Y0102346D01*
X0348140Y0101600D01*
X0350090Y0101600D01*
X0351891Y0102346D01*
X0353269Y0103724D01*
X0354015Y0105525D01*
X0354015Y0107475D01*
X0353269Y0109276D01*
X0351891Y0110654D01*
X0350090Y0111400D01*
X0348140Y0111400D01*
X0350261Y0111329D02*
X0431615Y0111329D01*
X0431615Y0110330D02*
X0352214Y0110330D01*
X0353213Y0109332D02*
X0431615Y0109332D01*
X0431615Y0108333D02*
X0353659Y0108333D01*
X0354015Y0107335D02*
X0431615Y0107335D01*
X0431615Y0106336D02*
X0354015Y0106336D01*
X0353937Y0105338D02*
X0431615Y0105338D01*
X0431615Y0104339D02*
X0353524Y0104339D01*
X0352885Y0103341D02*
X0431615Y0103341D01*
X0431615Y0102342D02*
X0351881Y0102342D01*
X0351891Y0100654D02*
X0350090Y0101400D01*
X0348140Y0101400D01*
X0346339Y0100654D01*
X0344961Y0099276D01*
X0344215Y0097475D01*
X0344215Y0095525D01*
X0344961Y0093724D01*
X0346339Y0092346D01*
X0347787Y0091746D01*
X0347042Y0091504D01*
X0346285Y0091118D01*
X0345597Y0090619D01*
X0344996Y0090018D01*
X0344496Y0089330D01*
X0344111Y0088573D01*
X0343848Y0087765D01*
X0343727Y0087000D01*
X0348615Y0087000D01*
X0348615Y0086000D01*
X0349615Y0086000D01*
X0349615Y0087000D01*
X0354503Y0087000D01*
X0354382Y0087765D01*
X0354119Y0088573D01*
X0353733Y0089330D01*
X0353234Y0090018D01*
X0352633Y0090619D01*
X0351945Y0091118D01*
X0351188Y0091504D01*
X0350443Y0091746D01*
X0351891Y0092346D01*
X0353269Y0093724D01*
X0354015Y0095525D01*
X0354015Y0097475D01*
X0353269Y0099276D01*
X0351891Y0100654D01*
X0352199Y0100345D02*
X0431615Y0100345D01*
X0431615Y0099347D02*
X0353198Y0099347D01*
X0353653Y0098348D02*
X0431615Y0098348D01*
X0431615Y0097350D02*
X0354015Y0097350D01*
X0354015Y0096351D02*
X0431615Y0096351D01*
X0431377Y0095353D02*
X0353943Y0095353D01*
X0353530Y0094354D02*
X0431615Y0094354D01*
X0431250Y0093356D02*
X0352900Y0093356D01*
X0351902Y0092357D02*
X0431471Y0092357D01*
X0431615Y0091359D02*
X0351474Y0091359D01*
X0352892Y0090360D02*
X0431615Y0090360D01*
X0431615Y0089362D02*
X0353711Y0089362D01*
X0354188Y0088363D02*
X0431615Y0088363D01*
X0431615Y0087365D02*
X0354445Y0087365D01*
X0354503Y0086000D02*
X0349615Y0086000D01*
X0349615Y0081112D01*
X0350379Y0081233D01*
X0351188Y0081496D01*
X0351945Y0081882D01*
X0352633Y0082381D01*
X0353234Y0082982D01*
X0353733Y0083670D01*
X0354119Y0084427D01*
X0354382Y0085235D01*
X0354503Y0086000D01*
X0354403Y0085368D02*
X0431615Y0085368D01*
X0431615Y0086366D02*
X0349615Y0086366D01*
X0349615Y0085368D02*
X0348615Y0085368D01*
X0348615Y0086000D02*
X0348615Y0081112D01*
X0347850Y0081233D01*
X0347042Y0081496D01*
X0346285Y0081882D01*
X0345597Y0082381D01*
X0344996Y0082982D01*
X0344496Y0083670D01*
X0344111Y0084427D01*
X0343848Y0085235D01*
X0343727Y0086000D01*
X0348615Y0086000D01*
X0348615Y0086366D02*
X0324115Y0086366D01*
X0324115Y0085368D02*
X0343827Y0085368D01*
X0344140Y0084369D02*
X0324115Y0084369D01*
X0324115Y0083370D02*
X0344714Y0083370D01*
X0345610Y0082372D02*
X0324115Y0082372D01*
X0324115Y0081373D02*
X0347418Y0081373D01*
X0348615Y0081373D02*
X0349615Y0081373D01*
X0349615Y0082372D02*
X0348615Y0082372D01*
X0348615Y0083370D02*
X0349615Y0083370D01*
X0349615Y0084369D02*
X0348615Y0084369D01*
X0350812Y0081373D02*
X0431615Y0081373D01*
X0431615Y0080375D02*
X0399922Y0080375D01*
X0399675Y0080622D02*
X0397728Y0080622D01*
X0396352Y0079245D01*
X0396352Y0077298D01*
X0397728Y0075922D01*
X0399675Y0075922D01*
X0401052Y0077298D01*
X0401052Y0079245D01*
X0399675Y0080622D01*
X0400920Y0079376D02*
X0431615Y0079376D01*
X0431615Y0078378D02*
X0401052Y0078378D01*
X0401052Y0077379D02*
X0431615Y0077379D01*
X0431615Y0076381D02*
X0400134Y0076381D01*
X0397269Y0076381D02*
X0324115Y0076381D01*
X0324115Y0077379D02*
X0396352Y0077379D01*
X0396352Y0078378D02*
X0324115Y0078378D01*
X0324115Y0079376D02*
X0396483Y0079376D01*
X0397481Y0080375D02*
X0324115Y0080375D01*
X0324115Y0075382D02*
X0431615Y0075382D01*
X0431615Y0074384D02*
X0324115Y0074384D01*
X0324115Y0073385D02*
X0431615Y0073385D01*
X0431615Y0072387D02*
X0324115Y0072387D01*
X0324115Y0071388D02*
X0431615Y0071388D01*
X0431615Y0070390D02*
X0324115Y0070390D01*
X0324115Y0069391D02*
X0431615Y0069391D01*
X0431615Y0068393D02*
X0330146Y0068393D01*
X0330169Y0068389D02*
X0329615Y0068477D01*
X0329615Y0064500D01*
X0333592Y0064500D01*
X0333504Y0065054D01*
X0333285Y0065727D01*
X0332964Y0066359D01*
X0332547Y0066932D01*
X0332047Y0067432D01*
X0331473Y0067849D01*
X0330842Y0068170D01*
X0330169Y0068389D01*
X0329615Y0068393D02*
X0328615Y0068393D01*
X0328615Y0068477D02*
X0328061Y0068389D01*
X0327388Y0068170D01*
X0326756Y0067849D01*
X0326183Y0067432D01*
X0325683Y0066932D01*
X0325266Y0066359D01*
X0324945Y0065727D01*
X0324726Y0065054D01*
X0324638Y0064500D01*
X0328615Y0064500D01*
X0328615Y0068477D01*
X0328084Y0068393D02*
X0324115Y0068393D01*
X0324115Y0067394D02*
X0326145Y0067394D01*
X0325293Y0066396D02*
X0324115Y0066396D01*
X0324115Y0065397D02*
X0324837Y0065397D01*
X0324115Y0064399D02*
X0328615Y0064399D01*
X0328615Y0064500D02*
X0328615Y0063500D01*
X0329615Y0063500D01*
X0329615Y0064500D01*
X0328615Y0064500D01*
X0329115Y0064000D02*
X0329115Y0075575D01*
X0329213Y0075673D01*
X0329615Y0067394D02*
X0328615Y0067394D01*
X0328615Y0066396D02*
X0329615Y0066396D01*
X0329615Y0065397D02*
X0328615Y0065397D01*
X0329615Y0064399D02*
X0335115Y0064399D01*
X0335115Y0064796D02*
X0335115Y0063204D01*
X0335724Y0061734D01*
X0336849Y0060609D01*
X0338319Y0060000D01*
X0339911Y0060000D01*
X0341381Y0060609D01*
X0342506Y0061734D01*
X0343115Y0063204D01*
X0343115Y0064796D01*
X0342506Y0066266D01*
X0341381Y0067391D01*
X0339911Y0068000D01*
X0338319Y0068000D01*
X0336849Y0067391D01*
X0335724Y0066266D01*
X0335115Y0064796D01*
X0335364Y0065397D02*
X0333393Y0065397D01*
X0332937Y0066396D02*
X0335854Y0066396D01*
X0336857Y0067394D02*
X0332085Y0067394D01*
X0333592Y0063500D02*
X0329615Y0063500D01*
X0329615Y0059523D01*
X0330169Y0059611D01*
X0330842Y0059830D01*
X0331473Y0060151D01*
X0332047Y0060568D01*
X0332547Y0061068D01*
X0332964Y0061641D01*
X0333285Y0062273D01*
X0333504Y0062946D01*
X0333592Y0063500D01*
X0333576Y0063400D02*
X0335115Y0063400D01*
X0335447Y0062402D02*
X0333327Y0062402D01*
X0332791Y0061403D02*
X0336055Y0061403D01*
X0337342Y0060405D02*
X0331822Y0060405D01*
X0329615Y0060405D02*
X0328615Y0060405D01*
X0328615Y0059523D02*
X0328615Y0063500D01*
X0324638Y0063500D01*
X0324726Y0062946D01*
X0324945Y0062273D01*
X0325266Y0061641D01*
X0325683Y0061068D01*
X0326183Y0060568D01*
X0326756Y0060151D01*
X0327388Y0059830D01*
X0328061Y0059611D01*
X0328615Y0059523D01*
X0328615Y0061403D02*
X0329615Y0061403D01*
X0329615Y0062402D02*
X0328615Y0062402D01*
X0328615Y0063400D02*
X0329615Y0063400D01*
X0325439Y0061403D02*
X0324115Y0061403D01*
X0324115Y0060405D02*
X0326408Y0060405D01*
X0324903Y0062402D02*
X0324115Y0062402D01*
X0324115Y0063400D02*
X0324654Y0063400D01*
X0324115Y0059406D02*
X0431615Y0059406D01*
X0431615Y0058408D02*
X0324115Y0058408D01*
X0324115Y0057409D02*
X0431615Y0057409D01*
X0431615Y0056411D02*
X0324115Y0056411D01*
X0324115Y0055412D02*
X0431615Y0055412D01*
X0431615Y0054414D02*
X0324115Y0054414D01*
X0324115Y0053415D02*
X0431615Y0053415D01*
X0431615Y0052417D02*
X0324115Y0052417D01*
X0324115Y0051418D02*
X0373543Y0051418D01*
X0373683Y0051476D02*
X0372122Y0050830D01*
X0370927Y0049635D01*
X0370280Y0048073D01*
X0370280Y0046383D01*
X0370927Y0044822D01*
X0372122Y0043627D01*
X0373683Y0042980D01*
X0375373Y0042980D01*
X0376935Y0043627D01*
X0378130Y0044822D01*
X0378776Y0046383D01*
X0378776Y0048073D01*
X0378130Y0049635D01*
X0376935Y0050830D01*
X0375373Y0051476D01*
X0373683Y0051476D01*
X0375514Y0051418D02*
X0393543Y0051418D01*
X0393683Y0051476D02*
X0392122Y0050830D01*
X0390927Y0049635D01*
X0390280Y0048073D01*
X0390280Y0046383D01*
X0390927Y0044822D01*
X0392122Y0043627D01*
X0393683Y0042980D01*
X0395373Y0042980D01*
X0396935Y0043627D01*
X0398130Y0044822D01*
X0398776Y0046383D01*
X0398776Y0048073D01*
X0398130Y0049635D01*
X0396935Y0050830D01*
X0395373Y0051476D01*
X0393683Y0051476D01*
X0395514Y0051418D02*
X0431615Y0051418D01*
X0431615Y0050420D02*
X0397345Y0050420D01*
X0398218Y0049421D02*
X0431615Y0049421D01*
X0431615Y0048423D02*
X0398632Y0048423D01*
X0398776Y0047424D02*
X0431615Y0047424D01*
X0431615Y0046426D02*
X0398776Y0046426D01*
X0398380Y0045427D02*
X0431615Y0045427D01*
X0431615Y0044429D02*
X0397736Y0044429D01*
X0396459Y0043430D02*
X0431615Y0043430D01*
X0431615Y0042432D02*
X0324115Y0042432D01*
X0324115Y0043430D02*
X0372598Y0043430D01*
X0371321Y0044429D02*
X0324115Y0044429D01*
X0324115Y0045427D02*
X0370676Y0045427D01*
X0370280Y0046426D02*
X0324115Y0046426D01*
X0324115Y0047424D02*
X0370280Y0047424D01*
X0370425Y0048423D02*
X0324115Y0048423D01*
X0324115Y0049421D02*
X0370839Y0049421D01*
X0371712Y0050420D02*
X0324115Y0050420D01*
X0324115Y0041433D02*
X0373579Y0041433D01*
X0373683Y0041476D02*
X0372122Y0040830D01*
X0370927Y0039635D01*
X0370280Y0038073D01*
X0370280Y0036383D01*
X0370927Y0034822D01*
X0372122Y0033627D01*
X0373683Y0032980D01*
X0375373Y0032980D01*
X0376935Y0033627D01*
X0378130Y0034822D01*
X0378776Y0036383D01*
X0378776Y0038073D01*
X0378130Y0039635D01*
X0376935Y0040830D01*
X0375373Y0041476D01*
X0373683Y0041476D01*
X0375478Y0041433D02*
X0393579Y0041433D01*
X0393683Y0041476D02*
X0392122Y0040830D01*
X0390927Y0039635D01*
X0390280Y0038073D01*
X0390280Y0036383D01*
X0390927Y0034822D01*
X0392122Y0033627D01*
X0393683Y0032980D01*
X0395373Y0032980D01*
X0396935Y0033627D01*
X0398130Y0034822D01*
X0398776Y0036383D01*
X0398776Y0038073D01*
X0398130Y0039635D01*
X0396935Y0040830D01*
X0395373Y0041476D01*
X0393683Y0041476D01*
X0395478Y0041433D02*
X0431615Y0041433D01*
X0431615Y0040434D02*
X0397330Y0040434D01*
X0398212Y0039436D02*
X0431615Y0039436D01*
X0431615Y0038437D02*
X0398626Y0038437D01*
X0398776Y0037439D02*
X0431615Y0037439D01*
X0431615Y0036440D02*
X0398776Y0036440D01*
X0398386Y0035442D02*
X0431615Y0035442D01*
X0431615Y0034443D02*
X0397751Y0034443D01*
X0396495Y0033445D02*
X0431615Y0033445D01*
X0431615Y0032446D02*
X0324115Y0032446D01*
X0324115Y0031448D02*
X0373615Y0031448D01*
X0373683Y0031476D02*
X0372122Y0030830D01*
X0370927Y0029635D01*
X0370280Y0028073D01*
X0370280Y0026383D01*
X0370927Y0024822D01*
X0372122Y0023627D01*
X0373683Y0022980D01*
X0375373Y0022980D01*
X0376935Y0023627D01*
X0378130Y0024822D01*
X0378776Y0026383D01*
X0378776Y0028073D01*
X0378130Y0029635D01*
X0376935Y0030830D01*
X0375373Y0031476D01*
X0373683Y0031476D01*
X0375442Y0031448D02*
X0393615Y0031448D01*
X0393683Y0031476D02*
X0392122Y0030830D01*
X0390927Y0029635D01*
X0390280Y0028073D01*
X0390280Y0026383D01*
X0390927Y0024822D01*
X0392122Y0023627D01*
X0393683Y0022980D01*
X0395373Y0022980D01*
X0396935Y0023627D01*
X0398130Y0024822D01*
X0398776Y0026383D01*
X0398776Y0028073D01*
X0398130Y0029635D01*
X0396935Y0030830D01*
X0395373Y0031476D01*
X0393683Y0031476D01*
X0395442Y0031448D02*
X0431615Y0031448D01*
X0431615Y0030449D02*
X0397315Y0030449D01*
X0398206Y0029451D02*
X0431615Y0029451D01*
X0431615Y0028452D02*
X0398619Y0028452D01*
X0398776Y0027454D02*
X0431615Y0027454D01*
X0431615Y0026455D02*
X0398776Y0026455D01*
X0398393Y0025457D02*
X0431615Y0025457D01*
X0431615Y0024458D02*
X0397766Y0024458D01*
X0396531Y0023460D02*
X0431615Y0023460D01*
X0431615Y0022461D02*
X0324115Y0022461D01*
X0324115Y0021463D02*
X0431615Y0021463D01*
X0431615Y0020464D02*
X0324115Y0020464D01*
X0324115Y0019466D02*
X0431615Y0019466D01*
X0431615Y0018467D02*
X0324115Y0018467D01*
X0324115Y0017469D02*
X0431615Y0017469D01*
X0431615Y0016470D02*
X0324115Y0016470D01*
X0324115Y0015472D02*
X0431615Y0015472D01*
X0392526Y0023460D02*
X0376531Y0023460D01*
X0377766Y0024458D02*
X0391291Y0024458D01*
X0390664Y0025457D02*
X0378393Y0025457D01*
X0378776Y0026455D02*
X0390280Y0026455D01*
X0390280Y0027454D02*
X0378776Y0027454D01*
X0378619Y0028452D02*
X0390437Y0028452D01*
X0390851Y0029451D02*
X0378206Y0029451D01*
X0377315Y0030449D02*
X0391742Y0030449D01*
X0392562Y0033445D02*
X0376495Y0033445D01*
X0377751Y0034443D02*
X0391306Y0034443D01*
X0390670Y0035442D02*
X0378386Y0035442D01*
X0378776Y0036440D02*
X0390280Y0036440D01*
X0390280Y0037439D02*
X0378776Y0037439D01*
X0378626Y0038437D02*
X0390431Y0038437D01*
X0390845Y0039436D02*
X0378212Y0039436D01*
X0377330Y0040434D02*
X0391727Y0040434D01*
X0392598Y0043430D02*
X0376459Y0043430D01*
X0377736Y0044429D02*
X0391321Y0044429D01*
X0390676Y0045427D02*
X0378380Y0045427D01*
X0378776Y0046426D02*
X0390280Y0046426D01*
X0390280Y0047424D02*
X0378776Y0047424D01*
X0378632Y0048423D02*
X0390425Y0048423D01*
X0390839Y0049421D02*
X0378218Y0049421D01*
X0377345Y0050420D02*
X0391712Y0050420D01*
X0371727Y0040434D02*
X0324115Y0040434D01*
X0324115Y0039436D02*
X0370845Y0039436D01*
X0370431Y0038437D02*
X0324115Y0038437D01*
X0324115Y0037439D02*
X0370280Y0037439D01*
X0370280Y0036440D02*
X0324115Y0036440D01*
X0324115Y0035442D02*
X0370670Y0035442D01*
X0371306Y0034443D02*
X0324115Y0034443D01*
X0324115Y0033445D02*
X0372562Y0033445D01*
X0371742Y0030449D02*
X0324115Y0030449D01*
X0324115Y0029451D02*
X0370851Y0029451D01*
X0370437Y0028452D02*
X0324115Y0028452D01*
X0324115Y0027454D02*
X0370280Y0027454D01*
X0370280Y0026455D02*
X0324115Y0026455D01*
X0324115Y0025457D02*
X0370664Y0025457D01*
X0371291Y0024458D02*
X0324115Y0024458D01*
X0324115Y0023460D02*
X0372526Y0023460D01*
X0340888Y0060405D02*
X0431615Y0060405D01*
X0431055Y0061403D02*
X0342175Y0061403D01*
X0342783Y0062402D02*
X0430447Y0062402D01*
X0430115Y0063400D02*
X0343115Y0063400D01*
X0343115Y0064399D02*
X0430115Y0064399D01*
X0430364Y0065397D02*
X0342866Y0065397D01*
X0342376Y0066396D02*
X0430854Y0066396D01*
X0431615Y0067394D02*
X0341373Y0067394D01*
X0352620Y0082372D02*
X0431615Y0082372D01*
X0431615Y0083370D02*
X0353516Y0083370D01*
X0354090Y0084369D02*
X0431615Y0084369D01*
X0436615Y0094000D02*
X0443072Y0087543D01*
X0443072Y0060457D01*
X0450099Y0053429D01*
X0450099Y0053173D01*
X0443072Y0060457D02*
X0442599Y0060929D01*
X0441615Y0060929D01*
X0441615Y0061500D01*
X0444115Y0064000D01*
X0431615Y0101344D02*
X0350226Y0101344D01*
X0348004Y0101344D02*
X0324115Y0101344D01*
X0324115Y0102342D02*
X0346348Y0102342D01*
X0345345Y0103341D02*
X0324115Y0103341D01*
X0324115Y0104339D02*
X0344706Y0104339D01*
X0344293Y0105338D02*
X0324115Y0105338D01*
X0324115Y0100345D02*
X0346030Y0100345D01*
X0345032Y0099347D02*
X0324115Y0099347D01*
X0324115Y0098348D02*
X0344577Y0098348D01*
X0344215Y0097350D02*
X0324115Y0097350D01*
X0324115Y0096351D02*
X0344215Y0096351D01*
X0344286Y0095353D02*
X0324115Y0095353D01*
X0324115Y0094354D02*
X0344700Y0094354D01*
X0345330Y0093356D02*
X0324115Y0093356D01*
X0324115Y0092357D02*
X0346328Y0092357D01*
X0346756Y0091359D02*
X0324115Y0091359D01*
X0324115Y0090360D02*
X0345338Y0090360D01*
X0344519Y0089362D02*
X0324115Y0089362D01*
X0324115Y0088363D02*
X0344042Y0088363D01*
X0343785Y0087365D02*
X0324115Y0087365D01*
X0304115Y0088363D02*
X0176615Y0088363D01*
X0176615Y0087365D02*
X0303050Y0087365D01*
X0302291Y0086366D02*
X0176615Y0086366D01*
X0176615Y0085368D02*
X0301878Y0085368D01*
X0301715Y0084369D02*
X0176615Y0084369D01*
X0176615Y0083370D02*
X0301715Y0083370D01*
X0301986Y0082372D02*
X0176615Y0082372D01*
X0176615Y0081373D02*
X0302399Y0081373D01*
X0303310Y0080375D02*
X0243563Y0080375D01*
X0243965Y0079973D02*
X0242588Y0081350D01*
X0240642Y0081350D01*
X0239265Y0079973D01*
X0239265Y0078027D01*
X0240642Y0076650D01*
X0242588Y0076650D01*
X0243965Y0078027D01*
X0243965Y0079973D01*
X0243965Y0079376D02*
X0304115Y0079376D01*
X0304115Y0078378D02*
X0243965Y0078378D01*
X0243318Y0077379D02*
X0304115Y0077379D01*
X0304115Y0076381D02*
X0176615Y0076381D01*
X0176615Y0077379D02*
X0239912Y0077379D01*
X0239265Y0078378D02*
X0176615Y0078378D01*
X0176615Y0079376D02*
X0239265Y0079376D01*
X0239667Y0080375D02*
X0176615Y0080375D01*
X0175615Y0080375D02*
X0179115Y0080375D01*
X0179115Y0081373D02*
X0175615Y0081373D01*
X0175615Y0082372D02*
X0179115Y0082372D01*
X0179115Y0083370D02*
X0175615Y0083370D01*
X0175615Y0084369D02*
X0179115Y0084369D01*
X0179115Y0085368D02*
X0175615Y0085368D01*
X0175615Y0086366D02*
X0179115Y0086366D01*
X0179115Y0087365D02*
X0175615Y0087365D01*
X0175615Y0088363D02*
X0179115Y0088363D01*
X0179115Y0089362D02*
X0175615Y0089362D01*
X0175615Y0090360D02*
X0179115Y0090360D01*
X0179115Y0091359D02*
X0175615Y0091359D01*
X0175615Y0092357D02*
X0179115Y0092357D01*
X0179115Y0093356D02*
X0175615Y0093356D01*
X0175615Y0094354D02*
X0179115Y0094354D01*
X0179115Y0095353D02*
X0175615Y0095353D01*
X0175615Y0096351D02*
X0179115Y0096351D01*
X0179115Y0097350D02*
X0175615Y0097350D01*
X0175615Y0098348D02*
X0179115Y0098348D01*
X0179115Y0099347D02*
X0175615Y0099347D01*
X0175615Y0100345D02*
X0179115Y0100345D01*
X0179115Y0101344D02*
X0175615Y0101344D01*
X0175615Y0102342D02*
X0179115Y0102342D01*
X0179115Y0103341D02*
X0175615Y0103341D01*
X0175615Y0104339D02*
X0179115Y0104339D01*
X0179115Y0105338D02*
X0175615Y0105338D01*
X0175615Y0106336D02*
X0179115Y0106336D01*
X0179115Y0107335D02*
X0175615Y0107335D01*
X0175615Y0108333D02*
X0179115Y0108333D01*
X0179115Y0109332D02*
X0175615Y0109332D01*
X0175615Y0110330D02*
X0179115Y0110330D01*
X0179115Y0111329D02*
X0175615Y0111329D01*
X0175615Y0112327D02*
X0179115Y0112327D01*
X0179115Y0113326D02*
X0175615Y0113326D01*
X0175615Y0114324D02*
X0179115Y0114324D01*
X0179115Y0115323D02*
X0175615Y0115323D01*
X0175615Y0116321D02*
X0179115Y0116321D01*
X0179115Y0117320D02*
X0175615Y0117320D01*
X0175615Y0118318D02*
X0179115Y0118318D01*
X0179115Y0119317D02*
X0175615Y0119317D01*
X0175615Y0120315D02*
X0179115Y0120315D01*
X0179115Y0121314D02*
X0175615Y0121314D01*
X0175615Y0122312D02*
X0179115Y0122312D01*
X0179115Y0123311D02*
X0175615Y0123311D01*
X0175615Y0124309D02*
X0179115Y0124309D01*
X0179115Y0125308D02*
X0175615Y0125308D01*
X0176615Y0125308D02*
X0194521Y0125308D01*
X0194521Y0125271D02*
X0195897Y0123894D01*
X0197844Y0123894D01*
X0199221Y0125271D01*
X0199221Y0127217D01*
X0197844Y0128594D01*
X0195897Y0128594D01*
X0194521Y0127217D01*
X0194521Y0125271D01*
X0194521Y0126306D02*
X0176615Y0126306D01*
X0176043Y0126306D02*
X0179115Y0126306D01*
X0179115Y0127305D02*
X0177041Y0127305D01*
X0194608Y0127305D01*
X0195607Y0128303D02*
X0178040Y0128303D01*
X0179115Y0128303D01*
X0179115Y0129302D02*
X0179038Y0129302D01*
X0304115Y0129302D01*
X0304115Y0130301D02*
X0180037Y0130301D01*
X0181035Y0131299D02*
X0304115Y0131299D01*
X0304115Y0132298D02*
X0182034Y0132298D01*
X0183032Y0133296D02*
X0304115Y0133296D01*
X0304115Y0134295D02*
X0184031Y0134295D01*
X0185029Y0135293D02*
X0304115Y0135293D01*
X0304115Y0136292D02*
X0186028Y0136292D01*
X0187026Y0137290D02*
X0289549Y0137290D01*
X0289048Y0137790D02*
X0290425Y0136414D01*
X0292372Y0136414D01*
X0293748Y0137790D01*
X0293748Y0139737D01*
X0292372Y0141114D01*
X0290425Y0141114D01*
X0289048Y0139737D01*
X0289048Y0137790D01*
X0289048Y0138289D02*
X0200310Y0138289D01*
X0199931Y0137910D02*
X0201307Y0139286D01*
X0201307Y0141233D01*
X0199931Y0142610D01*
X0197984Y0142610D01*
X0196607Y0141233D01*
X0196607Y0139286D01*
X0197984Y0137910D01*
X0199931Y0137910D01*
X0200335Y0137529D02*
X0200685Y0137674D01*
X0201543Y0138532D01*
X0202007Y0139653D01*
X0202007Y0140867D01*
X0201543Y0141988D01*
X0200685Y0142845D01*
X0200335Y0142990D01*
X0200335Y0144564D01*
X0201000Y0144840D01*
X0201858Y0145698D01*
X0202322Y0146819D01*
X0202322Y0148032D01*
X0201858Y0149153D01*
X0201000Y0150011D01*
X0200335Y0150286D01*
X0200335Y0157167D01*
X0200677Y0157509D01*
X0201141Y0158630D01*
X0201141Y0159843D01*
X0200677Y0160964D01*
X0200335Y0161305D01*
X0200335Y0193882D01*
X0292580Y0193882D01*
X0292580Y0141576D01*
X0292005Y0141814D01*
X0290792Y0141814D01*
X0289671Y0141349D01*
X0288813Y0140491D01*
X0288348Y0139370D01*
X0288348Y0138157D01*
X0288813Y0137036D01*
X0289671Y0136178D01*
X0290792Y0135714D01*
X0292005Y0135714D01*
X0292580Y0135952D01*
X0292580Y0092701D01*
X0200335Y0092701D01*
X0200335Y0103729D01*
X0201008Y0103450D01*
X0202222Y0103450D01*
X0203343Y0103914D01*
X0204201Y0104772D01*
X0204665Y0105893D01*
X0204665Y0107107D01*
X0204201Y0108228D01*
X0203343Y0109086D01*
X0202222Y0109550D01*
X0201008Y0109550D01*
X0200335Y0109271D01*
X0200335Y0137529D01*
X0200335Y0137290D02*
X0288708Y0137290D01*
X0288348Y0138289D02*
X0201300Y0138289D01*
X0201307Y0139287D02*
X0289048Y0139287D01*
X0288348Y0139287D02*
X0201856Y0139287D01*
X0202007Y0140286D02*
X0288728Y0140286D01*
X0289597Y0140286D02*
X0201307Y0140286D01*
X0201257Y0141284D02*
X0304115Y0141284D01*
X0304115Y0140286D02*
X0293200Y0140286D01*
X0293748Y0139287D02*
X0304115Y0139287D01*
X0304115Y0138289D02*
X0293748Y0138289D01*
X0293248Y0137290D02*
X0304115Y0137290D01*
X0304115Y0142283D02*
X0200258Y0142283D01*
X0201248Y0142283D02*
X0292580Y0142283D01*
X0292580Y0143281D02*
X0200335Y0143281D01*
X0200335Y0144280D02*
X0292580Y0144280D01*
X0292580Y0145278D02*
X0201439Y0145278D01*
X0200449Y0145278D02*
X0304115Y0145278D01*
X0304115Y0144280D02*
X0188115Y0144280D01*
X0188115Y0145278D02*
X0198096Y0145278D01*
X0198299Y0145075D02*
X0200246Y0145075D01*
X0201622Y0146452D01*
X0201622Y0148399D01*
X0200246Y0149775D01*
X0198299Y0149775D01*
X0196922Y0148399D01*
X0196922Y0146452D01*
X0198299Y0145075D01*
X0197098Y0146277D02*
X0188115Y0146277D01*
X0188115Y0147275D02*
X0196922Y0147275D01*
X0196922Y0148274D02*
X0188115Y0148274D01*
X0188115Y0149272D02*
X0197796Y0149272D01*
X0200373Y0150271D02*
X0265715Y0150271D01*
X0266214Y0150389D02*
X0267590Y0149012D01*
X0269537Y0149012D01*
X0270914Y0150389D01*
X0270914Y0152336D01*
X0269537Y0153712D01*
X0267590Y0153712D01*
X0266214Y0152336D01*
X0266214Y0150389D01*
X0266332Y0150271D02*
X0188115Y0150271D01*
X0188115Y0151269D02*
X0266214Y0151269D01*
X0265514Y0151269D02*
X0200335Y0151269D01*
X0200335Y0152268D02*
X0265638Y0152268D01*
X0265514Y0151969D02*
X0265514Y0150756D01*
X0265978Y0149635D01*
X0266836Y0148777D01*
X0267957Y0148312D01*
X0269170Y0148312D01*
X0270291Y0148777D01*
X0271149Y0149635D01*
X0271614Y0150756D01*
X0271614Y0151969D01*
X0271149Y0153090D01*
X0270291Y0153948D01*
X0269170Y0154412D01*
X0267957Y0154412D01*
X0266836Y0153948D01*
X0265978Y0153090D01*
X0265514Y0151969D01*
X0266214Y0152268D02*
X0188115Y0152268D01*
X0188115Y0153266D02*
X0267144Y0153266D01*
X0266155Y0153266D02*
X0200335Y0153266D01*
X0200335Y0154265D02*
X0267601Y0154265D01*
X0269526Y0154265D02*
X0292580Y0154265D01*
X0292580Y0155263D02*
X0200335Y0155263D01*
X0200335Y0156262D02*
X0292580Y0156262D01*
X0292580Y0157260D02*
X0200429Y0157260D01*
X0199439Y0157260D02*
X0304115Y0157260D01*
X0304115Y0156262D02*
X0188115Y0156262D01*
X0188115Y0157260D02*
X0196744Y0157260D01*
X0197118Y0156886D02*
X0199065Y0156886D01*
X0200441Y0158263D01*
X0200441Y0160210D01*
X0199065Y0161586D01*
X0197118Y0161586D01*
X0195741Y0160210D01*
X0195741Y0158263D01*
X0197118Y0156886D01*
X0195745Y0158259D02*
X0188115Y0158259D01*
X0188115Y0159257D02*
X0195741Y0159257D01*
X0195788Y0160256D02*
X0188115Y0160256D01*
X0188115Y0161254D02*
X0196786Y0161254D01*
X0199397Y0161254D02*
X0223694Y0161254D01*
X0223694Y0161784D02*
X0223694Y0159838D01*
X0225071Y0158461D01*
X0227017Y0158461D01*
X0228394Y0159838D01*
X0228394Y0161784D01*
X0227017Y0163161D01*
X0225071Y0163161D01*
X0223694Y0161784D01*
X0223340Y0162253D02*
X0200335Y0162253D01*
X0200335Y0163251D02*
X0224171Y0163251D01*
X0224316Y0163397D02*
X0223458Y0162539D01*
X0222994Y0161418D01*
X0222994Y0160204D01*
X0223458Y0159083D01*
X0224316Y0158225D01*
X0225437Y0157761D01*
X0226651Y0157761D01*
X0227772Y0158225D01*
X0228630Y0159083D01*
X0229083Y0160177D01*
X0230162Y0159730D01*
X0231375Y0159730D01*
X0232496Y0160194D01*
X0233354Y0161052D01*
X0233818Y0162173D01*
X0233818Y0163386D01*
X0233354Y0164507D01*
X0232496Y0165365D01*
X0231375Y0165830D01*
X0230162Y0165830D01*
X0229041Y0165365D01*
X0228183Y0164507D01*
X0227730Y0163414D01*
X0226651Y0163861D01*
X0225437Y0163861D01*
X0224316Y0163397D01*
X0224163Y0162253D02*
X0188115Y0162253D01*
X0188115Y0163251D02*
X0228419Y0163251D01*
X0228419Y0163753D02*
X0228419Y0161806D01*
X0229795Y0160430D01*
X0231742Y0160430D01*
X0233118Y0161806D01*
X0233118Y0163753D01*
X0231742Y0165130D01*
X0229795Y0165130D01*
X0228419Y0163753D01*
X0228076Y0164250D02*
X0200335Y0164250D01*
X0200335Y0165248D02*
X0228924Y0165248D01*
X0228915Y0164250D02*
X0188115Y0164250D01*
X0188115Y0165248D02*
X0294281Y0165248D01*
X0294449Y0165654D02*
X0293703Y0163853D01*
X0293703Y0161903D01*
X0294449Y0160102D01*
X0295828Y0158724D01*
X0297628Y0157978D01*
X0299578Y0157978D01*
X0301379Y0158724D01*
X0302757Y0160102D01*
X0303503Y0161903D01*
X0303503Y0163853D01*
X0302757Y0165654D01*
X0301379Y0167032D01*
X0299578Y0167778D01*
X0297628Y0167778D01*
X0295828Y0167032D01*
X0294449Y0165654D01*
X0295042Y0166247D02*
X0188115Y0166247D01*
X0188115Y0167245D02*
X0296343Y0167245D01*
X0292580Y0167245D02*
X0200335Y0167245D01*
X0200335Y0166247D02*
X0292580Y0166247D01*
X0292580Y0165248D02*
X0232613Y0165248D01*
X0232622Y0164250D02*
X0293868Y0164250D01*
X0293703Y0163251D02*
X0233118Y0163251D01*
X0233818Y0163251D02*
X0292580Y0163251D01*
X0292580Y0162253D02*
X0233818Y0162253D01*
X0233118Y0162253D02*
X0293703Y0162253D01*
X0293972Y0161254D02*
X0232567Y0161254D01*
X0233438Y0161254D02*
X0292580Y0161254D01*
X0292580Y0160256D02*
X0232558Y0160256D01*
X0228970Y0161254D02*
X0228394Y0161254D01*
X0228394Y0160256D02*
X0294386Y0160256D01*
X0295294Y0159257D02*
X0227814Y0159257D01*
X0228702Y0159257D02*
X0292580Y0159257D01*
X0292580Y0158259D02*
X0227805Y0158259D01*
X0224283Y0158259D02*
X0200988Y0158259D01*
X0200437Y0158259D02*
X0296950Y0158259D01*
X0300256Y0158259D02*
X0304115Y0158259D01*
X0304115Y0159257D02*
X0301912Y0159257D01*
X0302821Y0160256D02*
X0304115Y0160256D01*
X0304115Y0161254D02*
X0303234Y0161254D01*
X0303503Y0162253D02*
X0304115Y0162253D01*
X0304115Y0163251D02*
X0303503Y0163251D01*
X0303339Y0164250D02*
X0304115Y0164250D01*
X0304115Y0165248D02*
X0302925Y0165248D01*
X0302164Y0166247D02*
X0304115Y0166247D01*
X0304115Y0167245D02*
X0300863Y0167245D01*
X0304115Y0168244D02*
X0188115Y0168244D01*
X0188115Y0169242D02*
X0304115Y0169242D01*
X0304115Y0170241D02*
X0232498Y0170241D01*
X0233354Y0170107D02*
X0233818Y0171228D01*
X0233818Y0172441D01*
X0233354Y0173562D01*
X0232496Y0174420D01*
X0231375Y0174885D01*
X0230162Y0174885D01*
X0229041Y0174420D01*
X0228183Y0173562D01*
X0227719Y0172441D01*
X0227719Y0171228D01*
X0228183Y0170107D01*
X0229041Y0169249D01*
X0230162Y0168785D01*
X0231375Y0168785D01*
X0232496Y0169249D01*
X0233354Y0170107D01*
X0233410Y0170241D02*
X0292580Y0170241D01*
X0292580Y0171239D02*
X0233818Y0171239D01*
X0233118Y0171239D02*
X0304115Y0171239D01*
X0304115Y0172238D02*
X0233118Y0172238D01*
X0233118Y0172808D02*
X0231742Y0174185D01*
X0229795Y0174185D01*
X0228419Y0172808D01*
X0228419Y0170861D01*
X0229795Y0169485D01*
X0231742Y0169485D01*
X0233118Y0170861D01*
X0233118Y0172808D01*
X0233489Y0173237D02*
X0292580Y0173237D01*
X0292580Y0174235D02*
X0232681Y0174235D01*
X0232690Y0173237D02*
X0304115Y0173237D01*
X0304115Y0174235D02*
X0226426Y0174235D01*
X0226426Y0174383D02*
X0225049Y0175759D01*
X0223102Y0175759D01*
X0221726Y0174383D01*
X0221726Y0172436D01*
X0223102Y0171059D01*
X0225049Y0171059D01*
X0226426Y0172436D01*
X0226426Y0174383D01*
X0227035Y0174235D02*
X0228856Y0174235D01*
X0228847Y0173237D02*
X0226426Y0173237D01*
X0227126Y0173237D02*
X0228048Y0173237D01*
X0227126Y0172803D02*
X0226661Y0171682D01*
X0225803Y0170824D01*
X0224682Y0170359D01*
X0223469Y0170359D01*
X0222348Y0170824D01*
X0221490Y0171682D01*
X0221026Y0172803D01*
X0221026Y0174016D01*
X0221490Y0175137D01*
X0222348Y0175995D01*
X0223469Y0176459D01*
X0224682Y0176459D01*
X0225803Y0175995D01*
X0226661Y0175137D01*
X0227126Y0174016D01*
X0227126Y0172803D01*
X0226892Y0172238D02*
X0227719Y0172238D01*
X0228419Y0172238D02*
X0226228Y0172238D01*
X0226219Y0171239D02*
X0227719Y0171239D01*
X0228419Y0171239D02*
X0225229Y0171239D01*
X0222922Y0171239D02*
X0188115Y0171239D01*
X0188115Y0170241D02*
X0229039Y0170241D01*
X0228127Y0170241D02*
X0200335Y0170241D01*
X0200335Y0171239D02*
X0221932Y0171239D01*
X0221924Y0172238D02*
X0188115Y0172238D01*
X0188115Y0173237D02*
X0221726Y0173237D01*
X0221026Y0173237D02*
X0200335Y0173237D01*
X0200335Y0174235D02*
X0221116Y0174235D01*
X0221726Y0174235D02*
X0188115Y0174235D01*
X0188115Y0175234D02*
X0222576Y0175234D01*
X0221586Y0175234D02*
X0200335Y0175234D01*
X0200335Y0176232D02*
X0222920Y0176232D01*
X0225231Y0176232D02*
X0292580Y0176232D01*
X0292580Y0175234D02*
X0226565Y0175234D01*
X0225575Y0175234D02*
X0304115Y0175234D01*
X0304115Y0176232D02*
X0188115Y0176232D01*
X0188115Y0177231D02*
X0304115Y0177231D01*
X0304115Y0178229D02*
X0188115Y0178229D01*
X0188115Y0179228D02*
X0304115Y0179228D01*
X0304115Y0180226D02*
X0188115Y0180226D01*
X0188115Y0181225D02*
X0304115Y0181225D01*
X0304115Y0182223D02*
X0268890Y0182223D01*
X0268750Y0182083D02*
X0270126Y0183460D01*
X0270126Y0185406D01*
X0268750Y0186783D01*
X0266803Y0186783D01*
X0265426Y0185406D01*
X0265426Y0183460D01*
X0266803Y0182083D01*
X0268750Y0182083D01*
X0269504Y0181847D02*
X0270362Y0182705D01*
X0270826Y0183826D01*
X0270826Y0185040D01*
X0270362Y0186161D01*
X0269504Y0187019D01*
X0268383Y0187483D01*
X0267170Y0187483D01*
X0266049Y0187019D01*
X0265191Y0186161D01*
X0264726Y0185040D01*
X0264726Y0183826D01*
X0265191Y0182705D01*
X0266049Y0181847D01*
X0267170Y0181383D01*
X0268383Y0181383D01*
X0269504Y0181847D01*
X0269880Y0182223D02*
X0292580Y0182223D01*
X0292580Y0181225D02*
X0200335Y0181225D01*
X0200335Y0182223D02*
X0265673Y0182223D01*
X0266663Y0182223D02*
X0188115Y0182223D01*
X0188115Y0183222D02*
X0265664Y0183222D01*
X0264977Y0183222D02*
X0200335Y0183222D01*
X0200335Y0184220D02*
X0264726Y0184220D01*
X0265426Y0184220D02*
X0188115Y0184220D01*
X0188115Y0185219D02*
X0265426Y0185219D01*
X0264800Y0185219D02*
X0240742Y0185219D01*
X0241158Y0185391D02*
X0242016Y0186249D01*
X0242480Y0187370D01*
X0242480Y0188583D01*
X0242016Y0189704D01*
X0241158Y0190562D01*
X0240037Y0191026D01*
X0238823Y0191026D01*
X0237702Y0190562D01*
X0236844Y0189704D01*
X0236380Y0188583D01*
X0236380Y0187370D01*
X0236844Y0186249D01*
X0237702Y0185391D01*
X0238823Y0184926D01*
X0240037Y0184926D01*
X0241158Y0185391D01*
X0240403Y0185626D02*
X0241780Y0187003D01*
X0241780Y0188950D01*
X0240403Y0190326D01*
X0238457Y0190326D01*
X0237080Y0188950D01*
X0237080Y0187003D01*
X0238457Y0185626D01*
X0240403Y0185626D01*
X0240994Y0186217D02*
X0266237Y0186217D01*
X0265247Y0186217D02*
X0252867Y0186217D01*
X0252588Y0186650D02*
X0253965Y0188027D01*
X0253965Y0189973D01*
X0252588Y0191350D01*
X0250642Y0191350D01*
X0249265Y0189973D01*
X0249265Y0188027D01*
X0250642Y0186650D01*
X0252588Y0186650D01*
X0252222Y0185950D02*
X0253343Y0186414D01*
X0254201Y0187272D01*
X0254665Y0188393D01*
X0254665Y0189607D01*
X0254201Y0190728D01*
X0253343Y0191586D01*
X0252222Y0192050D01*
X0251008Y0192050D01*
X0249887Y0191586D01*
X0249029Y0190728D01*
X0248565Y0189607D01*
X0248565Y0188393D01*
X0249029Y0187272D01*
X0249887Y0186414D01*
X0251008Y0185950D01*
X0252222Y0185950D01*
X0253154Y0187216D02*
X0276056Y0187216D01*
X0276056Y0186609D02*
X0276056Y0188556D01*
X0277433Y0189933D01*
X0279380Y0189933D01*
X0280756Y0188556D01*
X0280756Y0186609D01*
X0279380Y0185233D01*
X0277433Y0185233D01*
X0276056Y0186609D01*
X0275671Y0186217D02*
X0270306Y0186217D01*
X0269316Y0186217D02*
X0276448Y0186217D01*
X0275821Y0185855D02*
X0276679Y0184997D01*
X0277800Y0184533D01*
X0279013Y0184533D01*
X0280134Y0184997D01*
X0280992Y0185855D01*
X0281456Y0186976D01*
X0281456Y0188189D01*
X0280992Y0189310D01*
X0280134Y0190168D01*
X0279013Y0190633D01*
X0277800Y0190633D01*
X0276679Y0190168D01*
X0275821Y0189310D01*
X0275356Y0188189D01*
X0275356Y0186976D01*
X0275821Y0185855D01*
X0276457Y0185219D02*
X0270752Y0185219D01*
X0270126Y0185219D02*
X0304115Y0185219D01*
X0304115Y0186217D02*
X0280364Y0186217D01*
X0281142Y0186217D02*
X0292580Y0186217D01*
X0292580Y0185219D02*
X0280356Y0185219D01*
X0280756Y0187216D02*
X0304115Y0187216D01*
X0304115Y0188214D02*
X0280756Y0188214D01*
X0281446Y0188214D02*
X0292580Y0188214D01*
X0292580Y0187216D02*
X0281456Y0187216D01*
X0281032Y0189213D02*
X0292580Y0189213D01*
X0292580Y0190211D02*
X0280030Y0190211D01*
X0280100Y0189213D02*
X0304115Y0189213D01*
X0304115Y0190211D02*
X0253727Y0190211D01*
X0254415Y0190211D02*
X0276782Y0190211D01*
X0276713Y0189213D02*
X0253965Y0189213D01*
X0254665Y0189213D02*
X0275780Y0189213D01*
X0276056Y0188214D02*
X0253965Y0188214D01*
X0254591Y0188214D02*
X0275367Y0188214D01*
X0275356Y0187216D02*
X0269029Y0187216D01*
X0270139Y0188370D02*
X0271713Y0186795D01*
X0272501Y0186795D01*
X0289036Y0170260D01*
X0289036Y0144669D01*
X0289036Y0132071D01*
X0289036Y0126500D01*
X0284036Y0121500D01*
X0279115Y0121500D01*
X0272501Y0114886D01*
X0272501Y0103724D01*
X0268858Y0103150D02*
X0268394Y0104271D01*
X0267536Y0105129D01*
X0266415Y0105593D01*
X0265201Y0105593D01*
X0264080Y0105129D01*
X0263222Y0104271D01*
X0262758Y0103150D01*
X0262758Y0101937D01*
X0263222Y0100816D01*
X0264080Y0099958D01*
X0265201Y0099493D01*
X0266415Y0099493D01*
X0267536Y0099958D01*
X0268394Y0100816D01*
X0268858Y0101937D01*
X0268858Y0103150D01*
X0268779Y0103341D02*
X0292580Y0103341D01*
X0292580Y0104339D02*
X0268325Y0104339D01*
X0268158Y0103517D02*
X0266781Y0104893D01*
X0264834Y0104893D01*
X0263458Y0103517D01*
X0263458Y0101570D01*
X0264834Y0100193D01*
X0266781Y0100193D01*
X0268158Y0101570D01*
X0268158Y0103517D01*
X0268158Y0103341D02*
X0301715Y0103341D01*
X0301715Y0104339D02*
X0267335Y0104339D01*
X0267032Y0105338D02*
X0292580Y0105338D01*
X0292580Y0106336D02*
X0204665Y0106336D01*
X0203965Y0106336D02*
X0302279Y0106336D01*
X0301865Y0105338D02*
X0203776Y0105338D01*
X0203965Y0105527D02*
X0202588Y0104150D01*
X0200642Y0104150D01*
X0199265Y0105527D01*
X0199265Y0107473D01*
X0200642Y0108850D01*
X0202588Y0108850D01*
X0203965Y0107473D01*
X0203965Y0105527D01*
X0204435Y0105338D02*
X0264584Y0105338D01*
X0264280Y0104339D02*
X0202778Y0104339D01*
X0203768Y0104339D02*
X0235499Y0104339D01*
X0235642Y0103850D02*
X0234265Y0102473D01*
X0234265Y0100527D01*
X0235642Y0099150D01*
X0237588Y0099150D01*
X0238965Y0100527D01*
X0238965Y0102473D01*
X0237588Y0103850D01*
X0235642Y0103850D01*
X0235132Y0103341D02*
X0176615Y0103341D01*
X0176615Y0104339D02*
X0200452Y0104339D01*
X0200335Y0103341D02*
X0234142Y0103341D01*
X0234029Y0103228D02*
X0233565Y0102107D01*
X0233565Y0100893D01*
X0234029Y0099772D01*
X0234802Y0099000D01*
X0234029Y0098228D01*
X0233565Y0097107D01*
X0233565Y0095893D01*
X0234029Y0094772D01*
X0234887Y0093914D01*
X0236008Y0093450D01*
X0237222Y0093450D01*
X0238343Y0093914D01*
X0239201Y0094772D01*
X0239665Y0095893D01*
X0239665Y0097107D01*
X0239201Y0098228D01*
X0238428Y0099000D01*
X0239201Y0099772D01*
X0239665Y0100893D01*
X0239665Y0102107D01*
X0239201Y0103228D01*
X0238343Y0104086D01*
X0237222Y0104550D01*
X0236008Y0104550D01*
X0234887Y0104086D01*
X0234029Y0103228D01*
X0234265Y0102342D02*
X0176615Y0102342D01*
X0176615Y0101344D02*
X0234265Y0101344D01*
X0233565Y0101344D02*
X0200335Y0101344D01*
X0200335Y0102342D02*
X0233663Y0102342D01*
X0233792Y0100345D02*
X0200335Y0100345D01*
X0200335Y0099347D02*
X0234455Y0099347D01*
X0235445Y0099347D02*
X0176615Y0099347D01*
X0176615Y0100345D02*
X0234446Y0100345D01*
X0235642Y0098850D02*
X0234265Y0097473D01*
X0234265Y0095527D01*
X0235642Y0094150D01*
X0237588Y0094150D01*
X0238965Y0095527D01*
X0238965Y0097473D01*
X0237588Y0098850D01*
X0235642Y0098850D01*
X0235140Y0098348D02*
X0176615Y0098348D01*
X0176615Y0097350D02*
X0234265Y0097350D01*
X0233666Y0097350D02*
X0200335Y0097350D01*
X0200335Y0098348D02*
X0234150Y0098348D01*
X0234265Y0096351D02*
X0176615Y0096351D01*
X0176615Y0095353D02*
X0234439Y0095353D01*
X0233789Y0095353D02*
X0200335Y0095353D01*
X0200335Y0096351D02*
X0233565Y0096351D01*
X0234447Y0094354D02*
X0200335Y0094354D01*
X0200335Y0093356D02*
X0292580Y0093356D01*
X0292580Y0094354D02*
X0238782Y0094354D01*
X0237792Y0094354D02*
X0301715Y0094354D01*
X0301715Y0093356D02*
X0176615Y0093356D01*
X0176615Y0094354D02*
X0235437Y0094354D01*
X0238791Y0095353D02*
X0301872Y0095353D01*
X0302285Y0096351D02*
X0238965Y0096351D01*
X0239665Y0096351D02*
X0292580Y0096351D01*
X0292580Y0095353D02*
X0239441Y0095353D01*
X0239564Y0097350D02*
X0292580Y0097350D01*
X0292580Y0098348D02*
X0239080Y0098348D01*
X0238090Y0098348D02*
X0304115Y0098348D01*
X0304115Y0099347D02*
X0237785Y0099347D01*
X0238775Y0099347D02*
X0292580Y0099347D01*
X0292580Y0100345D02*
X0267923Y0100345D01*
X0266933Y0100345D02*
X0303340Y0100345D01*
X0302412Y0101344D02*
X0267932Y0101344D01*
X0268612Y0101344D02*
X0292580Y0101344D01*
X0292580Y0102342D02*
X0268858Y0102342D01*
X0268158Y0102342D02*
X0301998Y0102342D01*
X0303020Y0107335D02*
X0260931Y0107335D01*
X0260876Y0107280D02*
X0262252Y0108657D01*
X0262252Y0110603D01*
X0260876Y0111980D01*
X0258929Y0111980D01*
X0257737Y0110788D01*
X0256545Y0111980D01*
X0254598Y0111980D01*
X0253222Y0110603D01*
X0253222Y0108657D01*
X0254598Y0107280D01*
X0256545Y0107280D01*
X0257737Y0108472D01*
X0258929Y0107280D01*
X0260876Y0107280D01*
X0261630Y0107044D02*
X0262488Y0107902D01*
X0262952Y0109023D01*
X0262952Y0110237D01*
X0262488Y0111358D01*
X0261630Y0112216D01*
X0260509Y0112680D01*
X0259296Y0112680D01*
X0258175Y0112216D01*
X0257737Y0111778D01*
X0257299Y0112216D01*
X0256178Y0112680D01*
X0254965Y0112680D01*
X0253844Y0112216D01*
X0252986Y0111358D01*
X0252522Y0110237D01*
X0252522Y0109023D01*
X0252986Y0107902D01*
X0253844Y0107044D01*
X0254965Y0106580D01*
X0256178Y0106580D01*
X0257299Y0107044D01*
X0257737Y0107482D01*
X0258175Y0107044D01*
X0259296Y0106580D01*
X0260509Y0106580D01*
X0261630Y0107044D01*
X0261921Y0107335D02*
X0292580Y0107335D01*
X0292580Y0108333D02*
X0262667Y0108333D01*
X0261929Y0108333D02*
X0304115Y0108333D01*
X0304115Y0109332D02*
X0262252Y0109332D01*
X0262952Y0109332D02*
X0281210Y0109332D01*
X0281343Y0109277D02*
X0282556Y0109277D01*
X0283677Y0109741D01*
X0284535Y0110599D01*
X0285000Y0111720D01*
X0285000Y0112933D01*
X0284535Y0114054D01*
X0283677Y0114912D01*
X0282556Y0115377D01*
X0281343Y0115377D01*
X0280222Y0114912D01*
X0279364Y0114054D01*
X0278900Y0112933D01*
X0278900Y0111720D01*
X0279364Y0110599D01*
X0280222Y0109741D01*
X0281343Y0109277D01*
X0280976Y0109977D02*
X0282923Y0109977D01*
X0284300Y0111353D01*
X0284300Y0113300D01*
X0282923Y0114677D01*
X0280976Y0114677D01*
X0279600Y0113300D01*
X0279600Y0111353D01*
X0280976Y0109977D01*
X0280623Y0110330D02*
X0262252Y0110330D01*
X0262914Y0110330D02*
X0279633Y0110330D01*
X0279624Y0111329D02*
X0261527Y0111329D01*
X0262500Y0111329D02*
X0279062Y0111329D01*
X0278900Y0112327D02*
X0261360Y0112327D01*
X0258444Y0112327D02*
X0257030Y0112327D01*
X0257196Y0111329D02*
X0258278Y0111329D01*
X0254114Y0112327D02*
X0237074Y0112327D01*
X0237165Y0112107D02*
X0236701Y0113228D01*
X0235843Y0114086D01*
X0234722Y0114550D01*
X0233508Y0114550D01*
X0232387Y0114086D01*
X0231529Y0113228D01*
X0231065Y0112107D01*
X0231065Y0110893D01*
X0231529Y0109772D01*
X0232387Y0108914D01*
X0233508Y0108450D01*
X0234722Y0108450D01*
X0235843Y0108914D01*
X0236701Y0109772D01*
X0237165Y0110893D01*
X0237165Y0112107D01*
X0236465Y0112327D02*
X0279600Y0112327D01*
X0279625Y0113326D02*
X0235613Y0113326D01*
X0235088Y0113850D02*
X0236465Y0112473D01*
X0236465Y0110527D01*
X0235088Y0109150D01*
X0233142Y0109150D01*
X0231765Y0110527D01*
X0231765Y0112473D01*
X0233142Y0113850D01*
X0235088Y0113850D01*
X0235266Y0114324D02*
X0279634Y0114324D01*
X0280624Y0114324D02*
X0176615Y0114324D01*
X0176615Y0113326D02*
X0232617Y0113326D01*
X0231627Y0113326D02*
X0200335Y0113326D01*
X0200335Y0114324D02*
X0232963Y0114324D01*
X0231765Y0112327D02*
X0176615Y0112327D01*
X0176615Y0111329D02*
X0231765Y0111329D01*
X0231065Y0111329D02*
X0200335Y0111329D01*
X0200335Y0112327D02*
X0231156Y0112327D01*
X0231298Y0110330D02*
X0200335Y0110330D01*
X0200335Y0109332D02*
X0200481Y0109332D01*
X0200125Y0108333D02*
X0176615Y0108333D01*
X0176615Y0107335D02*
X0199265Y0107335D01*
X0199265Y0106336D02*
X0176615Y0106336D01*
X0176615Y0105338D02*
X0199454Y0105338D01*
X0203105Y0108333D02*
X0253545Y0108333D01*
X0252807Y0108333D02*
X0204095Y0108333D01*
X0203965Y0107335D02*
X0254543Y0107335D01*
X0253553Y0107335D02*
X0204570Y0107335D01*
X0202748Y0109332D02*
X0231970Y0109332D01*
X0232960Y0109332D02*
X0176615Y0109332D01*
X0176615Y0110330D02*
X0231961Y0110330D01*
X0235270Y0109332D02*
X0253222Y0109332D01*
X0252522Y0109332D02*
X0236260Y0109332D01*
X0236269Y0110330D02*
X0253222Y0110330D01*
X0252560Y0110330D02*
X0236932Y0110330D01*
X0237165Y0111329D02*
X0252974Y0111329D01*
X0253947Y0111329D02*
X0236465Y0111329D01*
X0236602Y0113326D02*
X0279062Y0113326D01*
X0281213Y0115323D02*
X0200335Y0115323D01*
X0200335Y0116321D02*
X0259134Y0116321D01*
X0259356Y0116099D02*
X0260477Y0115635D01*
X0261690Y0115635D01*
X0262811Y0116099D01*
X0263669Y0116957D01*
X0264133Y0118078D01*
X0264133Y0119292D01*
X0263669Y0120413D01*
X0262811Y0121271D01*
X0261690Y0121735D01*
X0260477Y0121735D01*
X0259356Y0121271D01*
X0258498Y0120413D01*
X0258033Y0119292D01*
X0258033Y0118078D01*
X0258498Y0116957D01*
X0259356Y0116099D01*
X0260110Y0116335D02*
X0262057Y0116335D01*
X0263433Y0117712D01*
X0263433Y0119658D01*
X0262057Y0121035D01*
X0260110Y0121035D01*
X0258733Y0119658D01*
X0258733Y0117712D01*
X0260110Y0116335D01*
X0259125Y0117320D02*
X0176615Y0117320D01*
X0176615Y0118318D02*
X0258733Y0118318D01*
X0258033Y0118318D02*
X0200335Y0118318D01*
X0200335Y0117320D02*
X0258348Y0117320D01*
X0258044Y0119317D02*
X0200335Y0119317D01*
X0200335Y0120315D02*
X0258457Y0120315D01*
X0259390Y0120315D02*
X0176615Y0120315D01*
X0176615Y0119317D02*
X0258733Y0119317D01*
X0259460Y0121314D02*
X0200335Y0121314D01*
X0200335Y0122312D02*
X0292580Y0122312D01*
X0292580Y0121314D02*
X0262707Y0121314D01*
X0262776Y0120315D02*
X0304115Y0120315D01*
X0304115Y0119317D02*
X0263433Y0119317D01*
X0264123Y0119317D02*
X0292580Y0119317D01*
X0292580Y0120315D02*
X0263709Y0120315D01*
X0263433Y0118318D02*
X0304115Y0118318D01*
X0304115Y0117320D02*
X0263042Y0117320D01*
X0263819Y0117320D02*
X0292580Y0117320D01*
X0292580Y0118318D02*
X0264133Y0118318D01*
X0263033Y0116321D02*
X0292580Y0116321D01*
X0292997Y0115500D02*
X0289824Y0112327D01*
X0292580Y0112327D02*
X0285000Y0112327D01*
X0284300Y0112327D02*
X0304115Y0112327D01*
X0304115Y0111329D02*
X0284275Y0111329D01*
X0284838Y0111329D02*
X0292580Y0111329D01*
X0292580Y0110330D02*
X0284266Y0110330D01*
X0283277Y0110330D02*
X0304115Y0110330D01*
X0304115Y0113326D02*
X0284274Y0113326D01*
X0284837Y0113326D02*
X0292580Y0113326D01*
X0292580Y0114324D02*
X0284265Y0114324D01*
X0283275Y0114324D02*
X0304115Y0114324D01*
X0304115Y0115323D02*
X0176615Y0115323D01*
X0176615Y0116321D02*
X0304115Y0116321D01*
X0310115Y0115500D02*
X0316615Y0109000D01*
X0331615Y0109000D01*
X0333615Y0111000D01*
X0333615Y0115500D01*
X0342615Y0110330D02*
X0346016Y0110330D01*
X0345017Y0109332D02*
X0342615Y0109332D01*
X0342615Y0108333D02*
X0344571Y0108333D01*
X0344215Y0107335D02*
X0342615Y0107335D01*
X0342615Y0106336D02*
X0344215Y0106336D01*
X0310115Y0115500D02*
X0292997Y0115500D01*
X0292580Y0115323D02*
X0282686Y0115323D01*
X0282689Y0109332D02*
X0292580Y0109332D01*
X0304115Y0121314D02*
X0176615Y0121314D01*
X0176615Y0122312D02*
X0304115Y0122312D01*
X0304115Y0123311D02*
X0176615Y0123311D01*
X0176615Y0124309D02*
X0195482Y0124309D01*
X0198260Y0124309D02*
X0304115Y0124309D01*
X0304115Y0125308D02*
X0199221Y0125308D01*
X0199221Y0126306D02*
X0304115Y0126306D01*
X0304115Y0127305D02*
X0199133Y0127305D01*
X0200335Y0127305D02*
X0292580Y0127305D01*
X0292580Y0128303D02*
X0200335Y0128303D01*
X0200335Y0129302D02*
X0292580Y0129302D01*
X0292580Y0130301D02*
X0200335Y0130301D01*
X0200335Y0131299D02*
X0292580Y0131299D01*
X0292580Y0132298D02*
X0200335Y0132298D01*
X0200335Y0133296D02*
X0292580Y0133296D01*
X0292580Y0134295D02*
X0200335Y0134295D01*
X0200335Y0135293D02*
X0292580Y0135293D01*
X0289557Y0136292D02*
X0200335Y0136292D01*
X0197605Y0138289D02*
X0188025Y0138289D01*
X0188115Y0139287D02*
X0196607Y0139287D01*
X0196607Y0140286D02*
X0188115Y0140286D01*
X0188115Y0141284D02*
X0196658Y0141284D01*
X0197657Y0142283D02*
X0188115Y0142283D01*
X0188115Y0143281D02*
X0304115Y0143281D01*
X0304115Y0146277D02*
X0201447Y0146277D01*
X0202098Y0146277D02*
X0292580Y0146277D01*
X0292580Y0147275D02*
X0202322Y0147275D01*
X0201622Y0147275D02*
X0304115Y0147275D01*
X0304115Y0148274D02*
X0201622Y0148274D01*
X0202222Y0148274D02*
X0292580Y0148274D01*
X0292580Y0149272D02*
X0270787Y0149272D01*
X0269797Y0149272D02*
X0304115Y0149272D01*
X0304115Y0150271D02*
X0270796Y0150271D01*
X0271413Y0150271D02*
X0292580Y0150271D01*
X0292580Y0151269D02*
X0271614Y0151269D01*
X0270914Y0151269D02*
X0304115Y0151269D01*
X0304115Y0152268D02*
X0270914Y0152268D01*
X0271490Y0152268D02*
X0292580Y0152268D01*
X0292580Y0153266D02*
X0270973Y0153266D01*
X0269983Y0153266D02*
X0304115Y0153266D01*
X0304115Y0154265D02*
X0188115Y0154265D01*
X0188115Y0155263D02*
X0304115Y0155263D01*
X0292580Y0164250D02*
X0233461Y0164250D01*
X0228419Y0162253D02*
X0227926Y0162253D01*
X0223694Y0160256D02*
X0200395Y0160256D01*
X0200970Y0160256D02*
X0222994Y0160256D01*
X0222994Y0161254D02*
X0200387Y0161254D01*
X0200441Y0159257D02*
X0224274Y0159257D01*
X0223386Y0159257D02*
X0201141Y0159257D01*
X0202028Y0153331D02*
X0202422Y0152937D01*
X0202422Y0133252D01*
X0201635Y0132465D01*
X0201635Y0119746D01*
X0201538Y0119650D01*
X0206615Y0114573D01*
X0206615Y0091500D01*
X0176615Y0091359D02*
X0302405Y0091359D01*
X0301992Y0092357D02*
X0176615Y0092357D01*
X0176615Y0090360D02*
X0303325Y0090360D01*
X0304115Y0089362D02*
X0176615Y0089362D01*
X0168158Y0086366D02*
X0139115Y0086366D01*
X0139115Y0085368D02*
X0167769Y0085368D01*
X0167769Y0084369D02*
X0139115Y0084369D01*
X0139115Y0083370D02*
X0168429Y0083370D01*
X0172615Y0081373D02*
X0139115Y0081373D01*
X0139115Y0080375D02*
X0172615Y0080375D01*
X0172370Y0079376D02*
X0139115Y0079376D01*
X0139115Y0078378D02*
X0171372Y0078378D01*
X0170373Y0077379D02*
X0139115Y0077379D01*
X0139115Y0076381D02*
X0169375Y0076381D01*
X0168376Y0075382D02*
X0139115Y0075382D01*
X0139115Y0074384D02*
X0167378Y0074384D01*
X0166379Y0073385D02*
X0139115Y0073385D01*
X0139115Y0072387D02*
X0165380Y0072387D01*
X0165115Y0071388D02*
X0139115Y0071388D01*
X0139115Y0070390D02*
X0165115Y0070390D01*
X0165115Y0069391D02*
X0139115Y0069391D01*
X0139115Y0068393D02*
X0160184Y0068393D01*
X0160642Y0068850D02*
X0159265Y0067473D01*
X0159265Y0065527D01*
X0160642Y0064150D01*
X0162588Y0064150D01*
X0163965Y0065527D01*
X0163965Y0067473D01*
X0162588Y0068850D01*
X0160642Y0068850D01*
X0159265Y0067394D02*
X0139115Y0067394D01*
X0139115Y0066396D02*
X0159265Y0066396D01*
X0159394Y0065397D02*
X0139115Y0065397D01*
X0139115Y0064399D02*
X0160393Y0064399D01*
X0162837Y0064399D02*
X0164265Y0064399D01*
X0164265Y0063400D02*
X0139115Y0063400D01*
X0139115Y0062402D02*
X0164890Y0062402D01*
X0164689Y0065397D02*
X0163836Y0065397D01*
X0163965Y0066396D02*
X0165115Y0066396D01*
X0165115Y0067394D02*
X0163965Y0067394D01*
X0163046Y0068393D02*
X0165115Y0068393D01*
X0170622Y0073385D02*
X0179115Y0073385D01*
X0179115Y0074384D02*
X0171620Y0074384D01*
X0172619Y0075382D02*
X0179115Y0075382D01*
X0179115Y0076381D02*
X0173617Y0076381D01*
X0174616Y0077379D02*
X0179115Y0077379D01*
X0179115Y0078378D02*
X0175614Y0078378D01*
X0175615Y0079376D02*
X0179115Y0079376D01*
X0176615Y0075382D02*
X0304115Y0075382D01*
X0304115Y0074384D02*
X0176615Y0074384D01*
X0192835Y0074413D02*
X0192835Y0050004D01*
X0176615Y0058408D02*
X0304115Y0058408D01*
X0304115Y0059406D02*
X0176615Y0059406D01*
X0176615Y0060405D02*
X0304115Y0060405D01*
X0302038Y0061403D02*
X0176615Y0061403D01*
X0176615Y0062402D02*
X0300319Y0062402D01*
X0299384Y0063400D02*
X0176615Y0063400D01*
X0238965Y0097350D02*
X0303035Y0097350D01*
X0264683Y0100345D02*
X0238784Y0100345D01*
X0239438Y0100345D02*
X0263693Y0100345D01*
X0263684Y0101344D02*
X0238965Y0101344D01*
X0239665Y0101344D02*
X0263003Y0101344D01*
X0262758Y0102342D02*
X0239567Y0102342D01*
X0238965Y0102342D02*
X0263458Y0102342D01*
X0263458Y0103341D02*
X0238098Y0103341D01*
X0239088Y0103341D02*
X0262837Y0103341D01*
X0263290Y0104339D02*
X0237730Y0104339D01*
X0250454Y0111205D02*
X0250454Y0089551D01*
X0256600Y0107335D02*
X0258874Y0107335D01*
X0257884Y0107335D02*
X0257590Y0107335D01*
X0257598Y0108333D02*
X0257876Y0108333D01*
X0292580Y0123311D02*
X0200335Y0123311D01*
X0200335Y0124309D02*
X0292580Y0124309D01*
X0292580Y0125308D02*
X0200335Y0125308D01*
X0200335Y0126306D02*
X0292580Y0126306D01*
X0304115Y0128303D02*
X0198135Y0128303D01*
X0178782Y0138289D02*
X0139115Y0138289D01*
X0139115Y0139287D02*
X0179115Y0139287D01*
X0179781Y0139287D02*
X0176615Y0139287D01*
X0176615Y0138289D02*
X0178782Y0138289D01*
X0179115Y0140286D02*
X0139115Y0140286D01*
X0139115Y0141284D02*
X0179115Y0141284D01*
X0179115Y0142283D02*
X0139115Y0142283D01*
X0139115Y0143281D02*
X0177810Y0143281D01*
X0176615Y0143281D01*
X0177218Y0143873D02*
X0178594Y0142496D01*
X0180541Y0142496D01*
X0181918Y0143873D01*
X0181918Y0145820D01*
X0180541Y0147196D01*
X0178594Y0147196D01*
X0177218Y0145820D01*
X0177218Y0143873D01*
X0177218Y0144280D02*
X0139115Y0144280D01*
X0139115Y0145278D02*
X0177218Y0145278D01*
X0176615Y0145278D01*
X0176615Y0144280D02*
X0177218Y0144280D01*
X0177675Y0146277D02*
X0139115Y0146277D01*
X0139115Y0147275D02*
X0179115Y0147275D01*
X0179115Y0148274D02*
X0139115Y0148274D01*
X0139115Y0149272D02*
X0179115Y0149272D01*
X0179115Y0150271D02*
X0139115Y0150271D01*
X0139115Y0151269D02*
X0179115Y0151269D01*
X0179115Y0152268D02*
X0139115Y0152268D01*
X0139115Y0153266D02*
X0179115Y0153266D01*
X0179115Y0154265D02*
X0139115Y0154265D01*
X0139115Y0155263D02*
X0179115Y0155263D01*
X0179115Y0156262D02*
X0139115Y0156262D01*
X0139115Y0157260D02*
X0179115Y0157260D01*
X0179115Y0158259D02*
X0139115Y0158259D01*
X0139115Y0159257D02*
X0179115Y0159257D01*
X0179115Y0160256D02*
X0139115Y0160256D01*
X0139115Y0161254D02*
X0179115Y0161254D01*
X0179115Y0162253D02*
X0139115Y0162253D01*
X0139115Y0163251D02*
X0179115Y0163251D01*
X0179115Y0164250D02*
X0139115Y0164250D01*
X0139115Y0165248D02*
X0179115Y0165248D01*
X0179115Y0166247D02*
X0139115Y0166247D01*
X0139115Y0167245D02*
X0179115Y0167245D01*
X0179115Y0168244D02*
X0139115Y0168244D01*
X0139115Y0169242D02*
X0179115Y0169242D01*
X0179115Y0170241D02*
X0139115Y0170241D01*
X0139115Y0171239D02*
X0179115Y0171239D01*
X0179115Y0172238D02*
X0139115Y0172238D01*
X0139115Y0173237D02*
X0179115Y0173237D01*
X0179115Y0174235D02*
X0012515Y0174235D01*
X0012515Y0175234D02*
X0179115Y0175234D01*
X0179115Y0176232D02*
X0012515Y0176232D01*
X0012515Y0177231D02*
X0179115Y0177231D01*
X0179115Y0178229D02*
X0012515Y0178229D01*
X0012515Y0179228D02*
X0043064Y0179228D01*
X0043142Y0179150D02*
X0045088Y0179150D01*
X0046465Y0180527D01*
X0046465Y0182473D01*
X0045088Y0183850D01*
X0043142Y0183850D01*
X0041765Y0182473D01*
X0041765Y0180527D01*
X0043142Y0179150D01*
X0042065Y0180226D02*
X0012515Y0180226D01*
X0012515Y0181225D02*
X0041765Y0181225D01*
X0041765Y0182223D02*
X0012515Y0182223D01*
X0012515Y0183222D02*
X0042513Y0183222D01*
X0045717Y0183222D02*
X0179115Y0183222D01*
X0179115Y0184220D02*
X0012515Y0184220D01*
X0012515Y0185219D02*
X0179115Y0185219D01*
X0179115Y0186217D02*
X0012515Y0186217D01*
X0012515Y0187216D02*
X0179115Y0187216D01*
X0179115Y0188214D02*
X0129307Y0188214D01*
X0131413Y0189213D02*
X0179115Y0189213D01*
X0179115Y0190211D02*
X0132412Y0190211D01*
X0133410Y0191210D02*
X0179115Y0191210D01*
X0179115Y0192208D02*
X0134093Y0192208D01*
X0134507Y0193207D02*
X0179115Y0193207D01*
X0179115Y0194205D02*
X0134920Y0194205D01*
X0135317Y0195204D02*
X0179115Y0195204D01*
X0179115Y0196202D02*
X0135317Y0196202D01*
X0135317Y0197201D02*
X0179115Y0197201D01*
X0179115Y0198199D02*
X0135317Y0198199D01*
X0135210Y0199198D02*
X0179115Y0199198D01*
X0179115Y0200196D02*
X0134797Y0200196D01*
X0134383Y0201195D02*
X0179115Y0201195D01*
X0179115Y0202193D02*
X0133969Y0202193D01*
X0133111Y0203192D02*
X0179115Y0203192D01*
X0179115Y0204190D02*
X0132112Y0204190D01*
X0130995Y0205189D02*
X0179115Y0205189D01*
X0179115Y0206187D02*
X0128584Y0206187D01*
X0123049Y0206187D02*
X0094511Y0206187D01*
X0093217Y0206187D02*
X0092217Y0206187D01*
X0092217Y0205189D02*
X0093217Y0205189D01*
X0093217Y0204190D02*
X0092217Y0204190D01*
X0092217Y0203192D02*
X0093217Y0203192D01*
X0093217Y0202193D02*
X0117664Y0202193D01*
X0117250Y0201195D02*
X0097137Y0201195D01*
X0097106Y0200997D02*
X0097193Y0201551D01*
X0093217Y0201551D01*
X0093217Y0197574D01*
X0093770Y0197662D01*
X0094444Y0197881D01*
X0095075Y0198202D01*
X0095648Y0198619D01*
X0096149Y0199120D01*
X0096565Y0199693D01*
X0096887Y0200324D01*
X0097106Y0200997D01*
X0096822Y0200196D02*
X0116837Y0200196D01*
X0116423Y0199198D02*
X0096206Y0199198D01*
X0095069Y0198199D02*
X0116317Y0198199D01*
X0116317Y0197201D02*
X0088817Y0197201D01*
X0088817Y0198199D02*
X0090364Y0198199D01*
X0089227Y0199198D02*
X0088817Y0199198D01*
X0088817Y0196202D02*
X0116317Y0196202D01*
X0118522Y0203192D02*
X0097077Y0203192D01*
X0096677Y0204190D02*
X0119521Y0204190D01*
X0120638Y0205189D02*
X0095943Y0205189D01*
X0090922Y0206187D02*
X0088817Y0206187D01*
X0088817Y0205189D02*
X0089490Y0205189D01*
X0088817Y0207186D02*
X0179115Y0207186D01*
X0179115Y0208184D02*
X0088817Y0208184D01*
X0088817Y0209183D02*
X0179115Y0209183D01*
X0179115Y0210181D02*
X0088817Y0210181D01*
X0088817Y0211180D02*
X0175863Y0211180D01*
X0175830Y0211191D02*
X0176526Y0210964D01*
X0177115Y0210871D01*
X0177115Y0215000D01*
X0172986Y0215000D01*
X0173079Y0214411D01*
X0173306Y0213715D01*
X0173638Y0213063D01*
X0174068Y0212471D01*
X0174586Y0211953D01*
X0175178Y0211523D01*
X0175830Y0211191D01*
X0176615Y0210181D02*
X0276175Y0210181D01*
X0275177Y0209183D02*
X0176615Y0209183D01*
X0177115Y0211180D02*
X0178115Y0211180D01*
X0177115Y0211180D01*
X0177115Y0212178D02*
X0178115Y0212178D01*
X0177115Y0212178D01*
X0177115Y0213177D02*
X0178115Y0213177D01*
X0177115Y0213177D01*
X0177115Y0214175D02*
X0178115Y0214175D01*
X0177115Y0214175D01*
X0177115Y0215174D02*
X0171765Y0215174D01*
X0171765Y0214675D02*
X0171765Y0216325D01*
X0171133Y0217851D01*
X0169966Y0219018D01*
X0168440Y0219650D01*
X0166789Y0219650D01*
X0165264Y0219018D01*
X0164097Y0217851D01*
X0163465Y0216325D01*
X0163465Y0214675D01*
X0164097Y0213149D01*
X0165264Y0211982D01*
X0166789Y0211350D01*
X0168440Y0211350D01*
X0169966Y0211982D01*
X0171133Y0213149D01*
X0171765Y0214675D01*
X0171558Y0214175D02*
X0173156Y0214175D01*
X0173580Y0213177D02*
X0171145Y0213177D01*
X0170162Y0212178D02*
X0174360Y0212178D01*
X0178115Y0210871D02*
X0178704Y0210964D01*
X0178115Y0210871D01*
X0178115Y0215000D01*
X0178115Y0210871D01*
X0179367Y0211180D02*
X0277174Y0211180D01*
X0278172Y0212178D02*
X0276162Y0212178D01*
X0275966Y0211982D02*
X0277133Y0213149D01*
X0277765Y0214675D01*
X0277765Y0216325D01*
X0277133Y0217851D01*
X0275966Y0219018D01*
X0274440Y0219650D01*
X0272789Y0219650D01*
X0271264Y0219018D01*
X0270097Y0217851D01*
X0269465Y0216325D01*
X0269465Y0214675D01*
X0270097Y0213149D01*
X0271264Y0211982D01*
X0272789Y0211350D01*
X0274440Y0211350D01*
X0275966Y0211982D01*
X0277145Y0213177D02*
X0279171Y0213177D01*
X0279672Y0214175D02*
X0277558Y0214175D01*
X0277765Y0215174D02*
X0279465Y0215174D01*
X0279465Y0216172D02*
X0277765Y0216172D01*
X0277415Y0217171D02*
X0279815Y0217171D01*
X0280416Y0218170D02*
X0276814Y0218170D01*
X0275604Y0219168D02*
X0281626Y0219168D01*
X0271626Y0219168D02*
X0265604Y0219168D01*
X0265966Y0219018D02*
X0264440Y0219650D01*
X0262789Y0219650D01*
X0261264Y0219018D01*
X0260097Y0217851D01*
X0259465Y0216325D01*
X0259465Y0214675D01*
X0260097Y0213149D01*
X0261264Y0211982D01*
X0262789Y0211350D01*
X0264440Y0211350D01*
X0265966Y0211982D01*
X0267133Y0213149D01*
X0267765Y0214675D01*
X0267765Y0216325D01*
X0267133Y0217851D01*
X0265966Y0219018D01*
X0266814Y0218170D02*
X0270416Y0218170D01*
X0269815Y0217171D02*
X0267415Y0217171D01*
X0267765Y0216172D02*
X0269465Y0216172D01*
X0269465Y0215174D02*
X0267765Y0215174D01*
X0267558Y0214175D02*
X0269672Y0214175D01*
X0270085Y0213177D02*
X0267145Y0213177D01*
X0266162Y0212178D02*
X0271068Y0212178D01*
X0261068Y0212178D02*
X0256162Y0212178D01*
X0255966Y0211982D02*
X0257133Y0213149D01*
X0257765Y0214675D01*
X0257765Y0216325D01*
X0257133Y0217851D01*
X0255966Y0219018D01*
X0254440Y0219650D01*
X0252789Y0219650D01*
X0251264Y0219018D01*
X0250097Y0217851D01*
X0249465Y0216325D01*
X0249465Y0214675D01*
X0250097Y0213149D01*
X0251264Y0211982D01*
X0252789Y0211350D01*
X0254440Y0211350D01*
X0255966Y0211982D01*
X0257145Y0213177D02*
X0260085Y0213177D01*
X0259672Y0214175D02*
X0257558Y0214175D01*
X0257765Y0215174D02*
X0259465Y0215174D01*
X0259465Y0216172D02*
X0257765Y0216172D01*
X0257415Y0217171D02*
X0259815Y0217171D01*
X0260416Y0218170D02*
X0256814Y0218170D01*
X0255604Y0219168D02*
X0261626Y0219168D01*
X0251626Y0219168D02*
X0239604Y0219168D01*
X0239966Y0219018D02*
X0238440Y0219650D01*
X0236789Y0219650D01*
X0235264Y0219018D01*
X0234097Y0217851D01*
X0233465Y0216325D01*
X0233465Y0214675D01*
X0234097Y0213149D01*
X0235264Y0211982D01*
X0236789Y0211350D01*
X0238440Y0211350D01*
X0239966Y0211982D01*
X0241133Y0213149D01*
X0241765Y0214675D01*
X0241765Y0216325D01*
X0241133Y0217851D01*
X0239966Y0219018D01*
X0240814Y0218170D02*
X0250416Y0218170D01*
X0249815Y0217171D02*
X0241415Y0217171D01*
X0241765Y0216172D02*
X0249465Y0216172D01*
X0249465Y0215174D02*
X0241765Y0215174D01*
X0241558Y0214175D02*
X0249672Y0214175D01*
X0250085Y0213177D02*
X0241145Y0213177D01*
X0240162Y0212178D02*
X0251068Y0212178D01*
X0235068Y0212178D02*
X0230162Y0212178D01*
X0229966Y0211982D02*
X0231133Y0213149D01*
X0231765Y0214675D01*
X0231765Y0216325D01*
X0231133Y0217851D01*
X0229966Y0219018D01*
X0228440Y0219650D01*
X0226789Y0219650D01*
X0225264Y0219018D01*
X0224097Y0217851D01*
X0223465Y0216325D01*
X0223465Y0214675D01*
X0224097Y0213149D01*
X0225264Y0211982D01*
X0226789Y0211350D01*
X0228440Y0211350D01*
X0229966Y0211982D01*
X0231145Y0213177D02*
X0234085Y0213177D01*
X0233672Y0214175D02*
X0231558Y0214175D01*
X0231765Y0215174D02*
X0233465Y0215174D01*
X0233465Y0216172D02*
X0231765Y0216172D01*
X0231415Y0217171D02*
X0233815Y0217171D01*
X0234416Y0218170D02*
X0230814Y0218170D01*
X0229604Y0219168D02*
X0235626Y0219168D01*
X0225626Y0219168D02*
X0219604Y0219168D01*
X0219966Y0219018D02*
X0218440Y0219650D01*
X0216789Y0219650D01*
X0215264Y0219018D01*
X0214097Y0217851D01*
X0213465Y0216325D01*
X0213465Y0214675D01*
X0214097Y0213149D01*
X0215264Y0211982D01*
X0216789Y0211350D01*
X0218440Y0211350D01*
X0219966Y0211982D01*
X0221133Y0213149D01*
X0221765Y0214675D01*
X0221765Y0216325D01*
X0221133Y0217851D01*
X0219966Y0219018D01*
X0220814Y0218170D02*
X0224416Y0218170D01*
X0223815Y0217171D02*
X0221415Y0217171D01*
X0221765Y0216172D02*
X0223465Y0216172D01*
X0223465Y0215174D02*
X0221765Y0215174D01*
X0221558Y0214175D02*
X0223672Y0214175D01*
X0224085Y0213177D02*
X0221145Y0213177D01*
X0220162Y0212178D02*
X0225068Y0212178D01*
X0215068Y0212178D02*
X0210162Y0212178D01*
X0211145Y0213177D02*
X0214085Y0213177D01*
X0213672Y0214175D02*
X0211558Y0214175D01*
X0211765Y0215174D02*
X0213465Y0215174D01*
X0213465Y0216172D02*
X0211765Y0216172D01*
X0211415Y0217171D02*
X0213815Y0217171D01*
X0214416Y0218170D02*
X0210814Y0218170D01*
X0209604Y0219168D02*
X0215626Y0219168D01*
X0185626Y0219168D02*
X0180477Y0219168D01*
X0181423Y0218170D02*
X0184416Y0218170D01*
X0183815Y0217171D02*
X0181961Y0217171D01*
X0182216Y0216172D02*
X0183465Y0216172D01*
X0183465Y0215174D02*
X0178115Y0215174D01*
X0177615Y0215500D02*
X0171115Y0209000D01*
X0144115Y0209000D01*
X0139115Y0204000D01*
X0139115Y0186500D01*
X0136615Y0184000D01*
X0093217Y0198199D02*
X0092217Y0198199D01*
X0092217Y0199198D02*
X0093217Y0199198D01*
X0093217Y0200196D02*
X0092217Y0200196D01*
X0092217Y0201195D02*
X0093217Y0201195D01*
X0085817Y0200196D02*
X0085478Y0200196D01*
X0085817Y0199198D02*
X0084720Y0199198D01*
X0085817Y0198199D02*
X0083070Y0198199D01*
X0080763Y0198199D02*
X0072270Y0198199D01*
X0071912Y0198051D02*
X0073382Y0198660D01*
X0074508Y0199785D01*
X0075117Y0201256D01*
X0075117Y0202847D01*
X0074508Y0204317D01*
X0073382Y0205442D01*
X0071912Y0206051D01*
X0070321Y0206051D01*
X0068851Y0205442D01*
X0067725Y0204317D01*
X0067117Y0202847D01*
X0067117Y0201256D01*
X0067725Y0199785D01*
X0068851Y0198660D01*
X0070321Y0198051D01*
X0071912Y0198051D01*
X0069963Y0198199D02*
X0061470Y0198199D01*
X0061112Y0198051D02*
X0062582Y0198660D01*
X0063708Y0199785D01*
X0064317Y0201256D01*
X0064317Y0202847D01*
X0063708Y0204317D01*
X0062582Y0205442D01*
X0061112Y0206051D01*
X0059521Y0206051D01*
X0058051Y0205442D01*
X0056925Y0204317D01*
X0056317Y0202847D01*
X0056317Y0201256D01*
X0056925Y0199785D01*
X0058051Y0198660D01*
X0059521Y0198051D01*
X0061112Y0198051D01*
X0059163Y0198199D02*
X0036717Y0198199D01*
X0036717Y0198941D02*
X0035270Y0202432D01*
X0032598Y0205105D01*
X0029106Y0206551D01*
X0025327Y0206551D01*
X0021835Y0205105D01*
X0019163Y0202432D01*
X0017717Y0198941D01*
X0017717Y0195162D01*
X0019163Y0191670D01*
X0021835Y0188997D01*
X0025327Y0187551D01*
X0029106Y0187551D01*
X0032598Y0188997D01*
X0035270Y0191670D01*
X0036717Y0195162D01*
X0036717Y0198941D01*
X0036610Y0199198D02*
X0057513Y0199198D01*
X0056755Y0200196D02*
X0036197Y0200196D01*
X0035783Y0201195D02*
X0056342Y0201195D01*
X0056317Y0202193D02*
X0035369Y0202193D01*
X0034511Y0203192D02*
X0056459Y0203192D01*
X0056873Y0204190D02*
X0033512Y0204190D01*
X0032395Y0205189D02*
X0057797Y0205189D01*
X0062836Y0205189D02*
X0068597Y0205189D01*
X0067673Y0204190D02*
X0063760Y0204190D01*
X0064174Y0203192D02*
X0067259Y0203192D01*
X0067117Y0202193D02*
X0064317Y0202193D01*
X0064291Y0201195D02*
X0067142Y0201195D01*
X0067555Y0200196D02*
X0063878Y0200196D01*
X0063120Y0199198D02*
X0068313Y0199198D01*
X0068221Y0195204D02*
X0074012Y0195204D01*
X0073079Y0194205D02*
X0069154Y0194205D01*
X0069567Y0193207D02*
X0072666Y0193207D01*
X0072517Y0192208D02*
X0069717Y0192208D01*
X0069698Y0191210D02*
X0072536Y0191210D01*
X0072949Y0190211D02*
X0069284Y0190211D01*
X0068535Y0189213D02*
X0073698Y0189213D01*
X0079335Y0189213D02*
X0084498Y0189213D01*
X0083749Y0190211D02*
X0080084Y0190211D01*
X0080498Y0191210D02*
X0083336Y0191210D01*
X0083317Y0192208D02*
X0080517Y0192208D01*
X0080367Y0193207D02*
X0083466Y0193207D01*
X0083879Y0194205D02*
X0079954Y0194205D01*
X0079021Y0195204D02*
X0084812Y0195204D01*
X0085817Y0196202D02*
X0036717Y0196202D01*
X0036717Y0195204D02*
X0052412Y0195204D01*
X0052651Y0195442D02*
X0051525Y0194317D01*
X0050917Y0192847D01*
X0050917Y0191256D01*
X0051525Y0189785D01*
X0052651Y0188660D01*
X0054121Y0188051D01*
X0055712Y0188051D01*
X0057182Y0188660D01*
X0058308Y0189785D01*
X0058917Y0191256D01*
X0058917Y0192847D01*
X0058308Y0194317D01*
X0057182Y0195442D01*
X0055712Y0196051D01*
X0054121Y0196051D01*
X0052651Y0195442D01*
X0051479Y0194205D02*
X0036320Y0194205D01*
X0035907Y0193207D02*
X0051066Y0193207D01*
X0050917Y0192208D02*
X0035493Y0192208D01*
X0034810Y0191210D02*
X0050936Y0191210D01*
X0051349Y0190211D02*
X0033812Y0190211D01*
X0032813Y0189213D02*
X0052098Y0189213D01*
X0053727Y0188214D02*
X0030707Y0188214D01*
X0023726Y0188214D02*
X0012515Y0188214D01*
X0012515Y0189213D02*
X0021620Y0189213D01*
X0020621Y0190211D02*
X0012515Y0190211D01*
X0012515Y0191210D02*
X0019623Y0191210D01*
X0018940Y0192208D02*
X0012515Y0192208D01*
X0012515Y0193207D02*
X0018526Y0193207D01*
X0018113Y0194205D02*
X0012515Y0194205D01*
X0012515Y0195204D02*
X0017717Y0195204D01*
X0017717Y0196202D02*
X0012515Y0196202D01*
X0012515Y0197201D02*
X0017717Y0197201D01*
X0017717Y0198199D02*
X0012515Y0198199D01*
X0012515Y0199198D02*
X0017823Y0199198D01*
X0018237Y0200196D02*
X0012515Y0200196D01*
X0012515Y0201195D02*
X0018650Y0201195D01*
X0019064Y0202193D02*
X0012515Y0202193D01*
X0012515Y0203192D02*
X0019922Y0203192D01*
X0020921Y0204190D02*
X0012515Y0204190D01*
X0012515Y0205189D02*
X0022038Y0205189D01*
X0024449Y0206187D02*
X0012515Y0206187D01*
X0012515Y0207186D02*
X0085817Y0207186D01*
X0085817Y0208184D02*
X0012515Y0208184D01*
X0012515Y0209183D02*
X0085817Y0209183D01*
X0085817Y0210181D02*
X0012515Y0210181D01*
X0012515Y0211180D02*
X0085817Y0211180D01*
X0085817Y0212178D02*
X0012515Y0212178D01*
X0012515Y0213177D02*
X0085817Y0213177D01*
X0085817Y0214175D02*
X0012515Y0214175D01*
X0012515Y0215174D02*
X0085817Y0215174D01*
X0085817Y0216172D02*
X0012515Y0216172D01*
X0012515Y0217171D02*
X0085817Y0217171D01*
X0085817Y0218170D02*
X0012515Y0218170D01*
X0012515Y0219168D02*
X0085817Y0219168D01*
X0085817Y0220167D02*
X0012515Y0220167D01*
X0012515Y0221165D02*
X0086659Y0221165D01*
X0087657Y0222164D02*
X0012515Y0222164D01*
X0012515Y0223162D02*
X0179115Y0223162D01*
X0179115Y0224161D02*
X0012515Y0224161D01*
X0012515Y0225159D02*
X0179115Y0225159D01*
X0179115Y0226158D02*
X0012515Y0226158D01*
X0029984Y0206187D02*
X0085817Y0206187D01*
X0085817Y0205189D02*
X0084436Y0205189D01*
X0085360Y0204190D02*
X0085817Y0204190D01*
X0085774Y0203192D02*
X0085817Y0203192D01*
X0079397Y0205189D02*
X0073636Y0205189D01*
X0074560Y0204190D02*
X0078473Y0204190D01*
X0078059Y0203192D02*
X0074974Y0203192D01*
X0075117Y0202193D02*
X0077917Y0202193D01*
X0077942Y0201195D02*
X0075091Y0201195D01*
X0074678Y0200196D02*
X0078355Y0200196D01*
X0079113Y0199198D02*
X0073920Y0199198D01*
X0085817Y0197201D02*
X0036717Y0197201D01*
X0057421Y0195204D02*
X0063212Y0195204D01*
X0062279Y0194205D02*
X0058354Y0194205D01*
X0058767Y0193207D02*
X0061866Y0193207D01*
X0061717Y0192208D02*
X0058917Y0192208D01*
X0058898Y0191210D02*
X0061736Y0191210D01*
X0062149Y0190211D02*
X0058484Y0190211D01*
X0057735Y0189213D02*
X0062898Y0189213D01*
X0064527Y0188214D02*
X0056106Y0188214D01*
X0046465Y0182223D02*
X0179115Y0182223D01*
X0179115Y0181225D02*
X0046465Y0181225D01*
X0046164Y0180226D02*
X0179115Y0180226D01*
X0179115Y0179228D02*
X0045166Y0179228D01*
X0068115Y0158259D02*
X0012515Y0158259D01*
X0012515Y0157260D02*
X0068115Y0157260D01*
X0068115Y0156262D02*
X0012515Y0156262D01*
X0012515Y0155263D02*
X0068115Y0155263D01*
X0068115Y0154265D02*
X0035309Y0154265D01*
X0036681Y0153696D02*
X0033190Y0155143D01*
X0029410Y0155143D01*
X0025919Y0153696D01*
X0023246Y0151024D01*
X0021800Y0147532D01*
X0021800Y0143753D01*
X0023246Y0140261D01*
X0025919Y0137589D01*
X0029410Y0136143D01*
X0033190Y0136143D01*
X0036681Y0137589D01*
X0039354Y0140261D01*
X0040800Y0143753D01*
X0040800Y0147532D01*
X0039354Y0151024D01*
X0036681Y0153696D01*
X0037111Y0153266D02*
X0068115Y0153266D01*
X0068115Y0152268D02*
X0038110Y0152268D01*
X0039108Y0151269D02*
X0068115Y0151269D01*
X0068115Y0150271D02*
X0039666Y0150271D01*
X0040079Y0149272D02*
X0068115Y0149272D01*
X0068115Y0148274D02*
X0058165Y0148274D01*
X0057588Y0148850D02*
X0055642Y0148850D01*
X0054265Y0147473D01*
X0054265Y0145527D01*
X0055642Y0144150D01*
X0057588Y0144150D01*
X0058965Y0145527D01*
X0058965Y0147473D01*
X0057588Y0148850D01*
X0058965Y0147275D02*
X0068115Y0147275D01*
X0068115Y0146277D02*
X0058965Y0146277D01*
X0058717Y0145278D02*
X0068115Y0145278D01*
X0068115Y0144280D02*
X0057718Y0144280D01*
X0055512Y0144280D02*
X0040800Y0144280D01*
X0040800Y0145278D02*
X0054513Y0145278D01*
X0054265Y0146277D02*
X0040800Y0146277D01*
X0040800Y0147275D02*
X0054265Y0147275D01*
X0055065Y0148274D02*
X0040493Y0148274D01*
X0040605Y0143281D02*
X0068115Y0143281D01*
X0068115Y0142283D02*
X0040191Y0142283D01*
X0039777Y0141284D02*
X0068115Y0141284D01*
X0068115Y0140286D02*
X0039364Y0140286D01*
X0038380Y0139287D02*
X0068115Y0139287D01*
X0068115Y0138289D02*
X0037381Y0138289D01*
X0035960Y0137290D02*
X0068115Y0137290D01*
X0068115Y0136292D02*
X0033550Y0136292D01*
X0029050Y0136292D02*
X0012515Y0136292D01*
X0012515Y0137290D02*
X0026640Y0137290D01*
X0025219Y0138289D02*
X0012515Y0138289D01*
X0012515Y0139287D02*
X0024220Y0139287D01*
X0023236Y0140286D02*
X0012515Y0140286D01*
X0012515Y0141284D02*
X0022823Y0141284D01*
X0022409Y0142283D02*
X0012515Y0142283D01*
X0012515Y0143281D02*
X0021995Y0143281D01*
X0021800Y0144280D02*
X0012515Y0144280D01*
X0012515Y0145278D02*
X0021800Y0145278D01*
X0021800Y0146277D02*
X0012515Y0146277D01*
X0012515Y0147275D02*
X0021800Y0147275D01*
X0022107Y0148274D02*
X0012515Y0148274D01*
X0012515Y0149272D02*
X0022521Y0149272D01*
X0022934Y0150271D02*
X0012515Y0150271D01*
X0012515Y0151269D02*
X0023492Y0151269D01*
X0024490Y0152268D02*
X0012515Y0152268D01*
X0012515Y0153266D02*
X0025489Y0153266D01*
X0027291Y0154265D02*
X0012515Y0154265D01*
X0014115Y0156500D02*
X0046615Y0156500D01*
X0048780Y0156500D01*
X0050198Y0155083D01*
X0050198Y0152917D01*
X0051615Y0151500D01*
X0051615Y0141500D01*
X0054115Y0139000D01*
X0066615Y0139000D01*
X0066615Y0131500D01*
X0064115Y0131500D01*
X0066615Y0129000D01*
X0071615Y0129000D01*
X0068115Y0131299D02*
X0012515Y0131299D01*
X0012515Y0130301D02*
X0109115Y0130301D01*
X0109115Y0129302D02*
X0012515Y0129302D01*
X0012515Y0128303D02*
X0109115Y0128303D01*
X0109115Y0127305D02*
X0012515Y0127305D01*
X0012515Y0126306D02*
X0109115Y0126306D01*
X0109115Y0125308D02*
X0012515Y0125308D01*
X0012515Y0124309D02*
X0109115Y0124309D01*
X0109115Y0123311D02*
X0012515Y0123311D01*
X0012515Y0122312D02*
X0109115Y0122312D01*
X0109115Y0121314D02*
X0038585Y0121314D01*
X0034015Y0121314D02*
X0012515Y0121314D01*
X0012515Y0120315D02*
X0033016Y0120315D01*
X0032540Y0119317D02*
X0012515Y0119317D01*
X0012515Y0118318D02*
X0032300Y0118318D01*
X0032300Y0117320D02*
X0012515Y0117320D01*
X0012515Y0132298D02*
X0068115Y0132298D01*
X0068115Y0133296D02*
X0012515Y0133296D01*
X0012515Y0134295D02*
X0068115Y0134295D01*
X0068115Y0135293D02*
X0012515Y0135293D01*
X0046615Y0126500D02*
X0048741Y0124374D01*
X0098072Y0124374D01*
X0109115Y0120315D02*
X0065356Y0120315D01*
X0066955Y0119317D02*
X0109115Y0119317D01*
X0109115Y0118318D02*
X0067691Y0118318D01*
X0068105Y0117320D02*
X0109115Y0117320D01*
X0109115Y0116321D02*
X0068115Y0116321D01*
X0067957Y0115323D02*
X0109115Y0115323D01*
X0109115Y0114324D02*
X0067543Y0114324D01*
X0066598Y0113326D02*
X0109115Y0113326D01*
X0139115Y0103341D02*
X0167632Y0103341D01*
X0166765Y0102342D02*
X0139115Y0102342D01*
X0139115Y0101344D02*
X0166765Y0101344D01*
X0166946Y0100345D02*
X0139115Y0100345D01*
X0139115Y0099347D02*
X0167945Y0099347D01*
X0151221Y0127524D02*
X0163032Y0139335D01*
X0163820Y0138547D01*
X0172875Y0138547D01*
X0176024Y0141697D01*
X0176024Y0152327D01*
X0176024Y0182091D01*
X0176615Y0181225D02*
X0182615Y0181225D01*
X0182615Y0180226D02*
X0176615Y0180226D01*
X0176615Y0179228D02*
X0182615Y0179228D01*
X0182615Y0178229D02*
X0176615Y0178229D01*
X0176615Y0177231D02*
X0182615Y0177231D01*
X0182615Y0176232D02*
X0176615Y0176232D01*
X0176615Y0175234D02*
X0182615Y0175234D01*
X0182615Y0174235D02*
X0176615Y0174235D01*
X0176615Y0173237D02*
X0182615Y0173237D01*
X0182615Y0172238D02*
X0176615Y0172238D01*
X0176615Y0171239D02*
X0182615Y0171239D01*
X0182615Y0170241D02*
X0176615Y0170241D01*
X0176615Y0169242D02*
X0182615Y0169242D01*
X0182615Y0168244D02*
X0176615Y0168244D01*
X0176615Y0167245D02*
X0182615Y0167245D01*
X0182615Y0166247D02*
X0176615Y0166247D01*
X0176615Y0165248D02*
X0182615Y0165248D01*
X0182615Y0164250D02*
X0176615Y0164250D01*
X0176615Y0163251D02*
X0182615Y0163251D01*
X0182615Y0162253D02*
X0176615Y0162253D01*
X0176615Y0161254D02*
X0182615Y0161254D01*
X0182615Y0160256D02*
X0176615Y0160256D01*
X0176615Y0159257D02*
X0182615Y0159257D01*
X0182615Y0158259D02*
X0176615Y0158259D01*
X0176615Y0157260D02*
X0182615Y0157260D01*
X0182615Y0156262D02*
X0176615Y0156262D01*
X0176615Y0155263D02*
X0182615Y0155263D01*
X0182615Y0154265D02*
X0176615Y0154265D01*
X0176615Y0153266D02*
X0182615Y0153266D01*
X0182615Y0152268D02*
X0176615Y0152268D01*
X0176615Y0151269D02*
X0182615Y0151269D01*
X0182615Y0150271D02*
X0176615Y0150271D01*
X0176615Y0149272D02*
X0182615Y0149272D01*
X0182615Y0148274D02*
X0176615Y0148274D01*
X0176615Y0147275D02*
X0182615Y0147275D01*
X0182615Y0146277D02*
X0181461Y0146277D01*
X0181918Y0145278D02*
X0182615Y0145278D01*
X0182615Y0144280D02*
X0181918Y0144280D01*
X0181326Y0143281D02*
X0182615Y0143281D01*
X0182615Y0142283D02*
X0176615Y0142283D01*
X0176615Y0141284D02*
X0181778Y0141284D01*
X0180779Y0140286D02*
X0176615Y0140286D01*
X0176615Y0146277D02*
X0177675Y0146277D01*
X0200749Y0149272D02*
X0267330Y0149272D01*
X0266340Y0149272D02*
X0201739Y0149272D01*
X0202028Y0153331D02*
X0202028Y0165929D01*
X0201635Y0166323D01*
X0201635Y0184039D01*
X0203209Y0185614D01*
X0211083Y0185614D01*
X0223682Y0198213D01*
X0237351Y0190211D02*
X0200335Y0190211D01*
X0200335Y0189213D02*
X0236641Y0189213D01*
X0237343Y0189213D02*
X0188115Y0189213D01*
X0188115Y0190211D02*
X0238341Y0190211D01*
X0240518Y0190211D02*
X0249503Y0190211D01*
X0248815Y0190211D02*
X0241508Y0190211D01*
X0241517Y0189213D02*
X0249265Y0189213D01*
X0248565Y0189213D02*
X0242219Y0189213D01*
X0242480Y0188214D02*
X0248639Y0188214D01*
X0249265Y0188214D02*
X0241780Y0188214D01*
X0241780Y0187216D02*
X0250076Y0187216D01*
X0249086Y0187216D02*
X0242416Y0187216D01*
X0241984Y0186217D02*
X0250363Y0186217D01*
X0249115Y0184000D02*
X0246320Y0186795D01*
X0246320Y0189748D01*
X0249511Y0191210D02*
X0200335Y0191210D01*
X0200335Y0192208D02*
X0292580Y0192208D01*
X0292580Y0191210D02*
X0253719Y0191210D01*
X0252729Y0191210D02*
X0304115Y0191210D01*
X0304115Y0192208D02*
X0188115Y0192208D01*
X0188115Y0191210D02*
X0250501Y0191210D01*
X0254144Y0187216D02*
X0266524Y0187216D01*
X0266202Y0188370D02*
X0270139Y0188370D01*
X0266202Y0188370D02*
X0264627Y0189945D01*
X0260296Y0189945D01*
X0258721Y0188370D01*
X0254351Y0184000D01*
X0249115Y0184000D01*
X0238118Y0185219D02*
X0200335Y0185219D01*
X0200335Y0186217D02*
X0236876Y0186217D01*
X0237866Y0186217D02*
X0188115Y0186217D01*
X0188115Y0187216D02*
X0237080Y0187216D01*
X0236444Y0187216D02*
X0200335Y0187216D01*
X0200335Y0188214D02*
X0236380Y0188214D01*
X0237080Y0188214D02*
X0188115Y0188214D01*
X0188115Y0193207D02*
X0304115Y0193207D01*
X0304115Y0194205D02*
X0188115Y0194205D01*
X0188115Y0195204D02*
X0304115Y0195204D01*
X0304115Y0196202D02*
X0188115Y0196202D01*
X0188115Y0197201D02*
X0304115Y0197201D01*
X0304115Y0198199D02*
X0188115Y0198199D01*
X0188115Y0199198D02*
X0303094Y0199198D01*
X0302095Y0200196D02*
X0188115Y0200196D01*
X0188431Y0201195D02*
X0301765Y0201195D01*
X0301765Y0202193D02*
X0189430Y0202193D01*
X0200335Y0193207D02*
X0292580Y0193207D01*
X0292580Y0184220D02*
X0270826Y0184220D01*
X0270126Y0184220D02*
X0304115Y0184220D01*
X0304115Y0183222D02*
X0269888Y0183222D01*
X0270576Y0183222D02*
X0292580Y0183222D01*
X0292580Y0180226D02*
X0200335Y0180226D01*
X0200335Y0179228D02*
X0292580Y0179228D01*
X0292580Y0178229D02*
X0200335Y0178229D01*
X0200335Y0177231D02*
X0292580Y0177231D01*
X0292580Y0172238D02*
X0233818Y0172238D01*
X0232480Y0169242D02*
X0292580Y0169242D01*
X0292580Y0168244D02*
X0200335Y0168244D01*
X0200335Y0169242D02*
X0229057Y0169242D01*
X0221260Y0172238D02*
X0200335Y0172238D01*
X0141615Y0156500D02*
X0141615Y0129000D01*
X0201834Y0141284D02*
X0289605Y0141284D01*
X0358426Y0138289D02*
X0451711Y0138289D01*
X0451712Y0137290D02*
X0358414Y0137290D01*
X0393839Y0148882D02*
X0406615Y0148882D01*
X0399233Y0141500D01*
X0399115Y0141500D01*
X0406615Y0148882D02*
X0410296Y0148882D01*
X0347115Y0209000D02*
X0309115Y0209000D01*
X0347115Y0209000D02*
X0353615Y0215500D01*
X0185068Y0212178D02*
X0180870Y0212178D01*
X0181650Y0213177D02*
X0184085Y0213177D01*
X0183672Y0214175D02*
X0182074Y0214175D01*
X0174753Y0219168D02*
X0169604Y0219168D01*
X0170814Y0218170D02*
X0173807Y0218170D01*
X0173269Y0217171D02*
X0171415Y0217171D01*
X0171765Y0216172D02*
X0173014Y0216172D01*
X0165626Y0219168D02*
X0159604Y0219168D01*
X0159966Y0219018D02*
X0158440Y0219650D01*
X0156789Y0219650D01*
X0155264Y0219018D01*
X0154097Y0217851D01*
X0153465Y0216325D01*
X0153465Y0214675D01*
X0154097Y0213149D01*
X0155264Y0211982D01*
X0156789Y0211350D01*
X0158440Y0211350D01*
X0159966Y0211982D01*
X0161133Y0213149D01*
X0161765Y0214675D01*
X0161765Y0216325D01*
X0161133Y0217851D01*
X0159966Y0219018D01*
X0160814Y0218170D02*
X0164416Y0218170D01*
X0163815Y0217171D02*
X0161415Y0217171D01*
X0161765Y0216172D02*
X0163465Y0216172D01*
X0163465Y0215174D02*
X0161765Y0215174D01*
X0161558Y0214175D02*
X0163672Y0214175D01*
X0164085Y0213177D02*
X0161145Y0213177D01*
X0160162Y0212178D02*
X0165068Y0212178D01*
X0155068Y0212178D02*
X0150162Y0212178D01*
X0149966Y0211982D02*
X0151133Y0213149D01*
X0151765Y0214675D01*
X0151765Y0216325D01*
X0151133Y0217851D01*
X0149966Y0219018D01*
X0148440Y0219650D01*
X0146789Y0219650D01*
X0145264Y0219018D01*
X0144097Y0217851D01*
X0143465Y0216325D01*
X0143465Y0214675D01*
X0144097Y0213149D01*
X0145264Y0211982D01*
X0146789Y0211350D01*
X0148440Y0211350D01*
X0149966Y0211982D01*
X0151145Y0213177D02*
X0154085Y0213177D01*
X0153672Y0214175D02*
X0151558Y0214175D01*
X0151765Y0215174D02*
X0153465Y0215174D01*
X0153465Y0216172D02*
X0151765Y0216172D01*
X0151415Y0217171D02*
X0153815Y0217171D01*
X0154416Y0218170D02*
X0150814Y0218170D01*
X0149604Y0219168D02*
X0155626Y0219168D01*
X0145626Y0219168D02*
X0088904Y0219168D01*
X0088817Y0218170D02*
X0144416Y0218170D01*
X0143815Y0217171D02*
X0088817Y0217171D01*
X0088817Y0216172D02*
X0143465Y0216172D01*
X0143465Y0215174D02*
X0088817Y0215174D01*
X0088817Y0214175D02*
X0143672Y0214175D01*
X0144085Y0213177D02*
X0088817Y0213177D01*
X0088817Y0212178D02*
X0145068Y0212178D01*
X0057914Y0155083D02*
X0050198Y0155083D01*
X0046615Y0156500D02*
X0046615Y0126500D01*
X0033647Y0099347D02*
X0029561Y0099347D01*
X0028558Y0098348D02*
X0032801Y0098348D01*
X0024084Y0094354D02*
X0012515Y0094354D01*
X0012515Y0093356D02*
X0023056Y0093356D01*
X0022556Y0092357D02*
X0012515Y0092357D01*
X0012515Y0091359D02*
X0022300Y0091359D01*
X0022300Y0090360D02*
X0012515Y0090360D01*
X0012515Y0089362D02*
X0022625Y0089362D01*
X0023223Y0088363D02*
X0012515Y0088363D01*
X0012515Y0087365D02*
X0024486Y0087365D01*
X0024745Y0084369D02*
X0012515Y0084369D01*
X0012515Y0083370D02*
X0023164Y0083370D01*
X0022386Y0082372D02*
X0012515Y0082372D01*
X0012515Y0081373D02*
X0021968Y0081373D01*
X0025800Y0082372D02*
X0026800Y0082372D01*
X0026800Y0083370D02*
X0025800Y0083370D01*
X0025800Y0084369D02*
X0026800Y0084369D01*
X0026800Y0079376D02*
X0025800Y0079376D01*
X0025800Y0078378D02*
X0026800Y0078378D01*
X0026800Y0077379D02*
X0025800Y0077379D01*
X0025800Y0076381D02*
X0026800Y0076381D01*
X0176615Y0022461D02*
X0180918Y0022461D01*
X0182758Y0021463D02*
X0176615Y0021463D01*
X0184417Y0021463D02*
X0192758Y0021463D01*
X0192792Y0021449D02*
X0194383Y0021449D01*
X0195853Y0022058D01*
X0196978Y0023183D01*
X0197587Y0024653D01*
X0197587Y0026244D01*
X0196978Y0027715D01*
X0195853Y0028840D01*
X0194383Y0029449D01*
X0192792Y0029449D01*
X0191322Y0028840D01*
X0190196Y0027715D01*
X0189587Y0026244D01*
X0189587Y0024653D01*
X0190196Y0023183D01*
X0191322Y0022058D01*
X0192792Y0021449D01*
X0194417Y0021463D02*
X0231626Y0021463D01*
X0233115Y0021463D02*
X0234115Y0021463D01*
X0234115Y0022461D02*
X0233115Y0022461D01*
X0233115Y0023460D02*
X0234115Y0023460D01*
X0234115Y0024458D02*
X0233115Y0024458D01*
X0233115Y0027454D02*
X0234115Y0027454D01*
X0234115Y0028452D02*
X0233115Y0028452D01*
X0233115Y0029451D02*
X0234115Y0029451D01*
X0229224Y0024458D02*
X0227513Y0024458D01*
X0227099Y0023460D02*
X0229604Y0023460D01*
X0230290Y0022461D02*
X0226233Y0022461D01*
X0220997Y0022461D02*
X0216233Y0022461D01*
X0217099Y0023460D02*
X0220130Y0023460D01*
X0219717Y0024458D02*
X0217513Y0024458D01*
X0217615Y0025457D02*
X0219615Y0025457D01*
X0219681Y0026455D02*
X0217549Y0026455D01*
X0217135Y0027454D02*
X0220095Y0027454D01*
X0220910Y0028452D02*
X0216319Y0028452D01*
X0210910Y0028452D02*
X0206316Y0028452D01*
X0207134Y0027454D02*
X0210095Y0027454D01*
X0209681Y0026455D02*
X0207547Y0026455D01*
X0207615Y0025457D02*
X0209615Y0025457D01*
X0209717Y0024458D02*
X0207515Y0024458D01*
X0207101Y0023460D02*
X0210130Y0023460D01*
X0210997Y0022461D02*
X0206237Y0022461D01*
X0200993Y0022461D02*
X0196257Y0022461D01*
X0197093Y0023460D02*
X0200129Y0023460D01*
X0199715Y0024458D02*
X0197507Y0024458D01*
X0197587Y0025457D02*
X0199615Y0025457D01*
X0199683Y0026455D02*
X0197500Y0026455D01*
X0197086Y0027454D02*
X0200096Y0027454D01*
X0200914Y0028452D02*
X0196241Y0028452D01*
X0190934Y0028452D02*
X0186241Y0028452D01*
X0187086Y0027454D02*
X0190088Y0027454D01*
X0189675Y0026455D02*
X0187500Y0026455D01*
X0187587Y0025457D02*
X0189587Y0025457D01*
X0189668Y0024458D02*
X0187507Y0024458D01*
X0187093Y0023460D02*
X0190082Y0023460D01*
X0190918Y0022461D02*
X0186257Y0022461D01*
X0250355Y0049591D02*
X0291615Y0049591D01*
X0304115Y0045427D02*
X0271011Y0045427D01*
X0271465Y0044429D02*
X0304115Y0044429D01*
X0304115Y0043430D02*
X0271465Y0043430D01*
X0270870Y0042432D02*
X0304115Y0042432D01*
X0292115Y0023460D02*
X0291115Y0023460D01*
D18*
X0361615Y0084000D02*
X0361615Y0094000D01*
X0436615Y0094000D01*
X0361615Y0086500D02*
X0349115Y0086500D01*
M02*
