G75*
%MOIN*%
%OFA0B0*%
%FSLAX25Y25*%
%IPPOS*%
%LPD*%
%AMOC8*
5,1,8,0,0,1.08239X$1,22.5*
%
%ADD10C,0.06000*%
%ADD11C,0.17000*%
%ADD12C,0.05400*%
%ADD13C,0.07800*%
%ADD14C,0.06496*%
%ADD15C,0.06300*%
%ADD16C,0.02700*%
%ADD17C,0.01000*%
%ADD18C,0.03200*%
D10*
X0036300Y0074743D03*
X0026300Y0080143D03*
X0036300Y0085543D03*
X0026300Y0090943D03*
X0036300Y0096343D03*
X0026300Y0101743D03*
X0036300Y0107143D03*
X0026300Y0112543D03*
X0036300Y0117943D03*
X0054115Y0116500D03*
X0064115Y0116500D03*
X0064115Y0106500D03*
X0054115Y0106500D03*
X0054115Y0096500D03*
X0064115Y0096500D03*
X0064115Y0086500D03*
X0054115Y0086500D03*
X0054115Y0076500D03*
X0064115Y0076500D03*
X0183587Y0025449D03*
X0193587Y0025449D03*
X0203615Y0025496D03*
X0213615Y0025500D03*
X0223615Y0025500D03*
X0233615Y0025500D03*
X0243615Y0025500D03*
X0253615Y0025500D03*
X0329115Y0064000D03*
X0339115Y0064000D03*
X0434115Y0064000D03*
X0444115Y0064000D03*
X0098117Y0192051D03*
X0087317Y0192051D03*
X0076517Y0192051D03*
X0065717Y0192051D03*
X0054917Y0192051D03*
X0060317Y0202051D03*
X0071117Y0202051D03*
X0081917Y0202051D03*
X0092717Y0202051D03*
D11*
X0125817Y0197051D03*
X0027217Y0197051D03*
X0031300Y0145643D03*
X0031300Y0047043D03*
D12*
X0436024Y0109453D03*
X0446024Y0109453D03*
X0446024Y0119453D03*
X0436024Y0119453D03*
X0436024Y0129453D03*
X0446024Y0129453D03*
D13*
X0446615Y0094000D03*
X0436615Y0094000D03*
X0349115Y0096500D03*
X0349115Y0086500D03*
X0349115Y0106500D03*
X0306615Y0104000D03*
X0306615Y0094000D03*
X0306615Y0084000D03*
X0303583Y0066067D03*
X0291615Y0024000D03*
X0281615Y0024000D03*
X0181831Y0068409D03*
X0298603Y0162878D03*
X0379115Y0186500D03*
D14*
X0374528Y0047228D03*
X0374528Y0037228D03*
X0374528Y0027228D03*
X0394528Y0027228D03*
X0394528Y0037228D03*
X0394528Y0047228D03*
D15*
X0333615Y0115500D03*
X0323615Y0115500D03*
X0323615Y0125500D03*
X0333615Y0125500D03*
X0333615Y0135500D03*
X0323615Y0135500D03*
X0323615Y0215500D03*
X0313615Y0215500D03*
X0303615Y0215500D03*
X0293615Y0215500D03*
X0283615Y0215500D03*
X0273615Y0215500D03*
X0263615Y0215500D03*
X0253615Y0215500D03*
X0237615Y0215500D03*
X0227615Y0215500D03*
X0217615Y0215500D03*
X0207615Y0215500D03*
X0197615Y0215500D03*
X0187615Y0215500D03*
X0177615Y0215500D03*
X0167615Y0215500D03*
X0157615Y0215500D03*
X0147615Y0215500D03*
X0343615Y0215500D03*
X0353615Y0215500D03*
X0363615Y0215500D03*
X0373615Y0215500D03*
X0383615Y0215500D03*
X0393615Y0215500D03*
X0403615Y0215500D03*
X0413615Y0215500D03*
D16*
X0350454Y0187465D03*
X0341792Y0189039D03*
X0309115Y0201500D03*
X0304115Y0201500D03*
X0278406Y0187583D03*
X0267776Y0184433D03*
X0258721Y0188370D03*
X0251615Y0189000D03*
X0246320Y0189748D03*
X0239430Y0187976D03*
X0224076Y0173409D03*
X0230769Y0171835D03*
X0230769Y0162780D03*
X0226044Y0160811D03*
X0202028Y0165929D03*
X0198091Y0159236D03*
X0202422Y0152937D03*
X0199272Y0147425D03*
X0198957Y0140260D03*
X0201635Y0132465D03*
X0196871Y0126244D03*
X0201538Y0119650D03*
X0201615Y0106500D03*
X0234115Y0111500D03*
X0236615Y0101500D03*
X0236615Y0096500D03*
X0245335Y0089551D03*
X0241615Y0079000D03*
X0250355Y0072031D03*
X0246812Y0066520D03*
X0250355Y0049591D03*
X0269115Y0044000D03*
X0301615Y0016500D03*
X0192835Y0050004D03*
X0171300Y0038154D03*
X0169331Y0045634D03*
X0169115Y0059000D03*
X0166615Y0064000D03*
X0161615Y0066500D03*
X0149863Y0079276D03*
X0170119Y0085004D03*
X0169725Y0093272D03*
X0169115Y0101500D03*
X0164115Y0106500D03*
X0159115Y0111500D03*
X0151221Y0124374D03*
X0141615Y0129000D03*
X0163032Y0139335D03*
X0179568Y0144846D03*
X0176024Y0152327D03*
X0163032Y0152524D03*
X0141615Y0156500D03*
X0098072Y0124374D03*
X0071615Y0129000D03*
X0066615Y0131500D03*
X0066615Y0139000D03*
X0056615Y0146500D03*
X0057914Y0155083D03*
X0046615Y0156500D03*
X0014115Y0156500D03*
X0044115Y0181500D03*
X0069115Y0176500D03*
X0084115Y0176500D03*
X0087048Y0154886D03*
X0087048Y0142484D03*
X0085631Y0101165D03*
X0104115Y0084000D03*
X0092166Y0079098D03*
X0084115Y0079000D03*
X0091379Y0069256D03*
X0087835Y0064531D03*
X0087835Y0059413D03*
X0088623Y0054295D03*
X0076024Y0046421D03*
X0076418Y0038154D03*
X0059115Y0036500D03*
X0106615Y0036500D03*
X0141615Y0036500D03*
X0141615Y0016500D03*
X0189292Y0068508D03*
X0192835Y0074413D03*
X0250454Y0111205D03*
X0255572Y0109630D03*
X0259902Y0109630D03*
X0272501Y0103724D03*
X0265808Y0102543D03*
X0281950Y0112327D03*
X0289824Y0112327D03*
X0261083Y0118685D03*
X0289036Y0132071D03*
X0291398Y0138764D03*
X0289036Y0144669D03*
X0268564Y0151362D03*
X0211083Y0185614D03*
X0341005Y0148488D03*
X0350060Y0148488D03*
X0368957Y0139827D03*
X0384115Y0129000D03*
X0399115Y0141500D03*
X0410296Y0148882D03*
X0442658Y0173291D03*
X0441477Y0179591D03*
X0361694Y0099138D03*
X0398702Y0078272D03*
X0450099Y0053173D03*
X0329213Y0075673D03*
X0014115Y0036500D03*
D17*
X0012515Y0034777D02*
X0012515Y0034000D01*
X0109115Y0034000D01*
X0109115Y0130500D01*
X0073438Y0130500D01*
X0073965Y0129973D01*
X0073965Y0128027D01*
X0072588Y0126650D01*
X0071086Y0126650D01*
X0072236Y0125500D01*
X0072236Y0125500D01*
X0073115Y0124621D01*
X0073115Y0099621D01*
X0085615Y0087121D01*
X0085615Y0080823D01*
X0086465Y0079973D01*
X0086465Y0079677D01*
X0086520Y0079621D01*
X0086520Y0078379D01*
X0086465Y0078323D01*
X0086465Y0078027D01*
X0085088Y0076650D01*
X0083886Y0076650D01*
X0082249Y0075013D01*
X0082249Y0041863D01*
X0081370Y0040984D01*
X0078768Y0038382D01*
X0078768Y0037180D01*
X0077392Y0035804D01*
X0075445Y0035804D01*
X0074068Y0037180D01*
X0074068Y0039127D01*
X0075445Y0040504D01*
X0076647Y0040504D01*
X0079249Y0043106D01*
X0079249Y0076255D01*
X0081765Y0078771D01*
X0081765Y0079973D01*
X0082615Y0080823D01*
X0082615Y0085879D01*
X0070115Y0098379D01*
X0070115Y0123379D01*
X0068494Y0125000D01*
X0058494Y0125000D01*
X0057615Y0125879D01*
X0055115Y0128379D01*
X0055115Y0144677D01*
X0054265Y0145527D01*
X0054265Y0147473D01*
X0055642Y0148850D01*
X0057588Y0148850D01*
X0058965Y0147473D01*
X0058965Y0145527D01*
X0058115Y0144677D01*
X0058115Y0129621D01*
X0059736Y0128000D01*
X0069292Y0128000D01*
X0069265Y0128027D01*
X0069265Y0129973D01*
X0069792Y0130500D01*
X0068938Y0130500D01*
X0067588Y0129150D01*
X0065642Y0129150D01*
X0064265Y0130527D01*
X0064265Y0132473D01*
X0065642Y0133850D01*
X0067588Y0133850D01*
X0068115Y0133323D01*
X0068115Y0137177D01*
X0067588Y0136650D01*
X0065642Y0136650D01*
X0064265Y0138027D01*
X0064265Y0139973D01*
X0065642Y0141350D01*
X0067588Y0141350D01*
X0068115Y0140823D01*
X0068115Y0159000D01*
X0012515Y0159000D01*
X0012515Y0158223D01*
X0013142Y0158850D01*
X0015088Y0158850D01*
X0016465Y0157473D01*
X0016465Y0155527D01*
X0015088Y0154150D01*
X0013142Y0154150D01*
X0012515Y0154777D01*
X0012515Y0038223D01*
X0013142Y0038850D01*
X0015088Y0038850D01*
X0016465Y0037473D01*
X0016465Y0035527D01*
X0015088Y0034150D01*
X0013142Y0034150D01*
X0012515Y0034777D01*
X0012515Y0034443D02*
X0012848Y0034443D01*
X0015382Y0034443D02*
X0057848Y0034443D01*
X0058142Y0034150D02*
X0060088Y0034150D01*
X0061465Y0035527D01*
X0061465Y0037473D01*
X0060088Y0038850D01*
X0058142Y0038850D01*
X0056765Y0037473D01*
X0056765Y0035527D01*
X0058142Y0034150D01*
X0056850Y0035442D02*
X0016380Y0035442D01*
X0016465Y0036440D02*
X0056765Y0036440D01*
X0056765Y0037439D02*
X0016465Y0037439D01*
X0015501Y0038437D02*
X0027250Y0038437D01*
X0025919Y0038989D02*
X0029410Y0037543D01*
X0033190Y0037543D01*
X0036681Y0038989D01*
X0039354Y0041661D01*
X0040800Y0045153D01*
X0040800Y0048932D01*
X0039354Y0052424D01*
X0036681Y0055096D01*
X0033190Y0056543D01*
X0029410Y0056543D01*
X0025919Y0055096D01*
X0023246Y0052424D01*
X0021800Y0048932D01*
X0021800Y0045153D01*
X0023246Y0041661D01*
X0025919Y0038989D01*
X0025471Y0039436D02*
X0012515Y0039436D01*
X0012515Y0040434D02*
X0024473Y0040434D01*
X0023474Y0041433D02*
X0012515Y0041433D01*
X0012515Y0042432D02*
X0022927Y0042432D01*
X0022514Y0043430D02*
X0012515Y0043430D01*
X0012515Y0044429D02*
X0022100Y0044429D01*
X0021800Y0045427D02*
X0012515Y0045427D01*
X0012515Y0046426D02*
X0021800Y0046426D01*
X0021800Y0047424D02*
X0012515Y0047424D01*
X0012515Y0048423D02*
X0021800Y0048423D01*
X0022003Y0049421D02*
X0012515Y0049421D01*
X0012515Y0050420D02*
X0022416Y0050420D01*
X0022830Y0051418D02*
X0012515Y0051418D01*
X0012515Y0052417D02*
X0023243Y0052417D01*
X0024238Y0053415D02*
X0012515Y0053415D01*
X0012515Y0054414D02*
X0025236Y0054414D01*
X0026681Y0055412D02*
X0012515Y0055412D01*
X0012515Y0056411D02*
X0029092Y0056411D01*
X0033508Y0056411D02*
X0079249Y0056411D01*
X0079249Y0057409D02*
X0012515Y0057409D01*
X0012515Y0058408D02*
X0079249Y0058408D01*
X0079249Y0059406D02*
X0012515Y0059406D01*
X0012515Y0060405D02*
X0079249Y0060405D01*
X0079249Y0061403D02*
X0012515Y0061403D01*
X0012515Y0062402D02*
X0079249Y0062402D01*
X0079249Y0063400D02*
X0012515Y0063400D01*
X0012515Y0064399D02*
X0079249Y0064399D01*
X0079249Y0065397D02*
X0012515Y0065397D01*
X0012515Y0066396D02*
X0079249Y0066396D01*
X0079249Y0067394D02*
X0012515Y0067394D01*
X0012515Y0068393D02*
X0079249Y0068393D01*
X0079249Y0069391D02*
X0012515Y0069391D01*
X0012515Y0070390D02*
X0079249Y0070390D01*
X0079249Y0071388D02*
X0038603Y0071388D01*
X0038566Y0071351D02*
X0039691Y0072477D01*
X0040300Y0073947D01*
X0040300Y0075538D01*
X0039691Y0077008D01*
X0038566Y0078134D01*
X0037096Y0078743D01*
X0035504Y0078743D01*
X0034034Y0078134D01*
X0032909Y0077008D01*
X0032300Y0075538D01*
X0032300Y0073947D01*
X0032909Y0072477D01*
X0034034Y0071351D01*
X0035504Y0070743D01*
X0037096Y0070743D01*
X0038566Y0071351D01*
X0039601Y0072387D02*
X0079249Y0072387D01*
X0079249Y0073385D02*
X0066657Y0073385D01*
X0066381Y0073109D02*
X0067506Y0074234D01*
X0068115Y0075704D01*
X0068115Y0077296D01*
X0067506Y0078766D01*
X0066381Y0079891D01*
X0064911Y0080500D01*
X0063319Y0080500D01*
X0061849Y0079891D01*
X0060724Y0078766D01*
X0060115Y0077296D01*
X0060115Y0075704D01*
X0060724Y0074234D01*
X0061849Y0073109D01*
X0063319Y0072500D01*
X0064911Y0072500D01*
X0066381Y0073109D01*
X0067568Y0074384D02*
X0079249Y0074384D01*
X0079249Y0075382D02*
X0067982Y0075382D01*
X0068115Y0076381D02*
X0079375Y0076381D01*
X0080373Y0077379D02*
X0068080Y0077379D01*
X0067667Y0078378D02*
X0081372Y0078378D01*
X0081765Y0079376D02*
X0066895Y0079376D01*
X0065212Y0080375D02*
X0082167Y0080375D01*
X0082615Y0081373D02*
X0030120Y0081373D01*
X0030300Y0080938D02*
X0029691Y0082408D01*
X0028566Y0083534D01*
X0027096Y0084143D01*
X0025504Y0084143D01*
X0024034Y0083534D01*
X0022909Y0082408D01*
X0022300Y0080938D01*
X0022300Y0079347D01*
X0022909Y0077877D01*
X0024034Y0076751D01*
X0025504Y0076143D01*
X0027096Y0076143D01*
X0028566Y0076751D01*
X0029691Y0077877D01*
X0030300Y0079347D01*
X0030300Y0080938D01*
X0030300Y0080375D02*
X0053017Y0080375D01*
X0053319Y0080500D02*
X0051849Y0079891D01*
X0050724Y0078766D01*
X0050115Y0077296D01*
X0050115Y0075704D01*
X0050724Y0074234D01*
X0051849Y0073109D01*
X0053319Y0072500D01*
X0054911Y0072500D01*
X0056381Y0073109D01*
X0057506Y0074234D01*
X0058115Y0075704D01*
X0058115Y0077296D01*
X0057506Y0078766D01*
X0056381Y0079891D01*
X0054911Y0080500D01*
X0053319Y0080500D01*
X0055212Y0080375D02*
X0063017Y0080375D01*
X0061335Y0079376D02*
X0056895Y0079376D01*
X0057667Y0078378D02*
X0060563Y0078378D01*
X0060150Y0077379D02*
X0058080Y0077379D01*
X0058115Y0076381D02*
X0060115Y0076381D01*
X0060248Y0075382D02*
X0057982Y0075382D01*
X0057568Y0074384D02*
X0060662Y0074384D01*
X0061573Y0073385D02*
X0056657Y0073385D01*
X0051573Y0073385D02*
X0040067Y0073385D01*
X0040300Y0074384D02*
X0050662Y0074384D01*
X0050248Y0075382D02*
X0040300Y0075382D01*
X0039951Y0076381D02*
X0050115Y0076381D01*
X0050150Y0077379D02*
X0039320Y0077379D01*
X0037976Y0078378D02*
X0050563Y0078378D01*
X0051335Y0079376D02*
X0030300Y0079376D01*
X0029899Y0078378D02*
X0034624Y0078378D01*
X0033280Y0077379D02*
X0029194Y0077379D01*
X0027671Y0076381D02*
X0032649Y0076381D01*
X0032300Y0075382D02*
X0012515Y0075382D01*
X0012515Y0074384D02*
X0032300Y0074384D01*
X0032533Y0073385D02*
X0012515Y0073385D01*
X0012515Y0072387D02*
X0032999Y0072387D01*
X0033997Y0071388D02*
X0012515Y0071388D01*
X0012515Y0076381D02*
X0024929Y0076381D01*
X0023406Y0077379D02*
X0012515Y0077379D01*
X0012515Y0078378D02*
X0022701Y0078378D01*
X0022300Y0079376D02*
X0012515Y0079376D01*
X0012515Y0080375D02*
X0022300Y0080375D01*
X0022480Y0081373D02*
X0012515Y0081373D01*
X0012515Y0082372D02*
X0022894Y0082372D01*
X0023871Y0083370D02*
X0012515Y0083370D01*
X0012515Y0084369D02*
X0032457Y0084369D01*
X0032300Y0084747D02*
X0032909Y0083277D01*
X0034034Y0082151D01*
X0035504Y0081543D01*
X0037096Y0081543D01*
X0038566Y0082151D01*
X0039691Y0083277D01*
X0040300Y0084747D01*
X0040300Y0086338D01*
X0039691Y0087808D01*
X0038566Y0088934D01*
X0037096Y0089543D01*
X0035504Y0089543D01*
X0034034Y0088934D01*
X0032909Y0087808D01*
X0032300Y0086338D01*
X0032300Y0084747D01*
X0032300Y0085368D02*
X0012515Y0085368D01*
X0012515Y0086366D02*
X0032312Y0086366D01*
X0032725Y0087365D02*
X0028114Y0087365D01*
X0028566Y0087551D02*
X0029691Y0088677D01*
X0030300Y0090147D01*
X0030300Y0091738D01*
X0029691Y0093208D01*
X0028566Y0094334D01*
X0027096Y0094943D01*
X0025504Y0094943D01*
X0024034Y0094334D01*
X0022909Y0093208D01*
X0022300Y0091738D01*
X0022300Y0090147D01*
X0022909Y0088677D01*
X0024034Y0087551D01*
X0025504Y0086943D01*
X0027096Y0086943D01*
X0028566Y0087551D01*
X0029377Y0088363D02*
X0033464Y0088363D01*
X0035067Y0089362D02*
X0029975Y0089362D01*
X0030300Y0090360D02*
X0052981Y0090360D01*
X0053319Y0090500D02*
X0051849Y0089891D01*
X0050724Y0088766D01*
X0050115Y0087296D01*
X0050115Y0085704D01*
X0050724Y0084234D01*
X0051849Y0083109D01*
X0053319Y0082500D01*
X0054911Y0082500D01*
X0056381Y0083109D01*
X0057506Y0084234D01*
X0058115Y0085704D01*
X0058115Y0087296D01*
X0057506Y0088766D01*
X0056381Y0089891D01*
X0054911Y0090500D01*
X0053319Y0090500D01*
X0055248Y0090360D02*
X0062981Y0090360D01*
X0063319Y0090500D02*
X0061849Y0089891D01*
X0060724Y0088766D01*
X0060115Y0087296D01*
X0060115Y0085704D01*
X0060724Y0084234D01*
X0061849Y0083109D01*
X0063319Y0082500D01*
X0064911Y0082500D01*
X0066381Y0083109D01*
X0067506Y0084234D01*
X0068115Y0085704D01*
X0068115Y0087296D01*
X0067506Y0088766D01*
X0066381Y0089891D01*
X0064911Y0090500D01*
X0063319Y0090500D01*
X0065248Y0090360D02*
X0078134Y0090360D01*
X0079132Y0089362D02*
X0066910Y0089362D01*
X0067673Y0088363D02*
X0080131Y0088363D01*
X0081129Y0087365D02*
X0068086Y0087365D01*
X0068115Y0086366D02*
X0082128Y0086366D01*
X0082615Y0085368D02*
X0067975Y0085368D01*
X0067562Y0084369D02*
X0082615Y0084369D01*
X0082615Y0083370D02*
X0066642Y0083370D01*
X0061588Y0083370D02*
X0056642Y0083370D01*
X0057562Y0084369D02*
X0060668Y0084369D01*
X0060254Y0085368D02*
X0057975Y0085368D01*
X0058115Y0086366D02*
X0060115Y0086366D01*
X0060144Y0087365D02*
X0058086Y0087365D01*
X0057673Y0088363D02*
X0060557Y0088363D01*
X0061320Y0089362D02*
X0056910Y0089362D01*
X0054911Y0092500D02*
X0053319Y0092500D01*
X0051849Y0093109D01*
X0050724Y0094234D01*
X0050115Y0095704D01*
X0050115Y0097296D01*
X0050724Y0098766D01*
X0051849Y0099891D01*
X0053319Y0100500D01*
X0054911Y0100500D01*
X0056381Y0099891D01*
X0057506Y0098766D01*
X0058115Y0097296D01*
X0058115Y0095704D01*
X0057506Y0094234D01*
X0056381Y0093109D01*
X0054911Y0092500D01*
X0056627Y0093356D02*
X0061602Y0093356D01*
X0061849Y0093109D02*
X0063319Y0092500D01*
X0064911Y0092500D01*
X0066381Y0093109D01*
X0067506Y0094234D01*
X0068115Y0095704D01*
X0068115Y0097296D01*
X0067506Y0098766D01*
X0066381Y0099891D01*
X0064911Y0100500D01*
X0063319Y0100500D01*
X0061849Y0099891D01*
X0060724Y0098766D01*
X0060115Y0097296D01*
X0060115Y0095704D01*
X0060724Y0094234D01*
X0061849Y0093109D01*
X0060674Y0094354D02*
X0057556Y0094354D01*
X0057969Y0095353D02*
X0060261Y0095353D01*
X0060115Y0096351D02*
X0058115Y0096351D01*
X0058093Y0097350D02*
X0060137Y0097350D01*
X0060551Y0098348D02*
X0057679Y0098348D01*
X0056925Y0099347D02*
X0061305Y0099347D01*
X0062946Y0100345D02*
X0055284Y0100345D01*
X0054911Y0102500D02*
X0053319Y0102500D01*
X0051849Y0103109D01*
X0050724Y0104234D01*
X0050115Y0105704D01*
X0050115Y0107296D01*
X0050724Y0108766D01*
X0051849Y0109891D01*
X0053319Y0110500D01*
X0054911Y0110500D01*
X0056381Y0109891D01*
X0057506Y0108766D01*
X0058115Y0107296D01*
X0058115Y0105704D01*
X0057506Y0104234D01*
X0056381Y0103109D01*
X0054911Y0102500D01*
X0056613Y0103341D02*
X0061617Y0103341D01*
X0061849Y0103109D02*
X0063319Y0102500D01*
X0064911Y0102500D01*
X0066381Y0103109D01*
X0067506Y0104234D01*
X0068115Y0105704D01*
X0068115Y0107296D01*
X0067506Y0108766D01*
X0066381Y0109891D01*
X0064911Y0110500D01*
X0063319Y0110500D01*
X0061849Y0109891D01*
X0060724Y0108766D01*
X0060115Y0107296D01*
X0060115Y0105704D01*
X0060724Y0104234D01*
X0061849Y0103109D01*
X0060680Y0104339D02*
X0057549Y0104339D01*
X0057963Y0105338D02*
X0060267Y0105338D01*
X0060115Y0106336D02*
X0058115Y0106336D01*
X0058099Y0107335D02*
X0060131Y0107335D01*
X0060545Y0108333D02*
X0057685Y0108333D01*
X0056940Y0109332D02*
X0061290Y0109332D01*
X0062910Y0110330D02*
X0055320Y0110330D01*
X0054911Y0112500D02*
X0053319Y0112500D01*
X0051849Y0113109D01*
X0050724Y0114234D01*
X0050115Y0115704D01*
X0050115Y0117296D01*
X0050724Y0118766D01*
X0051849Y0119891D01*
X0053319Y0120500D01*
X0054911Y0120500D01*
X0056381Y0119891D01*
X0057506Y0118766D01*
X0058115Y0117296D01*
X0058115Y0115704D01*
X0057506Y0114234D01*
X0056381Y0113109D01*
X0054911Y0112500D01*
X0056598Y0113326D02*
X0061632Y0113326D01*
X0061849Y0113109D02*
X0063319Y0112500D01*
X0064911Y0112500D01*
X0066381Y0113109D01*
X0067506Y0114234D01*
X0068115Y0115704D01*
X0068115Y0117296D01*
X0067506Y0118766D01*
X0066381Y0119891D01*
X0064911Y0120500D01*
X0063319Y0120500D01*
X0061849Y0119891D01*
X0060724Y0118766D01*
X0060115Y0117296D01*
X0060115Y0115704D01*
X0060724Y0114234D01*
X0061849Y0113109D01*
X0060687Y0114324D02*
X0057543Y0114324D01*
X0057957Y0115323D02*
X0060273Y0115323D01*
X0060115Y0116321D02*
X0058115Y0116321D01*
X0058105Y0117320D02*
X0060125Y0117320D01*
X0060539Y0118318D02*
X0057691Y0118318D01*
X0056955Y0119317D02*
X0061275Y0119317D01*
X0062874Y0120315D02*
X0055356Y0120315D01*
X0052874Y0120315D02*
X0039584Y0120315D01*
X0039691Y0120208D02*
X0038566Y0121334D01*
X0037096Y0121943D01*
X0035504Y0121943D01*
X0034034Y0121334D01*
X0032909Y0120208D01*
X0032300Y0118738D01*
X0032300Y0117147D01*
X0032909Y0115677D01*
X0034034Y0114551D01*
X0035504Y0113943D01*
X0037096Y0113943D01*
X0038566Y0114551D01*
X0039691Y0115677D01*
X0040300Y0117147D01*
X0040300Y0118738D01*
X0039691Y0120208D01*
X0040060Y0119317D02*
X0051275Y0119317D01*
X0050539Y0118318D02*
X0040300Y0118318D01*
X0040300Y0117320D02*
X0050125Y0117320D01*
X0050115Y0116321D02*
X0039958Y0116321D01*
X0039337Y0115323D02*
X0050273Y0115323D01*
X0050687Y0114324D02*
X0038017Y0114324D01*
X0034583Y0114324D02*
X0029892Y0114324D01*
X0029691Y0114808D02*
X0028566Y0115934D01*
X0027096Y0116543D01*
X0025504Y0116543D01*
X0024034Y0115934D01*
X0022909Y0114808D01*
X0022300Y0113338D01*
X0022300Y0111747D01*
X0022909Y0110277D01*
X0024034Y0109151D01*
X0025504Y0108543D01*
X0027096Y0108543D01*
X0028566Y0109151D01*
X0029691Y0110277D01*
X0030300Y0111747D01*
X0030300Y0113338D01*
X0029691Y0114808D01*
X0029177Y0115323D02*
X0033263Y0115323D01*
X0032642Y0116321D02*
X0027630Y0116321D01*
X0024970Y0116321D02*
X0012515Y0116321D01*
X0012515Y0115323D02*
X0023423Y0115323D01*
X0022708Y0114324D02*
X0012515Y0114324D01*
X0012515Y0113326D02*
X0022300Y0113326D01*
X0022300Y0112327D02*
X0012515Y0112327D01*
X0012515Y0111329D02*
X0022473Y0111329D01*
X0022887Y0110330D02*
X0012515Y0110330D01*
X0012515Y0109332D02*
X0023854Y0109332D01*
X0028746Y0109332D02*
X0032877Y0109332D01*
X0032909Y0109408D02*
X0032300Y0107938D01*
X0032300Y0106347D01*
X0032909Y0104877D01*
X0034034Y0103751D01*
X0035504Y0103143D01*
X0037096Y0103143D01*
X0038566Y0103751D01*
X0039691Y0104877D01*
X0040300Y0106347D01*
X0040300Y0107938D01*
X0039691Y0109408D01*
X0038566Y0110534D01*
X0037096Y0111143D01*
X0035504Y0111143D01*
X0034034Y0110534D01*
X0032909Y0109408D01*
X0032464Y0108333D02*
X0012515Y0108333D01*
X0012515Y0107335D02*
X0032300Y0107335D01*
X0032304Y0106336D02*
X0012515Y0106336D01*
X0012515Y0105338D02*
X0024527Y0105338D01*
X0024034Y0105134D02*
X0025504Y0105743D01*
X0027096Y0105743D01*
X0028566Y0105134D01*
X0029691Y0104008D01*
X0030300Y0102538D01*
X0030300Y0100947D01*
X0029691Y0099477D01*
X0028566Y0098351D01*
X0027096Y0097743D01*
X0025504Y0097743D01*
X0024034Y0098351D01*
X0022909Y0099477D01*
X0022300Y0100947D01*
X0022300Y0102538D01*
X0022909Y0104008D01*
X0024034Y0105134D01*
X0023240Y0104339D02*
X0012515Y0104339D01*
X0012515Y0103341D02*
X0022632Y0103341D01*
X0022300Y0102342D02*
X0012515Y0102342D01*
X0012515Y0101344D02*
X0022300Y0101344D01*
X0022549Y0100345D02*
X0012515Y0100345D01*
X0012515Y0099347D02*
X0023039Y0099347D01*
X0024042Y0098348D02*
X0012515Y0098348D01*
X0012515Y0097350D02*
X0032388Y0097350D01*
X0032300Y0097138D02*
X0032300Y0095547D01*
X0032909Y0094077D01*
X0034034Y0092951D01*
X0035504Y0092343D01*
X0037096Y0092343D01*
X0038566Y0092951D01*
X0039691Y0094077D01*
X0040300Y0095547D01*
X0040300Y0097138D01*
X0039691Y0098608D01*
X0038566Y0099734D01*
X0037096Y0100343D01*
X0035504Y0100343D01*
X0034034Y0099734D01*
X0032909Y0098608D01*
X0032300Y0097138D01*
X0032300Y0096351D02*
X0012515Y0096351D01*
X0012515Y0095353D02*
X0032380Y0095353D01*
X0032794Y0094354D02*
X0028516Y0094354D01*
X0029544Y0093356D02*
X0033630Y0093356D01*
X0035469Y0092357D02*
X0030044Y0092357D01*
X0030300Y0091359D02*
X0077135Y0091359D01*
X0076137Y0092357D02*
X0037131Y0092357D01*
X0038970Y0093356D02*
X0051602Y0093356D01*
X0050674Y0094354D02*
X0039806Y0094354D01*
X0040220Y0095353D02*
X0050261Y0095353D01*
X0050115Y0096351D02*
X0040300Y0096351D01*
X0040212Y0097350D02*
X0050137Y0097350D01*
X0050551Y0098348D02*
X0039799Y0098348D01*
X0038953Y0099347D02*
X0051305Y0099347D01*
X0052946Y0100345D02*
X0030051Y0100345D01*
X0030300Y0101344D02*
X0070115Y0101344D01*
X0070115Y0102342D02*
X0030300Y0102342D01*
X0029968Y0103341D02*
X0035026Y0103341D01*
X0033446Y0104339D02*
X0029360Y0104339D01*
X0028073Y0105338D02*
X0032718Y0105338D01*
X0037574Y0103341D02*
X0051617Y0103341D01*
X0050680Y0104339D02*
X0039154Y0104339D01*
X0039882Y0105338D02*
X0050267Y0105338D01*
X0050115Y0106336D02*
X0040296Y0106336D01*
X0040300Y0107335D02*
X0050131Y0107335D01*
X0050545Y0108333D02*
X0040136Y0108333D01*
X0039723Y0109332D02*
X0051290Y0109332D01*
X0052910Y0110330D02*
X0038769Y0110330D01*
X0033831Y0110330D02*
X0029713Y0110330D01*
X0030127Y0111329D02*
X0070115Y0111329D01*
X0070115Y0112327D02*
X0030300Y0112327D01*
X0030300Y0113326D02*
X0051632Y0113326D01*
X0065320Y0110330D02*
X0070115Y0110330D01*
X0070115Y0109332D02*
X0066940Y0109332D01*
X0067685Y0108333D02*
X0070115Y0108333D01*
X0070115Y0107335D02*
X0068099Y0107335D01*
X0068115Y0106336D02*
X0070115Y0106336D01*
X0070115Y0105338D02*
X0067963Y0105338D01*
X0067549Y0104339D02*
X0070115Y0104339D01*
X0070115Y0103341D02*
X0066613Y0103341D01*
X0065284Y0100345D02*
X0070115Y0100345D01*
X0070115Y0099347D02*
X0066925Y0099347D01*
X0067679Y0098348D02*
X0070145Y0098348D01*
X0071144Y0097350D02*
X0068093Y0097350D01*
X0068115Y0096351D02*
X0072142Y0096351D01*
X0073141Y0095353D02*
X0067969Y0095353D01*
X0067556Y0094354D02*
X0074140Y0094354D01*
X0075138Y0093356D02*
X0066627Y0093356D01*
X0074388Y0098348D02*
X0109115Y0098348D01*
X0109115Y0097350D02*
X0075387Y0097350D01*
X0076385Y0096351D02*
X0109115Y0096351D01*
X0109115Y0095353D02*
X0077384Y0095353D01*
X0078382Y0094354D02*
X0109115Y0094354D01*
X0109115Y0093356D02*
X0079381Y0093356D01*
X0080379Y0092357D02*
X0109115Y0092357D01*
X0109115Y0091359D02*
X0081378Y0091359D01*
X0082376Y0090360D02*
X0109115Y0090360D01*
X0109115Y0089362D02*
X0083375Y0089362D01*
X0084373Y0088363D02*
X0109115Y0088363D01*
X0109115Y0087365D02*
X0085372Y0087365D01*
X0085615Y0086366D02*
X0109115Y0086366D01*
X0109115Y0085368D02*
X0106071Y0085368D01*
X0106465Y0084973D02*
X0105088Y0086350D01*
X0103142Y0086350D01*
X0101765Y0084973D01*
X0101765Y0083027D01*
X0103142Y0081650D01*
X0105088Y0081650D01*
X0106465Y0083027D01*
X0106465Y0084973D01*
X0106465Y0084369D02*
X0109115Y0084369D01*
X0109115Y0083370D02*
X0106465Y0083370D01*
X0105810Y0082372D02*
X0109115Y0082372D01*
X0109115Y0081373D02*
X0093214Y0081373D01*
X0093140Y0081448D02*
X0091193Y0081448D01*
X0089816Y0080072D01*
X0089816Y0078125D01*
X0091193Y0076748D01*
X0093140Y0076748D01*
X0094516Y0078125D01*
X0094516Y0080072D01*
X0093140Y0081448D01*
X0094213Y0080375D02*
X0109115Y0080375D01*
X0109115Y0079376D02*
X0094516Y0079376D01*
X0094516Y0078378D02*
X0109115Y0078378D01*
X0109115Y0077379D02*
X0093771Y0077379D01*
X0090562Y0077379D02*
X0085818Y0077379D01*
X0086520Y0078378D02*
X0089816Y0078378D01*
X0089816Y0079376D02*
X0086520Y0079376D01*
X0086063Y0080375D02*
X0090119Y0080375D01*
X0091118Y0081373D02*
X0085615Y0081373D01*
X0085615Y0082372D02*
X0102420Y0082372D01*
X0101765Y0083370D02*
X0085615Y0083370D01*
X0085615Y0084369D02*
X0101765Y0084369D01*
X0102159Y0085368D02*
X0085615Y0085368D01*
X0084115Y0086500D02*
X0071615Y0099000D01*
X0071615Y0124000D01*
X0069115Y0126500D01*
X0059115Y0126500D01*
X0056615Y0129000D01*
X0056615Y0146500D01*
X0058165Y0148274D02*
X0068115Y0148274D01*
X0068115Y0149272D02*
X0040079Y0149272D01*
X0040493Y0148274D02*
X0055065Y0148274D01*
X0054265Y0147275D02*
X0040800Y0147275D01*
X0040800Y0147532D02*
X0039354Y0151024D01*
X0036681Y0153696D01*
X0033190Y0155143D01*
X0029410Y0155143D01*
X0025919Y0153696D01*
X0023246Y0151024D01*
X0021800Y0147532D01*
X0021800Y0143753D01*
X0023246Y0140261D01*
X0025919Y0137589D01*
X0029410Y0136143D01*
X0033190Y0136143D01*
X0036681Y0137589D01*
X0039354Y0140261D01*
X0040800Y0143753D01*
X0040800Y0147532D01*
X0040800Y0146277D02*
X0054265Y0146277D01*
X0054513Y0145278D02*
X0040800Y0145278D01*
X0040800Y0144280D02*
X0055115Y0144280D01*
X0055115Y0143281D02*
X0040605Y0143281D01*
X0040191Y0142283D02*
X0055115Y0142283D01*
X0055115Y0141284D02*
X0039777Y0141284D01*
X0039364Y0140286D02*
X0055115Y0140286D01*
X0055115Y0139287D02*
X0038380Y0139287D01*
X0037381Y0138289D02*
X0055115Y0138289D01*
X0055115Y0137290D02*
X0035960Y0137290D01*
X0033550Y0136292D02*
X0055115Y0136292D01*
X0055115Y0135293D02*
X0012515Y0135293D01*
X0012515Y0134295D02*
X0055115Y0134295D01*
X0055115Y0133296D02*
X0012515Y0133296D01*
X0012515Y0132298D02*
X0055115Y0132298D01*
X0055115Y0131299D02*
X0012515Y0131299D01*
X0012515Y0130301D02*
X0055115Y0130301D01*
X0055115Y0129302D02*
X0012515Y0129302D01*
X0012515Y0128303D02*
X0055190Y0128303D01*
X0056189Y0127305D02*
X0012515Y0127305D01*
X0012515Y0126306D02*
X0057187Y0126306D01*
X0058186Y0125308D02*
X0012515Y0125308D01*
X0012515Y0124309D02*
X0069184Y0124309D01*
X0070115Y0123311D02*
X0012515Y0123311D01*
X0012515Y0122312D02*
X0070115Y0122312D01*
X0070115Y0121314D02*
X0038585Y0121314D01*
X0034015Y0121314D02*
X0012515Y0121314D01*
X0012515Y0120315D02*
X0033016Y0120315D01*
X0032540Y0119317D02*
X0012515Y0119317D01*
X0012515Y0118318D02*
X0032300Y0118318D01*
X0032300Y0117320D02*
X0012515Y0117320D01*
X0012515Y0136292D02*
X0029050Y0136292D01*
X0026640Y0137290D02*
X0012515Y0137290D01*
X0012515Y0138289D02*
X0025219Y0138289D01*
X0024220Y0139287D02*
X0012515Y0139287D01*
X0012515Y0140286D02*
X0023236Y0140286D01*
X0022823Y0141284D02*
X0012515Y0141284D01*
X0012515Y0142283D02*
X0022409Y0142283D01*
X0021995Y0143281D02*
X0012515Y0143281D01*
X0012515Y0144280D02*
X0021800Y0144280D01*
X0021800Y0145278D02*
X0012515Y0145278D01*
X0012515Y0146277D02*
X0021800Y0146277D01*
X0021800Y0147275D02*
X0012515Y0147275D01*
X0012515Y0148274D02*
X0022107Y0148274D01*
X0022521Y0149272D02*
X0012515Y0149272D01*
X0012515Y0150271D02*
X0022934Y0150271D01*
X0023492Y0151269D02*
X0012515Y0151269D01*
X0012515Y0152268D02*
X0024490Y0152268D01*
X0025489Y0153266D02*
X0012515Y0153266D01*
X0012515Y0154265D02*
X0013027Y0154265D01*
X0015203Y0154265D02*
X0027291Y0154265D01*
X0035309Y0154265D02*
X0045527Y0154265D01*
X0045642Y0154150D02*
X0047588Y0154150D01*
X0048965Y0155527D01*
X0048965Y0157473D01*
X0047588Y0158850D01*
X0045642Y0158850D01*
X0044265Y0157473D01*
X0044265Y0155527D01*
X0045642Y0154150D01*
X0044528Y0155263D02*
X0016202Y0155263D01*
X0016465Y0156262D02*
X0044265Y0156262D01*
X0044265Y0157260D02*
X0016465Y0157260D01*
X0015680Y0158259D02*
X0045050Y0158259D01*
X0048180Y0158259D02*
X0068115Y0158259D01*
X0068115Y0157260D02*
X0059060Y0157260D01*
X0058888Y0157433D02*
X0056941Y0157433D01*
X0055564Y0156056D01*
X0055564Y0154109D01*
X0056941Y0152733D01*
X0058888Y0152733D01*
X0060264Y0154109D01*
X0060264Y0156056D01*
X0058888Y0157433D01*
X0060058Y0156262D02*
X0068115Y0156262D01*
X0068115Y0155263D02*
X0060264Y0155263D01*
X0060264Y0154265D02*
X0068115Y0154265D01*
X0068115Y0153266D02*
X0059421Y0153266D01*
X0056407Y0153266D02*
X0037111Y0153266D01*
X0038110Y0152268D02*
X0068115Y0152268D01*
X0068115Y0151269D02*
X0039108Y0151269D01*
X0039666Y0150271D02*
X0068115Y0150271D01*
X0068115Y0147275D02*
X0058965Y0147275D01*
X0058965Y0146277D02*
X0068115Y0146277D01*
X0068115Y0145278D02*
X0058717Y0145278D01*
X0058115Y0144280D02*
X0068115Y0144280D01*
X0068115Y0143281D02*
X0058115Y0143281D01*
X0058115Y0142283D02*
X0068115Y0142283D01*
X0068115Y0141284D02*
X0067654Y0141284D01*
X0065576Y0141284D02*
X0058115Y0141284D01*
X0058115Y0140286D02*
X0064577Y0140286D01*
X0064265Y0139287D02*
X0058115Y0139287D01*
X0058115Y0138289D02*
X0064265Y0138289D01*
X0065001Y0137290D02*
X0058115Y0137290D01*
X0058115Y0136292D02*
X0068115Y0136292D01*
X0068115Y0135293D02*
X0058115Y0135293D01*
X0058115Y0134295D02*
X0068115Y0134295D01*
X0065088Y0133296D02*
X0058115Y0133296D01*
X0058115Y0132298D02*
X0064265Y0132298D01*
X0064265Y0131299D02*
X0058115Y0131299D01*
X0058115Y0130301D02*
X0064491Y0130301D01*
X0065490Y0129302D02*
X0058434Y0129302D01*
X0059433Y0128303D02*
X0069265Y0128303D01*
X0069265Y0129302D02*
X0067740Y0129302D01*
X0068739Y0130301D02*
X0069592Y0130301D01*
X0073638Y0130301D02*
X0109115Y0130301D01*
X0109115Y0129302D02*
X0073965Y0129302D01*
X0073965Y0128303D02*
X0109115Y0128303D01*
X0109115Y0127305D02*
X0073243Y0127305D01*
X0071430Y0126306D02*
X0096681Y0126306D01*
X0097098Y0126724D02*
X0095722Y0125347D01*
X0095722Y0123401D01*
X0097098Y0122024D01*
X0099045Y0122024D01*
X0100422Y0123401D01*
X0100422Y0125347D01*
X0099045Y0126724D01*
X0097098Y0126724D01*
X0095722Y0125308D02*
X0072428Y0125308D01*
X0073115Y0124309D02*
X0095722Y0124309D01*
X0095811Y0123311D02*
X0073115Y0123311D01*
X0073115Y0122312D02*
X0096810Y0122312D01*
X0099333Y0122312D02*
X0109115Y0122312D01*
X0109115Y0121314D02*
X0073115Y0121314D01*
X0073115Y0120315D02*
X0109115Y0120315D01*
X0109115Y0119317D02*
X0073115Y0119317D01*
X0073115Y0118318D02*
X0109115Y0118318D01*
X0109115Y0117320D02*
X0073115Y0117320D01*
X0073115Y0116321D02*
X0109115Y0116321D01*
X0109115Y0115323D02*
X0073115Y0115323D01*
X0073115Y0114324D02*
X0109115Y0114324D01*
X0109115Y0113326D02*
X0073115Y0113326D01*
X0073115Y0112327D02*
X0109115Y0112327D01*
X0109115Y0111329D02*
X0073115Y0111329D01*
X0073115Y0110330D02*
X0109115Y0110330D01*
X0109115Y0109332D02*
X0073115Y0109332D01*
X0073115Y0108333D02*
X0109115Y0108333D01*
X0109115Y0107335D02*
X0073115Y0107335D01*
X0073115Y0106336D02*
X0109115Y0106336D01*
X0109115Y0105338D02*
X0073115Y0105338D01*
X0073115Y0104339D02*
X0109115Y0104339D01*
X0109115Y0103341D02*
X0086779Y0103341D01*
X0086604Y0103515D02*
X0084657Y0103515D01*
X0083281Y0102139D01*
X0083281Y0100192D01*
X0084657Y0098815D01*
X0086604Y0098815D01*
X0087981Y0100192D01*
X0087981Y0102139D01*
X0086604Y0103515D01*
X0087777Y0102342D02*
X0109115Y0102342D01*
X0109115Y0101344D02*
X0087981Y0101344D01*
X0087981Y0100345D02*
X0109115Y0100345D01*
X0109115Y0099347D02*
X0087135Y0099347D01*
X0084126Y0099347D02*
X0073390Y0099347D01*
X0073115Y0100345D02*
X0083281Y0100345D01*
X0083281Y0101344D02*
X0073115Y0101344D01*
X0073115Y0102342D02*
X0083484Y0102342D01*
X0084483Y0103341D02*
X0073115Y0103341D01*
X0070115Y0113326D02*
X0066598Y0113326D01*
X0067543Y0114324D02*
X0070115Y0114324D01*
X0070115Y0115323D02*
X0067957Y0115323D01*
X0068115Y0116321D02*
X0070115Y0116321D01*
X0070115Y0117320D02*
X0068105Y0117320D01*
X0067691Y0118318D02*
X0070115Y0118318D01*
X0070115Y0119317D02*
X0066955Y0119317D01*
X0065356Y0120315D02*
X0070115Y0120315D01*
X0099463Y0126306D02*
X0109115Y0126306D01*
X0109115Y0125308D02*
X0100422Y0125308D01*
X0100422Y0124309D02*
X0109115Y0124309D01*
X0109115Y0123311D02*
X0100332Y0123311D01*
X0139115Y0123311D02*
X0148961Y0123311D01*
X0148871Y0123401D02*
X0150248Y0122024D01*
X0152195Y0122024D01*
X0153571Y0123401D01*
X0153571Y0125347D01*
X0152195Y0126724D01*
X0150248Y0126724D01*
X0148871Y0125347D01*
X0148871Y0123401D01*
X0148871Y0124309D02*
X0139115Y0124309D01*
X0139115Y0125308D02*
X0148871Y0125308D01*
X0149830Y0126306D02*
X0139115Y0126306D01*
X0139115Y0127305D02*
X0139987Y0127305D01*
X0140642Y0126650D02*
X0142588Y0126650D01*
X0143965Y0128027D01*
X0143965Y0129973D01*
X0142588Y0131350D01*
X0140642Y0131350D01*
X0139265Y0129973D01*
X0139265Y0128027D01*
X0140642Y0126650D01*
X0139265Y0128303D02*
X0139115Y0128303D01*
X0139115Y0129302D02*
X0139265Y0129302D01*
X0139115Y0130301D02*
X0139592Y0130301D01*
X0139115Y0131299D02*
X0140591Y0131299D01*
X0139115Y0132298D02*
X0172791Y0132298D01*
X0173790Y0133296D02*
X0139115Y0133296D01*
X0139115Y0134295D02*
X0174788Y0134295D01*
X0175787Y0135293D02*
X0139115Y0135293D01*
X0139115Y0136292D02*
X0176785Y0136292D01*
X0177784Y0137290D02*
X0164311Y0137290D01*
X0164006Y0136985D02*
X0165382Y0138361D01*
X0165382Y0140308D01*
X0164006Y0141685D01*
X0162059Y0141685D01*
X0160682Y0140308D01*
X0160682Y0138361D01*
X0162059Y0136985D01*
X0164006Y0136985D01*
X0165310Y0138289D02*
X0178782Y0138289D01*
X0179115Y0138621D02*
X0167615Y0127121D01*
X0167615Y0103323D01*
X0166765Y0102473D01*
X0166765Y0100527D01*
X0168142Y0099150D01*
X0170088Y0099150D01*
X0171465Y0100527D01*
X0171465Y0102473D01*
X0170615Y0103323D01*
X0170615Y0125879D01*
X0179115Y0134379D01*
X0179115Y0133621D01*
X0172615Y0127121D01*
X0172615Y0079621D01*
X0167615Y0074621D01*
X0167615Y0066323D01*
X0167588Y0066350D01*
X0165642Y0066350D01*
X0164265Y0064973D01*
X0164265Y0063027D01*
X0165642Y0061650D01*
X0167588Y0061650D01*
X0167615Y0061677D01*
X0167615Y0060823D01*
X0166765Y0059973D01*
X0166765Y0058027D01*
X0168142Y0056650D01*
X0170088Y0056650D01*
X0171465Y0058027D01*
X0171465Y0059973D01*
X0170615Y0060823D01*
X0170615Y0073379D01*
X0174736Y0077500D01*
X0175615Y0078379D01*
X0175615Y0125879D01*
X0179115Y0129379D01*
X0179115Y0072588D01*
X0179056Y0072563D01*
X0177677Y0071185D01*
X0176931Y0069384D01*
X0176931Y0067435D01*
X0177677Y0065634D01*
X0179056Y0064255D01*
X0179115Y0064231D01*
X0179115Y0014900D01*
X0143338Y0014900D01*
X0143965Y0015527D01*
X0143965Y0017473D01*
X0142588Y0018850D01*
X0140642Y0018850D01*
X0139265Y0017473D01*
X0139265Y0015527D01*
X0139892Y0014900D01*
X0139115Y0014900D01*
X0139115Y0174000D01*
X0179115Y0174000D01*
X0012515Y0174000D01*
X0012515Y0209000D01*
X0080417Y0209000D01*
X0080417Y0205759D01*
X0079651Y0205442D01*
X0078525Y0204317D01*
X0077917Y0202847D01*
X0077917Y0201256D01*
X0078525Y0199785D01*
X0079651Y0198660D01*
X0081121Y0198051D01*
X0082712Y0198051D01*
X0084182Y0198660D01*
X0085308Y0199785D01*
X0085917Y0201256D01*
X0085917Y0202847D01*
X0085308Y0204317D01*
X0084182Y0205442D01*
X0083417Y0205759D01*
X0083417Y0209000D01*
X0109494Y0209000D01*
X0107615Y0207121D01*
X0107615Y0187121D01*
X0103494Y0183000D01*
X0045938Y0183000D01*
X0045088Y0183850D01*
X0043142Y0183850D01*
X0041765Y0182473D01*
X0041765Y0180527D01*
X0043142Y0179150D01*
X0045088Y0179150D01*
X0045938Y0180000D01*
X0104736Y0180000D01*
X0110615Y0185879D01*
X0110615Y0205879D01*
X0113736Y0209000D01*
X0139494Y0209000D01*
X0140994Y0207500D01*
X0179115Y0207500D01*
X0179115Y0174000D01*
X0179115Y0138621D01*
X0179115Y0139287D02*
X0165382Y0139287D01*
X0165382Y0140286D02*
X0179115Y0140286D01*
X0179115Y0141284D02*
X0164406Y0141284D01*
X0161658Y0141284D02*
X0139115Y0141284D01*
X0139115Y0140286D02*
X0160682Y0140286D01*
X0160682Y0139287D02*
X0139115Y0139287D01*
X0139115Y0138289D02*
X0160755Y0138289D01*
X0161753Y0137290D02*
X0139115Y0137290D01*
X0139115Y0142283D02*
X0179115Y0142283D01*
X0179115Y0143281D02*
X0139115Y0143281D01*
X0139115Y0144280D02*
X0179115Y0144280D01*
X0179568Y0144846D02*
X0154115Y0119394D01*
X0154115Y0101008D01*
X0170119Y0085004D01*
X0156615Y0071500D01*
X0156615Y0052839D01*
X0171300Y0038154D01*
X0172954Y0036500D01*
X0179115Y0036440D02*
X0143965Y0036440D01*
X0143965Y0035527D02*
X0142588Y0034150D01*
X0140642Y0034150D01*
X0139265Y0035527D01*
X0139265Y0037473D01*
X0140642Y0038850D01*
X0142588Y0038850D01*
X0143965Y0037473D01*
X0143965Y0035527D01*
X0143880Y0035442D02*
X0179115Y0035442D01*
X0179115Y0034443D02*
X0142882Y0034443D01*
X0140348Y0034443D02*
X0139115Y0034443D01*
X0139115Y0033445D02*
X0179115Y0033445D01*
X0179115Y0032446D02*
X0139115Y0032446D01*
X0139115Y0031448D02*
X0179115Y0031448D01*
X0179115Y0030449D02*
X0139115Y0030449D01*
X0139115Y0029451D02*
X0179115Y0029451D01*
X0179115Y0028452D02*
X0139115Y0028452D01*
X0139115Y0027454D02*
X0179115Y0027454D01*
X0179115Y0026455D02*
X0139115Y0026455D01*
X0139115Y0025457D02*
X0179115Y0025457D01*
X0179115Y0024458D02*
X0139115Y0024458D01*
X0139115Y0023460D02*
X0179115Y0023460D01*
X0179115Y0022461D02*
X0139115Y0022461D01*
X0139115Y0021463D02*
X0179115Y0021463D01*
X0179115Y0020464D02*
X0139115Y0020464D01*
X0139115Y0019466D02*
X0179115Y0019466D01*
X0179115Y0018467D02*
X0142971Y0018467D01*
X0143965Y0017469D02*
X0179115Y0017469D01*
X0179115Y0016470D02*
X0143965Y0016470D01*
X0143910Y0015472D02*
X0179115Y0015472D01*
X0213615Y0025500D02*
X0232115Y0044000D01*
X0259115Y0044000D01*
X0279115Y0024000D01*
X0281615Y0024000D01*
X0275887Y0037228D02*
X0269115Y0044000D01*
X0262343Y0047228D02*
X0259115Y0044000D01*
X0262343Y0047228D02*
X0344115Y0047228D01*
X0344115Y0074000D01*
X0341615Y0076500D01*
X0341615Y0141500D01*
X0341005Y0142110D01*
X0341005Y0148488D01*
X0344115Y0145378D01*
X0345138Y0144280D02*
X0460636Y0144280D01*
X0460636Y0145278D02*
X0345615Y0145278D01*
X0345615Y0144757D02*
X0345615Y0145999D01*
X0343355Y0148259D01*
X0343355Y0149462D01*
X0343292Y0149524D01*
X0343292Y0187216D01*
X0344142Y0188066D01*
X0344142Y0190013D01*
X0342766Y0191389D01*
X0340819Y0191389D01*
X0339442Y0190013D01*
X0339442Y0188066D01*
X0340292Y0187216D01*
X0340292Y0150838D01*
X0340031Y0150838D01*
X0338655Y0149462D01*
X0338655Y0147515D01*
X0339505Y0146665D01*
X0339505Y0142500D01*
X0324115Y0142500D01*
X0324115Y0194000D01*
X0460636Y0194000D01*
X0460636Y0014900D01*
X0324115Y0014900D01*
X0324115Y0045728D01*
X0370552Y0045728D01*
X0370927Y0044822D01*
X0372122Y0043627D01*
X0373683Y0042980D01*
X0375373Y0042980D01*
X0376935Y0043627D01*
X0378130Y0044822D01*
X0378776Y0046383D01*
X0378776Y0048073D01*
X0378130Y0049635D01*
X0376935Y0050830D01*
X0375373Y0051476D01*
X0373683Y0051476D01*
X0372122Y0050830D01*
X0370927Y0049635D01*
X0370552Y0048728D01*
X0345615Y0048728D01*
X0345615Y0074621D01*
X0344736Y0075500D01*
X0343115Y0077121D01*
X0343115Y0142121D01*
X0342505Y0142732D01*
X0342505Y0144867D01*
X0343494Y0143878D01*
X0344736Y0143878D01*
X0345615Y0144757D01*
X0345338Y0146277D02*
X0348948Y0146277D01*
X0349086Y0146138D02*
X0351033Y0146138D01*
X0352410Y0147515D01*
X0352410Y0149462D01*
X0351033Y0150838D01*
X0349086Y0150838D01*
X0347710Y0149462D01*
X0347710Y0147515D01*
X0349086Y0146138D01*
X0347949Y0147275D02*
X0344339Y0147275D01*
X0343355Y0148274D02*
X0347710Y0148274D01*
X0347710Y0149272D02*
X0343355Y0149272D01*
X0343292Y0150271D02*
X0348519Y0150271D01*
X0351601Y0150271D02*
X0408362Y0150271D01*
X0407946Y0149855D02*
X0407946Y0147908D01*
X0409323Y0146532D01*
X0411269Y0146532D01*
X0412646Y0147908D01*
X0412646Y0149855D01*
X0411269Y0151232D01*
X0409323Y0151232D01*
X0407946Y0149855D01*
X0407946Y0149272D02*
X0352410Y0149272D01*
X0352410Y0148274D02*
X0407946Y0148274D01*
X0408579Y0147275D02*
X0352170Y0147275D01*
X0351172Y0146277D02*
X0460636Y0146277D01*
X0460636Y0147275D02*
X0412013Y0147275D01*
X0412646Y0148274D02*
X0460636Y0148274D01*
X0460636Y0149272D02*
X0412646Y0149272D01*
X0412231Y0150271D02*
X0460636Y0150271D01*
X0460636Y0151269D02*
X0343292Y0151269D01*
X0343292Y0152268D02*
X0460636Y0152268D01*
X0460636Y0153266D02*
X0343292Y0153266D01*
X0343292Y0154265D02*
X0460636Y0154265D01*
X0460636Y0155263D02*
X0343292Y0155263D01*
X0343292Y0156262D02*
X0460636Y0156262D01*
X0460636Y0157260D02*
X0343292Y0157260D01*
X0343292Y0158259D02*
X0460636Y0158259D01*
X0460636Y0159257D02*
X0343292Y0159257D01*
X0343292Y0160256D02*
X0460636Y0160256D01*
X0460636Y0161254D02*
X0343292Y0161254D01*
X0343292Y0162253D02*
X0460636Y0162253D01*
X0460636Y0163251D02*
X0343292Y0163251D01*
X0343292Y0164250D02*
X0460636Y0164250D01*
X0460636Y0165248D02*
X0343292Y0165248D01*
X0343292Y0166247D02*
X0460636Y0166247D01*
X0460636Y0167245D02*
X0343292Y0167245D01*
X0343292Y0168244D02*
X0460636Y0168244D01*
X0460636Y0169242D02*
X0343292Y0169242D01*
X0343292Y0170241D02*
X0460636Y0170241D01*
X0460636Y0171239D02*
X0343292Y0171239D01*
X0343292Y0172238D02*
X0460636Y0172238D01*
X0460636Y0173237D02*
X0343292Y0173237D01*
X0343292Y0174235D02*
X0460636Y0174235D01*
X0460636Y0175234D02*
X0343292Y0175234D01*
X0343292Y0176232D02*
X0460636Y0176232D01*
X0460636Y0177231D02*
X0343292Y0177231D01*
X0343292Y0178229D02*
X0439515Y0178229D01*
X0439127Y0178617D02*
X0440504Y0177241D01*
X0442451Y0177241D01*
X0443827Y0178617D01*
X0443827Y0180564D01*
X0442451Y0181941D01*
X0440504Y0181941D01*
X0439127Y0180564D01*
X0439127Y0178617D01*
X0439127Y0179228D02*
X0343292Y0179228D01*
X0343292Y0180226D02*
X0439127Y0180226D01*
X0439788Y0181225D02*
X0343292Y0181225D01*
X0343292Y0182223D02*
X0376636Y0182223D01*
X0376339Y0182346D02*
X0378140Y0181600D01*
X0380090Y0181600D01*
X0381891Y0182346D01*
X0383269Y0183724D01*
X0384015Y0185525D01*
X0384015Y0187475D01*
X0383269Y0189276D01*
X0381891Y0190654D01*
X0380090Y0191400D01*
X0378140Y0191400D01*
X0376339Y0190654D01*
X0374961Y0189276D01*
X0374215Y0187475D01*
X0374215Y0185525D01*
X0374961Y0183724D01*
X0376339Y0182346D01*
X0375464Y0183222D02*
X0343292Y0183222D01*
X0343292Y0184220D02*
X0374756Y0184220D01*
X0374342Y0185219D02*
X0351531Y0185219D01*
X0351427Y0185115D02*
X0352804Y0186491D01*
X0352804Y0188438D01*
X0351427Y0189815D01*
X0349480Y0189815D01*
X0348104Y0188438D01*
X0348104Y0186491D01*
X0349480Y0185115D01*
X0351427Y0185115D01*
X0352530Y0186217D02*
X0374215Y0186217D01*
X0374215Y0187216D02*
X0352804Y0187216D01*
X0352804Y0188214D02*
X0374521Y0188214D01*
X0374935Y0189213D02*
X0352029Y0189213D01*
X0348878Y0189213D02*
X0344142Y0189213D01*
X0344142Y0188214D02*
X0348104Y0188214D01*
X0348104Y0187216D02*
X0343292Y0187216D01*
X0343292Y0186217D02*
X0348378Y0186217D01*
X0349376Y0185219D02*
X0343292Y0185219D01*
X0340292Y0185219D02*
X0324115Y0185219D01*
X0324115Y0186217D02*
X0340292Y0186217D01*
X0340292Y0187216D02*
X0324115Y0187216D01*
X0324115Y0188214D02*
X0339442Y0188214D01*
X0339442Y0189213D02*
X0324115Y0189213D01*
X0324115Y0190211D02*
X0339641Y0190211D01*
X0340639Y0191210D02*
X0324115Y0191210D01*
X0324115Y0192208D02*
X0460636Y0192208D01*
X0460636Y0191210D02*
X0380549Y0191210D01*
X0382333Y0190211D02*
X0460636Y0190211D01*
X0460636Y0189213D02*
X0383295Y0189213D01*
X0383709Y0188214D02*
X0460636Y0188214D01*
X0460636Y0187216D02*
X0384015Y0187216D01*
X0384015Y0186217D02*
X0460636Y0186217D01*
X0460636Y0185219D02*
X0383888Y0185219D01*
X0383474Y0184220D02*
X0460636Y0184220D01*
X0460636Y0183222D02*
X0382766Y0183222D01*
X0381594Y0182223D02*
X0460636Y0182223D01*
X0460636Y0181225D02*
X0443167Y0181225D01*
X0443827Y0180226D02*
X0460636Y0180226D01*
X0460636Y0179228D02*
X0443827Y0179228D01*
X0443439Y0178229D02*
X0460636Y0178229D01*
X0442658Y0173291D02*
X0413406Y0173291D01*
X0404115Y0164000D01*
X0404115Y0083685D01*
X0398702Y0078272D01*
X0382973Y0094000D01*
X0359115Y0094000D01*
X0356615Y0096500D01*
X0349115Y0096500D01*
X0349615Y0096351D02*
X0432285Y0096351D01*
X0432461Y0096776D02*
X0431715Y0094975D01*
X0431715Y0093025D01*
X0432461Y0091224D01*
X0433839Y0089846D01*
X0435640Y0089100D01*
X0437590Y0089100D01*
X0439391Y0089846D01*
X0440769Y0091224D01*
X0441515Y0093025D01*
X0441515Y0094975D01*
X0440769Y0096776D01*
X0439391Y0098154D01*
X0437590Y0098900D01*
X0435640Y0098900D01*
X0433839Y0098154D01*
X0432461Y0096776D01*
X0433035Y0097350D02*
X0363229Y0097350D01*
X0362667Y0096788D02*
X0364044Y0098164D01*
X0364044Y0100111D01*
X0362667Y0101488D01*
X0360720Y0101488D01*
X0359344Y0100111D01*
X0359344Y0098164D01*
X0360720Y0096788D01*
X0362667Y0096788D01*
X0364044Y0098348D02*
X0434308Y0098348D01*
X0431872Y0095353D02*
X0354401Y0095353D01*
X0354382Y0095235D02*
X0354503Y0096000D01*
X0349615Y0096000D01*
X0349615Y0097000D01*
X0354503Y0097000D01*
X0354382Y0097765D01*
X0354119Y0098573D01*
X0353733Y0099330D01*
X0353234Y0100018D01*
X0352633Y0100619D01*
X0351945Y0101118D01*
X0351188Y0101504D01*
X0350443Y0101746D01*
X0351891Y0102346D01*
X0353269Y0103724D01*
X0354015Y0105525D01*
X0354015Y0107475D01*
X0353269Y0109276D01*
X0351891Y0110654D01*
X0350090Y0111400D01*
X0348140Y0111400D01*
X0346339Y0110654D01*
X0344961Y0109276D01*
X0344215Y0107475D01*
X0344215Y0105525D01*
X0344961Y0103724D01*
X0346339Y0102346D01*
X0347787Y0101746D01*
X0347042Y0101504D01*
X0346285Y0101118D01*
X0345597Y0100619D01*
X0344996Y0100018D01*
X0344496Y0099330D01*
X0344111Y0098573D01*
X0343848Y0097765D01*
X0343727Y0097000D01*
X0348615Y0097000D01*
X0348615Y0096000D01*
X0343727Y0096000D01*
X0343848Y0095235D01*
X0344111Y0094427D01*
X0344496Y0093670D01*
X0344996Y0092982D01*
X0345597Y0092381D01*
X0346285Y0091882D01*
X0347042Y0091496D01*
X0347787Y0091254D01*
X0346339Y0090654D01*
X0344961Y0089276D01*
X0344215Y0087475D01*
X0344215Y0085525D01*
X0344961Y0083724D01*
X0346339Y0082346D01*
X0348140Y0081600D01*
X0350090Y0081600D01*
X0351891Y0082346D01*
X0353269Y0083724D01*
X0354015Y0085525D01*
X0354015Y0087475D01*
X0353269Y0089276D01*
X0351891Y0090654D01*
X0350443Y0091254D01*
X0351188Y0091496D01*
X0351945Y0091882D01*
X0352633Y0092381D01*
X0353234Y0092982D01*
X0353733Y0093670D01*
X0354119Y0094427D01*
X0354382Y0095235D01*
X0354082Y0094354D02*
X0431715Y0094354D01*
X0431715Y0093356D02*
X0353505Y0093356D01*
X0352600Y0092357D02*
X0431992Y0092357D01*
X0432405Y0091359D02*
X0350766Y0091359D01*
X0352185Y0090360D02*
X0433325Y0090360D01*
X0435009Y0089362D02*
X0353183Y0089362D01*
X0353647Y0088363D02*
X0460636Y0088363D01*
X0460636Y0087365D02*
X0354015Y0087365D01*
X0354015Y0086366D02*
X0460636Y0086366D01*
X0460636Y0085368D02*
X0353950Y0085368D01*
X0353536Y0084369D02*
X0460636Y0084369D01*
X0460636Y0083370D02*
X0352915Y0083370D01*
X0351917Y0082372D02*
X0460636Y0082372D01*
X0460636Y0081373D02*
X0343115Y0081373D01*
X0343115Y0080375D02*
X0460636Y0080375D01*
X0460636Y0079376D02*
X0343115Y0079376D01*
X0343115Y0078378D02*
X0460636Y0078378D01*
X0460636Y0077379D02*
X0343115Y0077379D01*
X0343855Y0076381D02*
X0460636Y0076381D01*
X0460636Y0075382D02*
X0344854Y0075382D01*
X0345615Y0074384D02*
X0460636Y0074384D01*
X0460636Y0073385D02*
X0345615Y0073385D01*
X0345615Y0072387D02*
X0460636Y0072387D01*
X0460636Y0071388D02*
X0345615Y0071388D01*
X0345615Y0070390D02*
X0460636Y0070390D01*
X0460636Y0069391D02*
X0345615Y0069391D01*
X0345615Y0068393D02*
X0460636Y0068393D01*
X0460636Y0067394D02*
X0446373Y0067394D01*
X0446381Y0067391D02*
X0444911Y0068000D01*
X0443319Y0068000D01*
X0441849Y0067391D01*
X0440724Y0066266D01*
X0440115Y0064796D01*
X0440115Y0063204D01*
X0440724Y0061734D01*
X0441849Y0060609D01*
X0443319Y0060000D01*
X0444911Y0060000D01*
X0446381Y0060609D01*
X0447506Y0061734D01*
X0448115Y0063204D01*
X0448115Y0064796D01*
X0447506Y0066266D01*
X0446381Y0067391D01*
X0447376Y0066396D02*
X0460636Y0066396D01*
X0460636Y0065397D02*
X0447866Y0065397D01*
X0448115Y0064399D02*
X0460636Y0064399D01*
X0460636Y0063400D02*
X0448115Y0063400D01*
X0447783Y0062402D02*
X0460636Y0062402D01*
X0460636Y0061403D02*
X0447175Y0061403D01*
X0445888Y0060405D02*
X0460636Y0060405D01*
X0460636Y0059406D02*
X0345615Y0059406D01*
X0345615Y0058408D02*
X0460636Y0058408D01*
X0460636Y0057409D02*
X0345615Y0057409D01*
X0345615Y0056411D02*
X0460636Y0056411D01*
X0460636Y0055412D02*
X0451184Y0055412D01*
X0451073Y0055523D02*
X0449126Y0055523D01*
X0447749Y0054147D01*
X0447749Y0052200D01*
X0449126Y0050823D01*
X0451073Y0050823D01*
X0452449Y0052200D01*
X0452449Y0054147D01*
X0451073Y0055523D01*
X0452182Y0054414D02*
X0460636Y0054414D01*
X0460636Y0053415D02*
X0452449Y0053415D01*
X0452449Y0052417D02*
X0460636Y0052417D01*
X0460636Y0051418D02*
X0451668Y0051418D01*
X0448531Y0051418D02*
X0395514Y0051418D01*
X0395373Y0051476D02*
X0393683Y0051476D01*
X0392122Y0050830D01*
X0390927Y0049635D01*
X0390280Y0048073D01*
X0390280Y0046383D01*
X0390927Y0044822D01*
X0392122Y0043627D01*
X0393683Y0042980D01*
X0395373Y0042980D01*
X0396935Y0043627D01*
X0398130Y0044822D01*
X0398776Y0046383D01*
X0398776Y0048073D01*
X0398130Y0049635D01*
X0396935Y0050830D01*
X0395373Y0051476D01*
X0393543Y0051418D02*
X0375514Y0051418D01*
X0373543Y0051418D02*
X0345615Y0051418D01*
X0345615Y0050420D02*
X0371712Y0050420D01*
X0370839Y0049421D02*
X0345615Y0049421D01*
X0344115Y0047228D02*
X0374528Y0047228D01*
X0370676Y0045427D02*
X0324115Y0045427D01*
X0324115Y0044429D02*
X0371321Y0044429D01*
X0372598Y0043430D02*
X0324115Y0043430D01*
X0324115Y0042432D02*
X0460636Y0042432D01*
X0460636Y0043430D02*
X0396459Y0043430D01*
X0397736Y0044429D02*
X0460636Y0044429D01*
X0460636Y0045427D02*
X0398380Y0045427D01*
X0398776Y0046426D02*
X0460636Y0046426D01*
X0460636Y0047424D02*
X0398776Y0047424D01*
X0398632Y0048423D02*
X0460636Y0048423D01*
X0460636Y0049421D02*
X0398218Y0049421D01*
X0397345Y0050420D02*
X0460636Y0050420D01*
X0449015Y0055412D02*
X0345615Y0055412D01*
X0345615Y0054414D02*
X0448016Y0054414D01*
X0447749Y0053415D02*
X0345615Y0053415D01*
X0345615Y0052417D02*
X0447749Y0052417D01*
X0442342Y0060405D02*
X0435888Y0060405D01*
X0436381Y0060609D02*
X0437506Y0061734D01*
X0438115Y0063204D01*
X0438115Y0064796D01*
X0437506Y0066266D01*
X0436381Y0067391D01*
X0434911Y0068000D01*
X0433319Y0068000D01*
X0431849Y0067391D01*
X0430724Y0066266D01*
X0430115Y0064796D01*
X0430115Y0063204D01*
X0430724Y0061734D01*
X0431849Y0060609D01*
X0433319Y0060000D01*
X0434911Y0060000D01*
X0436381Y0060609D01*
X0437175Y0061403D02*
X0441055Y0061403D01*
X0440447Y0062402D02*
X0437783Y0062402D01*
X0438115Y0063400D02*
X0440115Y0063400D01*
X0440115Y0064399D02*
X0438115Y0064399D01*
X0437866Y0065397D02*
X0440364Y0065397D01*
X0440854Y0066396D02*
X0437376Y0066396D01*
X0436373Y0067394D02*
X0441857Y0067394D01*
X0431857Y0067394D02*
X0345615Y0067394D01*
X0345615Y0066396D02*
X0430854Y0066396D01*
X0430364Y0065397D02*
X0345615Y0065397D01*
X0345615Y0064399D02*
X0430115Y0064399D01*
X0430115Y0063400D02*
X0345615Y0063400D01*
X0345615Y0062402D02*
X0430447Y0062402D01*
X0431055Y0061403D02*
X0345615Y0061403D01*
X0345615Y0060405D02*
X0432342Y0060405D01*
X0460636Y0041433D02*
X0395478Y0041433D01*
X0395373Y0041476D02*
X0393683Y0041476D01*
X0392122Y0040830D01*
X0390927Y0039635D01*
X0390280Y0038073D01*
X0390280Y0036383D01*
X0390927Y0034822D01*
X0392122Y0033627D01*
X0393683Y0032980D01*
X0395373Y0032980D01*
X0396935Y0033627D01*
X0398130Y0034822D01*
X0398776Y0036383D01*
X0398776Y0038073D01*
X0398130Y0039635D01*
X0396935Y0040830D01*
X0395373Y0041476D01*
X0393579Y0041433D02*
X0376735Y0041433D01*
X0377017Y0041289D02*
X0376351Y0041629D01*
X0375640Y0041859D01*
X0375028Y0041956D01*
X0375028Y0037728D01*
X0379256Y0037728D01*
X0379159Y0038340D01*
X0378929Y0039051D01*
X0378589Y0039717D01*
X0378150Y0040321D01*
X0377621Y0040850D01*
X0377017Y0041289D01*
X0378037Y0040434D02*
X0391727Y0040434D01*
X0390845Y0039436D02*
X0378732Y0039436D01*
X0379128Y0038437D02*
X0390431Y0038437D01*
X0390280Y0037439D02*
X0375028Y0037439D01*
X0375028Y0037728D02*
X0375028Y0036728D01*
X0375028Y0032500D01*
X0375640Y0032597D01*
X0376351Y0032828D01*
X0377017Y0033167D01*
X0377621Y0033607D01*
X0378150Y0034135D01*
X0378589Y0034740D01*
X0378929Y0035406D01*
X0379159Y0036116D01*
X0379256Y0036728D01*
X0375028Y0036728D01*
X0374028Y0036728D01*
X0374028Y0032500D01*
X0373416Y0032597D01*
X0372706Y0032828D01*
X0372040Y0033167D01*
X0371435Y0033607D01*
X0370907Y0034135D01*
X0370467Y0034740D01*
X0370128Y0035406D01*
X0369897Y0036116D01*
X0369800Y0036728D01*
X0374028Y0036728D01*
X0374028Y0037728D01*
X0369800Y0037728D01*
X0369897Y0038340D01*
X0370128Y0039051D01*
X0370467Y0039717D01*
X0370907Y0040321D01*
X0371435Y0040850D01*
X0372040Y0041289D01*
X0372706Y0041629D01*
X0373416Y0041859D01*
X0374028Y0041956D01*
X0374028Y0037728D01*
X0375028Y0037728D01*
X0374528Y0037228D02*
X0275887Y0037228D01*
X0241615Y0053500D02*
X0232115Y0044000D01*
X0241615Y0053500D02*
X0241615Y0079000D01*
X0246812Y0074197D02*
X0251615Y0079000D01*
X0281615Y0079000D01*
X0294548Y0066067D01*
X0303583Y0066067D01*
X0281615Y0079000D02*
X0294115Y0091500D01*
X0294115Y0136047D01*
X0291398Y0138764D01*
X0291398Y0181283D01*
X0285099Y0187583D01*
X0278406Y0187583D01*
X0292580Y0187216D02*
X0261544Y0187216D01*
X0261771Y0187763D02*
X0261307Y0186642D01*
X0260449Y0185784D01*
X0259328Y0185320D01*
X0258115Y0185320D01*
X0256994Y0185784D01*
X0256136Y0186642D01*
X0255671Y0187763D01*
X0255671Y0188977D01*
X0256136Y0190098D01*
X0256994Y0190956D01*
X0258115Y0191420D01*
X0259328Y0191420D01*
X0260449Y0190956D01*
X0261307Y0190098D01*
X0261771Y0188977D01*
X0261771Y0187763D01*
X0261771Y0188214D02*
X0292580Y0188214D01*
X0292580Y0189213D02*
X0261674Y0189213D01*
X0261193Y0190211D02*
X0292580Y0190211D01*
X0292580Y0191210D02*
X0259836Y0191210D01*
X0257607Y0191210D02*
X0249016Y0191210D01*
X0248905Y0191476D02*
X0248047Y0192334D01*
X0246926Y0192798D01*
X0245713Y0192798D01*
X0244592Y0192334D01*
X0243734Y0191476D01*
X0243270Y0190355D01*
X0243270Y0189141D01*
X0243734Y0188020D01*
X0244592Y0187162D01*
X0245713Y0186698D01*
X0246926Y0186698D01*
X0248047Y0187162D01*
X0248905Y0188020D01*
X0249370Y0189141D01*
X0249370Y0190355D01*
X0248905Y0191476D01*
X0248173Y0192208D02*
X0292580Y0192208D01*
X0292580Y0193207D02*
X0195335Y0193207D01*
X0195335Y0193882D02*
X0195335Y0132071D01*
X0198585Y0132071D01*
X0198585Y0133071D01*
X0199049Y0134192D01*
X0199907Y0135050D01*
X0201028Y0135515D01*
X0202241Y0135515D01*
X0203362Y0135050D01*
X0204220Y0134192D01*
X0204685Y0133071D01*
X0204685Y0132071D01*
X0285986Y0132071D01*
X0285986Y0132678D01*
X0286451Y0133799D01*
X0287309Y0134657D01*
X0288430Y0135121D01*
X0289643Y0135121D01*
X0290764Y0134657D01*
X0291622Y0133799D01*
X0292086Y0132678D01*
X0292086Y0132071D01*
X0292580Y0132071D01*
X0292580Y0193882D01*
X0195335Y0193882D01*
X0195335Y0192208D02*
X0244467Y0192208D01*
X0243624Y0191210D02*
X0195335Y0191210D01*
X0195335Y0190211D02*
X0243270Y0190211D01*
X0243270Y0189213D02*
X0195335Y0189213D01*
X0195335Y0188214D02*
X0209390Y0188214D01*
X0209356Y0188200D02*
X0208498Y0187342D01*
X0208033Y0186221D01*
X0208033Y0185007D01*
X0208498Y0183886D01*
X0209356Y0183029D01*
X0210477Y0182564D01*
X0211690Y0182564D01*
X0212811Y0183029D01*
X0213669Y0183886D01*
X0214133Y0185007D01*
X0214133Y0186221D01*
X0213669Y0187342D01*
X0212811Y0188200D01*
X0211690Y0188664D01*
X0210477Y0188664D01*
X0209356Y0188200D01*
X0208446Y0187216D02*
X0195335Y0187216D01*
X0195335Y0186217D02*
X0208033Y0186217D01*
X0208033Y0185219D02*
X0195335Y0185219D01*
X0195335Y0184220D02*
X0208360Y0184220D01*
X0209163Y0183222D02*
X0195335Y0183222D01*
X0195335Y0182223D02*
X0292580Y0182223D01*
X0292580Y0181225D02*
X0195335Y0181225D01*
X0195335Y0180226D02*
X0292580Y0180226D01*
X0292580Y0179228D02*
X0195335Y0179228D01*
X0195335Y0178229D02*
X0292580Y0178229D01*
X0292580Y0177231D02*
X0195335Y0177231D01*
X0195335Y0176232D02*
X0222920Y0176232D01*
X0223469Y0176459D02*
X0222348Y0175995D01*
X0221490Y0175137D01*
X0221026Y0174016D01*
X0221026Y0172803D01*
X0221490Y0171682D01*
X0222348Y0170824D01*
X0223469Y0170359D01*
X0224682Y0170359D01*
X0225803Y0170824D01*
X0226661Y0171682D01*
X0227126Y0172803D01*
X0227126Y0174016D01*
X0226661Y0175137D01*
X0225803Y0175995D01*
X0224682Y0176459D01*
X0223469Y0176459D01*
X0225231Y0176232D02*
X0292580Y0176232D01*
X0292580Y0175234D02*
X0226565Y0175234D01*
X0227035Y0174235D02*
X0228856Y0174235D01*
X0229041Y0174420D02*
X0228183Y0173562D01*
X0227719Y0172441D01*
X0227719Y0171228D01*
X0228183Y0170107D01*
X0229041Y0169249D01*
X0230162Y0168785D01*
X0231375Y0168785D01*
X0232496Y0169249D01*
X0233354Y0170107D01*
X0233818Y0171228D01*
X0233818Y0172441D01*
X0233354Y0173562D01*
X0232496Y0174420D01*
X0231375Y0174885D01*
X0230162Y0174885D01*
X0229041Y0174420D01*
X0228048Y0173237D02*
X0227126Y0173237D01*
X0226892Y0172238D02*
X0227719Y0172238D01*
X0227719Y0171239D02*
X0226219Y0171239D01*
X0228127Y0170241D02*
X0195335Y0170241D01*
X0195335Y0171239D02*
X0221932Y0171239D01*
X0221260Y0172238D02*
X0195335Y0172238D01*
X0195335Y0173237D02*
X0221026Y0173237D01*
X0221116Y0174235D02*
X0195335Y0174235D01*
X0195335Y0175234D02*
X0221586Y0175234D01*
X0232681Y0174235D02*
X0292580Y0174235D01*
X0292580Y0173237D02*
X0233489Y0173237D01*
X0233818Y0172238D02*
X0292580Y0172238D01*
X0292580Y0171239D02*
X0233818Y0171239D01*
X0233410Y0170241D02*
X0292580Y0170241D01*
X0292580Y0169242D02*
X0232480Y0169242D01*
X0229057Y0169242D02*
X0195335Y0169242D01*
X0195335Y0168244D02*
X0200030Y0168244D01*
X0200301Y0168515D02*
X0199443Y0167657D01*
X0198978Y0166536D01*
X0198978Y0165322D01*
X0199443Y0164201D01*
X0200301Y0163343D01*
X0201422Y0162879D01*
X0202635Y0162879D01*
X0203756Y0163343D01*
X0204614Y0164201D01*
X0205078Y0165322D01*
X0205078Y0166536D01*
X0204614Y0167657D01*
X0203756Y0168515D01*
X0202635Y0168979D01*
X0201422Y0168979D01*
X0200301Y0168515D01*
X0199272Y0167245D02*
X0195335Y0167245D01*
X0195335Y0166247D02*
X0198978Y0166247D01*
X0199009Y0165248D02*
X0195335Y0165248D01*
X0195335Y0164250D02*
X0199423Y0164250D01*
X0200523Y0163251D02*
X0195335Y0163251D01*
X0195335Y0162253D02*
X0223340Y0162253D01*
X0223458Y0162539D02*
X0222994Y0161418D01*
X0222994Y0160204D01*
X0223458Y0159083D01*
X0224316Y0158225D01*
X0225437Y0157761D01*
X0226651Y0157761D01*
X0227772Y0158225D01*
X0228630Y0159083D01*
X0229083Y0160177D01*
X0230162Y0159730D01*
X0231375Y0159730D01*
X0232496Y0160194D01*
X0233354Y0161052D01*
X0233818Y0162173D01*
X0233818Y0163386D01*
X0233354Y0164507D01*
X0232496Y0165365D01*
X0231375Y0165830D01*
X0230162Y0165830D01*
X0229041Y0165365D01*
X0228183Y0164507D01*
X0227730Y0163414D01*
X0226651Y0163861D01*
X0225437Y0163861D01*
X0224316Y0163397D01*
X0223458Y0162539D01*
X0224171Y0163251D02*
X0203534Y0163251D01*
X0204634Y0164250D02*
X0228076Y0164250D01*
X0228924Y0165248D02*
X0205048Y0165248D01*
X0205078Y0166247D02*
X0292580Y0166247D01*
X0292580Y0167245D02*
X0204784Y0167245D01*
X0204027Y0168244D02*
X0292580Y0168244D01*
X0292580Y0165248D02*
X0232613Y0165248D01*
X0233461Y0164250D02*
X0292580Y0164250D01*
X0292580Y0163251D02*
X0233818Y0163251D01*
X0233818Y0162253D02*
X0292580Y0162253D01*
X0292580Y0161254D02*
X0233438Y0161254D01*
X0232558Y0160256D02*
X0292580Y0160256D01*
X0292580Y0159257D02*
X0228702Y0159257D01*
X0227805Y0158259D02*
X0292580Y0158259D01*
X0292580Y0157260D02*
X0195335Y0157260D01*
X0195335Y0156262D02*
X0292580Y0156262D01*
X0292580Y0155263D02*
X0204409Y0155263D01*
X0204150Y0155523D02*
X0203029Y0155987D01*
X0201815Y0155987D01*
X0200694Y0155523D01*
X0199836Y0154665D01*
X0199372Y0153544D01*
X0199372Y0152330D01*
X0199836Y0151209D01*
X0200694Y0150351D01*
X0201815Y0149887D01*
X0203029Y0149887D01*
X0204150Y0150351D01*
X0205008Y0151209D01*
X0205472Y0152330D01*
X0205472Y0153544D01*
X0205008Y0154665D01*
X0204150Y0155523D01*
X0205173Y0154265D02*
X0267601Y0154265D01*
X0267957Y0154412D02*
X0266836Y0153948D01*
X0265978Y0153090D01*
X0265514Y0151969D01*
X0265514Y0150756D01*
X0265978Y0149635D01*
X0266836Y0148777D01*
X0267957Y0148312D01*
X0269170Y0148312D01*
X0270291Y0148777D01*
X0271149Y0149635D01*
X0271614Y0150756D01*
X0271614Y0151969D01*
X0271149Y0153090D01*
X0270291Y0153948D01*
X0269170Y0154412D01*
X0267957Y0154412D01*
X0269526Y0154265D02*
X0292580Y0154265D01*
X0292580Y0153266D02*
X0270973Y0153266D01*
X0271490Y0152268D02*
X0292580Y0152268D01*
X0292580Y0151269D02*
X0271614Y0151269D01*
X0271413Y0150271D02*
X0292580Y0150271D01*
X0292580Y0149272D02*
X0270787Y0149272D01*
X0266340Y0149272D02*
X0195335Y0149272D01*
X0195335Y0148274D02*
X0292580Y0148274D01*
X0292580Y0147275D02*
X0290715Y0147275D01*
X0290764Y0147255D02*
X0289643Y0147719D01*
X0288430Y0147719D01*
X0287309Y0147255D01*
X0286451Y0146397D01*
X0285986Y0145276D01*
X0285986Y0144063D01*
X0286451Y0142942D01*
X0287309Y0142084D01*
X0288430Y0141619D01*
X0289643Y0141619D01*
X0290764Y0142084D01*
X0291622Y0142942D01*
X0292086Y0144063D01*
X0292086Y0145276D01*
X0291622Y0146397D01*
X0290764Y0147255D01*
X0291672Y0146277D02*
X0292580Y0146277D01*
X0292580Y0145278D02*
X0292085Y0145278D01*
X0292086Y0144280D02*
X0292580Y0144280D01*
X0292580Y0143281D02*
X0291763Y0143281D01*
X0290963Y0142283D02*
X0292580Y0142283D01*
X0292580Y0141284D02*
X0195335Y0141284D01*
X0195335Y0140286D02*
X0292580Y0140286D01*
X0292580Y0139287D02*
X0195335Y0139287D01*
X0195335Y0138289D02*
X0292580Y0138289D01*
X0292580Y0137290D02*
X0195335Y0137290D01*
X0195335Y0136292D02*
X0292580Y0136292D01*
X0292580Y0135293D02*
X0202776Y0135293D01*
X0204118Y0134295D02*
X0286947Y0134295D01*
X0286242Y0133296D02*
X0204592Y0133296D01*
X0204685Y0132298D02*
X0285986Y0132298D01*
X0287720Y0129315D02*
X0288430Y0129021D01*
X0289643Y0129021D01*
X0290353Y0129315D01*
X0291915Y0129315D01*
X0291915Y0114549D01*
X0291551Y0114912D01*
X0290430Y0115377D01*
X0289217Y0115377D01*
X0288096Y0114912D01*
X0287238Y0114054D01*
X0286774Y0112933D01*
X0286774Y0111720D01*
X0287238Y0110599D01*
X0288096Y0109741D01*
X0289217Y0109277D01*
X0290430Y0109277D01*
X0291551Y0109741D01*
X0291915Y0110105D01*
X0291915Y0092411D01*
X0291811Y0092307D01*
X0246652Y0092307D01*
X0245942Y0092601D01*
X0244729Y0092601D01*
X0244019Y0092307D01*
X0195335Y0092307D01*
X0195335Y0129315D01*
X0287720Y0129315D01*
X0287751Y0129302D02*
X0195335Y0129302D01*
X0195335Y0128303D02*
X0291915Y0128303D01*
X0291915Y0127305D02*
X0195335Y0127305D01*
X0195335Y0126306D02*
X0291915Y0126306D01*
X0291915Y0125308D02*
X0195335Y0125308D01*
X0195335Y0124309D02*
X0291915Y0124309D01*
X0291915Y0123311D02*
X0195335Y0123311D01*
X0195335Y0122312D02*
X0199997Y0122312D01*
X0199810Y0122235D02*
X0198953Y0121377D01*
X0198488Y0120256D01*
X0198488Y0119043D01*
X0198953Y0117922D01*
X0199810Y0117064D01*
X0200931Y0116600D01*
X0202145Y0116600D01*
X0203266Y0117064D01*
X0204124Y0117922D01*
X0204588Y0119043D01*
X0204588Y0120256D01*
X0204124Y0121377D01*
X0203266Y0122235D01*
X0202145Y0122700D01*
X0200931Y0122700D01*
X0199810Y0122235D01*
X0198926Y0121314D02*
X0195335Y0121314D01*
X0195335Y0120315D02*
X0198513Y0120315D01*
X0198488Y0119317D02*
X0195335Y0119317D01*
X0195335Y0118318D02*
X0198788Y0118318D01*
X0199555Y0117320D02*
X0195335Y0117320D01*
X0195335Y0116321D02*
X0259134Y0116321D01*
X0259356Y0116099D02*
X0260477Y0115635D01*
X0261690Y0115635D01*
X0262811Y0116099D01*
X0263669Y0116957D01*
X0264133Y0118078D01*
X0264133Y0119292D01*
X0263669Y0120413D01*
X0262811Y0121271D01*
X0261690Y0121735D01*
X0260477Y0121735D01*
X0259356Y0121271D01*
X0258498Y0120413D01*
X0258033Y0119292D01*
X0258033Y0118078D01*
X0258498Y0116957D01*
X0259356Y0116099D01*
X0258348Y0117320D02*
X0203522Y0117320D01*
X0204288Y0118318D02*
X0258033Y0118318D01*
X0258044Y0119317D02*
X0204588Y0119317D01*
X0204564Y0120315D02*
X0258457Y0120315D01*
X0259460Y0121314D02*
X0204150Y0121314D01*
X0203080Y0122312D02*
X0291915Y0122312D01*
X0291915Y0121314D02*
X0262707Y0121314D01*
X0263709Y0120315D02*
X0291915Y0120315D01*
X0291915Y0119317D02*
X0264123Y0119317D01*
X0264133Y0118318D02*
X0291915Y0118318D01*
X0291915Y0117320D02*
X0263819Y0117320D01*
X0263033Y0116321D02*
X0291915Y0116321D01*
X0291915Y0115323D02*
X0290560Y0115323D01*
X0289087Y0115323D02*
X0282686Y0115323D01*
X0282556Y0115377D02*
X0281343Y0115377D01*
X0280222Y0114912D01*
X0279364Y0114054D01*
X0278900Y0112933D01*
X0278900Y0111720D01*
X0279364Y0110599D01*
X0280222Y0109741D01*
X0281343Y0109277D01*
X0282556Y0109277D01*
X0283677Y0109741D01*
X0284535Y0110599D01*
X0285000Y0111720D01*
X0285000Y0112933D01*
X0284535Y0114054D01*
X0283677Y0114912D01*
X0282556Y0115377D01*
X0281213Y0115323D02*
X0195335Y0115323D01*
X0195335Y0114324D02*
X0232963Y0114324D01*
X0233508Y0114550D02*
X0232387Y0114086D01*
X0231529Y0113228D01*
X0231065Y0112107D01*
X0231065Y0110893D01*
X0231529Y0109772D01*
X0232387Y0108914D01*
X0233508Y0108450D01*
X0234722Y0108450D01*
X0235843Y0108914D01*
X0236701Y0109772D01*
X0237165Y0110893D01*
X0237165Y0112107D01*
X0236701Y0113228D01*
X0235843Y0114086D01*
X0234722Y0114550D01*
X0233508Y0114550D01*
X0235266Y0114324D02*
X0279634Y0114324D01*
X0279062Y0113326D02*
X0252646Y0113326D01*
X0253039Y0112932D02*
X0253485Y0111856D01*
X0253844Y0112216D01*
X0254965Y0112680D01*
X0256178Y0112680D01*
X0257299Y0112216D01*
X0257737Y0111778D01*
X0258175Y0112216D01*
X0259296Y0112680D01*
X0260509Y0112680D01*
X0261630Y0112216D01*
X0262488Y0111358D01*
X0262952Y0110237D01*
X0262952Y0109023D01*
X0262488Y0107902D01*
X0261630Y0107044D01*
X0260509Y0106580D01*
X0259296Y0106580D01*
X0258175Y0107044D01*
X0257737Y0107482D01*
X0257299Y0107044D01*
X0256178Y0106580D01*
X0254965Y0106580D01*
X0253844Y0107044D01*
X0252986Y0107902D01*
X0252540Y0108978D01*
X0252181Y0108619D01*
X0251060Y0108155D01*
X0249847Y0108155D01*
X0248726Y0108619D01*
X0247868Y0109477D01*
X0247404Y0110598D01*
X0247404Y0111811D01*
X0247868Y0112932D01*
X0248726Y0113790D01*
X0249847Y0114255D01*
X0251060Y0114255D01*
X0252181Y0113790D01*
X0253039Y0112932D01*
X0253290Y0112327D02*
X0254114Y0112327D01*
X0257030Y0112327D02*
X0258444Y0112327D01*
X0261360Y0112327D02*
X0278900Y0112327D01*
X0279062Y0111329D02*
X0262500Y0111329D01*
X0262914Y0110330D02*
X0279633Y0110330D01*
X0281210Y0109332D02*
X0262952Y0109332D01*
X0262667Y0108333D02*
X0291915Y0108333D01*
X0291915Y0107335D02*
X0261921Y0107335D01*
X0257884Y0107335D02*
X0257590Y0107335D01*
X0253553Y0107335D02*
X0204570Y0107335D01*
X0204665Y0107107D02*
X0204201Y0108228D01*
X0203343Y0109086D01*
X0202222Y0109550D01*
X0201008Y0109550D01*
X0199887Y0109086D01*
X0199029Y0108228D01*
X0198565Y0107107D01*
X0198565Y0105893D01*
X0199029Y0104772D01*
X0199887Y0103914D01*
X0201008Y0103450D01*
X0202222Y0103450D01*
X0203343Y0103914D01*
X0204201Y0104772D01*
X0204665Y0105893D01*
X0204665Y0107107D01*
X0204665Y0106336D02*
X0270836Y0106336D01*
X0270773Y0106310D02*
X0269915Y0105452D01*
X0269451Y0104331D01*
X0269451Y0103118D01*
X0269915Y0101997D01*
X0270773Y0101139D01*
X0271894Y0100674D01*
X0273107Y0100674D01*
X0274228Y0101139D01*
X0275086Y0101997D01*
X0275551Y0103118D01*
X0275551Y0104331D01*
X0275086Y0105452D01*
X0274228Y0106310D01*
X0273107Y0106774D01*
X0271894Y0106774D01*
X0270773Y0106310D01*
X0269868Y0105338D02*
X0204435Y0105338D01*
X0203768Y0104339D02*
X0235499Y0104339D01*
X0236008Y0104550D02*
X0234887Y0104086D01*
X0234029Y0103228D01*
X0233565Y0102107D01*
X0233565Y0100893D01*
X0234029Y0099772D01*
X0234802Y0099000D01*
X0234029Y0098228D01*
X0233565Y0097107D01*
X0233565Y0095893D01*
X0234029Y0094772D01*
X0234887Y0093914D01*
X0236008Y0093450D01*
X0237222Y0093450D01*
X0238343Y0093914D01*
X0239201Y0094772D01*
X0239665Y0095893D01*
X0239665Y0097107D01*
X0239201Y0098228D01*
X0238428Y0099000D01*
X0239201Y0099772D01*
X0239665Y0100893D01*
X0239665Y0102107D01*
X0239201Y0103228D01*
X0238343Y0104086D01*
X0237222Y0104550D01*
X0236008Y0104550D01*
X0237730Y0104339D02*
X0269454Y0104339D01*
X0269451Y0103341D02*
X0239088Y0103341D01*
X0239567Y0102342D02*
X0269772Y0102342D01*
X0270568Y0101344D02*
X0239665Y0101344D01*
X0239438Y0100345D02*
X0291915Y0100345D01*
X0291915Y0099347D02*
X0238775Y0099347D01*
X0239080Y0098348D02*
X0291915Y0098348D01*
X0291915Y0097350D02*
X0239564Y0097350D01*
X0239665Y0096351D02*
X0291915Y0096351D01*
X0291915Y0095353D02*
X0239441Y0095353D01*
X0238782Y0094354D02*
X0291915Y0094354D01*
X0291915Y0093356D02*
X0195335Y0093356D01*
X0195335Y0094354D02*
X0234447Y0094354D01*
X0233789Y0095353D02*
X0195335Y0095353D01*
X0195335Y0096351D02*
X0233565Y0096351D01*
X0233666Y0097350D02*
X0195335Y0097350D01*
X0195335Y0098348D02*
X0234150Y0098348D01*
X0234455Y0099347D02*
X0195335Y0099347D01*
X0195335Y0100345D02*
X0233792Y0100345D01*
X0233565Y0101344D02*
X0195335Y0101344D01*
X0195335Y0102342D02*
X0233663Y0102342D01*
X0234142Y0103341D02*
X0195335Y0103341D01*
X0195335Y0104339D02*
X0199462Y0104339D01*
X0198795Y0105338D02*
X0195335Y0105338D01*
X0195335Y0106336D02*
X0198565Y0106336D01*
X0198659Y0107335D02*
X0195335Y0107335D01*
X0195335Y0108333D02*
X0199135Y0108333D01*
X0200481Y0109332D02*
X0195335Y0109332D01*
X0195335Y0110330D02*
X0231298Y0110330D01*
X0231065Y0111329D02*
X0195335Y0111329D01*
X0195335Y0112327D02*
X0231156Y0112327D01*
X0231627Y0113326D02*
X0195335Y0113326D01*
X0202748Y0109332D02*
X0231970Y0109332D01*
X0236260Y0109332D02*
X0248013Y0109332D01*
X0247514Y0110330D02*
X0236932Y0110330D01*
X0237165Y0111329D02*
X0247404Y0111329D01*
X0247617Y0112327D02*
X0237074Y0112327D01*
X0236602Y0113326D02*
X0248261Y0113326D01*
X0249416Y0108333D02*
X0204095Y0108333D01*
X0179115Y0108333D02*
X0175615Y0108333D01*
X0175615Y0107335D02*
X0179115Y0107335D01*
X0179115Y0106336D02*
X0175615Y0106336D01*
X0175615Y0105338D02*
X0179115Y0105338D01*
X0179115Y0104339D02*
X0175615Y0104339D01*
X0175615Y0103341D02*
X0179115Y0103341D01*
X0179115Y0102342D02*
X0175615Y0102342D01*
X0175615Y0101344D02*
X0179115Y0101344D01*
X0179115Y0100345D02*
X0175615Y0100345D01*
X0175615Y0099347D02*
X0179115Y0099347D01*
X0179115Y0098348D02*
X0175615Y0098348D01*
X0175615Y0097350D02*
X0179115Y0097350D01*
X0179115Y0096351D02*
X0175615Y0096351D01*
X0175615Y0095353D02*
X0179115Y0095353D01*
X0179115Y0094354D02*
X0175615Y0094354D01*
X0175615Y0093356D02*
X0179115Y0093356D01*
X0179115Y0092357D02*
X0175615Y0092357D01*
X0175615Y0091359D02*
X0179115Y0091359D01*
X0179115Y0090360D02*
X0175615Y0090360D01*
X0175615Y0089362D02*
X0179115Y0089362D01*
X0179115Y0088363D02*
X0175615Y0088363D01*
X0175615Y0087365D02*
X0179115Y0087365D01*
X0179115Y0086366D02*
X0175615Y0086366D01*
X0175615Y0085368D02*
X0179115Y0085368D01*
X0179115Y0084369D02*
X0175615Y0084369D01*
X0175615Y0083370D02*
X0179115Y0083370D01*
X0179115Y0082372D02*
X0175615Y0082372D01*
X0175615Y0081373D02*
X0179115Y0081373D01*
X0179115Y0080375D02*
X0175615Y0080375D01*
X0175615Y0079376D02*
X0179115Y0079376D01*
X0179115Y0078378D02*
X0175614Y0078378D01*
X0174616Y0077379D02*
X0179115Y0077379D01*
X0179115Y0076381D02*
X0173617Y0076381D01*
X0172619Y0075382D02*
X0179115Y0075382D01*
X0179115Y0074384D02*
X0171620Y0074384D01*
X0170622Y0073385D02*
X0179115Y0073385D01*
X0178879Y0072387D02*
X0170615Y0072387D01*
X0170615Y0071388D02*
X0177881Y0071388D01*
X0177348Y0070390D02*
X0170615Y0070390D01*
X0170615Y0069391D02*
X0176934Y0069391D01*
X0176931Y0068393D02*
X0170615Y0068393D01*
X0170615Y0067394D02*
X0176948Y0067394D01*
X0177362Y0066396D02*
X0170615Y0066396D01*
X0170615Y0065397D02*
X0177914Y0065397D01*
X0178913Y0064399D02*
X0170615Y0064399D01*
X0170615Y0063400D02*
X0179115Y0063400D01*
X0179115Y0062402D02*
X0170615Y0062402D01*
X0170615Y0061403D02*
X0179115Y0061403D01*
X0179115Y0060405D02*
X0171034Y0060405D01*
X0171465Y0059406D02*
X0179115Y0059406D01*
X0179115Y0058408D02*
X0171465Y0058408D01*
X0170848Y0057409D02*
X0179115Y0057409D01*
X0179115Y0056411D02*
X0139115Y0056411D01*
X0139115Y0057409D02*
X0167382Y0057409D01*
X0166765Y0058408D02*
X0139115Y0058408D01*
X0139115Y0059406D02*
X0166765Y0059406D01*
X0167196Y0060405D02*
X0139115Y0060405D01*
X0139115Y0061403D02*
X0167615Y0061403D01*
X0169115Y0059000D02*
X0169115Y0074000D01*
X0174115Y0079000D01*
X0174115Y0126500D01*
X0186615Y0139000D01*
X0186615Y0201500D01*
X0189115Y0204000D01*
X0304115Y0204000D01*
X0309115Y0209000D01*
X0357115Y0209000D01*
X0363615Y0215500D01*
X0324115Y0193207D02*
X0460636Y0193207D01*
X0442658Y0173291D02*
X0442068Y0172701D01*
X0460636Y0143281D02*
X0400657Y0143281D01*
X0400088Y0143850D02*
X0401465Y0142473D01*
X0401465Y0140527D01*
X0400088Y0139150D01*
X0398142Y0139150D01*
X0396765Y0140527D01*
X0396765Y0142473D01*
X0398142Y0143850D01*
X0400088Y0143850D01*
X0401465Y0142283D02*
X0460636Y0142283D01*
X0460636Y0141284D02*
X0401465Y0141284D01*
X0401224Y0140286D02*
X0460636Y0140286D01*
X0460636Y0139287D02*
X0400225Y0139287D01*
X0398004Y0139287D02*
X0371307Y0139287D01*
X0371307Y0138853D02*
X0371307Y0140800D01*
X0369931Y0142177D01*
X0367984Y0142177D01*
X0366607Y0140800D01*
X0366607Y0138853D01*
X0367984Y0137477D01*
X0369931Y0137477D01*
X0371307Y0138853D01*
X0370743Y0138289D02*
X0460636Y0138289D01*
X0460636Y0137290D02*
X0343115Y0137290D01*
X0343115Y0136292D02*
X0460636Y0136292D01*
X0460636Y0135293D02*
X0343115Y0135293D01*
X0343115Y0134295D02*
X0460636Y0134295D01*
X0460636Y0133296D02*
X0343115Y0133296D01*
X0343115Y0132298D02*
X0433637Y0132298D01*
X0433929Y0132589D02*
X0432888Y0131549D01*
X0432324Y0130189D01*
X0432324Y0128717D01*
X0432888Y0127357D01*
X0433929Y0126316D01*
X0435288Y0125753D01*
X0436760Y0125753D01*
X0438120Y0126316D01*
X0439161Y0127357D01*
X0439724Y0128717D01*
X0439724Y0130189D01*
X0439161Y0131549D01*
X0438120Y0132589D01*
X0436760Y0133153D01*
X0435288Y0133153D01*
X0433929Y0132589D01*
X0432784Y0131299D02*
X0385139Y0131299D01*
X0385088Y0131350D02*
X0383142Y0131350D01*
X0381765Y0129973D01*
X0381765Y0128027D01*
X0383142Y0126650D01*
X0385088Y0126650D01*
X0386465Y0128027D01*
X0386465Y0129973D01*
X0385088Y0131350D01*
X0386138Y0130301D02*
X0432371Y0130301D01*
X0432324Y0129302D02*
X0386465Y0129302D01*
X0386465Y0128303D02*
X0432496Y0128303D01*
X0432940Y0127305D02*
X0385743Y0127305D01*
X0382487Y0127305D02*
X0343115Y0127305D01*
X0343115Y0128303D02*
X0381765Y0128303D01*
X0381765Y0129302D02*
X0343115Y0129302D01*
X0343115Y0130301D02*
X0382092Y0130301D01*
X0383091Y0131299D02*
X0343115Y0131299D01*
X0343115Y0126306D02*
X0433952Y0126306D01*
X0435288Y0123153D02*
X0433929Y0122589D01*
X0432888Y0121549D01*
X0432324Y0120189D01*
X0432324Y0118717D01*
X0432888Y0117357D01*
X0433929Y0116316D01*
X0435288Y0115753D01*
X0436760Y0115753D01*
X0438120Y0116316D01*
X0439161Y0117357D01*
X0439724Y0118717D01*
X0439724Y0120189D01*
X0439161Y0121549D01*
X0438120Y0122589D01*
X0436760Y0123153D01*
X0435288Y0123153D01*
X0433651Y0122312D02*
X0343115Y0122312D01*
X0343115Y0121314D02*
X0432790Y0121314D01*
X0432377Y0120315D02*
X0343115Y0120315D01*
X0343115Y0119317D02*
X0432324Y0119317D01*
X0432489Y0118318D02*
X0343115Y0118318D01*
X0343115Y0117320D02*
X0432925Y0117320D01*
X0433923Y0116321D02*
X0343115Y0116321D01*
X0343115Y0115323D02*
X0460636Y0115323D01*
X0460636Y0116321D02*
X0448126Y0116321D01*
X0448120Y0116316D02*
X0449161Y0117357D01*
X0449724Y0118717D01*
X0449724Y0120189D01*
X0449161Y0121549D01*
X0448120Y0122589D01*
X0446760Y0123153D01*
X0445288Y0123153D01*
X0443929Y0122589D01*
X0442888Y0121549D01*
X0442324Y0120189D01*
X0442324Y0118717D01*
X0442888Y0117357D01*
X0443929Y0116316D01*
X0445288Y0115753D01*
X0446760Y0115753D01*
X0448120Y0116316D01*
X0449124Y0117320D02*
X0460636Y0117320D01*
X0460636Y0118318D02*
X0449559Y0118318D01*
X0449724Y0119317D02*
X0460636Y0119317D01*
X0460636Y0120315D02*
X0449672Y0120315D01*
X0449258Y0121314D02*
X0460636Y0121314D01*
X0460636Y0122312D02*
X0448397Y0122312D01*
X0446760Y0125753D02*
X0448120Y0126316D01*
X0449161Y0127357D01*
X0449724Y0128717D01*
X0449724Y0130189D01*
X0449161Y0131549D01*
X0448120Y0132589D01*
X0446760Y0133153D01*
X0445288Y0133153D01*
X0443929Y0132589D01*
X0442888Y0131549D01*
X0442324Y0130189D01*
X0442324Y0128717D01*
X0442888Y0127357D01*
X0443929Y0126316D01*
X0445288Y0125753D01*
X0446760Y0125753D01*
X0448097Y0126306D02*
X0460636Y0126306D01*
X0460636Y0125308D02*
X0343115Y0125308D01*
X0343115Y0124309D02*
X0460636Y0124309D01*
X0460636Y0123311D02*
X0343115Y0123311D01*
X0343115Y0114324D02*
X0460636Y0114324D01*
X0460636Y0113326D02*
X0343115Y0113326D01*
X0343115Y0112327D02*
X0433666Y0112327D01*
X0433929Y0112589D02*
X0432888Y0111549D01*
X0432324Y0110189D01*
X0432324Y0108717D01*
X0432888Y0107357D01*
X0433929Y0106316D01*
X0435288Y0105753D01*
X0436760Y0105753D01*
X0438120Y0106316D01*
X0439161Y0107357D01*
X0439724Y0108717D01*
X0439724Y0110189D01*
X0439161Y0111549D01*
X0438120Y0112589D01*
X0436760Y0113153D01*
X0435288Y0113153D01*
X0433929Y0112589D01*
X0432797Y0111329D02*
X0350261Y0111329D01*
X0352214Y0110330D02*
X0432383Y0110330D01*
X0432324Y0109332D02*
X0353213Y0109332D01*
X0353659Y0108333D02*
X0432483Y0108333D01*
X0432910Y0107335D02*
X0354015Y0107335D01*
X0354015Y0106336D02*
X0433908Y0106336D01*
X0438140Y0106336D02*
X0443908Y0106336D01*
X0443929Y0106316D02*
X0445288Y0105753D01*
X0446760Y0105753D01*
X0448120Y0106316D01*
X0449161Y0107357D01*
X0449724Y0108717D01*
X0449724Y0110189D01*
X0449161Y0111549D01*
X0448120Y0112589D01*
X0446760Y0113153D01*
X0445288Y0113153D01*
X0443929Y0112589D01*
X0442888Y0111549D01*
X0442324Y0110189D01*
X0442324Y0108717D01*
X0442888Y0107357D01*
X0443929Y0106316D01*
X0442910Y0107335D02*
X0439139Y0107335D01*
X0439566Y0108333D02*
X0442483Y0108333D01*
X0442324Y0109332D02*
X0439724Y0109332D01*
X0439666Y0110330D02*
X0442383Y0110330D01*
X0442797Y0111329D02*
X0439252Y0111329D01*
X0438382Y0112327D02*
X0443666Y0112327D01*
X0443923Y0116321D02*
X0438126Y0116321D01*
X0439124Y0117320D02*
X0442925Y0117320D01*
X0442489Y0118318D02*
X0439559Y0118318D01*
X0439724Y0119317D02*
X0442324Y0119317D01*
X0442377Y0120315D02*
X0439672Y0120315D01*
X0439258Y0121314D02*
X0442790Y0121314D01*
X0443651Y0122312D02*
X0438397Y0122312D01*
X0438097Y0126306D02*
X0443952Y0126306D01*
X0442940Y0127305D02*
X0439109Y0127305D01*
X0439553Y0128303D02*
X0442496Y0128303D01*
X0442324Y0129302D02*
X0439724Y0129302D01*
X0439678Y0130301D02*
X0442371Y0130301D01*
X0442784Y0131299D02*
X0439265Y0131299D01*
X0438412Y0132298D02*
X0443637Y0132298D01*
X0448412Y0132298D02*
X0460636Y0132298D01*
X0460636Y0131299D02*
X0449265Y0131299D01*
X0449678Y0130301D02*
X0460636Y0130301D01*
X0460636Y0129302D02*
X0449724Y0129302D01*
X0449553Y0128303D02*
X0460636Y0128303D01*
X0460636Y0127305D02*
X0449109Y0127305D01*
X0448382Y0112327D02*
X0460636Y0112327D01*
X0460636Y0111329D02*
X0449252Y0111329D01*
X0449666Y0110330D02*
X0460636Y0110330D01*
X0460636Y0109332D02*
X0449724Y0109332D01*
X0449566Y0108333D02*
X0460636Y0108333D01*
X0460636Y0107335D02*
X0449139Y0107335D01*
X0448140Y0106336D02*
X0460636Y0106336D01*
X0460636Y0105338D02*
X0353937Y0105338D01*
X0353524Y0104339D02*
X0460636Y0104339D01*
X0460636Y0103341D02*
X0352885Y0103341D01*
X0351881Y0102342D02*
X0460636Y0102342D01*
X0460636Y0101344D02*
X0362811Y0101344D01*
X0363810Y0100345D02*
X0460636Y0100345D01*
X0460636Y0099347D02*
X0364044Y0099347D01*
X0360576Y0101344D02*
X0351503Y0101344D01*
X0352907Y0100345D02*
X0359578Y0100345D01*
X0359344Y0099347D02*
X0353721Y0099347D01*
X0354192Y0098348D02*
X0359344Y0098348D01*
X0360158Y0097350D02*
X0354448Y0097350D01*
X0348615Y0096351D02*
X0343115Y0096351D01*
X0343115Y0095353D02*
X0343829Y0095353D01*
X0344148Y0094354D02*
X0343115Y0094354D01*
X0343115Y0093356D02*
X0344725Y0093356D01*
X0345630Y0092357D02*
X0343115Y0092357D01*
X0343115Y0091359D02*
X0347464Y0091359D01*
X0346045Y0090360D02*
X0343115Y0090360D01*
X0343115Y0089362D02*
X0345047Y0089362D01*
X0344583Y0088363D02*
X0343115Y0088363D01*
X0343115Y0087365D02*
X0344215Y0087365D01*
X0344215Y0086366D02*
X0343115Y0086366D01*
X0343115Y0085368D02*
X0344280Y0085368D01*
X0344694Y0084369D02*
X0343115Y0084369D01*
X0343115Y0083370D02*
X0345315Y0083370D01*
X0346313Y0082372D02*
X0343115Y0082372D01*
X0343115Y0097350D02*
X0343782Y0097350D01*
X0344038Y0098348D02*
X0343115Y0098348D01*
X0343115Y0099347D02*
X0344508Y0099347D01*
X0345323Y0100345D02*
X0343115Y0100345D01*
X0343115Y0101344D02*
X0346727Y0101344D01*
X0346348Y0102342D02*
X0343115Y0102342D01*
X0343115Y0103341D02*
X0345345Y0103341D01*
X0344706Y0104339D02*
X0343115Y0104339D01*
X0343115Y0105338D02*
X0344293Y0105338D01*
X0344215Y0106336D02*
X0343115Y0106336D01*
X0343115Y0107335D02*
X0344215Y0107335D01*
X0344571Y0108333D02*
X0343115Y0108333D01*
X0343115Y0109332D02*
X0345017Y0109332D01*
X0346016Y0110330D02*
X0343115Y0110330D01*
X0343115Y0111329D02*
X0347968Y0111329D01*
X0343115Y0138289D02*
X0367172Y0138289D01*
X0366607Y0139287D02*
X0343115Y0139287D01*
X0343115Y0140286D02*
X0366607Y0140286D01*
X0367091Y0141284D02*
X0343115Y0141284D01*
X0342954Y0142283D02*
X0396765Y0142283D01*
X0396765Y0141284D02*
X0370823Y0141284D01*
X0371307Y0140286D02*
X0397006Y0140286D01*
X0397573Y0143281D02*
X0342505Y0143281D01*
X0342505Y0144280D02*
X0343092Y0144280D01*
X0339505Y0144280D02*
X0324115Y0144280D01*
X0324115Y0145278D02*
X0339505Y0145278D01*
X0339505Y0146277D02*
X0324115Y0146277D01*
X0324115Y0147275D02*
X0338894Y0147275D01*
X0338655Y0148274D02*
X0324115Y0148274D01*
X0324115Y0149272D02*
X0338655Y0149272D01*
X0339464Y0150271D02*
X0324115Y0150271D01*
X0324115Y0151269D02*
X0340292Y0151269D01*
X0340292Y0152268D02*
X0324115Y0152268D01*
X0324115Y0153266D02*
X0340292Y0153266D01*
X0340292Y0154265D02*
X0324115Y0154265D01*
X0324115Y0155263D02*
X0340292Y0155263D01*
X0340292Y0156262D02*
X0324115Y0156262D01*
X0324115Y0157260D02*
X0340292Y0157260D01*
X0340292Y0158259D02*
X0324115Y0158259D01*
X0324115Y0159257D02*
X0340292Y0159257D01*
X0340292Y0160256D02*
X0324115Y0160256D01*
X0324115Y0161254D02*
X0340292Y0161254D01*
X0340292Y0162253D02*
X0324115Y0162253D01*
X0324115Y0163251D02*
X0340292Y0163251D01*
X0340292Y0164250D02*
X0324115Y0164250D01*
X0324115Y0165248D02*
X0340292Y0165248D01*
X0340292Y0166247D02*
X0324115Y0166247D01*
X0324115Y0167245D02*
X0340292Y0167245D01*
X0340292Y0168244D02*
X0324115Y0168244D01*
X0324115Y0169242D02*
X0340292Y0169242D01*
X0340292Y0170241D02*
X0324115Y0170241D01*
X0324115Y0171239D02*
X0340292Y0171239D01*
X0340292Y0172238D02*
X0324115Y0172238D01*
X0324115Y0173237D02*
X0340292Y0173237D01*
X0340292Y0174235D02*
X0324115Y0174235D01*
X0324115Y0175234D02*
X0340292Y0175234D01*
X0340292Y0176232D02*
X0324115Y0176232D01*
X0324115Y0177231D02*
X0340292Y0177231D01*
X0340292Y0178229D02*
X0324115Y0178229D01*
X0324115Y0179228D02*
X0340292Y0179228D01*
X0340292Y0180226D02*
X0324115Y0180226D01*
X0324115Y0181225D02*
X0340292Y0181225D01*
X0340292Y0182223D02*
X0324115Y0182223D01*
X0324115Y0183222D02*
X0340292Y0183222D01*
X0340292Y0184220D02*
X0324115Y0184220D01*
X0341792Y0189039D02*
X0341792Y0149276D01*
X0341005Y0148488D01*
X0339505Y0143281D02*
X0324115Y0143281D01*
X0292580Y0134295D02*
X0291126Y0134295D01*
X0291830Y0133296D02*
X0292580Y0133296D01*
X0292580Y0132298D02*
X0292086Y0132298D01*
X0291915Y0129302D02*
X0290322Y0129302D01*
X0287109Y0142283D02*
X0195335Y0142283D01*
X0195335Y0143281D02*
X0286310Y0143281D01*
X0285986Y0144280D02*
X0195335Y0144280D01*
X0195335Y0145278D02*
X0285987Y0145278D01*
X0286401Y0146277D02*
X0195335Y0146277D01*
X0195335Y0147275D02*
X0287357Y0147275D01*
X0265715Y0150271D02*
X0203955Y0150271D01*
X0205033Y0151269D02*
X0265514Y0151269D01*
X0265638Y0152268D02*
X0205446Y0152268D01*
X0205472Y0153266D02*
X0266155Y0153266D01*
X0224283Y0158259D02*
X0195335Y0158259D01*
X0195335Y0159257D02*
X0223386Y0159257D01*
X0222994Y0160256D02*
X0195335Y0160256D01*
X0195335Y0161254D02*
X0222994Y0161254D01*
X0200435Y0155263D02*
X0195335Y0155263D01*
X0195335Y0154265D02*
X0199671Y0154265D01*
X0199372Y0153266D02*
X0195335Y0153266D01*
X0195335Y0152268D02*
X0199398Y0152268D01*
X0199812Y0151269D02*
X0195335Y0151269D01*
X0195335Y0150271D02*
X0200889Y0150271D01*
X0198091Y0148606D02*
X0198091Y0159236D01*
X0198091Y0185476D01*
X0200591Y0187976D01*
X0239430Y0187976D01*
X0241398Y0186008D01*
X0248623Y0186008D01*
X0251615Y0189000D01*
X0253347Y0190732D01*
X0266202Y0190732D01*
X0267776Y0189157D01*
X0267776Y0184433D01*
X0260882Y0186217D02*
X0292580Y0186217D01*
X0292580Y0185219D02*
X0214133Y0185219D01*
X0214133Y0186217D02*
X0256561Y0186217D01*
X0255898Y0187216D02*
X0248101Y0187216D01*
X0248986Y0188214D02*
X0255671Y0188214D01*
X0255769Y0189213D02*
X0249370Y0189213D01*
X0249370Y0190211D02*
X0256249Y0190211D01*
X0244539Y0187216D02*
X0213721Y0187216D01*
X0212777Y0188214D02*
X0243654Y0188214D01*
X0213807Y0184220D02*
X0292580Y0184220D01*
X0292580Y0183222D02*
X0213004Y0183222D01*
X0179115Y0183222D02*
X0107958Y0183222D01*
X0108956Y0184220D02*
X0179115Y0184220D01*
X0179115Y0185219D02*
X0109955Y0185219D01*
X0110615Y0186217D02*
X0179115Y0186217D01*
X0179115Y0187216D02*
X0110615Y0187216D01*
X0110615Y0188214D02*
X0122326Y0188214D01*
X0123927Y0187551D02*
X0127706Y0187551D01*
X0131198Y0188997D01*
X0133870Y0191670D01*
X0135317Y0195162D01*
X0135317Y0198941D01*
X0133870Y0202432D01*
X0131198Y0205105D01*
X0127706Y0206551D01*
X0123927Y0206551D01*
X0120435Y0205105D01*
X0117763Y0202432D01*
X0116317Y0198941D01*
X0116317Y0195162D01*
X0117763Y0191670D01*
X0120435Y0188997D01*
X0123927Y0187551D01*
X0120220Y0189213D02*
X0110615Y0189213D01*
X0110615Y0190211D02*
X0119221Y0190211D01*
X0118223Y0191210D02*
X0110615Y0191210D01*
X0110615Y0192208D02*
X0117540Y0192208D01*
X0117126Y0193207D02*
X0110615Y0193207D01*
X0110615Y0194205D02*
X0116713Y0194205D01*
X0116317Y0195204D02*
X0110615Y0195204D01*
X0110615Y0196202D02*
X0116317Y0196202D01*
X0116317Y0197201D02*
X0110615Y0197201D01*
X0110615Y0198199D02*
X0116317Y0198199D01*
X0116423Y0199198D02*
X0110615Y0199198D01*
X0110615Y0200196D02*
X0116837Y0200196D01*
X0117250Y0201195D02*
X0110615Y0201195D01*
X0110615Y0202193D02*
X0117664Y0202193D01*
X0118522Y0203192D02*
X0110615Y0203192D01*
X0110615Y0204190D02*
X0119521Y0204190D01*
X0120638Y0205189D02*
X0110615Y0205189D01*
X0110924Y0206187D02*
X0123049Y0206187D01*
X0128584Y0206187D02*
X0179115Y0206187D01*
X0179115Y0205189D02*
X0130995Y0205189D01*
X0132112Y0204190D02*
X0179115Y0204190D01*
X0179115Y0203192D02*
X0133111Y0203192D01*
X0133969Y0202193D02*
X0179115Y0202193D01*
X0179115Y0201195D02*
X0134383Y0201195D01*
X0134797Y0200196D02*
X0179115Y0200196D01*
X0179115Y0199198D02*
X0135210Y0199198D01*
X0135317Y0198199D02*
X0179115Y0198199D01*
X0179115Y0197201D02*
X0135317Y0197201D01*
X0135317Y0196202D02*
X0179115Y0196202D01*
X0179115Y0195204D02*
X0135317Y0195204D01*
X0134920Y0194205D02*
X0179115Y0194205D01*
X0179115Y0193207D02*
X0134507Y0193207D01*
X0134093Y0192208D02*
X0179115Y0192208D01*
X0179115Y0191210D02*
X0133410Y0191210D01*
X0132412Y0190211D02*
X0179115Y0190211D01*
X0179115Y0189213D02*
X0131413Y0189213D01*
X0129307Y0188214D02*
X0179115Y0188214D01*
X0179115Y0182223D02*
X0106959Y0182223D01*
X0105961Y0181225D02*
X0179115Y0181225D01*
X0179115Y0180226D02*
X0104962Y0180226D01*
X0104115Y0181500D02*
X0109115Y0186500D01*
X0109115Y0206500D01*
X0114115Y0211500D01*
X0139115Y0211500D01*
X0141615Y0209000D01*
X0244115Y0209000D01*
X0250615Y0215500D01*
X0253615Y0215500D01*
X0284615Y0206500D02*
X0293615Y0215500D01*
X0284615Y0206500D02*
X0186615Y0206500D01*
X0184115Y0204000D01*
X0184115Y0141500D01*
X0169115Y0126500D01*
X0169115Y0101500D01*
X0171465Y0101344D02*
X0172615Y0101344D01*
X0172615Y0102342D02*
X0171465Y0102342D01*
X0170615Y0103341D02*
X0172615Y0103341D01*
X0172615Y0104339D02*
X0170615Y0104339D01*
X0170615Y0105338D02*
X0172615Y0105338D01*
X0172615Y0106336D02*
X0170615Y0106336D01*
X0170615Y0107335D02*
X0172615Y0107335D01*
X0172615Y0108333D02*
X0170615Y0108333D01*
X0170615Y0109332D02*
X0172615Y0109332D01*
X0172615Y0110330D02*
X0170615Y0110330D01*
X0170615Y0111329D02*
X0172615Y0111329D01*
X0172615Y0112327D02*
X0170615Y0112327D01*
X0170615Y0113326D02*
X0172615Y0113326D01*
X0172615Y0114324D02*
X0170615Y0114324D01*
X0170615Y0115323D02*
X0172615Y0115323D01*
X0172615Y0116321D02*
X0170615Y0116321D01*
X0170615Y0117320D02*
X0172615Y0117320D01*
X0172615Y0118318D02*
X0170615Y0118318D01*
X0170615Y0119317D02*
X0172615Y0119317D01*
X0172615Y0120315D02*
X0170615Y0120315D01*
X0170615Y0121314D02*
X0172615Y0121314D01*
X0172615Y0122312D02*
X0170615Y0122312D01*
X0170615Y0123311D02*
X0172615Y0123311D01*
X0172615Y0124309D02*
X0170615Y0124309D01*
X0170615Y0125308D02*
X0172615Y0125308D01*
X0172615Y0126306D02*
X0171043Y0126306D01*
X0172041Y0127305D02*
X0172799Y0127305D01*
X0173040Y0128303D02*
X0173797Y0128303D01*
X0174038Y0129302D02*
X0174796Y0129302D01*
X0175037Y0130301D02*
X0175794Y0130301D01*
X0176035Y0131299D02*
X0176793Y0131299D01*
X0177034Y0132298D02*
X0177791Y0132298D01*
X0178032Y0133296D02*
X0178790Y0133296D01*
X0179031Y0134295D02*
X0179115Y0134295D01*
X0179038Y0129302D02*
X0179115Y0129302D01*
X0179115Y0128303D02*
X0178040Y0128303D01*
X0177041Y0127305D02*
X0179115Y0127305D01*
X0179115Y0126306D02*
X0176043Y0126306D01*
X0175615Y0125308D02*
X0179115Y0125308D01*
X0179115Y0124309D02*
X0175615Y0124309D01*
X0175615Y0123311D02*
X0179115Y0123311D01*
X0179115Y0122312D02*
X0175615Y0122312D01*
X0175615Y0121314D02*
X0179115Y0121314D01*
X0179115Y0120315D02*
X0175615Y0120315D01*
X0175615Y0119317D02*
X0179115Y0119317D01*
X0179115Y0118318D02*
X0175615Y0118318D01*
X0175615Y0117320D02*
X0179115Y0117320D01*
X0179115Y0116321D02*
X0175615Y0116321D01*
X0175615Y0115323D02*
X0179115Y0115323D01*
X0179115Y0114324D02*
X0175615Y0114324D01*
X0175615Y0113326D02*
X0179115Y0113326D01*
X0179115Y0112327D02*
X0175615Y0112327D01*
X0175615Y0111329D02*
X0179115Y0111329D01*
X0179115Y0110330D02*
X0175615Y0110330D01*
X0175615Y0109332D02*
X0179115Y0109332D01*
X0167615Y0109332D02*
X0160270Y0109332D01*
X0160088Y0109150D02*
X0161465Y0110527D01*
X0161465Y0112473D01*
X0160088Y0113850D01*
X0158142Y0113850D01*
X0156765Y0112473D01*
X0156765Y0110527D01*
X0158142Y0109150D01*
X0160088Y0109150D01*
X0161269Y0110330D02*
X0167615Y0110330D01*
X0167615Y0111329D02*
X0161465Y0111329D01*
X0161465Y0112327D02*
X0167615Y0112327D01*
X0167615Y0113326D02*
X0160613Y0113326D01*
X0157617Y0113326D02*
X0139115Y0113326D01*
X0139115Y0114324D02*
X0167615Y0114324D01*
X0167615Y0115323D02*
X0139115Y0115323D01*
X0139115Y0116321D02*
X0167615Y0116321D01*
X0167615Y0117320D02*
X0139115Y0117320D01*
X0139115Y0118318D02*
X0167615Y0118318D01*
X0167615Y0119317D02*
X0139115Y0119317D01*
X0139115Y0120315D02*
X0167615Y0120315D01*
X0167615Y0121314D02*
X0139115Y0121314D01*
X0139115Y0122312D02*
X0149959Y0122312D01*
X0152483Y0122312D02*
X0167615Y0122312D01*
X0167615Y0123311D02*
X0153482Y0123311D01*
X0153571Y0124309D02*
X0167615Y0124309D01*
X0167615Y0125308D02*
X0153571Y0125308D01*
X0152612Y0126306D02*
X0167615Y0126306D01*
X0167799Y0127305D02*
X0143243Y0127305D01*
X0143965Y0128303D02*
X0168797Y0128303D01*
X0169796Y0129302D02*
X0143965Y0129302D01*
X0143638Y0130301D02*
X0170794Y0130301D01*
X0171793Y0131299D02*
X0142639Y0131299D01*
X0139115Y0145278D02*
X0179115Y0145278D01*
X0179568Y0144846D02*
X0179568Y0168547D01*
X0174115Y0174000D01*
X0044115Y0174000D01*
X0039115Y0179000D01*
X0039115Y0186500D01*
X0054115Y0201500D01*
X0059765Y0201500D01*
X0060317Y0202051D01*
X0060817Y0202193D02*
X0067117Y0202193D01*
X0067117Y0202847D02*
X0067117Y0201256D01*
X0067725Y0199785D01*
X0068851Y0198660D01*
X0070321Y0198051D01*
X0071912Y0198051D01*
X0073382Y0198660D01*
X0074508Y0199785D01*
X0075117Y0201256D01*
X0075117Y0202847D01*
X0074508Y0204317D01*
X0073382Y0205442D01*
X0071912Y0206051D01*
X0070321Y0206051D01*
X0068851Y0205442D01*
X0067725Y0204317D01*
X0067117Y0202847D01*
X0067259Y0203192D02*
X0064677Y0203192D01*
X0064706Y0203105D02*
X0064487Y0203779D01*
X0064165Y0204410D01*
X0063749Y0204983D01*
X0063248Y0205484D01*
X0062675Y0205900D01*
X0062044Y0206221D01*
X0061370Y0206440D01*
X0060817Y0206528D01*
X0060817Y0202551D01*
X0064793Y0202551D01*
X0064706Y0203105D01*
X0064277Y0204190D02*
X0067673Y0204190D01*
X0068597Y0205189D02*
X0063543Y0205189D01*
X0062111Y0206187D02*
X0080417Y0206187D01*
X0080417Y0207186D02*
X0012515Y0207186D01*
X0012515Y0208184D02*
X0080417Y0208184D01*
X0083417Y0208184D02*
X0108678Y0208184D01*
X0107680Y0207186D02*
X0083417Y0207186D01*
X0083417Y0206187D02*
X0107615Y0206187D01*
X0107615Y0205189D02*
X0095236Y0205189D01*
X0094982Y0205442D02*
X0093512Y0206051D01*
X0091921Y0206051D01*
X0090451Y0205442D01*
X0089325Y0204317D01*
X0088717Y0202847D01*
X0088717Y0201256D01*
X0089325Y0199785D01*
X0090451Y0198660D01*
X0091921Y0198051D01*
X0093512Y0198051D01*
X0094982Y0198660D01*
X0096108Y0199785D01*
X0096717Y0201256D01*
X0096717Y0202847D01*
X0096108Y0204317D01*
X0094982Y0205442D01*
X0096160Y0204190D02*
X0107615Y0204190D01*
X0107615Y0203192D02*
X0096574Y0203192D01*
X0096717Y0202193D02*
X0107615Y0202193D01*
X0107615Y0201195D02*
X0096691Y0201195D01*
X0096278Y0200196D02*
X0107615Y0200196D01*
X0107615Y0199198D02*
X0095520Y0199198D01*
X0093870Y0198199D02*
X0107615Y0198199D01*
X0107615Y0197201D02*
X0036717Y0197201D01*
X0036717Y0198199D02*
X0057964Y0198199D01*
X0057958Y0198202D02*
X0058589Y0197881D01*
X0059263Y0197662D01*
X0059817Y0197574D01*
X0059817Y0201551D01*
X0060817Y0201551D01*
X0060817Y0202551D01*
X0059817Y0202551D01*
X0059817Y0206528D01*
X0059263Y0206440D01*
X0058589Y0206221D01*
X0057958Y0205900D01*
X0057385Y0205484D01*
X0056884Y0204983D01*
X0056468Y0204410D01*
X0056146Y0203779D01*
X0055927Y0203105D01*
X0055840Y0202551D01*
X0059816Y0202551D01*
X0059816Y0201551D01*
X0055840Y0201551D01*
X0055927Y0200997D01*
X0056146Y0200324D01*
X0056468Y0199693D01*
X0056884Y0199120D01*
X0057385Y0198619D01*
X0057958Y0198202D01*
X0056827Y0199198D02*
X0036610Y0199198D01*
X0036717Y0198941D02*
X0035270Y0202432D01*
X0032598Y0205105D01*
X0029106Y0206551D01*
X0025327Y0206551D01*
X0021835Y0205105D01*
X0019163Y0202432D01*
X0017717Y0198941D01*
X0017717Y0195162D01*
X0019163Y0191670D01*
X0021835Y0188997D01*
X0025327Y0187551D01*
X0029106Y0187551D01*
X0032598Y0188997D01*
X0035270Y0191670D01*
X0036717Y0195162D01*
X0036717Y0198941D01*
X0036197Y0200196D02*
X0056211Y0200196D01*
X0055896Y0201195D02*
X0035783Y0201195D01*
X0035369Y0202193D02*
X0059816Y0202193D01*
X0059817Y0201195D02*
X0060817Y0201195D01*
X0060817Y0201551D02*
X0060817Y0197574D01*
X0061370Y0197662D01*
X0062044Y0197881D01*
X0062675Y0198202D01*
X0063248Y0198619D01*
X0063749Y0199120D01*
X0064165Y0199693D01*
X0064487Y0200324D01*
X0064706Y0200997D01*
X0064793Y0201551D01*
X0060817Y0201551D01*
X0060817Y0200196D02*
X0059817Y0200196D01*
X0059817Y0199198D02*
X0060817Y0199198D01*
X0060817Y0198199D02*
X0059817Y0198199D01*
X0062669Y0198199D02*
X0069963Y0198199D01*
X0068313Y0199198D02*
X0063806Y0199198D01*
X0064422Y0200196D02*
X0067555Y0200196D01*
X0067142Y0201195D02*
X0064737Y0201195D01*
X0060817Y0203192D02*
X0059817Y0203192D01*
X0059817Y0204190D02*
X0060817Y0204190D01*
X0060817Y0205189D02*
X0059817Y0205189D01*
X0059817Y0206187D02*
X0060817Y0206187D01*
X0058522Y0206187D02*
X0029984Y0206187D01*
X0032395Y0205189D02*
X0057090Y0205189D01*
X0056356Y0204190D02*
X0033512Y0204190D01*
X0034511Y0203192D02*
X0055956Y0203192D01*
X0055712Y0196051D02*
X0054121Y0196051D01*
X0052651Y0195442D01*
X0051525Y0194317D01*
X0050917Y0192847D01*
X0050917Y0191256D01*
X0051525Y0189785D01*
X0052651Y0188660D01*
X0054121Y0188051D01*
X0055712Y0188051D01*
X0057182Y0188660D01*
X0058308Y0189785D01*
X0058917Y0191256D01*
X0058917Y0192847D01*
X0058308Y0194317D01*
X0057182Y0195442D01*
X0055712Y0196051D01*
X0057421Y0195204D02*
X0063212Y0195204D01*
X0063451Y0195442D02*
X0062325Y0194317D01*
X0061717Y0192847D01*
X0061717Y0191256D01*
X0062325Y0189785D01*
X0063451Y0188660D01*
X0064921Y0188051D01*
X0066512Y0188051D01*
X0067982Y0188660D01*
X0069108Y0189785D01*
X0069717Y0191256D01*
X0069717Y0192847D01*
X0069108Y0194317D01*
X0067982Y0195442D01*
X0066512Y0196051D01*
X0064921Y0196051D01*
X0063451Y0195442D01*
X0062279Y0194205D02*
X0058354Y0194205D01*
X0058767Y0193207D02*
X0061866Y0193207D01*
X0061717Y0192208D02*
X0058917Y0192208D01*
X0058898Y0191210D02*
X0061736Y0191210D01*
X0062149Y0190211D02*
X0058484Y0190211D01*
X0057735Y0189213D02*
X0062898Y0189213D01*
X0064527Y0188214D02*
X0056106Y0188214D01*
X0053727Y0188214D02*
X0030707Y0188214D01*
X0032813Y0189213D02*
X0052098Y0189213D01*
X0051349Y0190211D02*
X0033812Y0190211D01*
X0034810Y0191210D02*
X0050936Y0191210D01*
X0050917Y0192208D02*
X0035493Y0192208D01*
X0035907Y0193207D02*
X0051066Y0193207D01*
X0051479Y0194205D02*
X0036320Y0194205D01*
X0036717Y0195204D02*
X0052412Y0195204D01*
X0036717Y0196202D02*
X0107615Y0196202D01*
X0107615Y0195204D02*
X0100621Y0195204D01*
X0100382Y0195442D02*
X0098912Y0196051D01*
X0097321Y0196051D01*
X0095851Y0195442D01*
X0094725Y0194317D01*
X0094117Y0192847D01*
X0094117Y0191256D01*
X0094725Y0189785D01*
X0095851Y0188660D01*
X0097321Y0188051D01*
X0098912Y0188051D01*
X0100382Y0188660D01*
X0101508Y0189785D01*
X0102117Y0191256D01*
X0102117Y0192847D01*
X0101508Y0194317D01*
X0100382Y0195442D01*
X0101554Y0194205D02*
X0107615Y0194205D01*
X0107615Y0193207D02*
X0101967Y0193207D01*
X0102117Y0192208D02*
X0107615Y0192208D01*
X0107615Y0191210D02*
X0102098Y0191210D01*
X0101684Y0190211D02*
X0107615Y0190211D01*
X0107615Y0189213D02*
X0100935Y0189213D01*
X0099306Y0188214D02*
X0107615Y0188214D01*
X0107615Y0187216D02*
X0012515Y0187216D01*
X0012515Y0188214D02*
X0023726Y0188214D01*
X0021620Y0189213D02*
X0012515Y0189213D01*
X0012515Y0190211D02*
X0020621Y0190211D01*
X0019623Y0191210D02*
X0012515Y0191210D01*
X0012515Y0192208D02*
X0018940Y0192208D01*
X0018526Y0193207D02*
X0012515Y0193207D01*
X0012515Y0194205D02*
X0018113Y0194205D01*
X0017717Y0195204D02*
X0012515Y0195204D01*
X0012515Y0196202D02*
X0017717Y0196202D01*
X0017717Y0197201D02*
X0012515Y0197201D01*
X0012515Y0198199D02*
X0017717Y0198199D01*
X0017823Y0199198D02*
X0012515Y0199198D01*
X0012515Y0200196D02*
X0018237Y0200196D01*
X0018650Y0201195D02*
X0012515Y0201195D01*
X0012515Y0202193D02*
X0019064Y0202193D01*
X0019922Y0203192D02*
X0012515Y0203192D01*
X0012515Y0204190D02*
X0020921Y0204190D01*
X0022038Y0205189D02*
X0012515Y0205189D01*
X0012515Y0206187D02*
X0024449Y0206187D01*
X0012515Y0186217D02*
X0106711Y0186217D01*
X0105712Y0185219D02*
X0012515Y0185219D01*
X0012515Y0184220D02*
X0104714Y0184220D01*
X0103715Y0183222D02*
X0045717Y0183222D01*
X0044115Y0181500D02*
X0104115Y0181500D01*
X0096927Y0188214D02*
X0088506Y0188214D01*
X0088112Y0188051D02*
X0089582Y0188660D01*
X0090708Y0189785D01*
X0091317Y0191256D01*
X0091317Y0192847D01*
X0090708Y0194317D01*
X0089582Y0195442D01*
X0088112Y0196051D01*
X0086521Y0196051D01*
X0085051Y0195442D01*
X0083925Y0194317D01*
X0083317Y0192847D01*
X0083317Y0191256D01*
X0083925Y0189785D01*
X0085051Y0188660D01*
X0086521Y0188051D01*
X0088112Y0188051D01*
X0086127Y0188214D02*
X0077706Y0188214D01*
X0077312Y0188051D02*
X0078782Y0188660D01*
X0079908Y0189785D01*
X0080517Y0191256D01*
X0080517Y0192847D01*
X0079908Y0194317D01*
X0078782Y0195442D01*
X0077312Y0196051D01*
X0075721Y0196051D01*
X0074251Y0195442D01*
X0073125Y0194317D01*
X0072517Y0192847D01*
X0072517Y0191256D01*
X0073125Y0189785D01*
X0074251Y0188660D01*
X0075721Y0188051D01*
X0077312Y0188051D01*
X0075327Y0188214D02*
X0066906Y0188214D01*
X0068535Y0189213D02*
X0073698Y0189213D01*
X0072949Y0190211D02*
X0069284Y0190211D01*
X0069698Y0191210D02*
X0072536Y0191210D01*
X0072517Y0192208D02*
X0069717Y0192208D01*
X0069567Y0193207D02*
X0072666Y0193207D01*
X0073079Y0194205D02*
X0069154Y0194205D01*
X0068221Y0195204D02*
X0074012Y0195204D01*
X0072270Y0198199D02*
X0080763Y0198199D01*
X0079113Y0199198D02*
X0073920Y0199198D01*
X0074678Y0200196D02*
X0078355Y0200196D01*
X0077942Y0201195D02*
X0075091Y0201195D01*
X0075117Y0202193D02*
X0077917Y0202193D01*
X0078059Y0203192D02*
X0074974Y0203192D01*
X0074560Y0204190D02*
X0078473Y0204190D01*
X0079397Y0205189D02*
X0073636Y0205189D01*
X0081917Y0202051D02*
X0081917Y0219302D01*
X0084115Y0221500D01*
X0204115Y0221500D01*
X0207615Y0218000D01*
X0207615Y0215500D01*
X0179115Y0207186D02*
X0111922Y0207186D01*
X0112921Y0208184D02*
X0140309Y0208184D01*
X0095612Y0195204D02*
X0089821Y0195204D01*
X0090754Y0194205D02*
X0094679Y0194205D01*
X0094266Y0193207D02*
X0091167Y0193207D01*
X0091317Y0192208D02*
X0094117Y0192208D01*
X0094136Y0191210D02*
X0091298Y0191210D01*
X0090884Y0190211D02*
X0094549Y0190211D01*
X0095298Y0189213D02*
X0090135Y0189213D01*
X0084498Y0189213D02*
X0079335Y0189213D01*
X0080084Y0190211D02*
X0083749Y0190211D01*
X0083336Y0191210D02*
X0080498Y0191210D01*
X0080517Y0192208D02*
X0083317Y0192208D01*
X0083466Y0193207D02*
X0080367Y0193207D01*
X0079954Y0194205D02*
X0083879Y0194205D01*
X0084812Y0195204D02*
X0079021Y0195204D01*
X0083070Y0198199D02*
X0091563Y0198199D01*
X0089913Y0199198D02*
X0084720Y0199198D01*
X0085478Y0200196D02*
X0089155Y0200196D01*
X0088742Y0201195D02*
X0085891Y0201195D01*
X0085917Y0202193D02*
X0088717Y0202193D01*
X0088859Y0203192D02*
X0085774Y0203192D01*
X0085360Y0204190D02*
X0089273Y0204190D01*
X0090197Y0205189D02*
X0084436Y0205189D01*
X0042513Y0183222D02*
X0012515Y0183222D01*
X0012515Y0182223D02*
X0041765Y0182223D01*
X0041765Y0181225D02*
X0012515Y0181225D01*
X0012515Y0180226D02*
X0042065Y0180226D01*
X0043064Y0179228D02*
X0012515Y0179228D01*
X0012515Y0178229D02*
X0067521Y0178229D01*
X0068142Y0178850D02*
X0066765Y0177473D01*
X0066765Y0175527D01*
X0068142Y0174150D01*
X0070088Y0174150D01*
X0071465Y0175527D01*
X0071465Y0177473D01*
X0070088Y0178850D01*
X0068142Y0178850D01*
X0066765Y0177231D02*
X0012515Y0177231D01*
X0012515Y0176232D02*
X0066765Y0176232D01*
X0067058Y0175234D02*
X0012515Y0175234D01*
X0012515Y0174235D02*
X0068057Y0174235D01*
X0070173Y0174235D02*
X0083057Y0174235D01*
X0083142Y0174150D02*
X0085088Y0174150D01*
X0086465Y0175527D01*
X0086465Y0177473D01*
X0085088Y0178850D01*
X0083142Y0178850D01*
X0081765Y0177473D01*
X0081765Y0175527D01*
X0083142Y0174150D01*
X0082058Y0175234D02*
X0071172Y0175234D01*
X0071465Y0176232D02*
X0081765Y0176232D01*
X0081765Y0177231D02*
X0071465Y0177231D01*
X0070709Y0178229D02*
X0082521Y0178229D01*
X0085709Y0178229D02*
X0179115Y0178229D01*
X0179115Y0177231D02*
X0086465Y0177231D01*
X0086465Y0176232D02*
X0179115Y0176232D01*
X0179115Y0175234D02*
X0086172Y0175234D01*
X0085173Y0174235D02*
X0179115Y0174235D01*
X0179115Y0173237D02*
X0139115Y0173237D01*
X0139115Y0172238D02*
X0179115Y0172238D01*
X0179115Y0171239D02*
X0139115Y0171239D01*
X0139115Y0170241D02*
X0179115Y0170241D01*
X0179115Y0169242D02*
X0139115Y0169242D01*
X0139115Y0168244D02*
X0179115Y0168244D01*
X0179115Y0167245D02*
X0139115Y0167245D01*
X0139115Y0166247D02*
X0179115Y0166247D01*
X0179115Y0165248D02*
X0139115Y0165248D01*
X0139115Y0164250D02*
X0179115Y0164250D01*
X0179115Y0163251D02*
X0139115Y0163251D01*
X0139115Y0162253D02*
X0179115Y0162253D01*
X0179115Y0161254D02*
X0139115Y0161254D01*
X0139115Y0160256D02*
X0179115Y0160256D01*
X0179115Y0159257D02*
X0139115Y0159257D01*
X0139115Y0158259D02*
X0140050Y0158259D01*
X0140642Y0158850D02*
X0139265Y0157473D01*
X0139265Y0155527D01*
X0140642Y0154150D01*
X0142588Y0154150D01*
X0143965Y0155527D01*
X0143965Y0157473D01*
X0142588Y0158850D01*
X0140642Y0158850D01*
X0139265Y0157260D02*
X0139115Y0157260D01*
X0139115Y0156262D02*
X0139265Y0156262D01*
X0139115Y0155263D02*
X0139528Y0155263D01*
X0139115Y0154265D02*
X0140527Y0154265D01*
X0139115Y0153266D02*
X0160682Y0153266D01*
X0160682Y0153497D02*
X0160682Y0151550D01*
X0162059Y0150174D01*
X0164006Y0150174D01*
X0165382Y0151550D01*
X0165382Y0153497D01*
X0164006Y0154874D01*
X0162059Y0154874D01*
X0160682Y0153497D01*
X0161450Y0154265D02*
X0142703Y0154265D01*
X0143702Y0155263D02*
X0179115Y0155263D01*
X0179115Y0154265D02*
X0177410Y0154265D01*
X0176998Y0154677D02*
X0178374Y0153300D01*
X0178374Y0151353D01*
X0176998Y0149977D01*
X0175051Y0149977D01*
X0173674Y0151353D01*
X0173674Y0153300D01*
X0175051Y0154677D01*
X0176998Y0154677D01*
X0178374Y0153266D02*
X0179115Y0153266D01*
X0179115Y0152268D02*
X0178374Y0152268D01*
X0178290Y0151269D02*
X0179115Y0151269D01*
X0179115Y0150271D02*
X0177292Y0150271D01*
X0179115Y0149272D02*
X0139115Y0149272D01*
X0139115Y0148274D02*
X0179115Y0148274D01*
X0179115Y0147275D02*
X0139115Y0147275D01*
X0139115Y0146277D02*
X0179115Y0146277D01*
X0174757Y0150271D02*
X0164103Y0150271D01*
X0165101Y0151269D02*
X0173759Y0151269D01*
X0173674Y0152268D02*
X0165382Y0152268D01*
X0165382Y0153266D02*
X0173674Y0153266D01*
X0174639Y0154265D02*
X0164615Y0154265D01*
X0160682Y0152268D02*
X0139115Y0152268D01*
X0139115Y0151269D02*
X0160963Y0151269D01*
X0161962Y0150271D02*
X0139115Y0150271D01*
X0143965Y0156262D02*
X0179115Y0156262D01*
X0179115Y0157260D02*
X0143965Y0157260D01*
X0143180Y0158259D02*
X0179115Y0158259D01*
X0198091Y0148606D02*
X0199272Y0147425D01*
X0199272Y0140575D01*
X0198957Y0140260D01*
X0200493Y0135293D02*
X0195335Y0135293D01*
X0195335Y0134295D02*
X0199151Y0134295D01*
X0198678Y0133296D02*
X0195335Y0133296D01*
X0195335Y0132298D02*
X0198585Y0132298D01*
X0196871Y0126244D02*
X0196871Y0093291D01*
X0249863Y0093291D01*
X0259115Y0102543D01*
X0265808Y0102543D01*
X0274433Y0101344D02*
X0291915Y0101344D01*
X0291915Y0102342D02*
X0275230Y0102342D01*
X0275551Y0103341D02*
X0291915Y0103341D01*
X0291915Y0104339D02*
X0275547Y0104339D01*
X0275134Y0105338D02*
X0291915Y0105338D01*
X0291915Y0106336D02*
X0274165Y0106336D01*
X0282689Y0109332D02*
X0289084Y0109332D01*
X0290563Y0109332D02*
X0291915Y0109332D01*
X0287507Y0110330D02*
X0284266Y0110330D01*
X0284838Y0111329D02*
X0286936Y0111329D01*
X0286774Y0112327D02*
X0285000Y0112327D01*
X0284837Y0113326D02*
X0286936Y0113326D01*
X0287508Y0114324D02*
X0284265Y0114324D01*
X0252807Y0108333D02*
X0251491Y0108333D01*
X0246531Y0092357D02*
X0291861Y0092357D01*
X0244139Y0092357D02*
X0195335Y0092357D01*
X0196871Y0093291D02*
X0189292Y0085713D01*
X0189292Y0068508D01*
X0181930Y0068508D01*
X0181831Y0068409D01*
X0189115Y0068685D02*
X0189115Y0069000D01*
X0189115Y0068685D02*
X0189292Y0068508D01*
X0171372Y0078378D02*
X0152213Y0078378D01*
X0152213Y0078302D02*
X0150836Y0076926D01*
X0148890Y0076926D01*
X0147513Y0078302D01*
X0147513Y0080249D01*
X0148890Y0081626D01*
X0150836Y0081626D01*
X0152213Y0080249D01*
X0152213Y0078302D01*
X0152213Y0079376D02*
X0172370Y0079376D01*
X0172615Y0080375D02*
X0152087Y0080375D01*
X0151089Y0081373D02*
X0172615Y0081373D01*
X0172615Y0082372D02*
X0139115Y0082372D01*
X0139115Y0083370D02*
X0172615Y0083370D01*
X0172615Y0084369D02*
X0139115Y0084369D01*
X0139115Y0085368D02*
X0172615Y0085368D01*
X0172615Y0086366D02*
X0139115Y0086366D01*
X0139115Y0087365D02*
X0172615Y0087365D01*
X0172615Y0088363D02*
X0139115Y0088363D01*
X0139115Y0089362D02*
X0172615Y0089362D01*
X0172615Y0090360D02*
X0139115Y0090360D01*
X0139115Y0091359D02*
X0168315Y0091359D01*
X0168752Y0090922D02*
X0167375Y0092298D01*
X0167375Y0094245D01*
X0168752Y0095622D01*
X0170699Y0095622D01*
X0172075Y0094245D01*
X0172075Y0092298D01*
X0170699Y0090922D01*
X0168752Y0090922D01*
X0167375Y0092357D02*
X0139115Y0092357D01*
X0139115Y0093356D02*
X0167375Y0093356D01*
X0167484Y0094354D02*
X0139115Y0094354D01*
X0139115Y0095353D02*
X0168483Y0095353D01*
X0170968Y0095353D02*
X0172615Y0095353D01*
X0172615Y0096351D02*
X0139115Y0096351D01*
X0139115Y0097350D02*
X0172615Y0097350D01*
X0172615Y0098348D02*
X0139115Y0098348D01*
X0139115Y0099347D02*
X0167945Y0099347D01*
X0166946Y0100345D02*
X0139115Y0100345D01*
X0139115Y0101344D02*
X0166765Y0101344D01*
X0166765Y0102342D02*
X0139115Y0102342D01*
X0139115Y0103341D02*
X0167615Y0103341D01*
X0167615Y0104339D02*
X0165278Y0104339D01*
X0165088Y0104150D02*
X0166465Y0105527D01*
X0166465Y0107473D01*
X0165088Y0108850D01*
X0163142Y0108850D01*
X0161765Y0107473D01*
X0161765Y0105527D01*
X0163142Y0104150D01*
X0165088Y0104150D01*
X0166276Y0105338D02*
X0167615Y0105338D01*
X0167615Y0106336D02*
X0166465Y0106336D01*
X0166465Y0107335D02*
X0167615Y0107335D01*
X0167615Y0108333D02*
X0165605Y0108333D01*
X0162625Y0108333D02*
X0139115Y0108333D01*
X0139115Y0107335D02*
X0161765Y0107335D01*
X0161765Y0106336D02*
X0139115Y0106336D01*
X0139115Y0105338D02*
X0161954Y0105338D01*
X0162952Y0104339D02*
X0139115Y0104339D01*
X0139115Y0109332D02*
X0157960Y0109332D01*
X0156961Y0110330D02*
X0139115Y0110330D01*
X0139115Y0111329D02*
X0156765Y0111329D01*
X0156765Y0112327D02*
X0139115Y0112327D01*
X0170285Y0099347D02*
X0172615Y0099347D01*
X0172615Y0100345D02*
X0171284Y0100345D01*
X0171966Y0094354D02*
X0172615Y0094354D01*
X0172615Y0093356D02*
X0172075Y0093356D01*
X0172075Y0092357D02*
X0172615Y0092357D01*
X0172615Y0091359D02*
X0171136Y0091359D01*
X0148637Y0081373D02*
X0139115Y0081373D01*
X0139115Y0080375D02*
X0147639Y0080375D01*
X0147513Y0079376D02*
X0139115Y0079376D01*
X0139115Y0078378D02*
X0147513Y0078378D01*
X0148436Y0077379D02*
X0139115Y0077379D01*
X0139115Y0076381D02*
X0169375Y0076381D01*
X0170373Y0077379D02*
X0151290Y0077379D01*
X0139115Y0075382D02*
X0168376Y0075382D01*
X0167615Y0074384D02*
X0139115Y0074384D01*
X0139115Y0073385D02*
X0167615Y0073385D01*
X0167615Y0072387D02*
X0139115Y0072387D01*
X0139115Y0071388D02*
X0167615Y0071388D01*
X0167615Y0070390D02*
X0139115Y0070390D01*
X0139115Y0069391D02*
X0167615Y0069391D01*
X0167615Y0068393D02*
X0163046Y0068393D01*
X0162588Y0068850D02*
X0160642Y0068850D01*
X0159265Y0067473D01*
X0159265Y0065527D01*
X0160642Y0064150D01*
X0162588Y0064150D01*
X0163965Y0065527D01*
X0163965Y0067473D01*
X0162588Y0068850D01*
X0163965Y0067394D02*
X0167615Y0067394D01*
X0167615Y0066396D02*
X0163965Y0066396D01*
X0163836Y0065397D02*
X0164689Y0065397D01*
X0164265Y0064399D02*
X0162837Y0064399D01*
X0164265Y0063400D02*
X0139115Y0063400D01*
X0139115Y0062402D02*
X0164890Y0062402D01*
X0160393Y0064399D02*
X0139115Y0064399D01*
X0139115Y0065397D02*
X0159394Y0065397D01*
X0159265Y0066396D02*
X0139115Y0066396D01*
X0139115Y0067394D02*
X0159265Y0067394D01*
X0160184Y0068393D02*
X0139115Y0068393D01*
X0139115Y0055412D02*
X0179115Y0055412D01*
X0179115Y0054414D02*
X0139115Y0054414D01*
X0139115Y0053415D02*
X0179115Y0053415D01*
X0179115Y0052417D02*
X0139115Y0052417D01*
X0139115Y0051418D02*
X0179115Y0051418D01*
X0179115Y0050420D02*
X0139115Y0050420D01*
X0139115Y0049421D02*
X0179115Y0049421D01*
X0179115Y0048423D02*
X0139115Y0048423D01*
X0139115Y0047424D02*
X0167798Y0047424D01*
X0168358Y0047984D02*
X0166981Y0046607D01*
X0166981Y0044660D01*
X0168358Y0043284D01*
X0170305Y0043284D01*
X0171681Y0044660D01*
X0171681Y0046607D01*
X0170305Y0047984D01*
X0168358Y0047984D01*
X0166981Y0046426D02*
X0139115Y0046426D01*
X0139115Y0045427D02*
X0166981Y0045427D01*
X0167213Y0044429D02*
X0139115Y0044429D01*
X0139115Y0043430D02*
X0168212Y0043430D01*
X0170451Y0043430D02*
X0179115Y0043430D01*
X0179115Y0042432D02*
X0139115Y0042432D01*
X0139115Y0041433D02*
X0179115Y0041433D01*
X0179115Y0040434D02*
X0139115Y0040434D01*
X0139115Y0039436D02*
X0179115Y0039436D01*
X0179115Y0038437D02*
X0143001Y0038437D01*
X0143965Y0037439D02*
X0179115Y0037439D01*
X0179115Y0044429D02*
X0171450Y0044429D01*
X0171681Y0045427D02*
X0179115Y0045427D01*
X0179115Y0046426D02*
X0171681Y0046426D01*
X0170865Y0047424D02*
X0179115Y0047424D01*
X0140229Y0038437D02*
X0139115Y0038437D01*
X0139115Y0037439D02*
X0139265Y0037439D01*
X0139265Y0036440D02*
X0139115Y0036440D01*
X0139115Y0035442D02*
X0139350Y0035442D01*
X0109115Y0035442D02*
X0108880Y0035442D01*
X0108965Y0035527D02*
X0107588Y0034150D01*
X0105642Y0034150D01*
X0104265Y0035527D01*
X0104265Y0037473D01*
X0105642Y0038850D01*
X0107588Y0038850D01*
X0108965Y0037473D01*
X0108965Y0035527D01*
X0108965Y0036440D02*
X0109115Y0036440D01*
X0109115Y0037439D02*
X0108965Y0037439D01*
X0109115Y0038437D02*
X0108001Y0038437D01*
X0109115Y0039436D02*
X0079822Y0039436D01*
X0080820Y0040434D02*
X0109115Y0040434D01*
X0109115Y0041433D02*
X0081819Y0041433D01*
X0082249Y0042432D02*
X0109115Y0042432D01*
X0109115Y0043430D02*
X0082249Y0043430D01*
X0082249Y0044429D02*
X0109115Y0044429D01*
X0109115Y0045427D02*
X0082249Y0045427D01*
X0082249Y0046426D02*
X0109115Y0046426D01*
X0109115Y0047424D02*
X0082249Y0047424D01*
X0082249Y0048423D02*
X0109115Y0048423D01*
X0109115Y0049421D02*
X0082249Y0049421D01*
X0082249Y0050420D02*
X0109115Y0050420D01*
X0109115Y0051418D02*
X0082249Y0051418D01*
X0082249Y0052417D02*
X0087178Y0052417D01*
X0087649Y0051945D02*
X0089596Y0051945D01*
X0090973Y0053322D01*
X0090973Y0055269D01*
X0089596Y0056645D01*
X0087649Y0056645D01*
X0086273Y0055269D01*
X0086273Y0053322D01*
X0087649Y0051945D01*
X0086273Y0053415D02*
X0082249Y0053415D01*
X0082249Y0054414D02*
X0086273Y0054414D01*
X0086416Y0055412D02*
X0082249Y0055412D01*
X0082249Y0056411D02*
X0087415Y0056411D01*
X0086862Y0057063D02*
X0088809Y0057063D01*
X0090185Y0058440D01*
X0090185Y0060387D01*
X0088809Y0061763D01*
X0086862Y0061763D01*
X0085485Y0060387D01*
X0085485Y0058440D01*
X0086862Y0057063D01*
X0086516Y0057409D02*
X0082249Y0057409D01*
X0082249Y0058408D02*
X0085518Y0058408D01*
X0085485Y0059406D02*
X0082249Y0059406D01*
X0082249Y0060405D02*
X0085503Y0060405D01*
X0086502Y0061403D02*
X0082249Y0061403D01*
X0082249Y0062402D02*
X0086642Y0062402D01*
X0086862Y0062181D02*
X0088809Y0062181D01*
X0090185Y0063558D01*
X0090185Y0065505D01*
X0088809Y0066881D01*
X0086862Y0066881D01*
X0085485Y0065505D01*
X0085485Y0063558D01*
X0086862Y0062181D01*
X0085643Y0063400D02*
X0082249Y0063400D01*
X0082249Y0064399D02*
X0085485Y0064399D01*
X0085485Y0065397D02*
X0082249Y0065397D01*
X0082249Y0066396D02*
X0086376Y0066396D01*
X0089295Y0066396D02*
X0109115Y0066396D01*
X0109115Y0067394D02*
X0092841Y0067394D01*
X0092352Y0066906D02*
X0093729Y0068282D01*
X0093729Y0070229D01*
X0092352Y0071606D01*
X0090405Y0071606D01*
X0089029Y0070229D01*
X0089029Y0068282D01*
X0090405Y0066906D01*
X0092352Y0066906D01*
X0093729Y0068393D02*
X0109115Y0068393D01*
X0109115Y0069391D02*
X0093729Y0069391D01*
X0093568Y0070390D02*
X0109115Y0070390D01*
X0109115Y0071388D02*
X0092570Y0071388D01*
X0090188Y0071388D02*
X0082249Y0071388D01*
X0082249Y0070390D02*
X0089189Y0070390D01*
X0089029Y0069391D02*
X0082249Y0069391D01*
X0082249Y0068393D02*
X0089029Y0068393D01*
X0089917Y0067394D02*
X0082249Y0067394D01*
X0082249Y0072387D02*
X0109115Y0072387D01*
X0109115Y0073385D02*
X0082249Y0073385D01*
X0082249Y0074384D02*
X0109115Y0074384D01*
X0109115Y0075382D02*
X0082619Y0075382D01*
X0083617Y0076381D02*
X0109115Y0076381D01*
X0109115Y0065397D02*
X0090185Y0065397D01*
X0090185Y0064399D02*
X0109115Y0064399D01*
X0109115Y0063400D02*
X0090028Y0063400D01*
X0089029Y0062402D02*
X0109115Y0062402D01*
X0109115Y0061403D02*
X0089169Y0061403D01*
X0090167Y0060405D02*
X0109115Y0060405D01*
X0109115Y0059406D02*
X0090185Y0059406D01*
X0090153Y0058408D02*
X0109115Y0058408D01*
X0109115Y0057409D02*
X0089155Y0057409D01*
X0089831Y0056411D02*
X0109115Y0056411D01*
X0109115Y0055412D02*
X0090829Y0055412D01*
X0090973Y0054414D02*
X0109115Y0054414D01*
X0109115Y0053415D02*
X0090973Y0053415D01*
X0090068Y0052417D02*
X0109115Y0052417D01*
X0105229Y0038437D02*
X0078823Y0038437D01*
X0078768Y0037439D02*
X0104265Y0037439D01*
X0104265Y0036440D02*
X0078028Y0036440D01*
X0076418Y0038154D02*
X0080749Y0042484D01*
X0080749Y0075634D01*
X0084115Y0079000D01*
X0084115Y0086500D01*
X0082615Y0082372D02*
X0038786Y0082372D01*
X0039730Y0083370D02*
X0051588Y0083370D01*
X0050668Y0084369D02*
X0040143Y0084369D01*
X0040300Y0085368D02*
X0050254Y0085368D01*
X0050115Y0086366D02*
X0040288Y0086366D01*
X0039875Y0087365D02*
X0050144Y0087365D01*
X0050557Y0088363D02*
X0039136Y0088363D01*
X0037533Y0089362D02*
X0051320Y0089362D01*
X0033814Y0082372D02*
X0029706Y0082372D01*
X0028729Y0083370D02*
X0032870Y0083370D01*
X0024486Y0087365D02*
X0012515Y0087365D01*
X0012515Y0088363D02*
X0023223Y0088363D01*
X0022625Y0089362D02*
X0012515Y0089362D01*
X0012515Y0090360D02*
X0022300Y0090360D01*
X0022300Y0091359D02*
X0012515Y0091359D01*
X0012515Y0092357D02*
X0022556Y0092357D01*
X0023056Y0093356D02*
X0012515Y0093356D01*
X0012515Y0094354D02*
X0024084Y0094354D01*
X0028558Y0098348D02*
X0032801Y0098348D01*
X0033647Y0099347D02*
X0029561Y0099347D01*
X0084115Y0079000D02*
X0085020Y0079000D01*
X0079249Y0055412D02*
X0035919Y0055412D01*
X0037364Y0054414D02*
X0079249Y0054414D01*
X0079249Y0053415D02*
X0038362Y0053415D01*
X0039357Y0052417D02*
X0079249Y0052417D01*
X0079249Y0051418D02*
X0039770Y0051418D01*
X0040184Y0050420D02*
X0079249Y0050420D01*
X0079249Y0049421D02*
X0040597Y0049421D01*
X0040800Y0048423D02*
X0074702Y0048423D01*
X0075051Y0048771D02*
X0073674Y0047395D01*
X0073674Y0045448D01*
X0075051Y0044071D01*
X0076998Y0044071D01*
X0078374Y0045448D01*
X0078374Y0047395D01*
X0076998Y0048771D01*
X0075051Y0048771D01*
X0073704Y0047424D02*
X0040800Y0047424D01*
X0040800Y0046426D02*
X0073674Y0046426D01*
X0073695Y0045427D02*
X0040800Y0045427D01*
X0040500Y0044429D02*
X0074694Y0044429D01*
X0077355Y0044429D02*
X0079249Y0044429D01*
X0079249Y0045427D02*
X0078354Y0045427D01*
X0078374Y0046426D02*
X0079249Y0046426D01*
X0079249Y0047424D02*
X0078345Y0047424D01*
X0079249Y0048423D02*
X0077346Y0048423D01*
X0079249Y0043430D02*
X0040086Y0043430D01*
X0039673Y0042432D02*
X0078575Y0042432D01*
X0077576Y0041433D02*
X0039126Y0041433D01*
X0038127Y0040434D02*
X0075376Y0040434D01*
X0074377Y0039436D02*
X0037128Y0039436D01*
X0035350Y0038437D02*
X0057729Y0038437D01*
X0060501Y0038437D02*
X0074068Y0038437D01*
X0074068Y0037439D02*
X0061465Y0037439D01*
X0061465Y0036440D02*
X0074808Y0036440D01*
X0061380Y0035442D02*
X0104350Y0035442D01*
X0105348Y0034443D02*
X0060382Y0034443D01*
X0107882Y0034443D02*
X0109115Y0034443D01*
X0139115Y0018467D02*
X0140259Y0018467D01*
X0139265Y0017469D02*
X0139115Y0017469D01*
X0139115Y0016470D02*
X0139265Y0016470D01*
X0139320Y0015472D02*
X0139115Y0015472D01*
X0246812Y0066520D02*
X0246812Y0074197D01*
X0324115Y0041433D02*
X0372322Y0041433D01*
X0371020Y0040434D02*
X0324115Y0040434D01*
X0324115Y0039436D02*
X0370324Y0039436D01*
X0369929Y0038437D02*
X0324115Y0038437D01*
X0324115Y0037439D02*
X0374028Y0037439D01*
X0374528Y0037228D02*
X0377343Y0037228D01*
X0384115Y0044000D01*
X0384115Y0061185D01*
X0398702Y0075772D01*
X0398702Y0078272D01*
X0399115Y0077858D01*
X0438221Y0089362D02*
X0445009Y0089362D01*
X0445640Y0089100D02*
X0447590Y0089100D01*
X0449391Y0089846D01*
X0450769Y0091224D01*
X0451515Y0093025D01*
X0451515Y0094975D01*
X0450769Y0096776D01*
X0449391Y0098154D01*
X0447590Y0098900D01*
X0445640Y0098900D01*
X0443839Y0098154D01*
X0442461Y0096776D01*
X0441715Y0094975D01*
X0441715Y0093025D01*
X0442461Y0091224D01*
X0443839Y0089846D01*
X0445640Y0089100D01*
X0448221Y0089362D02*
X0460636Y0089362D01*
X0460636Y0090360D02*
X0449905Y0090360D01*
X0450825Y0091359D02*
X0460636Y0091359D01*
X0460636Y0092357D02*
X0451238Y0092357D01*
X0451515Y0093356D02*
X0460636Y0093356D01*
X0460636Y0094354D02*
X0451515Y0094354D01*
X0451358Y0095353D02*
X0460636Y0095353D01*
X0460636Y0096351D02*
X0450945Y0096351D01*
X0450195Y0097350D02*
X0460636Y0097350D01*
X0460636Y0098348D02*
X0448922Y0098348D01*
X0444308Y0098348D02*
X0438922Y0098348D01*
X0440195Y0097350D02*
X0443035Y0097350D01*
X0442285Y0096351D02*
X0440945Y0096351D01*
X0441358Y0095353D02*
X0441872Y0095353D01*
X0441715Y0094354D02*
X0441515Y0094354D01*
X0441515Y0093356D02*
X0441715Y0093356D01*
X0441992Y0092357D02*
X0441238Y0092357D01*
X0440825Y0091359D02*
X0442405Y0091359D01*
X0443325Y0090360D02*
X0439905Y0090360D01*
X0391712Y0050420D02*
X0377345Y0050420D01*
X0378218Y0049421D02*
X0390839Y0049421D01*
X0390425Y0048423D02*
X0378632Y0048423D01*
X0378776Y0047424D02*
X0390280Y0047424D01*
X0390280Y0046426D02*
X0378776Y0046426D01*
X0378380Y0045427D02*
X0390676Y0045427D01*
X0391321Y0044429D02*
X0377736Y0044429D01*
X0376459Y0043430D02*
X0392598Y0043430D01*
X0397330Y0040434D02*
X0460636Y0040434D01*
X0460636Y0039436D02*
X0398212Y0039436D01*
X0398626Y0038437D02*
X0460636Y0038437D01*
X0460636Y0037439D02*
X0398776Y0037439D01*
X0398776Y0036440D02*
X0460636Y0036440D01*
X0460636Y0035442D02*
X0398386Y0035442D01*
X0397751Y0034443D02*
X0460636Y0034443D01*
X0460636Y0033445D02*
X0396495Y0033445D01*
X0395442Y0031448D02*
X0460636Y0031448D01*
X0460636Y0032446D02*
X0324115Y0032446D01*
X0324115Y0031448D02*
X0373615Y0031448D01*
X0373683Y0031476D02*
X0372122Y0030830D01*
X0370927Y0029635D01*
X0370280Y0028073D01*
X0370280Y0026383D01*
X0370927Y0024822D01*
X0372122Y0023627D01*
X0373683Y0022980D01*
X0375373Y0022980D01*
X0376935Y0023627D01*
X0378130Y0024822D01*
X0378776Y0026383D01*
X0378776Y0028073D01*
X0378130Y0029635D01*
X0376935Y0030830D01*
X0375373Y0031476D01*
X0373683Y0031476D01*
X0375442Y0031448D02*
X0393615Y0031448D01*
X0393683Y0031476D02*
X0392122Y0030830D01*
X0390927Y0029635D01*
X0390280Y0028073D01*
X0390280Y0026383D01*
X0390927Y0024822D01*
X0392122Y0023627D01*
X0393683Y0022980D01*
X0395373Y0022980D01*
X0396935Y0023627D01*
X0398130Y0024822D01*
X0398776Y0026383D01*
X0398776Y0028073D01*
X0398130Y0029635D01*
X0396935Y0030830D01*
X0395373Y0031476D01*
X0393683Y0031476D01*
X0391742Y0030449D02*
X0377315Y0030449D01*
X0378206Y0029451D02*
X0390851Y0029451D01*
X0390437Y0028452D02*
X0378619Y0028452D01*
X0378776Y0027454D02*
X0390280Y0027454D01*
X0390280Y0026455D02*
X0378776Y0026455D01*
X0378393Y0025457D02*
X0390664Y0025457D01*
X0391291Y0024458D02*
X0377766Y0024458D01*
X0376531Y0023460D02*
X0392526Y0023460D01*
X0396531Y0023460D02*
X0460636Y0023460D01*
X0460636Y0024458D02*
X0397766Y0024458D01*
X0398393Y0025457D02*
X0460636Y0025457D01*
X0460636Y0026455D02*
X0398776Y0026455D01*
X0398776Y0027454D02*
X0460636Y0027454D01*
X0460636Y0028452D02*
X0398619Y0028452D01*
X0398206Y0029451D02*
X0460636Y0029451D01*
X0460636Y0030449D02*
X0397315Y0030449D01*
X0392562Y0033445D02*
X0377399Y0033445D01*
X0378374Y0034443D02*
X0391306Y0034443D01*
X0390670Y0035442D02*
X0378940Y0035442D01*
X0379211Y0036440D02*
X0390280Y0036440D01*
X0375028Y0036440D02*
X0374028Y0036440D01*
X0374028Y0035442D02*
X0375028Y0035442D01*
X0375028Y0034443D02*
X0374028Y0034443D01*
X0374028Y0033445D02*
X0375028Y0033445D01*
X0371658Y0033445D02*
X0324115Y0033445D01*
X0324115Y0034443D02*
X0370683Y0034443D01*
X0370116Y0035442D02*
X0324115Y0035442D01*
X0324115Y0036440D02*
X0369846Y0036440D01*
X0374028Y0038437D02*
X0375028Y0038437D01*
X0375028Y0039436D02*
X0374028Y0039436D01*
X0374028Y0040434D02*
X0375028Y0040434D01*
X0375028Y0041433D02*
X0374028Y0041433D01*
X0371742Y0030449D02*
X0324115Y0030449D01*
X0324115Y0029451D02*
X0370851Y0029451D01*
X0370437Y0028452D02*
X0324115Y0028452D01*
X0324115Y0027454D02*
X0370280Y0027454D01*
X0370280Y0026455D02*
X0324115Y0026455D01*
X0324115Y0025457D02*
X0370664Y0025457D01*
X0371291Y0024458D02*
X0324115Y0024458D01*
X0324115Y0023460D02*
X0372526Y0023460D01*
X0324115Y0022461D02*
X0460636Y0022461D01*
X0460636Y0021463D02*
X0324115Y0021463D01*
X0324115Y0020464D02*
X0460636Y0020464D01*
X0460636Y0019466D02*
X0324115Y0019466D01*
X0324115Y0018467D02*
X0460636Y0018467D01*
X0460636Y0017469D02*
X0324115Y0017469D01*
X0324115Y0016470D02*
X0460636Y0016470D01*
X0460636Y0015472D02*
X0324115Y0015472D01*
X0055564Y0154265D02*
X0047703Y0154265D01*
X0048702Y0155263D02*
X0055564Y0155263D01*
X0055770Y0156262D02*
X0048965Y0156262D01*
X0048965Y0157260D02*
X0056768Y0157260D01*
X0045166Y0179228D02*
X0179115Y0179228D01*
X0342945Y0191210D02*
X0377681Y0191210D01*
X0375897Y0190211D02*
X0343944Y0190211D01*
X0012550Y0158259D02*
X0012515Y0158259D01*
X0012515Y0038437D02*
X0012729Y0038437D01*
D18*
X0172954Y0036500D02*
X0172954Y0022661D01*
X0176615Y0019000D01*
X0219115Y0019000D01*
X0223615Y0023500D01*
X0223615Y0025500D01*
M02*
