G75*
%MOIN*%
%OFA0B0*%
%FSLAX25Y25*%
%IPPOS*%
%LPD*%
%AMOC8*
5,1,8,0,0,1.08239X$1,22.5*
%
%ADD10OC8,0.06800*%
%ADD11C,0.17800*%
%ADD12OC8,0.06200*%
%ADD13OC8,0.09300*%
%ADD14C,0.07400*%
%ADD15C,0.08200*%
%ADD16R,0.07100X0.07100*%
%ADD17C,0.07100*%
%ADD18R,0.08200X0.08200*%
%ADD19C,0.06800*%
D10*
X0036300Y0074743D03*
X0026300Y0080143D03*
X0036300Y0085543D03*
X0026300Y0090943D03*
X0036300Y0096343D03*
X0026300Y0101743D03*
X0036300Y0107143D03*
X0026300Y0112543D03*
X0036300Y0117943D03*
X0054115Y0116500D03*
X0064115Y0116500D03*
X0064115Y0106500D03*
X0054115Y0106500D03*
X0054115Y0096500D03*
X0064115Y0096500D03*
X0064115Y0086500D03*
X0054115Y0086500D03*
X0054115Y0076500D03*
X0064115Y0076500D03*
X0065717Y0192051D03*
X0076517Y0192051D03*
X0087317Y0192051D03*
X0098117Y0192051D03*
X0092717Y0202051D03*
X0081917Y0202051D03*
X0071117Y0202051D03*
X0060317Y0202051D03*
X0054917Y0192051D03*
D11*
X0031300Y0047043D03*
X0031300Y0145643D03*
X0027217Y0197051D03*
X0125817Y0197051D03*
D12*
X0436024Y0129453D03*
X0446024Y0129453D03*
X0446024Y0119453D03*
X0436024Y0119453D03*
X0436024Y0109453D03*
X0446024Y0109453D03*
D13*
X0446615Y0094000D03*
X0436615Y0094000D03*
X0349115Y0096500D03*
X0349115Y0086500D03*
X0349115Y0106500D03*
X0306615Y0104000D03*
X0306615Y0094000D03*
X0306615Y0084000D03*
X0303583Y0066067D03*
X0291615Y0024000D03*
X0281615Y0024000D03*
X0181831Y0068409D03*
X0298603Y0162878D03*
X0379115Y0186500D03*
D14*
X0374528Y0047228D03*
X0374528Y0037228D03*
X0374528Y0027228D03*
X0394528Y0027228D03*
X0394528Y0037228D03*
X0394528Y0047228D03*
D15*
X0253615Y0025500D03*
X0243615Y0025500D03*
X0233615Y0025500D03*
X0223615Y0025500D03*
X0213615Y0025500D03*
X0203615Y0025496D03*
X0193587Y0025449D03*
D16*
X0323615Y0135500D03*
X0323615Y0215500D03*
X0237615Y0215500D03*
X0413615Y0215500D03*
D17*
X0403615Y0215500D03*
X0393615Y0215500D03*
X0383615Y0215500D03*
X0373615Y0215500D03*
X0363615Y0215500D03*
X0353615Y0215500D03*
X0343615Y0215500D03*
X0313615Y0215500D03*
X0303615Y0215500D03*
X0293615Y0215500D03*
X0283615Y0215500D03*
X0273615Y0215500D03*
X0263615Y0215500D03*
X0253615Y0215500D03*
X0227615Y0215500D03*
X0217615Y0215500D03*
X0207615Y0215500D03*
X0197615Y0215500D03*
X0187615Y0215500D03*
X0177615Y0215500D03*
X0167615Y0215500D03*
X0157615Y0215500D03*
X0147615Y0215500D03*
X0323615Y0125500D03*
X0333615Y0125500D03*
X0333615Y0115500D03*
X0323615Y0115500D03*
X0333615Y0135500D03*
D18*
X0183587Y0025449D03*
D19*
X0329115Y0061000D02*
X0329115Y0067000D01*
X0339115Y0067000D02*
X0339115Y0061000D01*
X0434115Y0061000D02*
X0434115Y0067000D01*
X0444115Y0067000D02*
X0444115Y0061000D01*
M02*
