G75*
%MOIN*%
%OFA0B0*%
%FSLAX25Y25*%
%IPPOS*%
%LPD*%
%AMOC8*
5,1,8,0,0,1.08239X$1,22.5*
%
%ADD10OC8,0.06000*%
%ADD11C,0.17000*%
%ADD12OC8,0.05400*%
%ADD13OC8,0.08500*%
%ADD14C,0.06600*%
%ADD15C,0.07400*%
%ADD16R,0.06300X0.06300*%
%ADD17C,0.06300*%
%ADD18R,0.07400X0.07400*%
%ADD19C,0.06000*%
%ADD20C,0.02500*%
%ADD21C,0.01000*%
D10*
X0036300Y0074743D03*
X0026300Y0080143D03*
X0036300Y0085543D03*
X0026300Y0090943D03*
X0036300Y0096343D03*
X0026300Y0101743D03*
X0036300Y0107143D03*
X0026300Y0112543D03*
X0036300Y0117943D03*
X0054115Y0116500D03*
X0064115Y0116500D03*
X0064115Y0106500D03*
X0054115Y0106500D03*
X0054115Y0096500D03*
X0064115Y0096500D03*
X0064115Y0086500D03*
X0054115Y0086500D03*
X0054115Y0076500D03*
X0064115Y0076500D03*
X0065717Y0192051D03*
X0076517Y0192051D03*
X0087317Y0192051D03*
X0098117Y0192051D03*
X0092717Y0202051D03*
X0081917Y0202051D03*
X0071117Y0202051D03*
X0060317Y0202051D03*
X0054917Y0192051D03*
D11*
X0027217Y0197051D03*
X0031300Y0145643D03*
X0125817Y0197051D03*
X0031300Y0047043D03*
D12*
X0436024Y0109453D03*
X0446024Y0109453D03*
X0446024Y0119453D03*
X0436024Y0119453D03*
X0436024Y0129453D03*
X0446024Y0129453D03*
D13*
X0446615Y0094000D03*
X0436615Y0094000D03*
X0349115Y0096500D03*
X0349115Y0086500D03*
X0349115Y0106500D03*
X0306615Y0104000D03*
X0306615Y0094000D03*
X0306615Y0084000D03*
X0303583Y0066067D03*
X0291615Y0024000D03*
X0281615Y0024000D03*
X0181831Y0068409D03*
X0298603Y0162878D03*
X0379115Y0186500D03*
D14*
X0374528Y0047228D03*
X0374528Y0037228D03*
X0374528Y0027228D03*
X0394528Y0027228D03*
X0394528Y0037228D03*
X0394528Y0047228D03*
D15*
X0253615Y0025500D03*
X0243615Y0025500D03*
X0233615Y0025500D03*
X0223615Y0025500D03*
X0213615Y0025500D03*
X0203615Y0025496D03*
X0193587Y0025449D03*
D16*
X0323615Y0135500D03*
X0323615Y0215500D03*
X0237615Y0215500D03*
X0413615Y0215500D03*
D17*
X0403615Y0215500D03*
X0393615Y0215500D03*
X0383615Y0215500D03*
X0373615Y0215500D03*
X0363615Y0215500D03*
X0353615Y0215500D03*
X0343615Y0215500D03*
X0313615Y0215500D03*
X0303615Y0215500D03*
X0293615Y0215500D03*
X0283615Y0215500D03*
X0273615Y0215500D03*
X0263615Y0215500D03*
X0253615Y0215500D03*
X0227615Y0215500D03*
X0217615Y0215500D03*
X0207615Y0215500D03*
X0197615Y0215500D03*
X0187615Y0215500D03*
X0177615Y0215500D03*
X0167615Y0215500D03*
X0157615Y0215500D03*
X0147615Y0215500D03*
X0323615Y0125500D03*
X0333615Y0125500D03*
X0333615Y0115500D03*
X0323615Y0115500D03*
X0333615Y0135500D03*
D18*
X0183587Y0025449D03*
D19*
X0329115Y0061000D02*
X0329115Y0067000D01*
X0339115Y0067000D02*
X0339115Y0061000D01*
X0434115Y0061000D02*
X0434115Y0067000D01*
X0444115Y0067000D02*
X0444115Y0061000D01*
D20*
X0450099Y0053173D03*
X0398702Y0078272D03*
X0361694Y0099138D03*
X0329213Y0075673D03*
X0272501Y0103724D03*
X0265808Y0102543D03*
X0259902Y0109630D03*
X0255572Y0109630D03*
X0250454Y0111205D03*
X0261083Y0118685D03*
X0281950Y0112327D03*
X0289824Y0112327D03*
X0289036Y0132071D03*
X0291398Y0138764D03*
X0289036Y0144669D03*
X0268564Y0151362D03*
X0230769Y0162780D03*
X0226044Y0160811D03*
X0230769Y0171835D03*
X0224076Y0173409D03*
X0202028Y0165929D03*
X0198091Y0159236D03*
X0202422Y0152937D03*
X0199272Y0147425D03*
X0198957Y0140260D03*
X0201635Y0132465D03*
X0196871Y0126244D03*
X0201538Y0119650D03*
X0201615Y0106500D03*
X0234115Y0111500D03*
X0236615Y0101500D03*
X0236615Y0096500D03*
X0245335Y0089551D03*
X0241615Y0079000D03*
X0250355Y0072031D03*
X0246812Y0066520D03*
X0250355Y0049591D03*
X0269115Y0044000D03*
X0301615Y0016500D03*
X0192835Y0050004D03*
X0171300Y0038154D03*
X0169331Y0045634D03*
X0169115Y0059000D03*
X0166615Y0064000D03*
X0161615Y0066500D03*
X0149863Y0079276D03*
X0170119Y0085004D03*
X0169725Y0093272D03*
X0169115Y0101500D03*
X0164115Y0106500D03*
X0159115Y0111500D03*
X0151221Y0124374D03*
X0141615Y0129000D03*
X0163032Y0139335D03*
X0179568Y0144846D03*
X0176024Y0152327D03*
X0163032Y0152524D03*
X0141615Y0156500D03*
X0098072Y0124374D03*
X0071615Y0129000D03*
X0066615Y0131500D03*
X0066615Y0139000D03*
X0056615Y0146500D03*
X0057914Y0155083D03*
X0046615Y0156500D03*
X0014115Y0156500D03*
X0044115Y0181500D03*
X0069115Y0176500D03*
X0084115Y0176500D03*
X0087048Y0154886D03*
X0087048Y0142484D03*
X0085631Y0101165D03*
X0104115Y0084000D03*
X0092166Y0079098D03*
X0084115Y0079000D03*
X0091379Y0069256D03*
X0087835Y0064531D03*
X0087835Y0059413D03*
X0088623Y0054295D03*
X0076024Y0046421D03*
X0076418Y0038154D03*
X0059115Y0036500D03*
X0106615Y0036500D03*
X0141615Y0036500D03*
X0141615Y0016500D03*
X0189292Y0068508D03*
X0192835Y0074413D03*
X0341005Y0148488D03*
X0350060Y0148488D03*
X0368957Y0139827D03*
X0384115Y0129000D03*
X0399115Y0141500D03*
X0410296Y0148882D03*
X0442658Y0173291D03*
X0441477Y0179591D03*
X0350454Y0187465D03*
X0341792Y0189039D03*
X0309115Y0201500D03*
X0304115Y0201500D03*
X0278406Y0187583D03*
X0267776Y0184433D03*
X0258721Y0188370D03*
X0251615Y0189000D03*
X0246320Y0189748D03*
X0239430Y0187976D03*
X0211083Y0185614D03*
X0014115Y0036500D03*
D21*
X0012515Y0034000D02*
X0012515Y0159000D01*
X0068115Y0159000D01*
X0068115Y0131086D01*
X0068701Y0130500D01*
X0109115Y0130500D01*
X0109115Y0034000D01*
X0012515Y0034000D01*
X0012515Y0034443D02*
X0109115Y0034443D01*
X0109115Y0035442D02*
X0012515Y0035442D01*
X0012515Y0036440D02*
X0028367Y0036440D01*
X0027054Y0036792D02*
X0029852Y0036043D01*
X0032748Y0036043D01*
X0035546Y0036792D01*
X0038054Y0038240D01*
X0040102Y0040288D01*
X0041550Y0042797D01*
X0042300Y0045594D01*
X0042300Y0048491D01*
X0041550Y0051288D01*
X0040102Y0053797D01*
X0038054Y0055845D01*
X0035546Y0057293D01*
X0032748Y0058043D01*
X0029852Y0058043D01*
X0027054Y0057293D01*
X0024546Y0055845D01*
X0022498Y0053797D01*
X0021050Y0051288D01*
X0020300Y0048491D01*
X0020300Y0045594D01*
X0021050Y0042797D01*
X0022498Y0040288D01*
X0024546Y0038240D01*
X0027054Y0036792D01*
X0025934Y0037439D02*
X0012515Y0037439D01*
X0012515Y0038437D02*
X0024349Y0038437D01*
X0023350Y0039436D02*
X0012515Y0039436D01*
X0012515Y0040434D02*
X0022413Y0040434D01*
X0021837Y0041433D02*
X0012515Y0041433D01*
X0012515Y0042432D02*
X0021260Y0042432D01*
X0020880Y0043430D02*
X0012515Y0043430D01*
X0012515Y0044429D02*
X0020612Y0044429D01*
X0020345Y0045427D02*
X0012515Y0045427D01*
X0012515Y0046426D02*
X0020300Y0046426D01*
X0020300Y0047424D02*
X0012515Y0047424D01*
X0012515Y0048423D02*
X0020300Y0048423D01*
X0020549Y0049421D02*
X0012515Y0049421D01*
X0012515Y0050420D02*
X0020817Y0050420D01*
X0021125Y0051418D02*
X0012515Y0051418D01*
X0012515Y0052417D02*
X0021701Y0052417D01*
X0022278Y0053415D02*
X0012515Y0053415D01*
X0012515Y0054414D02*
X0023115Y0054414D01*
X0024113Y0055412D02*
X0012515Y0055412D01*
X0012515Y0056411D02*
X0025526Y0056411D01*
X0027488Y0057409D02*
X0012515Y0057409D01*
X0012515Y0058408D02*
X0075263Y0058408D01*
X0074265Y0059406D02*
X0012515Y0059406D01*
X0012515Y0060405D02*
X0073266Y0060405D01*
X0072268Y0061403D02*
X0012515Y0061403D01*
X0012515Y0062402D02*
X0071269Y0062402D01*
X0070271Y0063400D02*
X0012515Y0063400D01*
X0012515Y0064399D02*
X0069272Y0064399D01*
X0068274Y0065397D02*
X0012515Y0065397D01*
X0012515Y0066396D02*
X0067275Y0066396D01*
X0067704Y0065967D02*
X0080876Y0052795D01*
X0086941Y0052795D01*
X0087691Y0052045D01*
X0089555Y0052045D01*
X0090873Y0053363D01*
X0090873Y0055227D01*
X0089555Y0056545D01*
X0087691Y0056545D01*
X0086941Y0055795D01*
X0082118Y0055795D01*
X0071325Y0066589D01*
X0072865Y0068129D01*
X0082202Y0058792D01*
X0083080Y0057913D01*
X0086153Y0057913D01*
X0086903Y0057163D01*
X0088767Y0057163D01*
X0090085Y0058481D01*
X0090085Y0060345D01*
X0088767Y0061663D01*
X0086903Y0061663D01*
X0086153Y0060913D01*
X0084323Y0060913D01*
X0075615Y0069621D01*
X0075615Y0072879D01*
X0075994Y0072500D01*
X0085265Y0063228D01*
X0085957Y0063228D01*
X0086903Y0062281D01*
X0088767Y0062281D01*
X0090085Y0063600D01*
X0090085Y0065463D01*
X0088767Y0066781D01*
X0086903Y0066781D01*
X0086429Y0066307D01*
X0078115Y0074621D01*
X0078115Y0076461D01*
X0078494Y0076083D01*
X0086820Y0067756D01*
X0089697Y0067756D01*
X0090447Y0067006D01*
X0092311Y0067006D01*
X0093629Y0068324D01*
X0093629Y0070188D01*
X0092311Y0071506D01*
X0090447Y0071506D01*
X0089697Y0070756D01*
X0088063Y0070756D01*
X0080615Y0078204D01*
X0080615Y0110035D01*
X0066823Y0123827D01*
X0058297Y0123827D01*
X0054970Y0120500D01*
X0052458Y0120500D01*
X0052347Y0120389D01*
X0048516Y0124220D01*
X0027214Y0124220D01*
X0020115Y0117121D01*
X0020115Y0095006D01*
X0020994Y0094128D01*
X0022411Y0092710D01*
X0022300Y0092599D01*
X0022300Y0089286D01*
X0024643Y0086943D01*
X0027957Y0086943D01*
X0030300Y0089286D01*
X0030300Y0092599D01*
X0027957Y0094943D01*
X0024643Y0094943D01*
X0024532Y0094832D01*
X0023115Y0096249D01*
X0023115Y0099271D01*
X0024643Y0097743D01*
X0027957Y0097743D01*
X0030300Y0100086D01*
X0030300Y0103399D01*
X0027957Y0105743D01*
X0024643Y0105743D01*
X0023115Y0104214D01*
X0023115Y0110071D01*
X0024643Y0108543D01*
X0027957Y0108543D01*
X0030300Y0110886D01*
X0030300Y0114199D01*
X0027957Y0116543D01*
X0024643Y0116543D01*
X0023115Y0115014D01*
X0023115Y0115879D01*
X0028457Y0121220D01*
X0033921Y0121220D01*
X0032300Y0119599D01*
X0032300Y0116286D01*
X0034643Y0113943D01*
X0037957Y0113943D01*
X0040300Y0116286D01*
X0040300Y0116443D01*
X0047051Y0116443D01*
X0047615Y0115879D01*
X0047615Y0105121D01*
X0047236Y0105500D01*
X0044094Y0108643D01*
X0040300Y0108643D01*
X0040300Y0108799D01*
X0037957Y0111143D01*
X0034643Y0111143D01*
X0032300Y0108799D01*
X0032300Y0105486D01*
X0034643Y0103143D01*
X0037957Y0103143D01*
X0040300Y0105486D01*
X0040300Y0105643D01*
X0042851Y0105643D01*
X0045115Y0103379D01*
X0045115Y0095121D01*
X0044736Y0095500D01*
X0042394Y0097843D01*
X0040300Y0097843D01*
X0040300Y0097999D01*
X0037957Y0100343D01*
X0034643Y0100343D01*
X0032300Y0097999D01*
X0032300Y0094686D01*
X0034643Y0092343D01*
X0037957Y0092343D01*
X0040300Y0094686D01*
X0040300Y0094843D01*
X0041151Y0094843D01*
X0042615Y0093379D01*
X0042615Y0083379D01*
X0045994Y0080000D01*
X0051251Y0080000D01*
X0049615Y0078364D01*
X0049615Y0077000D01*
X0053615Y0077000D01*
X0053615Y0076000D01*
X0054615Y0076000D01*
X0054615Y0077000D01*
X0058615Y0077000D01*
X0058615Y0078364D01*
X0056979Y0080000D01*
X0061251Y0080000D01*
X0059615Y0078364D01*
X0059615Y0077000D01*
X0063615Y0077000D01*
X0063615Y0076000D01*
X0064615Y0076000D01*
X0064615Y0077000D01*
X0068615Y0077000D01*
X0068615Y0078364D01*
X0066566Y0080413D01*
X0067032Y0080879D01*
X0069579Y0083425D01*
X0070115Y0083961D01*
X0070115Y0069621D01*
X0069204Y0068710D01*
X0067236Y0070677D01*
X0042487Y0070677D01*
X0040189Y0072975D01*
X0040300Y0073086D01*
X0040300Y0076399D01*
X0037957Y0078743D01*
X0034643Y0078743D01*
X0032300Y0076399D01*
X0032300Y0073086D01*
X0034643Y0070743D01*
X0037957Y0070743D01*
X0038068Y0070853D01*
X0040365Y0068556D01*
X0041244Y0067677D01*
X0065994Y0067677D01*
X0067704Y0065967D01*
X0067704Y0065967D01*
X0069204Y0066589D02*
X0066615Y0069177D01*
X0041865Y0069177D01*
X0036300Y0074743D01*
X0039320Y0077379D02*
X0049615Y0077379D01*
X0049629Y0078378D02*
X0038321Y0078378D01*
X0040300Y0076381D02*
X0053615Y0076381D01*
X0053615Y0076000D02*
X0049615Y0076000D01*
X0049615Y0074636D01*
X0052251Y0072000D01*
X0053615Y0072000D01*
X0053615Y0076000D01*
X0053615Y0075382D02*
X0054615Y0075382D01*
X0054615Y0076000D02*
X0054615Y0072000D01*
X0055979Y0072000D01*
X0058615Y0074636D01*
X0058615Y0076000D01*
X0054615Y0076000D01*
X0054615Y0076381D02*
X0063615Y0076381D01*
X0063615Y0076000D02*
X0059615Y0076000D01*
X0059615Y0074636D01*
X0062251Y0072000D01*
X0063615Y0072000D01*
X0063615Y0076000D01*
X0063615Y0075382D02*
X0064615Y0075382D01*
X0064615Y0076000D02*
X0064615Y0072000D01*
X0065979Y0072000D01*
X0068615Y0074636D01*
X0068615Y0076000D01*
X0064615Y0076000D01*
X0064615Y0076381D02*
X0070115Y0076381D01*
X0070115Y0077379D02*
X0068615Y0077379D01*
X0068601Y0078378D02*
X0070115Y0078378D01*
X0070115Y0079376D02*
X0067602Y0079376D01*
X0066604Y0080375D02*
X0070115Y0080375D01*
X0070115Y0081373D02*
X0067527Y0081373D01*
X0068526Y0082372D02*
X0070115Y0082372D01*
X0070115Y0083370D02*
X0069524Y0083370D01*
X0068957Y0084925D02*
X0068957Y0091106D01*
X0064115Y0095949D01*
X0064115Y0096500D01*
X0071615Y0099000D02*
X0071615Y0069000D01*
X0069204Y0066589D01*
X0081497Y0054295D01*
X0088623Y0054295D01*
X0090873Y0054414D02*
X0109115Y0054414D01*
X0109115Y0055412D02*
X0090688Y0055412D01*
X0089689Y0056411D02*
X0109115Y0056411D01*
X0109115Y0057409D02*
X0089013Y0057409D01*
X0090012Y0058408D02*
X0109115Y0058408D01*
X0109115Y0059406D02*
X0090085Y0059406D01*
X0090026Y0060405D02*
X0109115Y0060405D01*
X0109115Y0061403D02*
X0089028Y0061403D01*
X0088888Y0062402D02*
X0109115Y0062402D01*
X0109115Y0063400D02*
X0089886Y0063400D01*
X0090085Y0064399D02*
X0109115Y0064399D01*
X0109115Y0065397D02*
X0090085Y0065397D01*
X0089153Y0066396D02*
X0109115Y0066396D01*
X0109115Y0067394D02*
X0092699Y0067394D01*
X0093629Y0068393D02*
X0109115Y0068393D01*
X0109115Y0069391D02*
X0093629Y0069391D01*
X0093427Y0070390D02*
X0109115Y0070390D01*
X0109115Y0071388D02*
X0092428Y0071388D01*
X0090329Y0071388D02*
X0087431Y0071388D01*
X0086432Y0072387D02*
X0109115Y0072387D01*
X0109115Y0073385D02*
X0085434Y0073385D01*
X0084435Y0074384D02*
X0109115Y0074384D01*
X0109115Y0075382D02*
X0083437Y0075382D01*
X0083183Y0076750D02*
X0081865Y0078068D01*
X0081865Y0079932D01*
X0083183Y0081250D01*
X0085047Y0081250D01*
X0086365Y0079932D01*
X0086365Y0078068D01*
X0085047Y0076750D01*
X0083183Y0076750D01*
X0082438Y0076381D02*
X0109115Y0076381D01*
X0109115Y0077379D02*
X0085676Y0077379D01*
X0086365Y0078378D02*
X0109115Y0078378D01*
X0109115Y0079376D02*
X0086365Y0079376D01*
X0085922Y0080375D02*
X0109115Y0080375D01*
X0109115Y0081373D02*
X0080615Y0081373D01*
X0080615Y0080375D02*
X0082308Y0080375D01*
X0081865Y0079376D02*
X0080615Y0079376D01*
X0080615Y0078378D02*
X0081865Y0078378D01*
X0081440Y0077379D02*
X0082554Y0077379D01*
X0079115Y0077583D02*
X0079115Y0109413D01*
X0066202Y0122327D01*
X0058918Y0122327D01*
X0054115Y0117524D01*
X0054115Y0116500D01*
X0047894Y0122720D01*
X0027835Y0122720D01*
X0021615Y0116500D01*
X0021615Y0095628D01*
X0026300Y0090943D01*
X0023223Y0088363D02*
X0012515Y0088363D01*
X0012515Y0087365D02*
X0024221Y0087365D01*
X0024436Y0084643D02*
X0021800Y0082006D01*
X0021800Y0080642D01*
X0025800Y0080642D01*
X0025800Y0079643D01*
X0021800Y0079643D01*
X0021800Y0078279D01*
X0024436Y0075643D01*
X0025800Y0075643D01*
X0025800Y0079642D01*
X0026800Y0079642D01*
X0026800Y0075643D01*
X0028164Y0075643D01*
X0030800Y0078279D01*
X0030800Y0079643D01*
X0026800Y0079643D01*
X0026800Y0080642D01*
X0030800Y0080642D01*
X0030800Y0082006D01*
X0028164Y0084643D01*
X0026800Y0084643D01*
X0026800Y0080643D01*
X0025800Y0080643D01*
X0025800Y0084643D01*
X0024436Y0084643D01*
X0024163Y0084369D02*
X0012515Y0084369D01*
X0012515Y0085368D02*
X0032300Y0085368D01*
X0032300Y0086366D02*
X0012515Y0086366D01*
X0012515Y0089362D02*
X0022300Y0089362D01*
X0022300Y0090360D02*
X0012515Y0090360D01*
X0012515Y0091359D02*
X0022300Y0091359D01*
X0022300Y0092357D02*
X0012515Y0092357D01*
X0012515Y0093356D02*
X0021766Y0093356D01*
X0020767Y0094354D02*
X0012515Y0094354D01*
X0012515Y0095353D02*
X0020115Y0095353D01*
X0020115Y0096351D02*
X0012515Y0096351D01*
X0012515Y0097350D02*
X0020115Y0097350D01*
X0020115Y0098348D02*
X0012515Y0098348D01*
X0012515Y0099347D02*
X0020115Y0099347D01*
X0020115Y0100345D02*
X0012515Y0100345D01*
X0012515Y0101344D02*
X0020115Y0101344D01*
X0020115Y0102342D02*
X0012515Y0102342D01*
X0012515Y0103341D02*
X0020115Y0103341D01*
X0020115Y0104339D02*
X0012515Y0104339D01*
X0012515Y0105338D02*
X0020115Y0105338D01*
X0020115Y0106336D02*
X0012515Y0106336D01*
X0012515Y0107335D02*
X0020115Y0107335D01*
X0020115Y0108333D02*
X0012515Y0108333D01*
X0012515Y0109332D02*
X0020115Y0109332D01*
X0020115Y0110330D02*
X0012515Y0110330D01*
X0012515Y0111329D02*
X0020115Y0111329D01*
X0020115Y0112327D02*
X0012515Y0112327D01*
X0012515Y0113326D02*
X0020115Y0113326D01*
X0020115Y0114324D02*
X0012515Y0114324D01*
X0012515Y0115323D02*
X0020115Y0115323D01*
X0020115Y0116321D02*
X0012515Y0116321D01*
X0012515Y0117320D02*
X0020314Y0117320D01*
X0021312Y0118318D02*
X0012515Y0118318D01*
X0012515Y0119317D02*
X0022311Y0119317D01*
X0023309Y0120315D02*
X0012515Y0120315D01*
X0012515Y0121314D02*
X0024308Y0121314D01*
X0025306Y0122312D02*
X0012515Y0122312D01*
X0012515Y0123311D02*
X0026305Y0123311D01*
X0027552Y0120315D02*
X0033016Y0120315D01*
X0032300Y0119317D02*
X0026553Y0119317D01*
X0025555Y0118318D02*
X0032300Y0118318D01*
X0032300Y0117320D02*
X0024556Y0117320D01*
X0024422Y0116321D02*
X0023558Y0116321D01*
X0023423Y0115323D02*
X0023115Y0115323D01*
X0028178Y0116321D02*
X0032300Y0116321D01*
X0033263Y0115323D02*
X0029177Y0115323D01*
X0030175Y0114324D02*
X0034261Y0114324D01*
X0038339Y0114324D02*
X0047615Y0114324D01*
X0047615Y0113326D02*
X0030300Y0113326D01*
X0030300Y0112327D02*
X0047615Y0112327D01*
X0047615Y0111329D02*
X0030300Y0111329D01*
X0029745Y0110330D02*
X0033831Y0110330D01*
X0032832Y0109332D02*
X0028746Y0109332D01*
X0032300Y0108333D02*
X0023115Y0108333D01*
X0023115Y0107335D02*
X0032300Y0107335D01*
X0032300Y0106336D02*
X0023115Y0106336D01*
X0023115Y0105338D02*
X0024238Y0105338D01*
X0023240Y0104339D02*
X0023115Y0104339D01*
X0028362Y0105338D02*
X0032448Y0105338D01*
X0033446Y0104339D02*
X0029360Y0104339D01*
X0030300Y0103341D02*
X0034445Y0103341D01*
X0038155Y0103341D02*
X0045115Y0103341D01*
X0045115Y0102342D02*
X0030300Y0102342D01*
X0030300Y0101344D02*
X0045115Y0101344D01*
X0045115Y0100345D02*
X0030300Y0100345D01*
X0029561Y0099347D02*
X0033647Y0099347D01*
X0032649Y0098348D02*
X0028562Y0098348D01*
X0032300Y0097350D02*
X0023115Y0097350D01*
X0023115Y0098348D02*
X0024038Y0098348D01*
X0023115Y0096351D02*
X0032300Y0096351D01*
X0032300Y0095353D02*
X0024011Y0095353D01*
X0028545Y0094354D02*
X0032632Y0094354D01*
X0033630Y0093356D02*
X0029544Y0093356D01*
X0030300Y0092357D02*
X0034629Y0092357D01*
X0034643Y0089543D02*
X0032300Y0087199D01*
X0032300Y0083886D01*
X0034643Y0081543D01*
X0037957Y0081543D01*
X0040300Y0083886D01*
X0040300Y0087199D01*
X0037957Y0089543D01*
X0034643Y0089543D01*
X0034462Y0089362D02*
X0030300Y0089362D01*
X0030300Y0090360D02*
X0042615Y0090360D01*
X0042615Y0089362D02*
X0038138Y0089362D01*
X0039136Y0088363D02*
X0042615Y0088363D01*
X0042615Y0087365D02*
X0040135Y0087365D01*
X0040300Y0086366D02*
X0042615Y0086366D01*
X0042615Y0085368D02*
X0040300Y0085368D01*
X0040300Y0084369D02*
X0042615Y0084369D01*
X0042623Y0083370D02*
X0039785Y0083370D01*
X0038786Y0082372D02*
X0043622Y0082372D01*
X0044620Y0081373D02*
X0030800Y0081373D01*
X0030434Y0082372D02*
X0033814Y0082372D01*
X0032815Y0083370D02*
X0029436Y0083370D01*
X0028437Y0084369D02*
X0032300Y0084369D01*
X0032465Y0087365D02*
X0028379Y0087365D01*
X0029377Y0088363D02*
X0033464Y0088363D01*
X0026800Y0084369D02*
X0025800Y0084369D01*
X0025800Y0083370D02*
X0026800Y0083370D01*
X0026800Y0082372D02*
X0025800Y0082372D01*
X0025800Y0081373D02*
X0026800Y0081373D01*
X0026800Y0080375D02*
X0045619Y0080375D01*
X0046615Y0081500D02*
X0044115Y0084000D01*
X0044115Y0094000D01*
X0041772Y0096343D01*
X0036300Y0096343D01*
X0038953Y0099347D02*
X0045115Y0099347D01*
X0045115Y0098348D02*
X0039951Y0098348D01*
X0042887Y0097350D02*
X0045115Y0097350D01*
X0045115Y0096351D02*
X0043885Y0096351D01*
X0044884Y0095353D02*
X0045115Y0095353D01*
X0042615Y0093356D02*
X0038970Y0093356D01*
X0039968Y0094354D02*
X0041640Y0094354D01*
X0042615Y0092357D02*
X0037971Y0092357D01*
X0042615Y0091359D02*
X0030300Y0091359D01*
X0046615Y0089000D02*
X0049115Y0086500D01*
X0054115Y0086500D01*
X0058328Y0091736D02*
X0063564Y0086500D01*
X0064115Y0086500D01*
X0068957Y0084925D02*
X0065532Y0081500D01*
X0046615Y0081500D01*
X0050627Y0079376D02*
X0030800Y0079376D01*
X0030800Y0078378D02*
X0034279Y0078378D01*
X0033280Y0077379D02*
X0029901Y0077379D01*
X0028902Y0076381D02*
X0032300Y0076381D01*
X0032300Y0075382D02*
X0012515Y0075382D01*
X0012515Y0074384D02*
X0032300Y0074384D01*
X0032300Y0073385D02*
X0012515Y0073385D01*
X0012515Y0072387D02*
X0032999Y0072387D01*
X0033997Y0071388D02*
X0012515Y0071388D01*
X0012515Y0070390D02*
X0038531Y0070390D01*
X0039530Y0069391D02*
X0012515Y0069391D01*
X0012515Y0068393D02*
X0040528Y0068393D01*
X0041775Y0071388D02*
X0070115Y0071388D01*
X0070115Y0070390D02*
X0067524Y0070390D01*
X0068522Y0069391D02*
X0069885Y0069391D01*
X0070115Y0072387D02*
X0066366Y0072387D01*
X0067364Y0073385D02*
X0070115Y0073385D01*
X0070115Y0074384D02*
X0068363Y0074384D01*
X0068615Y0075382D02*
X0070115Y0075382D01*
X0064615Y0074384D02*
X0063615Y0074384D01*
X0063615Y0073385D02*
X0064615Y0073385D01*
X0064615Y0072387D02*
X0063615Y0072387D01*
X0061864Y0072387D02*
X0056366Y0072387D01*
X0057364Y0073385D02*
X0060866Y0073385D01*
X0059867Y0074384D02*
X0058363Y0074384D01*
X0058615Y0075382D02*
X0059615Y0075382D01*
X0059615Y0077379D02*
X0058615Y0077379D01*
X0058601Y0078378D02*
X0059629Y0078378D01*
X0060627Y0079376D02*
X0057602Y0079376D01*
X0054615Y0074384D02*
X0053615Y0074384D01*
X0053615Y0073385D02*
X0054615Y0073385D01*
X0054615Y0072387D02*
X0053615Y0072387D01*
X0051864Y0072387D02*
X0040777Y0072387D01*
X0040300Y0073385D02*
X0050866Y0073385D01*
X0049867Y0074384D02*
X0040300Y0074384D01*
X0040300Y0075382D02*
X0049615Y0075382D01*
X0066276Y0067394D02*
X0012515Y0067394D01*
X0012515Y0076381D02*
X0023698Y0076381D01*
X0022699Y0077379D02*
X0012515Y0077379D01*
X0012515Y0078378D02*
X0021800Y0078378D01*
X0021800Y0079376D02*
X0012515Y0079376D01*
X0012515Y0080375D02*
X0025800Y0080375D01*
X0025800Y0079376D02*
X0026800Y0079376D01*
X0026800Y0078378D02*
X0025800Y0078378D01*
X0025800Y0077379D02*
X0026800Y0077379D01*
X0026800Y0076381D02*
X0025800Y0076381D01*
X0021800Y0081373D02*
X0012515Y0081373D01*
X0012515Y0082372D02*
X0022166Y0082372D01*
X0023164Y0083370D02*
X0012515Y0083370D01*
X0046615Y0089000D02*
X0046615Y0104000D01*
X0043472Y0107143D01*
X0036300Y0107143D01*
X0039154Y0104339D02*
X0044154Y0104339D01*
X0043156Y0105338D02*
X0040152Y0105338D01*
X0044403Y0108333D02*
X0047615Y0108333D01*
X0047615Y0107335D02*
X0045402Y0107335D01*
X0046400Y0106336D02*
X0047615Y0106336D01*
X0047615Y0105338D02*
X0047399Y0105338D01*
X0049115Y0103980D02*
X0051635Y0101461D01*
X0058328Y0101461D01*
X0058328Y0091736D01*
X0071615Y0099000D02*
X0064115Y0106500D01*
X0064627Y0111697D02*
X0058288Y0111697D01*
X0054115Y0107524D01*
X0054115Y0106500D01*
X0049115Y0103980D02*
X0049115Y0116500D01*
X0047672Y0117943D01*
X0036300Y0117943D01*
X0042672Y0117943D01*
X0040300Y0116321D02*
X0047172Y0116321D01*
X0047615Y0115323D02*
X0039337Y0115323D01*
X0038769Y0110330D02*
X0047615Y0110330D01*
X0047615Y0109332D02*
X0039768Y0109332D01*
X0023854Y0109332D02*
X0023115Y0109332D01*
X0012515Y0124309D02*
X0109115Y0124309D01*
X0109115Y0123311D02*
X0067339Y0123311D01*
X0068337Y0122312D02*
X0109115Y0122312D01*
X0109115Y0121314D02*
X0069336Y0121314D01*
X0070334Y0120315D02*
X0109115Y0120315D01*
X0109115Y0119317D02*
X0071333Y0119317D01*
X0072331Y0118318D02*
X0109115Y0118318D01*
X0109115Y0117320D02*
X0073330Y0117320D01*
X0074328Y0116321D02*
X0109115Y0116321D01*
X0109115Y0115323D02*
X0075327Y0115323D01*
X0076325Y0114324D02*
X0109115Y0114324D01*
X0109115Y0113326D02*
X0077324Y0113326D01*
X0078322Y0112327D02*
X0109115Y0112327D01*
X0109115Y0111329D02*
X0079321Y0111329D01*
X0080319Y0110330D02*
X0109115Y0110330D01*
X0109115Y0109332D02*
X0080615Y0109332D01*
X0080615Y0108333D02*
X0109115Y0108333D01*
X0109115Y0107335D02*
X0080615Y0107335D01*
X0080615Y0106336D02*
X0109115Y0106336D01*
X0109115Y0105338D02*
X0080615Y0105338D01*
X0080615Y0104339D02*
X0109115Y0104339D01*
X0109115Y0103341D02*
X0080615Y0103341D01*
X0080615Y0102342D02*
X0109115Y0102342D01*
X0109115Y0101344D02*
X0080615Y0101344D01*
X0080615Y0100345D02*
X0109115Y0100345D01*
X0109115Y0099347D02*
X0080615Y0099347D01*
X0080615Y0098348D02*
X0109115Y0098348D01*
X0109115Y0097350D02*
X0080615Y0097350D01*
X0080615Y0096351D02*
X0109115Y0096351D01*
X0109115Y0095353D02*
X0080615Y0095353D01*
X0080615Y0094354D02*
X0109115Y0094354D01*
X0109115Y0093356D02*
X0080615Y0093356D01*
X0080615Y0092357D02*
X0109115Y0092357D01*
X0109115Y0091359D02*
X0080615Y0091359D01*
X0080615Y0090360D02*
X0109115Y0090360D01*
X0109115Y0089362D02*
X0080615Y0089362D01*
X0080615Y0088363D02*
X0109115Y0088363D01*
X0109115Y0087365D02*
X0080615Y0087365D01*
X0080615Y0086366D02*
X0109115Y0086366D01*
X0109115Y0085368D02*
X0080615Y0085368D01*
X0080615Y0084369D02*
X0109115Y0084369D01*
X0109115Y0083370D02*
X0080615Y0083370D01*
X0080615Y0082372D02*
X0109115Y0082372D01*
X0091379Y0069256D02*
X0087442Y0069256D01*
X0079115Y0077583D01*
X0078195Y0076381D02*
X0078115Y0076381D01*
X0078115Y0075382D02*
X0079194Y0075382D01*
X0078352Y0074384D02*
X0080192Y0074384D01*
X0079351Y0073385D02*
X0081191Y0073385D01*
X0080349Y0072387D02*
X0082189Y0072387D01*
X0081348Y0071388D02*
X0083188Y0071388D01*
X0082346Y0070390D02*
X0084186Y0070390D01*
X0083345Y0069391D02*
X0085185Y0069391D01*
X0084343Y0068393D02*
X0086183Y0068393D01*
X0085342Y0067394D02*
X0090058Y0067394D01*
X0087835Y0064728D02*
X0085887Y0064728D01*
X0076615Y0074000D01*
X0076615Y0104000D01*
X0064115Y0116500D01*
X0064627Y0111697D02*
X0074115Y0102209D01*
X0074115Y0069000D01*
X0083702Y0059413D01*
X0087835Y0059413D01*
X0086643Y0061403D02*
X0083833Y0061403D01*
X0082835Y0062402D02*
X0086783Y0062402D01*
X0085093Y0063400D02*
X0081836Y0063400D01*
X0080838Y0064399D02*
X0084095Y0064399D01*
X0083096Y0065397D02*
X0079839Y0065397D01*
X0078840Y0066396D02*
X0082098Y0066396D01*
X0081099Y0067394D02*
X0077842Y0067394D01*
X0076843Y0068393D02*
X0080101Y0068393D01*
X0079102Y0069391D02*
X0075845Y0069391D01*
X0075615Y0070390D02*
X0078104Y0070390D01*
X0077105Y0071388D02*
X0075615Y0071388D01*
X0075615Y0072387D02*
X0076107Y0072387D01*
X0073599Y0067394D02*
X0072131Y0067394D01*
X0071518Y0066396D02*
X0074598Y0066396D01*
X0075596Y0065397D02*
X0072516Y0065397D01*
X0073515Y0064399D02*
X0076595Y0064399D01*
X0077593Y0063400D02*
X0074513Y0063400D01*
X0075512Y0062402D02*
X0078592Y0062402D01*
X0079590Y0061403D02*
X0076510Y0061403D01*
X0077509Y0060405D02*
X0080589Y0060405D01*
X0081587Y0059406D02*
X0078507Y0059406D01*
X0079506Y0058408D02*
X0082586Y0058408D01*
X0081503Y0056411D02*
X0087556Y0056411D01*
X0086658Y0057409D02*
X0080504Y0057409D01*
X0078259Y0055412D02*
X0038487Y0055412D01*
X0039485Y0054414D02*
X0079257Y0054414D01*
X0080256Y0053415D02*
X0040322Y0053415D01*
X0040899Y0052417D02*
X0087319Y0052417D01*
X0089926Y0052417D02*
X0109115Y0052417D01*
X0109115Y0053415D02*
X0090873Y0053415D01*
X0077260Y0056411D02*
X0037074Y0056411D01*
X0035112Y0057409D02*
X0076262Y0057409D01*
X0087835Y0064531D02*
X0087835Y0064728D01*
X0086518Y0066396D02*
X0086340Y0066396D01*
X0109115Y0051418D02*
X0041475Y0051418D01*
X0041783Y0050420D02*
X0109115Y0050420D01*
X0109115Y0049421D02*
X0042051Y0049421D01*
X0042300Y0048423D02*
X0109115Y0048423D01*
X0109115Y0047424D02*
X0042300Y0047424D01*
X0042300Y0046426D02*
X0109115Y0046426D01*
X0109115Y0045427D02*
X0042255Y0045427D01*
X0041988Y0044429D02*
X0109115Y0044429D01*
X0109115Y0043430D02*
X0041720Y0043430D01*
X0041340Y0042432D02*
X0109115Y0042432D01*
X0109115Y0041433D02*
X0040763Y0041433D01*
X0040187Y0040434D02*
X0109115Y0040434D01*
X0109115Y0039436D02*
X0078318Y0039436D01*
X0078668Y0039086D02*
X0077350Y0040404D01*
X0075486Y0040404D01*
X0074168Y0039086D01*
X0074168Y0037222D01*
X0075486Y0035904D01*
X0077350Y0035904D01*
X0078668Y0037222D01*
X0078668Y0039086D01*
X0078668Y0038437D02*
X0109115Y0038437D01*
X0109115Y0037439D02*
X0078668Y0037439D01*
X0077887Y0036440D02*
X0109115Y0036440D01*
X0139115Y0036440D02*
X0169831Y0036440D01*
X0139115Y0036440D01*
X0139115Y0035442D02*
X0304115Y0035442D01*
X0304115Y0036440D02*
X0172769Y0036440D01*
X0189115Y0036440D01*
X0189115Y0035442D02*
X0139115Y0035442D01*
X0139115Y0034443D02*
X0304115Y0034443D01*
X0304115Y0033445D02*
X0139115Y0033445D01*
X0189115Y0033445D01*
X0189115Y0034443D02*
X0139115Y0034443D01*
X0139115Y0032446D02*
X0304115Y0032446D01*
X0304115Y0031448D02*
X0139115Y0031448D01*
X0189115Y0031448D01*
X0189115Y0032446D02*
X0139115Y0032446D01*
X0139115Y0030449D02*
X0232020Y0030449D01*
X0232397Y0030572D02*
X0231619Y0030319D01*
X0230890Y0029947D01*
X0230227Y0029466D01*
X0229649Y0028888D01*
X0229168Y0028225D01*
X0228796Y0027496D01*
X0228543Y0026718D01*
X0228429Y0026000D01*
X0233115Y0026000D01*
X0233115Y0030686D01*
X0232397Y0030572D01*
X0233115Y0030449D02*
X0234115Y0030449D01*
X0234115Y0030686D02*
X0234115Y0026000D01*
X0238801Y0026000D01*
X0238687Y0026718D01*
X0238434Y0027496D01*
X0238062Y0028225D01*
X0237581Y0028888D01*
X0237003Y0029466D01*
X0236340Y0029947D01*
X0235611Y0030319D01*
X0234833Y0030572D01*
X0234115Y0030686D01*
X0235210Y0030449D02*
X0304115Y0030449D01*
X0304115Y0029451D02*
X0294296Y0029451D01*
X0293997Y0029750D02*
X0292115Y0029750D01*
X0292115Y0024500D01*
X0297365Y0024500D01*
X0297365Y0026382D01*
X0293997Y0029750D01*
X0295294Y0028452D02*
X0304115Y0028452D01*
X0304115Y0027454D02*
X0296293Y0027454D01*
X0297291Y0026455D02*
X0304115Y0026455D01*
X0304115Y0025457D02*
X0297365Y0025457D01*
X0297365Y0023500D02*
X0292115Y0023500D01*
X0292115Y0024500D01*
X0291115Y0024500D01*
X0291115Y0029750D01*
X0289233Y0029750D01*
X0286261Y0026778D01*
X0283790Y0029250D01*
X0279440Y0029250D01*
X0276365Y0026175D01*
X0276365Y0021825D01*
X0279440Y0018750D01*
X0283790Y0018750D01*
X0286261Y0021222D01*
X0289233Y0018250D01*
X0291115Y0018250D01*
X0291115Y0023500D01*
X0292115Y0023500D01*
X0292115Y0018250D01*
X0293997Y0018250D01*
X0297365Y0021618D01*
X0297365Y0023500D01*
X0297365Y0023460D02*
X0304115Y0023460D01*
X0304115Y0024458D02*
X0292115Y0024458D01*
X0292115Y0023460D02*
X0291115Y0023460D01*
X0291115Y0022461D02*
X0292115Y0022461D01*
X0292115Y0021463D02*
X0291115Y0021463D01*
X0291115Y0020464D02*
X0292115Y0020464D01*
X0292115Y0019466D02*
X0291115Y0019466D01*
X0291115Y0018467D02*
X0292115Y0018467D01*
X0294214Y0018467D02*
X0304115Y0018467D01*
X0304115Y0017469D02*
X0139115Y0017469D01*
X0189115Y0017469D01*
X0189115Y0018467D02*
X0139115Y0018467D01*
X0289016Y0018467D01*
X0288017Y0019466D02*
X0284505Y0019466D01*
X0285504Y0020464D02*
X0287019Y0020464D01*
X0278725Y0019466D02*
X0139115Y0019466D01*
X0189115Y0019466D01*
X0189115Y0020464D02*
X0139115Y0020464D01*
X0232286Y0020464D01*
X0232397Y0020428D02*
X0231619Y0020681D01*
X0230890Y0021053D01*
X0230227Y0021534D01*
X0229649Y0022112D01*
X0229168Y0022775D01*
X0228796Y0023504D01*
X0228543Y0024282D01*
X0228429Y0025000D01*
X0233115Y0025000D01*
X0234115Y0025000D01*
X0234115Y0026000D01*
X0233115Y0026000D01*
X0233115Y0025000D01*
X0233115Y0020314D01*
X0232397Y0020428D01*
X0233115Y0020464D02*
X0234115Y0020464D01*
X0234115Y0020314D02*
X0234833Y0020428D01*
X0235611Y0020681D01*
X0236340Y0021053D01*
X0237003Y0021534D01*
X0237581Y0022112D01*
X0238062Y0022775D01*
X0238434Y0023504D01*
X0238687Y0024282D01*
X0238801Y0025000D01*
X0234115Y0025000D01*
X0234115Y0020314D01*
X0234944Y0020464D02*
X0277726Y0020464D01*
X0276728Y0021463D02*
X0256150Y0021463D01*
X0256277Y0021516D02*
X0257599Y0022838D01*
X0258315Y0024565D01*
X0258315Y0026435D01*
X0257599Y0028162D01*
X0256277Y0029484D01*
X0254550Y0030200D01*
X0252680Y0030200D01*
X0250953Y0029484D01*
X0249630Y0028162D01*
X0248915Y0026435D01*
X0248915Y0024565D01*
X0249630Y0022838D01*
X0250953Y0021516D01*
X0252680Y0020800D01*
X0254550Y0020800D01*
X0256277Y0021516D01*
X0257223Y0022461D02*
X0276365Y0022461D01*
X0276365Y0023460D02*
X0257857Y0023460D01*
X0258271Y0024458D02*
X0276365Y0024458D01*
X0276365Y0025457D02*
X0258315Y0025457D01*
X0258306Y0026455D02*
X0276646Y0026455D01*
X0277644Y0027454D02*
X0257893Y0027454D01*
X0257309Y0028452D02*
X0278643Y0028452D01*
X0284587Y0028452D02*
X0287936Y0028452D01*
X0288934Y0029451D02*
X0256311Y0029451D01*
X0250919Y0029451D02*
X0246311Y0029451D01*
X0246277Y0029484D02*
X0244550Y0030200D01*
X0242680Y0030200D01*
X0240953Y0029484D01*
X0239630Y0028162D01*
X0238915Y0026435D01*
X0238915Y0024565D01*
X0239630Y0022838D01*
X0240953Y0021516D01*
X0242680Y0020800D01*
X0244550Y0020800D01*
X0246277Y0021516D01*
X0247599Y0022838D01*
X0248315Y0024565D01*
X0248315Y0026435D01*
X0247599Y0028162D01*
X0246277Y0029484D01*
X0247309Y0028452D02*
X0249921Y0028452D01*
X0249337Y0027454D02*
X0247893Y0027454D01*
X0248306Y0026455D02*
X0248923Y0026455D01*
X0248915Y0025457D02*
X0248315Y0025457D01*
X0248271Y0024458D02*
X0248959Y0024458D01*
X0249373Y0023460D02*
X0247857Y0023460D01*
X0247223Y0022461D02*
X0250007Y0022461D01*
X0251080Y0021463D02*
X0246150Y0021463D01*
X0241080Y0021463D02*
X0236905Y0021463D01*
X0237835Y0022461D02*
X0240007Y0022461D01*
X0239373Y0023460D02*
X0238412Y0023460D01*
X0238715Y0024458D02*
X0238959Y0024458D01*
X0238915Y0025457D02*
X0234115Y0025457D01*
X0234115Y0026455D02*
X0233115Y0026455D01*
X0233115Y0025457D02*
X0228315Y0025457D01*
X0228315Y0024565D02*
X0228315Y0026435D01*
X0227599Y0028162D01*
X0226277Y0029484D01*
X0224550Y0030200D01*
X0222680Y0030200D01*
X0220953Y0029484D01*
X0219630Y0028162D01*
X0218915Y0026435D01*
X0218915Y0024565D01*
X0219630Y0022838D01*
X0220953Y0021516D01*
X0222680Y0020800D01*
X0224550Y0020800D01*
X0226277Y0021516D01*
X0227599Y0022838D01*
X0228315Y0024565D01*
X0228271Y0024458D02*
X0228515Y0024458D01*
X0228818Y0023460D02*
X0227857Y0023460D01*
X0227223Y0022461D02*
X0229395Y0022461D01*
X0230325Y0021463D02*
X0226150Y0021463D01*
X0221080Y0021463D02*
X0216150Y0021463D01*
X0216277Y0021516D02*
X0217599Y0022838D01*
X0218315Y0024565D01*
X0218315Y0026435D01*
X0217599Y0028162D01*
X0216277Y0029484D01*
X0214550Y0030200D01*
X0212680Y0030200D01*
X0210953Y0029484D01*
X0209630Y0028162D01*
X0208915Y0026435D01*
X0208915Y0024565D01*
X0209630Y0022838D01*
X0210953Y0021516D01*
X0212680Y0020800D01*
X0214550Y0020800D01*
X0216277Y0021516D01*
X0217223Y0022461D02*
X0220007Y0022461D01*
X0219373Y0023460D02*
X0217857Y0023460D01*
X0218271Y0024458D02*
X0218959Y0024458D01*
X0218915Y0025457D02*
X0218315Y0025457D01*
X0218306Y0026455D02*
X0218923Y0026455D01*
X0219337Y0027454D02*
X0217893Y0027454D01*
X0217309Y0028452D02*
X0219921Y0028452D01*
X0220919Y0029451D02*
X0216311Y0029451D01*
X0210919Y0029451D02*
X0206307Y0029451D01*
X0206277Y0029481D02*
X0204550Y0030196D01*
X0202680Y0030196D01*
X0200953Y0029481D01*
X0199630Y0028158D01*
X0198915Y0026431D01*
X0198915Y0024561D01*
X0199630Y0022834D01*
X0200953Y0021512D01*
X0202680Y0020796D01*
X0204550Y0020796D01*
X0206277Y0021512D01*
X0207599Y0022834D01*
X0208315Y0024561D01*
X0208315Y0026431D01*
X0207599Y0028158D01*
X0206277Y0029481D01*
X0207305Y0028452D02*
X0209921Y0028452D01*
X0209337Y0027454D02*
X0207891Y0027454D01*
X0208305Y0026455D02*
X0208923Y0026455D01*
X0208915Y0025457D02*
X0208315Y0025457D01*
X0208272Y0024458D02*
X0208959Y0024458D01*
X0209373Y0023460D02*
X0207859Y0023460D01*
X0207227Y0022461D02*
X0210007Y0022461D01*
X0211080Y0021463D02*
X0206159Y0021463D01*
X0201070Y0021463D02*
X0196246Y0021463D01*
X0196250Y0021464D02*
X0197572Y0022786D01*
X0198287Y0024514D01*
X0198287Y0026384D01*
X0197572Y0028111D01*
X0196250Y0029433D01*
X0194522Y0030149D01*
X0192652Y0030149D01*
X0190925Y0029433D01*
X0189603Y0028111D01*
X0188887Y0026384D01*
X0188887Y0024514D01*
X0189603Y0022786D01*
X0190925Y0021464D01*
X0192652Y0020749D01*
X0194522Y0020749D01*
X0196250Y0021464D01*
X0197247Y0022461D02*
X0200003Y0022461D01*
X0199371Y0023460D02*
X0197851Y0023460D01*
X0198264Y0024458D02*
X0198958Y0024458D01*
X0198915Y0025457D02*
X0198287Y0025457D01*
X0198258Y0026455D02*
X0198925Y0026455D01*
X0199339Y0027454D02*
X0197844Y0027454D01*
X0197231Y0028452D02*
X0199924Y0028452D01*
X0200923Y0029451D02*
X0196207Y0029451D01*
X0190968Y0029451D02*
X0188287Y0029451D01*
X0189115Y0029451D01*
X0188287Y0029563D02*
X0187702Y0030149D01*
X0179473Y0030149D01*
X0178887Y0029563D01*
X0178887Y0021335D01*
X0179473Y0020749D01*
X0187702Y0020749D01*
X0188287Y0021335D01*
X0188287Y0029563D01*
X0187702Y0030149D01*
X0179473Y0030149D01*
X0178887Y0029563D01*
X0178887Y0021335D01*
X0179473Y0020749D01*
X0187702Y0020749D01*
X0188287Y0021335D01*
X0188287Y0029563D01*
X0188287Y0028452D02*
X0189944Y0028452D01*
X0189115Y0028452D02*
X0188287Y0028452D01*
X0188287Y0027454D02*
X0189331Y0027454D01*
X0189115Y0027454D02*
X0188287Y0027454D01*
X0189115Y0026933D02*
X0188887Y0026384D01*
X0188887Y0024514D01*
X0189115Y0023965D01*
X0189115Y0014900D01*
X0139115Y0014900D01*
X0139115Y0174000D01*
X0012515Y0174000D01*
X0012515Y0226801D01*
X0304115Y0226801D01*
X0304115Y0219650D01*
X0302789Y0219650D01*
X0301264Y0219018D01*
X0300097Y0217851D01*
X0299465Y0216325D01*
X0299465Y0214675D01*
X0300097Y0213149D01*
X0301264Y0211982D01*
X0302789Y0211350D01*
X0304115Y0211350D01*
X0304115Y0210500D01*
X0268494Y0210500D01*
X0267615Y0209621D01*
X0263494Y0205500D01*
X0263236Y0205500D01*
X0270491Y0212755D01*
X0271264Y0211982D01*
X0272789Y0211350D01*
X0274440Y0211350D01*
X0275966Y0211982D01*
X0277133Y0213149D01*
X0277765Y0214675D01*
X0277765Y0216325D01*
X0277133Y0217851D01*
X0275966Y0219018D01*
X0274440Y0219650D01*
X0272789Y0219650D01*
X0271264Y0219018D01*
X0270097Y0217851D01*
X0269465Y0216325D01*
X0269465Y0215971D01*
X0267480Y0213986D01*
X0267765Y0214675D01*
X0267765Y0216325D01*
X0267133Y0217851D01*
X0265966Y0219018D01*
X0264440Y0219650D01*
X0262789Y0219650D01*
X0261264Y0219018D01*
X0260097Y0217851D01*
X0259465Y0216325D01*
X0259465Y0214675D01*
X0260097Y0213149D01*
X0261264Y0211982D01*
X0262789Y0211350D01*
X0264440Y0211350D01*
X0265129Y0211635D01*
X0261494Y0208000D01*
X0235236Y0208000D01*
X0238236Y0211000D01*
X0238586Y0211350D01*
X0241179Y0211350D01*
X0241765Y0211936D01*
X0241765Y0219064D01*
X0241179Y0219650D01*
X0234051Y0219650D01*
X0233465Y0219064D01*
X0233465Y0211936D01*
X0234051Y0211350D01*
X0234344Y0211350D01*
X0233494Y0210500D01*
X0137736Y0210500D01*
X0138115Y0210879D01*
X0140615Y0213379D01*
X0140615Y0218379D01*
X0142236Y0220000D01*
X0176417Y0220000D01*
X0175830Y0219809D01*
X0175178Y0219477D01*
X0174586Y0219047D01*
X0174068Y0218529D01*
X0173638Y0217937D01*
X0173306Y0217285D01*
X0173079Y0216589D01*
X0172986Y0216000D01*
X0177115Y0216000D01*
X0177115Y0215000D01*
X0178115Y0215000D01*
X0178115Y0216000D01*
X0182244Y0216000D01*
X0182150Y0216589D01*
X0181924Y0217285D01*
X0181592Y0217937D01*
X0181162Y0218529D01*
X0180644Y0219047D01*
X0180052Y0219477D01*
X0179400Y0219809D01*
X0178813Y0220000D01*
X0223494Y0220000D01*
X0224870Y0218624D01*
X0224097Y0217851D01*
X0223465Y0216325D01*
X0223465Y0214675D01*
X0224097Y0213149D01*
X0225264Y0211982D01*
X0226789Y0211350D01*
X0228440Y0211350D01*
X0229966Y0211982D01*
X0231133Y0213149D01*
X0231765Y0214675D01*
X0231765Y0216325D01*
X0231133Y0217851D01*
X0229966Y0219018D01*
X0228440Y0219650D01*
X0228086Y0219650D01*
X0225615Y0222121D01*
X0224736Y0223000D01*
X0140994Y0223000D01*
X0138494Y0220500D01*
X0137615Y0219621D01*
X0137615Y0214621D01*
X0135994Y0213000D01*
X0073494Y0213000D01*
X0070994Y0210500D01*
X0070115Y0209621D01*
X0070115Y0206051D01*
X0069460Y0206051D01*
X0067117Y0203708D01*
X0067117Y0200394D01*
X0069460Y0198051D01*
X0072773Y0198051D01*
X0075117Y0200394D01*
X0075117Y0203708D01*
X0073115Y0205710D01*
X0073115Y0208379D01*
X0074736Y0210000D01*
X0110494Y0210000D01*
X0108494Y0208000D01*
X0107615Y0207121D01*
X0107615Y0189621D01*
X0105994Y0188000D01*
X0069736Y0188000D01*
X0068529Y0189207D01*
X0069717Y0190394D01*
X0069717Y0193708D01*
X0067373Y0196051D01*
X0064060Y0196051D01*
X0061717Y0193708D01*
X0061717Y0190394D01*
X0064060Y0188051D01*
X0065442Y0188051D01*
X0067615Y0185879D01*
X0067615Y0185879D01*
X0068494Y0185000D01*
X0107236Y0185000D01*
X0108115Y0185879D01*
X0110615Y0188379D01*
X0110615Y0205879D01*
X0112236Y0207500D01*
X0122311Y0207500D01*
X0121571Y0207302D01*
X0119062Y0205853D01*
X0117014Y0203805D01*
X0115566Y0201297D01*
X0114817Y0198499D01*
X0114817Y0195603D01*
X0115566Y0192805D01*
X0117014Y0190297D01*
X0119062Y0188249D01*
X0121571Y0186801D01*
X0124368Y0186051D01*
X0127265Y0186051D01*
X0130062Y0186801D01*
X0132571Y0188249D01*
X0134619Y0190297D01*
X0136067Y0192805D01*
X0136817Y0195603D01*
X0136817Y0198499D01*
X0136067Y0201297D01*
X0134619Y0203805D01*
X0132571Y0205853D01*
X0130062Y0207302D01*
X0129322Y0207500D01*
X0185494Y0207500D01*
X0185115Y0207121D01*
X0182615Y0204621D01*
X0182615Y0142121D01*
X0157615Y0117121D01*
X0157615Y0113182D01*
X0156865Y0112432D01*
X0156865Y0110568D01*
X0158183Y0109250D01*
X0160047Y0109250D01*
X0161365Y0110568D01*
X0161365Y0112432D01*
X0160615Y0113182D01*
X0160615Y0115879D01*
X0184736Y0140000D01*
X0185115Y0140379D01*
X0185115Y0139621D01*
X0172615Y0127121D01*
X0172615Y0079621D01*
X0161744Y0068750D01*
X0160683Y0068750D01*
X0159365Y0067432D01*
X0159365Y0065568D01*
X0160683Y0064250D01*
X0162547Y0064250D01*
X0163865Y0065568D01*
X0163865Y0066629D01*
X0174736Y0077500D01*
X0175615Y0078379D01*
X0175615Y0125879D01*
X0187236Y0137500D01*
X0187615Y0137879D01*
X0187615Y0118379D01*
X0188494Y0117500D01*
X0199365Y0106629D01*
X0199365Y0105568D01*
X0200683Y0104250D01*
X0202547Y0104250D01*
X0203865Y0105568D01*
X0203865Y0107432D01*
X0202547Y0108750D01*
X0201486Y0108750D01*
X0190615Y0119621D01*
X0190615Y0198379D01*
X0192236Y0200000D01*
X0267236Y0200000D01*
X0272236Y0205000D01*
X0282994Y0205000D01*
X0280115Y0202121D01*
X0280115Y0189056D01*
X0279338Y0189833D01*
X0277474Y0189833D01*
X0276156Y0188515D01*
X0276156Y0186651D01*
X0277474Y0185333D01*
X0279338Y0185333D01*
X0280115Y0186109D01*
X0280115Y0179621D01*
X0278494Y0178000D01*
X0260994Y0178000D01*
X0260115Y0177121D01*
X0257615Y0174621D01*
X0257615Y0124621D01*
X0254072Y0121078D01*
X0254072Y0111312D01*
X0253322Y0110562D01*
X0253322Y0108698D01*
X0254640Y0107380D01*
X0256504Y0107380D01*
X0257737Y0108613D01*
X0258970Y0107380D01*
X0260834Y0107380D01*
X0262152Y0108698D01*
X0262152Y0109759D01*
X0265615Y0113221D01*
X0265615Y0168379D01*
X0267236Y0170000D01*
X0284736Y0170000D01*
X0285615Y0170879D01*
X0288115Y0173379D01*
X0288115Y0195879D01*
X0289736Y0197500D01*
X0304115Y0197500D01*
X0304115Y0118000D01*
X0295994Y0118000D01*
X0295115Y0117121D01*
X0292615Y0114621D01*
X0292615Y0102121D01*
X0290994Y0100500D01*
X0266947Y0100500D01*
X0268058Y0101611D01*
X0268058Y0103475D01*
X0266740Y0104793D01*
X0264876Y0104793D01*
X0263558Y0103475D01*
X0263558Y0101611D01*
X0264669Y0100500D01*
X0247236Y0100500D01*
X0236365Y0111371D01*
X0236365Y0112432D01*
X0235047Y0113750D01*
X0233183Y0113750D01*
X0231865Y0112432D01*
X0231865Y0110568D01*
X0233183Y0109250D01*
X0234244Y0109250D01*
X0245115Y0098379D01*
X0245494Y0098000D01*
X0242236Y0098000D01*
X0238865Y0101371D01*
X0238865Y0102432D01*
X0237547Y0103750D01*
X0235683Y0103750D01*
X0234365Y0102432D01*
X0234365Y0100568D01*
X0235683Y0099250D01*
X0236744Y0099250D01*
X0237244Y0098750D01*
X0235683Y0098750D01*
X0234365Y0097432D01*
X0234365Y0095568D01*
X0235683Y0094250D01*
X0236744Y0094250D01*
X0238494Y0092500D01*
X0297236Y0092500D01*
X0299736Y0095000D01*
X0300615Y0095879D01*
X0300615Y0108379D01*
X0302236Y0110000D01*
X0304115Y0110000D01*
X0304115Y0108925D01*
X0301365Y0106175D01*
X0301365Y0101825D01*
X0304115Y0099075D01*
X0304115Y0098925D01*
X0301365Y0096175D01*
X0301365Y0091825D01*
X0304115Y0089075D01*
X0304115Y0088925D01*
X0301365Y0086175D01*
X0301365Y0081825D01*
X0304115Y0079075D01*
X0304115Y0071317D01*
X0301409Y0071317D01*
X0298333Y0068242D01*
X0298333Y0063892D01*
X0301409Y0060817D01*
X0304115Y0060817D01*
X0304115Y0014900D01*
X0139115Y0014900D01*
X0139115Y0174000D01*
X0182615Y0174000D01*
X0182615Y0142121D01*
X0157615Y0117121D01*
X0157615Y0113182D01*
X0156865Y0112432D01*
X0156865Y0110568D01*
X0158183Y0109250D01*
X0160047Y0109250D01*
X0161365Y0110568D01*
X0161365Y0112432D01*
X0160615Y0113182D01*
X0160615Y0115879D01*
X0184736Y0140000D01*
X0185115Y0140379D01*
X0185115Y0139621D01*
X0172615Y0127121D01*
X0172615Y0079621D01*
X0161744Y0068750D01*
X0160683Y0068750D01*
X0159365Y0067432D01*
X0159365Y0065568D01*
X0160683Y0064250D01*
X0162547Y0064250D01*
X0163865Y0065568D01*
X0163865Y0066629D01*
X0174736Y0077500D01*
X0175615Y0078379D01*
X0175615Y0125879D01*
X0187236Y0137500D01*
X0187615Y0137879D01*
X0187615Y0118379D01*
X0188494Y0117500D01*
X0189115Y0116879D01*
X0189115Y0070758D01*
X0188360Y0070758D01*
X0187081Y0069479D01*
X0187081Y0070584D01*
X0184006Y0073659D01*
X0179657Y0073659D01*
X0176581Y0070584D01*
X0176581Y0066235D01*
X0179657Y0063159D01*
X0184006Y0063159D01*
X0187081Y0066235D01*
X0187081Y0067537D01*
X0188360Y0066258D01*
X0190224Y0066258D01*
X0191542Y0067576D01*
X0191542Y0069440D01*
X0190224Y0070758D01*
X0188360Y0070758D01*
X0187081Y0069479D01*
X0187081Y0070584D01*
X0184006Y0073659D01*
X0179657Y0073659D01*
X0176581Y0070584D01*
X0176581Y0066235D01*
X0179657Y0063159D01*
X0184006Y0063159D01*
X0187081Y0066235D01*
X0187081Y0067537D01*
X0188360Y0066258D01*
X0189115Y0066258D01*
X0189115Y0026933D01*
X0188917Y0026455D02*
X0188287Y0026455D01*
X0188917Y0026455D01*
X0188887Y0025457D02*
X0188287Y0025457D01*
X0188887Y0025457D01*
X0188910Y0024458D02*
X0188287Y0024458D01*
X0188910Y0024458D01*
X0189115Y0023460D02*
X0188287Y0023460D01*
X0189324Y0023460D01*
X0189115Y0022461D02*
X0188287Y0022461D01*
X0189928Y0022461D01*
X0189115Y0021463D02*
X0188287Y0021463D01*
X0190929Y0021463D01*
X0189115Y0016470D02*
X0139115Y0016470D01*
X0304115Y0016470D01*
X0304115Y0015472D02*
X0139115Y0015472D01*
X0189115Y0015472D01*
X0178887Y0021463D02*
X0139115Y0021463D01*
X0178887Y0021463D01*
X0178887Y0022461D02*
X0139115Y0022461D01*
X0178887Y0022461D01*
X0178887Y0023460D02*
X0139115Y0023460D01*
X0178887Y0023460D01*
X0178887Y0024458D02*
X0139115Y0024458D01*
X0178887Y0024458D01*
X0178887Y0025457D02*
X0139115Y0025457D01*
X0178887Y0025457D01*
X0178887Y0026455D02*
X0139115Y0026455D01*
X0178887Y0026455D01*
X0178887Y0027454D02*
X0139115Y0027454D01*
X0178887Y0027454D01*
X0178887Y0028452D02*
X0139115Y0028452D01*
X0178887Y0028452D01*
X0178887Y0029451D02*
X0139115Y0029451D01*
X0178887Y0029451D01*
X0189115Y0030449D02*
X0139115Y0030449D01*
X0139115Y0037439D02*
X0169050Y0037439D01*
X0139115Y0037439D01*
X0139115Y0038437D02*
X0169050Y0038437D01*
X0139115Y0038437D01*
X0139115Y0039436D02*
X0169400Y0039436D01*
X0139115Y0039436D01*
X0139115Y0040434D02*
X0304115Y0040434D01*
X0304115Y0039436D02*
X0173200Y0039436D01*
X0189115Y0039436D01*
X0189115Y0040434D02*
X0139115Y0040434D01*
X0139115Y0041433D02*
X0304115Y0041433D01*
X0304115Y0042432D02*
X0270728Y0042432D01*
X0271365Y0043068D02*
X0270047Y0041750D01*
X0268183Y0041750D01*
X0266865Y0043068D01*
X0266865Y0044932D01*
X0268183Y0046250D01*
X0270047Y0046250D01*
X0271365Y0044932D01*
X0271365Y0043068D01*
X0271365Y0043430D02*
X0304115Y0043430D01*
X0304115Y0044429D02*
X0271365Y0044429D01*
X0270870Y0045427D02*
X0304115Y0045427D01*
X0304115Y0046426D02*
X0139115Y0046426D01*
X0189115Y0046426D01*
X0189115Y0047424D02*
X0139115Y0047424D01*
X0304115Y0047424D01*
X0304115Y0048423D02*
X0139115Y0048423D01*
X0189115Y0048423D01*
X0189115Y0049421D02*
X0139115Y0049421D01*
X0304115Y0049421D01*
X0304115Y0050420D02*
X0139115Y0050420D01*
X0189115Y0050420D01*
X0189115Y0051418D02*
X0139115Y0051418D01*
X0304115Y0051418D01*
X0304115Y0052417D02*
X0139115Y0052417D01*
X0189115Y0052417D01*
X0189115Y0053415D02*
X0139115Y0053415D01*
X0304115Y0053415D01*
X0304115Y0054414D02*
X0139115Y0054414D01*
X0189115Y0054414D01*
X0189115Y0055412D02*
X0139115Y0055412D01*
X0304115Y0055412D01*
X0304115Y0056411D02*
X0139115Y0056411D01*
X0189115Y0056411D01*
X0189115Y0057409D02*
X0170706Y0057409D01*
X0304115Y0057409D01*
X0304115Y0058408D02*
X0171365Y0058408D01*
X0189115Y0058408D01*
X0189115Y0059406D02*
X0171365Y0059406D01*
X0304115Y0059406D01*
X0304115Y0060405D02*
X0170892Y0060405D01*
X0189115Y0060405D01*
X0189115Y0061403D02*
X0139115Y0061403D01*
X0300823Y0061403D01*
X0299824Y0062402D02*
X0168199Y0062402D01*
X0189115Y0062402D01*
X0189115Y0063400D02*
X0184247Y0063400D01*
X0298826Y0063400D01*
X0298333Y0064399D02*
X0247873Y0064399D01*
X0247744Y0064270D02*
X0249062Y0065588D01*
X0249062Y0067452D01*
X0247744Y0068770D01*
X0245880Y0068770D01*
X0244562Y0067452D01*
X0244562Y0065588D01*
X0245880Y0064270D01*
X0247744Y0064270D01*
X0248871Y0065397D02*
X0298333Y0065397D01*
X0298333Y0066396D02*
X0249062Y0066396D01*
X0249062Y0067394D02*
X0298333Y0067394D01*
X0298485Y0068393D02*
X0248121Y0068393D01*
X0245503Y0068393D02*
X0191542Y0068393D01*
X0191542Y0069391D02*
X0299483Y0069391D01*
X0300482Y0070390D02*
X0190592Y0070390D01*
X0189115Y0071388D02*
X0186277Y0071388D01*
X0304115Y0071388D01*
X0304115Y0072387D02*
X0185279Y0072387D01*
X0189115Y0072387D01*
X0189115Y0073385D02*
X0184280Y0073385D01*
X0304115Y0073385D01*
X0304115Y0074384D02*
X0171620Y0074384D01*
X0189115Y0074384D01*
X0189115Y0075382D02*
X0172619Y0075382D01*
X0304115Y0075382D01*
X0304115Y0076381D02*
X0173617Y0076381D01*
X0189115Y0076381D01*
X0189115Y0077379D02*
X0174616Y0077379D01*
X0240054Y0077379D01*
X0240683Y0076750D02*
X0242547Y0076750D01*
X0243865Y0078068D01*
X0243865Y0079932D01*
X0242547Y0081250D01*
X0240683Y0081250D01*
X0239365Y0079932D01*
X0239365Y0078068D01*
X0240683Y0076750D01*
X0239365Y0078378D02*
X0175614Y0078378D01*
X0189115Y0078378D01*
X0189115Y0079376D02*
X0175615Y0079376D01*
X0239365Y0079376D01*
X0239808Y0080375D02*
X0175615Y0080375D01*
X0189115Y0080375D01*
X0189115Y0081373D02*
X0175615Y0081373D01*
X0301817Y0081373D01*
X0301365Y0082372D02*
X0175615Y0082372D01*
X0189115Y0082372D01*
X0189115Y0083370D02*
X0175615Y0083370D01*
X0301365Y0083370D01*
X0301365Y0084369D02*
X0175615Y0084369D01*
X0189115Y0084369D01*
X0189115Y0085368D02*
X0175615Y0085368D01*
X0301365Y0085368D01*
X0301556Y0086366D02*
X0175615Y0086366D01*
X0189115Y0086366D01*
X0189115Y0087365D02*
X0175615Y0087365D01*
X0302555Y0087365D01*
X0303553Y0088363D02*
X0175615Y0088363D01*
X0189115Y0088363D01*
X0189115Y0089362D02*
X0175615Y0089362D01*
X0303829Y0089362D01*
X0302830Y0090360D02*
X0175615Y0090360D01*
X0189115Y0090360D01*
X0189115Y0091359D02*
X0175615Y0091359D01*
X0301832Y0091359D01*
X0301365Y0092357D02*
X0175615Y0092357D01*
X0189115Y0092357D01*
X0189115Y0093356D02*
X0175615Y0093356D01*
X0237638Y0093356D01*
X0239115Y0094000D02*
X0236615Y0096500D01*
X0234365Y0096351D02*
X0175615Y0096351D01*
X0189115Y0096351D01*
X0189115Y0095353D02*
X0175615Y0095353D01*
X0234580Y0095353D01*
X0235579Y0094354D02*
X0175615Y0094354D01*
X0189115Y0094354D01*
X0189115Y0097350D02*
X0175615Y0097350D01*
X0234365Y0097350D01*
X0235281Y0098348D02*
X0175615Y0098348D01*
X0189115Y0098348D01*
X0189115Y0099347D02*
X0175615Y0099347D01*
X0235586Y0099347D01*
X0234588Y0100345D02*
X0175615Y0100345D01*
X0189115Y0100345D01*
X0189115Y0101344D02*
X0175615Y0101344D01*
X0234365Y0101344D01*
X0234365Y0102342D02*
X0175615Y0102342D01*
X0189115Y0102342D01*
X0189115Y0103341D02*
X0175615Y0103341D01*
X0235274Y0103341D01*
X0236615Y0101500D02*
X0241615Y0096500D01*
X0294115Y0096500D01*
X0296615Y0099000D01*
X0296615Y0111500D01*
X0299115Y0114000D01*
X0314115Y0114000D01*
X0316615Y0116500D01*
X0316615Y0121500D01*
X0320615Y0125500D01*
X0323615Y0125500D01*
X0314115Y0126000D02*
X0314115Y0119000D01*
X0311615Y0116500D01*
X0296615Y0116500D01*
X0294115Y0114000D01*
X0294115Y0101500D01*
X0291615Y0099000D01*
X0246615Y0099000D01*
X0234115Y0111500D01*
X0231865Y0111329D02*
X0198907Y0111329D01*
X0197909Y0112327D02*
X0231865Y0112327D01*
X0232759Y0113326D02*
X0196910Y0113326D01*
X0195912Y0114324D02*
X0254072Y0114324D01*
X0254072Y0113326D02*
X0235471Y0113326D01*
X0236365Y0112327D02*
X0254072Y0112327D01*
X0254072Y0111329D02*
X0236407Y0111329D01*
X0237406Y0110330D02*
X0253322Y0110330D01*
X0253322Y0109332D02*
X0238404Y0109332D01*
X0239403Y0108333D02*
X0253686Y0108333D01*
X0255572Y0109630D02*
X0255572Y0120457D01*
X0259115Y0124000D01*
X0259115Y0174000D01*
X0261615Y0176500D01*
X0279115Y0176500D01*
X0281615Y0179000D01*
X0281615Y0201500D01*
X0284115Y0204000D01*
X0392115Y0204000D01*
X0403615Y0215500D01*
X0373615Y0215500D02*
X0364615Y0206500D01*
X0271615Y0206500D01*
X0266615Y0201500D01*
X0191615Y0201500D01*
X0189115Y0199000D01*
X0189115Y0119000D01*
X0201615Y0106500D01*
X0203865Y0106336D02*
X0237157Y0106336D01*
X0236159Y0107335D02*
X0203865Y0107335D01*
X0202964Y0108333D02*
X0235160Y0108333D01*
X0233101Y0109332D02*
X0200904Y0109332D01*
X0199906Y0110330D02*
X0232103Y0110330D01*
X0238156Y0105338D02*
X0203635Y0105338D01*
X0202636Y0104339D02*
X0239154Y0104339D01*
X0240153Y0103341D02*
X0237956Y0103341D01*
X0238865Y0102342D02*
X0241151Y0102342D01*
X0242150Y0101344D02*
X0238893Y0101344D01*
X0239891Y0100345D02*
X0243148Y0100345D01*
X0244147Y0099347D02*
X0240890Y0099347D01*
X0241888Y0098348D02*
X0245145Y0098348D01*
X0246393Y0101344D02*
X0263826Y0101344D01*
X0263558Y0102342D02*
X0245394Y0102342D01*
X0244396Y0103341D02*
X0263558Y0103341D01*
X0264422Y0104339D02*
X0243397Y0104339D01*
X0242399Y0105338D02*
X0292615Y0105338D01*
X0292615Y0106336D02*
X0241400Y0106336D01*
X0240402Y0107335D02*
X0292615Y0107335D01*
X0292615Y0108333D02*
X0261788Y0108333D01*
X0262152Y0109332D02*
X0292615Y0109332D01*
X0292615Y0110330D02*
X0283135Y0110330D01*
X0282882Y0110077D02*
X0284200Y0111395D01*
X0284200Y0113259D01*
X0283450Y0114009D01*
X0283450Y0138598D01*
X0270814Y0151234D01*
X0270814Y0151491D01*
X0280701Y0161378D01*
X0293353Y0161378D01*
X0293353Y0160703D01*
X0296429Y0157628D01*
X0300778Y0157628D01*
X0303853Y0160703D01*
X0303853Y0165053D01*
X0300778Y0168128D01*
X0296429Y0168128D01*
X0293353Y0165053D01*
X0293353Y0164378D01*
X0279458Y0164378D01*
X0268692Y0153612D01*
X0267632Y0153612D01*
X0266314Y0152294D01*
X0266314Y0150430D01*
X0267632Y0149112D01*
X0268692Y0149112D01*
X0280450Y0137355D01*
X0280450Y0114009D01*
X0279700Y0113259D01*
X0279700Y0111395D01*
X0281018Y0110077D01*
X0282882Y0110077D01*
X0284134Y0111329D02*
X0292615Y0111329D01*
X0292615Y0112327D02*
X0284200Y0112327D01*
X0284133Y0113326D02*
X0292615Y0113326D01*
X0292615Y0114324D02*
X0283450Y0114324D01*
X0283450Y0115323D02*
X0293316Y0115323D01*
X0294315Y0116321D02*
X0283450Y0116321D01*
X0283450Y0117320D02*
X0295314Y0117320D01*
X0301615Y0111500D02*
X0309115Y0111500D01*
X0314115Y0106500D01*
X0316615Y0109000D01*
X0336615Y0109000D01*
X0339115Y0111500D01*
X0339115Y0121500D01*
X0335115Y0125500D01*
X0333615Y0125500D01*
X0342615Y0125308D02*
X0460636Y0125308D01*
X0460636Y0126306D02*
X0448111Y0126306D01*
X0447557Y0125753D02*
X0449724Y0127920D01*
X0449724Y0130985D01*
X0447557Y0133153D01*
X0444492Y0133153D01*
X0442324Y0130985D01*
X0442324Y0127920D01*
X0444492Y0125753D01*
X0447557Y0125753D01*
X0449109Y0127305D02*
X0460636Y0127305D01*
X0460636Y0128303D02*
X0449724Y0128303D01*
X0449724Y0129302D02*
X0460636Y0129302D01*
X0460636Y0130301D02*
X0449724Y0130301D01*
X0449411Y0131299D02*
X0460636Y0131299D01*
X0460636Y0132298D02*
X0448412Y0132298D01*
X0443637Y0132298D02*
X0438412Y0132298D01*
X0437557Y0133153D02*
X0434492Y0133153D01*
X0432324Y0130985D01*
X0432324Y0127920D01*
X0434492Y0125753D01*
X0437557Y0125753D01*
X0439724Y0127920D01*
X0439724Y0130985D01*
X0437557Y0133153D01*
X0439411Y0131299D02*
X0442638Y0131299D01*
X0442324Y0130301D02*
X0439724Y0130301D01*
X0439724Y0129302D02*
X0442324Y0129302D01*
X0442324Y0128303D02*
X0439724Y0128303D01*
X0439109Y0127305D02*
X0442940Y0127305D01*
X0443938Y0126306D02*
X0438111Y0126306D01*
X0437557Y0123153D02*
X0434492Y0123153D01*
X0432324Y0120985D01*
X0432324Y0117920D01*
X0434492Y0115753D01*
X0437557Y0115753D01*
X0439724Y0117920D01*
X0439724Y0120985D01*
X0437557Y0123153D01*
X0438397Y0122312D02*
X0443652Y0122312D01*
X0444492Y0123153D02*
X0442324Y0120985D01*
X0442324Y0117920D01*
X0444492Y0115753D01*
X0447557Y0115753D01*
X0449724Y0117920D01*
X0449724Y0120985D01*
X0447557Y0123153D01*
X0444492Y0123153D01*
X0442653Y0121314D02*
X0439396Y0121314D01*
X0439724Y0120315D02*
X0442324Y0120315D01*
X0442324Y0119317D02*
X0439724Y0119317D01*
X0439724Y0118318D02*
X0442324Y0118318D01*
X0442925Y0117320D02*
X0439124Y0117320D01*
X0438126Y0116321D02*
X0443923Y0116321D01*
X0444492Y0113153D02*
X0442324Y0110985D01*
X0442324Y0107920D01*
X0444492Y0105753D01*
X0447557Y0105753D01*
X0449724Y0107920D01*
X0449724Y0110985D01*
X0447557Y0113153D01*
X0444492Y0113153D01*
X0443666Y0112327D02*
X0438382Y0112327D01*
X0437557Y0113153D02*
X0434492Y0113153D01*
X0432324Y0110985D01*
X0432324Y0107920D01*
X0434492Y0105753D01*
X0437557Y0105753D01*
X0439724Y0107920D01*
X0439724Y0110985D01*
X0437557Y0113153D01*
X0439381Y0111329D02*
X0442668Y0111329D01*
X0442324Y0110330D02*
X0439724Y0110330D01*
X0439724Y0109332D02*
X0442324Y0109332D01*
X0442324Y0108333D02*
X0439724Y0108333D01*
X0439139Y0107335D02*
X0442910Y0107335D01*
X0443908Y0106336D02*
X0438140Y0106336D01*
X0433908Y0106336D02*
X0349615Y0106336D01*
X0349615Y0106000D02*
X0349615Y0107000D01*
X0354865Y0107000D01*
X0354865Y0108882D01*
X0351497Y0112250D01*
X0349615Y0112250D01*
X0349615Y0107000D01*
X0348615Y0107000D01*
X0348615Y0112250D01*
X0346733Y0112250D01*
X0343365Y0108882D01*
X0343365Y0107000D01*
X0348615Y0107000D01*
X0348615Y0106000D01*
X0343365Y0106000D01*
X0343365Y0104118D01*
X0346337Y0101146D01*
X0343865Y0098675D01*
X0343865Y0094325D01*
X0346690Y0091500D01*
X0343865Y0088675D01*
X0343865Y0084325D01*
X0346940Y0081250D01*
X0351290Y0081250D01*
X0354365Y0084325D01*
X0354365Y0088675D01*
X0351540Y0091500D01*
X0354365Y0094325D01*
X0354365Y0098675D01*
X0351893Y0101146D01*
X0354865Y0104118D01*
X0354865Y0106000D01*
X0349615Y0106000D01*
X0349115Y0106500D02*
X0361615Y0106500D01*
X0384115Y0129000D01*
X0389115Y0124000D01*
X0389115Y0039000D01*
X0390887Y0037228D01*
X0394528Y0037228D01*
X0394028Y0037439D02*
X0378828Y0037439D01*
X0378828Y0038084D02*
X0378828Y0036373D01*
X0378174Y0034793D01*
X0376964Y0033583D01*
X0375384Y0032928D01*
X0373673Y0032928D01*
X0372093Y0033583D01*
X0370883Y0034793D01*
X0370228Y0036373D01*
X0370228Y0038084D01*
X0370883Y0039664D01*
X0372093Y0040874D01*
X0373673Y0041528D01*
X0375384Y0041528D01*
X0376964Y0040874D01*
X0378174Y0039664D01*
X0378828Y0038084D01*
X0378682Y0038437D02*
X0389874Y0038437D01*
X0389847Y0038352D02*
X0389748Y0037728D01*
X0394028Y0037728D01*
X0394028Y0036728D01*
X0395028Y0036728D01*
X0395028Y0032448D01*
X0395652Y0032547D01*
X0396371Y0032780D01*
X0397044Y0033123D01*
X0397655Y0033567D01*
X0398190Y0034101D01*
X0398634Y0034713D01*
X0398977Y0035386D01*
X0399210Y0036104D01*
X0399309Y0036728D01*
X0395028Y0036728D01*
X0395028Y0037728D01*
X0399309Y0037728D01*
X0399210Y0038352D01*
X0398977Y0039071D01*
X0398634Y0039744D01*
X0398190Y0040355D01*
X0397655Y0040890D01*
X0397044Y0041334D01*
X0396371Y0041677D01*
X0395652Y0041910D01*
X0395028Y0042009D01*
X0395028Y0037728D01*
X0394028Y0037728D01*
X0394028Y0042009D01*
X0393404Y0041910D01*
X0392686Y0041677D01*
X0392013Y0041334D01*
X0391401Y0040890D01*
X0390867Y0040355D01*
X0390423Y0039744D01*
X0390080Y0039071D01*
X0389847Y0038352D01*
X0390266Y0039436D02*
X0378268Y0039436D01*
X0377403Y0040434D02*
X0390946Y0040434D01*
X0392208Y0041433D02*
X0375614Y0041433D01*
X0375384Y0042928D02*
X0376964Y0043583D01*
X0378174Y0044793D01*
X0378828Y0046373D01*
X0378828Y0048084D01*
X0378174Y0049664D01*
X0376964Y0050874D01*
X0375384Y0051528D01*
X0373673Y0051528D01*
X0372093Y0050874D01*
X0370883Y0049664D01*
X0370228Y0048084D01*
X0370228Y0046373D01*
X0370883Y0044793D01*
X0372093Y0043583D01*
X0373673Y0042928D01*
X0375384Y0042928D01*
X0376595Y0043430D02*
X0392462Y0043430D01*
X0392093Y0043583D02*
X0393673Y0042928D01*
X0395384Y0042928D01*
X0396964Y0043583D01*
X0398174Y0044793D01*
X0398828Y0046373D01*
X0398828Y0048084D01*
X0398174Y0049664D01*
X0396964Y0050874D01*
X0395384Y0051528D01*
X0393673Y0051528D01*
X0392093Y0050874D01*
X0390883Y0049664D01*
X0390228Y0048084D01*
X0390228Y0046373D01*
X0390883Y0044793D01*
X0392093Y0043583D01*
X0391247Y0044429D02*
X0377810Y0044429D01*
X0378436Y0045427D02*
X0390620Y0045427D01*
X0390228Y0046426D02*
X0378828Y0046426D01*
X0378828Y0047424D02*
X0390228Y0047424D01*
X0390369Y0048423D02*
X0378688Y0048423D01*
X0378274Y0049421D02*
X0390782Y0049421D01*
X0391638Y0050420D02*
X0377418Y0050420D01*
X0375650Y0051418D02*
X0393407Y0051418D01*
X0395650Y0051418D02*
X0448672Y0051418D01*
X0449167Y0050923D02*
X0447849Y0052241D01*
X0447849Y0054105D01*
X0449167Y0055423D01*
X0451031Y0055423D01*
X0452349Y0054105D01*
X0452349Y0052241D01*
X0451031Y0050923D01*
X0449167Y0050923D01*
X0447849Y0052417D02*
X0324115Y0052417D01*
X0324115Y0053415D02*
X0447849Y0053415D01*
X0448158Y0054414D02*
X0324115Y0054414D01*
X0324115Y0055412D02*
X0449156Y0055412D01*
X0451042Y0055412D02*
X0460636Y0055412D01*
X0460636Y0054414D02*
X0452041Y0054414D01*
X0452349Y0053415D02*
X0460636Y0053415D01*
X0460636Y0052417D02*
X0452349Y0052417D01*
X0451526Y0051418D02*
X0460636Y0051418D01*
X0460636Y0050420D02*
X0397418Y0050420D01*
X0398274Y0049421D02*
X0460636Y0049421D01*
X0460636Y0048423D02*
X0398688Y0048423D01*
X0398828Y0047424D02*
X0460636Y0047424D01*
X0460636Y0046426D02*
X0398828Y0046426D01*
X0398436Y0045427D02*
X0460636Y0045427D01*
X0460636Y0044429D02*
X0397810Y0044429D01*
X0396595Y0043430D02*
X0460636Y0043430D01*
X0460636Y0042432D02*
X0324115Y0042432D01*
X0324115Y0043430D02*
X0372462Y0043430D01*
X0371247Y0044429D02*
X0324115Y0044429D01*
X0324115Y0045427D02*
X0370620Y0045427D01*
X0370228Y0046426D02*
X0324115Y0046426D01*
X0324115Y0047424D02*
X0370228Y0047424D01*
X0370369Y0048423D02*
X0324115Y0048423D01*
X0324115Y0049421D02*
X0370782Y0049421D01*
X0371638Y0050420D02*
X0324115Y0050420D01*
X0324115Y0051418D02*
X0373407Y0051418D01*
X0373443Y0041433D02*
X0324115Y0041433D01*
X0324115Y0040434D02*
X0371653Y0040434D01*
X0370789Y0039436D02*
X0324115Y0039436D01*
X0324115Y0038437D02*
X0370375Y0038437D01*
X0370228Y0037439D02*
X0324115Y0037439D01*
X0324115Y0036440D02*
X0370228Y0036440D01*
X0370614Y0035442D02*
X0324115Y0035442D01*
X0324115Y0034443D02*
X0371232Y0034443D01*
X0372426Y0033445D02*
X0324115Y0033445D01*
X0324115Y0032446D02*
X0460636Y0032446D01*
X0460636Y0031448D02*
X0395578Y0031448D01*
X0395384Y0031528D02*
X0393673Y0031528D01*
X0392093Y0030874D01*
X0390883Y0029664D01*
X0390228Y0028084D01*
X0390228Y0026373D01*
X0390883Y0024793D01*
X0392093Y0023583D01*
X0393673Y0022928D01*
X0395384Y0022928D01*
X0396964Y0023583D01*
X0398174Y0024793D01*
X0398828Y0026373D01*
X0398828Y0028084D01*
X0398174Y0029664D01*
X0396964Y0030874D01*
X0395384Y0031528D01*
X0394028Y0032448D02*
X0394028Y0036728D01*
X0389748Y0036728D01*
X0389847Y0036104D01*
X0390080Y0035386D01*
X0390423Y0034713D01*
X0390867Y0034101D01*
X0391401Y0033567D01*
X0392013Y0033123D01*
X0392686Y0032780D01*
X0393404Y0032547D01*
X0394028Y0032448D01*
X0394028Y0033445D02*
X0395028Y0033445D01*
X0395028Y0034443D02*
X0394028Y0034443D01*
X0394028Y0035442D02*
X0395028Y0035442D01*
X0395028Y0036440D02*
X0394028Y0036440D01*
X0395028Y0037439D02*
X0460636Y0037439D01*
X0460636Y0038437D02*
X0399182Y0038437D01*
X0398791Y0039436D02*
X0460636Y0039436D01*
X0460636Y0040434D02*
X0398110Y0040434D01*
X0396849Y0041433D02*
X0460636Y0041433D01*
X0460636Y0036440D02*
X0399263Y0036440D01*
X0398995Y0035442D02*
X0460636Y0035442D01*
X0460636Y0034443D02*
X0398438Y0034443D01*
X0397487Y0033445D02*
X0460636Y0033445D01*
X0460636Y0030449D02*
X0397388Y0030449D01*
X0398262Y0029451D02*
X0460636Y0029451D01*
X0460636Y0028452D02*
X0398676Y0028452D01*
X0398828Y0027454D02*
X0460636Y0027454D01*
X0460636Y0026455D02*
X0398828Y0026455D01*
X0398449Y0025457D02*
X0460636Y0025457D01*
X0460636Y0024458D02*
X0397839Y0024458D01*
X0396667Y0023460D02*
X0460636Y0023460D01*
X0460636Y0022461D02*
X0324115Y0022461D01*
X0324115Y0021463D02*
X0460636Y0021463D01*
X0460636Y0020464D02*
X0324115Y0020464D01*
X0324115Y0019466D02*
X0460636Y0019466D01*
X0460636Y0018467D02*
X0324115Y0018467D01*
X0324115Y0017469D02*
X0460636Y0017469D01*
X0460636Y0016470D02*
X0324115Y0016470D01*
X0324115Y0015472D02*
X0460636Y0015472D01*
X0460636Y0014900D02*
X0324115Y0014900D01*
X0324115Y0105500D01*
X0342029Y0105500D01*
X0342615Y0106086D01*
X0342615Y0141914D01*
X0342029Y0142500D01*
X0324115Y0142500D01*
X0324115Y0194000D01*
X0460636Y0194000D01*
X0460636Y0014900D01*
X0392390Y0023460D02*
X0376667Y0023460D01*
X0376964Y0023583D02*
X0378174Y0024793D01*
X0378828Y0026373D01*
X0378828Y0028084D01*
X0378174Y0029664D01*
X0376964Y0030874D01*
X0375384Y0031528D01*
X0373673Y0031528D01*
X0372093Y0030874D01*
X0370883Y0029664D01*
X0370228Y0028084D01*
X0370228Y0026373D01*
X0370883Y0024793D01*
X0372093Y0023583D01*
X0373673Y0022928D01*
X0375384Y0022928D01*
X0376964Y0023583D01*
X0377839Y0024458D02*
X0391217Y0024458D01*
X0390608Y0025457D02*
X0378449Y0025457D01*
X0378828Y0026455D02*
X0390228Y0026455D01*
X0390228Y0027454D02*
X0378828Y0027454D01*
X0378676Y0028452D02*
X0390381Y0028452D01*
X0390795Y0029451D02*
X0378262Y0029451D01*
X0377388Y0030449D02*
X0391668Y0030449D01*
X0393479Y0031448D02*
X0375578Y0031448D01*
X0373479Y0031448D02*
X0324115Y0031448D01*
X0324115Y0030449D02*
X0371668Y0030449D01*
X0370795Y0029451D02*
X0324115Y0029451D01*
X0324115Y0028452D02*
X0370381Y0028452D01*
X0370228Y0027454D02*
X0324115Y0027454D01*
X0324115Y0026455D02*
X0370228Y0026455D01*
X0370608Y0025457D02*
X0324115Y0025457D01*
X0324115Y0024458D02*
X0371217Y0024458D01*
X0372390Y0023460D02*
X0324115Y0023460D01*
X0304115Y0022461D02*
X0297365Y0022461D01*
X0297209Y0021463D02*
X0304115Y0021463D01*
X0304115Y0020464D02*
X0296211Y0020464D01*
X0295212Y0019466D02*
X0304115Y0019466D01*
X0292115Y0025457D02*
X0291115Y0025457D01*
X0291115Y0026455D02*
X0292115Y0026455D01*
X0292115Y0027454D02*
X0291115Y0027454D01*
X0291115Y0028452D02*
X0292115Y0028452D01*
X0292115Y0029451D02*
X0291115Y0029451D01*
X0286937Y0027454D02*
X0285586Y0027454D01*
X0304115Y0037439D02*
X0173550Y0037439D01*
X0189115Y0037439D01*
X0189115Y0038437D02*
X0173550Y0038437D01*
X0304115Y0038437D01*
X0324115Y0056411D02*
X0460636Y0056411D01*
X0460636Y0057409D02*
X0445898Y0057409D01*
X0446381Y0057609D02*
X0447506Y0058734D01*
X0448115Y0060204D01*
X0448115Y0067796D01*
X0447506Y0069266D01*
X0446381Y0070391D01*
X0444911Y0071000D01*
X0443319Y0071000D01*
X0441849Y0070391D01*
X0440724Y0069266D01*
X0440115Y0067796D01*
X0440115Y0060204D01*
X0440724Y0058734D01*
X0441849Y0057609D01*
X0443319Y0057000D01*
X0444911Y0057000D01*
X0446381Y0057609D01*
X0447180Y0058408D02*
X0460636Y0058408D01*
X0460636Y0059406D02*
X0447784Y0059406D01*
X0448115Y0060405D02*
X0460636Y0060405D01*
X0460636Y0061403D02*
X0448115Y0061403D01*
X0448115Y0062402D02*
X0460636Y0062402D01*
X0460636Y0063400D02*
X0448115Y0063400D01*
X0448115Y0064399D02*
X0460636Y0064399D01*
X0460636Y0065397D02*
X0448115Y0065397D01*
X0448115Y0066396D02*
X0460636Y0066396D01*
X0460636Y0067394D02*
X0448115Y0067394D01*
X0447868Y0068393D02*
X0460636Y0068393D01*
X0460636Y0069391D02*
X0447380Y0069391D01*
X0446382Y0070390D02*
X0460636Y0070390D01*
X0460636Y0071388D02*
X0324115Y0071388D01*
X0324115Y0070390D02*
X0326848Y0070390D01*
X0326849Y0070391D02*
X0325724Y0069266D01*
X0325115Y0067796D01*
X0325115Y0060204D01*
X0325724Y0058734D01*
X0326849Y0057609D01*
X0328319Y0057000D01*
X0329911Y0057000D01*
X0331381Y0057609D01*
X0332506Y0058734D01*
X0333115Y0060204D01*
X0333115Y0067796D01*
X0332506Y0069266D01*
X0331381Y0070391D01*
X0329911Y0071000D01*
X0328319Y0071000D01*
X0326849Y0070391D01*
X0325849Y0069391D02*
X0324115Y0069391D01*
X0324115Y0068393D02*
X0325362Y0068393D01*
X0325115Y0067394D02*
X0324115Y0067394D01*
X0324115Y0066396D02*
X0325115Y0066396D01*
X0325115Y0065397D02*
X0324115Y0065397D01*
X0324115Y0064399D02*
X0325115Y0064399D01*
X0325115Y0063400D02*
X0324115Y0063400D01*
X0324115Y0062402D02*
X0325115Y0062402D01*
X0325115Y0061403D02*
X0324115Y0061403D01*
X0324115Y0060405D02*
X0325115Y0060405D01*
X0325446Y0059406D02*
X0324115Y0059406D01*
X0324115Y0058408D02*
X0326050Y0058408D01*
X0327331Y0057409D02*
X0324115Y0057409D01*
X0330898Y0057409D02*
X0337331Y0057409D01*
X0336849Y0057609D02*
X0338319Y0057000D01*
X0339911Y0057000D01*
X0341381Y0057609D01*
X0342506Y0058734D01*
X0343115Y0060204D01*
X0343115Y0067796D01*
X0342506Y0069266D01*
X0341381Y0070391D01*
X0339911Y0071000D01*
X0338319Y0071000D01*
X0336849Y0070391D01*
X0335724Y0069266D01*
X0335115Y0067796D01*
X0335115Y0060204D01*
X0335724Y0058734D01*
X0336849Y0057609D01*
X0336050Y0058408D02*
X0332180Y0058408D01*
X0332784Y0059406D02*
X0335446Y0059406D01*
X0335115Y0060405D02*
X0333115Y0060405D01*
X0333115Y0061403D02*
X0335115Y0061403D01*
X0335115Y0062402D02*
X0333115Y0062402D01*
X0333115Y0063400D02*
X0335115Y0063400D01*
X0335115Y0064399D02*
X0333115Y0064399D01*
X0333115Y0065397D02*
X0335115Y0065397D01*
X0335115Y0066396D02*
X0333115Y0066396D01*
X0333115Y0067394D02*
X0335115Y0067394D01*
X0335362Y0068393D02*
X0332868Y0068393D01*
X0332380Y0069391D02*
X0335849Y0069391D01*
X0336848Y0070390D02*
X0331382Y0070390D01*
X0324115Y0072387D02*
X0460636Y0072387D01*
X0460636Y0073385D02*
X0324115Y0073385D01*
X0324115Y0074384D02*
X0327321Y0074384D01*
X0326963Y0074741D02*
X0328281Y0073423D01*
X0330145Y0073423D01*
X0331463Y0074741D01*
X0331463Y0076605D01*
X0330145Y0077923D01*
X0328281Y0077923D01*
X0326963Y0076605D01*
X0326963Y0074741D01*
X0326963Y0075382D02*
X0324115Y0075382D01*
X0324115Y0076381D02*
X0326963Y0076381D01*
X0327738Y0077379D02*
X0324115Y0077379D01*
X0324115Y0078378D02*
X0396452Y0078378D01*
X0396452Y0079204D02*
X0396452Y0077340D01*
X0397770Y0076022D01*
X0399634Y0076022D01*
X0400952Y0077340D01*
X0400952Y0079204D01*
X0399634Y0080522D01*
X0397770Y0080522D01*
X0396452Y0079204D01*
X0396624Y0079376D02*
X0324115Y0079376D01*
X0324115Y0080375D02*
X0397623Y0080375D01*
X0399780Y0080375D02*
X0460636Y0080375D01*
X0460636Y0081373D02*
X0351413Y0081373D01*
X0352412Y0082372D02*
X0460636Y0082372D01*
X0460636Y0083370D02*
X0353410Y0083370D01*
X0354365Y0084369D02*
X0460636Y0084369D01*
X0460636Y0085368D02*
X0354365Y0085368D01*
X0354365Y0086366D02*
X0460636Y0086366D01*
X0460636Y0087365D02*
X0354365Y0087365D01*
X0354365Y0088363D02*
X0460636Y0088363D01*
X0460636Y0089362D02*
X0449401Y0089362D01*
X0448790Y0088750D02*
X0451865Y0091825D01*
X0451865Y0096175D01*
X0448790Y0099250D01*
X0444440Y0099250D01*
X0441615Y0096425D01*
X0438790Y0099250D01*
X0434440Y0099250D01*
X0431365Y0096175D01*
X0431365Y0091825D01*
X0434440Y0088750D01*
X0438790Y0088750D01*
X0441615Y0091575D01*
X0444440Y0088750D01*
X0448790Y0088750D01*
X0450400Y0090360D02*
X0460636Y0090360D01*
X0460636Y0091359D02*
X0451398Y0091359D01*
X0451865Y0092357D02*
X0460636Y0092357D01*
X0460636Y0093356D02*
X0451865Y0093356D01*
X0451865Y0094354D02*
X0460636Y0094354D01*
X0460636Y0095353D02*
X0451865Y0095353D01*
X0451688Y0096351D02*
X0460636Y0096351D01*
X0460636Y0097350D02*
X0450690Y0097350D01*
X0449691Y0098348D02*
X0460636Y0098348D01*
X0460636Y0099347D02*
X0363944Y0099347D01*
X0363944Y0100070D02*
X0362626Y0101388D01*
X0360762Y0101388D01*
X0359444Y0100070D01*
X0359444Y0098206D01*
X0360762Y0096888D01*
X0362626Y0096888D01*
X0363944Y0098206D01*
X0363944Y0100070D01*
X0363668Y0100345D02*
X0460636Y0100345D01*
X0460636Y0101344D02*
X0362670Y0101344D01*
X0360718Y0101344D02*
X0352090Y0101344D01*
X0352694Y0100345D02*
X0359719Y0100345D01*
X0359444Y0099347D02*
X0353693Y0099347D01*
X0354365Y0098348D02*
X0359444Y0098348D01*
X0360300Y0097350D02*
X0354365Y0097350D01*
X0354365Y0096351D02*
X0431541Y0096351D01*
X0431365Y0095353D02*
X0354365Y0095353D01*
X0354365Y0094354D02*
X0431365Y0094354D01*
X0431365Y0093356D02*
X0353395Y0093356D01*
X0352397Y0092357D02*
X0431365Y0092357D01*
X0431832Y0091359D02*
X0351681Y0091359D01*
X0352679Y0090360D02*
X0432830Y0090360D01*
X0433829Y0089362D02*
X0353678Y0089362D01*
X0346549Y0091359D02*
X0324115Y0091359D01*
X0324115Y0092357D02*
X0345833Y0092357D01*
X0344835Y0093356D02*
X0324115Y0093356D01*
X0324115Y0094354D02*
X0343865Y0094354D01*
X0343865Y0095353D02*
X0324115Y0095353D01*
X0324115Y0096351D02*
X0343865Y0096351D01*
X0343865Y0097350D02*
X0324115Y0097350D01*
X0324115Y0098348D02*
X0343865Y0098348D01*
X0344537Y0099347D02*
X0324115Y0099347D01*
X0324115Y0100345D02*
X0345536Y0100345D01*
X0346140Y0101344D02*
X0324115Y0101344D01*
X0324115Y0102342D02*
X0345141Y0102342D01*
X0344143Y0103341D02*
X0324115Y0103341D01*
X0324115Y0104339D02*
X0343365Y0104339D01*
X0343365Y0105338D02*
X0324115Y0105338D01*
X0314115Y0106500D02*
X0314115Y0089000D01*
X0309115Y0084000D01*
X0306615Y0084000D01*
X0302815Y0080375D02*
X0243422Y0080375D01*
X0243865Y0079376D02*
X0303814Y0079376D01*
X0304115Y0078378D02*
X0243865Y0078378D01*
X0243176Y0077379D02*
X0304115Y0077379D01*
X0324115Y0081373D02*
X0346817Y0081373D01*
X0345818Y0082372D02*
X0324115Y0082372D01*
X0324115Y0083370D02*
X0344820Y0083370D01*
X0343865Y0084369D02*
X0324115Y0084369D01*
X0324115Y0085368D02*
X0343865Y0085368D01*
X0343865Y0086366D02*
X0324115Y0086366D01*
X0324115Y0087365D02*
X0343865Y0087365D01*
X0343865Y0088363D02*
X0324115Y0088363D01*
X0324115Y0089362D02*
X0344552Y0089362D01*
X0345550Y0090360D02*
X0324115Y0090360D01*
X0303539Y0098348D02*
X0300615Y0098348D01*
X0300615Y0097350D02*
X0302540Y0097350D01*
X0301541Y0096351D02*
X0300615Y0096351D01*
X0300089Y0095353D02*
X0301365Y0095353D01*
X0301365Y0094354D02*
X0299090Y0094354D01*
X0298092Y0093356D02*
X0301365Y0093356D01*
X0299115Y0096500D02*
X0296615Y0094000D01*
X0239115Y0094000D01*
X0257457Y0108333D02*
X0258017Y0108333D01*
X0259902Y0109630D02*
X0264115Y0113843D01*
X0264115Y0169000D01*
X0266615Y0171500D01*
X0284115Y0171500D01*
X0286615Y0174000D01*
X0286615Y0196500D01*
X0289115Y0199000D01*
X0306615Y0199000D01*
X0309115Y0201500D01*
X0304115Y0201500D02*
X0286615Y0201500D01*
X0284115Y0199000D01*
X0284115Y0176500D01*
X0281615Y0174000D01*
X0264115Y0174000D01*
X0261615Y0171500D01*
X0261615Y0119217D01*
X0261083Y0118685D01*
X0265615Y0118318D02*
X0280450Y0118318D01*
X0280450Y0117320D02*
X0265615Y0117320D01*
X0265615Y0116321D02*
X0280450Y0116321D01*
X0280450Y0115323D02*
X0265615Y0115323D01*
X0265615Y0114324D02*
X0280450Y0114324D01*
X0279767Y0113326D02*
X0265615Y0113326D01*
X0264721Y0112327D02*
X0279700Y0112327D01*
X0279766Y0111329D02*
X0263723Y0111329D01*
X0262724Y0110330D02*
X0280764Y0110330D01*
X0281950Y0112327D02*
X0281950Y0137976D01*
X0268564Y0151362D01*
X0280080Y0162878D01*
X0298603Y0162878D01*
X0303853Y0163251D02*
X0304115Y0163251D01*
X0304115Y0162253D02*
X0303853Y0162253D01*
X0303853Y0161254D02*
X0304115Y0161254D01*
X0304115Y0160256D02*
X0303406Y0160256D01*
X0304115Y0159257D02*
X0302407Y0159257D01*
X0301409Y0158259D02*
X0304115Y0158259D01*
X0304115Y0157260D02*
X0276583Y0157260D01*
X0275585Y0156262D02*
X0304115Y0156262D01*
X0304115Y0155263D02*
X0274586Y0155263D01*
X0273588Y0154265D02*
X0304115Y0154265D01*
X0304115Y0153266D02*
X0272589Y0153266D01*
X0271591Y0152268D02*
X0304115Y0152268D01*
X0304115Y0151269D02*
X0270814Y0151269D01*
X0271777Y0150271D02*
X0304115Y0150271D01*
X0304115Y0149272D02*
X0272775Y0149272D01*
X0273774Y0148274D02*
X0304115Y0148274D01*
X0304115Y0147275D02*
X0274772Y0147275D01*
X0275771Y0146277D02*
X0304115Y0146277D01*
X0304115Y0145278D02*
X0276769Y0145278D01*
X0277768Y0144280D02*
X0304115Y0144280D01*
X0304115Y0143281D02*
X0278766Y0143281D01*
X0279765Y0142283D02*
X0304115Y0142283D01*
X0304115Y0141284D02*
X0280763Y0141284D01*
X0281762Y0140286D02*
X0289738Y0140286D01*
X0289148Y0139696D02*
X0289148Y0137832D01*
X0290466Y0136514D01*
X0292330Y0136514D01*
X0293648Y0137832D01*
X0293648Y0139696D01*
X0292330Y0141014D01*
X0290466Y0141014D01*
X0289148Y0139696D01*
X0289148Y0139287D02*
X0282760Y0139287D01*
X0283450Y0138289D02*
X0289148Y0138289D01*
X0289690Y0137290D02*
X0283450Y0137290D01*
X0283450Y0136292D02*
X0304115Y0136292D01*
X0304115Y0137290D02*
X0293107Y0137290D01*
X0293648Y0138289D02*
X0304115Y0138289D01*
X0304115Y0139287D02*
X0293648Y0139287D01*
X0293059Y0140286D02*
X0304115Y0140286D01*
X0304115Y0135293D02*
X0283450Y0135293D01*
X0283450Y0134295D02*
X0304115Y0134295D01*
X0304115Y0133296D02*
X0283450Y0133296D01*
X0283450Y0132298D02*
X0304115Y0132298D01*
X0304115Y0131299D02*
X0283450Y0131299D01*
X0283450Y0130301D02*
X0304115Y0130301D01*
X0304115Y0129302D02*
X0283450Y0129302D01*
X0283450Y0128303D02*
X0304115Y0128303D01*
X0304115Y0127305D02*
X0283450Y0127305D01*
X0283450Y0126306D02*
X0304115Y0126306D01*
X0304115Y0125308D02*
X0283450Y0125308D01*
X0283450Y0124309D02*
X0304115Y0124309D01*
X0304115Y0123311D02*
X0283450Y0123311D01*
X0283450Y0122312D02*
X0304115Y0122312D01*
X0304115Y0121314D02*
X0283450Y0121314D01*
X0283450Y0120315D02*
X0304115Y0120315D01*
X0304115Y0119317D02*
X0283450Y0119317D01*
X0283450Y0118318D02*
X0304115Y0118318D01*
X0301615Y0111500D02*
X0299115Y0109000D01*
X0299115Y0096500D01*
X0300615Y0099347D02*
X0303844Y0099347D01*
X0302845Y0100345D02*
X0300615Y0100345D01*
X0300615Y0101344D02*
X0301847Y0101344D01*
X0301365Y0102342D02*
X0300615Y0102342D01*
X0300615Y0103341D02*
X0301365Y0103341D01*
X0301365Y0104339D02*
X0300615Y0104339D01*
X0300615Y0105338D02*
X0301365Y0105338D01*
X0301527Y0106336D02*
X0300615Y0106336D01*
X0300615Y0107335D02*
X0302525Y0107335D01*
X0303524Y0108333D02*
X0300615Y0108333D01*
X0301568Y0109332D02*
X0304115Y0109332D01*
X0292615Y0104339D02*
X0267194Y0104339D01*
X0268058Y0103341D02*
X0292615Y0103341D01*
X0292615Y0102342D02*
X0268058Y0102342D01*
X0267790Y0101344D02*
X0291837Y0101344D01*
X0281950Y0112327D02*
X0281950Y0114551D01*
X0280450Y0119317D02*
X0265615Y0119317D01*
X0265615Y0120315D02*
X0280450Y0120315D01*
X0280450Y0121314D02*
X0265615Y0121314D01*
X0265615Y0122312D02*
X0280450Y0122312D01*
X0280450Y0123311D02*
X0265615Y0123311D01*
X0265615Y0124309D02*
X0280450Y0124309D01*
X0280450Y0125308D02*
X0265615Y0125308D01*
X0265615Y0126306D02*
X0280450Y0126306D01*
X0280450Y0127305D02*
X0265615Y0127305D01*
X0265615Y0128303D02*
X0280450Y0128303D01*
X0280450Y0129302D02*
X0265615Y0129302D01*
X0265615Y0130301D02*
X0280450Y0130301D01*
X0280450Y0131299D02*
X0265615Y0131299D01*
X0265615Y0132298D02*
X0280450Y0132298D01*
X0280450Y0133296D02*
X0265615Y0133296D01*
X0265615Y0134295D02*
X0280450Y0134295D01*
X0280450Y0135293D02*
X0265615Y0135293D01*
X0265615Y0136292D02*
X0280450Y0136292D01*
X0280450Y0137290D02*
X0265615Y0137290D01*
X0265615Y0138289D02*
X0279516Y0138289D01*
X0278518Y0139287D02*
X0265615Y0139287D01*
X0265615Y0140286D02*
X0277519Y0140286D01*
X0276521Y0141284D02*
X0265615Y0141284D01*
X0265615Y0142283D02*
X0275522Y0142283D01*
X0274523Y0143281D02*
X0265615Y0143281D01*
X0265615Y0144280D02*
X0273525Y0144280D01*
X0272526Y0145278D02*
X0265615Y0145278D01*
X0265615Y0146277D02*
X0271528Y0146277D01*
X0270529Y0147275D02*
X0265615Y0147275D01*
X0265615Y0148274D02*
X0269531Y0148274D01*
X0267472Y0149272D02*
X0265615Y0149272D01*
X0265615Y0150271D02*
X0266473Y0150271D01*
X0266314Y0151269D02*
X0265615Y0151269D01*
X0265615Y0152268D02*
X0266314Y0152268D01*
X0265615Y0153266D02*
X0267286Y0153266D01*
X0265615Y0154265D02*
X0269345Y0154265D01*
X0270344Y0155263D02*
X0265615Y0155263D01*
X0265615Y0156262D02*
X0271342Y0156262D01*
X0272341Y0157260D02*
X0265615Y0157260D01*
X0265615Y0158259D02*
X0273339Y0158259D01*
X0274338Y0159257D02*
X0265615Y0159257D01*
X0265615Y0160256D02*
X0275336Y0160256D01*
X0276335Y0161254D02*
X0265615Y0161254D01*
X0265615Y0162253D02*
X0277333Y0162253D01*
X0278332Y0163251D02*
X0265615Y0163251D01*
X0265615Y0164250D02*
X0279330Y0164250D01*
X0280577Y0161254D02*
X0293353Y0161254D01*
X0293801Y0160256D02*
X0279579Y0160256D01*
X0278580Y0159257D02*
X0294799Y0159257D01*
X0295798Y0158259D02*
X0277582Y0158259D01*
X0265615Y0165248D02*
X0293549Y0165248D01*
X0294548Y0166247D02*
X0265615Y0166247D01*
X0265615Y0167245D02*
X0295546Y0167245D01*
X0301660Y0167245D02*
X0304115Y0167245D01*
X0304115Y0166247D02*
X0302659Y0166247D01*
X0303657Y0165248D02*
X0304115Y0165248D01*
X0304115Y0164250D02*
X0303853Y0164250D01*
X0304115Y0168244D02*
X0265615Y0168244D01*
X0266479Y0169242D02*
X0304115Y0169242D01*
X0304115Y0170241D02*
X0284977Y0170241D01*
X0285976Y0171239D02*
X0304115Y0171239D01*
X0304115Y0172238D02*
X0286974Y0172238D01*
X0287973Y0173237D02*
X0304115Y0173237D01*
X0304115Y0174235D02*
X0288115Y0174235D01*
X0288115Y0175234D02*
X0304115Y0175234D01*
X0304115Y0176232D02*
X0288115Y0176232D01*
X0288115Y0177231D02*
X0304115Y0177231D01*
X0304115Y0178229D02*
X0288115Y0178229D01*
X0288115Y0179228D02*
X0304115Y0179228D01*
X0304115Y0180226D02*
X0288115Y0180226D01*
X0288115Y0181225D02*
X0304115Y0181225D01*
X0304115Y0182223D02*
X0288115Y0182223D01*
X0288115Y0183222D02*
X0304115Y0183222D01*
X0304115Y0184220D02*
X0288115Y0184220D01*
X0288115Y0185219D02*
X0304115Y0185219D01*
X0304115Y0186217D02*
X0288115Y0186217D01*
X0288115Y0187216D02*
X0304115Y0187216D01*
X0304115Y0188214D02*
X0288115Y0188214D01*
X0288115Y0189213D02*
X0304115Y0189213D01*
X0304115Y0190211D02*
X0288115Y0190211D01*
X0288115Y0191210D02*
X0304115Y0191210D01*
X0304115Y0192208D02*
X0288115Y0192208D01*
X0288115Y0193207D02*
X0304115Y0193207D01*
X0304115Y0194205D02*
X0288115Y0194205D01*
X0288115Y0195204D02*
X0304115Y0195204D01*
X0304115Y0196202D02*
X0288439Y0196202D01*
X0289437Y0197201D02*
X0304115Y0197201D01*
X0324115Y0193207D02*
X0460636Y0193207D01*
X0460636Y0192208D02*
X0324115Y0192208D01*
X0324115Y0191210D02*
X0340780Y0191210D01*
X0340860Y0191289D02*
X0339542Y0189971D01*
X0339542Y0188107D01*
X0340860Y0186789D01*
X0342724Y0186789D01*
X0344042Y0188107D01*
X0344042Y0189971D01*
X0342724Y0191289D01*
X0340860Y0191289D01*
X0339782Y0190211D02*
X0324115Y0190211D01*
X0324115Y0189213D02*
X0339542Y0189213D01*
X0339542Y0188214D02*
X0324115Y0188214D01*
X0324115Y0187216D02*
X0340434Y0187216D01*
X0343150Y0187216D02*
X0348204Y0187216D01*
X0348204Y0186533D02*
X0348204Y0188397D01*
X0349522Y0189715D01*
X0351386Y0189715D01*
X0352704Y0188397D01*
X0352704Y0186533D01*
X0351386Y0185215D01*
X0349522Y0185215D01*
X0348204Y0186533D01*
X0348519Y0186217D02*
X0324115Y0186217D01*
X0324115Y0185219D02*
X0349517Y0185219D01*
X0351390Y0185219D02*
X0373865Y0185219D01*
X0373865Y0184325D02*
X0376940Y0181250D01*
X0381290Y0181250D01*
X0384365Y0184325D01*
X0384365Y0188675D01*
X0381290Y0191750D01*
X0376940Y0191750D01*
X0373865Y0188675D01*
X0373865Y0184325D01*
X0373970Y0184220D02*
X0324115Y0184220D01*
X0324115Y0183222D02*
X0374969Y0183222D01*
X0375967Y0182223D02*
X0324115Y0182223D01*
X0324115Y0181225D02*
X0439929Y0181225D01*
X0440545Y0181841D02*
X0439227Y0180523D01*
X0439227Y0178659D01*
X0440545Y0177341D01*
X0442409Y0177341D01*
X0443727Y0178659D01*
X0443727Y0180523D01*
X0442409Y0181841D01*
X0440545Y0181841D01*
X0439227Y0180226D02*
X0324115Y0180226D01*
X0324115Y0179228D02*
X0439227Y0179228D01*
X0439657Y0178229D02*
X0324115Y0178229D01*
X0324115Y0177231D02*
X0460636Y0177231D01*
X0460636Y0178229D02*
X0443298Y0178229D01*
X0443727Y0179228D02*
X0460636Y0179228D01*
X0460636Y0180226D02*
X0443727Y0180226D01*
X0443025Y0181225D02*
X0460636Y0181225D01*
X0460636Y0182223D02*
X0382263Y0182223D01*
X0383261Y0183222D02*
X0460636Y0183222D01*
X0460636Y0184220D02*
X0384260Y0184220D01*
X0384365Y0185219D02*
X0460636Y0185219D01*
X0460636Y0186217D02*
X0384365Y0186217D01*
X0384365Y0187216D02*
X0460636Y0187216D01*
X0460636Y0188214D02*
X0384365Y0188214D01*
X0383827Y0189213D02*
X0460636Y0189213D01*
X0460636Y0190211D02*
X0382828Y0190211D01*
X0381830Y0191210D02*
X0460636Y0191210D01*
X0460636Y0176232D02*
X0324115Y0176232D01*
X0324115Y0175234D02*
X0441418Y0175234D01*
X0441726Y0175541D02*
X0440408Y0174223D01*
X0440408Y0172359D01*
X0441726Y0171041D01*
X0443590Y0171041D01*
X0444908Y0172359D01*
X0444908Y0174223D01*
X0443590Y0175541D01*
X0441726Y0175541D01*
X0440420Y0174235D02*
X0324115Y0174235D01*
X0324115Y0173237D02*
X0440408Y0173237D01*
X0440530Y0172238D02*
X0324115Y0172238D01*
X0324115Y0171239D02*
X0441528Y0171239D01*
X0443788Y0171239D02*
X0460636Y0171239D01*
X0460636Y0170241D02*
X0324115Y0170241D01*
X0324115Y0169242D02*
X0460636Y0169242D01*
X0460636Y0168244D02*
X0324115Y0168244D01*
X0324115Y0167245D02*
X0460636Y0167245D01*
X0460636Y0166247D02*
X0324115Y0166247D01*
X0324115Y0165248D02*
X0460636Y0165248D01*
X0460636Y0164250D02*
X0324115Y0164250D01*
X0324115Y0163251D02*
X0460636Y0163251D01*
X0460636Y0162253D02*
X0324115Y0162253D01*
X0324115Y0161254D02*
X0460636Y0161254D01*
X0460636Y0160256D02*
X0324115Y0160256D01*
X0324115Y0159257D02*
X0460636Y0159257D01*
X0460636Y0158259D02*
X0324115Y0158259D01*
X0324115Y0157260D02*
X0460636Y0157260D01*
X0460636Y0156262D02*
X0324115Y0156262D01*
X0324115Y0155263D02*
X0460636Y0155263D01*
X0460636Y0154265D02*
X0324115Y0154265D01*
X0324115Y0153266D02*
X0460636Y0153266D01*
X0460636Y0152268D02*
X0324115Y0152268D01*
X0324115Y0151269D02*
X0460636Y0151269D01*
X0460636Y0150271D02*
X0412089Y0150271D01*
X0412546Y0149814D02*
X0411228Y0151132D01*
X0409364Y0151132D01*
X0408046Y0149814D01*
X0408046Y0147950D01*
X0409364Y0146632D01*
X0411228Y0146632D01*
X0412546Y0147950D01*
X0412546Y0149814D01*
X0412546Y0149272D02*
X0460636Y0149272D01*
X0460636Y0148274D02*
X0412546Y0148274D01*
X0411871Y0147275D02*
X0460636Y0147275D01*
X0460636Y0146277D02*
X0351030Y0146277D01*
X0350992Y0146238D02*
X0352310Y0147556D01*
X0352310Y0149420D01*
X0350992Y0150738D01*
X0349128Y0150738D01*
X0347810Y0149420D01*
X0347810Y0147556D01*
X0349128Y0146238D01*
X0350992Y0146238D01*
X0352029Y0147275D02*
X0408721Y0147275D01*
X0408046Y0148274D02*
X0352310Y0148274D01*
X0352310Y0149272D02*
X0408046Y0149272D01*
X0408503Y0150271D02*
X0351459Y0150271D01*
X0348660Y0150271D02*
X0342404Y0150271D01*
X0341937Y0150738D02*
X0340073Y0150738D01*
X0338755Y0149420D01*
X0338755Y0147556D01*
X0340073Y0146238D01*
X0341937Y0146238D01*
X0343255Y0147556D01*
X0343255Y0149420D01*
X0341937Y0150738D01*
X0343255Y0149272D02*
X0347810Y0149272D01*
X0347810Y0148274D02*
X0343255Y0148274D01*
X0342974Y0147275D02*
X0348091Y0147275D01*
X0349089Y0146277D02*
X0341975Y0146277D01*
X0340034Y0146277D02*
X0324115Y0146277D01*
X0324115Y0147275D02*
X0339036Y0147275D01*
X0338755Y0148274D02*
X0324115Y0148274D01*
X0324115Y0149272D02*
X0338755Y0149272D01*
X0339605Y0150271D02*
X0324115Y0150271D01*
X0324115Y0145278D02*
X0460636Y0145278D01*
X0460636Y0144280D02*
X0324115Y0144280D01*
X0324115Y0143281D02*
X0397714Y0143281D01*
X0398183Y0143750D02*
X0396865Y0142432D01*
X0396865Y0140568D01*
X0398183Y0139250D01*
X0400047Y0139250D01*
X0401365Y0140568D01*
X0401365Y0142432D01*
X0400047Y0143750D01*
X0398183Y0143750D01*
X0396865Y0142283D02*
X0342247Y0142283D01*
X0342615Y0141284D02*
X0367233Y0141284D01*
X0366707Y0140759D02*
X0366707Y0138895D01*
X0368025Y0137577D01*
X0369889Y0137577D01*
X0371207Y0138895D01*
X0371207Y0140759D01*
X0369889Y0142077D01*
X0368025Y0142077D01*
X0366707Y0140759D01*
X0366707Y0140286D02*
X0342615Y0140286D01*
X0342615Y0139287D02*
X0366707Y0139287D01*
X0367314Y0138289D02*
X0342615Y0138289D01*
X0342615Y0137290D02*
X0460636Y0137290D01*
X0460636Y0136292D02*
X0342615Y0136292D01*
X0342615Y0135293D02*
X0460636Y0135293D01*
X0460636Y0134295D02*
X0342615Y0134295D01*
X0342615Y0133296D02*
X0460636Y0133296D01*
X0460636Y0138289D02*
X0370601Y0138289D01*
X0371207Y0139287D02*
X0398146Y0139287D01*
X0397147Y0140286D02*
X0371207Y0140286D01*
X0370682Y0141284D02*
X0396865Y0141284D01*
X0400084Y0139287D02*
X0460636Y0139287D01*
X0460636Y0140286D02*
X0401083Y0140286D01*
X0401365Y0141284D02*
X0460636Y0141284D01*
X0460636Y0142283D02*
X0401365Y0142283D01*
X0400516Y0143281D02*
X0460636Y0143281D01*
X0433637Y0132298D02*
X0342615Y0132298D01*
X0342615Y0131299D02*
X0432638Y0131299D01*
X0432324Y0130301D02*
X0342615Y0130301D01*
X0342615Y0129302D02*
X0432324Y0129302D01*
X0432324Y0128303D02*
X0342615Y0128303D01*
X0342615Y0127305D02*
X0432940Y0127305D01*
X0433938Y0126306D02*
X0342615Y0126306D01*
X0342615Y0124309D02*
X0460636Y0124309D01*
X0460636Y0123311D02*
X0342615Y0123311D01*
X0342615Y0122312D02*
X0433652Y0122312D01*
X0432653Y0121314D02*
X0342615Y0121314D01*
X0342615Y0120315D02*
X0432324Y0120315D01*
X0432324Y0119317D02*
X0342615Y0119317D01*
X0342615Y0118318D02*
X0432324Y0118318D01*
X0432925Y0117320D02*
X0342615Y0117320D01*
X0342615Y0116321D02*
X0433923Y0116321D01*
X0433666Y0112327D02*
X0342615Y0112327D01*
X0342615Y0111329D02*
X0345812Y0111329D01*
X0344814Y0110330D02*
X0342615Y0110330D01*
X0342615Y0109332D02*
X0343815Y0109332D01*
X0343365Y0108333D02*
X0342615Y0108333D01*
X0342615Y0107335D02*
X0343365Y0107335D01*
X0342615Y0106336D02*
X0348615Y0106336D01*
X0348615Y0107335D02*
X0349615Y0107335D01*
X0349615Y0108333D02*
X0348615Y0108333D01*
X0348615Y0109332D02*
X0349615Y0109332D01*
X0349615Y0110330D02*
X0348615Y0110330D01*
X0348615Y0111329D02*
X0349615Y0111329D01*
X0352418Y0111329D02*
X0432668Y0111329D01*
X0432324Y0110330D02*
X0353416Y0110330D01*
X0354415Y0109332D02*
X0432324Y0109332D01*
X0432324Y0108333D02*
X0354865Y0108333D01*
X0354865Y0107335D02*
X0432910Y0107335D01*
X0448140Y0106336D02*
X0460636Y0106336D01*
X0460636Y0105338D02*
X0354865Y0105338D01*
X0354865Y0104339D02*
X0460636Y0104339D01*
X0460636Y0103341D02*
X0354087Y0103341D01*
X0353089Y0102342D02*
X0460636Y0102342D01*
X0460636Y0107335D02*
X0449139Y0107335D01*
X0449724Y0108333D02*
X0460636Y0108333D01*
X0460636Y0109332D02*
X0449724Y0109332D01*
X0449724Y0110330D02*
X0460636Y0110330D01*
X0460636Y0111329D02*
X0449381Y0111329D01*
X0448382Y0112327D02*
X0460636Y0112327D01*
X0460636Y0113326D02*
X0342615Y0113326D01*
X0342615Y0114324D02*
X0460636Y0114324D01*
X0460636Y0115323D02*
X0342615Y0115323D01*
X0323615Y0135500D02*
X0314115Y0126000D01*
X0363088Y0097350D02*
X0432540Y0097350D01*
X0433539Y0098348D02*
X0363944Y0098348D01*
X0396452Y0077379D02*
X0330689Y0077379D01*
X0331463Y0076381D02*
X0397410Y0076381D01*
X0399993Y0076381D02*
X0460636Y0076381D01*
X0460636Y0077379D02*
X0400952Y0077379D01*
X0400952Y0078378D02*
X0460636Y0078378D01*
X0460636Y0079376D02*
X0400779Y0079376D01*
X0430115Y0067796D02*
X0430115Y0060204D01*
X0430724Y0058734D01*
X0431849Y0057609D01*
X0433319Y0057000D01*
X0434911Y0057000D01*
X0436381Y0057609D01*
X0437506Y0058734D01*
X0438115Y0060204D01*
X0438115Y0067796D01*
X0437506Y0069266D01*
X0436381Y0070391D01*
X0434911Y0071000D01*
X0433319Y0071000D01*
X0431849Y0070391D01*
X0430724Y0069266D01*
X0430115Y0067796D01*
X0430115Y0067394D02*
X0343115Y0067394D01*
X0343115Y0066396D02*
X0430115Y0066396D01*
X0430115Y0065397D02*
X0343115Y0065397D01*
X0343115Y0064399D02*
X0430115Y0064399D01*
X0430115Y0063400D02*
X0343115Y0063400D01*
X0343115Y0062402D02*
X0430115Y0062402D01*
X0430115Y0061403D02*
X0343115Y0061403D01*
X0343115Y0060405D02*
X0430115Y0060405D01*
X0430446Y0059406D02*
X0342784Y0059406D01*
X0342180Y0058408D02*
X0431050Y0058408D01*
X0432331Y0057409D02*
X0340898Y0057409D01*
X0342868Y0068393D02*
X0430362Y0068393D01*
X0430849Y0069391D02*
X0342380Y0069391D01*
X0341382Y0070390D02*
X0431848Y0070390D01*
X0436382Y0070390D02*
X0441848Y0070390D01*
X0440849Y0069391D02*
X0437380Y0069391D01*
X0437868Y0068393D02*
X0440362Y0068393D01*
X0440115Y0067394D02*
X0438115Y0067394D01*
X0438115Y0066396D02*
X0440115Y0066396D01*
X0440115Y0065397D02*
X0438115Y0065397D01*
X0438115Y0064399D02*
X0440115Y0064399D01*
X0440115Y0063400D02*
X0438115Y0063400D01*
X0438115Y0062402D02*
X0440115Y0062402D01*
X0440115Y0061403D02*
X0438115Y0061403D01*
X0438115Y0060405D02*
X0440115Y0060405D01*
X0440446Y0059406D02*
X0437784Y0059406D01*
X0437180Y0058408D02*
X0441050Y0058408D01*
X0442331Y0057409D02*
X0435898Y0057409D01*
X0460636Y0074384D02*
X0331106Y0074384D01*
X0331463Y0075382D02*
X0460636Y0075382D01*
X0443829Y0089362D02*
X0439401Y0089362D01*
X0440400Y0090360D02*
X0442830Y0090360D01*
X0441832Y0091359D02*
X0441398Y0091359D01*
X0440690Y0097350D02*
X0442540Y0097350D01*
X0443539Y0098348D02*
X0439691Y0098348D01*
X0448126Y0116321D02*
X0460636Y0116321D01*
X0460636Y0117320D02*
X0449124Y0117320D01*
X0449724Y0118318D02*
X0460636Y0118318D01*
X0460636Y0119317D02*
X0449724Y0119317D01*
X0449724Y0120315D02*
X0460636Y0120315D01*
X0460636Y0121314D02*
X0449396Y0121314D01*
X0448397Y0122312D02*
X0460636Y0122312D01*
X0460636Y0172238D02*
X0444787Y0172238D01*
X0444908Y0173237D02*
X0460636Y0173237D01*
X0460636Y0174235D02*
X0444897Y0174235D01*
X0443898Y0175234D02*
X0460636Y0175234D01*
X0376400Y0191210D02*
X0342804Y0191210D01*
X0343802Y0190211D02*
X0375402Y0190211D01*
X0374403Y0189213D02*
X0351887Y0189213D01*
X0352704Y0188214D02*
X0373865Y0188214D01*
X0373865Y0187216D02*
X0352704Y0187216D01*
X0352388Y0186217D02*
X0373865Y0186217D01*
X0349020Y0189213D02*
X0344042Y0189213D01*
X0344042Y0188214D02*
X0348204Y0188214D01*
X0337115Y0209000D02*
X0269115Y0209000D01*
X0264115Y0204000D01*
X0189115Y0204000D01*
X0186615Y0201500D01*
X0186615Y0139000D01*
X0174115Y0126500D01*
X0174115Y0079000D01*
X0161615Y0066500D01*
X0163865Y0066396D02*
X0176581Y0066396D01*
X0163865Y0066396D01*
X0163694Y0065397D02*
X0164830Y0065397D01*
X0163694Y0065397D01*
X0164365Y0064932D02*
X0164365Y0063068D01*
X0165683Y0061750D01*
X0167547Y0061750D01*
X0168865Y0063068D01*
X0168865Y0064932D01*
X0167547Y0066250D01*
X0165683Y0066250D01*
X0164365Y0064932D01*
X0164365Y0063068D01*
X0165683Y0061750D01*
X0167547Y0061750D01*
X0168865Y0063068D01*
X0168865Y0064932D01*
X0167547Y0066250D01*
X0165683Y0066250D01*
X0164365Y0064932D01*
X0164365Y0064399D02*
X0162696Y0064399D01*
X0164365Y0064399D01*
X0164365Y0063400D02*
X0139115Y0063400D01*
X0164365Y0063400D01*
X0165031Y0062402D02*
X0139115Y0062402D01*
X0165031Y0062402D01*
X0167338Y0060405D02*
X0139115Y0060405D01*
X0167338Y0060405D01*
X0166865Y0059932D02*
X0166865Y0058068D01*
X0168183Y0056750D01*
X0170047Y0056750D01*
X0171365Y0058068D01*
X0171365Y0059932D01*
X0170047Y0061250D01*
X0168183Y0061250D01*
X0166865Y0059932D01*
X0166865Y0058068D01*
X0168183Y0056750D01*
X0170047Y0056750D01*
X0171365Y0058068D01*
X0171365Y0059932D01*
X0170047Y0061250D01*
X0168183Y0061250D01*
X0166865Y0059932D01*
X0166865Y0059406D02*
X0139115Y0059406D01*
X0166865Y0059406D01*
X0166865Y0058408D02*
X0139115Y0058408D01*
X0166865Y0058408D01*
X0167524Y0057409D02*
X0139115Y0057409D01*
X0167524Y0057409D01*
X0168865Y0063400D02*
X0179416Y0063400D01*
X0168865Y0063400D01*
X0168865Y0064399D02*
X0178418Y0064399D01*
X0168865Y0064399D01*
X0168400Y0065397D02*
X0177419Y0065397D01*
X0168400Y0065397D01*
X0164631Y0067394D02*
X0176581Y0067394D01*
X0164631Y0067394D01*
X0165629Y0068393D02*
X0176581Y0068393D01*
X0165629Y0068393D01*
X0166628Y0069391D02*
X0176581Y0069391D01*
X0166628Y0069391D01*
X0167626Y0070390D02*
X0176581Y0070390D01*
X0167626Y0070390D01*
X0168625Y0071388D02*
X0177386Y0071388D01*
X0168625Y0071388D01*
X0169623Y0072387D02*
X0178384Y0072387D01*
X0169623Y0072387D01*
X0170622Y0073385D02*
X0179383Y0073385D01*
X0170622Y0073385D01*
X0168376Y0075382D02*
X0139115Y0075382D01*
X0168376Y0075382D01*
X0167378Y0074384D02*
X0139115Y0074384D01*
X0167378Y0074384D01*
X0166379Y0073385D02*
X0139115Y0073385D01*
X0166379Y0073385D01*
X0165380Y0072387D02*
X0139115Y0072387D01*
X0165380Y0072387D01*
X0164382Y0071388D02*
X0139115Y0071388D01*
X0164382Y0071388D01*
X0163383Y0070390D02*
X0139115Y0070390D01*
X0163383Y0070390D01*
X0162385Y0069391D02*
X0139115Y0069391D01*
X0162385Y0069391D01*
X0160326Y0068393D02*
X0139115Y0068393D01*
X0160326Y0068393D01*
X0159365Y0067394D02*
X0139115Y0067394D01*
X0159365Y0067394D01*
X0159365Y0066396D02*
X0139115Y0066396D01*
X0159365Y0066396D01*
X0159536Y0065397D02*
X0139115Y0065397D01*
X0159536Y0065397D01*
X0160534Y0064399D02*
X0139115Y0064399D01*
X0160534Y0064399D01*
X0169375Y0076381D02*
X0139115Y0076381D01*
X0169375Y0076381D01*
X0170373Y0077379D02*
X0139115Y0077379D01*
X0170373Y0077379D01*
X0171372Y0078378D02*
X0139115Y0078378D01*
X0171372Y0078378D01*
X0172370Y0079376D02*
X0139115Y0079376D01*
X0172370Y0079376D01*
X0172615Y0080375D02*
X0139115Y0080375D01*
X0172615Y0080375D01*
X0172615Y0081373D02*
X0139115Y0081373D01*
X0172615Y0081373D01*
X0172615Y0082372D02*
X0139115Y0082372D01*
X0172615Y0082372D01*
X0172615Y0083370D02*
X0171667Y0083370D01*
X0172615Y0083370D01*
X0172369Y0084072D02*
X0171051Y0082754D01*
X0169187Y0082754D01*
X0167869Y0084072D01*
X0167869Y0085936D01*
X0169187Y0087254D01*
X0171051Y0087254D01*
X0172369Y0085936D01*
X0172369Y0084072D01*
X0171051Y0082754D01*
X0169187Y0082754D01*
X0167869Y0084072D01*
X0167869Y0085936D01*
X0169187Y0087254D01*
X0171051Y0087254D01*
X0172369Y0085936D01*
X0172369Y0084072D01*
X0172369Y0084369D02*
X0172615Y0084369D01*
X0172369Y0084369D01*
X0172369Y0085368D02*
X0172615Y0085368D01*
X0172369Y0085368D01*
X0172615Y0086366D02*
X0171939Y0086366D01*
X0172615Y0086366D01*
X0172615Y0087365D02*
X0139115Y0087365D01*
X0172615Y0087365D01*
X0172615Y0088363D02*
X0139115Y0088363D01*
X0172615Y0088363D01*
X0172615Y0089362D02*
X0139115Y0089362D01*
X0172615Y0089362D01*
X0172615Y0090360D02*
X0139115Y0090360D01*
X0172615Y0090360D01*
X0172615Y0091359D02*
X0139115Y0091359D01*
X0172615Y0091359D01*
X0172615Y0092357D02*
X0139115Y0092357D01*
X0172615Y0092357D01*
X0172615Y0093356D02*
X0139115Y0093356D01*
X0172615Y0093356D01*
X0172615Y0094354D02*
X0139115Y0094354D01*
X0172615Y0094354D01*
X0172615Y0095353D02*
X0139115Y0095353D01*
X0172615Y0095353D01*
X0172615Y0096351D02*
X0139115Y0096351D01*
X0172615Y0096351D01*
X0172615Y0097350D02*
X0139115Y0097350D01*
X0172615Y0097350D01*
X0172615Y0098348D02*
X0139115Y0098348D01*
X0172615Y0098348D01*
X0172615Y0099347D02*
X0170144Y0099347D01*
X0172615Y0099347D01*
X0172615Y0100345D02*
X0171142Y0100345D01*
X0172615Y0100345D01*
X0172615Y0101344D02*
X0171365Y0101344D01*
X0172615Y0101344D01*
X0172615Y0102342D02*
X0171365Y0102342D01*
X0172615Y0102342D01*
X0172615Y0103341D02*
X0170456Y0103341D01*
X0172615Y0103341D01*
X0172615Y0104339D02*
X0165136Y0104339D01*
X0172615Y0104339D01*
X0172615Y0105338D02*
X0166135Y0105338D01*
X0172615Y0105338D01*
X0172615Y0106336D02*
X0166365Y0106336D01*
X0172615Y0106336D01*
X0172615Y0107335D02*
X0166365Y0107335D01*
X0172615Y0107335D01*
X0172615Y0108333D02*
X0165464Y0108333D01*
X0172615Y0108333D01*
X0172615Y0109332D02*
X0160129Y0109332D01*
X0172615Y0109332D01*
X0172615Y0110330D02*
X0161127Y0110330D01*
X0172615Y0110330D01*
X0172615Y0111329D02*
X0161365Y0111329D01*
X0172615Y0111329D01*
X0172615Y0112327D02*
X0161365Y0112327D01*
X0172615Y0112327D01*
X0172615Y0113326D02*
X0160615Y0113326D01*
X0172615Y0113326D01*
X0172615Y0114324D02*
X0160615Y0114324D01*
X0172615Y0114324D01*
X0172615Y0115323D02*
X0160615Y0115323D01*
X0172615Y0115323D01*
X0172615Y0116321D02*
X0161058Y0116321D01*
X0172615Y0116321D01*
X0172615Y0117320D02*
X0162056Y0117320D01*
X0172615Y0117320D01*
X0172615Y0118318D02*
X0163055Y0118318D01*
X0172615Y0118318D01*
X0172615Y0119317D02*
X0164053Y0119317D01*
X0172615Y0119317D01*
X0172615Y0120315D02*
X0165052Y0120315D01*
X0172615Y0120315D01*
X0172615Y0121314D02*
X0166050Y0121314D01*
X0172615Y0121314D01*
X0172615Y0122312D02*
X0167049Y0122312D01*
X0172615Y0122312D01*
X0172615Y0123311D02*
X0168047Y0123311D01*
X0172615Y0123311D01*
X0172615Y0124309D02*
X0169046Y0124309D01*
X0172615Y0124309D01*
X0172615Y0125308D02*
X0170044Y0125308D01*
X0172615Y0125308D01*
X0172615Y0126306D02*
X0171043Y0126306D01*
X0172615Y0126306D01*
X0172799Y0127305D02*
X0172041Y0127305D01*
X0172799Y0127305D01*
X0173040Y0128303D02*
X0173797Y0128303D01*
X0173040Y0128303D01*
X0174038Y0129302D02*
X0174796Y0129302D01*
X0174038Y0129302D01*
X0175037Y0130301D02*
X0175794Y0130301D01*
X0175037Y0130301D01*
X0176035Y0131299D02*
X0176793Y0131299D01*
X0176035Y0131299D01*
X0177034Y0132298D02*
X0177791Y0132298D01*
X0177034Y0132298D01*
X0178032Y0133296D02*
X0178790Y0133296D01*
X0178032Y0133296D01*
X0179031Y0134295D02*
X0179788Y0134295D01*
X0179031Y0134295D01*
X0180029Y0135293D02*
X0180787Y0135293D01*
X0180029Y0135293D01*
X0181028Y0136292D02*
X0181785Y0136292D01*
X0181028Y0136292D01*
X0182026Y0137290D02*
X0182784Y0137290D01*
X0182026Y0137290D01*
X0183025Y0138289D02*
X0183782Y0138289D01*
X0183025Y0138289D01*
X0184023Y0139287D02*
X0184781Y0139287D01*
X0184023Y0139287D01*
X0185022Y0140286D02*
X0185115Y0140286D01*
X0185022Y0140286D01*
X0184115Y0141500D02*
X0184115Y0204000D01*
X0186615Y0206500D01*
X0262115Y0206500D01*
X0271115Y0215500D01*
X0273615Y0215500D01*
X0277415Y0217171D02*
X0279815Y0217171D01*
X0280097Y0217851D02*
X0279465Y0216325D01*
X0279465Y0214675D01*
X0280097Y0213149D01*
X0281264Y0211982D01*
X0282789Y0211350D01*
X0284440Y0211350D01*
X0285966Y0211982D01*
X0287133Y0213149D01*
X0287765Y0214675D01*
X0287765Y0216325D01*
X0287133Y0217851D01*
X0285966Y0219018D01*
X0284440Y0219650D01*
X0282789Y0219650D01*
X0281264Y0219018D01*
X0280097Y0217851D01*
X0280416Y0218170D02*
X0276814Y0218170D01*
X0275604Y0219168D02*
X0281626Y0219168D01*
X0279465Y0216172D02*
X0277765Y0216172D01*
X0277765Y0215174D02*
X0279465Y0215174D01*
X0279672Y0214175D02*
X0277558Y0214175D01*
X0277145Y0213177D02*
X0280085Y0213177D01*
X0281068Y0212178D02*
X0276162Y0212178D01*
X0271068Y0212178D02*
X0269915Y0212178D01*
X0268916Y0211180D02*
X0304115Y0211180D01*
X0301068Y0212178D02*
X0296162Y0212178D01*
X0295966Y0211982D02*
X0297133Y0213149D01*
X0297765Y0214675D01*
X0297765Y0216325D01*
X0297133Y0217851D01*
X0295966Y0219018D01*
X0294440Y0219650D01*
X0292789Y0219650D01*
X0291264Y0219018D01*
X0290097Y0217851D01*
X0289465Y0216325D01*
X0289465Y0214675D01*
X0290097Y0213149D01*
X0291264Y0211982D01*
X0292789Y0211350D01*
X0294440Y0211350D01*
X0295966Y0211982D01*
X0297145Y0213177D02*
X0300085Y0213177D01*
X0299672Y0214175D02*
X0297558Y0214175D01*
X0297765Y0215174D02*
X0299465Y0215174D01*
X0299465Y0216172D02*
X0297765Y0216172D01*
X0297415Y0217171D02*
X0299815Y0217171D01*
X0300416Y0218170D02*
X0296814Y0218170D01*
X0295604Y0219168D02*
X0301626Y0219168D01*
X0304115Y0220167D02*
X0227570Y0220167D01*
X0226571Y0221165D02*
X0304115Y0221165D01*
X0304115Y0222164D02*
X0225573Y0222164D01*
X0224115Y0221500D02*
X0227615Y0218000D01*
X0227615Y0215500D01*
X0231415Y0217171D02*
X0233465Y0217171D01*
X0233465Y0216172D02*
X0231765Y0216172D01*
X0231765Y0215174D02*
X0233465Y0215174D01*
X0233465Y0214175D02*
X0231558Y0214175D01*
X0231145Y0213177D02*
X0233465Y0213177D01*
X0233465Y0212178D02*
X0230162Y0212178D01*
X0234174Y0211180D02*
X0179367Y0211180D01*
X0179400Y0211191D02*
X0180052Y0211523D01*
X0180644Y0211953D01*
X0181162Y0212471D01*
X0181592Y0213063D01*
X0181924Y0213715D01*
X0182150Y0214411D01*
X0182244Y0215000D01*
X0178115Y0215000D01*
X0178115Y0210871D01*
X0178704Y0210964D01*
X0179400Y0211191D01*
X0178115Y0211180D02*
X0177115Y0211180D01*
X0177115Y0210871D02*
X0177115Y0215000D01*
X0172986Y0215000D01*
X0173079Y0214411D01*
X0173306Y0213715D01*
X0173638Y0213063D01*
X0174068Y0212471D01*
X0174586Y0211953D01*
X0175178Y0211523D01*
X0175830Y0211191D01*
X0176526Y0210964D01*
X0177115Y0210871D01*
X0175863Y0211180D02*
X0138416Y0211180D01*
X0139415Y0212178D02*
X0145068Y0212178D01*
X0145264Y0211982D02*
X0146789Y0211350D01*
X0148440Y0211350D01*
X0149966Y0211982D01*
X0151133Y0213149D01*
X0151765Y0214675D01*
X0151765Y0216325D01*
X0151133Y0217851D01*
X0149966Y0219018D01*
X0148440Y0219650D01*
X0146789Y0219650D01*
X0145264Y0219018D01*
X0144097Y0217851D01*
X0143465Y0216325D01*
X0143465Y0214675D01*
X0144097Y0213149D01*
X0145264Y0211982D01*
X0144085Y0213177D02*
X0140413Y0213177D01*
X0140615Y0214175D02*
X0143672Y0214175D01*
X0143465Y0215174D02*
X0140615Y0215174D01*
X0140615Y0216172D02*
X0143465Y0216172D01*
X0143815Y0217171D02*
X0140615Y0217171D01*
X0140615Y0218170D02*
X0144416Y0218170D01*
X0145626Y0219168D02*
X0141404Y0219168D01*
X0139115Y0219000D02*
X0139115Y0214000D01*
X0136615Y0211500D01*
X0074115Y0211500D01*
X0071615Y0209000D01*
X0071615Y0202550D01*
X0071117Y0202051D01*
X0073920Y0199198D02*
X0079113Y0199198D01*
X0078115Y0200196D02*
X0074919Y0200196D01*
X0075117Y0201195D02*
X0077917Y0201195D01*
X0077917Y0200394D02*
X0080260Y0198051D01*
X0083573Y0198051D01*
X0085917Y0200394D01*
X0085917Y0203708D01*
X0083573Y0206051D01*
X0080260Y0206051D01*
X0077917Y0203708D01*
X0077917Y0200394D01*
X0077917Y0202193D02*
X0075117Y0202193D01*
X0075117Y0203192D02*
X0077917Y0203192D01*
X0078399Y0204190D02*
X0074634Y0204190D01*
X0073636Y0205189D02*
X0079397Y0205189D01*
X0084436Y0205189D02*
X0089490Y0205189D01*
X0088492Y0204190D02*
X0085434Y0204190D01*
X0085917Y0203192D02*
X0088217Y0203192D01*
X0088217Y0202551D02*
X0092216Y0202551D01*
X0092216Y0201551D01*
X0088217Y0201551D01*
X0088217Y0200187D01*
X0090853Y0197551D01*
X0092217Y0197551D01*
X0092217Y0201551D01*
X0093217Y0201551D01*
X0093217Y0202551D01*
X0097217Y0202551D01*
X0097217Y0203915D01*
X0094580Y0206551D01*
X0093217Y0206551D01*
X0093217Y0202551D01*
X0092217Y0202551D01*
X0092217Y0206551D01*
X0090853Y0206551D01*
X0088217Y0203915D01*
X0088217Y0202551D01*
X0088217Y0201195D02*
X0085917Y0201195D01*
X0085917Y0202193D02*
X0092216Y0202193D01*
X0092217Y0201195D02*
X0093217Y0201195D01*
X0093217Y0201551D02*
X0093217Y0197551D01*
X0094580Y0197551D01*
X0097217Y0200187D01*
X0097217Y0201551D01*
X0093217Y0201551D01*
X0093217Y0202193D02*
X0107615Y0202193D01*
X0107615Y0201195D02*
X0097217Y0201195D01*
X0097217Y0200196D02*
X0107615Y0200196D01*
X0107615Y0199198D02*
X0096227Y0199198D01*
X0095229Y0198199D02*
X0107615Y0198199D01*
X0107615Y0197201D02*
X0038217Y0197201D01*
X0038217Y0198199D02*
X0058512Y0198199D01*
X0058660Y0198051D02*
X0056317Y0200394D01*
X0056317Y0203708D01*
X0058660Y0206051D01*
X0061973Y0206051D01*
X0064317Y0203708D01*
X0064317Y0200394D01*
X0061973Y0198051D01*
X0058660Y0198051D01*
X0057513Y0199198D02*
X0038029Y0199198D01*
X0038217Y0198499D02*
X0037467Y0201297D01*
X0036019Y0203805D01*
X0033971Y0205853D01*
X0031462Y0207302D01*
X0028665Y0208051D01*
X0025768Y0208051D01*
X0022971Y0207302D01*
X0020462Y0205853D01*
X0018414Y0203805D01*
X0016966Y0201297D01*
X0016217Y0198499D01*
X0016217Y0195603D01*
X0016966Y0192805D01*
X0018414Y0190297D01*
X0020462Y0188249D01*
X0022971Y0186801D01*
X0025768Y0186051D01*
X0028665Y0186051D01*
X0031462Y0186801D01*
X0033971Y0188249D01*
X0036019Y0190297D01*
X0037467Y0192805D01*
X0038217Y0195603D01*
X0038217Y0198499D01*
X0037762Y0200196D02*
X0056515Y0200196D01*
X0056317Y0201195D02*
X0037494Y0201195D01*
X0036949Y0202193D02*
X0056317Y0202193D01*
X0056317Y0203192D02*
X0036373Y0203192D01*
X0035634Y0204190D02*
X0056799Y0204190D01*
X0057797Y0205189D02*
X0034635Y0205189D01*
X0033392Y0206187D02*
X0070115Y0206187D01*
X0070115Y0207186D02*
X0031663Y0207186D01*
X0022770Y0207186D02*
X0012515Y0207186D01*
X0012515Y0208184D02*
X0070115Y0208184D01*
X0070115Y0209183D02*
X0012515Y0209183D01*
X0012515Y0210181D02*
X0070675Y0210181D01*
X0071674Y0211180D02*
X0012515Y0211180D01*
X0012515Y0212178D02*
X0072672Y0212178D01*
X0073919Y0209183D02*
X0109677Y0209183D01*
X0108678Y0208184D02*
X0073115Y0208184D01*
X0073115Y0207186D02*
X0107680Y0207186D01*
X0107615Y0206187D02*
X0094944Y0206187D01*
X0095943Y0205189D02*
X0107615Y0205189D01*
X0107615Y0204190D02*
X0096941Y0204190D01*
X0097217Y0203192D02*
X0107615Y0203192D01*
X0110615Y0203192D02*
X0116660Y0203192D01*
X0116084Y0202193D02*
X0110615Y0202193D01*
X0110615Y0201195D02*
X0115539Y0201195D01*
X0115271Y0200196D02*
X0110615Y0200196D01*
X0110615Y0199198D02*
X0115004Y0199198D01*
X0114817Y0198199D02*
X0110615Y0198199D01*
X0110615Y0197201D02*
X0114817Y0197201D01*
X0114817Y0196202D02*
X0110615Y0196202D01*
X0110615Y0195204D02*
X0114923Y0195204D01*
X0115191Y0194205D02*
X0110615Y0194205D01*
X0110615Y0193207D02*
X0115459Y0193207D01*
X0115911Y0192208D02*
X0110615Y0192208D01*
X0110615Y0191210D02*
X0116487Y0191210D01*
X0117100Y0190211D02*
X0110615Y0190211D01*
X0110615Y0189213D02*
X0118099Y0189213D01*
X0119123Y0188214D02*
X0110450Y0188214D01*
X0109452Y0187216D02*
X0120852Y0187216D01*
X0123749Y0186217D02*
X0108453Y0186217D01*
X0107455Y0185219D02*
X0182615Y0185219D01*
X0182615Y0186217D02*
X0127884Y0186217D01*
X0130781Y0187216D02*
X0182615Y0187216D01*
X0182615Y0188214D02*
X0132510Y0188214D01*
X0133534Y0189213D02*
X0182615Y0189213D01*
X0182615Y0190211D02*
X0134533Y0190211D01*
X0135146Y0191210D02*
X0182615Y0191210D01*
X0182615Y0192208D02*
X0135722Y0192208D01*
X0136174Y0193207D02*
X0182615Y0193207D01*
X0182615Y0194205D02*
X0136442Y0194205D01*
X0136710Y0195204D02*
X0182615Y0195204D01*
X0182615Y0196202D02*
X0136817Y0196202D01*
X0136817Y0197201D02*
X0182615Y0197201D01*
X0182615Y0198199D02*
X0136817Y0198199D01*
X0136629Y0199198D02*
X0182615Y0199198D01*
X0182615Y0200196D02*
X0136362Y0200196D01*
X0136094Y0201195D02*
X0182615Y0201195D01*
X0182615Y0202193D02*
X0135549Y0202193D01*
X0134973Y0203192D02*
X0182615Y0203192D01*
X0182615Y0204190D02*
X0134234Y0204190D01*
X0133235Y0205189D02*
X0183183Y0205189D01*
X0184181Y0206187D02*
X0131992Y0206187D01*
X0130263Y0207186D02*
X0185180Y0207186D01*
X0186789Y0211350D02*
X0185264Y0211982D01*
X0184097Y0213149D01*
X0183465Y0214675D01*
X0183465Y0216325D01*
X0184097Y0217851D01*
X0185264Y0219018D01*
X0186789Y0219650D01*
X0188440Y0219650D01*
X0189966Y0219018D01*
X0191133Y0217851D01*
X0191765Y0216325D01*
X0191765Y0214675D01*
X0191133Y0213149D01*
X0189966Y0211982D01*
X0188440Y0211350D01*
X0186789Y0211350D01*
X0185068Y0212178D02*
X0180870Y0212178D01*
X0181650Y0213177D02*
X0184085Y0213177D01*
X0183672Y0214175D02*
X0182074Y0214175D01*
X0183465Y0215174D02*
X0178115Y0215174D01*
X0178115Y0214175D02*
X0177115Y0214175D01*
X0177115Y0213177D02*
X0178115Y0213177D01*
X0178115Y0212178D02*
X0177115Y0212178D01*
X0174360Y0212178D02*
X0170162Y0212178D01*
X0169966Y0211982D02*
X0171133Y0213149D01*
X0171765Y0214675D01*
X0171765Y0216325D01*
X0171133Y0217851D01*
X0169966Y0219018D01*
X0168440Y0219650D01*
X0166789Y0219650D01*
X0165264Y0219018D01*
X0164097Y0217851D01*
X0163465Y0216325D01*
X0163465Y0214675D01*
X0164097Y0213149D01*
X0165264Y0211982D01*
X0166789Y0211350D01*
X0168440Y0211350D01*
X0169966Y0211982D01*
X0171145Y0213177D02*
X0173580Y0213177D01*
X0173156Y0214175D02*
X0171558Y0214175D01*
X0171765Y0215174D02*
X0177115Y0215174D01*
X0173014Y0216172D02*
X0171765Y0216172D01*
X0171415Y0217171D02*
X0173269Y0217171D01*
X0173807Y0218170D02*
X0170814Y0218170D01*
X0169604Y0219168D02*
X0174753Y0219168D01*
X0180477Y0219168D02*
X0185626Y0219168D01*
X0184416Y0218170D02*
X0181423Y0218170D01*
X0181961Y0217171D02*
X0183815Y0217171D01*
X0183465Y0216172D02*
X0182216Y0216172D01*
X0189604Y0219168D02*
X0195626Y0219168D01*
X0195264Y0219018D02*
X0194097Y0217851D01*
X0193465Y0216325D01*
X0193465Y0214675D01*
X0194097Y0213149D01*
X0195264Y0211982D01*
X0196789Y0211350D01*
X0198440Y0211350D01*
X0199966Y0211982D01*
X0201133Y0213149D01*
X0201765Y0214675D01*
X0201765Y0216325D01*
X0201133Y0217851D01*
X0199966Y0219018D01*
X0198440Y0219650D01*
X0196789Y0219650D01*
X0195264Y0219018D01*
X0194416Y0218170D02*
X0190814Y0218170D01*
X0191415Y0217171D02*
X0193815Y0217171D01*
X0193465Y0216172D02*
X0191765Y0216172D01*
X0191765Y0215174D02*
X0193465Y0215174D01*
X0193672Y0214175D02*
X0191558Y0214175D01*
X0191145Y0213177D02*
X0194085Y0213177D01*
X0195068Y0212178D02*
X0190162Y0212178D01*
X0200162Y0212178D02*
X0205068Y0212178D01*
X0205264Y0211982D02*
X0206789Y0211350D01*
X0208440Y0211350D01*
X0209966Y0211982D01*
X0211133Y0213149D01*
X0211765Y0214675D01*
X0211765Y0216325D01*
X0211133Y0217851D01*
X0209966Y0219018D01*
X0208440Y0219650D01*
X0206789Y0219650D01*
X0205264Y0219018D01*
X0204097Y0217851D01*
X0203465Y0216325D01*
X0203465Y0214675D01*
X0204097Y0213149D01*
X0205264Y0211982D01*
X0204085Y0213177D02*
X0201145Y0213177D01*
X0201558Y0214175D02*
X0203672Y0214175D01*
X0203465Y0215174D02*
X0201765Y0215174D01*
X0201765Y0216172D02*
X0203465Y0216172D01*
X0203815Y0217171D02*
X0201415Y0217171D01*
X0200814Y0218170D02*
X0204416Y0218170D01*
X0205626Y0219168D02*
X0199604Y0219168D01*
X0209604Y0219168D02*
X0215626Y0219168D01*
X0215264Y0219018D02*
X0214097Y0217851D01*
X0213465Y0216325D01*
X0213465Y0214675D01*
X0214097Y0213149D01*
X0215264Y0211982D01*
X0216789Y0211350D01*
X0218440Y0211350D01*
X0219966Y0211982D01*
X0221133Y0213149D01*
X0221765Y0214675D01*
X0221765Y0216325D01*
X0221133Y0217851D01*
X0219966Y0219018D01*
X0218440Y0219650D01*
X0216789Y0219650D01*
X0215264Y0219018D01*
X0214416Y0218170D02*
X0210814Y0218170D01*
X0211415Y0217171D02*
X0213815Y0217171D01*
X0213465Y0216172D02*
X0211765Y0216172D01*
X0211765Y0215174D02*
X0213465Y0215174D01*
X0213672Y0214175D02*
X0211558Y0214175D01*
X0211145Y0213177D02*
X0214085Y0213177D01*
X0215068Y0212178D02*
X0210162Y0212178D01*
X0220162Y0212178D02*
X0225068Y0212178D01*
X0224085Y0213177D02*
X0221145Y0213177D01*
X0221558Y0214175D02*
X0223672Y0214175D01*
X0223465Y0215174D02*
X0221765Y0215174D01*
X0221765Y0216172D02*
X0223465Y0216172D01*
X0223815Y0217171D02*
X0221415Y0217171D01*
X0220814Y0218170D02*
X0224416Y0218170D01*
X0224326Y0219168D02*
X0219604Y0219168D01*
X0224115Y0221500D02*
X0141615Y0221500D01*
X0139115Y0219000D01*
X0138160Y0220167D02*
X0012515Y0220167D01*
X0012515Y0221165D02*
X0139159Y0221165D01*
X0140157Y0222164D02*
X0012515Y0222164D01*
X0012515Y0223162D02*
X0304115Y0223162D01*
X0304115Y0224161D02*
X0012515Y0224161D01*
X0012515Y0225159D02*
X0304115Y0225159D01*
X0304115Y0226158D02*
X0012515Y0226158D01*
X0012515Y0219168D02*
X0137615Y0219168D01*
X0137615Y0218170D02*
X0012515Y0218170D01*
X0012515Y0217171D02*
X0137615Y0217171D01*
X0137615Y0216172D02*
X0012515Y0216172D01*
X0012515Y0215174D02*
X0137615Y0215174D01*
X0137169Y0214175D02*
X0012515Y0214175D01*
X0012515Y0213177D02*
X0136171Y0213177D01*
X0150162Y0212178D02*
X0155068Y0212178D01*
X0155264Y0211982D02*
X0156789Y0211350D01*
X0158440Y0211350D01*
X0159966Y0211982D01*
X0161133Y0213149D01*
X0161765Y0214675D01*
X0161765Y0216325D01*
X0161133Y0217851D01*
X0159966Y0219018D01*
X0158440Y0219650D01*
X0156789Y0219650D01*
X0155264Y0219018D01*
X0154097Y0217851D01*
X0153465Y0216325D01*
X0153465Y0214675D01*
X0154097Y0213149D01*
X0155264Y0211982D01*
X0154085Y0213177D02*
X0151145Y0213177D01*
X0151558Y0214175D02*
X0153672Y0214175D01*
X0153465Y0215174D02*
X0151765Y0215174D01*
X0151765Y0216172D02*
X0153465Y0216172D01*
X0153815Y0217171D02*
X0151415Y0217171D01*
X0150814Y0218170D02*
X0154416Y0218170D01*
X0155626Y0219168D02*
X0149604Y0219168D01*
X0159604Y0219168D02*
X0165626Y0219168D01*
X0164416Y0218170D02*
X0160814Y0218170D01*
X0161415Y0217171D02*
X0163815Y0217171D01*
X0163465Y0216172D02*
X0161765Y0216172D01*
X0161765Y0215174D02*
X0163465Y0215174D01*
X0163672Y0214175D02*
X0161558Y0214175D01*
X0161145Y0213177D02*
X0164085Y0213177D01*
X0165068Y0212178D02*
X0160162Y0212178D01*
X0190615Y0198199D02*
X0280115Y0198199D01*
X0280115Y0197201D02*
X0190615Y0197201D01*
X0190615Y0196202D02*
X0280115Y0196202D01*
X0280115Y0195204D02*
X0190615Y0195204D01*
X0190615Y0194205D02*
X0280115Y0194205D01*
X0280115Y0193207D02*
X0190615Y0193207D01*
X0190615Y0192208D02*
X0280115Y0192208D01*
X0280115Y0191210D02*
X0252587Y0191210D01*
X0252547Y0191250D02*
X0250683Y0191250D01*
X0249365Y0189932D01*
X0249365Y0188068D01*
X0250683Y0186750D01*
X0252547Y0186750D01*
X0253865Y0188068D01*
X0253865Y0189932D01*
X0252547Y0191250D01*
X0253586Y0190211D02*
X0280115Y0190211D01*
X0280115Y0189213D02*
X0279958Y0189213D01*
X0276854Y0189213D02*
X0253865Y0189213D01*
X0253865Y0188214D02*
X0276156Y0188214D01*
X0276156Y0187216D02*
X0253013Y0187216D01*
X0250217Y0187216D02*
X0241680Y0187216D01*
X0241680Y0187044D02*
X0241680Y0188908D01*
X0240362Y0190226D01*
X0238498Y0190226D01*
X0237180Y0188908D01*
X0237180Y0187044D01*
X0238498Y0185726D01*
X0240362Y0185726D01*
X0241680Y0187044D01*
X0240853Y0186217D02*
X0266378Y0186217D01*
X0266844Y0186683D02*
X0265526Y0185365D01*
X0265526Y0183501D01*
X0266844Y0182183D01*
X0268708Y0182183D01*
X0270026Y0183501D01*
X0270026Y0185365D01*
X0268708Y0186683D01*
X0266844Y0186683D01*
X0265526Y0185219D02*
X0190615Y0185219D01*
X0190615Y0186217D02*
X0238007Y0186217D01*
X0237180Y0187216D02*
X0190615Y0187216D01*
X0190615Y0188214D02*
X0237180Y0188214D01*
X0237484Y0189213D02*
X0190615Y0189213D01*
X0190615Y0190211D02*
X0238483Y0190211D01*
X0240377Y0190211D02*
X0249644Y0190211D01*
X0249365Y0189213D02*
X0241376Y0189213D01*
X0241680Y0188214D02*
X0249365Y0188214D01*
X0250643Y0191210D02*
X0190615Y0191210D01*
X0190615Y0184220D02*
X0265526Y0184220D01*
X0265806Y0183222D02*
X0190615Y0183222D01*
X0190615Y0182223D02*
X0266804Y0182223D01*
X0268748Y0182223D02*
X0280115Y0182223D01*
X0280115Y0181225D02*
X0190615Y0181225D01*
X0190615Y0180226D02*
X0280115Y0180226D01*
X0279721Y0179228D02*
X0190615Y0179228D01*
X0190615Y0178229D02*
X0278723Y0178229D01*
X0280115Y0183222D02*
X0269747Y0183222D01*
X0270026Y0184220D02*
X0280115Y0184220D01*
X0280115Y0185219D02*
X0270026Y0185219D01*
X0269174Y0186217D02*
X0276590Y0186217D01*
X0260224Y0177231D02*
X0190615Y0177231D01*
X0190615Y0176232D02*
X0259226Y0176232D01*
X0258227Y0175234D02*
X0225433Y0175234D01*
X0225008Y0175659D02*
X0223144Y0175659D01*
X0221826Y0174341D01*
X0221826Y0172477D01*
X0223144Y0171159D01*
X0224204Y0171159D01*
X0224544Y0170820D01*
X0224544Y0162493D01*
X0223794Y0161743D01*
X0223794Y0159879D01*
X0225112Y0158561D01*
X0226976Y0158561D01*
X0228294Y0159879D01*
X0228294Y0161743D01*
X0227544Y0162493D01*
X0227544Y0172062D01*
X0226326Y0173281D01*
X0226326Y0174341D01*
X0225008Y0175659D01*
X0226326Y0174235D02*
X0257615Y0174235D01*
X0257615Y0173237D02*
X0232549Y0173237D01*
X0233018Y0172767D02*
X0231700Y0174085D01*
X0229837Y0174085D01*
X0228519Y0172767D01*
X0228519Y0170903D01*
X0229269Y0170153D01*
X0229269Y0164461D01*
X0228519Y0163712D01*
X0228519Y0161848D01*
X0229837Y0160530D01*
X0231700Y0160530D01*
X0233018Y0161848D01*
X0233018Y0163712D01*
X0232268Y0164461D01*
X0232268Y0170153D01*
X0233018Y0170903D01*
X0233018Y0172767D01*
X0233018Y0172238D02*
X0257615Y0172238D01*
X0257615Y0171239D02*
X0233018Y0171239D01*
X0232357Y0170241D02*
X0257615Y0170241D01*
X0257615Y0169242D02*
X0232268Y0169242D01*
X0232268Y0168244D02*
X0257615Y0168244D01*
X0257615Y0167245D02*
X0232268Y0167245D01*
X0232268Y0166247D02*
X0257615Y0166247D01*
X0257615Y0165248D02*
X0232268Y0165248D01*
X0232480Y0164250D02*
X0257615Y0164250D01*
X0257615Y0163251D02*
X0233018Y0163251D01*
X0233018Y0162253D02*
X0257615Y0162253D01*
X0257615Y0161254D02*
X0232425Y0161254D01*
X0230769Y0162780D02*
X0230769Y0171835D01*
X0229180Y0170241D02*
X0227544Y0170241D01*
X0227544Y0171239D02*
X0228519Y0171239D01*
X0228519Y0172238D02*
X0227368Y0172238D01*
X0226370Y0173237D02*
X0228988Y0173237D01*
X0226044Y0171441D02*
X0224076Y0173409D01*
X0221826Y0173237D02*
X0190615Y0173237D01*
X0190615Y0174235D02*
X0221826Y0174235D01*
X0222718Y0175234D02*
X0190615Y0175234D01*
X0190615Y0172238D02*
X0222065Y0172238D01*
X0223064Y0171239D02*
X0190615Y0171239D01*
X0190615Y0170241D02*
X0224544Y0170241D01*
X0224544Y0169242D02*
X0190615Y0169242D01*
X0190615Y0168244D02*
X0224544Y0168244D01*
X0224544Y0167245D02*
X0190615Y0167245D01*
X0190615Y0166247D02*
X0224544Y0166247D01*
X0224544Y0165248D02*
X0190615Y0165248D01*
X0190615Y0164250D02*
X0224544Y0164250D01*
X0224544Y0163251D02*
X0190615Y0163251D01*
X0190615Y0162253D02*
X0224304Y0162253D01*
X0223794Y0161254D02*
X0199255Y0161254D01*
X0199023Y0161486D02*
X0197159Y0161486D01*
X0195841Y0160168D01*
X0195841Y0158304D01*
X0197159Y0156986D01*
X0199023Y0156986D01*
X0200341Y0158304D01*
X0200341Y0160168D01*
X0199023Y0161486D01*
X0200254Y0160256D02*
X0223794Y0160256D01*
X0224416Y0159257D02*
X0200341Y0159257D01*
X0200296Y0158259D02*
X0257615Y0158259D01*
X0257615Y0159257D02*
X0227672Y0159257D01*
X0228294Y0160256D02*
X0257615Y0160256D01*
X0257615Y0157260D02*
X0199297Y0157260D01*
X0196885Y0157260D02*
X0190615Y0157260D01*
X0190615Y0156262D02*
X0257615Y0156262D01*
X0257615Y0155263D02*
X0190615Y0155263D01*
X0190615Y0154265D02*
X0257615Y0154265D01*
X0257615Y0153266D02*
X0190615Y0153266D01*
X0190615Y0152268D02*
X0257615Y0152268D01*
X0257615Y0151269D02*
X0190615Y0151269D01*
X0190615Y0150271D02*
X0257615Y0150271D01*
X0257615Y0149272D02*
X0200607Y0149272D01*
X0200204Y0149675D02*
X0198340Y0149675D01*
X0197022Y0148357D01*
X0197022Y0146493D01*
X0198340Y0145175D01*
X0200204Y0145175D01*
X0201522Y0146493D01*
X0201522Y0148357D01*
X0200204Y0149675D01*
X0201522Y0148274D02*
X0257615Y0148274D01*
X0257615Y0147275D02*
X0201522Y0147275D01*
X0201306Y0146277D02*
X0257615Y0146277D01*
X0257615Y0145278D02*
X0200307Y0145278D01*
X0198237Y0145278D02*
X0190615Y0145278D01*
X0190615Y0144280D02*
X0257615Y0144280D01*
X0257615Y0143281D02*
X0190615Y0143281D01*
X0190615Y0142283D02*
X0197798Y0142283D01*
X0198025Y0142510D02*
X0196707Y0141192D01*
X0196707Y0139328D01*
X0198025Y0138010D01*
X0199889Y0138010D01*
X0201207Y0139328D01*
X0201207Y0141192D01*
X0199889Y0142510D01*
X0198025Y0142510D01*
X0196800Y0141284D02*
X0190615Y0141284D01*
X0190615Y0140286D02*
X0196707Y0140286D01*
X0196748Y0139287D02*
X0190615Y0139287D01*
X0190615Y0138289D02*
X0197747Y0138289D01*
X0200168Y0138289D02*
X0257615Y0138289D01*
X0257615Y0139287D02*
X0201167Y0139287D01*
X0201207Y0140286D02*
X0257615Y0140286D01*
X0257615Y0141284D02*
X0201115Y0141284D01*
X0200117Y0142283D02*
X0257615Y0142283D01*
X0257615Y0137290D02*
X0190615Y0137290D01*
X0190615Y0136292D02*
X0257615Y0136292D01*
X0257615Y0135293D02*
X0190615Y0135293D01*
X0190615Y0134295D02*
X0257615Y0134295D01*
X0257615Y0133296D02*
X0190615Y0133296D01*
X0190615Y0132298D02*
X0257615Y0132298D01*
X0257615Y0131299D02*
X0190615Y0131299D01*
X0190615Y0130301D02*
X0257615Y0130301D01*
X0257615Y0129302D02*
X0190615Y0129302D01*
X0190615Y0128303D02*
X0195748Y0128303D01*
X0195939Y0128494D02*
X0194621Y0127176D01*
X0194621Y0125312D01*
X0195939Y0123994D01*
X0197803Y0123994D01*
X0199121Y0125312D01*
X0199121Y0127176D01*
X0197803Y0128494D01*
X0195939Y0128494D01*
X0194750Y0127305D02*
X0190615Y0127305D01*
X0190615Y0126306D02*
X0194621Y0126306D01*
X0194625Y0125308D02*
X0190615Y0125308D01*
X0190615Y0124309D02*
X0195624Y0124309D01*
X0198118Y0124309D02*
X0257303Y0124309D01*
X0257615Y0125308D02*
X0199117Y0125308D01*
X0199121Y0126306D02*
X0257615Y0126306D01*
X0257615Y0127305D02*
X0198992Y0127305D01*
X0197993Y0128303D02*
X0257615Y0128303D01*
X0256305Y0123311D02*
X0190615Y0123311D01*
X0190615Y0122312D02*
X0255306Y0122312D01*
X0254308Y0121314D02*
X0190615Y0121314D01*
X0190615Y0120315D02*
X0254072Y0120315D01*
X0254072Y0119317D02*
X0190919Y0119317D01*
X0191918Y0118318D02*
X0254072Y0118318D01*
X0254072Y0117320D02*
X0192916Y0117320D01*
X0193915Y0116321D02*
X0254072Y0116321D01*
X0254072Y0115323D02*
X0194913Y0115323D01*
X0192668Y0113326D02*
X0175615Y0113326D01*
X0189115Y0113326D01*
X0189115Y0114324D02*
X0175615Y0114324D01*
X0191669Y0114324D01*
X0190671Y0115323D02*
X0175615Y0115323D01*
X0189115Y0115323D01*
X0189115Y0116321D02*
X0175615Y0116321D01*
X0189672Y0116321D01*
X0188674Y0117320D02*
X0175615Y0117320D01*
X0188674Y0117320D01*
X0187675Y0118318D02*
X0175615Y0118318D01*
X0187675Y0118318D01*
X0187615Y0119317D02*
X0175615Y0119317D01*
X0187615Y0119317D01*
X0187615Y0120315D02*
X0175615Y0120315D01*
X0187615Y0120315D01*
X0187615Y0121314D02*
X0175615Y0121314D01*
X0187615Y0121314D01*
X0187615Y0122312D02*
X0175615Y0122312D01*
X0187615Y0122312D01*
X0187615Y0123311D02*
X0175615Y0123311D01*
X0187615Y0123311D01*
X0187615Y0124309D02*
X0175615Y0124309D01*
X0187615Y0124309D01*
X0187615Y0125308D02*
X0175615Y0125308D01*
X0187615Y0125308D01*
X0187615Y0126306D02*
X0176043Y0126306D01*
X0187615Y0126306D01*
X0187615Y0127305D02*
X0177041Y0127305D01*
X0187615Y0127305D01*
X0187615Y0128303D02*
X0178040Y0128303D01*
X0187615Y0128303D01*
X0187615Y0129302D02*
X0179038Y0129302D01*
X0187615Y0129302D01*
X0187615Y0130301D02*
X0180037Y0130301D01*
X0187615Y0130301D01*
X0187615Y0131299D02*
X0181035Y0131299D01*
X0187615Y0131299D01*
X0187615Y0132298D02*
X0182034Y0132298D01*
X0187615Y0132298D01*
X0187615Y0133296D02*
X0183032Y0133296D01*
X0187615Y0133296D01*
X0187615Y0134295D02*
X0184031Y0134295D01*
X0187615Y0134295D01*
X0187615Y0135293D02*
X0185029Y0135293D01*
X0187615Y0135293D01*
X0187615Y0136292D02*
X0186028Y0136292D01*
X0187615Y0136292D01*
X0187615Y0137290D02*
X0187026Y0137290D01*
X0187615Y0137290D01*
X0184115Y0141500D02*
X0159115Y0116500D01*
X0159115Y0111500D01*
X0156865Y0111329D02*
X0139115Y0111329D01*
X0156865Y0111329D01*
X0156865Y0112327D02*
X0139115Y0112327D01*
X0156865Y0112327D01*
X0157615Y0113326D02*
X0139115Y0113326D01*
X0157615Y0113326D01*
X0157615Y0114324D02*
X0139115Y0114324D01*
X0157615Y0114324D01*
X0157615Y0115323D02*
X0139115Y0115323D01*
X0157615Y0115323D01*
X0157615Y0116321D02*
X0139115Y0116321D01*
X0157615Y0116321D01*
X0157814Y0117320D02*
X0139115Y0117320D01*
X0157814Y0117320D01*
X0158812Y0118318D02*
X0139115Y0118318D01*
X0158812Y0118318D01*
X0159811Y0119317D02*
X0139115Y0119317D01*
X0159811Y0119317D01*
X0160809Y0120315D02*
X0139115Y0120315D01*
X0160809Y0120315D01*
X0161808Y0121314D02*
X0139115Y0121314D01*
X0161808Y0121314D01*
X0162806Y0122312D02*
X0139115Y0122312D01*
X0162806Y0122312D01*
X0163805Y0123311D02*
X0139115Y0123311D01*
X0163805Y0123311D01*
X0164803Y0124309D02*
X0139115Y0124309D01*
X0164803Y0124309D01*
X0165802Y0125308D02*
X0139115Y0125308D01*
X0165802Y0125308D01*
X0166800Y0126306D02*
X0139115Y0126306D01*
X0166800Y0126306D01*
X0167799Y0127305D02*
X0139115Y0127305D01*
X0167799Y0127305D01*
X0168797Y0128303D02*
X0139115Y0128303D01*
X0168797Y0128303D01*
X0169796Y0129302D02*
X0139115Y0129302D01*
X0169796Y0129302D01*
X0170794Y0130301D02*
X0139115Y0130301D01*
X0170794Y0130301D01*
X0171793Y0131299D02*
X0139115Y0131299D01*
X0171793Y0131299D01*
X0172791Y0132298D02*
X0139115Y0132298D01*
X0172791Y0132298D01*
X0173790Y0133296D02*
X0139115Y0133296D01*
X0173790Y0133296D01*
X0174788Y0134295D02*
X0139115Y0134295D01*
X0174788Y0134295D01*
X0175787Y0135293D02*
X0139115Y0135293D01*
X0175787Y0135293D01*
X0176785Y0136292D02*
X0139115Y0136292D01*
X0176785Y0136292D01*
X0177784Y0137290D02*
X0139115Y0137290D01*
X0177784Y0137290D01*
X0178782Y0138289D02*
X0139115Y0138289D01*
X0178782Y0138289D01*
X0179781Y0139287D02*
X0139115Y0139287D01*
X0179781Y0139287D01*
X0180779Y0140286D02*
X0139115Y0140286D01*
X0180779Y0140286D01*
X0181778Y0141284D02*
X0139115Y0141284D01*
X0181778Y0141284D01*
X0182615Y0142283D02*
X0139115Y0142283D01*
X0182615Y0142283D01*
X0182615Y0143281D02*
X0181184Y0143281D01*
X0182615Y0143281D01*
X0182615Y0144280D02*
X0181818Y0144280D01*
X0182615Y0144280D01*
X0181818Y0143914D02*
X0181818Y0145778D01*
X0180500Y0147096D01*
X0178636Y0147096D01*
X0177318Y0145778D01*
X0177318Y0143914D01*
X0178636Y0142596D01*
X0180500Y0142596D01*
X0181818Y0143914D01*
X0180500Y0142596D01*
X0178636Y0142596D01*
X0177318Y0143914D01*
X0177318Y0145778D01*
X0178636Y0147096D01*
X0180500Y0147096D01*
X0181818Y0145778D01*
X0181818Y0143914D01*
X0181818Y0145278D02*
X0182615Y0145278D01*
X0181818Y0145278D01*
X0181319Y0146277D02*
X0182615Y0146277D01*
X0181319Y0146277D01*
X0182615Y0147275D02*
X0139115Y0147275D01*
X0182615Y0147275D01*
X0182615Y0148274D02*
X0139115Y0148274D01*
X0182615Y0148274D01*
X0182615Y0149272D02*
X0139115Y0149272D01*
X0182615Y0149272D01*
X0182615Y0150271D02*
X0139115Y0150271D01*
X0182615Y0150271D01*
X0182615Y0151269D02*
X0139115Y0151269D01*
X0182615Y0151269D01*
X0182615Y0152268D02*
X0139115Y0152268D01*
X0182615Y0152268D01*
X0182615Y0153266D02*
X0139115Y0153266D01*
X0182615Y0153266D01*
X0182615Y0154265D02*
X0139115Y0154265D01*
X0182615Y0154265D01*
X0182615Y0155263D02*
X0139115Y0155263D01*
X0182615Y0155263D01*
X0182615Y0156262D02*
X0139115Y0156262D01*
X0182615Y0156262D01*
X0182615Y0157260D02*
X0139115Y0157260D01*
X0182615Y0157260D01*
X0182615Y0158259D02*
X0139115Y0158259D01*
X0182615Y0158259D01*
X0182615Y0159257D02*
X0139115Y0159257D01*
X0182615Y0159257D01*
X0182615Y0160256D02*
X0139115Y0160256D01*
X0182615Y0160256D01*
X0182615Y0161254D02*
X0139115Y0161254D01*
X0182615Y0161254D01*
X0182615Y0162253D02*
X0139115Y0162253D01*
X0182615Y0162253D01*
X0182615Y0163251D02*
X0139115Y0163251D01*
X0182615Y0163251D01*
X0182615Y0164250D02*
X0139115Y0164250D01*
X0182615Y0164250D01*
X0182615Y0165248D02*
X0139115Y0165248D01*
X0182615Y0165248D01*
X0182615Y0166247D02*
X0139115Y0166247D01*
X0182615Y0166247D01*
X0182615Y0167245D02*
X0139115Y0167245D01*
X0182615Y0167245D01*
X0182615Y0168244D02*
X0139115Y0168244D01*
X0182615Y0168244D01*
X0182615Y0169242D02*
X0139115Y0169242D01*
X0182615Y0169242D01*
X0182615Y0170241D02*
X0139115Y0170241D01*
X0182615Y0170241D01*
X0182615Y0171239D02*
X0139115Y0171239D01*
X0182615Y0171239D01*
X0182615Y0172238D02*
X0139115Y0172238D01*
X0182615Y0172238D01*
X0182615Y0173237D02*
X0139115Y0173237D01*
X0182615Y0173237D01*
X0182615Y0174235D02*
X0012515Y0174235D01*
X0012515Y0175234D02*
X0182615Y0175234D01*
X0182615Y0176232D02*
X0012515Y0176232D01*
X0012515Y0177231D02*
X0182615Y0177231D01*
X0182615Y0178229D02*
X0012515Y0178229D01*
X0012515Y0179228D02*
X0182615Y0179228D01*
X0182615Y0180226D02*
X0046023Y0180226D01*
X0046365Y0180568D02*
X0045047Y0179250D01*
X0043183Y0179250D01*
X0041865Y0180568D01*
X0041865Y0182432D01*
X0043183Y0183750D01*
X0045047Y0183750D01*
X0046365Y0182432D01*
X0046365Y0180568D01*
X0046365Y0181225D02*
X0182615Y0181225D01*
X0182615Y0182223D02*
X0046365Y0182223D01*
X0045575Y0183222D02*
X0182615Y0183222D01*
X0182615Y0184220D02*
X0012515Y0184220D01*
X0012515Y0183222D02*
X0042655Y0183222D01*
X0041865Y0182223D02*
X0012515Y0182223D01*
X0012515Y0181225D02*
X0041865Y0181225D01*
X0042207Y0180226D02*
X0012515Y0180226D01*
X0012515Y0185219D02*
X0068275Y0185219D01*
X0067276Y0186217D02*
X0029284Y0186217D01*
X0032181Y0187216D02*
X0066278Y0187216D01*
X0063897Y0188214D02*
X0056736Y0188214D01*
X0056573Y0188051D02*
X0058917Y0190394D01*
X0058917Y0193708D01*
X0056573Y0196051D01*
X0053260Y0196051D01*
X0050917Y0193708D01*
X0050917Y0190394D01*
X0053260Y0188051D01*
X0056573Y0188051D01*
X0057735Y0189213D02*
X0062898Y0189213D01*
X0061900Y0190211D02*
X0058733Y0190211D01*
X0058917Y0191210D02*
X0061717Y0191210D01*
X0061717Y0192208D02*
X0058917Y0192208D01*
X0058917Y0193207D02*
X0061717Y0193207D01*
X0062214Y0194205D02*
X0058419Y0194205D01*
X0057421Y0195204D02*
X0063212Y0195204D01*
X0062121Y0198199D02*
X0069312Y0198199D01*
X0068313Y0199198D02*
X0063120Y0199198D01*
X0064119Y0200196D02*
X0067315Y0200196D01*
X0067117Y0201195D02*
X0064317Y0201195D01*
X0064317Y0202193D02*
X0067117Y0202193D01*
X0067117Y0203192D02*
X0064317Y0203192D01*
X0063834Y0204190D02*
X0067599Y0204190D01*
X0068597Y0205189D02*
X0062836Y0205189D01*
X0073115Y0206187D02*
X0090489Y0206187D01*
X0092217Y0206187D02*
X0093217Y0206187D01*
X0093217Y0205189D02*
X0092217Y0205189D01*
X0092217Y0204190D02*
X0093217Y0204190D01*
X0093217Y0203192D02*
X0092217Y0203192D01*
X0092217Y0200196D02*
X0093217Y0200196D01*
X0093217Y0199198D02*
X0092217Y0199198D01*
X0092217Y0198199D02*
X0093217Y0198199D01*
X0090204Y0198199D02*
X0083721Y0198199D01*
X0084720Y0199198D02*
X0089206Y0199198D01*
X0088217Y0200196D02*
X0085719Y0200196D01*
X0080112Y0198199D02*
X0072921Y0198199D01*
X0074860Y0196051D02*
X0072517Y0193708D01*
X0072517Y0190394D01*
X0074860Y0188051D01*
X0078173Y0188051D01*
X0080517Y0190394D01*
X0080517Y0193708D01*
X0078173Y0196051D01*
X0074860Y0196051D01*
X0074012Y0195204D02*
X0068221Y0195204D01*
X0069219Y0194205D02*
X0073014Y0194205D01*
X0072517Y0193207D02*
X0069717Y0193207D01*
X0069717Y0192208D02*
X0072517Y0192208D01*
X0072517Y0191210D02*
X0069717Y0191210D01*
X0069533Y0190211D02*
X0072700Y0190211D01*
X0073698Y0189213D02*
X0068535Y0189213D01*
X0069522Y0188214D02*
X0074697Y0188214D01*
X0078336Y0188214D02*
X0085497Y0188214D01*
X0085660Y0188051D02*
X0088973Y0188051D01*
X0091317Y0190394D01*
X0091317Y0193708D01*
X0088973Y0196051D01*
X0085660Y0196051D01*
X0083317Y0193708D01*
X0083317Y0190394D01*
X0085660Y0188051D01*
X0084498Y0189213D02*
X0079335Y0189213D01*
X0080333Y0190211D02*
X0083500Y0190211D01*
X0083317Y0191210D02*
X0080517Y0191210D01*
X0080517Y0192208D02*
X0083317Y0192208D01*
X0083317Y0193207D02*
X0080517Y0193207D01*
X0080019Y0194205D02*
X0083814Y0194205D01*
X0084812Y0195204D02*
X0079021Y0195204D01*
X0089821Y0195204D02*
X0095612Y0195204D01*
X0096460Y0196051D02*
X0094117Y0193708D01*
X0094117Y0190394D01*
X0096460Y0188051D01*
X0099773Y0188051D01*
X0102117Y0190394D01*
X0102117Y0193708D01*
X0099773Y0196051D01*
X0096460Y0196051D01*
X0094614Y0194205D02*
X0090819Y0194205D01*
X0091317Y0193207D02*
X0094117Y0193207D01*
X0094117Y0192208D02*
X0091317Y0192208D01*
X0091317Y0191210D02*
X0094117Y0191210D01*
X0094300Y0190211D02*
X0091133Y0190211D01*
X0090135Y0189213D02*
X0095298Y0189213D01*
X0096297Y0188214D02*
X0089136Y0188214D01*
X0099936Y0188214D02*
X0106208Y0188214D01*
X0107206Y0189213D02*
X0100935Y0189213D01*
X0101933Y0190211D02*
X0107615Y0190211D01*
X0107615Y0191210D02*
X0102117Y0191210D01*
X0102117Y0192208D02*
X0107615Y0192208D01*
X0107615Y0193207D02*
X0102117Y0193207D01*
X0101619Y0194205D02*
X0107615Y0194205D01*
X0107615Y0195204D02*
X0100621Y0195204D01*
X0107615Y0196202D02*
X0038217Y0196202D01*
X0038110Y0195204D02*
X0052412Y0195204D01*
X0051414Y0194205D02*
X0037842Y0194205D01*
X0037574Y0193207D02*
X0050917Y0193207D01*
X0050917Y0192208D02*
X0037122Y0192208D01*
X0036546Y0191210D02*
X0050917Y0191210D01*
X0051100Y0190211D02*
X0035933Y0190211D01*
X0034934Y0189213D02*
X0052098Y0189213D01*
X0053097Y0188214D02*
X0033910Y0188214D01*
X0025149Y0186217D02*
X0012515Y0186217D01*
X0012515Y0187216D02*
X0022252Y0187216D01*
X0020523Y0188214D02*
X0012515Y0188214D01*
X0012515Y0189213D02*
X0019499Y0189213D01*
X0018500Y0190211D02*
X0012515Y0190211D01*
X0012515Y0191210D02*
X0017887Y0191210D01*
X0017311Y0192208D02*
X0012515Y0192208D01*
X0012515Y0193207D02*
X0016859Y0193207D01*
X0016591Y0194205D02*
X0012515Y0194205D01*
X0012515Y0195204D02*
X0016323Y0195204D01*
X0016217Y0196202D02*
X0012515Y0196202D01*
X0012515Y0197201D02*
X0016217Y0197201D01*
X0016217Y0198199D02*
X0012515Y0198199D01*
X0012515Y0199198D02*
X0016404Y0199198D01*
X0016671Y0200196D02*
X0012515Y0200196D01*
X0012515Y0201195D02*
X0016939Y0201195D01*
X0017484Y0202193D02*
X0012515Y0202193D01*
X0012515Y0203192D02*
X0018060Y0203192D01*
X0018799Y0204190D02*
X0012515Y0204190D01*
X0012515Y0205189D02*
X0019798Y0205189D01*
X0021041Y0206187D02*
X0012515Y0206187D01*
X0065717Y0192051D02*
X0065717Y0189898D01*
X0069115Y0186500D01*
X0106615Y0186500D01*
X0109115Y0189000D01*
X0109115Y0206500D01*
X0111615Y0209000D01*
X0234115Y0209000D01*
X0237615Y0212500D01*
X0237615Y0215500D01*
X0241765Y0215174D02*
X0249465Y0215174D01*
X0249465Y0214675D02*
X0249465Y0216325D01*
X0250097Y0217851D01*
X0251264Y0219018D01*
X0252789Y0219650D01*
X0254440Y0219650D01*
X0255966Y0219018D01*
X0257133Y0217851D01*
X0257765Y0216325D01*
X0257765Y0214675D01*
X0257133Y0213149D01*
X0255966Y0211982D01*
X0254440Y0211350D01*
X0252789Y0211350D01*
X0251264Y0211982D01*
X0250097Y0213149D01*
X0249465Y0214675D01*
X0249672Y0214175D02*
X0241765Y0214175D01*
X0241765Y0213177D02*
X0250085Y0213177D01*
X0251068Y0212178D02*
X0241765Y0212178D01*
X0238416Y0211180D02*
X0264674Y0211180D01*
X0263675Y0210181D02*
X0237418Y0210181D01*
X0236419Y0209183D02*
X0262677Y0209183D01*
X0261678Y0208184D02*
X0235421Y0208184D01*
X0241765Y0216172D02*
X0249465Y0216172D01*
X0249815Y0217171D02*
X0241765Y0217171D01*
X0241765Y0218170D02*
X0250416Y0218170D01*
X0251626Y0219168D02*
X0241661Y0219168D01*
X0233569Y0219168D02*
X0229604Y0219168D01*
X0230814Y0218170D02*
X0233465Y0218170D01*
X0255604Y0219168D02*
X0261626Y0219168D01*
X0260416Y0218170D02*
X0256814Y0218170D01*
X0257415Y0217171D02*
X0259815Y0217171D01*
X0259465Y0216172D02*
X0257765Y0216172D01*
X0257765Y0215174D02*
X0259465Y0215174D01*
X0259672Y0214175D02*
X0257558Y0214175D01*
X0257145Y0213177D02*
X0260085Y0213177D01*
X0261068Y0212178D02*
X0256162Y0212178D01*
X0263924Y0206187D02*
X0264181Y0206187D01*
X0264922Y0207186D02*
X0265180Y0207186D01*
X0265921Y0208184D02*
X0266178Y0208184D01*
X0266919Y0209183D02*
X0267177Y0209183D01*
X0267918Y0210181D02*
X0268175Y0210181D01*
X0267669Y0214175D02*
X0267558Y0214175D01*
X0267765Y0215174D02*
X0268668Y0215174D01*
X0269465Y0216172D02*
X0267765Y0216172D01*
X0267415Y0217171D02*
X0269815Y0217171D01*
X0270416Y0218170D02*
X0266814Y0218170D01*
X0265604Y0219168D02*
X0271626Y0219168D01*
X0285604Y0219168D02*
X0291626Y0219168D01*
X0290416Y0218170D02*
X0286814Y0218170D01*
X0287415Y0217171D02*
X0289815Y0217171D01*
X0289465Y0216172D02*
X0287765Y0216172D01*
X0287765Y0215174D02*
X0289465Y0215174D01*
X0289672Y0214175D02*
X0287558Y0214175D01*
X0287145Y0213177D02*
X0290085Y0213177D01*
X0291068Y0212178D02*
X0286162Y0212178D01*
X0282184Y0204190D02*
X0271427Y0204190D01*
X0270428Y0203192D02*
X0281185Y0203192D01*
X0280187Y0202193D02*
X0269430Y0202193D01*
X0268431Y0201195D02*
X0280115Y0201195D01*
X0280115Y0200196D02*
X0267433Y0200196D01*
X0280115Y0199198D02*
X0191434Y0199198D01*
X0226044Y0171441D02*
X0226044Y0160811D01*
X0227784Y0162253D02*
X0228519Y0162253D01*
X0228519Y0163251D02*
X0227544Y0163251D01*
X0227544Y0164250D02*
X0229057Y0164250D01*
X0229269Y0165248D02*
X0227544Y0165248D01*
X0227544Y0166247D02*
X0229269Y0166247D01*
X0229269Y0167245D02*
X0227544Y0167245D01*
X0227544Y0168244D02*
X0229269Y0168244D01*
X0229269Y0169242D02*
X0227544Y0169242D01*
X0228294Y0161254D02*
X0229112Y0161254D01*
X0196928Y0161254D02*
X0190615Y0161254D01*
X0190615Y0160256D02*
X0195929Y0160256D01*
X0195841Y0159257D02*
X0190615Y0159257D01*
X0190615Y0158259D02*
X0195887Y0158259D01*
X0197937Y0149272D02*
X0190615Y0149272D01*
X0190615Y0148274D02*
X0197022Y0148274D01*
X0197022Y0147275D02*
X0190615Y0147275D01*
X0190615Y0146277D02*
X0197239Y0146277D01*
X0177816Y0146277D02*
X0139115Y0146277D01*
X0177816Y0146277D01*
X0177318Y0145278D02*
X0139115Y0145278D01*
X0177318Y0145278D01*
X0177318Y0144280D02*
X0139115Y0144280D01*
X0177318Y0144280D01*
X0177951Y0143281D02*
X0139115Y0143281D01*
X0177951Y0143281D01*
X0163032Y0139335D02*
X0163032Y0152524D01*
X0109115Y0130301D02*
X0012515Y0130301D01*
X0012515Y0131299D02*
X0068115Y0131299D01*
X0068115Y0132298D02*
X0012515Y0132298D01*
X0012515Y0133296D02*
X0068115Y0133296D01*
X0068115Y0134295D02*
X0012515Y0134295D01*
X0012515Y0135293D02*
X0027424Y0135293D01*
X0027054Y0135392D02*
X0029852Y0134643D01*
X0032748Y0134643D01*
X0035546Y0135392D01*
X0038054Y0136840D01*
X0040102Y0138888D01*
X0041550Y0141397D01*
X0042300Y0144194D01*
X0042300Y0147091D01*
X0041550Y0149888D01*
X0040102Y0152397D01*
X0038054Y0154445D01*
X0035546Y0155893D01*
X0032748Y0156643D01*
X0029852Y0156643D01*
X0027054Y0155893D01*
X0024546Y0154445D01*
X0022498Y0152397D01*
X0021050Y0149888D01*
X0020300Y0147091D01*
X0020300Y0144194D01*
X0021050Y0141397D01*
X0022498Y0138888D01*
X0024546Y0136840D01*
X0027054Y0135392D01*
X0025496Y0136292D02*
X0012515Y0136292D01*
X0012515Y0137290D02*
X0024096Y0137290D01*
X0023098Y0138289D02*
X0012515Y0138289D01*
X0012515Y0139287D02*
X0022268Y0139287D01*
X0021691Y0140286D02*
X0012515Y0140286D01*
X0012515Y0141284D02*
X0021115Y0141284D01*
X0020812Y0142283D02*
X0012515Y0142283D01*
X0012515Y0143281D02*
X0020545Y0143281D01*
X0020300Y0144280D02*
X0012515Y0144280D01*
X0012515Y0145278D02*
X0020300Y0145278D01*
X0020300Y0146277D02*
X0012515Y0146277D01*
X0012515Y0147275D02*
X0020349Y0147275D01*
X0020617Y0148274D02*
X0012515Y0148274D01*
X0012515Y0149272D02*
X0020885Y0149272D01*
X0021270Y0150271D02*
X0012515Y0150271D01*
X0012515Y0151269D02*
X0021847Y0151269D01*
X0022423Y0152268D02*
X0012515Y0152268D01*
X0012515Y0153266D02*
X0023367Y0153266D01*
X0024366Y0154265D02*
X0012515Y0154265D01*
X0012515Y0155263D02*
X0025964Y0155263D01*
X0028431Y0156262D02*
X0012515Y0156262D01*
X0012515Y0157260D02*
X0068115Y0157260D01*
X0068115Y0156262D02*
X0034169Y0156262D01*
X0036636Y0155263D02*
X0068115Y0155263D01*
X0068115Y0154265D02*
X0038234Y0154265D01*
X0039233Y0153266D02*
X0068115Y0153266D01*
X0068115Y0152268D02*
X0040177Y0152268D01*
X0040753Y0151269D02*
X0068115Y0151269D01*
X0068115Y0150271D02*
X0041330Y0150271D01*
X0041715Y0149272D02*
X0068115Y0149272D01*
X0068115Y0148274D02*
X0058023Y0148274D01*
X0057547Y0148750D02*
X0055683Y0148750D01*
X0054365Y0147432D01*
X0054365Y0145568D01*
X0055683Y0144250D01*
X0057547Y0144250D01*
X0058865Y0145568D01*
X0058865Y0147432D01*
X0057547Y0148750D01*
X0058865Y0147275D02*
X0068115Y0147275D01*
X0068115Y0146277D02*
X0058865Y0146277D01*
X0058575Y0145278D02*
X0068115Y0145278D01*
X0068115Y0144280D02*
X0057577Y0144280D01*
X0055653Y0144280D02*
X0042300Y0144280D01*
X0042300Y0145278D02*
X0054655Y0145278D01*
X0054365Y0146277D02*
X0042300Y0146277D01*
X0042251Y0147275D02*
X0054365Y0147275D01*
X0055207Y0148274D02*
X0041983Y0148274D01*
X0042055Y0143281D02*
X0068115Y0143281D01*
X0068115Y0142283D02*
X0041788Y0142283D01*
X0041485Y0141284D02*
X0068115Y0141284D01*
X0068115Y0140286D02*
X0040909Y0140286D01*
X0040332Y0139287D02*
X0068115Y0139287D01*
X0068115Y0138289D02*
X0039502Y0138289D01*
X0038504Y0137290D02*
X0068115Y0137290D01*
X0068115Y0136292D02*
X0037104Y0136292D01*
X0035176Y0135293D02*
X0068115Y0135293D01*
X0087048Y0142484D02*
X0087048Y0154886D01*
X0068115Y0158259D02*
X0012515Y0158259D01*
X0012515Y0129302D02*
X0109115Y0129302D01*
X0109115Y0128303D02*
X0012515Y0128303D01*
X0012515Y0127305D02*
X0109115Y0127305D01*
X0109115Y0126306D02*
X0012515Y0126306D01*
X0012515Y0125308D02*
X0109115Y0125308D01*
X0139115Y0110330D02*
X0157103Y0110330D01*
X0139115Y0110330D01*
X0139115Y0109332D02*
X0158101Y0109332D01*
X0139115Y0109332D01*
X0139115Y0108333D02*
X0162766Y0108333D01*
X0139115Y0108333D01*
X0139115Y0107335D02*
X0161865Y0107335D01*
X0139115Y0107335D01*
X0139115Y0106336D02*
X0161865Y0106336D01*
X0139115Y0106336D01*
X0139115Y0105338D02*
X0162095Y0105338D01*
X0139115Y0105338D01*
X0139115Y0104339D02*
X0163094Y0104339D01*
X0139115Y0104339D01*
X0139115Y0103341D02*
X0167774Y0103341D01*
X0139115Y0103341D01*
X0139115Y0102342D02*
X0166865Y0102342D01*
X0139115Y0102342D01*
X0139115Y0101344D02*
X0166865Y0101344D01*
X0139115Y0101344D01*
X0139115Y0100345D02*
X0167088Y0100345D01*
X0139115Y0100345D01*
X0139115Y0099347D02*
X0168086Y0099347D01*
X0139115Y0099347D01*
X0139115Y0086366D02*
X0168299Y0086366D01*
X0139115Y0086366D01*
X0139115Y0085368D02*
X0167869Y0085368D01*
X0139115Y0085368D01*
X0139115Y0084369D02*
X0167869Y0084369D01*
X0139115Y0084369D01*
X0139115Y0083370D02*
X0168570Y0083370D01*
X0139115Y0083370D01*
X0166865Y0100568D02*
X0168183Y0099250D01*
X0170047Y0099250D01*
X0171365Y0100568D01*
X0171365Y0102432D01*
X0170047Y0103750D01*
X0168183Y0103750D01*
X0166865Y0102432D01*
X0166865Y0100568D01*
X0168183Y0099250D01*
X0170047Y0099250D01*
X0171365Y0100568D01*
X0171365Y0102432D01*
X0170047Y0103750D01*
X0168183Y0103750D01*
X0166865Y0102432D01*
X0166865Y0100568D01*
X0165047Y0104250D02*
X0166365Y0105568D01*
X0166365Y0107432D01*
X0165047Y0108750D01*
X0163183Y0108750D01*
X0161865Y0107432D01*
X0161865Y0105568D01*
X0163183Y0104250D01*
X0165047Y0104250D01*
X0166365Y0105568D01*
X0166365Y0107432D01*
X0165047Y0108750D01*
X0163183Y0108750D01*
X0161865Y0107432D01*
X0161865Y0105568D01*
X0163183Y0104250D01*
X0165047Y0104250D01*
X0175615Y0104339D02*
X0200594Y0104339D01*
X0199595Y0105338D02*
X0175615Y0105338D01*
X0189115Y0105338D01*
X0189115Y0106336D02*
X0175615Y0106336D01*
X0199365Y0106336D01*
X0198659Y0107335D02*
X0175615Y0107335D01*
X0189115Y0107335D01*
X0189115Y0108333D02*
X0175615Y0108333D01*
X0197660Y0108333D01*
X0196662Y0109332D02*
X0175615Y0109332D01*
X0189115Y0109332D01*
X0189115Y0110330D02*
X0175615Y0110330D01*
X0195663Y0110330D01*
X0194665Y0111329D02*
X0175615Y0111329D01*
X0189115Y0111329D01*
X0189115Y0112327D02*
X0175615Y0112327D01*
X0193666Y0112327D01*
X0189115Y0104339D02*
X0175615Y0104339D01*
X0187081Y0070390D02*
X0187992Y0070390D01*
X0187081Y0070390D01*
X0187081Y0067394D02*
X0187224Y0067394D01*
X0187081Y0067394D01*
X0187081Y0066396D02*
X0188222Y0066396D01*
X0187081Y0066396D01*
X0186244Y0065397D02*
X0244752Y0065397D01*
X0244562Y0066396D02*
X0190362Y0066396D01*
X0191361Y0067394D02*
X0244562Y0067394D01*
X0245751Y0064399D02*
X0185245Y0064399D01*
X0189115Y0064399D01*
X0189115Y0065397D02*
X0186244Y0065397D01*
X0189115Y0045427D02*
X0139115Y0045427D01*
X0267360Y0045427D01*
X0266865Y0044429D02*
X0139115Y0044429D01*
X0189115Y0044429D01*
X0189115Y0043430D02*
X0139115Y0043430D01*
X0266865Y0043430D01*
X0267501Y0042432D02*
X0139115Y0042432D01*
X0189115Y0042432D01*
X0189115Y0041433D02*
X0139115Y0041433D01*
X0169050Y0039086D02*
X0169050Y0037222D01*
X0170368Y0035904D01*
X0172232Y0035904D01*
X0173550Y0037222D01*
X0173550Y0039086D01*
X0172232Y0040404D01*
X0170368Y0040404D01*
X0169050Y0039086D01*
X0169050Y0037222D01*
X0170368Y0035904D01*
X0172232Y0035904D01*
X0173550Y0037222D01*
X0173550Y0039086D01*
X0172232Y0040404D01*
X0170368Y0040404D01*
X0169050Y0039086D01*
X0226311Y0029451D02*
X0230212Y0029451D01*
X0229332Y0028452D02*
X0227309Y0028452D01*
X0227893Y0027454D02*
X0228782Y0027454D01*
X0228501Y0026455D02*
X0228306Y0026455D01*
X0233115Y0027454D02*
X0234115Y0027454D01*
X0234115Y0028452D02*
X0233115Y0028452D01*
X0233115Y0029451D02*
X0234115Y0029451D01*
X0237018Y0029451D02*
X0240919Y0029451D01*
X0239921Y0028452D02*
X0237897Y0028452D01*
X0238448Y0027454D02*
X0239337Y0027454D01*
X0238923Y0026455D02*
X0238728Y0026455D01*
X0234115Y0024458D02*
X0233115Y0024458D01*
X0233115Y0023460D02*
X0234115Y0023460D01*
X0234115Y0022461D02*
X0233115Y0022461D01*
X0233115Y0021463D02*
X0234115Y0021463D01*
X0376631Y0033445D02*
X0391570Y0033445D01*
X0390619Y0034443D02*
X0377825Y0034443D01*
X0378443Y0035442D02*
X0390062Y0035442D01*
X0389793Y0036440D02*
X0378828Y0036440D01*
X0394028Y0038437D02*
X0395028Y0038437D01*
X0395028Y0039436D02*
X0394028Y0039436D01*
X0394028Y0040434D02*
X0395028Y0040434D01*
X0395028Y0041433D02*
X0394028Y0041433D01*
X0117399Y0204190D02*
X0110615Y0204190D01*
X0110615Y0205189D02*
X0118398Y0205189D01*
X0119641Y0206187D02*
X0110924Y0206187D01*
X0111922Y0207186D02*
X0121370Y0207186D01*
X0057781Y0123311D02*
X0049425Y0123311D01*
X0050424Y0122312D02*
X0056782Y0122312D01*
X0055784Y0121314D02*
X0051422Y0121314D01*
X0039250Y0039436D02*
X0074519Y0039436D01*
X0074168Y0038437D02*
X0038251Y0038437D01*
X0036666Y0037439D02*
X0074168Y0037439D01*
X0074949Y0036440D02*
X0034233Y0036440D01*
X0337115Y0209000D02*
X0343615Y0215500D01*
M02*
