G75*
%MOIN*%
%OFA0B0*%
%FSLAX25Y25*%
%IPPOS*%
%LPD*%
%AMOC8*
5,1,8,0,0,1.08239X$1,22.5*
%
%ADD10C,0.00400*%
%ADD11C,0.00300*%
%ADD12C,0.00600*%
%ADD13R,0.01969X0.03740*%
%ADD14R,0.03740X0.01969*%
%ADD15R,0.06000X0.12000*%
%ADD16R,0.06000X0.03000*%
%ADD17C,0.00500*%
%ADD18R,0.02400X0.02400*%
%ADD19C,0.00800*%
%ADD20R,0.01930X0.04331*%
%ADD21R,0.02000X0.02000*%
%ADD22R,0.05512X0.02559*%
%ADD23R,0.02559X0.05512*%
%ADD24R,0.02600X0.02600*%
%ADD25C,0.00000*%
%ADD26R,0.02559X0.01969*%
D10*
X0161022Y0161043D02*
X0160255Y0161810D01*
X0160255Y0163344D01*
X0161022Y0164112D01*
X0162557Y0164112D01*
X0163324Y0163344D01*
X0163324Y0162577D01*
X0160255Y0162577D01*
X0161022Y0161043D02*
X0162557Y0161043D01*
X0164859Y0161043D02*
X0167928Y0164112D01*
X0169463Y0164112D02*
X0170998Y0164112D01*
X0170230Y0164879D02*
X0170230Y0161810D01*
X0170998Y0161043D01*
X0172532Y0161810D02*
X0172532Y0163344D01*
X0173300Y0164112D01*
X0174834Y0164112D01*
X0175602Y0163344D01*
X0175602Y0162577D01*
X0172532Y0162577D01*
X0172532Y0161810D02*
X0173300Y0161043D01*
X0174834Y0161043D01*
X0177136Y0161043D02*
X0177136Y0164112D01*
X0178671Y0164112D02*
X0179438Y0164112D01*
X0178671Y0164112D02*
X0177136Y0162577D01*
X0180973Y0161043D02*
X0180973Y0164112D01*
X0183275Y0164112D01*
X0184042Y0163344D01*
X0184042Y0161043D01*
X0185577Y0161810D02*
X0186344Y0162577D01*
X0188646Y0162577D01*
X0188646Y0163344D02*
X0188646Y0161043D01*
X0186344Y0161043D01*
X0185577Y0161810D01*
X0186344Y0164112D02*
X0187879Y0164112D01*
X0188646Y0163344D01*
X0190181Y0161043D02*
X0191715Y0161043D01*
X0190948Y0161043D02*
X0190948Y0165646D01*
X0190181Y0165646D01*
X0190181Y0168543D02*
X0189413Y0169310D01*
X0188646Y0168543D01*
X0187879Y0169310D01*
X0187879Y0171612D01*
X0186344Y0170844D02*
X0185577Y0171612D01*
X0184042Y0171612D01*
X0183275Y0170844D01*
X0183275Y0169310D01*
X0184042Y0168543D01*
X0185577Y0168543D01*
X0186344Y0169310D01*
X0186344Y0170844D01*
X0190181Y0168543D02*
X0190948Y0169310D01*
X0190948Y0171612D01*
X0192483Y0171612D02*
X0194785Y0171612D01*
X0195552Y0170844D01*
X0195552Y0168543D01*
X0192483Y0168543D02*
X0192483Y0171612D01*
X0192483Y0176043D02*
X0192483Y0179112D01*
X0194017Y0179112D02*
X0194785Y0179112D01*
X0194785Y0176043D01*
X0195552Y0176043D02*
X0194017Y0176043D01*
X0192483Y0176043D02*
X0190181Y0176043D01*
X0189413Y0176810D01*
X0189413Y0179112D01*
X0187879Y0179112D02*
X0185577Y0179112D01*
X0184809Y0178344D01*
X0184809Y0176810D01*
X0185577Y0176043D01*
X0187879Y0176043D01*
X0187879Y0180646D01*
X0187111Y0183543D02*
X0187879Y0184310D01*
X0187879Y0186612D01*
X0189413Y0186612D02*
X0190181Y0186612D01*
X0190181Y0183543D01*
X0190948Y0183543D02*
X0189413Y0183543D01*
X0187111Y0183543D02*
X0186344Y0184310D01*
X0185577Y0183543D01*
X0184809Y0184310D01*
X0184809Y0186612D01*
X0183275Y0186612D02*
X0180973Y0186612D01*
X0180205Y0185844D01*
X0180973Y0185077D01*
X0182507Y0185077D01*
X0183275Y0184310D01*
X0182507Y0183543D01*
X0180205Y0183543D01*
X0177903Y0180646D02*
X0176369Y0179112D01*
X0176369Y0176043D01*
X0176369Y0178344D02*
X0179438Y0178344D01*
X0179438Y0179112D02*
X0179438Y0176043D01*
X0180973Y0176043D02*
X0180973Y0179112D01*
X0182507Y0179112D02*
X0183275Y0179112D01*
X0182507Y0179112D02*
X0180973Y0177577D01*
X0179438Y0179112D02*
X0177903Y0180646D01*
X0174067Y0184310D02*
X0173300Y0183543D01*
X0170998Y0183543D01*
X0169463Y0183543D02*
X0167928Y0183543D01*
X0168696Y0183543D02*
X0168696Y0186612D01*
X0167928Y0186612D01*
X0168696Y0188146D02*
X0168696Y0188914D01*
X0165626Y0188146D02*
X0165626Y0183543D01*
X0164859Y0183543D02*
X0166394Y0183543D01*
X0165626Y0179112D02*
X0164092Y0179112D01*
X0163324Y0178344D01*
X0163324Y0176810D01*
X0164092Y0176043D01*
X0165626Y0176043D01*
X0166394Y0176810D01*
X0166394Y0178344D01*
X0165626Y0179112D01*
X0167928Y0179112D02*
X0167928Y0176043D01*
X0167928Y0177577D02*
X0169463Y0179112D01*
X0170230Y0179112D01*
X0170998Y0182008D02*
X0170998Y0186612D01*
X0173300Y0186612D01*
X0174067Y0185844D01*
X0174067Y0184310D01*
X0165626Y0188146D02*
X0164859Y0188146D01*
X0163324Y0188146D02*
X0160255Y0188146D01*
X0160255Y0183543D01*
X0160255Y0185844D02*
X0161790Y0185844D01*
X0161790Y0180646D02*
X0161022Y0179879D01*
X0161022Y0176043D01*
X0160255Y0178344D02*
X0161790Y0178344D01*
X0162557Y0171612D02*
X0163324Y0170844D01*
X0163324Y0168543D01*
X0161022Y0168543D01*
X0160255Y0169310D01*
X0161022Y0170077D01*
X0163324Y0170077D01*
X0162557Y0171612D02*
X0161022Y0171612D01*
X0164859Y0171612D02*
X0164859Y0168543D01*
X0164859Y0171612D02*
X0167161Y0171612D01*
X0167928Y0170844D01*
X0167928Y0168543D01*
X0169463Y0169310D02*
X0169463Y0170844D01*
X0170230Y0171612D01*
X0172532Y0171612D01*
X0172532Y0173146D02*
X0172532Y0168543D01*
X0170230Y0168543D01*
X0169463Y0169310D01*
X0164859Y0164112D02*
X0167928Y0161043D01*
X0178671Y0169310D02*
X0178671Y0170844D01*
X0179438Y0171612D01*
X0181740Y0171612D01*
X0181740Y0173146D02*
X0181740Y0168543D01*
X0179438Y0168543D01*
X0178671Y0169310D01*
X0197854Y0165646D02*
X0197854Y0161043D01*
X0200156Y0161043D01*
X0200923Y0161810D01*
X0200923Y0163344D01*
X0200156Y0164112D01*
X0197854Y0164112D01*
X0202458Y0161810D02*
X0203225Y0162577D01*
X0205527Y0162577D01*
X0205527Y0163344D02*
X0205527Y0161043D01*
X0203225Y0161043D01*
X0202458Y0161810D01*
X0203225Y0164112D02*
X0204760Y0164112D01*
X0205527Y0163344D01*
X0207062Y0164112D02*
X0208596Y0164112D01*
X0207829Y0164879D02*
X0207829Y0161810D01*
X0208596Y0161043D01*
X0210898Y0161810D02*
X0211666Y0161043D01*
X0210898Y0161810D02*
X0210898Y0164879D01*
X0210131Y0164112D02*
X0211666Y0164112D01*
X0213200Y0163344D02*
X0213968Y0164112D01*
X0215502Y0164112D01*
X0216270Y0163344D01*
X0216270Y0162577D01*
X0213200Y0162577D01*
X0213200Y0161810D02*
X0213200Y0163344D01*
X0213200Y0161810D02*
X0213968Y0161043D01*
X0215502Y0161043D01*
X0217804Y0161043D02*
X0217804Y0164112D01*
X0219339Y0164112D02*
X0220106Y0164112D01*
X0219339Y0164112D02*
X0217804Y0162577D01*
X0221641Y0161810D02*
X0222408Y0161043D01*
X0224710Y0161043D01*
X0224710Y0160275D02*
X0223943Y0159508D01*
X0223175Y0159508D01*
X0224710Y0160275D02*
X0224710Y0164112D01*
X0221641Y0164112D02*
X0221641Y0161810D01*
X0209364Y0168543D02*
X0209364Y0171612D01*
X0210898Y0171612D02*
X0211666Y0171612D01*
X0210898Y0171612D02*
X0209364Y0170077D01*
X0207829Y0169310D02*
X0207829Y0170844D01*
X0207062Y0171612D01*
X0205527Y0171612D01*
X0204760Y0170844D01*
X0204760Y0169310D01*
X0205527Y0168543D01*
X0207062Y0168543D01*
X0207829Y0169310D01*
X0203225Y0170844D02*
X0201690Y0170844D01*
X0202458Y0172379D02*
X0202458Y0168543D01*
X0202458Y0172379D02*
X0203225Y0173146D01*
X0202458Y0176043D02*
X0201690Y0176810D01*
X0201690Y0178344D01*
X0202458Y0179112D01*
X0203992Y0179112D01*
X0204760Y0178344D01*
X0204760Y0176810D01*
X0203992Y0176043D01*
X0202458Y0176043D01*
X0200156Y0176043D02*
X0200156Y0178344D01*
X0199388Y0179112D01*
X0197087Y0179112D01*
X0197087Y0176043D01*
X0194785Y0180646D02*
X0194785Y0181414D01*
X0194017Y0183543D02*
X0193250Y0184310D01*
X0193250Y0187379D01*
X0192483Y0186612D02*
X0194017Y0186612D01*
X0195552Y0185844D02*
X0195552Y0184310D01*
X0196319Y0183543D01*
X0198621Y0183543D01*
X0200156Y0183543D02*
X0200156Y0188146D01*
X0200923Y0186612D02*
X0202458Y0186612D01*
X0203225Y0185844D01*
X0203225Y0183543D01*
X0200156Y0185844D02*
X0200923Y0186612D01*
X0198621Y0186612D02*
X0196319Y0186612D01*
X0195552Y0185844D01*
X0190181Y0188146D02*
X0190181Y0188914D01*
X0209364Y0186612D02*
X0209364Y0184310D01*
X0210131Y0183543D01*
X0212433Y0183543D01*
X0212433Y0186612D01*
X0213968Y0186612D02*
X0216270Y0186612D01*
X0217037Y0185844D01*
X0217037Y0184310D01*
X0216270Y0183543D01*
X0213968Y0183543D01*
X0213968Y0182008D02*
X0213968Y0186612D01*
X0213200Y0179112D02*
X0213968Y0178344D01*
X0213968Y0176810D01*
X0213200Y0176043D01*
X0210898Y0176043D01*
X0210898Y0174508D02*
X0210898Y0179112D01*
X0213200Y0179112D01*
X0215502Y0178344D02*
X0215502Y0176810D01*
X0216270Y0176043D01*
X0217804Y0176043D01*
X0218571Y0176810D01*
X0218571Y0178344D01*
X0217804Y0179112D01*
X0216270Y0179112D01*
X0215502Y0178344D01*
X0220106Y0179112D02*
X0220106Y0176810D01*
X0220873Y0176043D01*
X0221641Y0176810D01*
X0222408Y0176043D01*
X0223175Y0176810D01*
X0223175Y0179112D01*
X0224710Y0178344D02*
X0225477Y0179112D01*
X0227012Y0179112D01*
X0227779Y0178344D01*
X0227779Y0177577D01*
X0224710Y0177577D01*
X0224710Y0176810D02*
X0224710Y0178344D01*
X0224710Y0176810D02*
X0225477Y0176043D01*
X0227012Y0176043D01*
X0229314Y0176043D02*
X0229314Y0179112D01*
X0230849Y0179112D02*
X0231616Y0179112D01*
X0230849Y0179112D02*
X0229314Y0177577D01*
X0231211Y0197888D02*
X0229676Y0199422D01*
X0234280Y0199422D01*
X0234280Y0197888D02*
X0234280Y0200957D01*
X0233513Y0202492D02*
X0230444Y0205561D01*
X0233513Y0205561D01*
X0234280Y0204794D01*
X0234280Y0203259D01*
X0233513Y0202492D01*
X0230444Y0202492D01*
X0229676Y0203259D01*
X0229676Y0204794D01*
X0230444Y0205561D01*
X0229676Y0207096D02*
X0234280Y0207096D01*
X0232746Y0207096D02*
X0234280Y0209398D01*
X0232746Y0207096D02*
X0231211Y0209398D01*
X0248299Y0217146D02*
X0251102Y0217146D01*
X0251102Y0220496D02*
X0248299Y0220496D01*
X0248128Y0224881D02*
X0246593Y0224881D01*
X0245826Y0225648D01*
X0248895Y0228718D01*
X0248895Y0225648D01*
X0248128Y0224881D01*
X0250430Y0224881D02*
X0251197Y0224881D01*
X0251197Y0225648D01*
X0250430Y0225648D01*
X0250430Y0224881D01*
X0252732Y0224881D02*
X0255801Y0224881D01*
X0254266Y0224881D02*
X0254266Y0229485D01*
X0252732Y0227950D01*
X0248895Y0228718D02*
X0248128Y0229485D01*
X0246593Y0229485D01*
X0245826Y0228718D01*
X0245826Y0225648D01*
X0257336Y0225648D02*
X0258103Y0224881D01*
X0260405Y0224881D01*
X0260405Y0227950D01*
X0261940Y0227183D02*
X0263474Y0227183D01*
X0261940Y0224881D02*
X0261940Y0229485D01*
X0265009Y0229485D01*
X0257336Y0227950D02*
X0257336Y0225648D01*
X0272947Y0240599D02*
X0271413Y0242134D01*
X0276017Y0242134D01*
X0276017Y0240599D02*
X0276017Y0243669D01*
X0275249Y0245203D02*
X0272180Y0248272D01*
X0275249Y0248272D01*
X0276017Y0247505D01*
X0276017Y0245970D01*
X0275249Y0245203D01*
X0272180Y0245203D01*
X0271413Y0245970D01*
X0271413Y0247505D01*
X0272180Y0248272D01*
X0272947Y0249807D02*
X0275249Y0249807D01*
X0276017Y0250574D01*
X0276017Y0252876D01*
X0272947Y0252876D01*
X0273715Y0254411D02*
X0273715Y0255946D01*
X0276017Y0254411D02*
X0271413Y0254411D01*
X0271413Y0257480D01*
X0266244Y0254567D02*
X0266244Y0251764D01*
X0262894Y0251764D02*
X0262894Y0254567D01*
X0263715Y0265432D02*
X0262948Y0266200D01*
X0262948Y0267734D01*
X0263715Y0268502D01*
X0266785Y0265432D01*
X0267552Y0266200D01*
X0267552Y0267734D01*
X0266785Y0268502D01*
X0263715Y0268502D01*
X0263715Y0265432D02*
X0266785Y0265432D01*
X0266785Y0270036D02*
X0266785Y0270804D01*
X0267552Y0270804D01*
X0267552Y0270036D01*
X0266785Y0270036D01*
X0267552Y0272338D02*
X0267552Y0275407D01*
X0267552Y0273873D02*
X0262948Y0273873D01*
X0264483Y0272338D01*
X0264483Y0276942D02*
X0266785Y0276942D01*
X0267552Y0277709D01*
X0267552Y0280011D01*
X0264483Y0280011D01*
X0265250Y0281546D02*
X0265250Y0283081D01*
X0262948Y0281546D02*
X0262948Y0284615D01*
X0262948Y0281546D02*
X0267552Y0281546D01*
X0257177Y0280945D02*
X0257177Y0278142D01*
X0253827Y0278142D02*
X0253827Y0280945D01*
X0301846Y0271772D02*
X0301846Y0268702D01*
X0306450Y0268702D01*
X0306450Y0267168D02*
X0303380Y0267168D01*
X0304148Y0268702D02*
X0304148Y0270237D01*
X0306450Y0267168D02*
X0306450Y0264866D01*
X0305682Y0264098D01*
X0303380Y0264098D01*
X0302613Y0262564D02*
X0305682Y0262564D01*
X0306450Y0261796D01*
X0306450Y0260262D01*
X0305682Y0259494D01*
X0302613Y0262564D01*
X0301846Y0261796D01*
X0301846Y0260262D01*
X0302613Y0259494D01*
X0305682Y0259494D01*
X0306450Y0257960D02*
X0306450Y0254891D01*
X0306450Y0256425D02*
X0301846Y0256425D01*
X0303380Y0254891D01*
X0302250Y0248343D02*
X0302250Y0243739D01*
X0303784Y0243739D02*
X0300715Y0243739D01*
X0299180Y0243739D02*
X0298413Y0243739D01*
X0298413Y0244507D01*
X0299180Y0244507D01*
X0299180Y0243739D01*
X0296878Y0244507D02*
X0296878Y0247576D01*
X0293809Y0244507D01*
X0294576Y0243739D01*
X0296111Y0243739D01*
X0296878Y0244507D01*
X0293809Y0244507D02*
X0293809Y0247576D01*
X0294576Y0248343D01*
X0296111Y0248343D01*
X0296878Y0247576D01*
X0300715Y0246809D02*
X0302250Y0248343D01*
X0305319Y0246809D02*
X0305319Y0244507D01*
X0306086Y0243739D01*
X0308388Y0243739D01*
X0308388Y0246809D01*
X0309923Y0246041D02*
X0311457Y0246041D01*
X0309923Y0243739D02*
X0309923Y0248343D01*
X0312992Y0248343D01*
X0307543Y0237638D02*
X0307543Y0234835D01*
X0304193Y0234835D02*
X0304193Y0237638D01*
X0297858Y0237638D02*
X0297858Y0234835D01*
X0294508Y0234835D02*
X0294508Y0237638D01*
X0290308Y0235120D02*
X0285704Y0235120D01*
X0285704Y0238189D01*
X0288006Y0236654D02*
X0288006Y0235120D01*
X0287239Y0233585D02*
X0290308Y0233585D01*
X0290308Y0231283D01*
X0289541Y0230516D01*
X0287239Y0230516D01*
X0286471Y0228981D02*
X0289541Y0225912D01*
X0290308Y0226679D01*
X0290308Y0228214D01*
X0289541Y0228981D01*
X0286471Y0228981D01*
X0285704Y0228214D01*
X0285704Y0226679D01*
X0286471Y0225912D01*
X0289541Y0225912D01*
X0290308Y0224377D02*
X0290308Y0221308D01*
X0290308Y0222843D02*
X0285704Y0222843D01*
X0287239Y0221308D01*
X0307252Y0209291D02*
X0307252Y0206488D01*
X0310602Y0206488D02*
X0310602Y0209291D01*
X0316740Y0209409D02*
X0316740Y0206606D01*
X0320091Y0206606D02*
X0320091Y0209409D01*
X0323011Y0211692D02*
X0322243Y0212459D01*
X0325313Y0215529D01*
X0325313Y0212459D01*
X0324545Y0211692D01*
X0323011Y0211692D01*
X0322243Y0212459D02*
X0322243Y0215529D01*
X0323011Y0216296D01*
X0324545Y0216296D01*
X0325313Y0215529D01*
X0326847Y0212459D02*
X0327615Y0212459D01*
X0327615Y0211692D01*
X0326847Y0211692D01*
X0326847Y0212459D01*
X0329149Y0211692D02*
X0332218Y0211692D01*
X0330684Y0211692D02*
X0330684Y0216296D01*
X0329149Y0214761D01*
X0333753Y0214761D02*
X0333753Y0212459D01*
X0334520Y0211692D01*
X0336822Y0211692D01*
X0336822Y0214761D01*
X0338357Y0213994D02*
X0339892Y0213994D01*
X0338357Y0216296D02*
X0341426Y0216296D01*
X0338357Y0216296D02*
X0338357Y0211692D01*
X0337725Y0211611D02*
X0338493Y0210844D01*
X0335423Y0207774D01*
X0336191Y0207007D01*
X0337725Y0207007D01*
X0338493Y0207774D01*
X0338493Y0210844D01*
X0337725Y0211611D02*
X0336191Y0211611D01*
X0335423Y0210844D01*
X0335423Y0207774D01*
X0340027Y0207774D02*
X0340794Y0207774D01*
X0340794Y0207007D01*
X0340027Y0207007D01*
X0340027Y0207774D01*
X0342329Y0207007D02*
X0345398Y0207007D01*
X0343864Y0207007D02*
X0343864Y0211611D01*
X0342329Y0210076D01*
X0346933Y0210076D02*
X0346933Y0207774D01*
X0347700Y0207007D01*
X0350002Y0207007D01*
X0350002Y0210076D01*
X0351537Y0209309D02*
X0353072Y0209309D01*
X0351537Y0211611D02*
X0354606Y0211611D01*
X0351537Y0211611D02*
X0351537Y0207007D01*
X0345394Y0202807D02*
X0342591Y0202807D01*
X0342591Y0199457D02*
X0345394Y0199457D01*
X0345512Y0192335D02*
X0342709Y0192335D01*
X0342709Y0188984D02*
X0345512Y0188984D01*
X0347718Y0183816D02*
X0350787Y0183816D01*
X0349253Y0181514D02*
X0347718Y0181514D01*
X0346183Y0182281D02*
X0346183Y0179212D01*
X0343881Y0179212D01*
X0343114Y0179979D01*
X0343114Y0182281D01*
X0341580Y0183048D02*
X0338510Y0179979D01*
X0339278Y0179212D01*
X0340812Y0179212D01*
X0341580Y0179979D01*
X0341580Y0183048D01*
X0340812Y0183816D01*
X0339278Y0183816D01*
X0338510Y0183048D01*
X0338510Y0179979D01*
X0336976Y0179212D02*
X0333906Y0179212D01*
X0335441Y0179212D02*
X0335441Y0183816D01*
X0333906Y0182281D01*
X0334842Y0183107D02*
X0331773Y0183107D01*
X0331773Y0178503D01*
X0330239Y0178503D02*
X0330239Y0181572D01*
X0331773Y0180805D02*
X0333308Y0180805D01*
X0330239Y0178503D02*
X0327937Y0178503D01*
X0327169Y0179270D01*
X0327169Y0181572D01*
X0325635Y0182340D02*
X0322565Y0179270D01*
X0323333Y0178503D01*
X0324867Y0178503D01*
X0325635Y0179270D01*
X0325635Y0182340D01*
X0324867Y0183107D01*
X0323333Y0183107D01*
X0322565Y0182340D01*
X0322565Y0179270D01*
X0321031Y0178503D02*
X0317961Y0178503D01*
X0319496Y0178503D02*
X0319496Y0183107D01*
X0317961Y0181572D01*
X0329126Y0189063D02*
X0331929Y0189063D01*
X0331929Y0192413D02*
X0329126Y0192413D01*
X0329205Y0199457D02*
X0332008Y0199457D01*
X0332008Y0202807D02*
X0329205Y0202807D01*
X0313809Y0200587D02*
X0310740Y0200587D01*
X0310740Y0195983D01*
X0309205Y0195983D02*
X0309205Y0199053D01*
X0310740Y0198285D02*
X0312275Y0198285D01*
X0309205Y0195983D02*
X0306904Y0195983D01*
X0306136Y0196751D01*
X0306136Y0199053D01*
X0304602Y0199820D02*
X0301532Y0196751D01*
X0302300Y0195983D01*
X0303834Y0195983D01*
X0304602Y0196751D01*
X0304602Y0199820D01*
X0303834Y0200587D01*
X0302300Y0200587D01*
X0301532Y0199820D01*
X0301532Y0196751D01*
X0299998Y0195983D02*
X0296928Y0195983D01*
X0298463Y0195983D02*
X0298463Y0200587D01*
X0296928Y0199053D01*
X0282198Y0174696D02*
X0277594Y0174696D01*
X0277594Y0177765D01*
X0279896Y0176230D02*
X0279896Y0174696D01*
X0279128Y0173161D02*
X0282198Y0173161D01*
X0282198Y0170859D01*
X0281430Y0170092D01*
X0279128Y0170092D01*
X0277594Y0167022D02*
X0282198Y0167022D01*
X0282198Y0165488D02*
X0282198Y0168557D01*
X0279128Y0165488D02*
X0277594Y0167022D01*
X0281430Y0163953D02*
X0282198Y0163953D01*
X0282198Y0163186D01*
X0281430Y0163186D01*
X0281430Y0163953D01*
X0281430Y0161651D02*
X0282198Y0160884D01*
X0282198Y0159349D01*
X0281430Y0158582D01*
X0278361Y0161651D01*
X0281430Y0161651D01*
X0278361Y0161651D02*
X0277594Y0160884D01*
X0277594Y0159349D01*
X0278361Y0158582D01*
X0281430Y0158582D01*
X0271035Y0162630D02*
X0271035Y0165433D01*
X0267685Y0165433D02*
X0267685Y0162630D01*
X0267900Y0148816D02*
X0269434Y0148816D01*
X0270202Y0148048D01*
X0267132Y0144979D01*
X0267900Y0144212D01*
X0269434Y0144212D01*
X0270202Y0144979D01*
X0270202Y0148048D01*
X0271736Y0147281D02*
X0271736Y0144979D01*
X0272504Y0144212D01*
X0274805Y0144212D01*
X0274805Y0147281D01*
X0276340Y0146514D02*
X0277875Y0146514D01*
X0276340Y0148816D02*
X0279409Y0148816D01*
X0276340Y0148816D02*
X0276340Y0144212D01*
X0272559Y0139224D02*
X0269756Y0139224D01*
X0269756Y0135874D02*
X0272559Y0135874D01*
X0267132Y0144979D02*
X0267132Y0148048D01*
X0267900Y0148816D01*
X0264063Y0148816D02*
X0264063Y0144212D01*
X0262528Y0144212D02*
X0265598Y0144212D01*
X0262528Y0147281D02*
X0264063Y0148816D01*
X0347718Y0179212D02*
X0347718Y0183816D01*
X0372037Y0182578D02*
X0372805Y0181810D01*
X0374339Y0181810D01*
X0375107Y0182578D01*
X0375107Y0185647D01*
X0372037Y0182578D01*
X0372037Y0185647D01*
X0372805Y0186414D01*
X0374339Y0186414D01*
X0375107Y0185647D01*
X0376641Y0182578D02*
X0377409Y0182578D01*
X0377409Y0181810D01*
X0376641Y0181810D01*
X0376641Y0182578D01*
X0378943Y0181810D02*
X0382013Y0181810D01*
X0380478Y0181810D02*
X0380478Y0186414D01*
X0378943Y0184880D01*
X0383547Y0184880D02*
X0383547Y0182578D01*
X0384315Y0181810D01*
X0386616Y0181810D01*
X0386616Y0184880D01*
X0388151Y0184112D02*
X0389686Y0184112D01*
X0388151Y0181810D02*
X0388151Y0186414D01*
X0391220Y0186414D01*
X0386732Y0190795D02*
X0383929Y0190795D01*
X0383929Y0194146D02*
X0386732Y0194146D01*
X0386401Y0197716D02*
X0388703Y0197716D01*
X0388703Y0200785D01*
X0390238Y0200018D02*
X0391772Y0200018D01*
X0390238Y0197716D02*
X0390238Y0202320D01*
X0393307Y0202320D01*
X0386457Y0205913D02*
X0383654Y0205913D01*
X0383654Y0209264D02*
X0386457Y0209264D01*
X0382565Y0202320D02*
X0382565Y0197716D01*
X0384099Y0197716D02*
X0381030Y0197716D01*
X0379495Y0197716D02*
X0378728Y0197716D01*
X0378728Y0198483D01*
X0379495Y0198483D01*
X0379495Y0197716D01*
X0377193Y0198483D02*
X0376426Y0197716D01*
X0374891Y0197716D01*
X0374124Y0198483D01*
X0377193Y0201552D01*
X0377193Y0198483D01*
X0374124Y0198483D02*
X0374124Y0201552D01*
X0374891Y0202320D01*
X0376426Y0202320D01*
X0377193Y0201552D01*
X0381030Y0200785D02*
X0382565Y0202320D01*
X0385634Y0200785D02*
X0385634Y0198483D01*
X0386401Y0197716D01*
X0374805Y0208306D02*
X0374805Y0212910D01*
X0377874Y0212910D01*
X0376339Y0210608D02*
X0374805Y0210608D01*
X0373270Y0211376D02*
X0373270Y0208306D01*
X0370968Y0208306D01*
X0370201Y0209074D01*
X0370201Y0211376D01*
X0368666Y0212143D02*
X0365597Y0209074D01*
X0366364Y0208306D01*
X0367899Y0208306D01*
X0368666Y0209074D01*
X0368666Y0212143D01*
X0367899Y0212910D01*
X0366364Y0212910D01*
X0365597Y0212143D01*
X0365597Y0209074D01*
X0364062Y0208306D02*
X0360993Y0208306D01*
X0362528Y0208306D02*
X0362528Y0212910D01*
X0360993Y0211376D01*
X0359370Y0217173D02*
X0356567Y0217173D01*
X0356567Y0220524D02*
X0359370Y0220524D01*
X0365271Y0227144D02*
X0365271Y0228679D01*
X0366038Y0229446D01*
X0369107Y0226377D01*
X0369875Y0227144D01*
X0369875Y0228679D01*
X0369107Y0229446D01*
X0366038Y0229446D01*
X0365271Y0227144D02*
X0366038Y0226377D01*
X0369107Y0226377D01*
X0369107Y0230981D02*
X0369107Y0231748D01*
X0369875Y0231748D01*
X0369875Y0230981D01*
X0369107Y0230981D01*
X0369875Y0233283D02*
X0369875Y0236352D01*
X0369875Y0234818D02*
X0365271Y0234818D01*
X0366806Y0233283D01*
X0372685Y0232441D02*
X0372685Y0229638D01*
X0376035Y0229638D02*
X0376035Y0232441D01*
X0381110Y0232323D02*
X0381110Y0229520D01*
X0384461Y0229520D02*
X0384461Y0232323D01*
X0389444Y0232984D02*
X0389444Y0236053D01*
X0391746Y0234519D02*
X0391746Y0232984D01*
X0390979Y0231450D02*
X0394048Y0231450D01*
X0394048Y0229148D01*
X0393281Y0228380D01*
X0390979Y0228380D01*
X0390211Y0226846D02*
X0393281Y0223776D01*
X0394048Y0224544D01*
X0394048Y0226078D01*
X0393281Y0226846D01*
X0390211Y0226846D01*
X0389444Y0226078D01*
X0389444Y0224544D01*
X0390211Y0223776D01*
X0393281Y0223776D01*
X0394048Y0222242D02*
X0394048Y0219172D01*
X0394048Y0220707D02*
X0389444Y0220707D01*
X0390979Y0219172D01*
X0389444Y0232984D02*
X0394048Y0232984D01*
X0394916Y0233739D02*
X0393381Y0235274D01*
X0397985Y0235274D01*
X0397985Y0233739D02*
X0397985Y0236809D01*
X0397218Y0238343D02*
X0394148Y0241413D01*
X0397218Y0241413D01*
X0397985Y0240645D01*
X0397985Y0239111D01*
X0397218Y0238343D01*
X0394148Y0238343D01*
X0393381Y0239111D01*
X0393381Y0240645D01*
X0394148Y0241413D01*
X0393122Y0240937D02*
X0393122Y0243740D01*
X0394916Y0242947D02*
X0397218Y0242947D01*
X0397985Y0243715D01*
X0397985Y0246016D01*
X0394916Y0246016D01*
X0395683Y0247551D02*
X0395683Y0249086D01*
X0393381Y0247551D02*
X0393381Y0250620D01*
X0393381Y0247551D02*
X0397985Y0247551D01*
X0389772Y0243740D02*
X0389772Y0240937D01*
X0384048Y0244270D02*
X0383281Y0243503D01*
X0380211Y0246572D01*
X0383281Y0246572D01*
X0384048Y0245805D01*
X0384048Y0244270D01*
X0383281Y0243503D02*
X0380211Y0243503D01*
X0379444Y0244270D01*
X0379444Y0245805D01*
X0380211Y0246572D01*
X0383281Y0248107D02*
X0383281Y0248874D01*
X0384048Y0248874D01*
X0384048Y0248107D01*
X0383281Y0248107D01*
X0384048Y0250409D02*
X0384048Y0253478D01*
X0384048Y0251944D02*
X0379444Y0251944D01*
X0380979Y0250409D01*
X0380979Y0255013D02*
X0383281Y0255013D01*
X0384048Y0255780D01*
X0384048Y0258082D01*
X0380979Y0258082D01*
X0381746Y0259617D02*
X0381746Y0261152D01*
X0379444Y0259617D02*
X0379444Y0262686D01*
X0379444Y0259617D02*
X0384048Y0259617D01*
X0387803Y0257717D02*
X0387803Y0254913D01*
X0391154Y0254913D02*
X0391154Y0257717D01*
X0392200Y0259386D02*
X0392200Y0260921D01*
X0392967Y0261688D01*
X0396037Y0258619D01*
X0396804Y0259386D01*
X0396804Y0260921D01*
X0396037Y0261688D01*
X0392967Y0261688D01*
X0393735Y0263223D02*
X0396037Y0263223D01*
X0396804Y0263990D01*
X0396804Y0266292D01*
X0393735Y0266292D01*
X0394502Y0267827D02*
X0394502Y0269361D01*
X0396804Y0267827D02*
X0392200Y0267827D01*
X0392200Y0270896D01*
X0392200Y0259386D02*
X0392967Y0258619D01*
X0396037Y0258619D01*
X0396804Y0257084D02*
X0396804Y0254015D01*
X0396804Y0255550D02*
X0392200Y0255550D01*
X0393735Y0254015D01*
X0375929Y0254323D02*
X0375929Y0257126D01*
X0372579Y0257126D02*
X0372579Y0254323D01*
X0369954Y0253921D02*
X0369954Y0256223D01*
X0366884Y0256223D01*
X0367652Y0257757D02*
X0367652Y0259292D01*
X0369954Y0257757D02*
X0365350Y0257757D01*
X0365350Y0260827D01*
X0359954Y0261420D02*
X0356884Y0261420D01*
X0357652Y0262954D02*
X0357652Y0264489D01*
X0359954Y0262954D02*
X0355350Y0262954D01*
X0355350Y0266024D01*
X0349394Y0265819D02*
X0349394Y0268622D01*
X0346043Y0268622D02*
X0346043Y0265819D01*
X0337165Y0267303D02*
X0334362Y0267303D01*
X0334362Y0270654D02*
X0337165Y0270654D01*
X0337047Y0276201D02*
X0334244Y0276201D01*
X0334244Y0279551D02*
X0337047Y0279551D01*
X0337022Y0283149D02*
X0339324Y0283149D01*
X0339324Y0286218D01*
X0340858Y0285451D02*
X0342393Y0285451D01*
X0340858Y0287753D02*
X0343928Y0287753D01*
X0340858Y0287753D02*
X0340858Y0283149D01*
X0337022Y0283149D02*
X0336254Y0283916D01*
X0336254Y0286218D01*
X0334720Y0286985D02*
X0331650Y0283916D01*
X0332418Y0283149D01*
X0333952Y0283149D01*
X0334720Y0283916D01*
X0334720Y0286985D01*
X0333952Y0287753D01*
X0332418Y0287753D01*
X0331650Y0286985D01*
X0331650Y0283916D01*
X0330116Y0283149D02*
X0327046Y0283149D01*
X0328581Y0283149D02*
X0328581Y0287753D01*
X0327046Y0286218D01*
X0323576Y0283742D02*
X0318972Y0283742D01*
X0318972Y0286811D01*
X0321274Y0285276D02*
X0321274Y0283742D01*
X0320506Y0282207D02*
X0323576Y0282207D01*
X0323576Y0279905D01*
X0322808Y0279138D01*
X0320506Y0279138D01*
X0318972Y0276068D02*
X0323576Y0276068D01*
X0323576Y0274534D02*
X0323576Y0277603D01*
X0320506Y0274534D02*
X0318972Y0276068D01*
X0322808Y0272999D02*
X0323576Y0272999D01*
X0323576Y0272232D01*
X0322808Y0272232D01*
X0322808Y0272999D01*
X0322808Y0270697D02*
X0323576Y0269930D01*
X0323576Y0268395D01*
X0322808Y0267628D01*
X0319739Y0270697D01*
X0322808Y0270697D01*
X0319739Y0270697D02*
X0318972Y0269930D01*
X0318972Y0268395D01*
X0319739Y0267628D01*
X0322808Y0267628D01*
X0323051Y0265787D02*
X0323051Y0262984D01*
X0326402Y0262984D02*
X0326402Y0265787D01*
X0316362Y0265709D02*
X0316362Y0262906D01*
X0313012Y0262906D02*
X0313012Y0265709D01*
X0331102Y0259978D02*
X0331102Y0256908D01*
X0334171Y0259978D01*
X0334171Y0256908D01*
X0333404Y0256141D01*
X0331869Y0256141D01*
X0331102Y0256908D01*
X0331102Y0259978D02*
X0331869Y0260745D01*
X0333404Y0260745D01*
X0334171Y0259978D01*
X0335705Y0256908D02*
X0336473Y0256908D01*
X0336473Y0256141D01*
X0335705Y0256141D01*
X0335705Y0256908D01*
X0338007Y0256141D02*
X0341077Y0256141D01*
X0339542Y0256141D02*
X0339542Y0260745D01*
X0338007Y0259210D01*
X0342611Y0259210D02*
X0342611Y0256908D01*
X0343379Y0256141D01*
X0345681Y0256141D01*
X0345681Y0259210D01*
X0347215Y0258443D02*
X0348750Y0258443D01*
X0347215Y0260745D02*
X0350285Y0260745D01*
X0347215Y0260745D02*
X0347215Y0256141D01*
X0355350Y0255281D02*
X0359954Y0255281D01*
X0359954Y0253746D02*
X0359954Y0256816D01*
X0359186Y0258350D02*
X0359954Y0259118D01*
X0359954Y0261420D01*
X0359186Y0258350D02*
X0356884Y0258350D01*
X0355350Y0255281D02*
X0356884Y0253746D01*
X0359186Y0252212D02*
X0359954Y0252212D01*
X0359954Y0251444D01*
X0359186Y0251444D01*
X0359186Y0252212D01*
X0359186Y0249910D02*
X0359954Y0249143D01*
X0359954Y0247608D01*
X0359186Y0246841D01*
X0356117Y0249910D01*
X0359186Y0249910D01*
X0356117Y0249910D02*
X0355350Y0249143D01*
X0355350Y0247608D01*
X0356117Y0246841D01*
X0359186Y0246841D01*
X0365271Y0245560D02*
X0365271Y0242491D01*
X0369875Y0242491D01*
X0369954Y0242411D02*
X0369186Y0241644D01*
X0366117Y0244713D01*
X0369186Y0244713D01*
X0369954Y0243946D01*
X0369954Y0242411D01*
X0369186Y0241644D02*
X0366117Y0241644D01*
X0365350Y0242411D01*
X0365350Y0243946D01*
X0366117Y0244713D01*
X0367573Y0244026D02*
X0367573Y0242491D01*
X0366806Y0240956D02*
X0369875Y0240956D01*
X0369875Y0238654D01*
X0369107Y0237887D01*
X0366806Y0237887D01*
X0372685Y0242039D02*
X0372685Y0244843D01*
X0369954Y0246248D02*
X0369954Y0247015D01*
X0369186Y0247015D01*
X0369186Y0246248D01*
X0369954Y0246248D01*
X0369954Y0248550D02*
X0369954Y0251619D01*
X0369954Y0250084D02*
X0365350Y0250084D01*
X0366884Y0248550D01*
X0366884Y0253154D02*
X0369186Y0253154D01*
X0369954Y0253921D01*
X0376035Y0244843D02*
X0376035Y0242039D01*
X0403000Y0236137D02*
X0403000Y0235369D01*
X0403767Y0234602D01*
X0405302Y0234602D01*
X0406069Y0233835D01*
X0406069Y0233067D01*
X0405302Y0232300D01*
X0403767Y0232300D01*
X0403000Y0233067D01*
X0403000Y0236137D02*
X0403767Y0236904D01*
X0405302Y0236904D01*
X0406069Y0236137D01*
X0407604Y0236904D02*
X0409906Y0236904D01*
X0410673Y0236137D01*
X0410673Y0234602D01*
X0409906Y0233835D01*
X0407604Y0233835D01*
X0407604Y0232300D02*
X0407604Y0236904D01*
X0412208Y0236904D02*
X0413742Y0236904D01*
X0412975Y0236904D02*
X0412975Y0232300D01*
X0412208Y0232300D02*
X0413742Y0232300D01*
X0435374Y0231173D02*
X0435374Y0233976D01*
X0438724Y0233976D02*
X0438724Y0231173D01*
X0443996Y0231252D02*
X0443996Y0234055D01*
X0447346Y0234055D02*
X0447346Y0231252D01*
X0444641Y0224370D02*
X0444641Y0221301D01*
X0449245Y0221301D01*
X0449245Y0219766D02*
X0446176Y0219766D01*
X0446943Y0221301D02*
X0446943Y0222835D01*
X0449245Y0219766D02*
X0449245Y0217464D01*
X0448478Y0216697D01*
X0446176Y0216697D01*
X0449245Y0215162D02*
X0449245Y0212093D01*
X0449245Y0213628D02*
X0444641Y0213628D01*
X0446176Y0212093D01*
X0448478Y0210558D02*
X0449245Y0210558D01*
X0449245Y0209791D01*
X0448478Y0209791D01*
X0448478Y0210558D01*
X0448478Y0208256D02*
X0449245Y0207489D01*
X0449245Y0205954D01*
X0448478Y0205187D01*
X0445408Y0208256D01*
X0448478Y0208256D01*
X0448478Y0205187D02*
X0445408Y0205187D01*
X0444641Y0205954D01*
X0444641Y0207489D01*
X0445408Y0208256D01*
X0439048Y0208157D02*
X0434444Y0208157D01*
X0435979Y0206623D01*
X0439048Y0206623D02*
X0439048Y0209692D01*
X0438281Y0211227D02*
X0435211Y0211227D01*
X0434444Y0211994D01*
X0434444Y0213529D01*
X0435211Y0214296D01*
X0438281Y0211227D01*
X0439048Y0211994D01*
X0439048Y0213529D01*
X0438281Y0214296D01*
X0435211Y0214296D01*
X0435979Y0215831D02*
X0438281Y0215831D01*
X0439048Y0216598D01*
X0439048Y0218900D01*
X0435979Y0218900D01*
X0436746Y0220435D02*
X0436746Y0221969D01*
X0434444Y0220435D02*
X0434444Y0223504D01*
X0434444Y0220435D02*
X0439048Y0220435D01*
X0474995Y0216707D02*
X0479599Y0216707D01*
X0479599Y0215173D02*
X0479599Y0218242D01*
X0478832Y0219777D02*
X0479599Y0220544D01*
X0479599Y0222846D01*
X0476530Y0222846D01*
X0477297Y0224381D02*
X0477297Y0225915D01*
X0478552Y0228262D02*
X0479320Y0228262D01*
X0478552Y0228262D02*
X0475483Y0231331D01*
X0474716Y0231331D01*
X0474716Y0228262D01*
X0474995Y0227450D02*
X0474995Y0224381D01*
X0479599Y0224381D01*
X0478832Y0219777D02*
X0476530Y0219777D01*
X0474995Y0216707D02*
X0476530Y0215173D01*
X0478832Y0213638D02*
X0479599Y0213638D01*
X0479599Y0212871D01*
X0478832Y0212871D01*
X0478832Y0213638D01*
X0478832Y0211336D02*
X0479599Y0210569D01*
X0479599Y0209034D01*
X0478832Y0208267D01*
X0475763Y0211336D01*
X0478832Y0211336D01*
X0478832Y0208267D02*
X0475763Y0208267D01*
X0474995Y0209034D01*
X0474995Y0210569D01*
X0475763Y0211336D01*
X0475323Y0202520D02*
X0475323Y0199717D01*
X0478673Y0199717D02*
X0478673Y0202520D01*
X0483551Y0202598D02*
X0483551Y0199795D01*
X0486902Y0199795D02*
X0486902Y0202598D01*
X0490310Y0204268D02*
X0490310Y0205803D01*
X0491078Y0206570D01*
X0494147Y0203501D01*
X0494914Y0204268D01*
X0494914Y0205803D01*
X0494147Y0206570D01*
X0491078Y0206570D01*
X0491845Y0208105D02*
X0494147Y0208105D01*
X0494914Y0208872D01*
X0494914Y0211174D01*
X0491845Y0211174D01*
X0492612Y0212709D02*
X0492612Y0214243D01*
X0490310Y0212709D02*
X0490310Y0215778D01*
X0490310Y0212709D02*
X0494914Y0212709D01*
X0494147Y0203501D02*
X0491078Y0203501D01*
X0490310Y0204268D01*
X0490310Y0200431D02*
X0494914Y0200431D01*
X0494914Y0198897D02*
X0494914Y0201966D01*
X0491845Y0198897D02*
X0490310Y0200431D01*
X0490186Y0185342D02*
X0487884Y0183041D01*
X0488651Y0182273D02*
X0485582Y0185342D01*
X0485582Y0182273D02*
X0490186Y0182273D01*
X0489419Y0180739D02*
X0486349Y0180739D01*
X0489419Y0177669D01*
X0490186Y0178437D01*
X0490186Y0179971D01*
X0489419Y0180739D01*
X0489419Y0177669D02*
X0486349Y0177669D01*
X0485582Y0178437D01*
X0485582Y0179971D01*
X0486349Y0180739D01*
X0486349Y0176135D02*
X0489419Y0173065D01*
X0490186Y0173833D01*
X0490186Y0175367D01*
X0489419Y0176135D01*
X0486349Y0176135D01*
X0485582Y0175367D01*
X0485582Y0173833D01*
X0486349Y0173065D01*
X0489419Y0173065D01*
X0490186Y0171531D02*
X0490186Y0168461D01*
X0490186Y0169996D02*
X0485582Y0169996D01*
X0487117Y0168461D01*
X0475816Y0167493D02*
X0475816Y0165959D01*
X0475048Y0165191D01*
X0471979Y0168261D01*
X0475048Y0168261D01*
X0475816Y0167493D01*
X0475048Y0165191D02*
X0471979Y0165191D01*
X0471212Y0165959D01*
X0471212Y0167493D01*
X0471979Y0168261D01*
X0471979Y0169795D02*
X0471212Y0170563D01*
X0471212Y0172097D01*
X0471979Y0172865D01*
X0475048Y0169795D01*
X0475816Y0170563D01*
X0475816Y0172097D01*
X0475048Y0172865D01*
X0471979Y0172865D01*
X0471212Y0174399D02*
X0475816Y0174399D01*
X0474281Y0174399D02*
X0471212Y0177468D01*
X0473514Y0175166D02*
X0475816Y0177468D01*
X0475048Y0169795D02*
X0471979Y0169795D01*
X0475816Y0163657D02*
X0475816Y0160587D01*
X0475816Y0162122D02*
X0471212Y0162122D01*
X0472746Y0160587D01*
X0464564Y0172728D02*
X0464564Y0175797D01*
X0464564Y0174262D02*
X0459960Y0174262D01*
X0461495Y0172728D01*
X0460727Y0177331D02*
X0459960Y0178099D01*
X0459960Y0179633D01*
X0460727Y0180401D01*
X0463796Y0177331D01*
X0464564Y0178099D01*
X0464564Y0179633D01*
X0463796Y0180401D01*
X0460727Y0180401D01*
X0460727Y0181935D02*
X0459960Y0182703D01*
X0459960Y0184237D01*
X0460727Y0185005D01*
X0463796Y0181935D01*
X0464564Y0182703D01*
X0464564Y0184237D01*
X0463796Y0185005D01*
X0460727Y0185005D01*
X0459960Y0186539D02*
X0464564Y0186539D01*
X0463029Y0186539D02*
X0459960Y0189609D01*
X0462262Y0187307D02*
X0464564Y0189609D01*
X0463796Y0181935D02*
X0460727Y0181935D01*
X0460727Y0177331D02*
X0463796Y0177331D01*
X0440461Y0176878D02*
X0438159Y0174576D01*
X0438927Y0173809D02*
X0435857Y0176878D01*
X0435857Y0173809D02*
X0440461Y0173809D01*
X0439694Y0172274D02*
X0440461Y0171507D01*
X0440461Y0169972D01*
X0439694Y0169205D01*
X0436625Y0172274D01*
X0439694Y0172274D01*
X0436625Y0172274D02*
X0435857Y0171507D01*
X0435857Y0169972D01*
X0436625Y0169205D01*
X0439694Y0169205D01*
X0439694Y0167670D02*
X0440461Y0166903D01*
X0440461Y0165368D01*
X0439694Y0164601D01*
X0436625Y0167670D01*
X0439694Y0167670D01*
X0436625Y0167670D02*
X0435857Y0166903D01*
X0435857Y0165368D01*
X0436625Y0164601D01*
X0439694Y0164601D01*
X0440461Y0163066D02*
X0440461Y0159997D01*
X0440461Y0161531D02*
X0435857Y0161531D01*
X0437392Y0159997D01*
X0471364Y0134821D02*
X0474433Y0134821D01*
X0472898Y0136355D02*
X0472898Y0133286D01*
X0491364Y0134821D02*
X0494433Y0134821D01*
X0514362Y0146240D02*
X0517165Y0146240D01*
X0517165Y0149591D02*
X0514362Y0149591D01*
X0514717Y0153976D02*
X0514717Y0157045D01*
X0516252Y0156278D02*
X0517787Y0156278D01*
X0516252Y0158580D02*
X0519321Y0158580D01*
X0516252Y0158580D02*
X0516252Y0153976D01*
X0514717Y0153976D02*
X0512415Y0153976D01*
X0511648Y0154743D01*
X0511648Y0157045D01*
X0510113Y0157812D02*
X0507044Y0154743D01*
X0507811Y0153976D01*
X0509346Y0153976D01*
X0510113Y0154743D01*
X0510113Y0157812D01*
X0509346Y0158580D01*
X0507811Y0158580D01*
X0507044Y0157812D01*
X0507044Y0154743D01*
X0505509Y0153976D02*
X0502440Y0153976D01*
X0503975Y0153976D02*
X0503975Y0158580D01*
X0502440Y0157045D01*
X0524064Y0157283D02*
X0527133Y0157283D01*
X0525598Y0157283D02*
X0525598Y0161887D01*
X0524064Y0160352D01*
X0528668Y0161119D02*
X0528668Y0158050D01*
X0531737Y0161119D01*
X0531737Y0158050D01*
X0530970Y0157283D01*
X0529435Y0157283D01*
X0528668Y0158050D01*
X0528668Y0161119D02*
X0529435Y0161887D01*
X0530970Y0161887D01*
X0531737Y0161119D01*
X0533272Y0160352D02*
X0533272Y0158050D01*
X0534039Y0157283D01*
X0536341Y0157283D01*
X0536341Y0160352D01*
X0537876Y0159585D02*
X0539410Y0159585D01*
X0537876Y0161887D02*
X0540945Y0161887D01*
X0537876Y0161887D02*
X0537876Y0157283D01*
X0536457Y0153870D02*
X0533654Y0153870D01*
X0533654Y0150520D02*
X0536457Y0150520D01*
X0478552Y0232866D02*
X0479320Y0233633D01*
X0479320Y0235168D01*
X0478552Y0235935D01*
X0477018Y0235935D01*
X0476250Y0235168D01*
X0476250Y0234401D01*
X0477018Y0232866D01*
X0474716Y0232866D01*
X0474716Y0235935D01*
X0475483Y0237470D02*
X0474716Y0238237D01*
X0474716Y0239772D01*
X0475483Y0240539D01*
X0478552Y0237470D01*
X0479320Y0238237D01*
X0479320Y0239772D01*
X0478552Y0240539D01*
X0475483Y0240539D01*
X0475483Y0237470D02*
X0478552Y0237470D01*
X0474013Y0252452D02*
X0474013Y0255521D01*
X0474013Y0253987D02*
X0469409Y0253987D01*
X0470943Y0252452D01*
X0471711Y0257056D02*
X0470943Y0258591D01*
X0470943Y0259358D01*
X0471711Y0260125D01*
X0473245Y0260125D01*
X0474013Y0259358D01*
X0474013Y0257823D01*
X0473245Y0257056D01*
X0471711Y0257056D02*
X0469409Y0257056D01*
X0469409Y0260125D01*
X0470176Y0261660D02*
X0469409Y0262427D01*
X0469409Y0263962D01*
X0470176Y0264729D01*
X0473245Y0261660D01*
X0474013Y0262427D01*
X0474013Y0263962D01*
X0473245Y0264729D01*
X0470176Y0264729D01*
X0470176Y0266264D02*
X0469409Y0267031D01*
X0469409Y0268566D01*
X0470176Y0269333D01*
X0473245Y0266264D01*
X0474013Y0267031D01*
X0474013Y0268566D01*
X0473245Y0269333D01*
X0470176Y0269333D01*
X0470176Y0266264D02*
X0473245Y0266264D01*
X0473245Y0261660D02*
X0470176Y0261660D01*
X0459249Y0262469D02*
X0458482Y0261702D01*
X0459249Y0262469D02*
X0459249Y0264004D01*
X0458482Y0264771D01*
X0456947Y0264771D01*
X0456180Y0264004D01*
X0456180Y0263236D01*
X0456947Y0261702D01*
X0454645Y0261702D01*
X0454645Y0264771D01*
X0455412Y0266305D02*
X0454645Y0267073D01*
X0454645Y0268607D01*
X0455412Y0269375D01*
X0458482Y0266305D01*
X0459249Y0267073D01*
X0459249Y0268607D01*
X0458482Y0269375D01*
X0455412Y0269375D01*
X0455412Y0266305D02*
X0458482Y0266305D01*
X0455412Y0260167D02*
X0454645Y0260167D01*
X0454645Y0257098D01*
X0455412Y0260167D02*
X0458482Y0257098D01*
X0459249Y0257098D01*
X0473318Y0276806D02*
X0474085Y0276806D01*
X0474852Y0277573D01*
X0474852Y0279875D01*
X0473318Y0279875D02*
X0476387Y0279875D01*
X0477154Y0279107D01*
X0477154Y0277573D01*
X0476387Y0276806D01*
X0473318Y0276806D02*
X0472550Y0277573D01*
X0472550Y0279107D01*
X0473318Y0279875D01*
X0473318Y0281409D02*
X0472550Y0282177D01*
X0472550Y0283711D01*
X0473318Y0284479D01*
X0474085Y0284479D01*
X0474852Y0283711D01*
X0475620Y0284479D01*
X0476387Y0284479D01*
X0477154Y0283711D01*
X0477154Y0282177D01*
X0476387Y0281409D01*
X0474852Y0282944D02*
X0474852Y0283711D01*
X0474085Y0286013D02*
X0472550Y0287548D01*
X0477154Y0287548D01*
X0477154Y0286013D02*
X0477154Y0289083D01*
X0475778Y0306609D02*
X0474243Y0306609D01*
X0473476Y0307377D01*
X0475010Y0308911D02*
X0475778Y0308911D01*
X0476545Y0308144D01*
X0476545Y0307377D01*
X0475778Y0306609D01*
X0475778Y0308911D02*
X0476545Y0309679D01*
X0476545Y0310446D01*
X0475778Y0311213D01*
X0474243Y0311213D01*
X0473476Y0310446D01*
X0478080Y0310446D02*
X0478080Y0307377D01*
X0481149Y0310446D01*
X0481149Y0307377D01*
X0480381Y0306609D01*
X0478847Y0306609D01*
X0478080Y0307377D01*
X0478080Y0310446D02*
X0478847Y0311213D01*
X0480381Y0311213D01*
X0481149Y0310446D01*
X0482683Y0310446D02*
X0482683Y0309679D01*
X0483451Y0308911D01*
X0485753Y0308911D01*
X0485753Y0307377D02*
X0485753Y0310446D01*
X0484985Y0311213D01*
X0483451Y0311213D01*
X0482683Y0310446D01*
X0482683Y0307377D02*
X0483451Y0306609D01*
X0484985Y0306609D01*
X0485753Y0307377D01*
X0495233Y0306657D02*
X0498302Y0306657D01*
X0496768Y0306657D02*
X0496768Y0311261D01*
X0495233Y0309726D01*
X0499837Y0309726D02*
X0501372Y0311261D01*
X0501372Y0306657D01*
X0502906Y0306657D02*
X0499837Y0306657D01*
X0504441Y0307424D02*
X0505208Y0306657D01*
X0506743Y0306657D01*
X0507510Y0307424D01*
X0507510Y0308959D01*
X0506743Y0309726D01*
X0505976Y0309726D01*
X0504441Y0308959D01*
X0504441Y0311261D01*
X0507510Y0311261D01*
X0509045Y0310493D02*
X0509812Y0311261D01*
X0511347Y0311261D01*
X0512114Y0310493D01*
X0509045Y0307424D01*
X0509812Y0306657D01*
X0511347Y0306657D01*
X0512114Y0307424D01*
X0512114Y0310493D01*
X0509045Y0310493D02*
X0509045Y0307424D01*
X0495875Y0273453D02*
X0492806Y0273453D01*
X0495875Y0270383D01*
X0496643Y0271151D01*
X0496643Y0272685D01*
X0495875Y0273453D01*
X0492806Y0273453D02*
X0492039Y0272685D01*
X0492039Y0271151D01*
X0492806Y0270383D01*
X0495875Y0270383D01*
X0495875Y0268849D02*
X0492806Y0268849D01*
X0495875Y0265780D01*
X0496643Y0266547D01*
X0496643Y0268081D01*
X0495875Y0268849D01*
X0492806Y0268849D02*
X0492039Y0268081D01*
X0492039Y0266547D01*
X0492806Y0265780D01*
X0495875Y0265780D01*
X0495875Y0264245D02*
X0496643Y0263478D01*
X0496643Y0261943D01*
X0495875Y0261176D01*
X0494341Y0261176D02*
X0493573Y0262710D01*
X0493573Y0263478D01*
X0494341Y0264245D01*
X0495875Y0264245D01*
X0494341Y0261176D02*
X0492039Y0261176D01*
X0492039Y0264245D01*
X0492039Y0258106D02*
X0496643Y0258106D01*
X0496863Y0256733D02*
X0496863Y0252129D01*
X0495329Y0252129D02*
X0498398Y0252129D01*
X0499933Y0252896D02*
X0503002Y0255966D01*
X0503002Y0252896D01*
X0502235Y0252129D01*
X0500700Y0252129D01*
X0499933Y0252896D01*
X0499933Y0255966D01*
X0500700Y0256733D01*
X0502235Y0256733D01*
X0503002Y0255966D01*
X0504537Y0256733D02*
X0504537Y0252129D01*
X0504537Y0253664D02*
X0506839Y0255198D01*
X0504537Y0253664D02*
X0506839Y0252129D01*
X0514106Y0252188D02*
X0514873Y0251420D01*
X0516408Y0251420D01*
X0517175Y0252188D01*
X0517175Y0253722D01*
X0516408Y0254490D01*
X0515641Y0254490D01*
X0514106Y0253722D01*
X0514106Y0256024D01*
X0517175Y0256024D01*
X0518710Y0256024D02*
X0518710Y0251420D01*
X0518710Y0252955D02*
X0521012Y0254490D01*
X0518710Y0252955D02*
X0521012Y0251420D01*
X0531822Y0252200D02*
X0534891Y0255269D01*
X0534891Y0256037D01*
X0534124Y0256804D01*
X0532589Y0256804D01*
X0531822Y0256037D01*
X0531822Y0252200D02*
X0534891Y0252200D01*
X0536426Y0252200D02*
X0536426Y0256804D01*
X0538728Y0255269D02*
X0536426Y0253735D01*
X0538728Y0252200D01*
X0496863Y0256733D02*
X0495329Y0255198D01*
X0496643Y0256572D02*
X0496643Y0259641D01*
X0493573Y0256572D02*
X0492039Y0258106D01*
X0444288Y0282137D02*
X0444288Y0285206D01*
X0443521Y0286741D02*
X0442754Y0286741D01*
X0441986Y0287508D01*
X0441986Y0289043D01*
X0442754Y0289810D01*
X0443521Y0289810D01*
X0444288Y0289043D01*
X0444288Y0287508D01*
X0443521Y0286741D01*
X0441986Y0287508D02*
X0441219Y0286741D01*
X0440452Y0286741D01*
X0439684Y0287508D01*
X0439684Y0289043D01*
X0440452Y0289810D01*
X0441219Y0289810D01*
X0441986Y0289043D01*
X0443521Y0291345D02*
X0440452Y0294414D01*
X0439684Y0294414D01*
X0439684Y0291345D01*
X0443521Y0291345D02*
X0444288Y0291345D01*
X0441219Y0285206D02*
X0440452Y0285206D01*
X0439684Y0284439D01*
X0439684Y0282904D01*
X0440452Y0282137D01*
X0441219Y0285206D02*
X0444288Y0282137D01*
X0376095Y0282017D02*
X0376095Y0280482D01*
X0375328Y0279715D01*
X0372259Y0282784D01*
X0375328Y0282784D01*
X0376095Y0282017D01*
X0376095Y0284319D02*
X0376095Y0285086D01*
X0375328Y0285086D01*
X0375328Y0284319D01*
X0376095Y0284319D01*
X0376095Y0286620D02*
X0376095Y0289690D01*
X0376095Y0288155D02*
X0371491Y0288155D01*
X0373026Y0286620D01*
X0372259Y0282784D02*
X0371491Y0282017D01*
X0371491Y0280482D01*
X0372259Y0279715D01*
X0375328Y0279715D01*
X0375328Y0291224D02*
X0376095Y0291992D01*
X0376095Y0294294D01*
X0373026Y0294294D01*
X0373793Y0295828D02*
X0373793Y0297363D01*
X0371491Y0295828D02*
X0371491Y0298898D01*
X0371491Y0295828D02*
X0376095Y0295828D01*
X0375328Y0291224D02*
X0373026Y0291224D01*
X0365535Y0293969D02*
X0365535Y0296772D01*
X0362185Y0296772D02*
X0362185Y0293969D01*
X0354405Y0289794D02*
X0354405Y0286724D01*
X0359009Y0286724D01*
X0359009Y0285190D02*
X0355939Y0285190D01*
X0356707Y0286724D02*
X0356707Y0288259D01*
X0359009Y0285190D02*
X0359009Y0282888D01*
X0358241Y0282120D01*
X0355939Y0282120D01*
X0355172Y0280586D02*
X0358241Y0277517D01*
X0359009Y0278284D01*
X0359009Y0279818D01*
X0358241Y0280586D01*
X0355172Y0280586D01*
X0354405Y0279818D01*
X0354405Y0278284D01*
X0355172Y0277517D01*
X0358241Y0277517D01*
X0359009Y0275982D02*
X0359009Y0272913D01*
X0359009Y0274447D02*
X0354405Y0274447D01*
X0355939Y0272913D01*
X0349421Y0278535D02*
X0349421Y0281339D01*
X0346071Y0281339D02*
X0346071Y0278535D01*
X0346346Y0304562D02*
X0345578Y0305330D01*
X0345578Y0306097D01*
X0346346Y0306864D01*
X0347880Y0306864D01*
X0348648Y0306097D01*
X0348648Y0305330D01*
X0347880Y0304562D01*
X0346346Y0304562D01*
X0346346Y0306864D02*
X0345578Y0307631D01*
X0345578Y0308399D01*
X0346346Y0309166D01*
X0347880Y0309166D01*
X0348648Y0308399D01*
X0348648Y0307631D01*
X0347880Y0306864D01*
X0350182Y0305330D02*
X0350950Y0304562D01*
X0352484Y0304562D01*
X0353252Y0305330D01*
X0353252Y0306097D01*
X0352484Y0306864D01*
X0351717Y0306864D01*
X0352484Y0306864D02*
X0353252Y0307631D01*
X0353252Y0308399D01*
X0352484Y0309166D01*
X0350950Y0309166D01*
X0350182Y0308399D01*
X0354786Y0308399D02*
X0355553Y0309166D01*
X0357088Y0309166D01*
X0357855Y0308399D01*
X0357855Y0307631D01*
X0357088Y0306864D01*
X0355553Y0306864D01*
X0354786Y0307631D01*
X0354786Y0308399D01*
X0355553Y0306864D02*
X0354786Y0306097D01*
X0354786Y0305330D01*
X0355553Y0304562D01*
X0357088Y0304562D01*
X0357855Y0305330D01*
X0357855Y0306097D01*
X0357088Y0306864D01*
X0359390Y0306097D02*
X0361692Y0307631D01*
X0359390Y0306097D02*
X0361692Y0304562D01*
X0359390Y0304562D02*
X0359390Y0309166D01*
X0344044Y0305330D02*
X0344044Y0304562D01*
X0343276Y0304562D01*
X0343276Y0305330D01*
X0344044Y0305330D01*
X0341742Y0308399D02*
X0338672Y0305330D01*
X0338672Y0304562D01*
X0341742Y0308399D02*
X0341742Y0309166D01*
X0338672Y0309166D01*
X0369795Y0220642D02*
X0372598Y0220642D01*
X0372598Y0217291D02*
X0369795Y0217291D01*
X0365536Y0137143D02*
X0365536Y0134074D01*
X0364002Y0135608D02*
X0367071Y0135608D01*
X0384002Y0135608D02*
X0387071Y0135608D01*
D11*
X0322298Y0212486D02*
X0319161Y0215622D01*
X0322298Y0212486D01*
X0322298Y0214054D02*
X0319161Y0214054D01*
X0322298Y0214054D01*
X0322298Y0215622D02*
X0319161Y0212486D01*
X0322298Y0215622D01*
X0320729Y0215622D02*
X0320729Y0212486D01*
X0320729Y0215622D01*
X0505087Y0261780D02*
X0507022Y0261780D01*
X0506054Y0261780D02*
X0506054Y0264682D01*
X0505087Y0263715D01*
X0505571Y0266580D02*
X0505087Y0267064D01*
X0505571Y0266580D02*
X0506538Y0266580D01*
X0507022Y0267064D01*
X0507022Y0268031D01*
X0506538Y0268515D01*
X0506054Y0268515D01*
X0505087Y0268031D01*
X0505087Y0269482D01*
X0507022Y0269482D01*
X0508034Y0269482D02*
X0508034Y0266580D01*
X0508034Y0267547D02*
X0509485Y0268515D01*
X0510489Y0268515D02*
X0510489Y0268031D01*
X0510973Y0268031D01*
X0510973Y0268515D01*
X0510489Y0268515D01*
X0510489Y0267064D02*
X0510489Y0266580D01*
X0510973Y0266580D01*
X0510973Y0267064D01*
X0510489Y0267064D01*
X0509485Y0266580D02*
X0508034Y0267547D01*
X0508517Y0264682D02*
X0509485Y0264682D01*
X0509969Y0264199D01*
X0508034Y0262264D01*
X0508517Y0261780D01*
X0509485Y0261780D01*
X0509969Y0262264D01*
X0509969Y0264199D01*
X0510980Y0264682D02*
X0510980Y0261780D01*
X0510980Y0262747D02*
X0512431Y0263715D01*
X0513435Y0263715D02*
X0513435Y0263231D01*
X0513919Y0263231D01*
X0513919Y0263715D01*
X0513435Y0263715D01*
X0513435Y0262264D02*
X0513435Y0261780D01*
X0513919Y0261780D01*
X0513919Y0262264D01*
X0513435Y0262264D01*
X0512431Y0261780D02*
X0510980Y0262747D01*
X0508034Y0262264D02*
X0508034Y0264199D01*
X0508517Y0264682D01*
X0517855Y0263715D02*
X0518823Y0264682D01*
X0518823Y0261780D01*
X0519790Y0261780D02*
X0517855Y0261780D01*
X0520802Y0262264D02*
X0522737Y0264199D01*
X0522737Y0262264D01*
X0522253Y0261780D01*
X0521285Y0261780D01*
X0520802Y0262264D01*
X0520802Y0264199D01*
X0521285Y0264682D01*
X0522253Y0264682D01*
X0522737Y0264199D01*
X0523748Y0264199D02*
X0524232Y0264682D01*
X0525200Y0264682D01*
X0525683Y0264199D01*
X0523748Y0262264D01*
X0524232Y0261780D01*
X0525200Y0261780D01*
X0525683Y0262264D01*
X0525683Y0264199D01*
X0526695Y0263715D02*
X0526695Y0262264D01*
X0527179Y0261780D01*
X0528630Y0261780D01*
X0528630Y0263715D01*
X0529641Y0263715D02*
X0530609Y0264682D01*
X0531576Y0263715D01*
X0531576Y0261780D01*
X0531576Y0263231D02*
X0529641Y0263231D01*
X0529641Y0263715D02*
X0529641Y0261780D01*
X0530125Y0266580D02*
X0531576Y0266580D01*
X0531576Y0268515D01*
X0532588Y0268515D02*
X0533555Y0269482D01*
X0534523Y0268515D01*
X0534523Y0266580D01*
X0534523Y0268031D02*
X0532588Y0268031D01*
X0532588Y0268515D02*
X0532588Y0266580D01*
X0530125Y0266580D02*
X0529641Y0267064D01*
X0529641Y0268515D01*
X0528630Y0268999D02*
X0526695Y0267064D01*
X0527179Y0266580D01*
X0528146Y0266580D01*
X0528630Y0267064D01*
X0528630Y0268999D01*
X0528146Y0269482D01*
X0527179Y0269482D01*
X0526695Y0268999D01*
X0526695Y0267064D01*
X0525683Y0267064D02*
X0525200Y0266580D01*
X0524232Y0266580D01*
X0523748Y0267064D01*
X0525683Y0268999D01*
X0525683Y0267064D01*
X0525683Y0268999D02*
X0525200Y0269482D01*
X0524232Y0269482D01*
X0523748Y0268999D01*
X0523748Y0267064D01*
X0522737Y0266580D02*
X0520802Y0266580D01*
X0522737Y0268515D01*
X0522737Y0268999D01*
X0522253Y0269482D01*
X0521285Y0269482D01*
X0520802Y0268999D01*
X0521285Y0271380D02*
X0520802Y0271864D01*
X0521285Y0271380D02*
X0522253Y0271380D01*
X0522737Y0271864D01*
X0522737Y0272831D01*
X0522253Y0273315D01*
X0521769Y0273315D01*
X0520802Y0272831D01*
X0520802Y0274282D01*
X0522737Y0274282D01*
X0523748Y0273799D02*
X0524232Y0274282D01*
X0525200Y0274282D01*
X0525683Y0273799D01*
X0523748Y0271864D01*
X0524232Y0271380D01*
X0525200Y0271380D01*
X0525683Y0271864D01*
X0525683Y0273799D01*
X0526695Y0273799D02*
X0527179Y0274282D01*
X0528146Y0274282D01*
X0528630Y0273799D01*
X0526695Y0271864D01*
X0527179Y0271380D01*
X0528146Y0271380D01*
X0528630Y0271864D01*
X0528630Y0273799D01*
X0529641Y0273315D02*
X0529641Y0271864D01*
X0530125Y0271380D01*
X0531576Y0271380D01*
X0531576Y0273315D01*
X0532588Y0273315D02*
X0533555Y0274282D01*
X0534523Y0273315D01*
X0534523Y0271380D01*
X0534523Y0272831D02*
X0532588Y0272831D01*
X0532588Y0273315D02*
X0532588Y0271380D01*
X0532097Y0276180D02*
X0532097Y0278115D01*
X0533064Y0278115D02*
X0533548Y0278115D01*
X0533064Y0278115D02*
X0532097Y0277147D01*
X0531093Y0278115D02*
X0530609Y0278115D01*
X0529641Y0277147D01*
X0529641Y0276180D02*
X0529641Y0278115D01*
X0528630Y0278115D02*
X0528630Y0276180D01*
X0527179Y0276180D01*
X0526695Y0276664D01*
X0526695Y0278115D01*
X0525683Y0278115D02*
X0524232Y0278115D01*
X0523748Y0277631D01*
X0523748Y0276664D01*
X0524232Y0276180D01*
X0525683Y0276180D01*
X0526695Y0273799D02*
X0526695Y0271864D01*
X0523748Y0271864D02*
X0523748Y0273799D01*
X0519805Y0276180D02*
X0519321Y0276664D01*
X0519321Y0278599D01*
X0518837Y0278115D02*
X0519805Y0278115D01*
X0517826Y0278115D02*
X0517826Y0276180D01*
X0516375Y0276180D01*
X0515891Y0276664D01*
X0515891Y0278115D01*
X0514879Y0277631D02*
X0514879Y0276664D01*
X0514396Y0276180D01*
X0512944Y0276180D01*
X0512944Y0275212D02*
X0512944Y0278115D01*
X0514396Y0278115D01*
X0514879Y0277631D01*
X0515891Y0280012D02*
X0516375Y0280012D01*
X0516858Y0280496D01*
X0516858Y0282915D01*
X0516858Y0283882D02*
X0516858Y0284366D01*
X0517855Y0282915D02*
X0517855Y0281464D01*
X0518339Y0280980D01*
X0519790Y0280980D01*
X0519790Y0282915D01*
X0520802Y0282915D02*
X0521286Y0282915D01*
X0521769Y0282431D01*
X0522253Y0282915D01*
X0522737Y0282431D01*
X0522737Y0280980D01*
X0521769Y0280980D02*
X0521769Y0282431D01*
X0520802Y0282915D02*
X0520802Y0280980D01*
X0523748Y0280980D02*
X0525200Y0280980D01*
X0525683Y0281464D01*
X0525683Y0282431D01*
X0525200Y0282915D01*
X0523748Y0282915D01*
X0523748Y0280012D01*
X0526695Y0281464D02*
X0526695Y0282431D01*
X0527179Y0282915D01*
X0528146Y0282915D01*
X0528630Y0282431D01*
X0528630Y0281947D01*
X0526695Y0281947D01*
X0526695Y0281464D02*
X0527179Y0280980D01*
X0528146Y0280980D01*
X0529641Y0280980D02*
X0529641Y0282915D01*
X0529641Y0281947D02*
X0530609Y0282915D01*
X0531093Y0282915D01*
X0535043Y0282431D02*
X0536011Y0282431D01*
X0537008Y0282431D02*
X0537008Y0281464D01*
X0537491Y0280980D01*
X0538459Y0280980D01*
X0538943Y0281464D01*
X0538943Y0282431D01*
X0538459Y0282915D01*
X0537491Y0282915D01*
X0537008Y0282431D01*
X0536011Y0283882D02*
X0535527Y0283399D01*
X0535527Y0280980D01*
X0536003Y0278115D02*
X0536487Y0277631D01*
X0536487Y0277147D01*
X0534552Y0277147D01*
X0534552Y0276664D02*
X0534552Y0277631D01*
X0535036Y0278115D01*
X0536003Y0278115D01*
X0537499Y0278115D02*
X0537499Y0276180D01*
X0536003Y0276180D02*
X0535036Y0276180D01*
X0534552Y0276664D01*
X0537499Y0278115D02*
X0538950Y0278115D01*
X0539434Y0277631D01*
X0539434Y0276180D01*
X0540929Y0276664D02*
X0541413Y0276180D01*
X0540929Y0276664D02*
X0540929Y0278599D01*
X0540445Y0278115D02*
X0541413Y0278115D01*
X0542410Y0278115D02*
X0542410Y0277631D01*
X0542893Y0277631D01*
X0542893Y0278115D01*
X0542410Y0278115D01*
X0542410Y0276664D02*
X0542410Y0276180D01*
X0542893Y0276180D01*
X0542893Y0276664D01*
X0542410Y0276664D01*
X0539954Y0280980D02*
X0539954Y0282915D01*
X0539954Y0281947D02*
X0540922Y0282915D01*
X0541405Y0282915D01*
X0532952Y0290914D02*
X0531100Y0290914D01*
X0530483Y0291531D01*
X0531100Y0292148D01*
X0532952Y0292148D01*
X0532952Y0292765D02*
X0532952Y0290914D01*
X0532952Y0292765D02*
X0532335Y0293383D01*
X0531100Y0293383D01*
X0529269Y0292765D02*
X0529269Y0292148D01*
X0526800Y0292148D01*
X0526800Y0291531D02*
X0526800Y0292765D01*
X0527417Y0293383D01*
X0528652Y0293383D01*
X0529269Y0292765D01*
X0528652Y0290914D02*
X0527417Y0290914D01*
X0526800Y0291531D01*
X0525582Y0293383D02*
X0524965Y0293383D01*
X0523731Y0292148D01*
X0522516Y0292148D02*
X0520665Y0292148D01*
X0520048Y0291531D01*
X0520665Y0290914D01*
X0522516Y0290914D01*
X0522516Y0292765D01*
X0521899Y0293383D01*
X0520665Y0293383D01*
X0523731Y0293383D02*
X0523731Y0290914D01*
X0522503Y0296914D02*
X0522503Y0299383D01*
X0524355Y0299383D01*
X0524972Y0298765D01*
X0524972Y0296914D01*
X0521282Y0296914D02*
X0520048Y0296914D01*
X0520665Y0296914D02*
X0520665Y0299383D01*
X0520048Y0299383D01*
X0520665Y0300617D02*
X0520665Y0301234D01*
X0520048Y0302914D02*
X0520048Y0305383D01*
X0521282Y0305383D02*
X0521899Y0305383D01*
X0521282Y0305383D02*
X0520048Y0304148D01*
X0523117Y0304148D02*
X0525586Y0304148D01*
X0525586Y0304765D01*
X0524968Y0305383D01*
X0523734Y0305383D01*
X0523117Y0304765D01*
X0523117Y0303531D01*
X0523734Y0302914D01*
X0524968Y0302914D01*
X0526800Y0302914D02*
X0528652Y0302914D01*
X0529269Y0303531D01*
X0528652Y0304148D01*
X0527417Y0304148D01*
X0526800Y0304765D01*
X0527417Y0305383D01*
X0529269Y0305383D01*
X0530483Y0305383D02*
X0531100Y0305383D01*
X0531100Y0302914D01*
X0530483Y0302914D02*
X0531718Y0302914D01*
X0532939Y0302914D02*
X0534790Y0302914D01*
X0535407Y0303531D01*
X0534790Y0304148D01*
X0533556Y0304148D01*
X0532939Y0304765D01*
X0533556Y0305383D01*
X0535407Y0305383D01*
X0536622Y0305383D02*
X0537856Y0305383D01*
X0537239Y0306000D02*
X0537239Y0303531D01*
X0537856Y0302914D01*
X0539077Y0303531D02*
X0539694Y0302914D01*
X0540929Y0302914D01*
X0541546Y0303531D01*
X0541546Y0304765D01*
X0540929Y0305383D01*
X0539694Y0305383D01*
X0539077Y0304765D01*
X0539077Y0303531D01*
X0536625Y0301234D02*
X0536625Y0300617D01*
X0536625Y0299383D02*
X0536625Y0296914D01*
X0536008Y0296914D02*
X0537242Y0296914D01*
X0538463Y0296914D02*
X0540315Y0296914D01*
X0540932Y0297531D01*
X0540315Y0298148D01*
X0539081Y0298148D01*
X0538463Y0298765D01*
X0539081Y0299383D01*
X0540932Y0299383D01*
X0542760Y0302914D02*
X0542760Y0305383D01*
X0542760Y0304148D02*
X0543995Y0305383D01*
X0544612Y0305383D01*
X0545830Y0304765D02*
X0546447Y0305383D01*
X0548298Y0305383D01*
X0547681Y0304148D02*
X0546447Y0304148D01*
X0545830Y0304765D01*
X0545830Y0302914D02*
X0547681Y0302914D01*
X0548298Y0303531D01*
X0547681Y0304148D01*
X0543391Y0308914D02*
X0542774Y0308914D01*
X0542774Y0309531D01*
X0543391Y0309531D01*
X0543391Y0308914D01*
X0540305Y0308914D02*
X0543391Y0312617D01*
X0540922Y0312617D02*
X0540922Y0312000D01*
X0540305Y0312000D01*
X0540305Y0312617D01*
X0540922Y0312617D01*
X0537856Y0312617D02*
X0537856Y0308914D01*
X0536622Y0308914D02*
X0539091Y0308914D01*
X0536622Y0311383D02*
X0537856Y0312617D01*
X0535397Y0309531D02*
X0535397Y0308914D01*
X0534780Y0308914D01*
X0534780Y0309531D01*
X0535397Y0309531D01*
X0531100Y0307234D02*
X0531100Y0306617D01*
X0529266Y0308914D02*
X0528031Y0308914D01*
X0527414Y0309531D01*
X0527414Y0310765D01*
X0528031Y0311383D01*
X0529266Y0311383D01*
X0529883Y0310765D01*
X0529883Y0310148D01*
X0527414Y0310148D01*
X0526200Y0309531D02*
X0525582Y0310148D01*
X0524348Y0310148D01*
X0523731Y0310765D01*
X0524348Y0311383D01*
X0526200Y0311383D01*
X0526200Y0309531D02*
X0525582Y0308914D01*
X0523731Y0308914D01*
X0522516Y0309531D02*
X0522516Y0312617D01*
X0520048Y0312617D02*
X0520048Y0309531D01*
X0520665Y0308914D01*
X0521899Y0308914D01*
X0522516Y0309531D01*
X0530487Y0300000D02*
X0530487Y0297531D01*
X0531104Y0296914D01*
X0532325Y0296914D02*
X0532325Y0300617D01*
X0532942Y0299383D02*
X0534176Y0299383D01*
X0534794Y0298765D01*
X0534794Y0296914D01*
X0536008Y0299383D02*
X0536625Y0299383D01*
X0532942Y0299383D02*
X0532325Y0298765D01*
X0531104Y0299383D02*
X0529869Y0299383D01*
X0511948Y0282915D02*
X0510980Y0282915D01*
X0511464Y0283399D02*
X0511464Y0281464D01*
X0511948Y0280980D01*
X0509969Y0281947D02*
X0508034Y0281947D01*
X0508034Y0281464D02*
X0508034Y0282431D01*
X0508517Y0282915D01*
X0509485Y0282915D01*
X0509969Y0282431D01*
X0509969Y0281947D01*
X0509485Y0280980D02*
X0508517Y0280980D01*
X0508034Y0281464D01*
X0507022Y0281464D02*
X0506538Y0280980D01*
X0505571Y0280980D01*
X0505087Y0281464D01*
X0505571Y0282431D02*
X0505087Y0282915D01*
X0505087Y0283399D01*
X0505571Y0283882D01*
X0506538Y0283882D01*
X0507022Y0283399D01*
X0506538Y0282431D02*
X0507022Y0281947D01*
X0507022Y0281464D01*
X0506538Y0282431D02*
X0505571Y0282431D01*
X0505571Y0278115D02*
X0505087Y0277631D01*
X0505087Y0276664D01*
X0505571Y0276180D01*
X0506538Y0276180D01*
X0507022Y0276664D01*
X0507022Y0277631D01*
X0506538Y0278115D01*
X0505571Y0278115D01*
X0508034Y0278115D02*
X0508034Y0276664D01*
X0508517Y0276180D01*
X0509969Y0276180D01*
X0509969Y0278115D01*
X0510980Y0278115D02*
X0511948Y0278115D01*
X0511464Y0278599D02*
X0511464Y0276664D01*
X0511948Y0276180D01*
X0510973Y0273315D02*
X0510973Y0272831D01*
X0510489Y0272831D01*
X0510489Y0273315D01*
X0510973Y0273315D01*
X0510973Y0271864D02*
X0510973Y0271380D01*
X0510489Y0271380D01*
X0510489Y0271864D01*
X0510973Y0271864D01*
X0509485Y0271380D02*
X0508034Y0272347D01*
X0509485Y0273315D01*
X0508034Y0274282D02*
X0508034Y0271380D01*
X0507022Y0271380D02*
X0505087Y0271380D01*
X0507022Y0273315D01*
X0507022Y0273799D01*
X0506538Y0274282D01*
X0505571Y0274282D01*
X0505087Y0273799D01*
X0523748Y0264199D02*
X0523748Y0262264D01*
X0533194Y0121635D02*
X0536330Y0118499D01*
X0533194Y0121635D01*
X0533194Y0120067D02*
X0536330Y0120067D01*
X0533194Y0120067D01*
X0533194Y0118499D02*
X0536330Y0121635D01*
X0533194Y0118499D01*
X0534762Y0118499D02*
X0534762Y0121635D01*
X0534762Y0118499D01*
D12*
X0529080Y0121769D02*
X0524680Y0121769D01*
X0522280Y0121769D01*
X0517880Y0121769D01*
X0522280Y0121769D02*
X0522282Y0121838D01*
X0522288Y0121906D01*
X0522298Y0121974D01*
X0522311Y0122041D01*
X0522329Y0122107D01*
X0522350Y0122172D01*
X0522375Y0122236D01*
X0522403Y0122298D01*
X0522435Y0122359D01*
X0522470Y0122418D01*
X0522509Y0122474D01*
X0522551Y0122529D01*
X0522596Y0122580D01*
X0522644Y0122630D01*
X0522694Y0122676D01*
X0522747Y0122719D01*
X0522803Y0122760D01*
X0522860Y0122797D01*
X0522920Y0122830D01*
X0522982Y0122861D01*
X0523045Y0122887D01*
X0523109Y0122910D01*
X0523175Y0122930D01*
X0523242Y0122945D01*
X0523309Y0122957D01*
X0523377Y0122965D01*
X0523446Y0122969D01*
X0523514Y0122969D01*
X0523583Y0122965D01*
X0523651Y0122957D01*
X0523718Y0122945D01*
X0523785Y0122930D01*
X0523851Y0122910D01*
X0523915Y0122887D01*
X0523978Y0122861D01*
X0524040Y0122830D01*
X0524100Y0122797D01*
X0524157Y0122760D01*
X0524213Y0122719D01*
X0524266Y0122676D01*
X0524316Y0122630D01*
X0524364Y0122580D01*
X0524409Y0122529D01*
X0524451Y0122474D01*
X0524490Y0122418D01*
X0524525Y0122359D01*
X0524557Y0122298D01*
X0524585Y0122236D01*
X0524610Y0122172D01*
X0524631Y0122107D01*
X0524649Y0122041D01*
X0524662Y0121974D01*
X0524672Y0121906D01*
X0524678Y0121838D01*
X0524680Y0121769D01*
X0529080Y0141569D02*
X0517880Y0141569D01*
X0482516Y0174189D02*
X0482516Y0177417D01*
X0477516Y0177417D02*
X0477516Y0174189D01*
X0491886Y0182063D02*
X0491886Y0185291D01*
X0496886Y0185291D02*
X0496886Y0182063D01*
X0508630Y0194740D02*
X0508632Y0194849D01*
X0508638Y0194958D01*
X0508648Y0195066D01*
X0508662Y0195174D01*
X0508679Y0195282D01*
X0508701Y0195389D01*
X0508726Y0195495D01*
X0508756Y0195599D01*
X0508789Y0195703D01*
X0508826Y0195806D01*
X0508866Y0195907D01*
X0508910Y0196006D01*
X0508958Y0196104D01*
X0509010Y0196201D01*
X0509064Y0196295D01*
X0509122Y0196387D01*
X0509184Y0196477D01*
X0509249Y0196564D01*
X0509316Y0196650D01*
X0509387Y0196733D01*
X0509461Y0196813D01*
X0509538Y0196890D01*
X0509617Y0196965D01*
X0509699Y0197036D01*
X0509784Y0197105D01*
X0509871Y0197170D01*
X0509960Y0197233D01*
X0510052Y0197291D01*
X0510146Y0197347D01*
X0510241Y0197399D01*
X0510339Y0197448D01*
X0510438Y0197493D01*
X0510539Y0197535D01*
X0510641Y0197572D01*
X0510744Y0197606D01*
X0510849Y0197637D01*
X0510955Y0197663D01*
X0511061Y0197686D01*
X0511169Y0197704D01*
X0511277Y0197719D01*
X0511385Y0197730D01*
X0511494Y0197737D01*
X0511603Y0197740D01*
X0511712Y0197739D01*
X0511821Y0197734D01*
X0511929Y0197725D01*
X0512037Y0197712D01*
X0512145Y0197695D01*
X0512252Y0197675D01*
X0512358Y0197650D01*
X0512463Y0197622D01*
X0512567Y0197590D01*
X0512670Y0197554D01*
X0512772Y0197514D01*
X0512872Y0197471D01*
X0512970Y0197424D01*
X0513067Y0197374D01*
X0513161Y0197320D01*
X0513254Y0197262D01*
X0513345Y0197202D01*
X0513433Y0197138D01*
X0513519Y0197071D01*
X0513602Y0197001D01*
X0513683Y0196928D01*
X0513761Y0196852D01*
X0513836Y0196773D01*
X0513909Y0196691D01*
X0513978Y0196607D01*
X0514044Y0196521D01*
X0514107Y0196432D01*
X0514167Y0196341D01*
X0514224Y0196248D01*
X0514277Y0196153D01*
X0514326Y0196056D01*
X0514372Y0195957D01*
X0514414Y0195857D01*
X0514453Y0195755D01*
X0514488Y0195651D01*
X0514519Y0195547D01*
X0514547Y0195442D01*
X0514570Y0195335D01*
X0514590Y0195228D01*
X0514606Y0195120D01*
X0514618Y0195012D01*
X0514626Y0194903D01*
X0514630Y0194794D01*
X0514630Y0194686D01*
X0514626Y0194577D01*
X0514618Y0194468D01*
X0514606Y0194360D01*
X0514590Y0194252D01*
X0514570Y0194145D01*
X0514547Y0194038D01*
X0514519Y0193933D01*
X0514488Y0193829D01*
X0514453Y0193725D01*
X0514414Y0193623D01*
X0514372Y0193523D01*
X0514326Y0193424D01*
X0514277Y0193327D01*
X0514224Y0193232D01*
X0514167Y0193139D01*
X0514107Y0193048D01*
X0514044Y0192959D01*
X0513978Y0192873D01*
X0513909Y0192789D01*
X0513836Y0192707D01*
X0513761Y0192628D01*
X0513683Y0192552D01*
X0513602Y0192479D01*
X0513519Y0192409D01*
X0513433Y0192342D01*
X0513345Y0192278D01*
X0513254Y0192218D01*
X0513161Y0192160D01*
X0513067Y0192106D01*
X0512970Y0192056D01*
X0512872Y0192009D01*
X0512772Y0191966D01*
X0512670Y0191926D01*
X0512567Y0191890D01*
X0512463Y0191858D01*
X0512358Y0191830D01*
X0512252Y0191805D01*
X0512145Y0191785D01*
X0512037Y0191768D01*
X0511929Y0191755D01*
X0511821Y0191746D01*
X0511712Y0191741D01*
X0511603Y0191740D01*
X0511494Y0191743D01*
X0511385Y0191750D01*
X0511277Y0191761D01*
X0511169Y0191776D01*
X0511061Y0191794D01*
X0510955Y0191817D01*
X0510849Y0191843D01*
X0510744Y0191874D01*
X0510641Y0191908D01*
X0510539Y0191945D01*
X0510438Y0191987D01*
X0510339Y0192032D01*
X0510241Y0192081D01*
X0510146Y0192133D01*
X0510052Y0192189D01*
X0509960Y0192247D01*
X0509871Y0192310D01*
X0509784Y0192375D01*
X0509699Y0192444D01*
X0509617Y0192515D01*
X0509538Y0192590D01*
X0509461Y0192667D01*
X0509387Y0192747D01*
X0509316Y0192830D01*
X0509249Y0192916D01*
X0509184Y0193003D01*
X0509122Y0193093D01*
X0509064Y0193185D01*
X0509010Y0193279D01*
X0508958Y0193376D01*
X0508910Y0193474D01*
X0508866Y0193573D01*
X0508826Y0193674D01*
X0508789Y0193777D01*
X0508756Y0193881D01*
X0508726Y0193985D01*
X0508701Y0194091D01*
X0508679Y0194198D01*
X0508662Y0194306D01*
X0508648Y0194414D01*
X0508638Y0194522D01*
X0508632Y0194631D01*
X0508630Y0194740D01*
X0510091Y0203441D02*
X0503091Y0203441D01*
X0501591Y0204941D01*
X0501591Y0221941D01*
X0503091Y0223441D01*
X0510091Y0223441D01*
X0511591Y0221941D01*
X0513091Y0223441D01*
X0520091Y0223441D01*
X0521591Y0221941D01*
X0523091Y0223441D01*
X0530091Y0223441D01*
X0531591Y0221941D01*
X0531591Y0204941D01*
X0530091Y0203441D01*
X0523091Y0203441D01*
X0521591Y0204941D01*
X0520091Y0203441D01*
X0513091Y0203441D01*
X0511591Y0204941D01*
X0510091Y0203441D01*
X0519654Y0195055D02*
X0519656Y0195164D01*
X0519662Y0195273D01*
X0519672Y0195381D01*
X0519686Y0195489D01*
X0519703Y0195597D01*
X0519725Y0195704D01*
X0519750Y0195810D01*
X0519780Y0195914D01*
X0519813Y0196018D01*
X0519850Y0196121D01*
X0519890Y0196222D01*
X0519934Y0196321D01*
X0519982Y0196419D01*
X0520034Y0196516D01*
X0520088Y0196610D01*
X0520146Y0196702D01*
X0520208Y0196792D01*
X0520273Y0196879D01*
X0520340Y0196965D01*
X0520411Y0197048D01*
X0520485Y0197128D01*
X0520562Y0197205D01*
X0520641Y0197280D01*
X0520723Y0197351D01*
X0520808Y0197420D01*
X0520895Y0197485D01*
X0520984Y0197548D01*
X0521076Y0197606D01*
X0521170Y0197662D01*
X0521265Y0197714D01*
X0521363Y0197763D01*
X0521462Y0197808D01*
X0521563Y0197850D01*
X0521665Y0197887D01*
X0521768Y0197921D01*
X0521873Y0197952D01*
X0521979Y0197978D01*
X0522085Y0198001D01*
X0522193Y0198019D01*
X0522301Y0198034D01*
X0522409Y0198045D01*
X0522518Y0198052D01*
X0522627Y0198055D01*
X0522736Y0198054D01*
X0522845Y0198049D01*
X0522953Y0198040D01*
X0523061Y0198027D01*
X0523169Y0198010D01*
X0523276Y0197990D01*
X0523382Y0197965D01*
X0523487Y0197937D01*
X0523591Y0197905D01*
X0523694Y0197869D01*
X0523796Y0197829D01*
X0523896Y0197786D01*
X0523994Y0197739D01*
X0524091Y0197689D01*
X0524185Y0197635D01*
X0524278Y0197577D01*
X0524369Y0197517D01*
X0524457Y0197453D01*
X0524543Y0197386D01*
X0524626Y0197316D01*
X0524707Y0197243D01*
X0524785Y0197167D01*
X0524860Y0197088D01*
X0524933Y0197006D01*
X0525002Y0196922D01*
X0525068Y0196836D01*
X0525131Y0196747D01*
X0525191Y0196656D01*
X0525248Y0196563D01*
X0525301Y0196468D01*
X0525350Y0196371D01*
X0525396Y0196272D01*
X0525438Y0196172D01*
X0525477Y0196070D01*
X0525512Y0195966D01*
X0525543Y0195862D01*
X0525571Y0195757D01*
X0525594Y0195650D01*
X0525614Y0195543D01*
X0525630Y0195435D01*
X0525642Y0195327D01*
X0525650Y0195218D01*
X0525654Y0195109D01*
X0525654Y0195001D01*
X0525650Y0194892D01*
X0525642Y0194783D01*
X0525630Y0194675D01*
X0525614Y0194567D01*
X0525594Y0194460D01*
X0525571Y0194353D01*
X0525543Y0194248D01*
X0525512Y0194144D01*
X0525477Y0194040D01*
X0525438Y0193938D01*
X0525396Y0193838D01*
X0525350Y0193739D01*
X0525301Y0193642D01*
X0525248Y0193547D01*
X0525191Y0193454D01*
X0525131Y0193363D01*
X0525068Y0193274D01*
X0525002Y0193188D01*
X0524933Y0193104D01*
X0524860Y0193022D01*
X0524785Y0192943D01*
X0524707Y0192867D01*
X0524626Y0192794D01*
X0524543Y0192724D01*
X0524457Y0192657D01*
X0524369Y0192593D01*
X0524278Y0192533D01*
X0524185Y0192475D01*
X0524091Y0192421D01*
X0523994Y0192371D01*
X0523896Y0192324D01*
X0523796Y0192281D01*
X0523694Y0192241D01*
X0523591Y0192205D01*
X0523487Y0192173D01*
X0523382Y0192145D01*
X0523276Y0192120D01*
X0523169Y0192100D01*
X0523061Y0192083D01*
X0522953Y0192070D01*
X0522845Y0192061D01*
X0522736Y0192056D01*
X0522627Y0192055D01*
X0522518Y0192058D01*
X0522409Y0192065D01*
X0522301Y0192076D01*
X0522193Y0192091D01*
X0522085Y0192109D01*
X0521979Y0192132D01*
X0521873Y0192158D01*
X0521768Y0192189D01*
X0521665Y0192223D01*
X0521563Y0192260D01*
X0521462Y0192302D01*
X0521363Y0192347D01*
X0521265Y0192396D01*
X0521170Y0192448D01*
X0521076Y0192504D01*
X0520984Y0192562D01*
X0520895Y0192625D01*
X0520808Y0192690D01*
X0520723Y0192759D01*
X0520641Y0192830D01*
X0520562Y0192905D01*
X0520485Y0192982D01*
X0520411Y0193062D01*
X0520340Y0193145D01*
X0520273Y0193231D01*
X0520208Y0193318D01*
X0520146Y0193408D01*
X0520088Y0193500D01*
X0520034Y0193594D01*
X0519982Y0193691D01*
X0519934Y0193789D01*
X0519890Y0193888D01*
X0519850Y0193989D01*
X0519813Y0194092D01*
X0519780Y0194196D01*
X0519750Y0194300D01*
X0519725Y0194406D01*
X0519703Y0194513D01*
X0519686Y0194621D01*
X0519672Y0194729D01*
X0519662Y0194837D01*
X0519656Y0194946D01*
X0519654Y0195055D01*
X0491976Y0227378D02*
X0491978Y0227487D01*
X0491984Y0227596D01*
X0491994Y0227704D01*
X0492008Y0227812D01*
X0492025Y0227920D01*
X0492047Y0228027D01*
X0492072Y0228133D01*
X0492102Y0228237D01*
X0492135Y0228341D01*
X0492172Y0228444D01*
X0492212Y0228545D01*
X0492256Y0228644D01*
X0492304Y0228742D01*
X0492356Y0228839D01*
X0492410Y0228933D01*
X0492468Y0229025D01*
X0492530Y0229115D01*
X0492595Y0229202D01*
X0492662Y0229288D01*
X0492733Y0229371D01*
X0492807Y0229451D01*
X0492884Y0229528D01*
X0492963Y0229603D01*
X0493045Y0229674D01*
X0493130Y0229743D01*
X0493217Y0229808D01*
X0493306Y0229871D01*
X0493398Y0229929D01*
X0493492Y0229985D01*
X0493587Y0230037D01*
X0493685Y0230086D01*
X0493784Y0230131D01*
X0493885Y0230173D01*
X0493987Y0230210D01*
X0494090Y0230244D01*
X0494195Y0230275D01*
X0494301Y0230301D01*
X0494407Y0230324D01*
X0494515Y0230342D01*
X0494623Y0230357D01*
X0494731Y0230368D01*
X0494840Y0230375D01*
X0494949Y0230378D01*
X0495058Y0230377D01*
X0495167Y0230372D01*
X0495275Y0230363D01*
X0495383Y0230350D01*
X0495491Y0230333D01*
X0495598Y0230313D01*
X0495704Y0230288D01*
X0495809Y0230260D01*
X0495913Y0230228D01*
X0496016Y0230192D01*
X0496118Y0230152D01*
X0496218Y0230109D01*
X0496316Y0230062D01*
X0496413Y0230012D01*
X0496507Y0229958D01*
X0496600Y0229900D01*
X0496691Y0229840D01*
X0496779Y0229776D01*
X0496865Y0229709D01*
X0496948Y0229639D01*
X0497029Y0229566D01*
X0497107Y0229490D01*
X0497182Y0229411D01*
X0497255Y0229329D01*
X0497324Y0229245D01*
X0497390Y0229159D01*
X0497453Y0229070D01*
X0497513Y0228979D01*
X0497570Y0228886D01*
X0497623Y0228791D01*
X0497672Y0228694D01*
X0497718Y0228595D01*
X0497760Y0228495D01*
X0497799Y0228393D01*
X0497834Y0228289D01*
X0497865Y0228185D01*
X0497893Y0228080D01*
X0497916Y0227973D01*
X0497936Y0227866D01*
X0497952Y0227758D01*
X0497964Y0227650D01*
X0497972Y0227541D01*
X0497976Y0227432D01*
X0497976Y0227324D01*
X0497972Y0227215D01*
X0497964Y0227106D01*
X0497952Y0226998D01*
X0497936Y0226890D01*
X0497916Y0226783D01*
X0497893Y0226676D01*
X0497865Y0226571D01*
X0497834Y0226467D01*
X0497799Y0226363D01*
X0497760Y0226261D01*
X0497718Y0226161D01*
X0497672Y0226062D01*
X0497623Y0225965D01*
X0497570Y0225870D01*
X0497513Y0225777D01*
X0497453Y0225686D01*
X0497390Y0225597D01*
X0497324Y0225511D01*
X0497255Y0225427D01*
X0497182Y0225345D01*
X0497107Y0225266D01*
X0497029Y0225190D01*
X0496948Y0225117D01*
X0496865Y0225047D01*
X0496779Y0224980D01*
X0496691Y0224916D01*
X0496600Y0224856D01*
X0496507Y0224798D01*
X0496413Y0224744D01*
X0496316Y0224694D01*
X0496218Y0224647D01*
X0496118Y0224604D01*
X0496016Y0224564D01*
X0495913Y0224528D01*
X0495809Y0224496D01*
X0495704Y0224468D01*
X0495598Y0224443D01*
X0495491Y0224423D01*
X0495383Y0224406D01*
X0495275Y0224393D01*
X0495167Y0224384D01*
X0495058Y0224379D01*
X0494949Y0224378D01*
X0494840Y0224381D01*
X0494731Y0224388D01*
X0494623Y0224399D01*
X0494515Y0224414D01*
X0494407Y0224432D01*
X0494301Y0224455D01*
X0494195Y0224481D01*
X0494090Y0224512D01*
X0493987Y0224546D01*
X0493885Y0224583D01*
X0493784Y0224625D01*
X0493685Y0224670D01*
X0493587Y0224719D01*
X0493492Y0224771D01*
X0493398Y0224827D01*
X0493306Y0224885D01*
X0493217Y0224948D01*
X0493130Y0225013D01*
X0493045Y0225082D01*
X0492963Y0225153D01*
X0492884Y0225228D01*
X0492807Y0225305D01*
X0492733Y0225385D01*
X0492662Y0225468D01*
X0492595Y0225554D01*
X0492530Y0225641D01*
X0492468Y0225731D01*
X0492410Y0225823D01*
X0492356Y0225917D01*
X0492304Y0226014D01*
X0492256Y0226112D01*
X0492212Y0226211D01*
X0492172Y0226312D01*
X0492135Y0226415D01*
X0492102Y0226519D01*
X0492072Y0226623D01*
X0492047Y0226729D01*
X0492025Y0226836D01*
X0492008Y0226944D01*
X0491994Y0227052D01*
X0491984Y0227160D01*
X0491978Y0227269D01*
X0491976Y0227378D01*
X0486020Y0237260D02*
X0486020Y0240488D01*
X0481020Y0240488D02*
X0481020Y0237260D01*
X0504327Y0241354D02*
X0504327Y0244583D01*
X0509327Y0244583D02*
X0509327Y0241354D01*
X0516846Y0241354D02*
X0516846Y0244583D01*
X0521846Y0244583D02*
X0521846Y0241354D01*
X0528579Y0241354D02*
X0528579Y0244583D01*
X0533579Y0244583D02*
X0533579Y0241354D01*
X0486807Y0267024D02*
X0486807Y0270252D01*
X0481807Y0270252D02*
X0481807Y0267024D01*
X0468500Y0261591D02*
X0468500Y0258362D01*
X0463500Y0258362D02*
X0463500Y0261591D01*
X0452949Y0261512D02*
X0452949Y0258283D01*
X0447949Y0258283D02*
X0447949Y0261512D01*
X0423315Y0260449D02*
X0423317Y0260558D01*
X0423323Y0260667D01*
X0423333Y0260775D01*
X0423347Y0260883D01*
X0423364Y0260991D01*
X0423386Y0261098D01*
X0423411Y0261204D01*
X0423441Y0261308D01*
X0423474Y0261412D01*
X0423511Y0261515D01*
X0423551Y0261616D01*
X0423595Y0261715D01*
X0423643Y0261813D01*
X0423695Y0261910D01*
X0423749Y0262004D01*
X0423807Y0262096D01*
X0423869Y0262186D01*
X0423934Y0262273D01*
X0424001Y0262359D01*
X0424072Y0262442D01*
X0424146Y0262522D01*
X0424223Y0262599D01*
X0424302Y0262674D01*
X0424384Y0262745D01*
X0424469Y0262814D01*
X0424556Y0262879D01*
X0424645Y0262942D01*
X0424737Y0263000D01*
X0424831Y0263056D01*
X0424926Y0263108D01*
X0425024Y0263157D01*
X0425123Y0263202D01*
X0425224Y0263244D01*
X0425326Y0263281D01*
X0425429Y0263315D01*
X0425534Y0263346D01*
X0425640Y0263372D01*
X0425746Y0263395D01*
X0425854Y0263413D01*
X0425962Y0263428D01*
X0426070Y0263439D01*
X0426179Y0263446D01*
X0426288Y0263449D01*
X0426397Y0263448D01*
X0426506Y0263443D01*
X0426614Y0263434D01*
X0426722Y0263421D01*
X0426830Y0263404D01*
X0426937Y0263384D01*
X0427043Y0263359D01*
X0427148Y0263331D01*
X0427252Y0263299D01*
X0427355Y0263263D01*
X0427457Y0263223D01*
X0427557Y0263180D01*
X0427655Y0263133D01*
X0427752Y0263083D01*
X0427846Y0263029D01*
X0427939Y0262971D01*
X0428030Y0262911D01*
X0428118Y0262847D01*
X0428204Y0262780D01*
X0428287Y0262710D01*
X0428368Y0262637D01*
X0428446Y0262561D01*
X0428521Y0262482D01*
X0428594Y0262400D01*
X0428663Y0262316D01*
X0428729Y0262230D01*
X0428792Y0262141D01*
X0428852Y0262050D01*
X0428909Y0261957D01*
X0428962Y0261862D01*
X0429011Y0261765D01*
X0429057Y0261666D01*
X0429099Y0261566D01*
X0429138Y0261464D01*
X0429173Y0261360D01*
X0429204Y0261256D01*
X0429232Y0261151D01*
X0429255Y0261044D01*
X0429275Y0260937D01*
X0429291Y0260829D01*
X0429303Y0260721D01*
X0429311Y0260612D01*
X0429315Y0260503D01*
X0429315Y0260395D01*
X0429311Y0260286D01*
X0429303Y0260177D01*
X0429291Y0260069D01*
X0429275Y0259961D01*
X0429255Y0259854D01*
X0429232Y0259747D01*
X0429204Y0259642D01*
X0429173Y0259538D01*
X0429138Y0259434D01*
X0429099Y0259332D01*
X0429057Y0259232D01*
X0429011Y0259133D01*
X0428962Y0259036D01*
X0428909Y0258941D01*
X0428852Y0258848D01*
X0428792Y0258757D01*
X0428729Y0258668D01*
X0428663Y0258582D01*
X0428594Y0258498D01*
X0428521Y0258416D01*
X0428446Y0258337D01*
X0428368Y0258261D01*
X0428287Y0258188D01*
X0428204Y0258118D01*
X0428118Y0258051D01*
X0428030Y0257987D01*
X0427939Y0257927D01*
X0427846Y0257869D01*
X0427752Y0257815D01*
X0427655Y0257765D01*
X0427557Y0257718D01*
X0427457Y0257675D01*
X0427355Y0257635D01*
X0427252Y0257599D01*
X0427148Y0257567D01*
X0427043Y0257539D01*
X0426937Y0257514D01*
X0426830Y0257494D01*
X0426722Y0257477D01*
X0426614Y0257464D01*
X0426506Y0257455D01*
X0426397Y0257450D01*
X0426288Y0257449D01*
X0426179Y0257452D01*
X0426070Y0257459D01*
X0425962Y0257470D01*
X0425854Y0257485D01*
X0425746Y0257503D01*
X0425640Y0257526D01*
X0425534Y0257552D01*
X0425429Y0257583D01*
X0425326Y0257617D01*
X0425224Y0257654D01*
X0425123Y0257696D01*
X0425024Y0257741D01*
X0424926Y0257790D01*
X0424831Y0257842D01*
X0424737Y0257898D01*
X0424645Y0257956D01*
X0424556Y0258019D01*
X0424469Y0258084D01*
X0424384Y0258153D01*
X0424302Y0258224D01*
X0424223Y0258299D01*
X0424146Y0258376D01*
X0424072Y0258456D01*
X0424001Y0258539D01*
X0423934Y0258625D01*
X0423869Y0258712D01*
X0423807Y0258802D01*
X0423749Y0258894D01*
X0423695Y0258988D01*
X0423643Y0259085D01*
X0423595Y0259183D01*
X0423551Y0259282D01*
X0423511Y0259383D01*
X0423474Y0259486D01*
X0423441Y0259590D01*
X0423411Y0259694D01*
X0423386Y0259800D01*
X0423364Y0259907D01*
X0423347Y0260015D01*
X0423333Y0260123D01*
X0423323Y0260231D01*
X0423317Y0260340D01*
X0423315Y0260449D01*
X0423787Y0247063D02*
X0423789Y0247172D01*
X0423795Y0247281D01*
X0423805Y0247389D01*
X0423819Y0247497D01*
X0423836Y0247605D01*
X0423858Y0247712D01*
X0423883Y0247818D01*
X0423913Y0247922D01*
X0423946Y0248026D01*
X0423983Y0248129D01*
X0424023Y0248230D01*
X0424067Y0248329D01*
X0424115Y0248427D01*
X0424167Y0248524D01*
X0424221Y0248618D01*
X0424279Y0248710D01*
X0424341Y0248800D01*
X0424406Y0248887D01*
X0424473Y0248973D01*
X0424544Y0249056D01*
X0424618Y0249136D01*
X0424695Y0249213D01*
X0424774Y0249288D01*
X0424856Y0249359D01*
X0424941Y0249428D01*
X0425028Y0249493D01*
X0425117Y0249556D01*
X0425209Y0249614D01*
X0425303Y0249670D01*
X0425398Y0249722D01*
X0425496Y0249771D01*
X0425595Y0249816D01*
X0425696Y0249858D01*
X0425798Y0249895D01*
X0425901Y0249929D01*
X0426006Y0249960D01*
X0426112Y0249986D01*
X0426218Y0250009D01*
X0426326Y0250027D01*
X0426434Y0250042D01*
X0426542Y0250053D01*
X0426651Y0250060D01*
X0426760Y0250063D01*
X0426869Y0250062D01*
X0426978Y0250057D01*
X0427086Y0250048D01*
X0427194Y0250035D01*
X0427302Y0250018D01*
X0427409Y0249998D01*
X0427515Y0249973D01*
X0427620Y0249945D01*
X0427724Y0249913D01*
X0427827Y0249877D01*
X0427929Y0249837D01*
X0428029Y0249794D01*
X0428127Y0249747D01*
X0428224Y0249697D01*
X0428318Y0249643D01*
X0428411Y0249585D01*
X0428502Y0249525D01*
X0428590Y0249461D01*
X0428676Y0249394D01*
X0428759Y0249324D01*
X0428840Y0249251D01*
X0428918Y0249175D01*
X0428993Y0249096D01*
X0429066Y0249014D01*
X0429135Y0248930D01*
X0429201Y0248844D01*
X0429264Y0248755D01*
X0429324Y0248664D01*
X0429381Y0248571D01*
X0429434Y0248476D01*
X0429483Y0248379D01*
X0429529Y0248280D01*
X0429571Y0248180D01*
X0429610Y0248078D01*
X0429645Y0247974D01*
X0429676Y0247870D01*
X0429704Y0247765D01*
X0429727Y0247658D01*
X0429747Y0247551D01*
X0429763Y0247443D01*
X0429775Y0247335D01*
X0429783Y0247226D01*
X0429787Y0247117D01*
X0429787Y0247009D01*
X0429783Y0246900D01*
X0429775Y0246791D01*
X0429763Y0246683D01*
X0429747Y0246575D01*
X0429727Y0246468D01*
X0429704Y0246361D01*
X0429676Y0246256D01*
X0429645Y0246152D01*
X0429610Y0246048D01*
X0429571Y0245946D01*
X0429529Y0245846D01*
X0429483Y0245747D01*
X0429434Y0245650D01*
X0429381Y0245555D01*
X0429324Y0245462D01*
X0429264Y0245371D01*
X0429201Y0245282D01*
X0429135Y0245196D01*
X0429066Y0245112D01*
X0428993Y0245030D01*
X0428918Y0244951D01*
X0428840Y0244875D01*
X0428759Y0244802D01*
X0428676Y0244732D01*
X0428590Y0244665D01*
X0428502Y0244601D01*
X0428411Y0244541D01*
X0428318Y0244483D01*
X0428224Y0244429D01*
X0428127Y0244379D01*
X0428029Y0244332D01*
X0427929Y0244289D01*
X0427827Y0244249D01*
X0427724Y0244213D01*
X0427620Y0244181D01*
X0427515Y0244153D01*
X0427409Y0244128D01*
X0427302Y0244108D01*
X0427194Y0244091D01*
X0427086Y0244078D01*
X0426978Y0244069D01*
X0426869Y0244064D01*
X0426760Y0244063D01*
X0426651Y0244066D01*
X0426542Y0244073D01*
X0426434Y0244084D01*
X0426326Y0244099D01*
X0426218Y0244117D01*
X0426112Y0244140D01*
X0426006Y0244166D01*
X0425901Y0244197D01*
X0425798Y0244231D01*
X0425696Y0244268D01*
X0425595Y0244310D01*
X0425496Y0244355D01*
X0425398Y0244404D01*
X0425303Y0244456D01*
X0425209Y0244512D01*
X0425117Y0244570D01*
X0425028Y0244633D01*
X0424941Y0244698D01*
X0424856Y0244767D01*
X0424774Y0244838D01*
X0424695Y0244913D01*
X0424618Y0244990D01*
X0424544Y0245070D01*
X0424473Y0245153D01*
X0424406Y0245239D01*
X0424341Y0245326D01*
X0424279Y0245416D01*
X0424221Y0245508D01*
X0424167Y0245602D01*
X0424115Y0245699D01*
X0424067Y0245797D01*
X0424023Y0245896D01*
X0423983Y0245997D01*
X0423946Y0246100D01*
X0423913Y0246204D01*
X0423883Y0246308D01*
X0423858Y0246414D01*
X0423836Y0246521D01*
X0423819Y0246629D01*
X0423805Y0246737D01*
X0423795Y0246845D01*
X0423789Y0246954D01*
X0423787Y0247063D01*
X0406740Y0239976D02*
X0406742Y0240085D01*
X0406748Y0240194D01*
X0406758Y0240302D01*
X0406772Y0240410D01*
X0406789Y0240518D01*
X0406811Y0240625D01*
X0406836Y0240731D01*
X0406866Y0240835D01*
X0406899Y0240939D01*
X0406936Y0241042D01*
X0406976Y0241143D01*
X0407020Y0241242D01*
X0407068Y0241340D01*
X0407120Y0241437D01*
X0407174Y0241531D01*
X0407232Y0241623D01*
X0407294Y0241713D01*
X0407359Y0241800D01*
X0407426Y0241886D01*
X0407497Y0241969D01*
X0407571Y0242049D01*
X0407648Y0242126D01*
X0407727Y0242201D01*
X0407809Y0242272D01*
X0407894Y0242341D01*
X0407981Y0242406D01*
X0408070Y0242469D01*
X0408162Y0242527D01*
X0408256Y0242583D01*
X0408351Y0242635D01*
X0408449Y0242684D01*
X0408548Y0242729D01*
X0408649Y0242771D01*
X0408751Y0242808D01*
X0408854Y0242842D01*
X0408959Y0242873D01*
X0409065Y0242899D01*
X0409171Y0242922D01*
X0409279Y0242940D01*
X0409387Y0242955D01*
X0409495Y0242966D01*
X0409604Y0242973D01*
X0409713Y0242976D01*
X0409822Y0242975D01*
X0409931Y0242970D01*
X0410039Y0242961D01*
X0410147Y0242948D01*
X0410255Y0242931D01*
X0410362Y0242911D01*
X0410468Y0242886D01*
X0410573Y0242858D01*
X0410677Y0242826D01*
X0410780Y0242790D01*
X0410882Y0242750D01*
X0410982Y0242707D01*
X0411080Y0242660D01*
X0411177Y0242610D01*
X0411271Y0242556D01*
X0411364Y0242498D01*
X0411455Y0242438D01*
X0411543Y0242374D01*
X0411629Y0242307D01*
X0411712Y0242237D01*
X0411793Y0242164D01*
X0411871Y0242088D01*
X0411946Y0242009D01*
X0412019Y0241927D01*
X0412088Y0241843D01*
X0412154Y0241757D01*
X0412217Y0241668D01*
X0412277Y0241577D01*
X0412334Y0241484D01*
X0412387Y0241389D01*
X0412436Y0241292D01*
X0412482Y0241193D01*
X0412524Y0241093D01*
X0412563Y0240991D01*
X0412598Y0240887D01*
X0412629Y0240783D01*
X0412657Y0240678D01*
X0412680Y0240571D01*
X0412700Y0240464D01*
X0412716Y0240356D01*
X0412728Y0240248D01*
X0412736Y0240139D01*
X0412740Y0240030D01*
X0412740Y0239922D01*
X0412736Y0239813D01*
X0412728Y0239704D01*
X0412716Y0239596D01*
X0412700Y0239488D01*
X0412680Y0239381D01*
X0412657Y0239274D01*
X0412629Y0239169D01*
X0412598Y0239065D01*
X0412563Y0238961D01*
X0412524Y0238859D01*
X0412482Y0238759D01*
X0412436Y0238660D01*
X0412387Y0238563D01*
X0412334Y0238468D01*
X0412277Y0238375D01*
X0412217Y0238284D01*
X0412154Y0238195D01*
X0412088Y0238109D01*
X0412019Y0238025D01*
X0411946Y0237943D01*
X0411871Y0237864D01*
X0411793Y0237788D01*
X0411712Y0237715D01*
X0411629Y0237645D01*
X0411543Y0237578D01*
X0411455Y0237514D01*
X0411364Y0237454D01*
X0411271Y0237396D01*
X0411177Y0237342D01*
X0411080Y0237292D01*
X0410982Y0237245D01*
X0410882Y0237202D01*
X0410780Y0237162D01*
X0410677Y0237126D01*
X0410573Y0237094D01*
X0410468Y0237066D01*
X0410362Y0237041D01*
X0410255Y0237021D01*
X0410147Y0237004D01*
X0410039Y0236991D01*
X0409931Y0236982D01*
X0409822Y0236977D01*
X0409713Y0236976D01*
X0409604Y0236979D01*
X0409495Y0236986D01*
X0409387Y0236997D01*
X0409279Y0237012D01*
X0409171Y0237030D01*
X0409065Y0237053D01*
X0408959Y0237079D01*
X0408854Y0237110D01*
X0408751Y0237144D01*
X0408649Y0237181D01*
X0408548Y0237223D01*
X0408449Y0237268D01*
X0408351Y0237317D01*
X0408256Y0237369D01*
X0408162Y0237425D01*
X0408070Y0237483D01*
X0407981Y0237546D01*
X0407894Y0237611D01*
X0407809Y0237680D01*
X0407727Y0237751D01*
X0407648Y0237826D01*
X0407571Y0237903D01*
X0407497Y0237983D01*
X0407426Y0238066D01*
X0407359Y0238152D01*
X0407294Y0238239D01*
X0407232Y0238329D01*
X0407174Y0238421D01*
X0407120Y0238515D01*
X0407068Y0238612D01*
X0407020Y0238710D01*
X0406976Y0238809D01*
X0406936Y0238910D01*
X0406899Y0239013D01*
X0406866Y0239117D01*
X0406836Y0239221D01*
X0406811Y0239327D01*
X0406789Y0239434D01*
X0406772Y0239542D01*
X0406758Y0239650D01*
X0406748Y0239758D01*
X0406742Y0239867D01*
X0406740Y0239976D01*
X0403500Y0231000D02*
X0418500Y0231000D01*
X0421000Y0228500D01*
X0421000Y0223500D01*
X0418500Y0221000D01*
X0403500Y0221000D01*
X0401000Y0223500D01*
X0401000Y0228500D01*
X0403500Y0231000D01*
X0403500Y0221000D02*
X0401000Y0218500D01*
X0401000Y0213500D01*
X0403500Y0211000D01*
X0418500Y0211000D01*
X0421000Y0213500D01*
X0421000Y0218500D01*
X0418500Y0221000D01*
X0418500Y0211000D02*
X0421000Y0208500D01*
X0421000Y0203500D01*
X0418500Y0201000D01*
X0403500Y0201000D01*
X0401000Y0203500D01*
X0401000Y0208500D01*
X0403500Y0211000D01*
X0403000Y0187220D02*
X0403002Y0187329D01*
X0403008Y0187438D01*
X0403018Y0187546D01*
X0403032Y0187654D01*
X0403049Y0187762D01*
X0403071Y0187869D01*
X0403096Y0187975D01*
X0403126Y0188079D01*
X0403159Y0188183D01*
X0403196Y0188286D01*
X0403236Y0188387D01*
X0403280Y0188486D01*
X0403328Y0188584D01*
X0403380Y0188681D01*
X0403434Y0188775D01*
X0403492Y0188867D01*
X0403554Y0188957D01*
X0403619Y0189044D01*
X0403686Y0189130D01*
X0403757Y0189213D01*
X0403831Y0189293D01*
X0403908Y0189370D01*
X0403987Y0189445D01*
X0404069Y0189516D01*
X0404154Y0189585D01*
X0404241Y0189650D01*
X0404330Y0189713D01*
X0404422Y0189771D01*
X0404516Y0189827D01*
X0404611Y0189879D01*
X0404709Y0189928D01*
X0404808Y0189973D01*
X0404909Y0190015D01*
X0405011Y0190052D01*
X0405114Y0190086D01*
X0405219Y0190117D01*
X0405325Y0190143D01*
X0405431Y0190166D01*
X0405539Y0190184D01*
X0405647Y0190199D01*
X0405755Y0190210D01*
X0405864Y0190217D01*
X0405973Y0190220D01*
X0406082Y0190219D01*
X0406191Y0190214D01*
X0406299Y0190205D01*
X0406407Y0190192D01*
X0406515Y0190175D01*
X0406622Y0190155D01*
X0406728Y0190130D01*
X0406833Y0190102D01*
X0406937Y0190070D01*
X0407040Y0190034D01*
X0407142Y0189994D01*
X0407242Y0189951D01*
X0407340Y0189904D01*
X0407437Y0189854D01*
X0407531Y0189800D01*
X0407624Y0189742D01*
X0407715Y0189682D01*
X0407803Y0189618D01*
X0407889Y0189551D01*
X0407972Y0189481D01*
X0408053Y0189408D01*
X0408131Y0189332D01*
X0408206Y0189253D01*
X0408279Y0189171D01*
X0408348Y0189087D01*
X0408414Y0189001D01*
X0408477Y0188912D01*
X0408537Y0188821D01*
X0408594Y0188728D01*
X0408647Y0188633D01*
X0408696Y0188536D01*
X0408742Y0188437D01*
X0408784Y0188337D01*
X0408823Y0188235D01*
X0408858Y0188131D01*
X0408889Y0188027D01*
X0408917Y0187922D01*
X0408940Y0187815D01*
X0408960Y0187708D01*
X0408976Y0187600D01*
X0408988Y0187492D01*
X0408996Y0187383D01*
X0409000Y0187274D01*
X0409000Y0187166D01*
X0408996Y0187057D01*
X0408988Y0186948D01*
X0408976Y0186840D01*
X0408960Y0186732D01*
X0408940Y0186625D01*
X0408917Y0186518D01*
X0408889Y0186413D01*
X0408858Y0186309D01*
X0408823Y0186205D01*
X0408784Y0186103D01*
X0408742Y0186003D01*
X0408696Y0185904D01*
X0408647Y0185807D01*
X0408594Y0185712D01*
X0408537Y0185619D01*
X0408477Y0185528D01*
X0408414Y0185439D01*
X0408348Y0185353D01*
X0408279Y0185269D01*
X0408206Y0185187D01*
X0408131Y0185108D01*
X0408053Y0185032D01*
X0407972Y0184959D01*
X0407889Y0184889D01*
X0407803Y0184822D01*
X0407715Y0184758D01*
X0407624Y0184698D01*
X0407531Y0184640D01*
X0407437Y0184586D01*
X0407340Y0184536D01*
X0407242Y0184489D01*
X0407142Y0184446D01*
X0407040Y0184406D01*
X0406937Y0184370D01*
X0406833Y0184338D01*
X0406728Y0184310D01*
X0406622Y0184285D01*
X0406515Y0184265D01*
X0406407Y0184248D01*
X0406299Y0184235D01*
X0406191Y0184226D01*
X0406082Y0184221D01*
X0405973Y0184220D01*
X0405864Y0184223D01*
X0405755Y0184230D01*
X0405647Y0184241D01*
X0405539Y0184256D01*
X0405431Y0184274D01*
X0405325Y0184297D01*
X0405219Y0184323D01*
X0405114Y0184354D01*
X0405011Y0184388D01*
X0404909Y0184425D01*
X0404808Y0184467D01*
X0404709Y0184512D01*
X0404611Y0184561D01*
X0404516Y0184613D01*
X0404422Y0184669D01*
X0404330Y0184727D01*
X0404241Y0184790D01*
X0404154Y0184855D01*
X0404069Y0184924D01*
X0403987Y0184995D01*
X0403908Y0185070D01*
X0403831Y0185147D01*
X0403757Y0185227D01*
X0403686Y0185310D01*
X0403619Y0185396D01*
X0403554Y0185483D01*
X0403492Y0185573D01*
X0403434Y0185665D01*
X0403380Y0185759D01*
X0403328Y0185856D01*
X0403280Y0185954D01*
X0403236Y0186053D01*
X0403196Y0186154D01*
X0403159Y0186257D01*
X0403126Y0186361D01*
X0403096Y0186465D01*
X0403071Y0186571D01*
X0403049Y0186678D01*
X0403032Y0186786D01*
X0403018Y0186894D01*
X0403008Y0187002D01*
X0403002Y0187111D01*
X0403000Y0187220D01*
X0442161Y0176827D02*
X0442161Y0173598D01*
X0447161Y0173598D02*
X0447161Y0176827D01*
X0453264Y0177142D02*
X0453264Y0173913D01*
X0458264Y0173913D02*
X0458264Y0177142D01*
X0415812Y0145501D02*
X0415812Y0139095D01*
X0412610Y0139095D01*
X0411542Y0140163D01*
X0411542Y0142298D01*
X0412610Y0143366D01*
X0415812Y0143366D01*
X0409373Y0143366D02*
X0408306Y0143366D01*
X0406171Y0141230D01*
X0406171Y0139095D02*
X0406171Y0143366D01*
X0403996Y0143366D02*
X0403996Y0139095D01*
X0403996Y0142298D02*
X0399725Y0142298D01*
X0399725Y0143366D02*
X0399725Y0139095D01*
X0399725Y0143366D02*
X0401860Y0145501D01*
X0403996Y0143366D01*
X0402928Y0117154D02*
X0403996Y0116087D01*
X0403996Y0115019D01*
X0402928Y0113952D01*
X0399725Y0113952D01*
X0399725Y0117154D02*
X0399725Y0110749D01*
X0402928Y0110749D01*
X0403996Y0111816D01*
X0403996Y0112884D01*
X0402928Y0113952D01*
X0402928Y0117154D02*
X0399725Y0117154D01*
X0407238Y0115019D02*
X0409373Y0115019D01*
X0410441Y0113952D01*
X0410441Y0110749D01*
X0407238Y0110749D01*
X0406171Y0111816D01*
X0407238Y0112884D01*
X0410441Y0112884D01*
X0412616Y0115019D02*
X0414751Y0115019D01*
X0413684Y0116087D02*
X0413684Y0111816D01*
X0414751Y0110749D01*
X0337700Y0125534D02*
X0336566Y0126669D01*
X0334297Y0126669D01*
X0335431Y0128083D02*
X0335431Y0128650D01*
X0337700Y0128650D01*
X0337700Y0128083D02*
X0337700Y0129217D01*
X0337700Y0130539D02*
X0335431Y0130539D01*
X0335431Y0132240D01*
X0335999Y0132807D01*
X0337700Y0132807D01*
X0334297Y0128650D02*
X0333730Y0128650D01*
X0334297Y0124400D02*
X0336566Y0124400D01*
X0337700Y0125534D01*
X0327700Y0124967D02*
X0327700Y0126101D01*
X0327133Y0126669D01*
X0325999Y0126669D01*
X0325999Y0125534D01*
X0327133Y0124400D02*
X0327700Y0124967D01*
X0327133Y0124400D02*
X0324864Y0124400D01*
X0324297Y0124967D01*
X0324297Y0126101D01*
X0324864Y0126669D01*
X0324297Y0128083D02*
X0327700Y0130352D01*
X0324297Y0130352D01*
X0324297Y0131766D02*
X0324297Y0133468D01*
X0324864Y0134035D01*
X0327133Y0134035D01*
X0327700Y0133468D01*
X0327700Y0131766D01*
X0324297Y0131766D01*
X0324297Y0128083D02*
X0327700Y0128083D01*
X0317700Y0128083D02*
X0314297Y0128083D01*
X0317700Y0130352D01*
X0314297Y0130352D01*
X0314297Y0131766D02*
X0314297Y0133468D01*
X0314864Y0134035D01*
X0317133Y0134035D01*
X0317700Y0133468D01*
X0317700Y0131766D01*
X0314297Y0131766D01*
X0314864Y0126669D02*
X0314297Y0126101D01*
X0314297Y0124967D01*
X0314864Y0124400D01*
X0317133Y0124400D01*
X0317700Y0124967D01*
X0317700Y0126101D01*
X0317133Y0126669D01*
X0315999Y0126669D01*
X0315999Y0125534D01*
X0307700Y0124967D02*
X0307133Y0124400D01*
X0307700Y0124967D02*
X0307700Y0126101D01*
X0307133Y0126669D01*
X0305999Y0126669D01*
X0305431Y0126101D01*
X0305431Y0125534D01*
X0305999Y0124400D01*
X0304297Y0124400D01*
X0304297Y0126669D01*
X0304297Y0128083D02*
X0306566Y0128083D01*
X0307700Y0129217D01*
X0306566Y0130352D01*
X0304297Y0130352D01*
X0297700Y0130492D02*
X0297700Y0131626D01*
X0297133Y0132193D01*
X0296566Y0132193D01*
X0295999Y0131626D01*
X0295999Y0131059D01*
X0295999Y0131626D02*
X0295431Y0132193D01*
X0294864Y0132193D01*
X0294297Y0131626D01*
X0294297Y0130492D01*
X0294864Y0129925D01*
X0297133Y0129925D02*
X0297700Y0130492D01*
X0297700Y0128650D02*
X0297700Y0128083D01*
X0297133Y0128083D01*
X0297133Y0128650D01*
X0297700Y0128650D01*
X0297133Y0126669D02*
X0297700Y0126101D01*
X0297700Y0124967D01*
X0297133Y0124400D01*
X0295999Y0125534D02*
X0295999Y0126101D01*
X0296566Y0126669D01*
X0297133Y0126669D01*
X0295999Y0126101D02*
X0295431Y0126669D01*
X0294864Y0126669D01*
X0294297Y0126101D01*
X0294297Y0124967D01*
X0294864Y0124400D01*
X0287700Y0124400D02*
X0284297Y0124400D01*
X0284297Y0126101D01*
X0284864Y0126669D01*
X0285999Y0126669D01*
X0286566Y0126101D01*
X0286566Y0124400D01*
X0286566Y0125534D02*
X0287700Y0126669D01*
X0287700Y0128083D02*
X0287700Y0130352D01*
X0287133Y0131766D02*
X0287700Y0132333D01*
X0287700Y0133468D01*
X0287133Y0134035D01*
X0286566Y0134035D01*
X0285999Y0133468D01*
X0285999Y0132333D01*
X0285431Y0131766D01*
X0284864Y0131766D01*
X0284297Y0132333D01*
X0284297Y0133468D01*
X0284864Y0134035D01*
X0284297Y0135449D02*
X0287700Y0135449D01*
X0287700Y0137718D01*
X0285999Y0136584D02*
X0285999Y0135449D01*
X0284297Y0135449D02*
X0284297Y0137718D01*
X0284297Y0139133D02*
X0284297Y0141401D01*
X0284297Y0140267D02*
X0287700Y0140267D01*
X0294297Y0135876D02*
X0296566Y0135876D01*
X0297700Y0134742D01*
X0296566Y0133608D01*
X0294297Y0133608D01*
X0287700Y0128083D02*
X0284297Y0128083D01*
X0284297Y0130352D01*
X0285999Y0129217D02*
X0285999Y0128083D01*
X0251823Y0133898D02*
X0251823Y0158496D01*
X0238201Y0158496D01*
X0238201Y0133898D01*
X0251823Y0133898D01*
X0243945Y0115764D02*
X0243947Y0115873D01*
X0243953Y0115982D01*
X0243963Y0116090D01*
X0243977Y0116198D01*
X0243994Y0116306D01*
X0244016Y0116413D01*
X0244041Y0116519D01*
X0244071Y0116623D01*
X0244104Y0116727D01*
X0244141Y0116830D01*
X0244181Y0116931D01*
X0244225Y0117030D01*
X0244273Y0117128D01*
X0244325Y0117225D01*
X0244379Y0117319D01*
X0244437Y0117411D01*
X0244499Y0117501D01*
X0244564Y0117588D01*
X0244631Y0117674D01*
X0244702Y0117757D01*
X0244776Y0117837D01*
X0244853Y0117914D01*
X0244932Y0117989D01*
X0245014Y0118060D01*
X0245099Y0118129D01*
X0245186Y0118194D01*
X0245275Y0118257D01*
X0245367Y0118315D01*
X0245461Y0118371D01*
X0245556Y0118423D01*
X0245654Y0118472D01*
X0245753Y0118517D01*
X0245854Y0118559D01*
X0245956Y0118596D01*
X0246059Y0118630D01*
X0246164Y0118661D01*
X0246270Y0118687D01*
X0246376Y0118710D01*
X0246484Y0118728D01*
X0246592Y0118743D01*
X0246700Y0118754D01*
X0246809Y0118761D01*
X0246918Y0118764D01*
X0247027Y0118763D01*
X0247136Y0118758D01*
X0247244Y0118749D01*
X0247352Y0118736D01*
X0247460Y0118719D01*
X0247567Y0118699D01*
X0247673Y0118674D01*
X0247778Y0118646D01*
X0247882Y0118614D01*
X0247985Y0118578D01*
X0248087Y0118538D01*
X0248187Y0118495D01*
X0248285Y0118448D01*
X0248382Y0118398D01*
X0248476Y0118344D01*
X0248569Y0118286D01*
X0248660Y0118226D01*
X0248748Y0118162D01*
X0248834Y0118095D01*
X0248917Y0118025D01*
X0248998Y0117952D01*
X0249076Y0117876D01*
X0249151Y0117797D01*
X0249224Y0117715D01*
X0249293Y0117631D01*
X0249359Y0117545D01*
X0249422Y0117456D01*
X0249482Y0117365D01*
X0249539Y0117272D01*
X0249592Y0117177D01*
X0249641Y0117080D01*
X0249687Y0116981D01*
X0249729Y0116881D01*
X0249768Y0116779D01*
X0249803Y0116675D01*
X0249834Y0116571D01*
X0249862Y0116466D01*
X0249885Y0116359D01*
X0249905Y0116252D01*
X0249921Y0116144D01*
X0249933Y0116036D01*
X0249941Y0115927D01*
X0249945Y0115818D01*
X0249945Y0115710D01*
X0249941Y0115601D01*
X0249933Y0115492D01*
X0249921Y0115384D01*
X0249905Y0115276D01*
X0249885Y0115169D01*
X0249862Y0115062D01*
X0249834Y0114957D01*
X0249803Y0114853D01*
X0249768Y0114749D01*
X0249729Y0114647D01*
X0249687Y0114547D01*
X0249641Y0114448D01*
X0249592Y0114351D01*
X0249539Y0114256D01*
X0249482Y0114163D01*
X0249422Y0114072D01*
X0249359Y0113983D01*
X0249293Y0113897D01*
X0249224Y0113813D01*
X0249151Y0113731D01*
X0249076Y0113652D01*
X0248998Y0113576D01*
X0248917Y0113503D01*
X0248834Y0113433D01*
X0248748Y0113366D01*
X0248660Y0113302D01*
X0248569Y0113242D01*
X0248476Y0113184D01*
X0248382Y0113130D01*
X0248285Y0113080D01*
X0248187Y0113033D01*
X0248087Y0112990D01*
X0247985Y0112950D01*
X0247882Y0112914D01*
X0247778Y0112882D01*
X0247673Y0112854D01*
X0247567Y0112829D01*
X0247460Y0112809D01*
X0247352Y0112792D01*
X0247244Y0112779D01*
X0247136Y0112770D01*
X0247027Y0112765D01*
X0246918Y0112764D01*
X0246809Y0112767D01*
X0246700Y0112774D01*
X0246592Y0112785D01*
X0246484Y0112800D01*
X0246376Y0112818D01*
X0246270Y0112841D01*
X0246164Y0112867D01*
X0246059Y0112898D01*
X0245956Y0112932D01*
X0245854Y0112969D01*
X0245753Y0113011D01*
X0245654Y0113056D01*
X0245556Y0113105D01*
X0245461Y0113157D01*
X0245367Y0113213D01*
X0245275Y0113271D01*
X0245186Y0113334D01*
X0245099Y0113399D01*
X0245014Y0113468D01*
X0244932Y0113539D01*
X0244853Y0113614D01*
X0244776Y0113691D01*
X0244702Y0113771D01*
X0244631Y0113854D01*
X0244564Y0113940D01*
X0244499Y0114027D01*
X0244437Y0114117D01*
X0244379Y0114209D01*
X0244325Y0114303D01*
X0244273Y0114400D01*
X0244225Y0114498D01*
X0244181Y0114597D01*
X0244141Y0114698D01*
X0244104Y0114801D01*
X0244071Y0114905D01*
X0244041Y0115009D01*
X0244016Y0115115D01*
X0243994Y0115222D01*
X0243977Y0115330D01*
X0243963Y0115438D01*
X0243953Y0115546D01*
X0243947Y0115655D01*
X0243945Y0115764D01*
X0228512Y0115567D02*
X0228514Y0115676D01*
X0228520Y0115785D01*
X0228530Y0115893D01*
X0228544Y0116001D01*
X0228561Y0116109D01*
X0228583Y0116216D01*
X0228608Y0116322D01*
X0228638Y0116426D01*
X0228671Y0116530D01*
X0228708Y0116633D01*
X0228748Y0116734D01*
X0228792Y0116833D01*
X0228840Y0116931D01*
X0228892Y0117028D01*
X0228946Y0117122D01*
X0229004Y0117214D01*
X0229066Y0117304D01*
X0229131Y0117391D01*
X0229198Y0117477D01*
X0229269Y0117560D01*
X0229343Y0117640D01*
X0229420Y0117717D01*
X0229499Y0117792D01*
X0229581Y0117863D01*
X0229666Y0117932D01*
X0229753Y0117997D01*
X0229842Y0118060D01*
X0229934Y0118118D01*
X0230028Y0118174D01*
X0230123Y0118226D01*
X0230221Y0118275D01*
X0230320Y0118320D01*
X0230421Y0118362D01*
X0230523Y0118399D01*
X0230626Y0118433D01*
X0230731Y0118464D01*
X0230837Y0118490D01*
X0230943Y0118513D01*
X0231051Y0118531D01*
X0231159Y0118546D01*
X0231267Y0118557D01*
X0231376Y0118564D01*
X0231485Y0118567D01*
X0231594Y0118566D01*
X0231703Y0118561D01*
X0231811Y0118552D01*
X0231919Y0118539D01*
X0232027Y0118522D01*
X0232134Y0118502D01*
X0232240Y0118477D01*
X0232345Y0118449D01*
X0232449Y0118417D01*
X0232552Y0118381D01*
X0232654Y0118341D01*
X0232754Y0118298D01*
X0232852Y0118251D01*
X0232949Y0118201D01*
X0233043Y0118147D01*
X0233136Y0118089D01*
X0233227Y0118029D01*
X0233315Y0117965D01*
X0233401Y0117898D01*
X0233484Y0117828D01*
X0233565Y0117755D01*
X0233643Y0117679D01*
X0233718Y0117600D01*
X0233791Y0117518D01*
X0233860Y0117434D01*
X0233926Y0117348D01*
X0233989Y0117259D01*
X0234049Y0117168D01*
X0234106Y0117075D01*
X0234159Y0116980D01*
X0234208Y0116883D01*
X0234254Y0116784D01*
X0234296Y0116684D01*
X0234335Y0116582D01*
X0234370Y0116478D01*
X0234401Y0116374D01*
X0234429Y0116269D01*
X0234452Y0116162D01*
X0234472Y0116055D01*
X0234488Y0115947D01*
X0234500Y0115839D01*
X0234508Y0115730D01*
X0234512Y0115621D01*
X0234512Y0115513D01*
X0234508Y0115404D01*
X0234500Y0115295D01*
X0234488Y0115187D01*
X0234472Y0115079D01*
X0234452Y0114972D01*
X0234429Y0114865D01*
X0234401Y0114760D01*
X0234370Y0114656D01*
X0234335Y0114552D01*
X0234296Y0114450D01*
X0234254Y0114350D01*
X0234208Y0114251D01*
X0234159Y0114154D01*
X0234106Y0114059D01*
X0234049Y0113966D01*
X0233989Y0113875D01*
X0233926Y0113786D01*
X0233860Y0113700D01*
X0233791Y0113616D01*
X0233718Y0113534D01*
X0233643Y0113455D01*
X0233565Y0113379D01*
X0233484Y0113306D01*
X0233401Y0113236D01*
X0233315Y0113169D01*
X0233227Y0113105D01*
X0233136Y0113045D01*
X0233043Y0112987D01*
X0232949Y0112933D01*
X0232852Y0112883D01*
X0232754Y0112836D01*
X0232654Y0112793D01*
X0232552Y0112753D01*
X0232449Y0112717D01*
X0232345Y0112685D01*
X0232240Y0112657D01*
X0232134Y0112632D01*
X0232027Y0112612D01*
X0231919Y0112595D01*
X0231811Y0112582D01*
X0231703Y0112573D01*
X0231594Y0112568D01*
X0231485Y0112567D01*
X0231376Y0112570D01*
X0231267Y0112577D01*
X0231159Y0112588D01*
X0231051Y0112603D01*
X0230943Y0112621D01*
X0230837Y0112644D01*
X0230731Y0112670D01*
X0230626Y0112701D01*
X0230523Y0112735D01*
X0230421Y0112772D01*
X0230320Y0112814D01*
X0230221Y0112859D01*
X0230123Y0112908D01*
X0230028Y0112960D01*
X0229934Y0113016D01*
X0229842Y0113074D01*
X0229753Y0113137D01*
X0229666Y0113202D01*
X0229581Y0113271D01*
X0229499Y0113342D01*
X0229420Y0113417D01*
X0229343Y0113494D01*
X0229269Y0113574D01*
X0229198Y0113657D01*
X0229131Y0113743D01*
X0229066Y0113830D01*
X0229004Y0113920D01*
X0228946Y0114012D01*
X0228892Y0114106D01*
X0228840Y0114203D01*
X0228792Y0114301D01*
X0228748Y0114400D01*
X0228708Y0114501D01*
X0228671Y0114604D01*
X0228638Y0114708D01*
X0228608Y0114812D01*
X0228583Y0114918D01*
X0228561Y0115025D01*
X0228544Y0115133D01*
X0228530Y0115241D01*
X0228520Y0115349D01*
X0228514Y0115458D01*
X0228512Y0115567D01*
X0214811Y0115567D02*
X0214813Y0115676D01*
X0214819Y0115785D01*
X0214829Y0115893D01*
X0214843Y0116001D01*
X0214860Y0116109D01*
X0214882Y0116216D01*
X0214907Y0116322D01*
X0214937Y0116426D01*
X0214970Y0116530D01*
X0215007Y0116633D01*
X0215047Y0116734D01*
X0215091Y0116833D01*
X0215139Y0116931D01*
X0215191Y0117028D01*
X0215245Y0117122D01*
X0215303Y0117214D01*
X0215365Y0117304D01*
X0215430Y0117391D01*
X0215497Y0117477D01*
X0215568Y0117560D01*
X0215642Y0117640D01*
X0215719Y0117717D01*
X0215798Y0117792D01*
X0215880Y0117863D01*
X0215965Y0117932D01*
X0216052Y0117997D01*
X0216141Y0118060D01*
X0216233Y0118118D01*
X0216327Y0118174D01*
X0216422Y0118226D01*
X0216520Y0118275D01*
X0216619Y0118320D01*
X0216720Y0118362D01*
X0216822Y0118399D01*
X0216925Y0118433D01*
X0217030Y0118464D01*
X0217136Y0118490D01*
X0217242Y0118513D01*
X0217350Y0118531D01*
X0217458Y0118546D01*
X0217566Y0118557D01*
X0217675Y0118564D01*
X0217784Y0118567D01*
X0217893Y0118566D01*
X0218002Y0118561D01*
X0218110Y0118552D01*
X0218218Y0118539D01*
X0218326Y0118522D01*
X0218433Y0118502D01*
X0218539Y0118477D01*
X0218644Y0118449D01*
X0218748Y0118417D01*
X0218851Y0118381D01*
X0218953Y0118341D01*
X0219053Y0118298D01*
X0219151Y0118251D01*
X0219248Y0118201D01*
X0219342Y0118147D01*
X0219435Y0118089D01*
X0219526Y0118029D01*
X0219614Y0117965D01*
X0219700Y0117898D01*
X0219783Y0117828D01*
X0219864Y0117755D01*
X0219942Y0117679D01*
X0220017Y0117600D01*
X0220090Y0117518D01*
X0220159Y0117434D01*
X0220225Y0117348D01*
X0220288Y0117259D01*
X0220348Y0117168D01*
X0220405Y0117075D01*
X0220458Y0116980D01*
X0220507Y0116883D01*
X0220553Y0116784D01*
X0220595Y0116684D01*
X0220634Y0116582D01*
X0220669Y0116478D01*
X0220700Y0116374D01*
X0220728Y0116269D01*
X0220751Y0116162D01*
X0220771Y0116055D01*
X0220787Y0115947D01*
X0220799Y0115839D01*
X0220807Y0115730D01*
X0220811Y0115621D01*
X0220811Y0115513D01*
X0220807Y0115404D01*
X0220799Y0115295D01*
X0220787Y0115187D01*
X0220771Y0115079D01*
X0220751Y0114972D01*
X0220728Y0114865D01*
X0220700Y0114760D01*
X0220669Y0114656D01*
X0220634Y0114552D01*
X0220595Y0114450D01*
X0220553Y0114350D01*
X0220507Y0114251D01*
X0220458Y0114154D01*
X0220405Y0114059D01*
X0220348Y0113966D01*
X0220288Y0113875D01*
X0220225Y0113786D01*
X0220159Y0113700D01*
X0220090Y0113616D01*
X0220017Y0113534D01*
X0219942Y0113455D01*
X0219864Y0113379D01*
X0219783Y0113306D01*
X0219700Y0113236D01*
X0219614Y0113169D01*
X0219526Y0113105D01*
X0219435Y0113045D01*
X0219342Y0112987D01*
X0219248Y0112933D01*
X0219151Y0112883D01*
X0219053Y0112836D01*
X0218953Y0112793D01*
X0218851Y0112753D01*
X0218748Y0112717D01*
X0218644Y0112685D01*
X0218539Y0112657D01*
X0218433Y0112632D01*
X0218326Y0112612D01*
X0218218Y0112595D01*
X0218110Y0112582D01*
X0218002Y0112573D01*
X0217893Y0112568D01*
X0217784Y0112567D01*
X0217675Y0112570D01*
X0217566Y0112577D01*
X0217458Y0112588D01*
X0217350Y0112603D01*
X0217242Y0112621D01*
X0217136Y0112644D01*
X0217030Y0112670D01*
X0216925Y0112701D01*
X0216822Y0112735D01*
X0216720Y0112772D01*
X0216619Y0112814D01*
X0216520Y0112859D01*
X0216422Y0112908D01*
X0216327Y0112960D01*
X0216233Y0113016D01*
X0216141Y0113074D01*
X0216052Y0113137D01*
X0215965Y0113202D01*
X0215880Y0113271D01*
X0215798Y0113342D01*
X0215719Y0113417D01*
X0215642Y0113494D01*
X0215568Y0113574D01*
X0215497Y0113657D01*
X0215430Y0113743D01*
X0215365Y0113830D01*
X0215303Y0113920D01*
X0215245Y0114012D01*
X0215191Y0114106D01*
X0215139Y0114203D01*
X0215091Y0114301D01*
X0215047Y0114400D01*
X0215007Y0114501D01*
X0214970Y0114604D01*
X0214937Y0114708D01*
X0214907Y0114812D01*
X0214882Y0114918D01*
X0214860Y0115025D01*
X0214843Y0115133D01*
X0214829Y0115241D01*
X0214819Y0115349D01*
X0214813Y0115458D01*
X0214811Y0115567D01*
X0297094Y0186669D02*
X0297096Y0186778D01*
X0297102Y0186887D01*
X0297112Y0186995D01*
X0297126Y0187103D01*
X0297143Y0187211D01*
X0297165Y0187318D01*
X0297190Y0187424D01*
X0297220Y0187528D01*
X0297253Y0187632D01*
X0297290Y0187735D01*
X0297330Y0187836D01*
X0297374Y0187935D01*
X0297422Y0188033D01*
X0297474Y0188130D01*
X0297528Y0188224D01*
X0297586Y0188316D01*
X0297648Y0188406D01*
X0297713Y0188493D01*
X0297780Y0188579D01*
X0297851Y0188662D01*
X0297925Y0188742D01*
X0298002Y0188819D01*
X0298081Y0188894D01*
X0298163Y0188965D01*
X0298248Y0189034D01*
X0298335Y0189099D01*
X0298424Y0189162D01*
X0298516Y0189220D01*
X0298610Y0189276D01*
X0298705Y0189328D01*
X0298803Y0189377D01*
X0298902Y0189422D01*
X0299003Y0189464D01*
X0299105Y0189501D01*
X0299208Y0189535D01*
X0299313Y0189566D01*
X0299419Y0189592D01*
X0299525Y0189615D01*
X0299633Y0189633D01*
X0299741Y0189648D01*
X0299849Y0189659D01*
X0299958Y0189666D01*
X0300067Y0189669D01*
X0300176Y0189668D01*
X0300285Y0189663D01*
X0300393Y0189654D01*
X0300501Y0189641D01*
X0300609Y0189624D01*
X0300716Y0189604D01*
X0300822Y0189579D01*
X0300927Y0189551D01*
X0301031Y0189519D01*
X0301134Y0189483D01*
X0301236Y0189443D01*
X0301336Y0189400D01*
X0301434Y0189353D01*
X0301531Y0189303D01*
X0301625Y0189249D01*
X0301718Y0189191D01*
X0301809Y0189131D01*
X0301897Y0189067D01*
X0301983Y0189000D01*
X0302066Y0188930D01*
X0302147Y0188857D01*
X0302225Y0188781D01*
X0302300Y0188702D01*
X0302373Y0188620D01*
X0302442Y0188536D01*
X0302508Y0188450D01*
X0302571Y0188361D01*
X0302631Y0188270D01*
X0302688Y0188177D01*
X0302741Y0188082D01*
X0302790Y0187985D01*
X0302836Y0187886D01*
X0302878Y0187786D01*
X0302917Y0187684D01*
X0302952Y0187580D01*
X0302983Y0187476D01*
X0303011Y0187371D01*
X0303034Y0187264D01*
X0303054Y0187157D01*
X0303070Y0187049D01*
X0303082Y0186941D01*
X0303090Y0186832D01*
X0303094Y0186723D01*
X0303094Y0186615D01*
X0303090Y0186506D01*
X0303082Y0186397D01*
X0303070Y0186289D01*
X0303054Y0186181D01*
X0303034Y0186074D01*
X0303011Y0185967D01*
X0302983Y0185862D01*
X0302952Y0185758D01*
X0302917Y0185654D01*
X0302878Y0185552D01*
X0302836Y0185452D01*
X0302790Y0185353D01*
X0302741Y0185256D01*
X0302688Y0185161D01*
X0302631Y0185068D01*
X0302571Y0184977D01*
X0302508Y0184888D01*
X0302442Y0184802D01*
X0302373Y0184718D01*
X0302300Y0184636D01*
X0302225Y0184557D01*
X0302147Y0184481D01*
X0302066Y0184408D01*
X0301983Y0184338D01*
X0301897Y0184271D01*
X0301809Y0184207D01*
X0301718Y0184147D01*
X0301625Y0184089D01*
X0301531Y0184035D01*
X0301434Y0183985D01*
X0301336Y0183938D01*
X0301236Y0183895D01*
X0301134Y0183855D01*
X0301031Y0183819D01*
X0300927Y0183787D01*
X0300822Y0183759D01*
X0300716Y0183734D01*
X0300609Y0183714D01*
X0300501Y0183697D01*
X0300393Y0183684D01*
X0300285Y0183675D01*
X0300176Y0183670D01*
X0300067Y0183669D01*
X0299958Y0183672D01*
X0299849Y0183679D01*
X0299741Y0183690D01*
X0299633Y0183705D01*
X0299525Y0183723D01*
X0299419Y0183746D01*
X0299313Y0183772D01*
X0299208Y0183803D01*
X0299105Y0183837D01*
X0299003Y0183874D01*
X0298902Y0183916D01*
X0298803Y0183961D01*
X0298705Y0184010D01*
X0298610Y0184062D01*
X0298516Y0184118D01*
X0298424Y0184176D01*
X0298335Y0184239D01*
X0298248Y0184304D01*
X0298163Y0184373D01*
X0298081Y0184444D01*
X0298002Y0184519D01*
X0297925Y0184596D01*
X0297851Y0184676D01*
X0297780Y0184759D01*
X0297713Y0184845D01*
X0297648Y0184932D01*
X0297586Y0185022D01*
X0297528Y0185114D01*
X0297474Y0185208D01*
X0297422Y0185305D01*
X0297374Y0185403D01*
X0297330Y0185502D01*
X0297290Y0185603D01*
X0297253Y0185706D01*
X0297220Y0185810D01*
X0297190Y0185914D01*
X0297165Y0186020D01*
X0297143Y0186127D01*
X0297126Y0186235D01*
X0297112Y0186343D01*
X0297102Y0186451D01*
X0297096Y0186560D01*
X0297094Y0186669D01*
X0262929Y0201150D02*
X0262929Y0212346D01*
X0262929Y0211976D01*
X0262929Y0212346D02*
X0256551Y0212346D01*
X0256551Y0211976D01*
X0256551Y0212346D02*
X0256551Y0201150D01*
X0256551Y0201520D01*
X0256551Y0201150D02*
X0262929Y0201150D01*
X0262929Y0201520D01*
X0262929Y0204693D02*
X0262929Y0208803D01*
X0256551Y0208803D02*
X0256551Y0208433D01*
X0256551Y0205063D02*
X0256551Y0204693D01*
X0240980Y0206118D02*
X0240980Y0209346D01*
X0235980Y0209346D02*
X0235980Y0206118D01*
X0226465Y0232890D02*
X0226467Y0232999D01*
X0226473Y0233108D01*
X0226483Y0233216D01*
X0226497Y0233324D01*
X0226514Y0233432D01*
X0226536Y0233539D01*
X0226561Y0233645D01*
X0226591Y0233749D01*
X0226624Y0233853D01*
X0226661Y0233956D01*
X0226701Y0234057D01*
X0226745Y0234156D01*
X0226793Y0234254D01*
X0226845Y0234351D01*
X0226899Y0234445D01*
X0226957Y0234537D01*
X0227019Y0234627D01*
X0227084Y0234714D01*
X0227151Y0234800D01*
X0227222Y0234883D01*
X0227296Y0234963D01*
X0227373Y0235040D01*
X0227452Y0235115D01*
X0227534Y0235186D01*
X0227619Y0235255D01*
X0227706Y0235320D01*
X0227795Y0235383D01*
X0227887Y0235441D01*
X0227981Y0235497D01*
X0228076Y0235549D01*
X0228174Y0235598D01*
X0228273Y0235643D01*
X0228374Y0235685D01*
X0228476Y0235722D01*
X0228579Y0235756D01*
X0228684Y0235787D01*
X0228790Y0235813D01*
X0228896Y0235836D01*
X0229004Y0235854D01*
X0229112Y0235869D01*
X0229220Y0235880D01*
X0229329Y0235887D01*
X0229438Y0235890D01*
X0229547Y0235889D01*
X0229656Y0235884D01*
X0229764Y0235875D01*
X0229872Y0235862D01*
X0229980Y0235845D01*
X0230087Y0235825D01*
X0230193Y0235800D01*
X0230298Y0235772D01*
X0230402Y0235740D01*
X0230505Y0235704D01*
X0230607Y0235664D01*
X0230707Y0235621D01*
X0230805Y0235574D01*
X0230902Y0235524D01*
X0230996Y0235470D01*
X0231089Y0235412D01*
X0231180Y0235352D01*
X0231268Y0235288D01*
X0231354Y0235221D01*
X0231437Y0235151D01*
X0231518Y0235078D01*
X0231596Y0235002D01*
X0231671Y0234923D01*
X0231744Y0234841D01*
X0231813Y0234757D01*
X0231879Y0234671D01*
X0231942Y0234582D01*
X0232002Y0234491D01*
X0232059Y0234398D01*
X0232112Y0234303D01*
X0232161Y0234206D01*
X0232207Y0234107D01*
X0232249Y0234007D01*
X0232288Y0233905D01*
X0232323Y0233801D01*
X0232354Y0233697D01*
X0232382Y0233592D01*
X0232405Y0233485D01*
X0232425Y0233378D01*
X0232441Y0233270D01*
X0232453Y0233162D01*
X0232461Y0233053D01*
X0232465Y0232944D01*
X0232465Y0232836D01*
X0232461Y0232727D01*
X0232453Y0232618D01*
X0232441Y0232510D01*
X0232425Y0232402D01*
X0232405Y0232295D01*
X0232382Y0232188D01*
X0232354Y0232083D01*
X0232323Y0231979D01*
X0232288Y0231875D01*
X0232249Y0231773D01*
X0232207Y0231673D01*
X0232161Y0231574D01*
X0232112Y0231477D01*
X0232059Y0231382D01*
X0232002Y0231289D01*
X0231942Y0231198D01*
X0231879Y0231109D01*
X0231813Y0231023D01*
X0231744Y0230939D01*
X0231671Y0230857D01*
X0231596Y0230778D01*
X0231518Y0230702D01*
X0231437Y0230629D01*
X0231354Y0230559D01*
X0231268Y0230492D01*
X0231180Y0230428D01*
X0231089Y0230368D01*
X0230996Y0230310D01*
X0230902Y0230256D01*
X0230805Y0230206D01*
X0230707Y0230159D01*
X0230607Y0230116D01*
X0230505Y0230076D01*
X0230402Y0230040D01*
X0230298Y0230008D01*
X0230193Y0229980D01*
X0230087Y0229955D01*
X0229980Y0229935D01*
X0229872Y0229918D01*
X0229764Y0229905D01*
X0229656Y0229896D01*
X0229547Y0229891D01*
X0229438Y0229890D01*
X0229329Y0229893D01*
X0229220Y0229900D01*
X0229112Y0229911D01*
X0229004Y0229926D01*
X0228896Y0229944D01*
X0228790Y0229967D01*
X0228684Y0229993D01*
X0228579Y0230024D01*
X0228476Y0230058D01*
X0228374Y0230095D01*
X0228273Y0230137D01*
X0228174Y0230182D01*
X0228076Y0230231D01*
X0227981Y0230283D01*
X0227887Y0230339D01*
X0227795Y0230397D01*
X0227706Y0230460D01*
X0227619Y0230525D01*
X0227534Y0230594D01*
X0227452Y0230665D01*
X0227373Y0230740D01*
X0227296Y0230817D01*
X0227222Y0230897D01*
X0227151Y0230980D01*
X0227084Y0231066D01*
X0227019Y0231153D01*
X0226957Y0231243D01*
X0226899Y0231335D01*
X0226845Y0231429D01*
X0226793Y0231526D01*
X0226745Y0231624D01*
X0226701Y0231723D01*
X0226661Y0231824D01*
X0226624Y0231927D01*
X0226591Y0232031D01*
X0226561Y0232135D01*
X0226536Y0232241D01*
X0226514Y0232348D01*
X0226497Y0232456D01*
X0226483Y0232564D01*
X0226473Y0232672D01*
X0226467Y0232781D01*
X0226465Y0232890D01*
X0235799Y0245000D02*
X0235799Y0269598D01*
X0249421Y0269598D01*
X0249421Y0245000D01*
X0235799Y0245000D01*
X0194491Y0268843D02*
X0194491Y0269910D01*
X0190220Y0269910D01*
X0190200Y0274005D02*
X0189133Y0275072D01*
X0188065Y0274005D01*
X0186998Y0275072D01*
X0186998Y0278275D01*
X0184822Y0277207D02*
X0183755Y0278275D01*
X0181620Y0278275D01*
X0180552Y0277207D01*
X0180552Y0275072D01*
X0181620Y0274005D01*
X0183755Y0274005D01*
X0184822Y0275072D01*
X0184822Y0277207D01*
X0190200Y0274005D02*
X0191268Y0275072D01*
X0191268Y0278275D01*
X0193443Y0278275D02*
X0193443Y0274005D01*
X0193443Y0276140D02*
X0195578Y0278275D01*
X0196646Y0278275D01*
X0198814Y0278275D02*
X0199882Y0278275D01*
X0199882Y0274005D01*
X0198814Y0274005D02*
X0200950Y0274005D01*
X0203111Y0275072D02*
X0203111Y0277207D01*
X0204179Y0278275D01*
X0207382Y0278275D01*
X0209557Y0276140D02*
X0212760Y0278275D01*
X0209557Y0276140D02*
X0212760Y0274005D01*
X0209557Y0274005D02*
X0209557Y0280410D01*
X0208463Y0284505D02*
X0206327Y0284505D01*
X0205260Y0285572D01*
X0206327Y0287707D02*
X0208463Y0287707D01*
X0209530Y0286640D01*
X0209530Y0285572D01*
X0208463Y0284505D01*
X0211705Y0285572D02*
X0212773Y0284505D01*
X0214908Y0284505D01*
X0215976Y0285572D01*
X0215976Y0287707D01*
X0214908Y0288775D01*
X0212773Y0288775D01*
X0211705Y0287707D01*
X0211705Y0285572D01*
X0209530Y0289843D02*
X0208463Y0290910D01*
X0206327Y0290910D01*
X0205260Y0289843D01*
X0205260Y0288775D01*
X0206327Y0287707D01*
X0199882Y0281478D02*
X0199882Y0280410D01*
X0196653Y0284505D02*
X0195585Y0285572D01*
X0195585Y0289843D01*
X0194517Y0288775D02*
X0196653Y0288775D01*
X0192342Y0287707D02*
X0192342Y0284505D01*
X0192342Y0287707D02*
X0191275Y0288775D01*
X0188072Y0288775D01*
X0188072Y0284505D01*
X0185897Y0286640D02*
X0181626Y0286640D01*
X0181626Y0287707D02*
X0182694Y0288775D01*
X0184829Y0288775D01*
X0185897Y0287707D01*
X0185897Y0286640D01*
X0184829Y0284505D02*
X0182694Y0284505D01*
X0181626Y0285572D01*
X0181626Y0287707D01*
X0179458Y0288775D02*
X0178390Y0288775D01*
X0176255Y0286640D01*
X0176255Y0284505D02*
X0176255Y0288775D01*
X0174087Y0288775D02*
X0173019Y0288775D01*
X0170884Y0286640D01*
X0170884Y0284505D02*
X0170884Y0288775D01*
X0168709Y0288775D02*
X0168709Y0284505D01*
X0165506Y0284505D01*
X0164438Y0285572D01*
X0164438Y0288775D01*
X0162263Y0289843D02*
X0161196Y0290910D01*
X0159060Y0290910D01*
X0157993Y0289843D01*
X0157993Y0285572D01*
X0159060Y0284505D01*
X0161196Y0284505D01*
X0162263Y0285572D01*
X0162263Y0280410D02*
X0157993Y0280410D01*
X0160128Y0280410D02*
X0160128Y0274005D01*
X0160128Y0269910D02*
X0160128Y0263505D01*
X0157993Y0263505D02*
X0162263Y0263505D01*
X0164438Y0263505D02*
X0164438Y0264572D01*
X0168709Y0268843D01*
X0168709Y0269910D01*
X0164438Y0269910D01*
X0164438Y0274005D02*
X0165506Y0274005D01*
X0165506Y0275072D01*
X0164438Y0275072D01*
X0164438Y0274005D01*
X0160128Y0269910D02*
X0157993Y0267775D01*
X0170884Y0264572D02*
X0171951Y0264572D01*
X0171951Y0263505D01*
X0170884Y0263505D01*
X0170884Y0264572D01*
X0174107Y0264572D02*
X0174107Y0263505D01*
X0174107Y0264572D02*
X0178377Y0268843D01*
X0178377Y0269910D01*
X0174107Y0269910D01*
X0174107Y0274005D02*
X0177309Y0274005D01*
X0178377Y0275072D01*
X0178377Y0279343D01*
X0177309Y0280410D01*
X0174107Y0280410D01*
X0174107Y0274005D01*
X0183775Y0267775D02*
X0185910Y0269910D01*
X0185910Y0263505D01*
X0183775Y0263505D02*
X0188045Y0263505D01*
X0190220Y0263505D02*
X0190220Y0264572D01*
X0194491Y0268843D01*
X0203111Y0275072D02*
X0204179Y0274005D01*
X0207382Y0274005D01*
X0218151Y0285572D02*
X0219218Y0284505D01*
X0222421Y0284505D01*
X0222421Y0288775D01*
X0224596Y0288775D02*
X0224596Y0284505D01*
X0224596Y0286640D02*
X0226732Y0288775D01*
X0227799Y0288775D01*
X0229968Y0287707D02*
X0229968Y0285572D01*
X0231035Y0284505D01*
X0234238Y0284505D01*
X0236413Y0285572D02*
X0237481Y0284505D01*
X0239616Y0284505D01*
X0240683Y0286640D02*
X0236413Y0286640D01*
X0236413Y0287707D02*
X0237481Y0288775D01*
X0239616Y0288775D01*
X0240683Y0287707D01*
X0240683Y0286640D01*
X0236413Y0285572D02*
X0236413Y0287707D01*
X0234238Y0288775D02*
X0231035Y0288775D01*
X0229968Y0287707D01*
X0218151Y0288775D02*
X0218151Y0285572D01*
X0219205Y0295005D02*
X0219205Y0301410D01*
X0216002Y0298207D01*
X0220273Y0298207D01*
X0213827Y0298207D02*
X0213827Y0296072D01*
X0212760Y0295005D01*
X0210624Y0295005D01*
X0209557Y0296072D01*
X0209557Y0298207D02*
X0211692Y0299275D01*
X0212760Y0299275D01*
X0213827Y0298207D01*
X0213827Y0301410D02*
X0209557Y0301410D01*
X0209557Y0298207D01*
X0207382Y0298207D02*
X0204179Y0298207D01*
X0203111Y0299275D01*
X0203111Y0300343D01*
X0204179Y0301410D01*
X0206314Y0301410D01*
X0207382Y0300343D01*
X0207382Y0296072D01*
X0206314Y0295005D01*
X0204179Y0295005D01*
X0203111Y0296072D01*
X0200936Y0296072D02*
X0200936Y0300343D01*
X0199869Y0301410D01*
X0197733Y0301410D01*
X0196666Y0300343D01*
X0196666Y0299275D01*
X0197733Y0298207D01*
X0200936Y0298207D01*
X0200936Y0296072D02*
X0199869Y0295005D01*
X0197733Y0295005D01*
X0196666Y0296072D01*
X0194491Y0296072D02*
X0194491Y0300343D01*
X0193423Y0301410D01*
X0190220Y0301410D01*
X0190220Y0295005D01*
X0193423Y0295005D01*
X0194491Y0296072D01*
X0188045Y0295005D02*
X0188045Y0299275D01*
X0185910Y0301410D01*
X0183775Y0299275D01*
X0183775Y0295005D01*
X0183775Y0298207D02*
X0188045Y0298207D01*
X0175154Y0295005D02*
X0170884Y0295005D01*
X0170884Y0301410D01*
X0168709Y0300343D02*
X0167641Y0301410D01*
X0165506Y0301410D01*
X0164438Y0300343D01*
X0164438Y0296072D01*
X0165506Y0295005D01*
X0167641Y0295005D01*
X0168709Y0296072D01*
X0162263Y0296072D02*
X0162263Y0301410D01*
X0157993Y0301410D02*
X0157993Y0296072D01*
X0159060Y0295005D01*
X0161196Y0295005D01*
X0162263Y0296072D01*
X0180552Y0264572D02*
X0181620Y0264572D01*
X0181620Y0263505D01*
X0180552Y0263505D01*
X0180552Y0264572D01*
X0309631Y0241036D02*
X0313631Y0241036D01*
X0320231Y0248936D02*
X0320231Y0250036D01*
X0321331Y0250036D01*
X0334831Y0256636D02*
X0334831Y0260636D01*
X0346731Y0250036D02*
X0347831Y0250036D01*
X0347831Y0248936D01*
X0354431Y0239036D02*
X0358431Y0239036D01*
X0347831Y0223536D02*
X0347831Y0222436D01*
X0346731Y0222436D01*
X0340731Y0215936D02*
X0340731Y0211936D01*
X0323531Y0224136D02*
X0321931Y0225736D01*
X0320231Y0223536D02*
X0320231Y0222436D01*
X0321331Y0222436D01*
X0401031Y0253559D02*
X0401033Y0253668D01*
X0401039Y0253777D01*
X0401049Y0253885D01*
X0401063Y0253993D01*
X0401080Y0254101D01*
X0401102Y0254208D01*
X0401127Y0254314D01*
X0401157Y0254418D01*
X0401190Y0254522D01*
X0401227Y0254625D01*
X0401267Y0254726D01*
X0401311Y0254825D01*
X0401359Y0254923D01*
X0401411Y0255020D01*
X0401465Y0255114D01*
X0401523Y0255206D01*
X0401585Y0255296D01*
X0401650Y0255383D01*
X0401717Y0255469D01*
X0401788Y0255552D01*
X0401862Y0255632D01*
X0401939Y0255709D01*
X0402018Y0255784D01*
X0402100Y0255855D01*
X0402185Y0255924D01*
X0402272Y0255989D01*
X0402361Y0256052D01*
X0402453Y0256110D01*
X0402547Y0256166D01*
X0402642Y0256218D01*
X0402740Y0256267D01*
X0402839Y0256312D01*
X0402940Y0256354D01*
X0403042Y0256391D01*
X0403145Y0256425D01*
X0403250Y0256456D01*
X0403356Y0256482D01*
X0403462Y0256505D01*
X0403570Y0256523D01*
X0403678Y0256538D01*
X0403786Y0256549D01*
X0403895Y0256556D01*
X0404004Y0256559D01*
X0404113Y0256558D01*
X0404222Y0256553D01*
X0404330Y0256544D01*
X0404438Y0256531D01*
X0404546Y0256514D01*
X0404653Y0256494D01*
X0404759Y0256469D01*
X0404864Y0256441D01*
X0404968Y0256409D01*
X0405071Y0256373D01*
X0405173Y0256333D01*
X0405273Y0256290D01*
X0405371Y0256243D01*
X0405468Y0256193D01*
X0405562Y0256139D01*
X0405655Y0256081D01*
X0405746Y0256021D01*
X0405834Y0255957D01*
X0405920Y0255890D01*
X0406003Y0255820D01*
X0406084Y0255747D01*
X0406162Y0255671D01*
X0406237Y0255592D01*
X0406310Y0255510D01*
X0406379Y0255426D01*
X0406445Y0255340D01*
X0406508Y0255251D01*
X0406568Y0255160D01*
X0406625Y0255067D01*
X0406678Y0254972D01*
X0406727Y0254875D01*
X0406773Y0254776D01*
X0406815Y0254676D01*
X0406854Y0254574D01*
X0406889Y0254470D01*
X0406920Y0254366D01*
X0406948Y0254261D01*
X0406971Y0254154D01*
X0406991Y0254047D01*
X0407007Y0253939D01*
X0407019Y0253831D01*
X0407027Y0253722D01*
X0407031Y0253613D01*
X0407031Y0253505D01*
X0407027Y0253396D01*
X0407019Y0253287D01*
X0407007Y0253179D01*
X0406991Y0253071D01*
X0406971Y0252964D01*
X0406948Y0252857D01*
X0406920Y0252752D01*
X0406889Y0252648D01*
X0406854Y0252544D01*
X0406815Y0252442D01*
X0406773Y0252342D01*
X0406727Y0252243D01*
X0406678Y0252146D01*
X0406625Y0252051D01*
X0406568Y0251958D01*
X0406508Y0251867D01*
X0406445Y0251778D01*
X0406379Y0251692D01*
X0406310Y0251608D01*
X0406237Y0251526D01*
X0406162Y0251447D01*
X0406084Y0251371D01*
X0406003Y0251298D01*
X0405920Y0251228D01*
X0405834Y0251161D01*
X0405746Y0251097D01*
X0405655Y0251037D01*
X0405562Y0250979D01*
X0405468Y0250925D01*
X0405371Y0250875D01*
X0405273Y0250828D01*
X0405173Y0250785D01*
X0405071Y0250745D01*
X0404968Y0250709D01*
X0404864Y0250677D01*
X0404759Y0250649D01*
X0404653Y0250624D01*
X0404546Y0250604D01*
X0404438Y0250587D01*
X0404330Y0250574D01*
X0404222Y0250565D01*
X0404113Y0250560D01*
X0404004Y0250559D01*
X0403895Y0250562D01*
X0403786Y0250569D01*
X0403678Y0250580D01*
X0403570Y0250595D01*
X0403462Y0250613D01*
X0403356Y0250636D01*
X0403250Y0250662D01*
X0403145Y0250693D01*
X0403042Y0250727D01*
X0402940Y0250764D01*
X0402839Y0250806D01*
X0402740Y0250851D01*
X0402642Y0250900D01*
X0402547Y0250952D01*
X0402453Y0251008D01*
X0402361Y0251066D01*
X0402272Y0251129D01*
X0402185Y0251194D01*
X0402100Y0251263D01*
X0402018Y0251334D01*
X0401939Y0251409D01*
X0401862Y0251486D01*
X0401788Y0251566D01*
X0401717Y0251649D01*
X0401650Y0251735D01*
X0401585Y0251822D01*
X0401523Y0251912D01*
X0401465Y0252004D01*
X0401411Y0252098D01*
X0401359Y0252195D01*
X0401311Y0252293D01*
X0401267Y0252392D01*
X0401227Y0252493D01*
X0401190Y0252596D01*
X0401157Y0252700D01*
X0401127Y0252804D01*
X0401102Y0252910D01*
X0401080Y0253017D01*
X0401063Y0253125D01*
X0401049Y0253233D01*
X0401039Y0253341D01*
X0401033Y0253450D01*
X0401031Y0253559D01*
X0447949Y0283323D02*
X0447949Y0286551D01*
X0452949Y0286551D02*
X0452949Y0283323D01*
X0463894Y0283441D02*
X0463894Y0286669D01*
X0468894Y0286669D02*
X0468894Y0283441D01*
X0481728Y0295134D02*
X0481728Y0298362D01*
X0486728Y0298362D02*
X0486728Y0295134D01*
X0497043Y0296236D02*
X0497043Y0299465D01*
X0502043Y0299465D02*
X0502043Y0296236D01*
X0346236Y0295114D02*
X0343008Y0295114D01*
X0343008Y0300114D02*
X0346236Y0300114D01*
D13*
X0337930Y0277870D03*
X0333330Y0277870D03*
X0333448Y0268973D03*
X0338048Y0268973D03*
X0355684Y0218854D03*
X0360284Y0218854D03*
X0368912Y0218972D03*
X0373512Y0218972D03*
X0382771Y0207594D03*
X0387371Y0207594D03*
X0387646Y0192476D03*
X0383046Y0192476D03*
X0346426Y0190665D03*
X0341826Y0190665D03*
X0332843Y0190744D03*
X0328243Y0190744D03*
X0328322Y0201137D03*
X0332922Y0201137D03*
X0341708Y0201137D03*
X0346308Y0201137D03*
X0251985Y0218815D03*
X0247385Y0218815D03*
X0268873Y0137555D03*
X0273473Y0137555D03*
X0513448Y0147910D03*
X0518048Y0147910D03*
X0532771Y0152200D03*
X0537371Y0152200D03*
D14*
X0485232Y0198881D03*
X0485232Y0203481D03*
X0477004Y0203403D03*
X0477004Y0198803D03*
X0445666Y0230369D03*
X0445666Y0234969D03*
X0437044Y0234890D03*
X0437044Y0230290D03*
X0391452Y0240023D03*
X0391452Y0244623D03*
X0374366Y0245725D03*
X0374366Y0241125D03*
X0374366Y0233324D03*
X0374366Y0228724D03*
X0382791Y0228606D03*
X0382791Y0233206D03*
X0389484Y0253999D03*
X0389484Y0258599D03*
X0374248Y0258040D03*
X0374248Y0253440D03*
X0347713Y0264936D03*
X0347713Y0269536D03*
X0347752Y0277621D03*
X0347752Y0282221D03*
X0363855Y0293086D03*
X0363855Y0297686D03*
X0324721Y0266701D03*
X0324721Y0262101D03*
X0314681Y0262023D03*
X0314681Y0266623D03*
X0305863Y0238552D03*
X0305863Y0233952D03*
X0296178Y0233952D03*
X0296178Y0238552D03*
X0264563Y0250881D03*
X0264563Y0255481D03*
X0255507Y0277228D03*
X0255507Y0281828D03*
X0308933Y0210174D03*
X0308933Y0205574D03*
X0318421Y0205692D03*
X0318421Y0210292D03*
X0269366Y0166316D03*
X0269366Y0161716D03*
D15*
X0235016Y0146197D03*
X0232614Y0257299D03*
D16*
X0252614Y0257299D03*
X0252614Y0266299D03*
X0252614Y0248299D03*
X0255016Y0155197D03*
X0255016Y0146197D03*
X0255016Y0137197D03*
D17*
X0400000Y0232000D02*
X0400002Y0232044D01*
X0400008Y0232088D01*
X0400018Y0232131D01*
X0400031Y0232173D01*
X0400048Y0232214D01*
X0400069Y0232253D01*
X0400093Y0232290D01*
X0400120Y0232325D01*
X0400150Y0232357D01*
X0400183Y0232387D01*
X0400219Y0232413D01*
X0400256Y0232437D01*
X0400296Y0232456D01*
X0400337Y0232473D01*
X0400380Y0232485D01*
X0400423Y0232494D01*
X0400467Y0232499D01*
X0400511Y0232500D01*
X0400555Y0232497D01*
X0400599Y0232490D01*
X0400642Y0232479D01*
X0400684Y0232465D01*
X0400724Y0232447D01*
X0400763Y0232425D01*
X0400799Y0232401D01*
X0400833Y0232373D01*
X0400865Y0232342D01*
X0400894Y0232308D01*
X0400920Y0232272D01*
X0400942Y0232234D01*
X0400961Y0232194D01*
X0400976Y0232152D01*
X0400988Y0232110D01*
X0400996Y0232066D01*
X0401000Y0232022D01*
X0401000Y0231978D01*
X0400996Y0231934D01*
X0400988Y0231890D01*
X0400976Y0231848D01*
X0400961Y0231806D01*
X0400942Y0231766D01*
X0400920Y0231728D01*
X0400894Y0231692D01*
X0400865Y0231658D01*
X0400833Y0231627D01*
X0400799Y0231599D01*
X0400763Y0231575D01*
X0400724Y0231553D01*
X0400684Y0231535D01*
X0400642Y0231521D01*
X0400599Y0231510D01*
X0400555Y0231503D01*
X0400511Y0231500D01*
X0400467Y0231501D01*
X0400423Y0231506D01*
X0400380Y0231515D01*
X0400337Y0231527D01*
X0400296Y0231544D01*
X0400256Y0231563D01*
X0400219Y0231587D01*
X0400183Y0231613D01*
X0400150Y0231643D01*
X0400120Y0231675D01*
X0400093Y0231710D01*
X0400069Y0231747D01*
X0400048Y0231786D01*
X0400031Y0231827D01*
X0400018Y0231869D01*
X0400008Y0231912D01*
X0400002Y0231956D01*
X0400000Y0232000D01*
X0504237Y0228944D02*
X0504987Y0229695D01*
X0506489Y0229695D01*
X0507239Y0228944D01*
X0507239Y0228194D01*
X0506489Y0227443D01*
X0507239Y0226692D01*
X0507239Y0225942D01*
X0506489Y0225191D01*
X0504987Y0225191D01*
X0504237Y0225942D01*
X0505738Y0227443D02*
X0506489Y0227443D01*
X0514237Y0228944D02*
X0514987Y0229695D01*
X0516489Y0229695D01*
X0517239Y0228944D01*
X0517239Y0228194D01*
X0514237Y0225191D01*
X0517239Y0225191D01*
X0524237Y0225191D02*
X0527239Y0225191D01*
X0525738Y0225191D02*
X0525738Y0229695D01*
X0524237Y0228194D01*
D18*
X0526591Y0218441D03*
X0516591Y0218441D03*
X0506591Y0218441D03*
X0506591Y0208441D03*
X0516591Y0208441D03*
X0526591Y0208441D03*
D19*
X0153826Y0116400D02*
X0152291Y0117935D01*
X0153826Y0116400D02*
X0155361Y0116400D01*
X0156895Y0117935D01*
X0156895Y0125608D01*
X0155361Y0125608D02*
X0158430Y0125608D01*
X0163034Y0122539D02*
X0166103Y0122539D01*
X0167638Y0121004D01*
X0167638Y0116400D01*
X0163034Y0116400D01*
X0161499Y0117935D01*
X0163034Y0119469D01*
X0167638Y0119469D01*
X0170707Y0117935D02*
X0172242Y0116400D01*
X0176846Y0116400D01*
X0179915Y0116400D02*
X0179915Y0125608D01*
X0176846Y0122539D02*
X0172242Y0122539D01*
X0170707Y0121004D01*
X0170707Y0117935D01*
X0179915Y0119469D02*
X0184519Y0122539D01*
X0179915Y0119469D02*
X0184519Y0116400D01*
X0187588Y0131400D02*
X0186054Y0132935D01*
X0186054Y0136004D01*
X0187588Y0137539D01*
X0190657Y0137539D01*
X0192192Y0136004D01*
X0192192Y0134469D01*
X0186054Y0134469D01*
X0187588Y0131400D02*
X0190657Y0131400D01*
X0195261Y0131400D02*
X0198331Y0131400D01*
X0196796Y0131400D02*
X0196796Y0140608D01*
X0195261Y0140608D01*
X0182984Y0137539D02*
X0181450Y0137539D01*
X0178380Y0134469D01*
X0178380Y0131400D02*
X0178380Y0137539D01*
X0175311Y0137539D02*
X0173776Y0137539D01*
X0170707Y0134469D01*
X0170707Y0131400D02*
X0170707Y0137539D01*
X0167638Y0136004D02*
X0167638Y0131400D01*
X0163034Y0131400D01*
X0161499Y0132935D01*
X0163034Y0134469D01*
X0167638Y0134469D01*
X0167638Y0136004D02*
X0166103Y0137539D01*
X0163034Y0137539D01*
X0158430Y0137539D02*
X0156895Y0136004D01*
X0152291Y0136004D01*
X0152291Y0131400D02*
X0152291Y0140608D01*
X0156895Y0140608D01*
X0158430Y0139073D01*
X0158430Y0137539D01*
X0156895Y0136004D02*
X0158430Y0134469D01*
X0158430Y0132935D01*
X0156895Y0131400D01*
X0152291Y0131400D01*
X0261000Y0118500D02*
X0261000Y0113500D01*
X0263500Y0111000D01*
X0268500Y0111000D01*
X0271000Y0113500D01*
X0273500Y0111000D01*
X0278500Y0111000D01*
X0281000Y0113500D01*
X0283500Y0111000D01*
X0288500Y0111000D01*
X0291000Y0113500D01*
X0293500Y0111000D01*
X0298500Y0111000D01*
X0301000Y0113500D01*
X0303500Y0111000D01*
X0308500Y0111000D01*
X0311000Y0113500D01*
X0313500Y0111000D01*
X0318500Y0111000D01*
X0321000Y0113500D01*
X0323500Y0111000D01*
X0328500Y0111000D01*
X0331000Y0113500D01*
X0333500Y0111000D01*
X0338500Y0111000D01*
X0341000Y0113500D01*
X0341000Y0118500D01*
X0338500Y0121000D01*
X0333500Y0121000D01*
X0331000Y0118500D01*
X0328500Y0121000D01*
X0323500Y0121000D01*
X0321000Y0118500D01*
X0318500Y0121000D01*
X0313500Y0121000D01*
X0311000Y0118500D01*
X0308500Y0121000D01*
X0303500Y0121000D01*
X0301000Y0118500D01*
X0298500Y0121000D01*
X0293500Y0121000D01*
X0291000Y0118500D01*
X0288500Y0121000D01*
X0283500Y0121000D01*
X0281000Y0118500D01*
X0278500Y0121000D01*
X0273500Y0121000D01*
X0271000Y0118500D01*
X0268500Y0121000D01*
X0263500Y0121000D01*
X0261000Y0118500D01*
X0361157Y0124543D02*
X0361157Y0138323D01*
X0364307Y0138323D01*
X0364307Y0128480D01*
X0369031Y0128480D01*
X0384780Y0128480D02*
X0389504Y0128480D01*
X0389504Y0138323D01*
X0392654Y0138323D01*
X0392654Y0124543D01*
X0384780Y0108795D02*
X0369031Y0108795D01*
X0417299Y0110449D02*
X0417299Y0150449D01*
X0452024Y0150449D01*
X0452024Y0110449D01*
X0417299Y0110449D01*
X0429661Y0130449D02*
X0429661Y0142949D01*
X0429663Y0143090D01*
X0429669Y0143231D01*
X0429679Y0143371D01*
X0429693Y0143511D01*
X0429711Y0143651D01*
X0429732Y0143790D01*
X0429758Y0143929D01*
X0429787Y0144067D01*
X0429821Y0144203D01*
X0429858Y0144339D01*
X0429899Y0144474D01*
X0429944Y0144608D01*
X0429993Y0144740D01*
X0430045Y0144871D01*
X0430101Y0145000D01*
X0430161Y0145127D01*
X0430224Y0145253D01*
X0430290Y0145377D01*
X0430361Y0145500D01*
X0430434Y0145620D01*
X0430511Y0145738D01*
X0430591Y0145854D01*
X0430675Y0145967D01*
X0430761Y0146078D01*
X0430851Y0146187D01*
X0430944Y0146293D01*
X0431039Y0146396D01*
X0431138Y0146497D01*
X0431239Y0146595D01*
X0431343Y0146690D01*
X0431450Y0146782D01*
X0431559Y0146871D01*
X0431671Y0146956D01*
X0431785Y0147039D01*
X0431901Y0147119D01*
X0432020Y0147195D01*
X0432141Y0147267D01*
X0432263Y0147337D01*
X0432388Y0147402D01*
X0432514Y0147465D01*
X0432642Y0147523D01*
X0432772Y0147578D01*
X0432903Y0147630D01*
X0433036Y0147677D01*
X0433170Y0147721D01*
X0433305Y0147762D01*
X0433441Y0147798D01*
X0433578Y0147830D01*
X0433716Y0147859D01*
X0433854Y0147884D01*
X0433994Y0147904D01*
X0434134Y0147921D01*
X0434274Y0147934D01*
X0434415Y0147943D01*
X0434555Y0147948D01*
X0434696Y0147949D01*
X0434837Y0147946D01*
X0434978Y0147939D01*
X0435118Y0147928D01*
X0435258Y0147913D01*
X0435398Y0147894D01*
X0435537Y0147872D01*
X0435675Y0147845D01*
X0435813Y0147815D01*
X0435949Y0147780D01*
X0436085Y0147742D01*
X0436219Y0147700D01*
X0436353Y0147654D01*
X0436485Y0147605D01*
X0436615Y0147551D01*
X0436744Y0147494D01*
X0436871Y0147434D01*
X0436997Y0147370D01*
X0437120Y0147302D01*
X0437242Y0147231D01*
X0437362Y0147157D01*
X0437479Y0147079D01*
X0437594Y0146998D01*
X0437707Y0146914D01*
X0437818Y0146827D01*
X0437926Y0146736D01*
X0438031Y0146643D01*
X0438134Y0146546D01*
X0438234Y0146447D01*
X0438331Y0146345D01*
X0438425Y0146240D01*
X0438516Y0146133D01*
X0438604Y0146023D01*
X0438689Y0145911D01*
X0438771Y0145796D01*
X0438850Y0145679D01*
X0438925Y0145560D01*
X0438997Y0145439D01*
X0439065Y0145316D01*
X0439130Y0145191D01*
X0439192Y0145064D01*
X0439249Y0144935D01*
X0439304Y0144805D01*
X0439354Y0144674D01*
X0439401Y0144541D01*
X0439444Y0144407D01*
X0439483Y0144271D01*
X0439518Y0144135D01*
X0439550Y0143998D01*
X0439577Y0143860D01*
X0439601Y0143721D01*
X0439621Y0143581D01*
X0439637Y0143441D01*
X0439649Y0143301D01*
X0439657Y0143160D01*
X0439661Y0143019D01*
X0439661Y0142879D01*
X0439657Y0142738D01*
X0439649Y0142597D01*
X0439637Y0142457D01*
X0439621Y0142317D01*
X0439601Y0142177D01*
X0439577Y0142038D01*
X0439550Y0141900D01*
X0439518Y0141763D01*
X0439483Y0141627D01*
X0439444Y0141491D01*
X0439401Y0141357D01*
X0439354Y0141224D01*
X0439304Y0141093D01*
X0439249Y0140963D01*
X0439192Y0140834D01*
X0439130Y0140707D01*
X0439065Y0140582D01*
X0438997Y0140459D01*
X0438925Y0140338D01*
X0438850Y0140219D01*
X0438771Y0140102D01*
X0438689Y0139987D01*
X0438604Y0139875D01*
X0438516Y0139765D01*
X0438425Y0139658D01*
X0438331Y0139553D01*
X0438234Y0139451D01*
X0438134Y0139352D01*
X0438031Y0139255D01*
X0437926Y0139162D01*
X0437818Y0139071D01*
X0437707Y0138984D01*
X0437594Y0138900D01*
X0437479Y0138819D01*
X0437362Y0138741D01*
X0437242Y0138667D01*
X0437120Y0138596D01*
X0436997Y0138528D01*
X0436871Y0138464D01*
X0436744Y0138404D01*
X0436615Y0138347D01*
X0436485Y0138293D01*
X0436353Y0138244D01*
X0436219Y0138198D01*
X0436085Y0138156D01*
X0435949Y0138118D01*
X0435813Y0138083D01*
X0435675Y0138053D01*
X0435537Y0138026D01*
X0435398Y0138004D01*
X0435258Y0137985D01*
X0435118Y0137970D01*
X0434978Y0137959D01*
X0434837Y0137952D01*
X0434696Y0137949D01*
X0434555Y0137950D01*
X0434415Y0137955D01*
X0434274Y0137964D01*
X0434134Y0137977D01*
X0433994Y0137994D01*
X0433854Y0138014D01*
X0433716Y0138039D01*
X0433578Y0138068D01*
X0433441Y0138100D01*
X0433305Y0138136D01*
X0433170Y0138177D01*
X0433036Y0138221D01*
X0432903Y0138268D01*
X0432772Y0138320D01*
X0432642Y0138375D01*
X0432514Y0138433D01*
X0432388Y0138496D01*
X0432263Y0138561D01*
X0432141Y0138631D01*
X0432020Y0138703D01*
X0431901Y0138779D01*
X0431785Y0138859D01*
X0431671Y0138942D01*
X0431559Y0139027D01*
X0431450Y0139116D01*
X0431343Y0139208D01*
X0431239Y0139303D01*
X0431138Y0139401D01*
X0431039Y0139502D01*
X0430944Y0139605D01*
X0430851Y0139711D01*
X0430761Y0139820D01*
X0430675Y0139931D01*
X0430591Y0140044D01*
X0430511Y0140160D01*
X0430434Y0140278D01*
X0430361Y0140398D01*
X0430290Y0140521D01*
X0430224Y0140645D01*
X0430161Y0140771D01*
X0430101Y0140898D01*
X0430045Y0141027D01*
X0429993Y0141158D01*
X0429944Y0141290D01*
X0429899Y0141424D01*
X0429858Y0141559D01*
X0429821Y0141695D01*
X0429787Y0141831D01*
X0429758Y0141969D01*
X0429732Y0142108D01*
X0429711Y0142247D01*
X0429693Y0142387D01*
X0429679Y0142527D01*
X0429669Y0142667D01*
X0429663Y0142808D01*
X0429661Y0142949D01*
X0439661Y0142949D02*
X0439661Y0130449D01*
X0439681Y0135863D02*
X0439812Y0135738D01*
X0439940Y0135611D01*
X0440064Y0135480D01*
X0440186Y0135347D01*
X0440304Y0135210D01*
X0440419Y0135071D01*
X0440530Y0134929D01*
X0440638Y0134784D01*
X0440742Y0134637D01*
X0440843Y0134487D01*
X0440940Y0134334D01*
X0441033Y0134180D01*
X0441122Y0134023D01*
X0441207Y0133864D01*
X0441289Y0133703D01*
X0441367Y0133540D01*
X0441440Y0133375D01*
X0441510Y0133209D01*
X0441575Y0133040D01*
X0441636Y0132871D01*
X0441694Y0132699D01*
X0441747Y0132527D01*
X0441795Y0132353D01*
X0441840Y0132178D01*
X0441880Y0132002D01*
X0441916Y0131825D01*
X0441947Y0131647D01*
X0441974Y0131469D01*
X0441997Y0131290D01*
X0442015Y0131110D01*
X0442029Y0130930D01*
X0442039Y0130750D01*
X0442044Y0130570D01*
X0442045Y0130389D01*
X0442041Y0130209D01*
X0442033Y0130028D01*
X0442021Y0129848D01*
X0442004Y0129669D01*
X0441982Y0129489D01*
X0441957Y0129311D01*
X0441927Y0129133D01*
X0441892Y0128955D01*
X0441854Y0128779D01*
X0441811Y0128604D01*
X0441763Y0128430D01*
X0441712Y0128257D01*
X0441656Y0128085D01*
X0441596Y0127915D01*
X0441532Y0127746D01*
X0441464Y0127579D01*
X0441392Y0127413D01*
X0441316Y0127250D01*
X0441235Y0127088D01*
X0441151Y0126928D01*
X0441063Y0126771D01*
X0440971Y0126615D01*
X0440876Y0126462D01*
X0440776Y0126311D01*
X0440673Y0126163D01*
X0440567Y0126018D01*
X0440457Y0125875D01*
X0440343Y0125734D01*
X0440226Y0125597D01*
X0440106Y0125462D01*
X0439982Y0125331D01*
X0439855Y0125202D01*
X0439725Y0125077D01*
X0439593Y0124955D01*
X0439457Y0124836D01*
X0439318Y0124720D01*
X0439177Y0124608D01*
X0439032Y0124500D01*
X0438886Y0124394D01*
X0438736Y0124293D01*
X0438585Y0124195D01*
X0438430Y0124101D01*
X0438274Y0124011D01*
X0438116Y0123925D01*
X0437955Y0123842D01*
X0437792Y0123764D01*
X0437628Y0123689D01*
X0437462Y0123619D01*
X0437294Y0123552D01*
X0437125Y0123490D01*
X0436954Y0123432D01*
X0436781Y0123378D01*
X0436608Y0123329D01*
X0436433Y0123283D01*
X0436257Y0123242D01*
X0436081Y0123205D01*
X0435903Y0123173D01*
X0435725Y0123145D01*
X0435546Y0123121D01*
X0435366Y0123101D01*
X0435187Y0123087D01*
X0435006Y0123076D01*
X0434826Y0123070D01*
X0434645Y0123068D01*
X0434465Y0123071D01*
X0434285Y0123078D01*
X0434104Y0123089D01*
X0433925Y0123105D01*
X0433745Y0123125D01*
X0433566Y0123150D01*
X0433388Y0123179D01*
X0433211Y0123212D01*
X0433034Y0123250D01*
X0432859Y0123292D01*
X0432684Y0123338D01*
X0432511Y0123389D01*
X0432339Y0123444D01*
X0432168Y0123503D01*
X0431999Y0123566D01*
X0431832Y0123633D01*
X0431666Y0123704D01*
X0431502Y0123780D01*
X0431340Y0123859D01*
X0431180Y0123942D01*
X0431022Y0124029D01*
X0430866Y0124120D01*
X0430712Y0124215D01*
X0430561Y0124314D01*
X0430412Y0124416D01*
X0430266Y0124522D01*
X0430122Y0124631D01*
X0429981Y0124744D01*
X0429843Y0124860D01*
X0429708Y0124980D01*
X0429576Y0125102D01*
X0429446Y0125228D01*
X0429320Y0125358D01*
X0429197Y0125490D01*
X0429078Y0125625D01*
X0428961Y0125763D01*
X0428848Y0125904D01*
X0428739Y0126047D01*
X0428633Y0126194D01*
X0428531Y0126342D01*
X0428432Y0126494D01*
X0428337Y0126647D01*
X0428246Y0126803D01*
X0428159Y0126961D01*
X0428076Y0127121D01*
X0427996Y0127283D01*
X0427921Y0127447D01*
X0427850Y0127613D01*
X0427782Y0127780D01*
X0427719Y0127950D01*
X0427660Y0128120D01*
X0427605Y0128292D01*
X0427555Y0128465D01*
X0427508Y0128640D01*
X0427466Y0128815D01*
X0427428Y0128992D01*
X0427395Y0129169D01*
X0427366Y0129347D01*
X0427341Y0129526D01*
X0427321Y0129706D01*
X0427305Y0129885D01*
X0427293Y0130065D01*
X0427286Y0130246D01*
X0427283Y0130426D01*
X0427285Y0130607D01*
X0427291Y0130787D01*
X0427301Y0130967D01*
X0427316Y0131147D01*
X0427335Y0131327D01*
X0427359Y0131506D01*
X0427387Y0131684D01*
X0427419Y0131862D01*
X0427456Y0132038D01*
X0427497Y0132214D01*
X0427542Y0132389D01*
X0427592Y0132562D01*
X0427646Y0132735D01*
X0427704Y0132906D01*
X0427766Y0133075D01*
X0427832Y0133243D01*
X0427903Y0133409D01*
X0427977Y0133574D01*
X0428055Y0133736D01*
X0428138Y0133897D01*
X0428224Y0134056D01*
X0428314Y0134212D01*
X0428408Y0134366D01*
X0428506Y0134518D01*
X0428607Y0134667D01*
X0428712Y0134814D01*
X0428821Y0134958D01*
X0428933Y0135100D01*
X0429048Y0135239D01*
X0429167Y0135375D01*
X0429289Y0135507D01*
X0429414Y0135637D01*
X0429543Y0135764D01*
X0429661Y0130449D02*
X0429663Y0130309D01*
X0429669Y0130169D01*
X0429679Y0130029D01*
X0429692Y0129889D01*
X0429710Y0129750D01*
X0429732Y0129611D01*
X0429757Y0129474D01*
X0429786Y0129336D01*
X0429819Y0129200D01*
X0429856Y0129065D01*
X0429897Y0128931D01*
X0429942Y0128798D01*
X0429990Y0128666D01*
X0430042Y0128536D01*
X0430097Y0128407D01*
X0430156Y0128280D01*
X0430219Y0128154D01*
X0430285Y0128030D01*
X0430354Y0127909D01*
X0430427Y0127789D01*
X0430504Y0127671D01*
X0430583Y0127556D01*
X0430666Y0127442D01*
X0430752Y0127332D01*
X0430841Y0127223D01*
X0430933Y0127117D01*
X0431028Y0127014D01*
X0431125Y0126913D01*
X0431226Y0126816D01*
X0431329Y0126721D01*
X0431435Y0126629D01*
X0431544Y0126540D01*
X0431654Y0126454D01*
X0431768Y0126371D01*
X0431883Y0126292D01*
X0432001Y0126215D01*
X0432121Y0126142D01*
X0432242Y0126073D01*
X0432366Y0126007D01*
X0432492Y0125944D01*
X0432619Y0125885D01*
X0432748Y0125830D01*
X0432878Y0125778D01*
X0433010Y0125730D01*
X0433143Y0125685D01*
X0433277Y0125644D01*
X0433412Y0125607D01*
X0433548Y0125574D01*
X0433686Y0125545D01*
X0433823Y0125520D01*
X0433962Y0125498D01*
X0434101Y0125480D01*
X0434241Y0125467D01*
X0434381Y0125457D01*
X0434521Y0125451D01*
X0434661Y0125449D01*
X0434801Y0125451D01*
X0434941Y0125457D01*
X0435081Y0125467D01*
X0435221Y0125480D01*
X0435360Y0125498D01*
X0435499Y0125520D01*
X0435636Y0125545D01*
X0435774Y0125574D01*
X0435910Y0125607D01*
X0436045Y0125644D01*
X0436179Y0125685D01*
X0436312Y0125730D01*
X0436444Y0125778D01*
X0436574Y0125830D01*
X0436703Y0125885D01*
X0436830Y0125944D01*
X0436956Y0126007D01*
X0437080Y0126073D01*
X0437201Y0126142D01*
X0437321Y0126215D01*
X0437439Y0126292D01*
X0437554Y0126371D01*
X0437668Y0126454D01*
X0437778Y0126540D01*
X0437887Y0126629D01*
X0437993Y0126721D01*
X0438096Y0126816D01*
X0438197Y0126913D01*
X0438294Y0127014D01*
X0438389Y0127117D01*
X0438481Y0127223D01*
X0438570Y0127332D01*
X0438656Y0127442D01*
X0438739Y0127556D01*
X0438818Y0127671D01*
X0438895Y0127789D01*
X0438968Y0127909D01*
X0439037Y0128030D01*
X0439103Y0128154D01*
X0439166Y0128280D01*
X0439225Y0128407D01*
X0439280Y0128536D01*
X0439332Y0128666D01*
X0439380Y0128798D01*
X0439425Y0128931D01*
X0439466Y0129065D01*
X0439503Y0129200D01*
X0439536Y0129336D01*
X0439565Y0129474D01*
X0439590Y0129611D01*
X0439612Y0129750D01*
X0439630Y0129889D01*
X0439643Y0130029D01*
X0439653Y0130169D01*
X0439659Y0130309D01*
X0439661Y0130449D01*
X0468520Y0123756D02*
X0468520Y0137535D01*
X0471669Y0137535D01*
X0471669Y0127693D01*
X0476394Y0127693D01*
X0492142Y0127693D02*
X0496866Y0127693D01*
X0496866Y0137535D01*
X0500016Y0137535D01*
X0500016Y0123756D01*
X0492142Y0108008D02*
X0476394Y0108008D01*
X0471866Y0209701D02*
X0452969Y0209701D01*
X0452969Y0222693D01*
X0471866Y0222693D01*
X0471866Y0209701D01*
X0471866Y0222693D02*
X0471866Y0224661D01*
X0452969Y0224661D01*
X0452969Y0222693D01*
X0322700Y0295044D02*
X0321899Y0294244D01*
X0321099Y0294244D01*
X0320298Y0295044D01*
X0320298Y0296646D01*
X0321099Y0297446D01*
X0321899Y0297446D01*
X0322700Y0296646D01*
X0322700Y0295044D01*
X0320298Y0295044D02*
X0319497Y0294244D01*
X0318697Y0294244D01*
X0317896Y0295044D01*
X0317896Y0296646D01*
X0318697Y0297446D01*
X0319497Y0297446D01*
X0320298Y0296646D01*
X0312700Y0296646D02*
X0311899Y0297446D01*
X0308697Y0297446D01*
X0307896Y0296646D01*
X0307896Y0295044D01*
X0308697Y0294244D01*
X0309497Y0294244D01*
X0310298Y0295044D01*
X0310298Y0297446D01*
X0312700Y0296646D02*
X0312700Y0295044D01*
X0311899Y0294244D01*
X0312500Y0301000D02*
X0307500Y0301000D01*
X0305000Y0303500D01*
X0302500Y0301000D01*
X0297500Y0301000D01*
X0295000Y0303500D01*
X0292500Y0301000D01*
X0287500Y0301000D01*
X0285000Y0303500D01*
X0282500Y0301000D01*
X0277500Y0301000D01*
X0275000Y0303500D01*
X0272500Y0301000D01*
X0267500Y0301000D01*
X0265000Y0303500D01*
X0262500Y0301000D01*
X0257500Y0301000D01*
X0255000Y0303500D01*
X0252500Y0301000D01*
X0247500Y0301000D01*
X0245000Y0303500D01*
X0242500Y0301000D01*
X0237500Y0301000D01*
X0235000Y0303500D01*
X0232500Y0301000D01*
X0227500Y0301000D01*
X0225000Y0303500D01*
X0225000Y0308500D01*
X0227500Y0311000D01*
X0232500Y0311000D01*
X0235000Y0308500D01*
X0237500Y0311000D01*
X0242500Y0311000D01*
X0245000Y0308500D01*
X0247500Y0311000D01*
X0252500Y0311000D01*
X0255000Y0308500D01*
X0257500Y0311000D01*
X0262500Y0311000D01*
X0265000Y0308500D01*
X0267500Y0311000D01*
X0272500Y0311000D01*
X0275000Y0308500D01*
X0277500Y0311000D01*
X0282500Y0311000D01*
X0285000Y0308500D01*
X0287500Y0311000D01*
X0292500Y0311000D01*
X0295000Y0308500D01*
X0297500Y0311000D01*
X0302500Y0311000D01*
X0305000Y0308500D01*
X0307500Y0311000D01*
X0312500Y0311000D01*
X0315000Y0308500D01*
X0317500Y0311000D01*
X0322500Y0311000D01*
X0325000Y0308500D01*
X0325000Y0303500D01*
X0322500Y0301000D01*
X0317500Y0301000D01*
X0315000Y0303500D01*
X0312500Y0301000D01*
X0302700Y0296646D02*
X0302700Y0295044D01*
X0301899Y0294244D01*
X0298697Y0297446D01*
X0301899Y0297446D01*
X0302700Y0296646D01*
X0301899Y0294244D02*
X0298697Y0294244D01*
X0297896Y0295044D01*
X0297896Y0296646D01*
X0298697Y0297446D01*
X0292200Y0297446D02*
X0292200Y0294244D01*
X0292200Y0295845D02*
X0287396Y0295845D01*
X0288997Y0294244D01*
X0292200Y0292290D02*
X0292200Y0289087D01*
X0292200Y0290689D02*
X0287396Y0290689D01*
X0288997Y0289087D01*
X0282200Y0289087D02*
X0282200Y0292290D01*
X0282200Y0290689D02*
X0277396Y0290689D01*
X0278997Y0289087D01*
X0278197Y0294244D02*
X0277396Y0295044D01*
X0277396Y0296646D01*
X0278197Y0297446D01*
X0278997Y0297446D01*
X0282200Y0294244D01*
X0282200Y0297446D01*
X0272200Y0296646D02*
X0272200Y0295044D01*
X0271399Y0294244D01*
X0272200Y0292290D02*
X0272200Y0289087D01*
X0272200Y0290689D02*
X0267396Y0290689D01*
X0268997Y0289087D01*
X0268197Y0294244D02*
X0267396Y0295044D01*
X0267396Y0296646D01*
X0268197Y0297446D01*
X0268997Y0297446D01*
X0269798Y0296646D01*
X0270599Y0297446D01*
X0271399Y0297446D01*
X0272200Y0296646D01*
X0269798Y0296646D02*
X0269798Y0295845D01*
X0262200Y0296646D02*
X0261399Y0297446D01*
X0258197Y0297446D01*
X0257396Y0296646D01*
X0257396Y0294244D01*
X0262200Y0294244D01*
X0262200Y0296646D01*
X0262200Y0292290D02*
X0257396Y0292290D01*
X0257396Y0289087D02*
X0262200Y0292290D01*
X0262200Y0289087D02*
X0257396Y0289087D01*
X0258197Y0287134D02*
X0257396Y0286333D01*
X0257396Y0284731D01*
X0258197Y0283931D01*
X0261399Y0283931D01*
X0262200Y0284731D01*
X0262200Y0286333D01*
X0261399Y0287134D01*
X0259798Y0287134D01*
X0259798Y0285532D01*
X0297896Y0290689D02*
X0302700Y0290689D01*
X0302700Y0292290D02*
X0302700Y0289087D01*
X0299497Y0289087D02*
X0297896Y0290689D01*
D20*
X0454917Y0227221D03*
X0459917Y0227221D03*
X0464917Y0227221D03*
X0469917Y0227221D03*
X0469917Y0207142D03*
X0464917Y0207142D03*
X0459917Y0207142D03*
X0454917Y0207142D03*
D21*
X0416000Y0206000D03*
X0406000Y0206000D03*
X0406000Y0216000D03*
X0416000Y0216000D03*
X0416000Y0226000D03*
X0406000Y0226000D03*
X0320000Y0306000D03*
X0310000Y0306000D03*
X0300000Y0306000D03*
X0290000Y0306000D03*
X0280000Y0306000D03*
X0270000Y0306000D03*
X0260000Y0306000D03*
X0250000Y0306000D03*
X0240000Y0306000D03*
X0230000Y0306000D03*
X0266000Y0116000D03*
X0276000Y0116000D03*
X0286000Y0116000D03*
X0296000Y0116000D03*
X0306000Y0116000D03*
X0316000Y0116000D03*
X0326000Y0116000D03*
X0336000Y0116000D03*
D22*
X0444667Y0172333D03*
X0444667Y0178133D03*
X0455758Y0178407D03*
X0455758Y0172607D03*
X0480022Y0172924D03*
X0480022Y0178724D03*
X0494392Y0180798D03*
X0494392Y0186598D03*
X0483526Y0235994D03*
X0483526Y0241794D03*
X0465994Y0257056D03*
X0465994Y0262856D03*
X0450443Y0262777D03*
X0450443Y0256977D03*
X0484313Y0265758D03*
X0484313Y0271558D03*
X0466400Y0282176D03*
X0466400Y0287976D03*
X0450443Y0287817D03*
X0450443Y0282017D03*
X0484222Y0293828D03*
X0484222Y0299628D03*
X0499549Y0300771D03*
X0499549Y0294971D03*
X0506833Y0245889D03*
X0506833Y0240089D03*
X0519352Y0240089D03*
X0519352Y0245889D03*
X0531085Y0245889D03*
X0531085Y0240089D03*
X0238486Y0210653D03*
X0238486Y0204853D03*
D23*
X0341702Y0297620D03*
X0347502Y0297620D03*
D24*
X0404031Y0253559D03*
X0409740Y0239976D03*
X0426787Y0247063D03*
X0426315Y0260449D03*
X0494976Y0227378D03*
X0511630Y0194740D03*
X0522654Y0195055D03*
X0406000Y0187220D03*
X0300094Y0186669D03*
X0229465Y0232890D03*
X0231512Y0115567D03*
X0217811Y0115567D03*
X0246945Y0115764D03*
D25*
X0246945Y0115864D01*
X0246995Y0115864D01*
X0247012Y0115847D01*
X0247012Y0115814D01*
X0246995Y0115797D01*
X0246945Y0115797D01*
X0247037Y0115864D02*
X0247104Y0115864D01*
X0247129Y0115864D02*
X0247179Y0115864D01*
X0247196Y0115847D01*
X0247196Y0115814D01*
X0247179Y0115797D01*
X0247129Y0115797D01*
X0247129Y0115764D02*
X0247129Y0115864D01*
X0247070Y0115864D02*
X0247070Y0115764D01*
X0247162Y0115797D02*
X0247196Y0115764D01*
X0247221Y0115764D02*
X0247288Y0115764D01*
X0247313Y0115764D02*
X0247313Y0115864D01*
X0247363Y0115864D01*
X0247380Y0115847D01*
X0247380Y0115814D01*
X0247363Y0115797D01*
X0247313Y0115797D01*
X0247254Y0115764D02*
X0247254Y0115864D01*
X0247221Y0115830D01*
X0247405Y0115830D02*
X0247439Y0115864D01*
X0247472Y0115830D01*
X0247472Y0115764D01*
X0247497Y0115764D02*
X0247547Y0115764D01*
X0247564Y0115780D01*
X0247564Y0115847D01*
X0247547Y0115864D01*
X0247497Y0115864D01*
X0247497Y0115764D01*
X0247472Y0115814D02*
X0247405Y0115814D01*
X0247405Y0115830D02*
X0247405Y0115764D01*
X0247589Y0115764D02*
X0247656Y0115764D01*
X0247623Y0115764D02*
X0247623Y0115864D01*
X0247589Y0115830D01*
X0247681Y0115814D02*
X0247748Y0115814D01*
X0247774Y0115830D02*
X0247807Y0115864D01*
X0247807Y0115764D01*
X0247774Y0115764D02*
X0247840Y0115764D01*
X0247866Y0115780D02*
X0247882Y0115764D01*
X0247916Y0115764D01*
X0247932Y0115780D01*
X0247932Y0115797D01*
X0247916Y0115814D01*
X0247899Y0115814D01*
X0247916Y0115814D02*
X0247932Y0115830D01*
X0247932Y0115847D01*
X0247916Y0115864D01*
X0247882Y0115864D01*
X0247866Y0115847D01*
X0232499Y0115650D02*
X0232499Y0115634D01*
X0232483Y0115617D01*
X0232499Y0115600D01*
X0232499Y0115584D01*
X0232483Y0115567D01*
X0232449Y0115567D01*
X0232433Y0115584D01*
X0232407Y0115567D02*
X0232341Y0115567D01*
X0232374Y0115567D02*
X0232374Y0115667D01*
X0232341Y0115634D01*
X0232315Y0115617D02*
X0232248Y0115617D01*
X0232223Y0115567D02*
X0232156Y0115567D01*
X0232131Y0115584D02*
X0232131Y0115650D01*
X0232114Y0115667D01*
X0232064Y0115667D01*
X0232064Y0115567D01*
X0232114Y0115567D01*
X0232131Y0115584D01*
X0232156Y0115634D02*
X0232190Y0115667D01*
X0232190Y0115567D01*
X0232039Y0115567D02*
X0232039Y0115634D01*
X0232006Y0115667D01*
X0231972Y0115634D01*
X0231972Y0115567D01*
X0231972Y0115617D02*
X0232039Y0115617D01*
X0231947Y0115617D02*
X0231930Y0115600D01*
X0231880Y0115600D01*
X0231880Y0115567D02*
X0231880Y0115667D01*
X0231930Y0115667D01*
X0231947Y0115650D01*
X0231947Y0115617D01*
X0231855Y0115567D02*
X0231788Y0115567D01*
X0231763Y0115567D02*
X0231729Y0115600D01*
X0231746Y0115600D02*
X0231696Y0115600D01*
X0231696Y0115567D02*
X0231696Y0115667D01*
X0231746Y0115667D01*
X0231763Y0115650D01*
X0231763Y0115617D01*
X0231746Y0115600D01*
X0231788Y0115634D02*
X0231821Y0115667D01*
X0231821Y0115567D01*
X0231671Y0115667D02*
X0231604Y0115667D01*
X0231579Y0115650D02*
X0231579Y0115617D01*
X0231562Y0115600D01*
X0231512Y0115600D01*
X0231512Y0115567D02*
X0231512Y0115667D01*
X0231562Y0115667D01*
X0231579Y0115650D01*
X0231637Y0115667D02*
X0231637Y0115567D01*
X0232433Y0115650D02*
X0232449Y0115667D01*
X0232483Y0115667D01*
X0232499Y0115650D01*
X0232483Y0115617D02*
X0232466Y0115617D01*
X0218799Y0115600D02*
X0218799Y0115584D01*
X0218782Y0115567D01*
X0218748Y0115567D01*
X0218732Y0115584D01*
X0218706Y0115567D02*
X0218640Y0115567D01*
X0218673Y0115567D02*
X0218673Y0115667D01*
X0218640Y0115634D01*
X0218614Y0115617D02*
X0218548Y0115617D01*
X0218522Y0115567D02*
X0218456Y0115567D01*
X0218430Y0115584D02*
X0218430Y0115650D01*
X0218414Y0115667D01*
X0218363Y0115667D01*
X0218363Y0115567D01*
X0218414Y0115567D01*
X0218430Y0115584D01*
X0218456Y0115634D02*
X0218489Y0115667D01*
X0218489Y0115567D01*
X0218338Y0115567D02*
X0218338Y0115634D01*
X0218305Y0115667D01*
X0218271Y0115634D01*
X0218271Y0115567D01*
X0218271Y0115617D02*
X0218338Y0115617D01*
X0218246Y0115617D02*
X0218229Y0115600D01*
X0218179Y0115600D01*
X0218179Y0115567D02*
X0218179Y0115667D01*
X0218229Y0115667D01*
X0218246Y0115650D01*
X0218246Y0115617D01*
X0218154Y0115567D02*
X0218087Y0115567D01*
X0218062Y0115567D02*
X0218029Y0115600D01*
X0218045Y0115600D02*
X0217995Y0115600D01*
X0217995Y0115567D02*
X0217995Y0115667D01*
X0218045Y0115667D01*
X0218062Y0115650D01*
X0218062Y0115617D01*
X0218045Y0115600D01*
X0218087Y0115634D02*
X0218121Y0115667D01*
X0218121Y0115567D01*
X0217970Y0115667D02*
X0217903Y0115667D01*
X0217878Y0115650D02*
X0217878Y0115617D01*
X0217861Y0115600D01*
X0217811Y0115600D01*
X0217811Y0115567D02*
X0217811Y0115667D01*
X0217861Y0115667D01*
X0217878Y0115650D01*
X0217936Y0115667D02*
X0217936Y0115567D01*
X0218732Y0115650D02*
X0218748Y0115667D01*
X0218782Y0115667D01*
X0218799Y0115650D01*
X0218799Y0115634D01*
X0218782Y0115617D01*
X0218799Y0115600D01*
X0218782Y0115617D02*
X0218765Y0115617D01*
X0299082Y0186569D02*
X0299082Y0186669D01*
X0299132Y0186669D01*
X0299148Y0186653D01*
X0299148Y0186619D01*
X0299132Y0186603D01*
X0299082Y0186603D01*
X0299174Y0186669D02*
X0299240Y0186669D01*
X0299266Y0186669D02*
X0299316Y0186669D01*
X0299333Y0186653D01*
X0299333Y0186619D01*
X0299316Y0186603D01*
X0299266Y0186603D01*
X0299299Y0186603D02*
X0299333Y0186569D01*
X0299358Y0186569D02*
X0299425Y0186569D01*
X0299450Y0186569D02*
X0299450Y0186669D01*
X0299500Y0186669D01*
X0299517Y0186653D01*
X0299517Y0186619D01*
X0299500Y0186603D01*
X0299450Y0186603D01*
X0299391Y0186569D02*
X0299391Y0186669D01*
X0299358Y0186636D01*
X0299266Y0186669D02*
X0299266Y0186569D01*
X0299207Y0186569D02*
X0299207Y0186669D01*
X0299542Y0186636D02*
X0299575Y0186669D01*
X0299609Y0186636D01*
X0299609Y0186569D01*
X0299634Y0186569D02*
X0299684Y0186569D01*
X0299701Y0186586D01*
X0299701Y0186653D01*
X0299684Y0186669D01*
X0299634Y0186669D01*
X0299634Y0186569D01*
X0299609Y0186619D02*
X0299542Y0186619D01*
X0299542Y0186636D02*
X0299542Y0186569D01*
X0299726Y0186569D02*
X0299793Y0186569D01*
X0299760Y0186569D02*
X0299760Y0186669D01*
X0299726Y0186636D01*
X0299818Y0186619D02*
X0299885Y0186619D01*
X0299910Y0186636D02*
X0299944Y0186669D01*
X0299944Y0186569D01*
X0299977Y0186569D02*
X0299910Y0186569D01*
X0300002Y0186586D02*
X0300019Y0186569D01*
X0300052Y0186569D01*
X0300069Y0186586D01*
X0300069Y0186603D01*
X0300052Y0186619D01*
X0300036Y0186619D01*
X0300052Y0186619D02*
X0300069Y0186636D01*
X0300069Y0186653D01*
X0300052Y0186669D01*
X0300019Y0186669D01*
X0300002Y0186653D01*
X0322631Y0218536D02*
X0323731Y0218536D01*
X0323731Y0222436D01*
X0322631Y0222436D01*
X0322631Y0218536D01*
X0324631Y0218536D02*
X0325731Y0218536D01*
X0325731Y0222436D01*
X0325231Y0222436D01*
X0320231Y0227436D01*
X0320231Y0227936D01*
X0316331Y0227936D01*
X0316331Y0226836D01*
X0320231Y0226836D01*
X0320231Y0227436D01*
X0320231Y0228836D02*
X0316331Y0228836D01*
X0316331Y0229836D01*
X0320231Y0229836D01*
X0320231Y0228836D01*
X0320231Y0230736D02*
X0316331Y0230736D01*
X0316331Y0231836D01*
X0320231Y0231836D01*
X0320231Y0230736D01*
X0320231Y0232736D02*
X0316331Y0232736D01*
X0316331Y0233836D01*
X0320231Y0233836D01*
X0320231Y0232736D01*
X0320231Y0234736D02*
X0316331Y0234736D01*
X0316331Y0235736D01*
X0320231Y0235736D01*
X0320231Y0234736D01*
X0320231Y0236736D02*
X0316331Y0236736D01*
X0316331Y0237736D01*
X0320231Y0237736D01*
X0320231Y0236736D01*
X0320231Y0238636D02*
X0316331Y0238636D01*
X0316331Y0239736D01*
X0320231Y0239736D01*
X0320231Y0238636D01*
X0320231Y0240636D02*
X0316331Y0240636D01*
X0316331Y0241736D01*
X0320231Y0241736D01*
X0320231Y0240636D01*
X0320231Y0242636D02*
X0316331Y0242636D01*
X0316331Y0243636D01*
X0320231Y0243636D01*
X0320231Y0242636D01*
X0320231Y0244536D02*
X0316331Y0244536D01*
X0316331Y0245636D01*
X0320231Y0245636D01*
X0320231Y0244536D01*
X0320231Y0246536D02*
X0316331Y0246536D01*
X0316331Y0247636D01*
X0320231Y0247636D01*
X0320231Y0246536D01*
X0320231Y0250036D02*
X0320231Y0222436D01*
X0347831Y0222436D01*
X0347831Y0250036D01*
X0320231Y0250036D01*
X0322631Y0250036D02*
X0322631Y0253936D01*
X0323731Y0253936D01*
X0323731Y0250036D01*
X0322631Y0250036D01*
X0324631Y0250036D02*
X0324631Y0253936D01*
X0325731Y0253936D01*
X0325731Y0250036D01*
X0324631Y0250036D01*
X0326631Y0250036D02*
X0326631Y0253936D01*
X0327631Y0253936D01*
X0327631Y0250036D01*
X0326631Y0250036D01*
X0328531Y0250036D02*
X0328531Y0253936D01*
X0329631Y0253936D01*
X0329631Y0250036D01*
X0328531Y0250036D01*
X0330531Y0250036D02*
X0330531Y0253936D01*
X0331631Y0253936D01*
X0331631Y0250036D01*
X0330531Y0250036D01*
X0332531Y0250036D02*
X0332531Y0253936D01*
X0333531Y0253936D01*
X0333531Y0250036D01*
X0332531Y0250036D01*
X0334531Y0250036D02*
X0334531Y0253936D01*
X0335531Y0253936D01*
X0335531Y0250036D01*
X0334531Y0250036D01*
X0336431Y0250036D02*
X0336431Y0253936D01*
X0337531Y0253936D01*
X0337531Y0250036D01*
X0336431Y0250036D01*
X0338431Y0250036D02*
X0338431Y0253936D01*
X0339531Y0253936D01*
X0339531Y0250036D01*
X0338431Y0250036D01*
X0340431Y0250036D02*
X0340431Y0253936D01*
X0341431Y0253936D01*
X0341431Y0250036D01*
X0340431Y0250036D01*
X0342331Y0250036D02*
X0342331Y0253936D01*
X0343431Y0253936D01*
X0343431Y0250036D01*
X0342331Y0250036D01*
X0344331Y0250036D02*
X0344331Y0253936D01*
X0345431Y0253936D01*
X0345431Y0250036D01*
X0344331Y0250036D01*
X0347831Y0247636D02*
X0351731Y0247636D01*
X0351731Y0246536D01*
X0347831Y0246536D01*
X0347831Y0247636D01*
X0347831Y0245636D02*
X0351731Y0245636D01*
X0351731Y0244536D01*
X0347831Y0244536D01*
X0347831Y0245636D01*
X0347831Y0243636D02*
X0351731Y0243636D01*
X0351731Y0242636D01*
X0347831Y0242636D01*
X0347831Y0243636D01*
X0347831Y0241736D02*
X0351731Y0241736D01*
X0351731Y0240636D01*
X0347831Y0240636D01*
X0347831Y0241736D01*
X0347831Y0239736D02*
X0351731Y0239736D01*
X0351731Y0238636D01*
X0347831Y0238636D01*
X0347831Y0239736D01*
X0347831Y0237736D02*
X0351731Y0237736D01*
X0351731Y0236736D01*
X0347831Y0236736D01*
X0347831Y0237736D01*
X0347831Y0235736D02*
X0351731Y0235736D01*
X0351731Y0234736D01*
X0347831Y0234736D01*
X0347831Y0235736D01*
X0347831Y0233836D02*
X0351731Y0233836D01*
X0351731Y0232736D01*
X0347831Y0232736D01*
X0347831Y0233836D01*
X0347831Y0231836D02*
X0351731Y0231836D01*
X0351731Y0230736D01*
X0347831Y0230736D01*
X0347831Y0231836D01*
X0347831Y0229836D02*
X0351731Y0229836D01*
X0351731Y0228836D01*
X0347831Y0228836D01*
X0347831Y0229836D01*
X0347831Y0227936D02*
X0351731Y0227936D01*
X0351731Y0226836D01*
X0347831Y0226836D01*
X0347831Y0227936D01*
X0347831Y0225936D02*
X0351731Y0225936D01*
X0351731Y0224836D01*
X0347831Y0224836D01*
X0347831Y0225936D01*
X0345431Y0222436D02*
X0345431Y0218536D01*
X0344331Y0218536D01*
X0344331Y0222436D01*
X0345431Y0222436D01*
X0343431Y0222436D02*
X0343431Y0218536D01*
X0342331Y0218536D01*
X0342331Y0222436D01*
X0343431Y0222436D01*
X0341431Y0222436D02*
X0341431Y0218536D01*
X0340431Y0218536D01*
X0340431Y0222436D01*
X0341431Y0222436D01*
X0339531Y0222436D02*
X0339531Y0218536D01*
X0338431Y0218536D01*
X0338431Y0222436D01*
X0339531Y0222436D01*
X0337531Y0222436D02*
X0337531Y0218536D01*
X0336431Y0218536D01*
X0336431Y0222436D01*
X0337531Y0222436D01*
X0335531Y0222436D02*
X0335531Y0218536D01*
X0334531Y0218536D01*
X0334531Y0222436D01*
X0335531Y0222436D01*
X0333531Y0222436D02*
X0333531Y0218536D01*
X0332531Y0218536D01*
X0332531Y0222436D01*
X0333531Y0222436D01*
X0331631Y0222436D02*
X0331631Y0218536D01*
X0330531Y0218536D01*
X0330531Y0222436D01*
X0331631Y0222436D01*
X0329631Y0222436D02*
X0329631Y0218536D01*
X0328531Y0218536D01*
X0328531Y0222436D01*
X0329631Y0222436D01*
X0327631Y0222436D02*
X0327631Y0218536D01*
X0326631Y0218536D01*
X0326631Y0222436D01*
X0327631Y0222436D01*
X0325231Y0222436D02*
X0324631Y0222436D01*
X0324631Y0218536D01*
X0320231Y0224836D02*
X0316331Y0224836D01*
X0316331Y0225936D01*
X0320231Y0225936D01*
X0320231Y0224836D01*
X0404031Y0253559D02*
X0404031Y0253659D01*
X0404082Y0253659D01*
X0404098Y0253642D01*
X0404098Y0253609D01*
X0404082Y0253592D01*
X0404031Y0253592D01*
X0404124Y0253659D02*
X0404190Y0253659D01*
X0404216Y0253659D02*
X0404266Y0253659D01*
X0404282Y0253642D01*
X0404282Y0253609D01*
X0404266Y0253592D01*
X0404216Y0253592D01*
X0404216Y0253559D02*
X0404216Y0253659D01*
X0404157Y0253659D02*
X0404157Y0253559D01*
X0404249Y0253592D02*
X0404282Y0253559D01*
X0404308Y0253559D02*
X0404374Y0253559D01*
X0404400Y0253559D02*
X0404400Y0253659D01*
X0404450Y0253659D01*
X0404467Y0253642D01*
X0404467Y0253609D01*
X0404450Y0253592D01*
X0404400Y0253592D01*
X0404341Y0253559D02*
X0404341Y0253659D01*
X0404308Y0253626D01*
X0404492Y0253626D02*
X0404525Y0253659D01*
X0404559Y0253626D01*
X0404559Y0253559D01*
X0404584Y0253559D02*
X0404634Y0253559D01*
X0404651Y0253576D01*
X0404651Y0253642D01*
X0404634Y0253659D01*
X0404584Y0253659D01*
X0404584Y0253559D01*
X0404559Y0253609D02*
X0404492Y0253609D01*
X0404492Y0253626D02*
X0404492Y0253559D01*
X0404676Y0253559D02*
X0404743Y0253559D01*
X0404709Y0253559D02*
X0404709Y0253659D01*
X0404676Y0253626D01*
X0404768Y0253609D02*
X0404835Y0253609D01*
X0404860Y0253626D02*
X0404894Y0253659D01*
X0404894Y0253559D01*
X0404927Y0253559D02*
X0404860Y0253559D01*
X0404952Y0253576D02*
X0404969Y0253559D01*
X0405002Y0253559D01*
X0405019Y0253576D01*
X0405019Y0253592D01*
X0405002Y0253609D01*
X0404986Y0253609D01*
X0405002Y0253609D02*
X0405019Y0253626D01*
X0405019Y0253642D01*
X0405002Y0253659D01*
X0404969Y0253659D01*
X0404952Y0253642D01*
X0426315Y0260449D02*
X0426315Y0260549D01*
X0426365Y0260549D01*
X0426382Y0260532D01*
X0426382Y0260499D01*
X0426365Y0260482D01*
X0426315Y0260482D01*
X0426407Y0260549D02*
X0426474Y0260549D01*
X0426499Y0260549D02*
X0426549Y0260549D01*
X0426566Y0260532D01*
X0426566Y0260499D01*
X0426549Y0260482D01*
X0426499Y0260482D01*
X0426499Y0260449D02*
X0426499Y0260549D01*
X0426440Y0260549D02*
X0426440Y0260449D01*
X0426532Y0260482D02*
X0426566Y0260449D01*
X0426591Y0260449D02*
X0426658Y0260449D01*
X0426683Y0260449D02*
X0426683Y0260549D01*
X0426733Y0260549D01*
X0426750Y0260532D01*
X0426750Y0260499D01*
X0426733Y0260482D01*
X0426683Y0260482D01*
X0426625Y0260449D02*
X0426625Y0260549D01*
X0426591Y0260516D01*
X0426775Y0260516D02*
X0426809Y0260549D01*
X0426842Y0260516D01*
X0426842Y0260449D01*
X0426867Y0260449D02*
X0426917Y0260449D01*
X0426934Y0260465D01*
X0426934Y0260532D01*
X0426917Y0260549D01*
X0426867Y0260549D01*
X0426867Y0260449D01*
X0426842Y0260499D02*
X0426775Y0260499D01*
X0426775Y0260516D02*
X0426775Y0260449D01*
X0426959Y0260449D02*
X0427026Y0260449D01*
X0426993Y0260449D02*
X0426993Y0260549D01*
X0426959Y0260516D01*
X0427052Y0260499D02*
X0427118Y0260499D01*
X0427144Y0260516D02*
X0427177Y0260549D01*
X0427177Y0260449D01*
X0427144Y0260449D02*
X0427210Y0260449D01*
X0427236Y0260465D02*
X0427252Y0260449D01*
X0427286Y0260449D01*
X0427302Y0260465D01*
X0427302Y0260482D01*
X0427286Y0260499D01*
X0427269Y0260499D01*
X0427286Y0260499D02*
X0427302Y0260516D01*
X0427302Y0260532D01*
X0427286Y0260549D01*
X0427252Y0260549D01*
X0427236Y0260532D01*
X0427206Y0247163D02*
X0427222Y0247146D01*
X0427222Y0247113D01*
X0427206Y0247096D01*
X0427156Y0247096D01*
X0427156Y0247063D02*
X0427156Y0247163D01*
X0427206Y0247163D01*
X0427248Y0247130D02*
X0427281Y0247163D01*
X0427315Y0247130D01*
X0427315Y0247063D01*
X0427340Y0247063D02*
X0427390Y0247063D01*
X0427407Y0247080D01*
X0427407Y0247146D01*
X0427390Y0247163D01*
X0427340Y0247163D01*
X0427340Y0247063D01*
X0427315Y0247113D02*
X0427248Y0247113D01*
X0427248Y0247130D02*
X0427248Y0247063D01*
X0427130Y0247063D02*
X0427064Y0247063D01*
X0427038Y0247063D02*
X0427005Y0247096D01*
X0427022Y0247096D02*
X0426972Y0247096D01*
X0426972Y0247063D02*
X0426972Y0247163D01*
X0427022Y0247163D01*
X0427038Y0247146D01*
X0427038Y0247113D01*
X0427022Y0247096D01*
X0427064Y0247130D02*
X0427097Y0247163D01*
X0427097Y0247063D01*
X0426946Y0247163D02*
X0426879Y0247163D01*
X0426854Y0247146D02*
X0426854Y0247113D01*
X0426837Y0247096D01*
X0426787Y0247096D01*
X0426787Y0247063D02*
X0426787Y0247163D01*
X0426837Y0247163D01*
X0426854Y0247146D01*
X0426913Y0247163D02*
X0426913Y0247063D01*
X0427432Y0247063D02*
X0427499Y0247063D01*
X0427465Y0247063D02*
X0427465Y0247163D01*
X0427432Y0247130D01*
X0427524Y0247113D02*
X0427591Y0247113D01*
X0427616Y0247130D02*
X0427649Y0247163D01*
X0427649Y0247063D01*
X0427616Y0247063D02*
X0427683Y0247063D01*
X0427708Y0247080D02*
X0427725Y0247063D01*
X0427758Y0247063D01*
X0427775Y0247080D01*
X0427775Y0247096D01*
X0427758Y0247113D01*
X0427742Y0247113D01*
X0427758Y0247113D02*
X0427775Y0247130D01*
X0427775Y0247146D01*
X0427758Y0247163D01*
X0427725Y0247163D01*
X0427708Y0247146D01*
X0410728Y0240060D02*
X0410728Y0240043D01*
X0410711Y0240026D01*
X0410728Y0240010D01*
X0410728Y0239993D01*
X0410711Y0239976D01*
X0410678Y0239976D01*
X0410661Y0239993D01*
X0410636Y0239976D02*
X0410569Y0239976D01*
X0410602Y0239976D02*
X0410602Y0240076D01*
X0410569Y0240043D01*
X0410543Y0240026D02*
X0410477Y0240026D01*
X0410451Y0239976D02*
X0410385Y0239976D01*
X0410359Y0239993D02*
X0410359Y0240060D01*
X0410343Y0240076D01*
X0410293Y0240076D01*
X0410293Y0239976D01*
X0410343Y0239976D01*
X0410359Y0239993D01*
X0410385Y0240043D02*
X0410418Y0240076D01*
X0410418Y0239976D01*
X0410267Y0239976D02*
X0410267Y0240043D01*
X0410234Y0240076D01*
X0410201Y0240043D01*
X0410201Y0239976D01*
X0410201Y0240026D02*
X0410267Y0240026D01*
X0410175Y0240026D02*
X0410159Y0240010D01*
X0410108Y0240010D01*
X0410108Y0239976D02*
X0410108Y0240076D01*
X0410159Y0240076D01*
X0410175Y0240060D01*
X0410175Y0240026D01*
X0410083Y0239976D02*
X0410016Y0239976D01*
X0409991Y0239976D02*
X0409958Y0240010D01*
X0409974Y0240010D02*
X0409924Y0240010D01*
X0409924Y0239976D02*
X0409924Y0240076D01*
X0409974Y0240076D01*
X0409991Y0240060D01*
X0409991Y0240026D01*
X0409974Y0240010D01*
X0410016Y0240043D02*
X0410050Y0240076D01*
X0410050Y0239976D01*
X0409899Y0240076D02*
X0409832Y0240076D01*
X0409807Y0240060D02*
X0409807Y0240026D01*
X0409790Y0240010D01*
X0409740Y0240010D01*
X0409740Y0239976D02*
X0409740Y0240076D01*
X0409790Y0240076D01*
X0409807Y0240060D01*
X0409866Y0240076D02*
X0409866Y0239976D01*
X0410661Y0240060D02*
X0410678Y0240076D01*
X0410711Y0240076D01*
X0410728Y0240060D01*
X0410711Y0240026D02*
X0410694Y0240026D01*
X0406971Y0187321D02*
X0406987Y0187304D01*
X0406987Y0187287D01*
X0406971Y0187271D01*
X0406987Y0187254D01*
X0406987Y0187237D01*
X0406971Y0187220D01*
X0406937Y0187220D01*
X0406921Y0187237D01*
X0406895Y0187220D02*
X0406829Y0187220D01*
X0406862Y0187220D02*
X0406862Y0187321D01*
X0406829Y0187287D01*
X0406803Y0187271D02*
X0406737Y0187271D01*
X0406711Y0187220D02*
X0406645Y0187220D01*
X0406619Y0187237D02*
X0406619Y0187304D01*
X0406602Y0187321D01*
X0406552Y0187321D01*
X0406552Y0187220D01*
X0406602Y0187220D01*
X0406619Y0187237D01*
X0406645Y0187287D02*
X0406678Y0187321D01*
X0406678Y0187220D01*
X0406527Y0187220D02*
X0406527Y0187287D01*
X0406494Y0187321D01*
X0406460Y0187287D01*
X0406460Y0187220D01*
X0406460Y0187271D02*
X0406527Y0187271D01*
X0406435Y0187271D02*
X0406418Y0187254D01*
X0406368Y0187254D01*
X0406368Y0187220D02*
X0406368Y0187321D01*
X0406418Y0187321D01*
X0406435Y0187304D01*
X0406435Y0187271D01*
X0406343Y0187220D02*
X0406276Y0187220D01*
X0406251Y0187220D02*
X0406218Y0187254D01*
X0406234Y0187254D02*
X0406184Y0187254D01*
X0406184Y0187220D02*
X0406184Y0187321D01*
X0406234Y0187321D01*
X0406251Y0187304D01*
X0406251Y0187271D01*
X0406234Y0187254D01*
X0406276Y0187287D02*
X0406310Y0187321D01*
X0406310Y0187220D01*
X0406159Y0187321D02*
X0406092Y0187321D01*
X0406067Y0187304D02*
X0406067Y0187271D01*
X0406050Y0187254D01*
X0406000Y0187254D01*
X0406000Y0187220D02*
X0406000Y0187321D01*
X0406050Y0187321D01*
X0406067Y0187304D01*
X0406125Y0187321D02*
X0406125Y0187220D01*
X0406921Y0187304D02*
X0406937Y0187321D01*
X0406971Y0187321D01*
X0406971Y0187271D02*
X0406954Y0187271D01*
X0494976Y0227378D02*
X0494976Y0227478D01*
X0495026Y0227478D01*
X0495043Y0227461D01*
X0495043Y0227428D01*
X0495026Y0227411D01*
X0494976Y0227411D01*
X0495068Y0227478D02*
X0495135Y0227478D01*
X0495161Y0227478D02*
X0495211Y0227478D01*
X0495227Y0227461D01*
X0495227Y0227428D01*
X0495211Y0227411D01*
X0495161Y0227411D01*
X0495194Y0227411D02*
X0495227Y0227378D01*
X0495253Y0227378D02*
X0495319Y0227378D01*
X0495345Y0227378D02*
X0495345Y0227478D01*
X0495395Y0227478D01*
X0495411Y0227461D01*
X0495411Y0227428D01*
X0495395Y0227411D01*
X0495345Y0227411D01*
X0495286Y0227378D02*
X0495286Y0227478D01*
X0495253Y0227445D01*
X0495161Y0227478D02*
X0495161Y0227378D01*
X0495102Y0227378D02*
X0495102Y0227478D01*
X0495437Y0227445D02*
X0495470Y0227478D01*
X0495503Y0227445D01*
X0495503Y0227378D01*
X0495529Y0227378D02*
X0495579Y0227378D01*
X0495596Y0227395D01*
X0495596Y0227461D01*
X0495579Y0227478D01*
X0495529Y0227478D01*
X0495529Y0227378D01*
X0495503Y0227428D02*
X0495437Y0227428D01*
X0495437Y0227445D02*
X0495437Y0227378D01*
X0495621Y0227378D02*
X0495688Y0227378D01*
X0495654Y0227378D02*
X0495654Y0227478D01*
X0495621Y0227445D01*
X0495713Y0227428D02*
X0495780Y0227428D01*
X0495805Y0227445D02*
X0495838Y0227478D01*
X0495838Y0227378D01*
X0495805Y0227378D02*
X0495872Y0227378D01*
X0495897Y0227395D02*
X0495914Y0227378D01*
X0495947Y0227378D01*
X0495964Y0227395D01*
X0495964Y0227411D01*
X0495947Y0227428D01*
X0495930Y0227428D01*
X0495947Y0227428D02*
X0495964Y0227445D01*
X0495964Y0227461D01*
X0495947Y0227478D01*
X0495914Y0227478D01*
X0495897Y0227461D01*
X0522670Y0195030D02*
X0522687Y0195030D01*
X0522704Y0195013D01*
X0522720Y0195030D01*
X0522737Y0195030D01*
X0522754Y0195013D01*
X0522754Y0194980D01*
X0522737Y0194963D01*
X0522754Y0194938D02*
X0522754Y0194871D01*
X0522754Y0194904D02*
X0522653Y0194904D01*
X0522687Y0194871D01*
X0522704Y0194846D02*
X0522704Y0194779D01*
X0522754Y0194754D02*
X0522754Y0194687D01*
X0522737Y0194661D02*
X0522670Y0194661D01*
X0522653Y0194645D01*
X0522653Y0194595D01*
X0522754Y0194595D01*
X0522754Y0194645D01*
X0522737Y0194661D01*
X0522687Y0194687D02*
X0522653Y0194720D01*
X0522754Y0194720D01*
X0522754Y0194569D02*
X0522687Y0194569D01*
X0522653Y0194536D01*
X0522687Y0194503D01*
X0522754Y0194503D01*
X0522704Y0194503D02*
X0522704Y0194569D01*
X0522704Y0194477D02*
X0522720Y0194461D01*
X0522720Y0194411D01*
X0522754Y0194411D02*
X0522653Y0194411D01*
X0522653Y0194461D01*
X0522670Y0194477D01*
X0522704Y0194477D01*
X0522754Y0194385D02*
X0522754Y0194318D01*
X0522754Y0194293D02*
X0522720Y0194260D01*
X0522720Y0194276D02*
X0522720Y0194226D01*
X0522754Y0194226D02*
X0522653Y0194226D01*
X0522653Y0194276D01*
X0522670Y0194293D01*
X0522704Y0194293D01*
X0522720Y0194276D01*
X0522687Y0194318D02*
X0522653Y0194352D01*
X0522754Y0194352D01*
X0522653Y0194201D02*
X0522653Y0194134D01*
X0522670Y0194109D02*
X0522704Y0194109D01*
X0522720Y0194092D01*
X0522720Y0194042D01*
X0522754Y0194042D02*
X0522653Y0194042D01*
X0522653Y0194092D01*
X0522670Y0194109D01*
X0522653Y0194168D02*
X0522754Y0194168D01*
X0522670Y0194963D02*
X0522653Y0194980D01*
X0522653Y0195013D01*
X0522670Y0195030D01*
X0522704Y0195013D02*
X0522704Y0194996D01*
X0515680Y0141569D02*
X0515680Y0121769D01*
X0522280Y0121769D01*
X0524680Y0121769D01*
X0531280Y0121769D01*
X0531280Y0141569D01*
X0515680Y0141569D01*
X0515680Y0140169D02*
X0511280Y0140169D01*
X0511280Y0138169D01*
X0515680Y0138169D01*
X0515680Y0140169D01*
X0515680Y0135169D02*
X0511280Y0135169D01*
X0511280Y0133169D01*
X0515680Y0133169D01*
X0515680Y0135169D01*
X0515680Y0130169D02*
X0511280Y0130169D01*
X0511280Y0128169D01*
X0515680Y0128169D01*
X0515680Y0130169D01*
X0515680Y0125169D02*
X0511280Y0125169D01*
X0511280Y0123169D01*
X0515680Y0123169D01*
X0515680Y0125169D01*
X0522280Y0121769D02*
X0522282Y0121838D01*
X0522288Y0121906D01*
X0522298Y0121974D01*
X0522311Y0122041D01*
X0522329Y0122107D01*
X0522350Y0122172D01*
X0522375Y0122236D01*
X0522403Y0122298D01*
X0522435Y0122359D01*
X0522470Y0122418D01*
X0522509Y0122474D01*
X0522551Y0122529D01*
X0522596Y0122580D01*
X0522644Y0122630D01*
X0522694Y0122676D01*
X0522747Y0122719D01*
X0522803Y0122760D01*
X0522860Y0122797D01*
X0522920Y0122830D01*
X0522982Y0122861D01*
X0523045Y0122887D01*
X0523109Y0122910D01*
X0523175Y0122930D01*
X0523242Y0122945D01*
X0523309Y0122957D01*
X0523377Y0122965D01*
X0523446Y0122969D01*
X0523514Y0122969D01*
X0523583Y0122965D01*
X0523651Y0122957D01*
X0523718Y0122945D01*
X0523785Y0122930D01*
X0523851Y0122910D01*
X0523915Y0122887D01*
X0523978Y0122861D01*
X0524040Y0122830D01*
X0524100Y0122797D01*
X0524157Y0122760D01*
X0524213Y0122719D01*
X0524266Y0122676D01*
X0524316Y0122630D01*
X0524364Y0122580D01*
X0524409Y0122529D01*
X0524451Y0122474D01*
X0524490Y0122418D01*
X0524525Y0122359D01*
X0524557Y0122298D01*
X0524585Y0122236D01*
X0524610Y0122172D01*
X0524631Y0122107D01*
X0524649Y0122041D01*
X0524662Y0121974D01*
X0524672Y0121906D01*
X0524678Y0121838D01*
X0524680Y0121769D01*
X0531280Y0123169D02*
X0535680Y0123169D01*
X0535680Y0125169D01*
X0531280Y0125169D01*
X0531280Y0123169D01*
X0531280Y0128169D02*
X0535680Y0128169D01*
X0535680Y0130169D01*
X0531280Y0130169D01*
X0531280Y0128169D01*
X0531280Y0133169D02*
X0535680Y0133169D01*
X0535680Y0135169D01*
X0531280Y0135169D01*
X0531280Y0133169D01*
X0531280Y0138169D02*
X0535680Y0138169D01*
X0535680Y0140169D01*
X0531280Y0140169D01*
X0531280Y0138169D01*
X0230452Y0232906D02*
X0230435Y0232890D01*
X0230402Y0232890D01*
X0230385Y0232906D01*
X0230360Y0232890D02*
X0230293Y0232890D01*
X0230327Y0232890D02*
X0230327Y0232990D01*
X0230293Y0232956D01*
X0230268Y0232940D02*
X0230201Y0232940D01*
X0230176Y0232890D02*
X0230109Y0232890D01*
X0230084Y0232906D02*
X0230084Y0232973D01*
X0230067Y0232990D01*
X0230017Y0232990D01*
X0230017Y0232890D01*
X0230067Y0232890D01*
X0230084Y0232906D01*
X0230109Y0232956D02*
X0230142Y0232990D01*
X0230142Y0232890D01*
X0229992Y0232890D02*
X0229992Y0232956D01*
X0229958Y0232990D01*
X0229925Y0232956D01*
X0229925Y0232890D01*
X0229925Y0232940D02*
X0229992Y0232940D01*
X0229900Y0232940D02*
X0229883Y0232923D01*
X0229833Y0232923D01*
X0229833Y0232890D02*
X0229833Y0232990D01*
X0229883Y0232990D01*
X0229900Y0232973D01*
X0229900Y0232940D01*
X0229808Y0232890D02*
X0229741Y0232890D01*
X0229715Y0232890D02*
X0229682Y0232923D01*
X0229699Y0232923D02*
X0229649Y0232923D01*
X0229649Y0232890D02*
X0229649Y0232990D01*
X0229699Y0232990D01*
X0229715Y0232973D01*
X0229715Y0232940D01*
X0229699Y0232923D01*
X0229741Y0232956D02*
X0229774Y0232990D01*
X0229774Y0232890D01*
X0229623Y0232990D02*
X0229557Y0232990D01*
X0229531Y0232973D02*
X0229531Y0232940D01*
X0229515Y0232923D01*
X0229465Y0232923D01*
X0229465Y0232890D02*
X0229465Y0232990D01*
X0229515Y0232990D01*
X0229531Y0232973D01*
X0229590Y0232990D02*
X0229590Y0232890D01*
X0230385Y0232973D02*
X0230402Y0232990D01*
X0230435Y0232990D01*
X0230452Y0232973D01*
X0230452Y0232956D01*
X0230435Y0232940D01*
X0230452Y0232923D01*
X0230452Y0232906D01*
X0230435Y0232940D02*
X0230419Y0232940D01*
D26*
X0255114Y0210488D03*
X0255114Y0206748D03*
X0255114Y0203008D03*
X0264366Y0203008D03*
X0264366Y0210488D03*
M02*
