G75*
%MOIN*%
%OFA0B0*%
%FSLAX25Y25*%
%IPPOS*%
%LPD*%
%AMOC8*
5,1,8,0,0,1.08239X$1,22.5*
%
%ADD10R,0.04331X0.03937*%
%ADD11R,0.03937X0.04331*%
%ADD12R,0.07900X0.05900*%
%ADD13R,0.07900X0.15000*%
%ADD14OC8,0.06000*%
%ADD15R,0.03937X0.18110*%
%ADD16R,0.06299X0.13386*%
%ADD17R,0.02362X0.08661*%
%ADD18C,0.07400*%
%ADD19OC8,0.07400*%
%ADD20R,0.05512X0.04331*%
%ADD21R,0.04331X0.05512*%
%ADD22C,0.06731*%
%ADD23OC8,0.08500*%
%ADD24R,0.13800X0.13800*%
%ADD25R,0.01100X0.05800*%
%ADD26R,0.05800X0.01100*%
%ADD27R,0.04724X0.02165*%
%ADD28R,0.07800X0.02100*%
%ADD29C,0.01200*%
%ADD30C,0.01600*%
%ADD31R,0.04362X0.04362*%
%ADD32C,0.01000*%
%ADD33C,0.03200*%
%ADD34C,0.04362*%
%ADD35C,0.05000*%
D10*
X0267811Y0137575D03*
X0274504Y0137575D03*
X0327181Y0190764D03*
X0333874Y0190764D03*
X0340764Y0190685D03*
X0347457Y0190685D03*
X0347339Y0201157D03*
X0340646Y0201157D03*
X0333953Y0201157D03*
X0327260Y0201157D03*
X0354622Y0218874D03*
X0361315Y0218874D03*
X0367850Y0218992D03*
X0374543Y0218992D03*
X0381709Y0207614D03*
X0388402Y0207614D03*
X0388677Y0192496D03*
X0381984Y0192496D03*
X0339110Y0268953D03*
X0332417Y0268953D03*
X0332299Y0277850D03*
X0338992Y0277850D03*
X0253047Y0218795D03*
X0246354Y0218795D03*
X0512417Y0147890D03*
X0519110Y0147890D03*
X0531709Y0152220D03*
X0538402Y0152220D03*
D11*
X0477024Y0197772D03*
X0485252Y0197850D03*
X0485252Y0204543D03*
X0477024Y0204465D03*
X0445646Y0229307D03*
X0437024Y0229228D03*
X0437024Y0235921D03*
X0445646Y0236000D03*
X0391472Y0238992D03*
X0382811Y0234268D03*
X0374386Y0234386D03*
X0374386Y0240094D03*
X0374386Y0246787D03*
X0374228Y0252378D03*
X0374228Y0259071D03*
X0389504Y0259661D03*
X0389504Y0252969D03*
X0391472Y0245685D03*
X0382811Y0227575D03*
X0374386Y0227693D03*
X0324701Y0261039D03*
X0324701Y0267732D03*
X0314661Y0267654D03*
X0314661Y0260961D03*
X0305843Y0239583D03*
X0305843Y0232890D03*
X0296157Y0232890D03*
X0296157Y0239583D03*
X0264543Y0249819D03*
X0264543Y0256512D03*
X0255528Y0276197D03*
X0255528Y0282890D03*
X0347772Y0283283D03*
X0347772Y0276591D03*
X0347693Y0270567D03*
X0347693Y0263874D03*
X0363835Y0292024D03*
X0363835Y0298717D03*
X0318441Y0211354D03*
X0318441Y0204661D03*
X0308953Y0204543D03*
X0308953Y0211236D03*
X0269386Y0167378D03*
X0269386Y0160685D03*
D12*
X0257416Y0155297D03*
X0257416Y0146297D03*
X0257416Y0137297D03*
X0255014Y0248399D03*
X0255014Y0257399D03*
X0255014Y0266399D03*
D13*
X0230214Y0257299D03*
X0232616Y0146197D03*
D14*
X0506591Y0208441D03*
X0516591Y0208441D03*
X0526591Y0208441D03*
X0526591Y0218441D03*
X0516591Y0218441D03*
X0506591Y0218441D03*
D15*
X0380843Y0135173D03*
X0372969Y0135173D03*
X0480331Y0134386D03*
X0488205Y0134386D03*
D16*
X0497654Y0113913D03*
X0470882Y0113913D03*
X0390291Y0114701D03*
X0363520Y0114701D03*
D17*
X0454917Y0206945D03*
X0459917Y0206945D03*
X0464917Y0206945D03*
X0469917Y0206945D03*
X0469917Y0227417D03*
X0464917Y0227417D03*
X0459917Y0227417D03*
X0454917Y0227417D03*
D18*
X0320000Y0306000D03*
X0310000Y0306000D03*
X0300000Y0306000D03*
X0290000Y0306000D03*
X0280000Y0306000D03*
X0270000Y0306000D03*
X0260000Y0306000D03*
X0250000Y0306000D03*
X0240000Y0306000D03*
X0230000Y0306000D03*
X0266000Y0116000D03*
X0276000Y0116000D03*
X0286000Y0116000D03*
X0296000Y0116000D03*
X0306000Y0116000D03*
X0316000Y0116000D03*
X0326000Y0116000D03*
X0336000Y0116000D03*
D19*
X0406000Y0206000D03*
X0416000Y0206000D03*
X0416000Y0216000D03*
X0406000Y0216000D03*
X0406000Y0226000D03*
X0416000Y0226000D03*
D20*
X0450449Y0255961D03*
X0450449Y0263835D03*
X0466000Y0263913D03*
X0466000Y0256039D03*
X0484307Y0264701D03*
X0484307Y0272575D03*
X0466394Y0281118D03*
X0466394Y0288992D03*
X0450449Y0288874D03*
X0450449Y0281000D03*
X0484228Y0292811D03*
X0484228Y0300685D03*
X0499543Y0301787D03*
X0499543Y0293913D03*
X0506827Y0246906D03*
X0506827Y0239031D03*
X0519346Y0239031D03*
X0519346Y0246906D03*
X0531079Y0246906D03*
X0531079Y0239031D03*
X0483520Y0242811D03*
X0483520Y0234937D03*
X0494386Y0187614D03*
X0494386Y0179740D03*
X0480016Y0179740D03*
X0480016Y0171866D03*
X0455764Y0171591D03*
X0455764Y0179465D03*
X0444661Y0179150D03*
X0444661Y0171276D03*
X0238480Y0203795D03*
X0238480Y0211669D03*
D21*
X0340685Y0297614D03*
X0348559Y0297614D03*
D22*
X0424661Y0140449D03*
X0424661Y0130449D03*
X0424661Y0120449D03*
X0444661Y0120449D03*
X0444661Y0130449D03*
X0444661Y0140449D03*
D23*
X0217811Y0115567D03*
X0231512Y0115567D03*
X0246945Y0115764D03*
X0300094Y0186669D03*
X0229465Y0232890D03*
X0404031Y0253559D03*
X0409740Y0239976D03*
X0426787Y0247063D03*
X0426315Y0260449D03*
X0494976Y0227378D03*
X0511630Y0194740D03*
X0522654Y0195055D03*
X0406000Y0187220D03*
D24*
X0334031Y0236236D03*
D25*
X0333031Y0220036D03*
X0331031Y0220036D03*
X0329131Y0220036D03*
X0327131Y0220036D03*
X0325131Y0220036D03*
X0323231Y0220036D03*
X0335031Y0220036D03*
X0337031Y0220036D03*
X0338931Y0220036D03*
X0340931Y0220036D03*
X0342931Y0220036D03*
X0344831Y0220036D03*
X0344831Y0252436D03*
X0342931Y0252436D03*
X0340931Y0252436D03*
X0338931Y0252436D03*
X0337031Y0252436D03*
X0335031Y0252436D03*
X0333031Y0252436D03*
X0331031Y0252436D03*
X0329131Y0252436D03*
X0327131Y0252436D03*
X0325131Y0252436D03*
X0323231Y0252436D03*
D26*
X0317831Y0247036D03*
X0317831Y0245136D03*
X0317831Y0243136D03*
X0317831Y0241136D03*
X0317831Y0239236D03*
X0317831Y0237236D03*
X0317831Y0235236D03*
X0317831Y0233236D03*
X0317831Y0231336D03*
X0317831Y0229336D03*
X0317831Y0227336D03*
X0317831Y0225436D03*
X0350231Y0225436D03*
X0350231Y0227336D03*
X0350231Y0229336D03*
X0350231Y0231336D03*
X0350231Y0233236D03*
X0350231Y0235236D03*
X0350231Y0237236D03*
X0350231Y0239236D03*
X0350231Y0241136D03*
X0350231Y0243136D03*
X0350231Y0245136D03*
X0350231Y0247036D03*
D27*
X0264858Y0210488D03*
X0254622Y0210488D03*
X0254622Y0206748D03*
X0254622Y0203008D03*
X0264858Y0203008D03*
D28*
X0513780Y0139169D03*
X0513780Y0134169D03*
X0513780Y0129169D03*
X0513780Y0124169D03*
X0533180Y0124169D03*
X0533180Y0129169D03*
X0533180Y0134169D03*
X0533180Y0139169D03*
D29*
X0480528Y0189976D02*
X0477024Y0193480D01*
X0477024Y0197772D01*
X0477102Y0197850D01*
X0485252Y0197850D01*
X0485252Y0204543D02*
X0477102Y0204543D01*
X0477024Y0204465D01*
X0454917Y0227417D02*
X0453028Y0229307D01*
X0445646Y0229307D01*
X0445567Y0229228D01*
X0437024Y0229228D01*
X0426984Y0235646D02*
X0426984Y0178953D01*
X0419898Y0171866D01*
X0289189Y0171866D01*
X0286039Y0168717D01*
X0297063Y0175016D02*
X0297850Y0175016D01*
X0351394Y0175016D01*
X0358480Y0182102D01*
X0358480Y0206512D01*
X0356512Y0208480D01*
X0346276Y0208480D01*
X0338931Y0215824D01*
X0338931Y0220036D01*
X0337031Y0220036D02*
X0337031Y0213787D01*
X0344307Y0206512D01*
X0350606Y0206512D01*
X0352181Y0204937D01*
X0352181Y0193126D01*
X0353756Y0191551D01*
X0354543Y0191551D01*
X0368717Y0191551D02*
X0381039Y0191551D01*
X0381984Y0192496D01*
X0381827Y0192339D01*
X0398638Y0194583D02*
X0406000Y0187220D01*
X0398638Y0194583D02*
X0398638Y0208087D01*
X0406000Y0215449D01*
X0406000Y0216000D01*
X0416000Y0216000D02*
X0423047Y0223047D01*
X0423047Y0230134D01*
X0413205Y0239976D01*
X0409740Y0239976D01*
X0404031Y0227969D02*
X0406000Y0226000D01*
X0404031Y0227969D02*
X0404031Y0253559D01*
X0389504Y0259661D02*
X0383677Y0259661D01*
X0379740Y0263598D01*
X0371866Y0263598D01*
X0369898Y0261630D01*
X0369898Y0252575D01*
X0370291Y0252181D01*
X0374031Y0252181D01*
X0374228Y0252378D01*
X0373638Y0251787D01*
X0370291Y0252181D02*
X0369504Y0252181D01*
X0367929Y0250606D01*
X0367929Y0239976D01*
X0365189Y0237236D01*
X0350231Y0237236D01*
X0350247Y0235252D02*
X0350231Y0235236D01*
X0350247Y0235252D02*
X0365961Y0235252D01*
X0370291Y0239583D01*
X0370291Y0242339D01*
X0374386Y0246433D01*
X0374386Y0246787D01*
X0365961Y0241945D02*
X0363252Y0239236D01*
X0350231Y0239236D01*
X0350231Y0241136D02*
X0361215Y0241136D01*
X0363992Y0243913D01*
X0363992Y0273441D01*
X0397063Y0306512D01*
X0490764Y0306512D01*
X0492339Y0304937D01*
X0492339Y0301118D01*
X0485331Y0294110D01*
X0485331Y0293913D01*
X0484228Y0292811D02*
X0484228Y0272654D01*
X0466394Y0288992D02*
X0466354Y0289031D01*
X0466354Y0296276D01*
X0475016Y0297063D02*
X0475016Y0249819D01*
X0474228Y0249031D01*
X0454543Y0247457D02*
X0438795Y0247457D01*
X0426984Y0235646D01*
X0389976Y0224622D02*
X0387614Y0222260D01*
X0379740Y0222260D01*
X0376472Y0218992D01*
X0374543Y0218992D01*
X0373441Y0220094D01*
X0373441Y0223047D01*
X0372654Y0223835D01*
X0363992Y0223835D01*
X0367850Y0218992D02*
X0367850Y0218244D01*
X0366748Y0217142D01*
X0363992Y0214386D01*
X0356118Y0214386D01*
X0354150Y0216354D01*
X0354150Y0218402D01*
X0354622Y0218874D01*
X0354150Y0219346D01*
X0354150Y0224228D01*
X0352942Y0225436D01*
X0350231Y0225436D01*
X0344831Y0220036D02*
X0344831Y0217798D01*
X0350213Y0212417D01*
X0364386Y0212417D01*
X0368717Y0208087D01*
X0381236Y0208087D01*
X0381709Y0207614D01*
X0369131Y0231336D02*
X0350231Y0231336D01*
X0335031Y0236260D02*
X0334055Y0236260D01*
X0334031Y0236236D01*
X0335031Y0236260D02*
X0335031Y0220036D01*
X0333031Y0220036D02*
X0333031Y0209913D01*
X0340646Y0202299D01*
X0340646Y0201157D01*
X0340764Y0201039D01*
X0329131Y0207084D02*
X0329131Y0220036D01*
X0325131Y0220036D02*
X0325131Y0214502D01*
X0321866Y0211236D01*
X0318559Y0211236D01*
X0318441Y0211354D01*
X0312811Y0215961D02*
X0299425Y0215961D01*
X0298638Y0218323D02*
X0293913Y0213598D01*
X0287614Y0213598D01*
X0274228Y0226984D01*
X0262417Y0226984D01*
X0256433Y0218795D02*
X0260055Y0215173D01*
X0260055Y0207299D01*
X0259268Y0206512D01*
X0254858Y0206512D01*
X0254622Y0206748D01*
X0254622Y0203008D02*
X0239268Y0203008D01*
X0238480Y0203795D01*
X0238480Y0211669D02*
X0245606Y0218795D01*
X0246354Y0218795D01*
X0253047Y0218795D02*
X0256433Y0218795D01*
X0264858Y0210488D02*
X0274189Y0210488D01*
X0278165Y0206512D01*
X0278165Y0193913D01*
X0297063Y0175016D01*
X0327181Y0201079D02*
X0327260Y0201157D01*
X0327260Y0205213D01*
X0329131Y0207084D01*
X0323231Y0220036D02*
X0316887Y0220036D01*
X0312811Y0215961D01*
X0310449Y0218323D02*
X0298638Y0218323D01*
X0301118Y0211354D02*
X0302457Y0211354D01*
X0302575Y0211236D01*
X0308953Y0211236D01*
X0309071Y0211354D01*
X0302575Y0211354D02*
X0302575Y0211236D01*
X0301118Y0211354D02*
X0300213Y0210449D01*
X0310449Y0218323D02*
X0317562Y0225436D01*
X0317831Y0225436D01*
X0308874Y0232102D02*
X0306630Y0232102D01*
X0305843Y0232890D01*
X0296157Y0232890D01*
X0308874Y0232102D02*
X0312008Y0235236D01*
X0317831Y0235236D01*
X0327131Y0252436D02*
X0327131Y0258609D01*
X0324701Y0261039D01*
X0314740Y0261039D01*
X0314661Y0260961D01*
X0309543Y0260961D01*
X0307299Y0263205D01*
X0314740Y0267732D02*
X0324701Y0267732D01*
X0337031Y0262228D02*
X0337031Y0252436D01*
X0340931Y0252436D02*
X0340931Y0260223D01*
X0344307Y0263598D01*
X0343520Y0264386D01*
X0343520Y0280921D01*
X0345882Y0283283D02*
X0347772Y0283283D01*
X0347772Y0276591D02*
X0347772Y0270646D01*
X0347693Y0270567D01*
X0347772Y0276591D02*
X0353756Y0276591D01*
X0354543Y0275803D01*
X0365961Y0272260D02*
X0375016Y0281315D01*
X0450134Y0281315D01*
X0450449Y0281000D01*
X0475016Y0297063D02*
X0475803Y0297850D01*
X0478953Y0301000D01*
X0483913Y0301000D01*
X0492339Y0301118D02*
X0499543Y0293913D01*
X0382811Y0234268D02*
X0382693Y0234386D01*
X0374386Y0234386D02*
X0374071Y0234071D01*
X0371866Y0234071D01*
X0369131Y0231336D01*
X0365961Y0241945D02*
X0365961Y0272260D01*
X0347693Y0263874D02*
X0347417Y0263598D01*
X0344307Y0263598D01*
X0339110Y0268953D02*
X0338992Y0269071D01*
X0339110Y0268953D02*
X0338402Y0268244D01*
X0350213Y0253756D02*
X0348893Y0252436D01*
X0344831Y0252436D01*
X0350231Y0247036D02*
X0352942Y0247036D01*
X0358874Y0252969D01*
X0358874Y0293598D01*
X0354858Y0297614D01*
X0348559Y0297614D01*
X0363835Y0292024D02*
X0363992Y0291866D01*
X0363992Y0287614D01*
X0360843Y0284465D01*
X0360843Y0251394D01*
X0354585Y0245136D01*
X0350231Y0245136D01*
X0309150Y0306000D02*
X0286039Y0282890D01*
X0276591Y0282102D02*
X0276591Y0263992D01*
X0272654Y0260055D01*
X0272654Y0240370D01*
X0270291Y0238008D01*
X0263205Y0239583D02*
X0269504Y0245882D01*
X0269504Y0290764D01*
X0275803Y0297063D01*
X0278953Y0297063D01*
X0309150Y0306000D02*
X0310000Y0306000D01*
X0264780Y0264780D02*
X0264543Y0264543D01*
X0264543Y0256512D01*
X0264543Y0256848D01*
X0263992Y0257399D01*
X0264543Y0249819D02*
X0264543Y0248950D01*
X0263992Y0248399D01*
X0229465Y0232890D02*
X0229465Y0220567D01*
X0230528Y0219504D01*
X0259268Y0206512D02*
X0262772Y0203008D01*
X0264858Y0203008D01*
X0270724Y0203008D01*
X0271079Y0203362D01*
D30*
X0254622Y0210488D02*
X0240370Y0210488D01*
X0239622Y0211236D01*
X0239661Y0210488D02*
X0238480Y0211669D01*
X0239661Y0210488D02*
X0240370Y0210488D01*
X0254543Y0240370D02*
X0255014Y0240841D01*
X0255014Y0248399D01*
X0263992Y0248399D01*
X0264698Y0248399D01*
X0265231Y0257399D02*
X0263992Y0257399D01*
X0255014Y0257399D01*
X0255014Y0266399D02*
X0255014Y0275683D01*
X0255528Y0276197D01*
X0255528Y0282890D02*
X0247457Y0282890D01*
X0314386Y0278953D02*
X0314661Y0278677D01*
X0314661Y0267654D01*
X0314740Y0267732D01*
X0332299Y0277850D02*
X0332299Y0284661D01*
X0331709Y0285252D01*
X0331709Y0297063D02*
X0332260Y0297614D01*
X0340685Y0297614D01*
X0363835Y0298717D02*
X0371787Y0298717D01*
X0371866Y0298638D01*
X0374228Y0259071D02*
X0377575Y0259071D01*
X0382102Y0254543D01*
X0383677Y0252969D01*
X0389504Y0252969D01*
X0391472Y0245685D02*
X0384661Y0245685D01*
X0383677Y0246669D01*
X0383559Y0246787D01*
X0378953Y0246787D01*
X0378953Y0249819D01*
X0376984Y0251787D01*
X0373638Y0251787D01*
X0374386Y0246787D02*
X0378953Y0246787D01*
X0383677Y0240370D02*
X0383402Y0240094D01*
X0374386Y0240094D01*
X0383677Y0240370D02*
X0385055Y0238992D01*
X0391472Y0238992D01*
X0386512Y0234386D02*
X0382929Y0234386D01*
X0382811Y0234268D01*
X0386512Y0234386D02*
X0389189Y0231709D01*
X0382811Y0227575D02*
X0374504Y0227575D01*
X0366748Y0217142D02*
X0371079Y0212811D01*
X0379740Y0212811D01*
X0382890Y0215961D01*
X0388402Y0210449D01*
X0388402Y0207614D01*
X0388402Y0209661D01*
X0388677Y0192496D02*
X0388677Y0185528D01*
X0388402Y0185252D01*
X0350606Y0184465D02*
X0347457Y0187614D01*
X0347457Y0190685D01*
X0347339Y0190803D01*
X0347339Y0201157D01*
X0340764Y0201039D02*
X0340764Y0190685D01*
X0340764Y0182496D01*
X0341157Y0182102D01*
X0333874Y0185055D02*
X0333874Y0190764D01*
X0333874Y0201079D01*
X0333953Y0201157D01*
X0327260Y0201157D02*
X0323835Y0197732D01*
X0323835Y0195488D01*
X0327181Y0192142D01*
X0327181Y0190764D01*
X0323835Y0195488D02*
X0319898Y0191551D01*
X0319898Y0190764D01*
X0319110Y0189976D01*
X0332496Y0183677D02*
X0333874Y0185055D01*
X0318323Y0204543D02*
X0308953Y0204543D01*
X0302181Y0204543D01*
X0301787Y0204150D01*
X0309071Y0211354D02*
X0318441Y0211354D01*
X0269386Y0167378D02*
X0262654Y0167378D01*
X0262417Y0167142D01*
X0269386Y0160685D02*
X0269386Y0156754D01*
X0267929Y0155297D01*
X0272654Y0146669D02*
X0274504Y0144819D01*
X0274504Y0137575D01*
X0267811Y0137575D02*
X0267811Y0129228D01*
X0267142Y0128559D01*
X0267533Y0137297D02*
X0257416Y0137297D01*
X0267533Y0137297D02*
X0267811Y0137575D01*
X0257416Y0155297D02*
X0257382Y0155331D01*
X0372969Y0137693D02*
X0372969Y0137220D01*
X0372969Y0135173D01*
X0444661Y0140449D02*
X0451669Y0147457D01*
X0497850Y0147457D01*
X0506512Y0138795D01*
X0512024Y0138795D01*
X0512398Y0139169D01*
X0513780Y0139169D01*
X0512417Y0140532D01*
X0512417Y0147890D01*
X0519110Y0147890D02*
X0522614Y0147890D01*
X0525409Y0145094D01*
X0525409Y0138795D01*
X0530035Y0134169D01*
X0533180Y0134169D01*
X0533180Y0129169D02*
X0538618Y0129169D01*
X0541157Y0131709D01*
X0541157Y0149465D01*
X0538402Y0152220D01*
X0531709Y0152220D02*
X0531709Y0140641D01*
X0533180Y0139169D01*
X0513780Y0124169D02*
X0513780Y0120503D01*
X0515173Y0119110D01*
X0497850Y0157693D02*
X0474228Y0157693D01*
X0460055Y0171866D01*
X0456039Y0171866D01*
X0455764Y0171591D01*
X0460055Y0171866D02*
X0460843Y0171866D01*
X0464917Y0175941D01*
X0464917Y0206945D01*
X0459917Y0206945D02*
X0459917Y0183618D01*
X0455764Y0179465D01*
X0444976Y0179465D01*
X0444661Y0179150D01*
X0444661Y0171276D02*
X0444661Y0161984D01*
X0444307Y0161630D01*
X0480016Y0171866D02*
X0499425Y0171866D01*
X0503087Y0175528D01*
X0503087Y0204937D01*
X0506591Y0208441D01*
X0511630Y0203402D01*
X0511630Y0194740D01*
X0494386Y0187614D02*
X0494386Y0209031D01*
X0476000Y0227417D01*
X0483520Y0234937D01*
X0483441Y0242732D02*
X0473441Y0242732D01*
X0464917Y0234209D01*
X0464917Y0227417D01*
X0459917Y0227417D02*
X0459917Y0241807D01*
X0465567Y0247457D01*
X0465567Y0255606D01*
X0466000Y0256039D01*
X0465921Y0255961D01*
X0450449Y0255961D01*
X0450449Y0263835D02*
X0442575Y0263835D01*
X0441945Y0263205D01*
X0466000Y0263913D02*
X0466394Y0264307D01*
X0466394Y0281118D01*
X0450567Y0281118D01*
X0450449Y0281000D01*
X0450449Y0288874D02*
X0450449Y0289819D01*
X0461630Y0301000D01*
X0472654Y0301000D01*
X0475803Y0297850D01*
X0483913Y0301000D02*
X0484228Y0300685D01*
X0485331Y0293913D02*
X0484228Y0292811D01*
X0499543Y0301787D02*
X0508087Y0301787D01*
X0484228Y0272654D02*
X0484307Y0272575D01*
X0484307Y0264701D02*
X0483520Y0263913D01*
X0483520Y0242811D01*
X0483441Y0242732D01*
X0476000Y0227417D02*
X0469917Y0227417D01*
X0452181Y0238795D02*
X0449386Y0236000D01*
X0445646Y0236000D01*
X0437102Y0236000D01*
X0437024Y0235921D01*
X0437024Y0229228D02*
X0437024Y0220094D01*
X0437220Y0219898D01*
X0454917Y0206945D02*
X0454917Y0195508D01*
X0454937Y0195488D01*
X0470291Y0195488D02*
X0470291Y0188677D01*
X0479228Y0179740D01*
X0480016Y0179740D01*
X0494386Y0179740D01*
X0497850Y0157693D02*
X0538008Y0197850D01*
X0538008Y0245094D01*
X0536827Y0246276D01*
X0531709Y0246276D01*
X0531079Y0246906D01*
X0519346Y0246906D01*
X0506827Y0246906D01*
X0506827Y0239031D02*
X0506827Y0218677D01*
X0506591Y0218441D01*
X0516591Y0218441D02*
X0519346Y0221197D01*
X0519346Y0239031D01*
X0530921Y0238874D02*
X0530921Y0233283D01*
X0526591Y0228953D01*
X0526591Y0218441D01*
X0526591Y0208441D02*
X0516591Y0208441D01*
X0506591Y0208441D01*
X0477378Y0212024D02*
X0477024Y0211669D01*
X0477024Y0204465D01*
X0472398Y0204465D01*
X0469917Y0206945D01*
X0530921Y0238874D02*
X0531079Y0239031D01*
D31*
X0474228Y0249031D03*
X0454543Y0247457D03*
X0452181Y0238795D03*
X0437220Y0219898D03*
X0454937Y0195488D03*
X0470291Y0195488D03*
X0477378Y0212024D03*
X0444307Y0161630D03*
X0496276Y0134071D03*
X0515173Y0119110D03*
X0525409Y0145094D03*
X0388402Y0185252D03*
X0368717Y0191551D03*
X0363205Y0182890D03*
X0354543Y0191551D03*
X0350606Y0184465D03*
X0341157Y0182102D03*
X0332496Y0183677D03*
X0319110Y0189976D03*
X0301787Y0204150D03*
X0300213Y0210449D03*
X0291551Y0219110D03*
X0308087Y0227772D03*
X0289976Y0239583D03*
X0278165Y0242732D03*
X0270291Y0238008D03*
X0263205Y0239583D03*
X0254543Y0240370D03*
X0262417Y0226984D03*
X0284465Y0208087D03*
X0271079Y0203362D03*
X0262417Y0167142D03*
X0286039Y0168717D03*
X0272654Y0146669D03*
X0286039Y0145882D03*
X0267142Y0128559D03*
X0363598Y0137614D03*
X0382890Y0215961D03*
X0389976Y0224622D03*
X0389189Y0231709D03*
X0383677Y0240370D03*
X0383677Y0246669D03*
X0382102Y0254543D03*
X0350213Y0253756D03*
X0354543Y0275803D03*
X0339583Y0286039D03*
X0331709Y0285252D03*
X0321472Y0281315D03*
X0314386Y0278953D03*
X0301787Y0269504D03*
X0307299Y0263205D03*
X0303362Y0253756D03*
X0315961Y0254543D03*
X0284465Y0252181D03*
X0281315Y0258480D03*
X0264780Y0264780D03*
X0276591Y0282102D03*
X0286039Y0282890D03*
X0278953Y0297063D03*
X0247457Y0282890D03*
X0331709Y0297063D03*
X0371866Y0298638D03*
X0441945Y0263205D03*
X0466354Y0296276D03*
X0508087Y0301787D03*
D32*
X0487417Y0234937D02*
X0483520Y0234937D01*
X0487417Y0234937D02*
X0494976Y0227378D01*
X0389976Y0224622D02*
X0387024Y0227575D01*
X0382811Y0227575D01*
X0374504Y0227575D02*
X0374386Y0227693D01*
X0368795Y0227693D01*
X0367142Y0229346D01*
X0350242Y0229346D01*
X0350231Y0229336D01*
X0350231Y0227336D02*
X0360491Y0227336D01*
X0361630Y0226197D01*
X0363992Y0223835D01*
X0361630Y0226197D02*
X0361630Y0219189D01*
X0361315Y0218874D01*
X0359268Y0210449D02*
X0349031Y0210449D01*
X0342931Y0216549D01*
X0342931Y0220036D01*
X0335031Y0220036D02*
X0335031Y0211850D01*
X0342339Y0204543D01*
X0346276Y0204543D01*
X0346669Y0204150D01*
X0346669Y0201827D01*
X0347339Y0201157D01*
X0345724Y0201157D01*
X0347339Y0201157D02*
X0347457Y0201039D01*
X0333953Y0201157D02*
X0333953Y0205843D01*
X0330921Y0208874D01*
X0330921Y0219926D01*
X0331031Y0220036D01*
X0327131Y0220036D02*
X0327131Y0212171D01*
X0319622Y0204661D01*
X0318441Y0204661D01*
X0318323Y0204543D01*
X0299425Y0215961D02*
X0292339Y0208874D01*
X0285252Y0208874D01*
X0284465Y0208087D01*
X0291551Y0219110D02*
X0294701Y0222260D01*
X0308874Y0222260D01*
X0313950Y0227336D01*
X0317831Y0227336D01*
X0317831Y0229336D02*
X0309651Y0229336D01*
X0308087Y0227772D01*
X0311220Y0237236D02*
X0308874Y0239583D01*
X0305843Y0239583D01*
X0296157Y0239583D01*
X0289976Y0239583D01*
X0278559Y0243520D02*
X0308087Y0243520D01*
X0312370Y0239236D01*
X0317831Y0239236D01*
X0317831Y0241136D02*
X0313620Y0241136D01*
X0308874Y0245882D01*
X0290764Y0245882D01*
X0284465Y0252181D01*
X0281315Y0258480D02*
X0281315Y0287614D01*
X0289976Y0296276D01*
X0289976Y0305976D01*
X0290000Y0306000D01*
X0282890Y0312811D02*
X0280000Y0309921D01*
X0280000Y0306000D01*
X0282890Y0312811D02*
X0323047Y0312811D01*
X0326197Y0309661D01*
X0326197Y0286039D01*
X0321472Y0281315D01*
X0332299Y0277850D02*
X0332299Y0269071D01*
X0332417Y0268953D01*
X0332417Y0266276D01*
X0330921Y0264780D01*
X0330921Y0252546D01*
X0331031Y0252436D01*
X0329131Y0252436D02*
X0328953Y0252615D01*
X0328953Y0265173D01*
X0326394Y0267732D01*
X0324701Y0267732D01*
X0324622Y0267654D01*
X0337031Y0263803D02*
X0338795Y0265567D01*
X0338795Y0268638D01*
X0339110Y0268953D01*
X0338402Y0268244D02*
X0338402Y0277260D01*
X0338992Y0277850D01*
X0338992Y0285449D01*
X0339583Y0286039D01*
X0342339Y0283283D01*
X0343520Y0283283D01*
X0343520Y0280921D01*
X0343520Y0283283D02*
X0345882Y0283283D01*
X0347693Y0270567D02*
X0347969Y0270291D01*
X0350606Y0270291D01*
X0351394Y0269504D01*
X0351394Y0260055D01*
X0349031Y0257693D01*
X0343520Y0257693D01*
X0342931Y0257105D01*
X0342931Y0252436D01*
X0340931Y0243136D02*
X0334031Y0236236D01*
X0340931Y0243136D02*
X0350231Y0243136D01*
X0350279Y0233283D02*
X0350231Y0233236D01*
X0350279Y0233283D02*
X0367142Y0233283D01*
X0372850Y0238992D01*
X0375488Y0238992D01*
X0374386Y0240094D01*
X0374386Y0234386D02*
X0373598Y0234386D01*
X0374386Y0234386D02*
X0382693Y0234386D01*
X0374543Y0220370D02*
X0374543Y0218992D01*
X0362417Y0207299D02*
X0362417Y0183677D01*
X0363205Y0182890D01*
X0362417Y0207299D02*
X0359268Y0210449D01*
X0317831Y0237236D02*
X0311220Y0237236D01*
X0313982Y0243136D02*
X0308874Y0248244D01*
X0301000Y0248244D01*
X0297850Y0251394D01*
X0297850Y0271866D01*
X0320000Y0294016D01*
X0320000Y0306000D01*
X0301787Y0269504D02*
X0301787Y0261630D01*
X0316381Y0247036D01*
X0317831Y0247036D01*
X0323414Y0247036D01*
X0325131Y0248754D01*
X0325131Y0252436D01*
X0323231Y0252436D02*
X0321124Y0254543D01*
X0315961Y0254543D01*
X0314344Y0245136D02*
X0305724Y0253756D01*
X0303362Y0253756D01*
X0314344Y0245136D02*
X0317831Y0245136D01*
X0317831Y0243136D02*
X0313982Y0243136D01*
X0337031Y0262228D02*
X0337031Y0263803D01*
X0278559Y0243520D02*
X0278165Y0243126D01*
X0278165Y0242732D01*
X0300094Y0186669D02*
X0300094Y0177260D01*
X0297850Y0175016D01*
D33*
X0286039Y0169504D02*
X0265567Y0189976D01*
X0238795Y0189976D01*
X0226197Y0202575D01*
X0226197Y0208087D01*
X0229780Y0211669D01*
X0229780Y0218756D01*
X0230528Y0219504D01*
X0243913Y0232890D01*
X0296157Y0232890D01*
X0255014Y0266399D02*
X0251349Y0266399D01*
X0241157Y0276591D01*
X0222260Y0276591D01*
X0215173Y0269504D01*
X0215173Y0203362D01*
X0256906Y0161630D01*
X0256906Y0155807D01*
X0257416Y0155297D01*
X0267929Y0155297D01*
X0311990Y0155297D01*
X0312024Y0155331D01*
X0431709Y0155331D01*
X0434071Y0152969D01*
X0434071Y0139858D01*
X0424661Y0130449D01*
X0424661Y0140449D02*
X0416079Y0149031D01*
X0324622Y0149031D01*
X0317260Y0141669D01*
X0296000Y0141669D01*
X0290252Y0141669D01*
X0286039Y0145882D01*
X0296000Y0141669D02*
X0296000Y0116000D01*
X0272281Y0146297D02*
X0257416Y0146297D01*
X0272281Y0146297D02*
X0272654Y0146669D01*
X0286039Y0168717D02*
X0286039Y0169504D01*
X0309661Y0155331D02*
X0312024Y0155331D01*
X0363598Y0137614D02*
X0372575Y0137614D01*
X0372969Y0137220D01*
X0488205Y0134386D02*
X0495961Y0134386D01*
X0496276Y0134071D01*
X0238480Y0211669D02*
X0229780Y0211669D01*
D34*
X0480528Y0189976D03*
D35*
X0480331Y0134386D02*
X0466669Y0134386D01*
X0452969Y0120685D01*
X0444898Y0120685D01*
X0444661Y0120449D01*
X0424661Y0120449D02*
X0408323Y0120449D01*
X0395488Y0133283D01*
X0382732Y0133283D01*
X0380843Y0135173D01*
M02*
