%
M48
M72
T01C0.02362
T02C0.03600
T03C0.04000
T04C0.04331
T05C0.05200
T06C0.05512
%
T01
X267142Y128559
X286039Y145882
X272654Y146669
X262417Y167142
X286039Y168717
X319110Y189976
X332496Y183677
X341157Y182102
X350606Y184465
X354543Y191551
X363205Y182890
X368717Y191551
X388402Y185252
X382890Y215961
X389976Y224622
X389189Y231709
X383677Y240370
X383677Y246669
X382102Y254543
X350213Y253756
X354543Y275803
X339583Y286039
X331709Y285252
X321472Y281315
X314386Y278953
X301787Y269504
X307299Y263205
X303362Y253756
X315961Y254543
X289976Y239583
X278165Y242732
X270291Y238008
X263205Y239583
X254543Y240370
X262417Y226984
X284465Y208087
X300213Y210449
X301787Y204150
X291551Y219110
X308087Y227772
X284465Y252181
X281315Y258480
X264780Y264780
X276591Y282102
X286039Y282890
X278953Y297063
X247457Y282890
X331709Y297063
X371866Y298638
X441945Y263205
X454543Y247457
X452181Y238795
X474228Y249031
X437220Y219898
X454937Y195488
X470291Y195488
X480528Y189976
X477378Y212024
X444307Y161630
X496276Y134071
X515173Y119110
X525409Y145094
X363598Y137614
X271079Y203362
X466354Y296276
X508087Y301787
T02
X506591Y218441
X516591Y218441
X526591Y218441
X526591Y208441
X516591Y208441
X506591Y208441
T03
X416000Y206000
X406000Y206000
X406000Y216000
X416000Y216000
X416000Y226000
X406000Y226000
X320000Y306000
X310000Y306000
X300000Y306000
X290000Y306000
X280000Y306000
X270000Y306000
X260000Y306000
X250000Y306000
X240000Y306000
X230000Y306000
X266000Y116000
X276000Y116000
X286000Y116000
X296000Y116000
X306000Y116000
X316000Y116000
X326000Y116000
X336000Y116000
T04
X424661Y120449
X424661Y130449
X424661Y140449
X444661Y140449
X444661Y130449
X444661Y120449
T05
X406000Y187220
X409740Y239976
X426787Y247063
X426315Y260449
X404031Y253559
X494976Y227378
X511630Y194740
X522654Y195055
X300094Y186669
X229465Y232890
X231512Y115567
X217811Y115567
X246945Y115764
T06
X200213Y111236
X200213Y119110
X200213Y126984
X200213Y134858
X200213Y142732
X192339Y142732
X184465Y142732
X176591Y142732
X168717Y142732
X160843Y142732
M30
