G75*
%MOIN*%
%OFA0B0*%
%FSLAX25Y25*%
%IPPOS*%
%LPD*%
%AMOC8*
5,1,8,0,0,1.08239X$1,22.5*
%
%ADD10OC8,0.06000*%
%ADD11C,0.07400*%
%ADD12OC8,0.07400*%
%ADD13C,0.06731*%
%ADD14OC8,0.08500*%
%ADD15R,0.04362X0.04362*%
%ADD16C,0.04362*%
%ADD17C,0.01200*%
%ADD18C,0.01600*%
%ADD19C,0.03200*%
%ADD20C,0.01000*%
D10*
X0506591Y0208441D03*
X0516591Y0208441D03*
X0526591Y0208441D03*
X0526591Y0218441D03*
X0516591Y0218441D03*
X0506591Y0218441D03*
D11*
X0336000Y0116000D03*
X0326000Y0116000D03*
X0316000Y0116000D03*
X0306000Y0116000D03*
X0296000Y0116000D03*
X0286000Y0116000D03*
X0276000Y0116000D03*
X0266000Y0116000D03*
X0270000Y0306000D03*
X0260000Y0306000D03*
X0250000Y0306000D03*
X0240000Y0306000D03*
X0230000Y0306000D03*
X0280000Y0306000D03*
X0290000Y0306000D03*
X0300000Y0306000D03*
X0310000Y0306000D03*
X0320000Y0306000D03*
D12*
X0406000Y0226000D03*
X0416000Y0226000D03*
X0416000Y0216000D03*
X0406000Y0216000D03*
X0406000Y0206000D03*
X0416000Y0206000D03*
D13*
X0424661Y0140449D03*
X0424661Y0130449D03*
X0424661Y0120449D03*
X0444661Y0120449D03*
X0444661Y0130449D03*
X0444661Y0140449D03*
D14*
X0217811Y0115567D03*
X0231512Y0115567D03*
X0246945Y0115764D03*
X0300094Y0186669D03*
X0229465Y0232890D03*
X0404031Y0253559D03*
X0409740Y0239976D03*
X0426787Y0247063D03*
X0426315Y0260449D03*
X0494976Y0227378D03*
X0511630Y0194740D03*
X0522654Y0195055D03*
X0406000Y0187220D03*
D15*
X0388402Y0185252D03*
X0368717Y0191551D03*
X0363205Y0182890D03*
X0354543Y0191551D03*
X0350606Y0184465D03*
X0341157Y0182102D03*
X0332496Y0183677D03*
X0319110Y0189976D03*
X0301787Y0204150D03*
X0300213Y0210449D03*
X0291551Y0219110D03*
X0308087Y0227772D03*
X0289976Y0239583D03*
X0278165Y0242732D03*
X0270291Y0238008D03*
X0263205Y0239583D03*
X0254543Y0240370D03*
X0262417Y0226984D03*
X0284465Y0208087D03*
X0271079Y0203362D03*
X0262417Y0167142D03*
X0286039Y0168717D03*
X0272654Y0146669D03*
X0286039Y0145882D03*
X0267142Y0128559D03*
X0363598Y0137614D03*
X0444307Y0161630D03*
X0496276Y0134071D03*
X0515173Y0119110D03*
X0525409Y0145094D03*
X0470291Y0195488D03*
X0454937Y0195488D03*
X0477378Y0212024D03*
X0437220Y0219898D03*
X0452181Y0238795D03*
X0454543Y0247457D03*
X0474228Y0249031D03*
X0441945Y0263205D03*
X0466354Y0296276D03*
X0508087Y0301787D03*
X0389189Y0231709D03*
X0389976Y0224622D03*
X0382890Y0215961D03*
X0383677Y0240370D03*
X0383677Y0246669D03*
X0382102Y0254543D03*
X0350213Y0253756D03*
X0354543Y0275803D03*
X0339583Y0286039D03*
X0331709Y0285252D03*
X0321472Y0281315D03*
X0314386Y0278953D03*
X0301787Y0269504D03*
X0307299Y0263205D03*
X0303362Y0253756D03*
X0315961Y0254543D03*
X0284465Y0252181D03*
X0281315Y0258480D03*
X0264780Y0264780D03*
X0276591Y0282102D03*
X0286039Y0282890D03*
X0278953Y0297063D03*
X0247457Y0282890D03*
X0331709Y0297063D03*
X0371866Y0298638D03*
D16*
X0480528Y0189976D03*
D17*
X0356118Y0253756D02*
X0350213Y0253756D01*
X0286039Y0282890D02*
X0277378Y0282890D01*
X0276591Y0282102D01*
X0270291Y0238008D02*
X0270291Y0235646D01*
X0284465Y0221472D01*
X0284465Y0208087D01*
D18*
X0288046Y0208806D02*
X0296631Y0208806D01*
X0296631Y0207688D02*
X0297452Y0206868D01*
X0298206Y0206868D01*
X0298206Y0201389D01*
X0299026Y0200569D01*
X0304548Y0200569D01*
X0305368Y0201389D01*
X0305368Y0206911D01*
X0304548Y0207731D01*
X0303794Y0207731D01*
X0303794Y0213210D01*
X0302974Y0214030D01*
X0297452Y0214030D01*
X0296631Y0213210D01*
X0296631Y0207688D01*
X0297111Y0207208D02*
X0288046Y0207208D01*
X0288046Y0205609D02*
X0298206Y0205609D01*
X0298206Y0204011D02*
X0274660Y0204011D01*
X0274660Y0205609D02*
X0280883Y0205609D01*
X0280883Y0205326D02*
X0281704Y0204506D01*
X0287226Y0204506D01*
X0288046Y0205326D01*
X0288046Y0210848D01*
X0287226Y0211668D01*
X0286465Y0211668D01*
X0286465Y0222301D01*
X0285293Y0223472D01*
X0273695Y0235070D01*
X0273872Y0235247D01*
X0273872Y0240769D01*
X0273052Y0241589D01*
X0267530Y0241589D01*
X0266786Y0240844D01*
X0266786Y0242344D01*
X0265966Y0243164D01*
X0260444Y0243164D01*
X0259624Y0242344D01*
X0259624Y0236822D01*
X0260444Y0236002D01*
X0265966Y0236002D01*
X0266710Y0236746D01*
X0266710Y0235247D01*
X0267530Y0234427D01*
X0268682Y0234427D01*
X0282465Y0220644D01*
X0282465Y0211668D01*
X0281704Y0211668D01*
X0280883Y0210848D01*
X0280883Y0205326D01*
X0280883Y0207208D02*
X0222260Y0207208D01*
X0222260Y0208806D02*
X0280883Y0208806D01*
X0280883Y0210405D02*
X0222260Y0210405D01*
X0222260Y0212003D02*
X0282465Y0212003D01*
X0282465Y0213602D02*
X0222260Y0213602D01*
X0222260Y0215201D02*
X0282465Y0215201D01*
X0282465Y0216799D02*
X0222260Y0216799D01*
X0222260Y0218398D02*
X0282465Y0218398D01*
X0282465Y0219996D02*
X0222260Y0219996D01*
X0222260Y0221595D02*
X0281514Y0221595D01*
X0279916Y0223193D02*
X0222260Y0223193D01*
X0222260Y0224792D02*
X0258836Y0224792D01*
X0258836Y0224223D02*
X0259656Y0223403D01*
X0265178Y0223403D01*
X0265998Y0224223D01*
X0265998Y0229745D01*
X0265178Y0230565D01*
X0259656Y0230565D01*
X0258836Y0229745D01*
X0258836Y0224223D01*
X0258836Y0226390D02*
X0222260Y0226390D01*
X0222260Y0227989D02*
X0226375Y0227989D01*
X0227124Y0227240D02*
X0231805Y0227240D01*
X0235115Y0230549D01*
X0235115Y0235230D01*
X0231805Y0238540D01*
X0227124Y0238540D01*
X0223815Y0235230D01*
X0223815Y0230549D01*
X0227124Y0227240D01*
X0224777Y0229587D02*
X0222260Y0229587D01*
X0222260Y0231186D02*
X0223815Y0231186D01*
X0223815Y0232784D02*
X0222260Y0232784D01*
X0222260Y0234383D02*
X0223815Y0234383D01*
X0224566Y0235981D02*
X0222260Y0235981D01*
X0222260Y0237580D02*
X0226164Y0237580D01*
X0222260Y0239178D02*
X0250962Y0239178D01*
X0250962Y0237609D02*
X0251782Y0236789D01*
X0257304Y0236789D01*
X0258124Y0237609D01*
X0258124Y0243131D01*
X0257304Y0243951D01*
X0251782Y0243951D01*
X0250962Y0243131D01*
X0250962Y0237609D01*
X0250992Y0237580D02*
X0232765Y0237580D01*
X0234363Y0235981D02*
X0266710Y0235981D01*
X0268726Y0234383D02*
X0235115Y0234383D01*
X0235115Y0232784D02*
X0270324Y0232784D01*
X0271923Y0231186D02*
X0235115Y0231186D01*
X0234152Y0229587D02*
X0258836Y0229587D01*
X0258836Y0227989D02*
X0232554Y0227989D01*
X0222260Y0240777D02*
X0250962Y0240777D01*
X0250962Y0242375D02*
X0222260Y0242375D01*
X0222260Y0243974D02*
X0274584Y0243974D01*
X0274584Y0245493D02*
X0274584Y0239971D01*
X0275404Y0239151D01*
X0280926Y0239151D01*
X0281746Y0239971D01*
X0281746Y0245493D01*
X0280926Y0246313D01*
X0275404Y0246313D01*
X0274584Y0245493D01*
X0274663Y0245572D02*
X0222260Y0245572D01*
X0222260Y0247171D02*
X0294376Y0247171D01*
X0294376Y0248769D02*
X0287395Y0248769D01*
X0287226Y0248600D02*
X0288046Y0249420D01*
X0288046Y0254942D01*
X0287226Y0255762D01*
X0284896Y0255762D01*
X0284896Y0255793D01*
X0289189Y0255793D01*
X0294376Y0250607D01*
X0294376Y0238007D01*
X0293557Y0237189D01*
X0293557Y0242344D01*
X0292737Y0243164D01*
X0287215Y0243164D01*
X0286395Y0242344D01*
X0286395Y0236822D01*
X0287215Y0236002D01*
X0292370Y0236002D01*
X0289651Y0233283D01*
X0289651Y0222691D01*
X0288790Y0222691D01*
X0287970Y0221871D01*
X0287970Y0216349D01*
X0288790Y0215529D01*
X0294312Y0215529D01*
X0295132Y0216349D01*
X0295132Y0221871D01*
X0294312Y0222691D01*
X0293451Y0222691D01*
X0293451Y0231709D01*
X0298176Y0236433D01*
X0298176Y0252181D01*
X0291876Y0258480D01*
X0290763Y0259593D01*
X0284896Y0259593D01*
X0284896Y0261241D01*
X0284076Y0262061D01*
X0278554Y0262061D01*
X0277734Y0261241D01*
X0277734Y0255719D01*
X0278554Y0254899D01*
X0280883Y0254899D01*
X0280883Y0249420D01*
X0281704Y0248600D01*
X0287226Y0248600D01*
X0288046Y0250368D02*
X0294376Y0250368D01*
X0293016Y0251966D02*
X0288046Y0251966D01*
X0288046Y0253565D02*
X0291417Y0253565D01*
X0289819Y0255163D02*
X0287824Y0255163D01*
X0291876Y0258480D02*
X0291876Y0258480D01*
X0291996Y0258360D02*
X0396276Y0258360D01*
X0396276Y0256762D02*
X0385683Y0256762D01*
X0385683Y0257304D02*
X0384863Y0258124D01*
X0379341Y0258124D01*
X0378521Y0257304D01*
X0378521Y0251782D01*
X0379341Y0250962D01*
X0384863Y0250962D01*
X0385683Y0251782D01*
X0385683Y0257304D01*
X0385683Y0255163D02*
X0396276Y0255163D01*
X0396276Y0253565D02*
X0385683Y0253565D01*
X0385683Y0251966D02*
X0396276Y0251966D01*
X0396276Y0250368D02*
X0306316Y0250368D01*
X0306123Y0250175D02*
X0306943Y0250995D01*
X0306943Y0256517D01*
X0306123Y0257337D01*
X0300601Y0257337D01*
X0299781Y0256517D01*
X0299781Y0250995D01*
X0300601Y0250175D01*
X0306123Y0250175D01*
X0306943Y0251966D02*
X0312380Y0251966D01*
X0312380Y0251782D02*
X0313200Y0250962D01*
X0318722Y0250962D01*
X0319542Y0251782D01*
X0319542Y0257304D01*
X0318722Y0258124D01*
X0313200Y0258124D01*
X0312380Y0257304D01*
X0312380Y0251782D01*
X0312380Y0253565D02*
X0306943Y0253565D01*
X0306943Y0255163D02*
X0312380Y0255163D01*
X0312380Y0256762D02*
X0306698Y0256762D01*
X0304538Y0259624D02*
X0310060Y0259624D01*
X0310880Y0260444D01*
X0310880Y0265966D01*
X0310060Y0266786D01*
X0305368Y0266786D01*
X0305368Y0272265D01*
X0304548Y0273085D01*
X0299026Y0273085D01*
X0298206Y0272265D01*
X0298206Y0266743D01*
X0299026Y0265923D01*
X0303718Y0265923D01*
X0303718Y0260444D01*
X0304538Y0259624D01*
X0304203Y0259959D02*
X0284896Y0259959D01*
X0284580Y0261557D02*
X0303718Y0261557D01*
X0303718Y0263156D02*
X0268361Y0263156D01*
X0268361Y0262019D02*
X0267541Y0261198D01*
X0262019Y0261198D01*
X0261198Y0262019D01*
X0261198Y0267541D01*
X0262019Y0268361D01*
X0267541Y0268361D01*
X0268361Y0267541D01*
X0268361Y0262019D01*
X0267899Y0261557D02*
X0278050Y0261557D01*
X0277734Y0259959D02*
X0222260Y0259959D01*
X0222260Y0261557D02*
X0261660Y0261557D01*
X0261198Y0263156D02*
X0222260Y0263156D01*
X0222260Y0264754D02*
X0261198Y0264754D01*
X0261198Y0266353D02*
X0222260Y0266353D01*
X0222260Y0267951D02*
X0261609Y0267951D01*
X0267950Y0267951D02*
X0298206Y0267951D01*
X0298206Y0269550D02*
X0222260Y0269550D01*
X0222260Y0271148D02*
X0298206Y0271148D01*
X0298688Y0272747D02*
X0222260Y0272747D01*
X0222260Y0274345D02*
X0350962Y0274345D01*
X0350962Y0273042D02*
X0351782Y0272222D01*
X0357304Y0272222D01*
X0358124Y0273042D01*
X0358124Y0278564D01*
X0357304Y0279384D01*
X0351782Y0279384D01*
X0350962Y0278564D01*
X0350962Y0273042D01*
X0351257Y0272747D02*
X0304887Y0272747D01*
X0305368Y0271148D02*
X0396276Y0271148D01*
X0396276Y0269550D02*
X0305368Y0269550D01*
X0305368Y0267951D02*
X0396276Y0267951D01*
X0396276Y0266353D02*
X0310493Y0266353D01*
X0310880Y0264754D02*
X0396276Y0264754D01*
X0396276Y0263156D02*
X0310880Y0263156D01*
X0310880Y0261557D02*
X0396276Y0261557D01*
X0396276Y0259959D02*
X0310395Y0259959D01*
X0303718Y0264754D02*
X0268361Y0264754D01*
X0268361Y0266353D02*
X0298596Y0266353D01*
X0310805Y0276192D02*
X0311625Y0275372D01*
X0317147Y0275372D01*
X0317967Y0276192D01*
X0317967Y0278478D01*
X0318711Y0277734D01*
X0324233Y0277734D01*
X0325054Y0278554D01*
X0325054Y0284076D01*
X0324233Y0284896D01*
X0318711Y0284896D01*
X0317891Y0284076D01*
X0317891Y0281789D01*
X0317147Y0282534D01*
X0311625Y0282534D01*
X0310805Y0281714D01*
X0310805Y0276192D01*
X0311053Y0275944D02*
X0222260Y0275944D01*
X0222260Y0277542D02*
X0310805Y0277542D01*
X0310805Y0279141D02*
X0279971Y0279141D01*
X0280172Y0279341D02*
X0280172Y0280890D01*
X0282458Y0280890D01*
X0282458Y0280129D01*
X0283278Y0279309D01*
X0288800Y0279309D01*
X0289620Y0280129D01*
X0289620Y0285651D01*
X0288800Y0286471D01*
X0283278Y0286471D01*
X0282458Y0285651D01*
X0282458Y0284890D01*
X0280145Y0284890D01*
X0279352Y0285683D01*
X0273830Y0285683D01*
X0273009Y0284863D01*
X0273009Y0279341D01*
X0273830Y0278521D01*
X0279352Y0278521D01*
X0280172Y0279341D01*
X0280172Y0280739D02*
X0282458Y0280739D01*
X0289620Y0280739D02*
X0310805Y0280739D01*
X0311429Y0282338D02*
X0289620Y0282338D01*
X0289620Y0283937D02*
X0317891Y0283937D01*
X0317891Y0282338D02*
X0317343Y0282338D01*
X0317967Y0277542D02*
X0350962Y0277542D01*
X0350962Y0275944D02*
X0317719Y0275944D01*
X0325054Y0279141D02*
X0351539Y0279141D01*
X0357548Y0279141D02*
X0396276Y0279141D01*
X0396276Y0280739D02*
X0325054Y0280739D01*
X0325054Y0282338D02*
X0328281Y0282338D01*
X0328128Y0282491D02*
X0328948Y0281671D01*
X0334470Y0281671D01*
X0335290Y0282491D01*
X0335290Y0288013D01*
X0334470Y0288833D01*
X0328948Y0288833D01*
X0328128Y0288013D01*
X0328128Y0282491D01*
X0328128Y0283937D02*
X0325054Y0283937D01*
X0328128Y0285535D02*
X0289620Y0285535D01*
X0282458Y0285535D02*
X0279500Y0285535D01*
X0273681Y0285535D02*
X0251038Y0285535D01*
X0251038Y0285651D02*
X0250218Y0286471D01*
X0244696Y0286471D01*
X0243876Y0285651D01*
X0243876Y0280129D01*
X0244696Y0279309D01*
X0250218Y0279309D01*
X0251038Y0280129D01*
X0251038Y0285651D01*
X0251038Y0283937D02*
X0273009Y0283937D01*
X0273009Y0282338D02*
X0251038Y0282338D01*
X0251038Y0280739D02*
X0273009Y0280739D01*
X0273210Y0279141D02*
X0222260Y0279141D01*
X0222260Y0280739D02*
X0243876Y0280739D01*
X0243876Y0282338D02*
X0222260Y0282338D01*
X0222260Y0283937D02*
X0243876Y0283937D01*
X0243876Y0285535D02*
X0222260Y0285535D01*
X0222260Y0287134D02*
X0328128Y0287134D01*
X0328847Y0288732D02*
X0222260Y0288732D01*
X0222260Y0290331D02*
X0396276Y0290331D01*
X0396276Y0291929D02*
X0222260Y0291929D01*
X0222260Y0293528D02*
X0276146Y0293528D01*
X0276192Y0293482D02*
X0281714Y0293482D01*
X0282534Y0294302D01*
X0282534Y0299824D01*
X0281714Y0300644D01*
X0276192Y0300644D01*
X0275372Y0299824D01*
X0275372Y0294302D01*
X0276192Y0293482D01*
X0275372Y0295126D02*
X0222260Y0295126D01*
X0222260Y0296725D02*
X0275372Y0296725D01*
X0275372Y0298323D02*
X0222260Y0298323D01*
X0222260Y0299922D02*
X0275469Y0299922D01*
X0277111Y0301676D02*
X0278986Y0300900D01*
X0281014Y0300900D01*
X0282889Y0301676D01*
X0284324Y0303111D01*
X0285000Y0304744D01*
X0285676Y0303111D01*
X0287111Y0301676D01*
X0288986Y0300900D01*
X0291014Y0300900D01*
X0292889Y0301676D01*
X0294324Y0303111D01*
X0295000Y0304744D01*
X0295676Y0303111D01*
X0297111Y0301676D01*
X0298986Y0300900D01*
X0301014Y0300900D01*
X0302889Y0301676D01*
X0304324Y0303111D01*
X0305000Y0304744D01*
X0305676Y0303111D01*
X0307111Y0301676D01*
X0308986Y0300900D01*
X0311014Y0300900D01*
X0312889Y0301676D01*
X0314324Y0303111D01*
X0315000Y0304744D01*
X0315676Y0303111D01*
X0317111Y0301676D01*
X0318986Y0300900D01*
X0321014Y0300900D01*
X0322889Y0301676D01*
X0324324Y0303111D01*
X0325100Y0304986D01*
X0325100Y0307014D01*
X0324324Y0308889D01*
X0322889Y0310324D01*
X0321014Y0311100D01*
X0318986Y0311100D01*
X0317111Y0310324D01*
X0315676Y0308889D01*
X0315000Y0307256D01*
X0314324Y0308889D01*
X0312889Y0310324D01*
X0311014Y0311100D01*
X0308986Y0311100D01*
X0307111Y0310324D01*
X0305676Y0308889D01*
X0305000Y0307256D01*
X0304324Y0308889D01*
X0302889Y0310324D01*
X0301014Y0311100D01*
X0298986Y0311100D01*
X0297111Y0310324D01*
X0295676Y0308889D01*
X0295000Y0307256D01*
X0294324Y0308889D01*
X0292889Y0310324D01*
X0291014Y0311100D01*
X0288986Y0311100D01*
X0287111Y0310324D01*
X0285676Y0308889D01*
X0285000Y0307256D01*
X0284324Y0308889D01*
X0282889Y0310324D01*
X0281014Y0311100D01*
X0278986Y0311100D01*
X0277111Y0310324D01*
X0275676Y0308889D01*
X0275000Y0307256D01*
X0274324Y0308889D01*
X0272889Y0310324D01*
X0271014Y0311100D01*
X0268986Y0311100D01*
X0267111Y0310324D01*
X0265676Y0308889D01*
X0265000Y0307256D01*
X0264324Y0308889D01*
X0262889Y0310324D01*
X0261014Y0311100D01*
X0258986Y0311100D01*
X0257111Y0310324D01*
X0255676Y0308889D01*
X0255000Y0307256D01*
X0254324Y0308889D01*
X0252889Y0310324D01*
X0251014Y0311100D01*
X0248986Y0311100D01*
X0247111Y0310324D01*
X0245676Y0308889D01*
X0245000Y0307256D01*
X0244324Y0308889D01*
X0242889Y0310324D01*
X0241014Y0311100D01*
X0238986Y0311100D01*
X0237111Y0310324D01*
X0235676Y0308889D01*
X0235000Y0307256D01*
X0234324Y0308889D01*
X0232889Y0310324D01*
X0231014Y0311100D01*
X0228986Y0311100D01*
X0227111Y0310324D01*
X0225676Y0308889D01*
X0224900Y0307014D01*
X0224900Y0304986D01*
X0225676Y0303111D01*
X0227111Y0301676D01*
X0228986Y0300900D01*
X0231014Y0300900D01*
X0232889Y0301676D01*
X0234324Y0303111D01*
X0235000Y0304744D01*
X0235676Y0303111D01*
X0237111Y0301676D01*
X0238986Y0300900D01*
X0241014Y0300900D01*
X0242889Y0301676D01*
X0244324Y0303111D01*
X0245000Y0304744D01*
X0245676Y0303111D01*
X0247111Y0301676D01*
X0248986Y0300900D01*
X0251014Y0300900D01*
X0252889Y0301676D01*
X0254324Y0303111D01*
X0255000Y0304744D01*
X0255676Y0303111D01*
X0257111Y0301676D01*
X0258986Y0300900D01*
X0261014Y0300900D01*
X0262889Y0301676D01*
X0264324Y0303111D01*
X0265000Y0304744D01*
X0265676Y0303111D01*
X0267111Y0301676D01*
X0268986Y0300900D01*
X0271014Y0300900D01*
X0272889Y0301676D01*
X0274324Y0303111D01*
X0275000Y0304744D01*
X0275676Y0303111D01*
X0277111Y0301676D01*
X0277488Y0301520D02*
X0272512Y0301520D01*
X0274327Y0303119D02*
X0275673Y0303119D01*
X0275011Y0304717D02*
X0274989Y0304717D01*
X0274727Y0307914D02*
X0275273Y0307914D01*
X0276300Y0309513D02*
X0273700Y0309513D01*
X0266300Y0309513D02*
X0263700Y0309513D01*
X0264727Y0307914D02*
X0265273Y0307914D01*
X0265011Y0304717D02*
X0264989Y0304717D01*
X0264327Y0303119D02*
X0265673Y0303119D01*
X0267488Y0301520D02*
X0262512Y0301520D01*
X0257488Y0301520D02*
X0252512Y0301520D01*
X0254327Y0303119D02*
X0255673Y0303119D01*
X0255011Y0304717D02*
X0254989Y0304717D01*
X0254727Y0307914D02*
X0255273Y0307914D01*
X0256300Y0309513D02*
X0253700Y0309513D01*
X0246300Y0309513D02*
X0243700Y0309513D01*
X0244727Y0307914D02*
X0245273Y0307914D01*
X0245011Y0304717D02*
X0244989Y0304717D01*
X0244327Y0303119D02*
X0245673Y0303119D01*
X0247488Y0301520D02*
X0242512Y0301520D01*
X0237488Y0301520D02*
X0232512Y0301520D01*
X0234327Y0303119D02*
X0235673Y0303119D01*
X0235011Y0304717D02*
X0234989Y0304717D01*
X0234727Y0307914D02*
X0235273Y0307914D01*
X0236300Y0309513D02*
X0233700Y0309513D01*
X0226300Y0309513D02*
X0222260Y0309513D01*
X0222260Y0311111D02*
X0396276Y0311111D01*
X0396276Y0309513D02*
X0323700Y0309513D01*
X0324727Y0307914D02*
X0396276Y0307914D01*
X0396276Y0306316D02*
X0325100Y0306316D01*
X0324989Y0304717D02*
X0396276Y0304717D01*
X0396276Y0303119D02*
X0324327Y0303119D01*
X0322512Y0301520D02*
X0368406Y0301520D01*
X0368285Y0301399D02*
X0368285Y0295877D01*
X0369105Y0295057D01*
X0374627Y0295057D01*
X0375447Y0295877D01*
X0375447Y0301399D01*
X0374627Y0302219D01*
X0369105Y0302219D01*
X0368285Y0301399D01*
X0368285Y0299922D02*
X0335192Y0299922D01*
X0335290Y0299824D02*
X0334470Y0300644D01*
X0328948Y0300644D01*
X0328128Y0299824D01*
X0328128Y0294302D01*
X0328948Y0293482D01*
X0334470Y0293482D01*
X0335290Y0294302D01*
X0335290Y0299824D01*
X0335290Y0298323D02*
X0368285Y0298323D01*
X0368285Y0296725D02*
X0335290Y0296725D01*
X0335290Y0295126D02*
X0369036Y0295126D01*
X0374697Y0295126D02*
X0396276Y0295126D01*
X0396276Y0293528D02*
X0334515Y0293528D01*
X0328902Y0293528D02*
X0281759Y0293528D01*
X0282534Y0295126D02*
X0328128Y0295126D01*
X0328128Y0296725D02*
X0282534Y0296725D01*
X0282534Y0298323D02*
X0328128Y0298323D01*
X0328225Y0299922D02*
X0282436Y0299922D01*
X0282512Y0301520D02*
X0287488Y0301520D01*
X0285673Y0303119D02*
X0284327Y0303119D01*
X0284989Y0304717D02*
X0285011Y0304717D01*
X0285273Y0307914D02*
X0284727Y0307914D01*
X0283700Y0309513D02*
X0286300Y0309513D01*
X0293700Y0309513D02*
X0296300Y0309513D01*
X0295273Y0307914D02*
X0294727Y0307914D01*
X0294989Y0304717D02*
X0295011Y0304717D01*
X0295673Y0303119D02*
X0294327Y0303119D01*
X0292512Y0301520D02*
X0297488Y0301520D01*
X0302512Y0301520D02*
X0307488Y0301520D01*
X0305673Y0303119D02*
X0304327Y0303119D01*
X0304989Y0304717D02*
X0305011Y0304717D01*
X0305273Y0307914D02*
X0304727Y0307914D01*
X0303700Y0309513D02*
X0306300Y0309513D01*
X0313700Y0309513D02*
X0316300Y0309513D01*
X0315273Y0307914D02*
X0314727Y0307914D01*
X0314989Y0304717D02*
X0315011Y0304717D01*
X0315673Y0303119D02*
X0314327Y0303119D01*
X0312512Y0301520D02*
X0317488Y0301520D01*
X0334571Y0288732D02*
X0396276Y0288732D01*
X0396276Y0287134D02*
X0335290Y0287134D01*
X0335290Y0285535D02*
X0396276Y0285535D01*
X0396276Y0283937D02*
X0335290Y0283937D01*
X0335137Y0282338D02*
X0396276Y0282338D01*
X0396276Y0277542D02*
X0358124Y0277542D01*
X0358124Y0275944D02*
X0396276Y0275944D01*
X0396276Y0274345D02*
X0358124Y0274345D01*
X0357829Y0272747D02*
X0396276Y0272747D01*
X0415708Y0272747D02*
X0544200Y0272747D01*
X0544200Y0274345D02*
X0415691Y0274345D01*
X0415674Y0275944D02*
X0544200Y0275944D01*
X0544200Y0277542D02*
X0415657Y0277542D01*
X0415640Y0279141D02*
X0544200Y0279141D01*
X0544200Y0280739D02*
X0415623Y0280739D01*
X0415606Y0282338D02*
X0544200Y0282338D01*
X0544200Y0283937D02*
X0415589Y0283937D01*
X0415572Y0285535D02*
X0544200Y0285535D01*
X0544200Y0287134D02*
X0415555Y0287134D01*
X0415538Y0288732D02*
X0544200Y0288732D01*
X0544200Y0290331D02*
X0415521Y0290331D01*
X0415504Y0291929D02*
X0544200Y0291929D01*
X0544200Y0293528D02*
X0469935Y0293528D01*
X0469935Y0293515D02*
X0469115Y0292694D01*
X0463593Y0292694D01*
X0462773Y0293515D01*
X0462773Y0299037D01*
X0463593Y0299857D01*
X0469115Y0299857D01*
X0469935Y0299037D01*
X0469935Y0293515D01*
X0469935Y0295126D02*
X0544200Y0295126D01*
X0544200Y0296725D02*
X0469935Y0296725D01*
X0469935Y0298323D02*
X0505209Y0298323D01*
X0505326Y0298206D02*
X0510848Y0298206D01*
X0511668Y0299026D01*
X0511668Y0304548D01*
X0510848Y0305368D01*
X0505326Y0305368D01*
X0504506Y0304548D01*
X0504506Y0299026D01*
X0505326Y0298206D01*
X0504506Y0299922D02*
X0415419Y0299922D01*
X0415402Y0301520D02*
X0504506Y0301520D01*
X0504506Y0303119D02*
X0415385Y0303119D01*
X0415368Y0304717D02*
X0504674Y0304717D01*
X0511499Y0304717D02*
X0544200Y0304717D01*
X0544200Y0303119D02*
X0511668Y0303119D01*
X0511668Y0301520D02*
X0544200Y0301520D01*
X0544200Y0299922D02*
X0511668Y0299922D01*
X0510964Y0298323D02*
X0544200Y0298323D01*
X0544200Y0306316D02*
X0415351Y0306316D01*
X0415334Y0307914D02*
X0544200Y0307914D01*
X0544200Y0309513D02*
X0415317Y0309513D01*
X0415300Y0311111D02*
X0544200Y0311111D01*
X0544200Y0312710D02*
X0415283Y0312710D01*
X0415267Y0314200D02*
X0416151Y0231100D01*
X0418112Y0231100D01*
X0421100Y0228112D01*
X0421100Y0223888D01*
X0418212Y0221000D01*
X0421100Y0218112D01*
X0421100Y0213888D01*
X0418212Y0211000D01*
X0421100Y0208112D01*
X0421100Y0203888D01*
X0418112Y0200900D01*
X0416473Y0200900D01*
X0417463Y0107800D01*
X0544200Y0107800D01*
X0544200Y0314200D01*
X0415267Y0314200D01*
X0396276Y0314200D02*
X0396276Y0107800D01*
X0222260Y0107800D01*
X0222260Y0112025D01*
X0223461Y0113227D01*
X0223461Y0117907D01*
X0222260Y0119108D01*
X0222260Y0314200D01*
X0396276Y0314200D01*
X0396276Y0312710D02*
X0222260Y0312710D01*
X0222260Y0307914D02*
X0225273Y0307914D01*
X0224900Y0306316D02*
X0222260Y0306316D01*
X0222260Y0304717D02*
X0225011Y0304717D01*
X0225673Y0303119D02*
X0222260Y0303119D01*
X0222260Y0301520D02*
X0227488Y0301520D01*
X0222260Y0258360D02*
X0277734Y0258360D01*
X0277734Y0256762D02*
X0222260Y0256762D01*
X0222260Y0255163D02*
X0278290Y0255163D01*
X0280883Y0253565D02*
X0222260Y0253565D01*
X0222260Y0251966D02*
X0280883Y0251966D01*
X0280883Y0250368D02*
X0222260Y0250368D01*
X0222260Y0248769D02*
X0281534Y0248769D01*
X0281667Y0245572D02*
X0294376Y0245572D01*
X0294376Y0243974D02*
X0281746Y0243974D01*
X0281746Y0242375D02*
X0286427Y0242375D01*
X0286395Y0240777D02*
X0281746Y0240777D01*
X0280953Y0239178D02*
X0286395Y0239178D01*
X0286395Y0237580D02*
X0273872Y0237580D01*
X0273872Y0239178D02*
X0275377Y0239178D01*
X0274584Y0240777D02*
X0273865Y0240777D01*
X0274584Y0242375D02*
X0266754Y0242375D01*
X0259655Y0242375D02*
X0258124Y0242375D01*
X0258124Y0240777D02*
X0259624Y0240777D01*
X0259624Y0239178D02*
X0258124Y0239178D01*
X0258095Y0237580D02*
X0259624Y0237580D01*
X0265998Y0229587D02*
X0273521Y0229587D01*
X0275120Y0227989D02*
X0265998Y0227989D01*
X0265998Y0226390D02*
X0276718Y0226390D01*
X0278317Y0224792D02*
X0265998Y0224792D01*
X0275981Y0232784D02*
X0289651Y0232784D01*
X0289651Y0231186D02*
X0277580Y0231186D01*
X0279178Y0229587D02*
X0289651Y0229587D01*
X0289651Y0227989D02*
X0280777Y0227989D01*
X0282375Y0226390D02*
X0289651Y0226390D01*
X0289651Y0224792D02*
X0283974Y0224792D01*
X0285572Y0223193D02*
X0289651Y0223193D01*
X0287970Y0221595D02*
X0286465Y0221595D01*
X0286465Y0219996D02*
X0287970Y0219996D01*
X0287970Y0218398D02*
X0286465Y0218398D01*
X0286465Y0216799D02*
X0287970Y0216799D01*
X0286465Y0215201D02*
X0396276Y0215201D01*
X0396276Y0216799D02*
X0295132Y0216799D01*
X0295132Y0218398D02*
X0396276Y0218398D01*
X0396276Y0219996D02*
X0295132Y0219996D01*
X0295132Y0221595D02*
X0386662Y0221595D01*
X0386395Y0221861D02*
X0387215Y0221041D01*
X0392737Y0221041D01*
X0393557Y0221861D01*
X0393557Y0227383D01*
X0392737Y0228203D01*
X0387215Y0228203D01*
X0386395Y0227383D01*
X0386395Y0221861D01*
X0386395Y0223193D02*
X0293451Y0223193D01*
X0293451Y0224792D02*
X0304725Y0224792D01*
X0304506Y0225011D02*
X0305326Y0224191D01*
X0310848Y0224191D01*
X0311668Y0225011D01*
X0311668Y0230533D01*
X0310848Y0231353D01*
X0305326Y0231353D01*
X0304506Y0230533D01*
X0304506Y0225011D01*
X0304506Y0226390D02*
X0293451Y0226390D01*
X0293451Y0227989D02*
X0304506Y0227989D01*
X0304506Y0229587D02*
X0293451Y0229587D01*
X0293451Y0231186D02*
X0305158Y0231186D01*
X0311015Y0231186D02*
X0396276Y0231186D01*
X0396276Y0232784D02*
X0294526Y0232784D01*
X0296125Y0234383D02*
X0396276Y0234383D01*
X0396276Y0235981D02*
X0297723Y0235981D01*
X0298176Y0237580D02*
X0380125Y0237580D01*
X0380096Y0237609D02*
X0380916Y0236789D01*
X0386438Y0236789D01*
X0387258Y0237609D01*
X0387258Y0243131D01*
X0386438Y0243951D01*
X0380916Y0243951D01*
X0380096Y0243131D01*
X0380096Y0237609D01*
X0380096Y0239178D02*
X0298176Y0239178D01*
X0298176Y0240777D02*
X0380096Y0240777D01*
X0380096Y0242375D02*
X0298176Y0242375D01*
X0298176Y0243974D02*
X0396276Y0243974D01*
X0396276Y0245572D02*
X0298176Y0245572D01*
X0298176Y0247171D02*
X0396276Y0247171D01*
X0396276Y0248769D02*
X0298176Y0248769D01*
X0298176Y0250368D02*
X0300408Y0250368D01*
X0299781Y0251966D02*
X0298176Y0251966D01*
X0296791Y0253565D02*
X0299781Y0253565D01*
X0299781Y0255163D02*
X0295193Y0255163D01*
X0293594Y0256762D02*
X0300026Y0256762D01*
X0294376Y0242375D02*
X0293526Y0242375D01*
X0293557Y0240777D02*
X0294376Y0240777D01*
X0294376Y0239178D02*
X0293557Y0239178D01*
X0293557Y0237580D02*
X0293948Y0237580D01*
X0292349Y0235981D02*
X0273872Y0235981D01*
X0274383Y0234383D02*
X0290751Y0234383D01*
X0311668Y0229587D02*
X0396276Y0229587D01*
X0396276Y0227989D02*
X0392952Y0227989D01*
X0393557Y0226390D02*
X0396276Y0226390D01*
X0396276Y0224792D02*
X0393557Y0224792D01*
X0393557Y0223193D02*
X0396276Y0223193D01*
X0396276Y0221595D02*
X0393291Y0221595D01*
X0386395Y0224792D02*
X0311449Y0224792D01*
X0311668Y0226390D02*
X0386395Y0226390D01*
X0387001Y0227989D02*
X0311668Y0227989D01*
X0303402Y0213602D02*
X0396276Y0213602D01*
X0396276Y0212003D02*
X0303794Y0212003D01*
X0303794Y0210405D02*
X0396276Y0210405D01*
X0396276Y0208806D02*
X0303794Y0208806D01*
X0305071Y0207208D02*
X0396276Y0207208D01*
X0396276Y0205609D02*
X0305368Y0205609D01*
X0305368Y0204011D02*
X0396276Y0204011D01*
X0396276Y0202412D02*
X0305368Y0202412D01*
X0304794Y0200814D02*
X0396276Y0200814D01*
X0396276Y0199215D02*
X0222260Y0199215D01*
X0222260Y0197617D02*
X0396276Y0197617D01*
X0396276Y0196018D02*
X0222260Y0196018D01*
X0222260Y0194420D02*
X0351070Y0194420D01*
X0350962Y0194312D02*
X0350962Y0188790D01*
X0351707Y0188046D01*
X0347845Y0188046D01*
X0347025Y0187226D01*
X0347025Y0181704D01*
X0347845Y0180883D01*
X0353367Y0180883D01*
X0354187Y0181704D01*
X0354187Y0187226D01*
X0353443Y0187970D01*
X0357304Y0187970D01*
X0358124Y0188790D01*
X0358124Y0194312D01*
X0357304Y0195132D01*
X0351782Y0195132D01*
X0350962Y0194312D01*
X0350962Y0192821D02*
X0222260Y0192821D01*
X0222260Y0191223D02*
X0296658Y0191223D01*
X0297754Y0192319D02*
X0294444Y0189010D01*
X0294444Y0184329D01*
X0297754Y0181019D01*
X0302435Y0181019D01*
X0305744Y0184329D01*
X0305744Y0189010D01*
X0302435Y0192319D01*
X0297754Y0192319D01*
X0295059Y0189624D02*
X0222260Y0189624D01*
X0222260Y0188026D02*
X0294444Y0188026D01*
X0294444Y0186427D02*
X0222260Y0186427D01*
X0222260Y0184829D02*
X0294444Y0184829D01*
X0295543Y0183230D02*
X0222260Y0183230D01*
X0222260Y0181632D02*
X0297142Y0181632D01*
X0303047Y0181632D02*
X0328915Y0181632D01*
X0328915Y0180916D02*
X0329735Y0180096D01*
X0335257Y0180096D01*
X0336077Y0180916D01*
X0336077Y0186438D01*
X0335257Y0187258D01*
X0329735Y0187258D01*
X0328915Y0186438D01*
X0328915Y0180916D01*
X0328915Y0183230D02*
X0304646Y0183230D01*
X0305744Y0184829D02*
X0328915Y0184829D01*
X0328915Y0186427D02*
X0305744Y0186427D01*
X0305744Y0188026D02*
X0347825Y0188026D01*
X0347025Y0186427D02*
X0336077Y0186427D01*
X0336077Y0184829D02*
X0347025Y0184829D01*
X0347025Y0183230D02*
X0336077Y0183230D01*
X0336077Y0181632D02*
X0347097Y0181632D01*
X0341157Y0182102D02*
X0341157Y0180528D01*
X0340370Y0181315D01*
X0350962Y0189624D02*
X0305130Y0189624D01*
X0303531Y0191223D02*
X0350962Y0191223D01*
X0354187Y0186427D02*
X0360400Y0186427D01*
X0360444Y0186471D02*
X0359624Y0185651D01*
X0359624Y0180129D01*
X0360444Y0179309D01*
X0365966Y0179309D01*
X0366786Y0180129D01*
X0366786Y0185651D01*
X0365966Y0186471D01*
X0360444Y0186471D01*
X0359624Y0184829D02*
X0354187Y0184829D01*
X0354187Y0183230D02*
X0359624Y0183230D01*
X0359624Y0181632D02*
X0354116Y0181632D01*
X0359719Y0180033D02*
X0222260Y0180033D01*
X0222260Y0178435D02*
X0396276Y0178435D01*
X0396276Y0180033D02*
X0366690Y0180033D01*
X0366786Y0181632D02*
X0396276Y0181632D01*
X0396276Y0183230D02*
X0366786Y0183230D01*
X0366786Y0184829D02*
X0396276Y0184829D01*
X0396276Y0186427D02*
X0366009Y0186427D01*
X0365956Y0187970D02*
X0371478Y0187970D01*
X0372298Y0188790D01*
X0372298Y0194312D01*
X0371478Y0195132D01*
X0365956Y0195132D01*
X0365135Y0194312D01*
X0365135Y0188790D01*
X0365956Y0187970D01*
X0365900Y0188026D02*
X0357360Y0188026D01*
X0358124Y0189624D02*
X0365135Y0189624D01*
X0365135Y0191223D02*
X0358124Y0191223D01*
X0358124Y0192821D02*
X0365135Y0192821D01*
X0365243Y0194420D02*
X0358017Y0194420D01*
X0372190Y0194420D02*
X0396276Y0194420D01*
X0396276Y0192821D02*
X0372298Y0192821D01*
X0372298Y0191223D02*
X0396276Y0191223D01*
X0396276Y0189624D02*
X0372298Y0189624D01*
X0371533Y0188026D02*
X0396276Y0188026D01*
X0388402Y0185252D02*
X0388402Y0183677D01*
X0396276Y0176836D02*
X0222260Y0176836D01*
X0222260Y0175238D02*
X0396276Y0175238D01*
X0396276Y0173639D02*
X0222260Y0173639D01*
X0222260Y0172041D02*
X0283021Y0172041D01*
X0283278Y0172298D02*
X0282458Y0171478D01*
X0282458Y0165956D01*
X0283278Y0165135D01*
X0288800Y0165135D01*
X0289620Y0165956D01*
X0289620Y0171478D01*
X0288800Y0172298D01*
X0283278Y0172298D01*
X0282458Y0170442D02*
X0265459Y0170442D01*
X0265178Y0170723D02*
X0265998Y0169903D01*
X0265998Y0164381D01*
X0265178Y0163561D01*
X0259656Y0163561D01*
X0258836Y0164381D01*
X0258836Y0169903D01*
X0259656Y0170723D01*
X0265178Y0170723D01*
X0265998Y0168844D02*
X0282458Y0168844D01*
X0282458Y0167245D02*
X0265998Y0167245D01*
X0265998Y0165647D02*
X0282767Y0165647D01*
X0289312Y0165647D02*
X0396276Y0165647D01*
X0396276Y0167245D02*
X0289620Y0167245D01*
X0289620Y0168844D02*
X0396276Y0168844D01*
X0396276Y0170442D02*
X0289620Y0170442D01*
X0289057Y0172041D02*
X0396276Y0172041D01*
X0396276Y0164048D02*
X0265666Y0164048D01*
X0259169Y0164048D02*
X0222260Y0164048D01*
X0222260Y0162450D02*
X0396276Y0162450D01*
X0396276Y0160851D02*
X0222260Y0160851D01*
X0222260Y0159253D02*
X0396276Y0159253D01*
X0396276Y0157654D02*
X0222260Y0157654D01*
X0222260Y0156056D02*
X0396276Y0156056D01*
X0396276Y0154457D02*
X0222260Y0154457D01*
X0222260Y0152859D02*
X0396276Y0152859D01*
X0396276Y0151260D02*
X0222260Y0151260D01*
X0222260Y0149662D02*
X0396276Y0149662D01*
X0396276Y0148063D02*
X0289620Y0148063D01*
X0289620Y0148643D02*
X0288800Y0149463D01*
X0283278Y0149463D01*
X0282458Y0148643D01*
X0282458Y0143121D01*
X0283278Y0142301D01*
X0288800Y0142301D01*
X0289620Y0143121D01*
X0289620Y0148643D01*
X0289620Y0146465D02*
X0396276Y0146465D01*
X0396276Y0144866D02*
X0289620Y0144866D01*
X0289620Y0143268D02*
X0396276Y0143268D01*
X0396276Y0141669D02*
X0222260Y0141669D01*
X0222260Y0140070D02*
X0360017Y0140070D01*
X0360017Y0140375D02*
X0360017Y0134853D01*
X0360837Y0134033D01*
X0366359Y0134033D01*
X0367180Y0134853D01*
X0367180Y0140375D01*
X0366359Y0141195D01*
X0360837Y0141195D01*
X0360017Y0140375D01*
X0360017Y0138472D02*
X0222260Y0138472D01*
X0222260Y0136873D02*
X0360017Y0136873D01*
X0360017Y0135275D02*
X0222260Y0135275D01*
X0222260Y0133676D02*
X0396276Y0133676D01*
X0396276Y0132078D02*
X0269965Y0132078D01*
X0269903Y0132140D02*
X0264381Y0132140D01*
X0263561Y0131320D01*
X0263561Y0125798D01*
X0264381Y0124978D01*
X0269903Y0124978D01*
X0270723Y0125798D01*
X0270723Y0131320D01*
X0269903Y0132140D01*
X0270723Y0130479D02*
X0396276Y0130479D01*
X0396276Y0128881D02*
X0270723Y0128881D01*
X0270723Y0127282D02*
X0396276Y0127282D01*
X0396276Y0125684D02*
X0270609Y0125684D01*
X0268889Y0120324D02*
X0267014Y0121100D01*
X0264986Y0121100D01*
X0263111Y0120324D01*
X0261676Y0118889D01*
X0260900Y0117014D01*
X0260900Y0114986D01*
X0261676Y0113111D01*
X0263111Y0111676D01*
X0264986Y0110900D01*
X0267014Y0110900D01*
X0268889Y0111676D01*
X0270324Y0113111D01*
X0271000Y0114744D01*
X0271676Y0113111D01*
X0273111Y0111676D01*
X0274986Y0110900D01*
X0277014Y0110900D01*
X0278889Y0111676D01*
X0280324Y0113111D01*
X0281000Y0114744D01*
X0281676Y0113111D01*
X0283111Y0111676D01*
X0284986Y0110900D01*
X0287014Y0110900D01*
X0288889Y0111676D01*
X0290324Y0113111D01*
X0291000Y0114744D01*
X0291676Y0113111D01*
X0293111Y0111676D01*
X0294986Y0110900D01*
X0297014Y0110900D01*
X0298889Y0111676D01*
X0300324Y0113111D01*
X0301000Y0114744D01*
X0301676Y0113111D01*
X0303111Y0111676D01*
X0304986Y0110900D01*
X0307014Y0110900D01*
X0308889Y0111676D01*
X0310324Y0113111D01*
X0311000Y0114744D01*
X0311676Y0113111D01*
X0313111Y0111676D01*
X0314986Y0110900D01*
X0317014Y0110900D01*
X0318889Y0111676D01*
X0320324Y0113111D01*
X0321000Y0114744D01*
X0321676Y0113111D01*
X0323111Y0111676D01*
X0324986Y0110900D01*
X0327014Y0110900D01*
X0328889Y0111676D01*
X0330324Y0113111D01*
X0331000Y0114744D01*
X0331676Y0113111D01*
X0333111Y0111676D01*
X0334986Y0110900D01*
X0337014Y0110900D01*
X0338889Y0111676D01*
X0340324Y0113111D01*
X0341100Y0114986D01*
X0341100Y0117014D01*
X0340324Y0118889D01*
X0338889Y0120324D01*
X0337014Y0121100D01*
X0334986Y0121100D01*
X0333111Y0120324D01*
X0331676Y0118889D01*
X0331000Y0117256D01*
X0330324Y0118889D01*
X0328889Y0120324D01*
X0327014Y0121100D01*
X0324986Y0121100D01*
X0323111Y0120324D01*
X0321676Y0118889D01*
X0321000Y0117256D01*
X0320324Y0118889D01*
X0318889Y0120324D01*
X0317014Y0121100D01*
X0314986Y0121100D01*
X0313111Y0120324D01*
X0311676Y0118889D01*
X0311000Y0117256D01*
X0310324Y0118889D01*
X0308889Y0120324D01*
X0307014Y0121100D01*
X0304986Y0121100D01*
X0303111Y0120324D01*
X0301676Y0118889D01*
X0301000Y0117256D01*
X0300324Y0118889D01*
X0298889Y0120324D01*
X0297014Y0121100D01*
X0294986Y0121100D01*
X0293111Y0120324D01*
X0291676Y0118889D01*
X0291000Y0117256D01*
X0290324Y0118889D01*
X0288889Y0120324D01*
X0287014Y0121100D01*
X0284986Y0121100D01*
X0283111Y0120324D01*
X0281676Y0118889D01*
X0281000Y0117256D01*
X0280324Y0118889D01*
X0278889Y0120324D01*
X0277014Y0121100D01*
X0274986Y0121100D01*
X0273111Y0120324D01*
X0271676Y0118889D01*
X0271000Y0117256D01*
X0270324Y0118889D01*
X0268889Y0120324D01*
X0269923Y0119290D02*
X0272077Y0119290D01*
X0271180Y0117691D02*
X0270820Y0117691D01*
X0270897Y0114494D02*
X0271103Y0114494D01*
X0271892Y0112896D02*
X0270108Y0112896D01*
X0267974Y0111297D02*
X0274026Y0111297D01*
X0277974Y0111297D02*
X0284026Y0111297D01*
X0281892Y0112896D02*
X0280108Y0112896D01*
X0280896Y0114494D02*
X0281103Y0114494D01*
X0281180Y0117691D02*
X0280820Y0117691D01*
X0279923Y0119290D02*
X0282077Y0119290D01*
X0284475Y0120888D02*
X0277525Y0120888D01*
X0274475Y0120888D02*
X0267525Y0120888D01*
X0264475Y0120888D02*
X0250659Y0120888D01*
X0249534Y0122014D02*
X0247445Y0122014D01*
X0247445Y0116264D01*
X0246445Y0116264D01*
X0246445Y0122014D01*
X0244356Y0122014D01*
X0240695Y0118353D01*
X0240695Y0116264D01*
X0246445Y0116264D01*
X0246445Y0115264D01*
X0240695Y0115264D01*
X0240695Y0113175D01*
X0244356Y0109514D01*
X0246445Y0109514D01*
X0246445Y0115264D01*
X0247445Y0115264D01*
X0247445Y0116264D01*
X0253195Y0116264D01*
X0253195Y0118353D01*
X0249534Y0122014D01*
X0247445Y0120888D02*
X0246445Y0120888D01*
X0246445Y0119290D02*
X0247445Y0119290D01*
X0247445Y0117691D02*
X0246445Y0117691D01*
X0246445Y0116093D02*
X0237162Y0116093D01*
X0237162Y0117691D02*
X0240695Y0117691D01*
X0241632Y0119290D02*
X0235779Y0119290D01*
X0237162Y0117907D02*
X0233852Y0121217D01*
X0229172Y0121217D01*
X0225862Y0117907D01*
X0225862Y0113227D01*
X0229172Y0109917D01*
X0233852Y0109917D01*
X0237162Y0113227D01*
X0237162Y0117907D01*
X0237162Y0114494D02*
X0240695Y0114494D01*
X0240974Y0112896D02*
X0236831Y0112896D01*
X0235232Y0111297D02*
X0242573Y0111297D01*
X0244171Y0109699D02*
X0222260Y0109699D01*
X0222260Y0111297D02*
X0227791Y0111297D01*
X0226193Y0112896D02*
X0223130Y0112896D01*
X0223461Y0114494D02*
X0225862Y0114494D01*
X0225862Y0116093D02*
X0223461Y0116093D01*
X0223461Y0117691D02*
X0225862Y0117691D01*
X0227244Y0119290D02*
X0222260Y0119290D01*
X0222260Y0120888D02*
X0228843Y0120888D01*
X0234181Y0120888D02*
X0243231Y0120888D01*
X0247445Y0116093D02*
X0260900Y0116093D01*
X0261103Y0114494D02*
X0253195Y0114494D01*
X0253195Y0115264D02*
X0253195Y0113175D01*
X0249534Y0109514D01*
X0247445Y0109514D01*
X0247445Y0115264D01*
X0253195Y0115264D01*
X0252916Y0112896D02*
X0261892Y0112896D01*
X0264026Y0111297D02*
X0251317Y0111297D01*
X0249719Y0109699D02*
X0396276Y0109699D01*
X0396276Y0111297D02*
X0337974Y0111297D01*
X0340108Y0112896D02*
X0396276Y0112896D01*
X0396276Y0114494D02*
X0340897Y0114494D01*
X0341100Y0116093D02*
X0396276Y0116093D01*
X0396276Y0117691D02*
X0340820Y0117691D01*
X0339923Y0119290D02*
X0396276Y0119290D01*
X0396276Y0120888D02*
X0337525Y0120888D01*
X0334475Y0120888D02*
X0327525Y0120888D01*
X0329923Y0119290D02*
X0332077Y0119290D01*
X0331180Y0117691D02*
X0330820Y0117691D01*
X0330897Y0114494D02*
X0331103Y0114494D01*
X0331892Y0112896D02*
X0330108Y0112896D01*
X0327974Y0111297D02*
X0334026Y0111297D01*
X0324026Y0111297D02*
X0317974Y0111297D01*
X0320108Y0112896D02*
X0321892Y0112896D01*
X0321103Y0114494D02*
X0320897Y0114494D01*
X0320820Y0117691D02*
X0321180Y0117691D01*
X0322077Y0119290D02*
X0319923Y0119290D01*
X0317525Y0120888D02*
X0324475Y0120888D01*
X0314475Y0120888D02*
X0307525Y0120888D01*
X0309923Y0119290D02*
X0312077Y0119290D01*
X0311180Y0117691D02*
X0310820Y0117691D01*
X0310897Y0114494D02*
X0311103Y0114494D01*
X0311892Y0112896D02*
X0310108Y0112896D01*
X0307974Y0111297D02*
X0314026Y0111297D01*
X0304026Y0111297D02*
X0297974Y0111297D01*
X0300108Y0112896D02*
X0301892Y0112896D01*
X0301103Y0114494D02*
X0300897Y0114494D01*
X0300820Y0117691D02*
X0301180Y0117691D01*
X0302077Y0119290D02*
X0299923Y0119290D01*
X0297525Y0120888D02*
X0304475Y0120888D01*
X0294475Y0120888D02*
X0287525Y0120888D01*
X0289923Y0119290D02*
X0292077Y0119290D01*
X0291180Y0117691D02*
X0290820Y0117691D01*
X0290897Y0114494D02*
X0291103Y0114494D01*
X0291892Y0112896D02*
X0290108Y0112896D01*
X0287974Y0111297D02*
X0294026Y0111297D01*
X0262077Y0119290D02*
X0252258Y0119290D01*
X0253195Y0117691D02*
X0261180Y0117691D01*
X0263675Y0125684D02*
X0222260Y0125684D01*
X0222260Y0127282D02*
X0263561Y0127282D01*
X0263561Y0128881D02*
X0222260Y0128881D01*
X0222260Y0130479D02*
X0263561Y0130479D01*
X0264319Y0132078D02*
X0222260Y0132078D01*
X0222260Y0124085D02*
X0396276Y0124085D01*
X0396276Y0122487D02*
X0222260Y0122487D01*
X0222260Y0108100D02*
X0396276Y0108100D01*
X0417460Y0108100D02*
X0544200Y0108100D01*
X0544200Y0109699D02*
X0417443Y0109699D01*
X0417426Y0111297D02*
X0544200Y0111297D01*
X0544200Y0112896D02*
X0417409Y0112896D01*
X0417392Y0114494D02*
X0544200Y0114494D01*
X0544200Y0116093D02*
X0518498Y0116093D01*
X0518754Y0116349D02*
X0517934Y0115529D01*
X0512412Y0115529D01*
X0511592Y0116349D01*
X0511592Y0121871D01*
X0512412Y0122691D01*
X0517934Y0122691D01*
X0518754Y0121871D01*
X0518754Y0116349D01*
X0518754Y0117691D02*
X0544200Y0117691D01*
X0544200Y0119290D02*
X0518754Y0119290D01*
X0518754Y0120888D02*
X0544200Y0120888D01*
X0544200Y0122487D02*
X0518139Y0122487D01*
X0512208Y0122487D02*
X0448975Y0122487D01*
X0448701Y0123148D02*
X0449427Y0121397D01*
X0449427Y0119501D01*
X0448701Y0117749D01*
X0447361Y0116409D01*
X0445609Y0115683D01*
X0443714Y0115683D01*
X0441962Y0116409D01*
X0440622Y0117749D01*
X0439896Y0119501D01*
X0439896Y0121397D01*
X0440622Y0123148D01*
X0441962Y0124489D01*
X0443631Y0125180D01*
X0443405Y0125216D01*
X0442602Y0125477D01*
X0441849Y0125860D01*
X0441166Y0126356D01*
X0440569Y0126954D01*
X0440073Y0127637D01*
X0439689Y0128389D01*
X0439428Y0129192D01*
X0439296Y0130027D01*
X0439296Y0130166D01*
X0444379Y0130166D01*
X0444379Y0130731D01*
X0439296Y0130731D01*
X0439296Y0130871D01*
X0439428Y0131705D01*
X0439689Y0132508D01*
X0440073Y0133261D01*
X0440569Y0133944D01*
X0441166Y0134541D01*
X0441849Y0135038D01*
X0442602Y0135421D01*
X0443405Y0135682D01*
X0443631Y0135718D01*
X0441962Y0136409D01*
X0440622Y0137749D01*
X0439896Y0139501D01*
X0439896Y0141397D01*
X0440622Y0143148D01*
X0441962Y0144489D01*
X0443714Y0145214D01*
X0445609Y0145214D01*
X0447361Y0144489D01*
X0448701Y0143148D01*
X0449427Y0141397D01*
X0449427Y0139501D01*
X0448701Y0137749D01*
X0447361Y0136409D01*
X0445692Y0135718D01*
X0445918Y0135682D01*
X0446721Y0135421D01*
X0447473Y0135038D01*
X0448157Y0134541D01*
X0448754Y0133944D01*
X0449250Y0133261D01*
X0449634Y0132508D01*
X0449895Y0131705D01*
X0450027Y0130871D01*
X0450027Y0130731D01*
X0444944Y0130731D01*
X0444944Y0130166D01*
X0450027Y0130166D01*
X0450027Y0130027D01*
X0449895Y0129192D01*
X0449634Y0128389D01*
X0449250Y0127637D01*
X0448754Y0126954D01*
X0448157Y0126356D01*
X0447473Y0125860D01*
X0446721Y0125477D01*
X0445918Y0125216D01*
X0445692Y0125180D01*
X0447361Y0124489D01*
X0448701Y0123148D01*
X0447764Y0124085D02*
X0544200Y0124085D01*
X0544200Y0125684D02*
X0447128Y0125684D01*
X0448993Y0127282D02*
X0544200Y0127282D01*
X0544200Y0128881D02*
X0449793Y0128881D01*
X0449774Y0132078D02*
X0492694Y0132078D01*
X0492694Y0131310D02*
X0493515Y0130490D01*
X0499037Y0130490D01*
X0499857Y0131310D01*
X0499857Y0136832D01*
X0499037Y0137652D01*
X0493515Y0137652D01*
X0492694Y0136832D01*
X0492694Y0131310D01*
X0492694Y0133676D02*
X0448948Y0133676D01*
X0447008Y0135275D02*
X0492694Y0135275D01*
X0492736Y0136873D02*
X0447825Y0136873D01*
X0449001Y0138472D02*
X0544200Y0138472D01*
X0544200Y0140070D02*
X0449427Y0140070D01*
X0449314Y0141669D02*
X0522493Y0141669D01*
X0522648Y0141513D02*
X0528170Y0141513D01*
X0528991Y0142333D01*
X0528991Y0147855D01*
X0528170Y0148676D01*
X0522648Y0148676D01*
X0521828Y0147855D01*
X0521828Y0142333D01*
X0522648Y0141513D01*
X0521828Y0143268D02*
X0448582Y0143268D01*
X0446450Y0144866D02*
X0521828Y0144866D01*
X0521828Y0146465D02*
X0417052Y0146465D01*
X0417035Y0148063D02*
X0522036Y0148063D01*
X0528783Y0148063D02*
X0544200Y0148063D01*
X0544200Y0146465D02*
X0528991Y0146465D01*
X0528991Y0144866D02*
X0544200Y0144866D01*
X0544200Y0143268D02*
X0528991Y0143268D01*
X0528326Y0141669D02*
X0544200Y0141669D01*
X0544200Y0136873D02*
X0499815Y0136873D01*
X0499857Y0135275D02*
X0544200Y0135275D01*
X0544200Y0133676D02*
X0499857Y0133676D01*
X0499857Y0132078D02*
X0544200Y0132078D01*
X0544200Y0130479D02*
X0444944Y0130479D01*
X0444379Y0130479D02*
X0429427Y0130479D01*
X0429427Y0131397D02*
X0429427Y0129501D01*
X0428701Y0127749D01*
X0427361Y0126409D01*
X0425609Y0125683D01*
X0423714Y0125683D01*
X0421962Y0126409D01*
X0420622Y0127749D01*
X0419896Y0129501D01*
X0419896Y0131397D01*
X0420622Y0133148D01*
X0421962Y0134489D01*
X0423714Y0135214D01*
X0425609Y0135214D01*
X0427361Y0134489D01*
X0428701Y0133148D01*
X0429427Y0131397D01*
X0429145Y0132078D02*
X0439549Y0132078D01*
X0440374Y0133676D02*
X0428173Y0133676D01*
X0427361Y0136409D02*
X0428701Y0137749D01*
X0429427Y0139501D01*
X0429427Y0141397D01*
X0428701Y0143148D01*
X0427361Y0144489D01*
X0425609Y0145214D01*
X0423714Y0145214D01*
X0421962Y0144489D01*
X0420622Y0143148D01*
X0419896Y0141397D01*
X0419896Y0139501D01*
X0420622Y0137749D01*
X0421962Y0136409D01*
X0423714Y0135683D01*
X0425609Y0135683D01*
X0427361Y0136409D01*
X0427825Y0136873D02*
X0441498Y0136873D01*
X0442315Y0135275D02*
X0417171Y0135275D01*
X0417154Y0136873D02*
X0421498Y0136873D01*
X0420322Y0138472D02*
X0417137Y0138472D01*
X0417120Y0140070D02*
X0419896Y0140070D01*
X0420009Y0141669D02*
X0417103Y0141669D01*
X0417086Y0143268D02*
X0420741Y0143268D01*
X0422873Y0144866D02*
X0417069Y0144866D01*
X0417018Y0149662D02*
X0544200Y0149662D01*
X0544200Y0151260D02*
X0417001Y0151260D01*
X0416984Y0152859D02*
X0544200Y0152859D01*
X0544200Y0154457D02*
X0416967Y0154457D01*
X0416950Y0156056D02*
X0544200Y0156056D01*
X0544200Y0157654D02*
X0416933Y0157654D01*
X0416916Y0159253D02*
X0440726Y0159253D01*
X0440726Y0158869D02*
X0441546Y0158049D01*
X0447068Y0158049D01*
X0447888Y0158869D01*
X0447888Y0164391D01*
X0447068Y0165211D01*
X0441546Y0165211D01*
X0440726Y0164391D01*
X0440726Y0158869D01*
X0440726Y0160851D02*
X0416899Y0160851D01*
X0416882Y0162450D02*
X0440726Y0162450D01*
X0440726Y0164048D02*
X0416865Y0164048D01*
X0416848Y0165647D02*
X0544200Y0165647D01*
X0544200Y0167245D02*
X0416831Y0167245D01*
X0416814Y0168844D02*
X0544200Y0168844D01*
X0544200Y0170442D02*
X0416797Y0170442D01*
X0416780Y0172041D02*
X0544200Y0172041D01*
X0544200Y0173639D02*
X0416763Y0173639D01*
X0416746Y0175238D02*
X0544200Y0175238D01*
X0544200Y0176836D02*
X0416729Y0176836D01*
X0416712Y0178435D02*
X0544200Y0178435D01*
X0544200Y0180033D02*
X0416695Y0180033D01*
X0416678Y0181632D02*
X0544200Y0181632D01*
X0544200Y0183230D02*
X0416661Y0183230D01*
X0416644Y0184829D02*
X0544200Y0184829D01*
X0544200Y0186427D02*
X0481317Y0186427D01*
X0481240Y0186395D02*
X0482556Y0186940D01*
X0483563Y0187948D01*
X0484109Y0189264D01*
X0484109Y0190689D01*
X0483563Y0192005D01*
X0482556Y0193012D01*
X0481240Y0193557D01*
X0479815Y0193557D01*
X0478499Y0193012D01*
X0477492Y0192005D01*
X0476946Y0190689D01*
X0476946Y0189264D01*
X0477492Y0187948D01*
X0478499Y0186940D01*
X0479815Y0186395D01*
X0481240Y0186395D01*
X0479738Y0186427D02*
X0416627Y0186427D01*
X0416610Y0188026D02*
X0477459Y0188026D01*
X0476946Y0189624D02*
X0416593Y0189624D01*
X0416576Y0191223D02*
X0477168Y0191223D01*
X0478308Y0192821D02*
X0473872Y0192821D01*
X0473872Y0192727D02*
X0473872Y0198249D01*
X0473052Y0199069D01*
X0467530Y0199069D01*
X0466710Y0198249D01*
X0466710Y0197688D01*
X0458518Y0197688D01*
X0458518Y0198249D01*
X0457698Y0199069D01*
X0452176Y0199069D01*
X0451356Y0198249D01*
X0451356Y0192727D01*
X0452176Y0191907D01*
X0457698Y0191907D01*
X0458518Y0192727D01*
X0458518Y0193288D01*
X0466710Y0193288D01*
X0466710Y0192727D01*
X0467530Y0191907D01*
X0473052Y0191907D01*
X0473872Y0192727D01*
X0473872Y0194420D02*
X0505980Y0194420D01*
X0505980Y0196018D02*
X0473872Y0196018D01*
X0473872Y0197617D02*
X0506516Y0197617D01*
X0505980Y0197080D02*
X0505980Y0192400D01*
X0509290Y0189090D01*
X0513970Y0189090D01*
X0517280Y0192400D01*
X0517280Y0192438D01*
X0520313Y0189405D01*
X0524994Y0189405D01*
X0528304Y0192715D01*
X0528304Y0197395D01*
X0524994Y0200705D01*
X0520313Y0200705D01*
X0517004Y0197395D01*
X0517004Y0197357D01*
X0513970Y0200390D01*
X0509290Y0200390D01*
X0505980Y0197080D01*
X0508115Y0199215D02*
X0416491Y0199215D01*
X0416508Y0197617D02*
X0451356Y0197617D01*
X0451356Y0196018D02*
X0416525Y0196018D01*
X0416542Y0194420D02*
X0451356Y0194420D01*
X0451356Y0192821D02*
X0416559Y0192821D01*
X0416474Y0200814D02*
X0544200Y0200814D01*
X0544200Y0202412D02*
X0419625Y0202412D01*
X0421100Y0204011D02*
X0544200Y0204011D01*
X0544200Y0205609D02*
X0529982Y0205609D01*
X0530991Y0206618D02*
X0528413Y0204041D01*
X0524768Y0204041D01*
X0522191Y0206618D01*
X0522191Y0210263D01*
X0524768Y0212841D01*
X0528413Y0212841D01*
X0530991Y0210263D01*
X0530991Y0206618D01*
X0530991Y0207208D02*
X0544200Y0207208D01*
X0544200Y0208806D02*
X0530991Y0208806D01*
X0530849Y0210405D02*
X0544200Y0210405D01*
X0544200Y0212003D02*
X0529251Y0212003D01*
X0528413Y0214041D02*
X0530991Y0216618D01*
X0530991Y0220263D01*
X0528413Y0222841D01*
X0524768Y0222841D01*
X0522191Y0220263D01*
X0522191Y0216618D01*
X0524768Y0214041D01*
X0528413Y0214041D01*
X0529573Y0215201D02*
X0544200Y0215201D01*
X0544200Y0216799D02*
X0530991Y0216799D01*
X0530991Y0218398D02*
X0544200Y0218398D01*
X0544200Y0219996D02*
X0530991Y0219996D01*
X0529659Y0221595D02*
X0544200Y0221595D01*
X0544200Y0223193D02*
X0498782Y0223193D01*
X0497317Y0221728D02*
X0500626Y0225038D01*
X0500626Y0229718D01*
X0497317Y0233028D01*
X0492636Y0233028D01*
X0489326Y0229718D01*
X0489326Y0225038D01*
X0492636Y0221728D01*
X0497317Y0221728D01*
X0500380Y0224792D02*
X0544200Y0224792D01*
X0544200Y0226390D02*
X0500626Y0226390D01*
X0500626Y0227989D02*
X0544200Y0227989D01*
X0544200Y0229587D02*
X0500626Y0229587D01*
X0499159Y0231186D02*
X0544200Y0231186D01*
X0544200Y0232784D02*
X0497560Y0232784D01*
X0492392Y0232784D02*
X0416133Y0232784D01*
X0416150Y0231186D02*
X0490794Y0231186D01*
X0489326Y0229587D02*
X0419625Y0229587D01*
X0421100Y0227989D02*
X0489326Y0227989D01*
X0489326Y0226390D02*
X0421100Y0226390D01*
X0421100Y0224792D02*
X0489572Y0224792D01*
X0491171Y0223193D02*
X0420406Y0223193D01*
X0418807Y0221595D02*
X0503522Y0221595D01*
X0504768Y0222841D02*
X0502191Y0220263D01*
X0502191Y0216618D01*
X0504768Y0214041D01*
X0508413Y0214041D01*
X0510991Y0216618D01*
X0510991Y0220263D01*
X0508413Y0222841D01*
X0504768Y0222841D01*
X0502191Y0219996D02*
X0419216Y0219996D01*
X0420815Y0218398D02*
X0502191Y0218398D01*
X0502191Y0216799D02*
X0421100Y0216799D01*
X0421100Y0215201D02*
X0474213Y0215201D01*
X0474617Y0215605D02*
X0473797Y0214785D01*
X0473797Y0209263D01*
X0474617Y0208443D01*
X0480139Y0208443D01*
X0480959Y0209263D01*
X0480959Y0214785D01*
X0480139Y0215605D01*
X0474617Y0215605D01*
X0473797Y0213602D02*
X0420814Y0213602D01*
X0419216Y0212003D02*
X0473797Y0212003D01*
X0473797Y0210405D02*
X0418807Y0210405D01*
X0420406Y0208806D02*
X0474253Y0208806D01*
X0480503Y0208806D02*
X0502191Y0208806D01*
X0502191Y0210263D02*
X0502191Y0206618D01*
X0504768Y0204041D01*
X0508413Y0204041D01*
X0510991Y0206618D01*
X0510991Y0210263D01*
X0508413Y0212841D01*
X0504768Y0212841D01*
X0502191Y0210263D01*
X0502332Y0210405D02*
X0480959Y0210405D01*
X0480959Y0212003D02*
X0503931Y0212003D01*
X0503608Y0215201D02*
X0480543Y0215201D01*
X0480959Y0213602D02*
X0544200Y0213602D01*
X0544200Y0199215D02*
X0526484Y0199215D01*
X0528082Y0197617D02*
X0544200Y0197617D01*
X0544200Y0196018D02*
X0528304Y0196018D01*
X0528304Y0194420D02*
X0544200Y0194420D01*
X0544200Y0192821D02*
X0528304Y0192821D01*
X0526812Y0191223D02*
X0544200Y0191223D01*
X0544200Y0189624D02*
X0525213Y0189624D01*
X0520094Y0189624D02*
X0514504Y0189624D01*
X0516103Y0191223D02*
X0518496Y0191223D01*
X0517225Y0197617D02*
X0516743Y0197617D01*
X0515145Y0199215D02*
X0518824Y0199215D01*
X0518413Y0204041D02*
X0514768Y0204041D01*
X0512191Y0206618D01*
X0512191Y0210263D01*
X0514768Y0212841D01*
X0518413Y0212841D01*
X0520991Y0210263D01*
X0520991Y0206618D01*
X0518413Y0204041D01*
X0519982Y0205609D02*
X0523200Y0205609D01*
X0522191Y0207208D02*
X0520991Y0207208D01*
X0520991Y0208806D02*
X0522191Y0208806D01*
X0522332Y0210405D02*
X0520849Y0210405D01*
X0519251Y0212003D02*
X0523931Y0212003D01*
X0523608Y0215201D02*
X0519573Y0215201D01*
X0518413Y0214041D02*
X0520991Y0216618D01*
X0520991Y0220263D01*
X0518413Y0222841D01*
X0514768Y0222841D01*
X0512191Y0220263D01*
X0512191Y0216618D01*
X0514768Y0214041D01*
X0518413Y0214041D01*
X0520991Y0216799D02*
X0522191Y0216799D01*
X0522191Y0218398D02*
X0520991Y0218398D01*
X0520991Y0219996D02*
X0522191Y0219996D01*
X0523522Y0221595D02*
X0519659Y0221595D01*
X0513522Y0221595D02*
X0509659Y0221595D01*
X0510991Y0219996D02*
X0512191Y0219996D01*
X0512191Y0218398D02*
X0510991Y0218398D01*
X0510991Y0216799D02*
X0512191Y0216799D01*
X0513608Y0215201D02*
X0509573Y0215201D01*
X0509251Y0212003D02*
X0513931Y0212003D01*
X0512332Y0210405D02*
X0510849Y0210405D01*
X0510991Y0208806D02*
X0512191Y0208806D01*
X0512191Y0207208D02*
X0510991Y0207208D01*
X0509982Y0205609D02*
X0513200Y0205609D01*
X0503200Y0205609D02*
X0421100Y0205609D01*
X0421100Y0207208D02*
X0502191Y0207208D01*
X0505980Y0192821D02*
X0482747Y0192821D01*
X0483887Y0191223D02*
X0507157Y0191223D01*
X0508755Y0189624D02*
X0484109Y0189624D01*
X0483596Y0188026D02*
X0544200Y0188026D01*
X0544200Y0164048D02*
X0447888Y0164048D01*
X0447888Y0162450D02*
X0544200Y0162450D01*
X0544200Y0160851D02*
X0447888Y0160851D01*
X0447888Y0159253D02*
X0544200Y0159253D01*
X0511592Y0120888D02*
X0449427Y0120888D01*
X0449339Y0119290D02*
X0511592Y0119290D01*
X0511592Y0117691D02*
X0448643Y0117691D01*
X0446598Y0116093D02*
X0511849Y0116093D01*
X0442725Y0116093D02*
X0426598Y0116093D01*
X0427361Y0116409D02*
X0428701Y0117749D01*
X0429427Y0119501D01*
X0429427Y0121397D01*
X0428701Y0123148D01*
X0427361Y0124489D01*
X0425609Y0125214D01*
X0423714Y0125214D01*
X0421962Y0124489D01*
X0420622Y0123148D01*
X0419896Y0121397D01*
X0419896Y0119501D01*
X0420622Y0117749D01*
X0421962Y0116409D01*
X0423714Y0115683D01*
X0425609Y0115683D01*
X0427361Y0116409D01*
X0428643Y0117691D02*
X0440680Y0117691D01*
X0439983Y0119290D02*
X0429339Y0119290D01*
X0429427Y0120888D02*
X0439896Y0120888D01*
X0440348Y0122487D02*
X0428975Y0122487D01*
X0427764Y0124085D02*
X0441559Y0124085D01*
X0442195Y0125684D02*
X0425610Y0125684D01*
X0423712Y0125684D02*
X0417273Y0125684D01*
X0417256Y0127282D02*
X0421089Y0127282D01*
X0420153Y0128881D02*
X0417239Y0128881D01*
X0417222Y0130479D02*
X0419896Y0130479D01*
X0420178Y0132078D02*
X0417205Y0132078D01*
X0417188Y0133676D02*
X0421150Y0133676D01*
X0429001Y0138472D02*
X0440322Y0138472D01*
X0439896Y0140070D02*
X0429427Y0140070D01*
X0429314Y0141669D02*
X0440009Y0141669D01*
X0440741Y0143268D02*
X0428582Y0143268D01*
X0426450Y0144866D02*
X0442873Y0144866D01*
X0439529Y0128881D02*
X0429170Y0128881D01*
X0428234Y0127282D02*
X0440330Y0127282D01*
X0421559Y0124085D02*
X0417290Y0124085D01*
X0417307Y0122487D02*
X0420348Y0122487D01*
X0419896Y0120888D02*
X0417324Y0120888D01*
X0417341Y0119290D02*
X0419983Y0119290D01*
X0420680Y0117691D02*
X0417358Y0117691D01*
X0417375Y0116093D02*
X0422725Y0116093D01*
X0396276Y0135275D02*
X0367180Y0135275D01*
X0367180Y0136873D02*
X0396276Y0136873D01*
X0396276Y0138472D02*
X0367180Y0138472D01*
X0367180Y0140070D02*
X0396276Y0140070D01*
X0458518Y0192821D02*
X0466710Y0192821D01*
X0470291Y0195488D02*
X0454937Y0195488D01*
X0436433Y0215173D02*
X0437220Y0215961D01*
X0437220Y0219898D01*
X0449420Y0235214D02*
X0448600Y0236034D01*
X0448600Y0241556D01*
X0449420Y0242376D01*
X0454942Y0242376D01*
X0455762Y0241556D01*
X0455762Y0236034D01*
X0454942Y0235214D01*
X0449420Y0235214D01*
X0448653Y0235981D02*
X0416099Y0235981D01*
X0416116Y0234383D02*
X0544200Y0234383D01*
X0544200Y0235981D02*
X0455709Y0235981D01*
X0455762Y0237580D02*
X0544200Y0237580D01*
X0544200Y0239178D02*
X0455762Y0239178D01*
X0455762Y0240777D02*
X0544200Y0240777D01*
X0544200Y0242375D02*
X0454943Y0242375D01*
X0457304Y0243876D02*
X0451782Y0243876D01*
X0450962Y0244696D01*
X0450962Y0250218D01*
X0451782Y0251038D01*
X0457304Y0251038D01*
X0458124Y0250218D01*
X0458124Y0244696D01*
X0457304Y0243876D01*
X0457402Y0243974D02*
X0544200Y0243974D01*
X0544200Y0245572D02*
X0477111Y0245572D01*
X0476989Y0245450D02*
X0477809Y0246270D01*
X0477809Y0251792D01*
X0476989Y0252613D01*
X0471467Y0252613D01*
X0470647Y0251792D01*
X0470647Y0246270D01*
X0471467Y0245450D01*
X0476989Y0245450D01*
X0477809Y0247171D02*
X0544200Y0247171D01*
X0544200Y0248769D02*
X0477809Y0248769D01*
X0477809Y0250368D02*
X0544200Y0250368D01*
X0544200Y0251966D02*
X0477636Y0251966D01*
X0470821Y0251966D02*
X0430723Y0251966D01*
X0429376Y0253313D02*
X0433037Y0249652D01*
X0433037Y0247563D01*
X0427287Y0247563D01*
X0426287Y0247563D01*
X0426287Y0246563D01*
X0420537Y0246563D01*
X0420537Y0244474D01*
X0424199Y0240813D01*
X0426287Y0240813D01*
X0426287Y0246563D01*
X0427287Y0246563D01*
X0427287Y0240813D01*
X0429376Y0240813D01*
X0433037Y0244474D01*
X0433037Y0246563D01*
X0427287Y0246563D01*
X0427287Y0247563D01*
X0427287Y0253313D01*
X0429376Y0253313D01*
X0428655Y0254799D02*
X0431965Y0258109D01*
X0431965Y0262789D01*
X0428655Y0266099D01*
X0423975Y0266099D01*
X0420665Y0262789D01*
X0420665Y0258109D01*
X0423975Y0254799D01*
X0428655Y0254799D01*
X0429020Y0255163D02*
X0544200Y0255163D01*
X0544200Y0253565D02*
X0415912Y0253565D01*
X0415895Y0255163D02*
X0423610Y0255163D01*
X0424199Y0253313D02*
X0420537Y0249652D01*
X0420537Y0247563D01*
X0426287Y0247563D01*
X0426287Y0253313D01*
X0424199Y0253313D01*
X0422852Y0251966D02*
X0415929Y0251966D01*
X0415946Y0250368D02*
X0421253Y0250368D01*
X0420537Y0248769D02*
X0415963Y0248769D01*
X0415980Y0247171D02*
X0426287Y0247171D01*
X0427287Y0247171D02*
X0450962Y0247171D01*
X0450962Y0248769D02*
X0433037Y0248769D01*
X0432321Y0250368D02*
X0451112Y0250368D01*
X0450962Y0245572D02*
X0433037Y0245572D01*
X0432537Y0243974D02*
X0451684Y0243974D01*
X0449419Y0242375D02*
X0430938Y0242375D01*
X0427287Y0242375D02*
X0426287Y0242375D01*
X0426287Y0243974D02*
X0427287Y0243974D01*
X0427287Y0245572D02*
X0426287Y0245572D01*
X0426287Y0248769D02*
X0427287Y0248769D01*
X0427287Y0250368D02*
X0426287Y0250368D01*
X0426287Y0251966D02*
X0427287Y0251966D01*
X0430618Y0256762D02*
X0544200Y0256762D01*
X0544200Y0258360D02*
X0431965Y0258360D01*
X0431965Y0259959D02*
X0438849Y0259959D01*
X0439184Y0259624D02*
X0444706Y0259624D01*
X0445526Y0260444D01*
X0445526Y0265966D01*
X0444706Y0266786D01*
X0439184Y0266786D01*
X0438364Y0265966D01*
X0438364Y0260444D01*
X0439184Y0259624D01*
X0438364Y0261557D02*
X0431965Y0261557D01*
X0431598Y0263156D02*
X0438364Y0263156D01*
X0438364Y0264754D02*
X0430000Y0264754D01*
X0438751Y0266353D02*
X0415776Y0266353D01*
X0415759Y0267951D02*
X0544200Y0267951D01*
X0544200Y0266353D02*
X0445139Y0266353D01*
X0445526Y0264754D02*
X0544200Y0264754D01*
X0544200Y0263156D02*
X0445526Y0263156D01*
X0445526Y0261557D02*
X0544200Y0261557D01*
X0544200Y0259959D02*
X0445041Y0259959D01*
X0457974Y0250368D02*
X0470647Y0250368D01*
X0470647Y0248769D02*
X0458124Y0248769D01*
X0458124Y0247171D02*
X0470647Y0247171D01*
X0471345Y0245572D02*
X0458124Y0245572D01*
X0448600Y0240777D02*
X0416048Y0240777D01*
X0416031Y0242375D02*
X0422636Y0242375D01*
X0421038Y0243974D02*
X0416014Y0243974D01*
X0415997Y0245572D02*
X0420537Y0245572D01*
X0416065Y0239178D02*
X0448600Y0239178D01*
X0448600Y0237580D02*
X0416082Y0237580D01*
X0396276Y0237580D02*
X0387229Y0237580D01*
X0387258Y0239178D02*
X0396276Y0239178D01*
X0396276Y0240777D02*
X0387258Y0240777D01*
X0387258Y0242375D02*
X0396276Y0242375D01*
X0383677Y0246669D02*
X0380528Y0246669D01*
X0378521Y0251966D02*
X0319542Y0251966D01*
X0319542Y0253565D02*
X0378521Y0253565D01*
X0378521Y0255163D02*
X0319542Y0255163D01*
X0319542Y0256762D02*
X0378521Y0256762D01*
X0389189Y0231709D02*
X0391551Y0231709D01*
X0381315Y0217535D02*
X0382890Y0215961D01*
X0415878Y0256762D02*
X0422012Y0256762D01*
X0420665Y0258360D02*
X0415861Y0258360D01*
X0415844Y0259959D02*
X0420665Y0259959D01*
X0420665Y0261557D02*
X0415827Y0261557D01*
X0415810Y0263156D02*
X0421032Y0263156D01*
X0422630Y0264754D02*
X0415793Y0264754D01*
X0415742Y0269550D02*
X0544200Y0269550D01*
X0544200Y0271148D02*
X0415725Y0271148D01*
X0415487Y0293528D02*
X0462773Y0293528D01*
X0462773Y0295126D02*
X0415470Y0295126D01*
X0415453Y0296725D02*
X0462773Y0296725D01*
X0462773Y0298323D02*
X0415436Y0298323D01*
X0396276Y0298323D02*
X0375447Y0298323D01*
X0375447Y0296725D02*
X0396276Y0296725D01*
X0396276Y0299922D02*
X0375447Y0299922D01*
X0375326Y0301520D02*
X0396276Y0301520D01*
X0297024Y0213602D02*
X0286465Y0213602D01*
X0286465Y0212003D02*
X0296631Y0212003D01*
X0296631Y0210405D02*
X0288046Y0210405D01*
X0298206Y0202412D02*
X0274660Y0202412D01*
X0274660Y0200814D02*
X0298781Y0200814D01*
X0315961Y0190764D02*
X0316748Y0189976D01*
X0319110Y0189976D01*
X0274660Y0200601D02*
X0273840Y0199781D01*
X0268318Y0199781D01*
X0267498Y0200601D01*
X0267498Y0206123D01*
X0268318Y0206943D01*
X0273840Y0206943D01*
X0274660Y0206123D01*
X0274660Y0200601D01*
X0267498Y0200814D02*
X0222260Y0200814D01*
X0222260Y0202412D02*
X0267498Y0202412D01*
X0267498Y0204011D02*
X0222260Y0204011D01*
X0222260Y0205609D02*
X0267498Y0205609D01*
X0259376Y0170442D02*
X0222260Y0170442D01*
X0222260Y0168844D02*
X0258836Y0168844D01*
X0258836Y0167245D02*
X0222260Y0167245D01*
X0222260Y0165647D02*
X0258836Y0165647D01*
X0282458Y0148063D02*
X0222260Y0148063D01*
X0222260Y0146465D02*
X0282458Y0146465D01*
X0282458Y0144866D02*
X0222260Y0144866D01*
X0222260Y0143268D02*
X0282458Y0143268D01*
X0247445Y0114494D02*
X0246445Y0114494D01*
X0246445Y0112896D02*
X0247445Y0112896D01*
X0247445Y0111297D02*
X0246445Y0111297D01*
X0246445Y0109699D02*
X0247445Y0109699D01*
D19*
X0272654Y0146669D02*
X0277378Y0151394D01*
D20*
X0291551Y0219110D02*
X0291551Y0232496D01*
X0296276Y0237220D01*
X0296276Y0251394D01*
X0289976Y0257693D01*
X0282102Y0257693D01*
X0281315Y0258480D01*
X0339583Y0286039D02*
X0339583Y0286827D01*
X0341157Y0288402D01*
M02*
