G75*
%MOIN*%
%OFA0B0*%
%FSLAX25Y25*%
%IPPOS*%
%LPD*%
%AMOC8*
5,1,8,0,0,1.08239X$1,22.5*
%
%ADD10C,0.05600*%
%ADD11C,0.06000*%
%ADD12C,0.06496*%
%ADD13C,0.07800*%
%ADD14C,0.04362*%
%ADD15C,0.01600*%
%ADD16C,0.01200*%
%ADD17C,0.01000*%
D10*
X0506591Y0208441D03*
X0516591Y0208441D03*
X0526591Y0208441D03*
X0526591Y0218441D03*
X0516591Y0218441D03*
X0506591Y0218441D03*
D11*
X0416000Y0216000D03*
X0406000Y0216000D03*
X0406000Y0206000D03*
X0416000Y0206000D03*
X0416000Y0226000D03*
X0406000Y0226000D03*
X0320000Y0306000D03*
X0310000Y0306000D03*
X0300000Y0306000D03*
X0290000Y0306000D03*
X0280000Y0306000D03*
X0270000Y0306000D03*
X0260000Y0306000D03*
X0250000Y0306000D03*
X0240000Y0306000D03*
X0230000Y0306000D03*
X0266000Y0116000D03*
X0276000Y0116000D03*
X0286000Y0116000D03*
X0296000Y0116000D03*
X0306000Y0116000D03*
X0316000Y0116000D03*
X0326000Y0116000D03*
X0336000Y0116000D03*
D12*
X0424661Y0120449D03*
X0424661Y0130449D03*
X0424661Y0140449D03*
X0444661Y0140449D03*
X0444661Y0130449D03*
X0444661Y0120449D03*
D13*
X0406000Y0187220D03*
X0409740Y0239976D03*
X0426787Y0247063D03*
X0426315Y0260449D03*
X0404031Y0253559D03*
X0494976Y0227378D03*
X0511630Y0194740D03*
X0522654Y0195055D03*
X0300094Y0186669D03*
X0229465Y0232890D03*
X0231512Y0115567D03*
X0217811Y0115567D03*
X0246945Y0115764D03*
D14*
X0267142Y0128559D03*
X0286039Y0145882D03*
X0272654Y0146669D03*
X0262417Y0167142D03*
X0286039Y0168717D03*
X0319110Y0189976D03*
X0332496Y0183677D03*
X0341157Y0182102D03*
X0350606Y0184465D03*
X0354543Y0191551D03*
X0363205Y0182890D03*
X0368717Y0191551D03*
X0388402Y0185252D03*
X0382890Y0215961D03*
X0389976Y0224622D03*
X0389189Y0231709D03*
X0383677Y0240370D03*
X0383677Y0246669D03*
X0382102Y0254543D03*
X0350213Y0253756D03*
X0354543Y0275803D03*
X0339583Y0286039D03*
X0331709Y0285252D03*
X0321472Y0281315D03*
X0314386Y0278953D03*
X0301787Y0269504D03*
X0307299Y0263205D03*
X0303362Y0253756D03*
X0315961Y0254543D03*
X0289976Y0239583D03*
X0278165Y0242732D03*
X0270291Y0238008D03*
X0263205Y0239583D03*
X0254543Y0240370D03*
X0262417Y0226984D03*
X0284465Y0208087D03*
X0300213Y0210449D03*
X0301787Y0204150D03*
X0291551Y0219110D03*
X0308087Y0227772D03*
X0284465Y0252181D03*
X0281315Y0258480D03*
X0264780Y0264780D03*
X0276591Y0282102D03*
X0286039Y0282890D03*
X0278953Y0297063D03*
X0247457Y0282890D03*
X0331709Y0297063D03*
X0371866Y0298638D03*
X0441945Y0263205D03*
X0454543Y0247457D03*
X0452181Y0238795D03*
X0474228Y0249031D03*
X0437220Y0219898D03*
X0454937Y0195488D03*
X0470291Y0195488D03*
X0480528Y0189976D03*
X0477378Y0212024D03*
X0444307Y0161630D03*
X0496276Y0134071D03*
X0515173Y0119110D03*
X0525409Y0145094D03*
X0363598Y0137614D03*
X0271079Y0203362D03*
X0466354Y0296276D03*
X0508087Y0301787D03*
D15*
X0202567Y0115587D02*
X0201568Y0115173D01*
X0202567Y0114759D01*
X0203736Y0113590D01*
X0204368Y0112063D01*
X0204368Y0110410D01*
X0203736Y0108882D01*
X0202654Y0107800D01*
X0544200Y0107800D01*
X0544200Y0314200D01*
X0330134Y0314200D01*
X0330134Y0168717D01*
X0327772Y0168717D01*
X0327958Y0314200D01*
X0157800Y0314200D01*
X0157800Y0145567D01*
X0158488Y0146255D01*
X0160016Y0146888D01*
X0161669Y0146888D01*
X0163197Y0146255D01*
X0164366Y0145086D01*
X0164780Y0144087D01*
X0165193Y0145086D01*
X0166362Y0146255D01*
X0167890Y0146888D01*
X0169543Y0146888D01*
X0171071Y0146255D01*
X0172240Y0145086D01*
X0172654Y0144087D01*
X0173067Y0145086D01*
X0174236Y0146255D01*
X0175764Y0146888D01*
X0177417Y0146888D01*
X0178945Y0146255D01*
X0180114Y0145086D01*
X0180528Y0144087D01*
X0180941Y0145086D01*
X0182110Y0146255D01*
X0183638Y0146888D01*
X0185291Y0146888D01*
X0186819Y0146255D01*
X0187988Y0145086D01*
X0188402Y0144087D01*
X0188815Y0145086D01*
X0189984Y0146255D01*
X0191512Y0146888D01*
X0193165Y0146888D01*
X0194693Y0146255D01*
X0195862Y0145086D01*
X0196276Y0144087D01*
X0196689Y0145086D01*
X0197858Y0146255D01*
X0199386Y0146888D01*
X0201039Y0146888D01*
X0202567Y0146255D01*
X0203736Y0145086D01*
X0204368Y0143559D01*
X0204368Y0141906D01*
X0203736Y0140378D01*
X0202567Y0139209D01*
X0201568Y0138795D01*
X0202567Y0138381D01*
X0203736Y0137212D01*
X0204368Y0135685D01*
X0204368Y0134032D01*
X0203736Y0132504D01*
X0202567Y0131335D01*
X0201568Y0130921D01*
X0202567Y0130507D01*
X0203736Y0129338D01*
X0204368Y0127811D01*
X0204368Y0126158D01*
X0203736Y0124630D01*
X0202567Y0123461D01*
X0201568Y0123047D01*
X0202567Y0122633D01*
X0203736Y0121464D01*
X0204368Y0119937D01*
X0204368Y0118284D01*
X0203736Y0116756D01*
X0202567Y0115587D01*
X0203073Y0116093D02*
X0211921Y0116093D01*
X0211917Y0116067D02*
X0217311Y0116067D01*
X0217311Y0121461D01*
X0216429Y0121322D01*
X0215546Y0121035D01*
X0214719Y0120613D01*
X0213967Y0120067D01*
X0213311Y0119411D01*
X0212765Y0118659D01*
X0212343Y0117832D01*
X0212056Y0116949D01*
X0211917Y0116067D01*
X0211917Y0115067D02*
X0212056Y0114185D01*
X0212343Y0113302D01*
X0212765Y0112475D01*
X0213311Y0111723D01*
X0213967Y0111067D01*
X0214719Y0110521D01*
X0215546Y0110099D01*
X0216429Y0109812D01*
X0217311Y0109673D01*
X0217311Y0115067D01*
X0211917Y0115067D01*
X0212007Y0114494D02*
X0202832Y0114494D01*
X0204023Y0112896D02*
X0212550Y0112896D01*
X0213737Y0111297D02*
X0204368Y0111297D01*
X0204074Y0109699D02*
X0217146Y0109699D01*
X0217311Y0109699D02*
X0218311Y0109699D01*
X0218311Y0109673D02*
X0219193Y0109812D01*
X0220076Y0110099D01*
X0220903Y0110521D01*
X0221655Y0111067D01*
X0222311Y0111723D01*
X0222857Y0112475D01*
X0223279Y0113302D01*
X0223566Y0114185D01*
X0223705Y0115067D01*
X0218311Y0115067D01*
X0218311Y0116067D01*
X0217311Y0116067D01*
X0217311Y0115067D01*
X0218311Y0115067D01*
X0218311Y0109673D01*
X0218476Y0109699D02*
X0544200Y0109699D01*
X0544200Y0111297D02*
X0317707Y0111297D01*
X0317919Y0111366D02*
X0318621Y0111724D01*
X0319257Y0112186D01*
X0319814Y0112743D01*
X0320276Y0113379D01*
X0320634Y0114081D01*
X0320877Y0114829D01*
X0321000Y0115606D01*
X0321000Y0115800D01*
X0316200Y0115800D01*
X0316200Y0116200D01*
X0315800Y0116200D01*
X0315800Y0121000D01*
X0315606Y0121000D01*
X0314829Y0120877D01*
X0314081Y0120634D01*
X0313379Y0120276D01*
X0312743Y0119814D01*
X0312186Y0119257D01*
X0311724Y0118621D01*
X0311366Y0117919D01*
X0311123Y0117171D01*
X0311000Y0116394D01*
X0311000Y0116200D01*
X0315800Y0116200D01*
X0315800Y0115800D01*
X0311000Y0115800D01*
X0311000Y0115606D01*
X0311123Y0114829D01*
X0311366Y0114081D01*
X0311724Y0113379D01*
X0312186Y0112743D01*
X0312743Y0112186D01*
X0313379Y0111724D01*
X0314081Y0111366D01*
X0314829Y0111123D01*
X0315606Y0111000D01*
X0315800Y0111000D01*
X0315800Y0115800D01*
X0316200Y0115800D01*
X0316200Y0111000D01*
X0316394Y0111000D01*
X0317171Y0111123D01*
X0317919Y0111366D01*
X0316200Y0111297D02*
X0315800Y0111297D01*
X0314293Y0111297D02*
X0249974Y0111297D01*
X0249947Y0111271D02*
X0251438Y0112762D01*
X0252245Y0114710D01*
X0252245Y0116818D01*
X0251438Y0118766D01*
X0249947Y0120257D01*
X0247999Y0121064D01*
X0245891Y0121064D01*
X0243943Y0120257D01*
X0242452Y0118766D01*
X0241645Y0116818D01*
X0241645Y0114710D01*
X0242452Y0112762D01*
X0243943Y0111271D01*
X0245891Y0110464D01*
X0247999Y0110464D01*
X0249947Y0111271D01*
X0251494Y0112896D02*
X0262882Y0112896D01*
X0262270Y0113508D02*
X0263508Y0112270D01*
X0265125Y0111600D01*
X0266875Y0111600D01*
X0268492Y0112270D01*
X0269730Y0113508D01*
X0270400Y0115125D01*
X0270400Y0116875D01*
X0269730Y0118492D01*
X0268492Y0119730D01*
X0266875Y0120400D01*
X0265125Y0120400D01*
X0263508Y0119730D01*
X0262270Y0118492D01*
X0261600Y0116875D01*
X0261600Y0115125D01*
X0262270Y0113508D01*
X0261861Y0114494D02*
X0252156Y0114494D01*
X0252245Y0116093D02*
X0261600Y0116093D01*
X0261938Y0117691D02*
X0251883Y0117691D01*
X0250914Y0119290D02*
X0263067Y0119290D01*
X0268933Y0119290D02*
X0273067Y0119290D01*
X0273508Y0119730D02*
X0272270Y0118492D01*
X0271600Y0116875D01*
X0271600Y0115125D01*
X0272270Y0113508D01*
X0273508Y0112270D01*
X0275125Y0111600D01*
X0276875Y0111600D01*
X0278492Y0112270D01*
X0279730Y0113508D01*
X0280400Y0115125D01*
X0280400Y0116875D01*
X0279730Y0118492D01*
X0278492Y0119730D01*
X0276875Y0120400D01*
X0275125Y0120400D01*
X0273508Y0119730D01*
X0271938Y0117691D02*
X0270062Y0117691D01*
X0270400Y0116093D02*
X0271600Y0116093D01*
X0271861Y0114494D02*
X0270139Y0114494D01*
X0269118Y0112896D02*
X0272882Y0112896D01*
X0279118Y0112896D02*
X0282882Y0112896D01*
X0282270Y0113508D02*
X0283508Y0112270D01*
X0285125Y0111600D01*
X0286875Y0111600D01*
X0288492Y0112270D01*
X0289730Y0113508D01*
X0290400Y0115125D01*
X0290400Y0116875D01*
X0289730Y0118492D01*
X0288492Y0119730D01*
X0286875Y0120400D01*
X0285125Y0120400D01*
X0283508Y0119730D01*
X0282270Y0118492D01*
X0281600Y0116875D01*
X0281600Y0115125D01*
X0282270Y0113508D01*
X0281861Y0114494D02*
X0280139Y0114494D01*
X0280400Y0116093D02*
X0281600Y0116093D01*
X0281938Y0117691D02*
X0280062Y0117691D01*
X0278933Y0119290D02*
X0283067Y0119290D01*
X0288933Y0119290D02*
X0293067Y0119290D01*
X0293508Y0119730D02*
X0292270Y0118492D01*
X0291600Y0116875D01*
X0291600Y0115125D01*
X0292270Y0113508D01*
X0293508Y0112270D01*
X0295125Y0111600D01*
X0296875Y0111600D01*
X0298492Y0112270D01*
X0299730Y0113508D01*
X0300400Y0115125D01*
X0300400Y0116875D01*
X0299730Y0118492D01*
X0298492Y0119730D01*
X0296875Y0120400D01*
X0295125Y0120400D01*
X0293508Y0119730D01*
X0291938Y0117691D02*
X0290062Y0117691D01*
X0290400Y0116093D02*
X0291600Y0116093D01*
X0291861Y0114494D02*
X0290139Y0114494D01*
X0289118Y0112896D02*
X0292882Y0112896D01*
X0299118Y0112896D02*
X0302882Y0112896D01*
X0302270Y0113508D02*
X0303508Y0112270D01*
X0305125Y0111600D01*
X0306875Y0111600D01*
X0308492Y0112270D01*
X0309730Y0113508D01*
X0310400Y0115125D01*
X0310400Y0116875D01*
X0309730Y0118492D01*
X0308492Y0119730D01*
X0306875Y0120400D01*
X0305125Y0120400D01*
X0303508Y0119730D01*
X0302270Y0118492D01*
X0301600Y0116875D01*
X0301600Y0115125D01*
X0302270Y0113508D01*
X0301861Y0114494D02*
X0300139Y0114494D01*
X0300400Y0116093D02*
X0301600Y0116093D01*
X0301938Y0117691D02*
X0300062Y0117691D01*
X0298933Y0119290D02*
X0303067Y0119290D01*
X0308933Y0119290D02*
X0312219Y0119290D01*
X0311292Y0117691D02*
X0310062Y0117691D01*
X0310400Y0116093D02*
X0315800Y0116093D01*
X0316200Y0116093D02*
X0321600Y0116093D01*
X0321000Y0116200D02*
X0321000Y0116394D01*
X0320877Y0117171D01*
X0320634Y0117919D01*
X0320276Y0118621D01*
X0319814Y0119257D01*
X0319257Y0119814D01*
X0318621Y0120276D01*
X0317919Y0120634D01*
X0317171Y0120877D01*
X0316394Y0121000D01*
X0316200Y0121000D01*
X0316200Y0116200D01*
X0321000Y0116200D01*
X0321600Y0116875D02*
X0321600Y0115125D01*
X0322270Y0113508D01*
X0323508Y0112270D01*
X0325125Y0111600D01*
X0326875Y0111600D01*
X0328492Y0112270D01*
X0329730Y0113508D01*
X0330400Y0115125D01*
X0330400Y0116875D01*
X0329730Y0118492D01*
X0328492Y0119730D01*
X0326875Y0120400D01*
X0325125Y0120400D01*
X0323508Y0119730D01*
X0322270Y0118492D01*
X0321600Y0116875D01*
X0321938Y0117691D02*
X0320708Y0117691D01*
X0319781Y0119290D02*
X0323067Y0119290D01*
X0328933Y0119290D02*
X0333067Y0119290D01*
X0333508Y0119730D02*
X0332270Y0118492D01*
X0331600Y0116875D01*
X0331600Y0115125D01*
X0332270Y0113508D01*
X0333508Y0112270D01*
X0335125Y0111600D01*
X0336875Y0111600D01*
X0338492Y0112270D01*
X0339730Y0113508D01*
X0340400Y0115125D01*
X0340400Y0116875D01*
X0339730Y0118492D01*
X0338492Y0119730D01*
X0336875Y0120400D01*
X0335125Y0120400D01*
X0333508Y0119730D01*
X0331938Y0117691D02*
X0330062Y0117691D01*
X0330400Y0116093D02*
X0331600Y0116093D01*
X0331861Y0114494D02*
X0330139Y0114494D01*
X0329118Y0112896D02*
X0332882Y0112896D01*
X0339118Y0112896D02*
X0544200Y0112896D01*
X0544200Y0114494D02*
X0340139Y0114494D01*
X0340400Y0116093D02*
X0423032Y0116093D01*
X0423737Y0115801D02*
X0422029Y0116508D01*
X0420721Y0117816D01*
X0420013Y0119524D01*
X0420013Y0121373D01*
X0420721Y0123082D01*
X0422029Y0124389D01*
X0423737Y0125097D01*
X0425586Y0125097D01*
X0427294Y0124389D01*
X0428602Y0123082D01*
X0429309Y0121373D01*
X0429309Y0119524D01*
X0428602Y0117816D01*
X0427294Y0116508D01*
X0425586Y0115801D01*
X0423737Y0115801D01*
X0426291Y0116093D02*
X0443032Y0116093D01*
X0443737Y0115801D02*
X0445586Y0115801D01*
X0447294Y0116508D01*
X0448602Y0117816D01*
X0449309Y0119524D01*
X0449309Y0121373D01*
X0448602Y0123082D01*
X0447294Y0124389D01*
X0445586Y0125097D01*
X0443737Y0125097D01*
X0442029Y0124389D01*
X0440721Y0123082D01*
X0440013Y0121373D01*
X0440013Y0119524D01*
X0440721Y0117816D01*
X0442029Y0116508D01*
X0443737Y0115801D01*
X0446291Y0116093D02*
X0513126Y0116093D01*
X0513145Y0116074D02*
X0514461Y0115529D01*
X0515886Y0115529D01*
X0517202Y0116074D01*
X0518209Y0117082D01*
X0518754Y0118398D01*
X0518754Y0119823D01*
X0518209Y0121139D01*
X0517202Y0122146D01*
X0515886Y0122691D01*
X0514461Y0122691D01*
X0513145Y0122146D01*
X0512137Y0121139D01*
X0511592Y0119823D01*
X0511592Y0118398D01*
X0512137Y0117082D01*
X0513145Y0116074D01*
X0511885Y0117691D02*
X0448477Y0117691D01*
X0449212Y0119290D02*
X0511592Y0119290D01*
X0512034Y0120888D02*
X0449309Y0120888D01*
X0448848Y0122487D02*
X0513967Y0122487D01*
X0516379Y0122487D02*
X0544200Y0122487D01*
X0544200Y0124085D02*
X0447598Y0124085D01*
X0447294Y0126508D02*
X0448602Y0127816D01*
X0449309Y0129524D01*
X0449309Y0131373D01*
X0448602Y0133082D01*
X0447294Y0134389D01*
X0445586Y0135097D01*
X0443737Y0135097D01*
X0442029Y0134389D01*
X0440721Y0133082D01*
X0440013Y0131373D01*
X0440013Y0129524D01*
X0440721Y0127816D01*
X0442029Y0126508D01*
X0443737Y0125801D01*
X0445586Y0125801D01*
X0447294Y0126508D01*
X0448068Y0127282D02*
X0544200Y0127282D01*
X0544200Y0125684D02*
X0204172Y0125684D01*
X0204368Y0127282D02*
X0421255Y0127282D01*
X0420721Y0127816D02*
X0422029Y0126508D01*
X0423737Y0125801D01*
X0425586Y0125801D01*
X0427294Y0126508D01*
X0428602Y0127816D01*
X0429309Y0129524D01*
X0429309Y0131373D01*
X0428602Y0133082D01*
X0427294Y0134389D01*
X0425586Y0135097D01*
X0423737Y0135097D01*
X0422029Y0134389D01*
X0420721Y0133082D01*
X0420013Y0131373D01*
X0420013Y0129524D01*
X0420721Y0127816D01*
X0420280Y0128881D02*
X0203925Y0128881D01*
X0202595Y0130479D02*
X0420013Y0130479D01*
X0420305Y0132078D02*
X0203310Y0132078D01*
X0204221Y0133676D02*
X0421316Y0133676D01*
X0422029Y0136508D02*
X0423737Y0135801D01*
X0425586Y0135801D01*
X0427294Y0136508D01*
X0428602Y0137816D01*
X0429309Y0139524D01*
X0429309Y0141373D01*
X0428602Y0143082D01*
X0427294Y0144389D01*
X0425586Y0145097D01*
X0423737Y0145097D01*
X0422029Y0144389D01*
X0420721Y0143082D01*
X0420013Y0141373D01*
X0420013Y0139524D01*
X0420721Y0137816D01*
X0422029Y0136508D01*
X0421663Y0136873D02*
X0203876Y0136873D01*
X0204368Y0135275D02*
X0544200Y0135275D01*
X0544200Y0136873D02*
X0447659Y0136873D01*
X0447294Y0136508D02*
X0448602Y0137816D01*
X0449309Y0139524D01*
X0449309Y0141373D01*
X0448602Y0143082D01*
X0447294Y0144389D01*
X0445586Y0145097D01*
X0443737Y0145097D01*
X0442029Y0144389D01*
X0440721Y0143082D01*
X0440013Y0141373D01*
X0440013Y0139524D01*
X0440721Y0137816D01*
X0442029Y0136508D01*
X0443737Y0135801D01*
X0445586Y0135801D01*
X0447294Y0136508D01*
X0448874Y0138472D02*
X0544200Y0138472D01*
X0544200Y0140070D02*
X0449309Y0140070D01*
X0449187Y0141669D02*
X0544200Y0141669D01*
X0544200Y0143268D02*
X0448416Y0143268D01*
X0446143Y0144866D02*
X0544200Y0144866D01*
X0544200Y0146465D02*
X0289620Y0146465D01*
X0289620Y0146594D02*
X0289075Y0147910D01*
X0288068Y0148918D01*
X0286752Y0149463D01*
X0285327Y0149463D01*
X0284011Y0148918D01*
X0283003Y0147910D01*
X0282458Y0146594D01*
X0282458Y0145170D01*
X0283003Y0143853D01*
X0284011Y0142846D01*
X0285327Y0142301D01*
X0286752Y0142301D01*
X0288068Y0142846D01*
X0289075Y0143853D01*
X0289620Y0145170D01*
X0289620Y0146594D01*
X0288923Y0148063D02*
X0544200Y0148063D01*
X0544200Y0149662D02*
X0274726Y0149662D01*
X0274682Y0149705D02*
X0273366Y0150250D01*
X0271941Y0150250D01*
X0270625Y0149705D01*
X0269618Y0148698D01*
X0269072Y0147382D01*
X0269072Y0145957D01*
X0269618Y0144641D01*
X0270625Y0143633D01*
X0271941Y0143088D01*
X0273366Y0143088D01*
X0274682Y0143633D01*
X0275689Y0144641D01*
X0276235Y0145957D01*
X0276235Y0147382D01*
X0275689Y0148698D01*
X0274682Y0149705D01*
X0275952Y0148063D02*
X0283156Y0148063D01*
X0282458Y0146465D02*
X0276235Y0146465D01*
X0275783Y0144866D02*
X0282584Y0144866D01*
X0283589Y0143268D02*
X0273799Y0143268D01*
X0271508Y0143268D02*
X0204368Y0143268D01*
X0204270Y0141669D02*
X0420136Y0141669D01*
X0420013Y0140070D02*
X0203428Y0140070D01*
X0202348Y0138472D02*
X0420449Y0138472D01*
X0427659Y0136873D02*
X0441663Y0136873D01*
X0440449Y0138472D02*
X0428874Y0138472D01*
X0429309Y0140070D02*
X0440013Y0140070D01*
X0440136Y0141669D02*
X0429187Y0141669D01*
X0428416Y0143268D02*
X0440907Y0143268D01*
X0443180Y0144866D02*
X0426143Y0144866D01*
X0423180Y0144866D02*
X0289495Y0144866D01*
X0288489Y0143268D02*
X0420907Y0143268D01*
X0428007Y0133676D02*
X0441316Y0133676D01*
X0440305Y0132078D02*
X0429018Y0132078D01*
X0429309Y0130479D02*
X0440013Y0130479D01*
X0440280Y0128881D02*
X0429043Y0128881D01*
X0428068Y0127282D02*
X0441255Y0127282D01*
X0441725Y0124085D02*
X0427598Y0124085D01*
X0428848Y0122487D02*
X0440475Y0122487D01*
X0440013Y0120888D02*
X0429309Y0120888D01*
X0429212Y0119290D02*
X0440110Y0119290D01*
X0440846Y0117691D02*
X0428477Y0117691D01*
X0420846Y0117691D02*
X0340062Y0117691D01*
X0338933Y0119290D02*
X0420110Y0119290D01*
X0420013Y0120888D02*
X0317098Y0120888D01*
X0316200Y0120888D02*
X0315800Y0120888D01*
X0314902Y0120888D02*
X0248423Y0120888D01*
X0245467Y0120888D02*
X0220363Y0120888D01*
X0220076Y0121035D02*
X0219193Y0121322D01*
X0218311Y0121461D01*
X0218311Y0116067D01*
X0223705Y0116067D01*
X0223566Y0116949D01*
X0223279Y0117832D01*
X0222857Y0118659D01*
X0222311Y0119411D01*
X0221655Y0120067D01*
X0220903Y0120613D01*
X0220076Y0121035D01*
X0218311Y0120888D02*
X0217311Y0120888D01*
X0217311Y0119290D02*
X0218311Y0119290D01*
X0218311Y0117691D02*
X0217311Y0117691D01*
X0217311Y0116093D02*
X0218311Y0116093D01*
X0218311Y0114494D02*
X0217311Y0114494D01*
X0217311Y0112896D02*
X0218311Y0112896D01*
X0218311Y0111297D02*
X0217311Y0111297D01*
X0221885Y0111297D02*
X0228286Y0111297D01*
X0228510Y0111074D02*
X0230458Y0110267D01*
X0232566Y0110267D01*
X0234514Y0111074D01*
X0236005Y0112565D01*
X0236812Y0114513D01*
X0236812Y0116621D01*
X0236005Y0118569D01*
X0234514Y0120060D01*
X0232566Y0120867D01*
X0230458Y0120867D01*
X0228510Y0120060D01*
X0227019Y0118569D01*
X0226212Y0116621D01*
X0226212Y0114513D01*
X0227019Y0112565D01*
X0228510Y0111074D01*
X0226882Y0112896D02*
X0223072Y0112896D01*
X0223615Y0114494D02*
X0226219Y0114494D01*
X0226212Y0116093D02*
X0223701Y0116093D01*
X0223324Y0117691D02*
X0226655Y0117691D01*
X0227739Y0119290D02*
X0222399Y0119290D01*
X0215259Y0120888D02*
X0203974Y0120888D01*
X0204368Y0119290D02*
X0213223Y0119290D01*
X0212298Y0117691D02*
X0204123Y0117691D01*
X0202713Y0122487D02*
X0420475Y0122487D01*
X0421725Y0124085D02*
X0203191Y0124085D01*
X0202954Y0108100D02*
X0544200Y0108100D01*
X0544200Y0116093D02*
X0517220Y0116093D01*
X0518462Y0117691D02*
X0544200Y0117691D01*
X0544200Y0119290D02*
X0518754Y0119290D01*
X0518313Y0120888D02*
X0544200Y0120888D01*
X0544200Y0128881D02*
X0449043Y0128881D01*
X0449309Y0130479D02*
X0544200Y0130479D01*
X0544200Y0132078D02*
X0449018Y0132078D01*
X0448007Y0133676D02*
X0544200Y0133676D01*
X0528559Y0145094D02*
X0525409Y0145094D01*
X0544200Y0151260D02*
X0157800Y0151260D01*
X0157800Y0149662D02*
X0270581Y0149662D01*
X0269355Y0148063D02*
X0157800Y0148063D01*
X0157800Y0146465D02*
X0158993Y0146465D01*
X0162692Y0146465D02*
X0166867Y0146465D01*
X0165102Y0144866D02*
X0164457Y0144866D01*
X0170566Y0146465D02*
X0174741Y0146465D01*
X0172976Y0144866D02*
X0172331Y0144866D01*
X0178440Y0146465D02*
X0182615Y0146465D01*
X0180850Y0144866D02*
X0180205Y0144866D01*
X0186314Y0146465D02*
X0190489Y0146465D01*
X0188724Y0144866D02*
X0188079Y0144866D01*
X0194188Y0146465D02*
X0198363Y0146465D01*
X0196598Y0144866D02*
X0195953Y0144866D01*
X0202062Y0146465D02*
X0269072Y0146465D01*
X0269524Y0144866D02*
X0203827Y0144866D01*
X0235284Y0119290D02*
X0242976Y0119290D01*
X0242007Y0117691D02*
X0236369Y0117691D01*
X0236812Y0116093D02*
X0241645Y0116093D01*
X0241734Y0114494D02*
X0236804Y0114494D01*
X0236142Y0112896D02*
X0242396Y0112896D01*
X0243916Y0111297D02*
X0234737Y0111297D01*
X0267142Y0126984D02*
X0268717Y0125409D01*
X0267142Y0126984D02*
X0267142Y0128559D01*
X0309118Y0112896D02*
X0312075Y0112896D01*
X0311232Y0114494D02*
X0310139Y0114494D01*
X0315800Y0114494D02*
X0316200Y0114494D01*
X0316200Y0112896D02*
X0315800Y0112896D01*
X0319925Y0112896D02*
X0322882Y0112896D01*
X0321861Y0114494D02*
X0320768Y0114494D01*
X0316200Y0117691D02*
X0315800Y0117691D01*
X0315800Y0119290D02*
X0316200Y0119290D01*
X0344307Y0144307D02*
X0345094Y0145094D01*
X0330134Y0168844D02*
X0544200Y0168844D01*
X0544200Y0170442D02*
X0330134Y0170442D01*
X0330134Y0172041D02*
X0544200Y0172041D01*
X0544200Y0173639D02*
X0330134Y0173639D01*
X0330134Y0175238D02*
X0544200Y0175238D01*
X0544200Y0176836D02*
X0330134Y0176836D01*
X0330134Y0178435D02*
X0544200Y0178435D01*
X0544200Y0180033D02*
X0344153Y0180033D01*
X0344193Y0180074D02*
X0344739Y0181390D01*
X0344739Y0182815D01*
X0344193Y0184131D01*
X0343186Y0185138D01*
X0341870Y0185683D01*
X0340445Y0185683D01*
X0339129Y0185138D01*
X0338122Y0184131D01*
X0337576Y0182815D01*
X0337576Y0181390D01*
X0338122Y0180074D01*
X0339129Y0179066D01*
X0340445Y0178521D01*
X0341870Y0178521D01*
X0343186Y0179066D01*
X0344193Y0180074D01*
X0344739Y0181632D02*
X0544200Y0181632D01*
X0544200Y0183230D02*
X0409505Y0183230D01*
X0409002Y0182727D02*
X0410493Y0184218D01*
X0411300Y0186166D01*
X0411300Y0188275D01*
X0410493Y0190223D01*
X0409002Y0191714D01*
X0407054Y0192520D01*
X0404946Y0192520D01*
X0402998Y0191714D01*
X0401507Y0190223D01*
X0400700Y0188275D01*
X0400700Y0186166D01*
X0401507Y0184218D01*
X0402998Y0182727D01*
X0404946Y0181920D01*
X0407054Y0181920D01*
X0409002Y0182727D01*
X0410746Y0184829D02*
X0544200Y0184829D01*
X0544200Y0186427D02*
X0411300Y0186427D01*
X0411300Y0188026D02*
X0544200Y0188026D01*
X0544200Y0189624D02*
X0524991Y0189624D01*
X0524918Y0189587D02*
X0525746Y0190009D01*
X0526497Y0190555D01*
X0527154Y0191212D01*
X0527700Y0191963D01*
X0528121Y0192790D01*
X0528408Y0193674D01*
X0528548Y0194555D01*
X0523154Y0194555D01*
X0523154Y0195555D01*
X0528548Y0195555D01*
X0528408Y0196437D01*
X0528121Y0197320D01*
X0527700Y0198147D01*
X0527154Y0198899D01*
X0526497Y0199555D01*
X0525746Y0200101D01*
X0524918Y0200523D01*
X0524035Y0200810D01*
X0523154Y0200949D01*
X0523154Y0195555D01*
X0522154Y0195555D01*
X0522154Y0200949D01*
X0521272Y0200810D01*
X0520389Y0200523D01*
X0519561Y0200101D01*
X0518810Y0199555D01*
X0518153Y0198899D01*
X0517607Y0198147D01*
X0517186Y0197320D01*
X0516899Y0196437D01*
X0516834Y0196026D01*
X0516123Y0197742D01*
X0514632Y0199233D01*
X0512684Y0200040D01*
X0510576Y0200040D01*
X0508628Y0199233D01*
X0507137Y0197742D01*
X0506330Y0195794D01*
X0506330Y0193686D01*
X0507137Y0191738D01*
X0508628Y0190247D01*
X0510576Y0189440D01*
X0512684Y0189440D01*
X0514632Y0190247D01*
X0516123Y0191738D01*
X0516910Y0193638D01*
X0517186Y0192790D01*
X0517607Y0191963D01*
X0518153Y0191212D01*
X0518810Y0190555D01*
X0519561Y0190009D01*
X0520389Y0189587D01*
X0521272Y0189300D01*
X0522154Y0189161D01*
X0522154Y0194555D01*
X0523154Y0194555D01*
X0523154Y0189161D01*
X0524035Y0189300D01*
X0524918Y0189587D01*
X0523154Y0189624D02*
X0522154Y0189624D01*
X0522154Y0191223D02*
X0523154Y0191223D01*
X0523154Y0192821D02*
X0522154Y0192821D01*
X0522154Y0194420D02*
X0523154Y0194420D01*
X0523154Y0196018D02*
X0522154Y0196018D01*
X0522154Y0197617D02*
X0523154Y0197617D01*
X0523154Y0199215D02*
X0522154Y0199215D01*
X0522154Y0200814D02*
X0523154Y0200814D01*
X0524009Y0200814D02*
X0544200Y0200814D01*
X0544200Y0202412D02*
X0418635Y0202412D01*
X0418492Y0202270D02*
X0419730Y0203508D01*
X0420400Y0205125D01*
X0420400Y0206875D01*
X0419730Y0208492D01*
X0418492Y0209730D01*
X0416875Y0210400D01*
X0415125Y0210400D01*
X0413508Y0209730D01*
X0412270Y0208492D01*
X0411600Y0206875D01*
X0411600Y0205125D01*
X0412270Y0203508D01*
X0413508Y0202270D01*
X0415125Y0201600D01*
X0416875Y0201600D01*
X0418492Y0202270D01*
X0419939Y0204011D02*
X0544200Y0204011D01*
X0544200Y0205609D02*
X0529699Y0205609D01*
X0530151Y0206062D02*
X0528970Y0204880D01*
X0527426Y0204241D01*
X0525755Y0204241D01*
X0524211Y0204880D01*
X0523030Y0206062D01*
X0522391Y0207605D01*
X0522391Y0209276D01*
X0523030Y0210820D01*
X0524211Y0212002D01*
X0525755Y0212641D01*
X0527426Y0212641D01*
X0528970Y0212002D01*
X0530151Y0210820D01*
X0530791Y0209276D01*
X0530791Y0207605D01*
X0530151Y0206062D01*
X0530626Y0207208D02*
X0544200Y0207208D01*
X0544200Y0208806D02*
X0530791Y0208806D01*
X0530323Y0210405D02*
X0544200Y0210405D01*
X0544200Y0212003D02*
X0528965Y0212003D01*
X0527426Y0214241D02*
X0528970Y0214880D01*
X0530151Y0216062D01*
X0530791Y0217605D01*
X0530791Y0219276D01*
X0530151Y0220820D01*
X0528970Y0222002D01*
X0527426Y0222641D01*
X0525755Y0222641D01*
X0524211Y0222002D01*
X0523030Y0220820D01*
X0522391Y0219276D01*
X0522391Y0217605D01*
X0523030Y0216062D01*
X0524211Y0214880D01*
X0525755Y0214241D01*
X0527426Y0214241D01*
X0529290Y0215201D02*
X0544200Y0215201D01*
X0544200Y0216799D02*
X0530456Y0216799D01*
X0530791Y0218398D02*
X0544200Y0218398D01*
X0544200Y0219996D02*
X0530492Y0219996D01*
X0529377Y0221595D02*
X0544200Y0221595D01*
X0544200Y0223193D02*
X0498287Y0223193D01*
X0497979Y0222885D02*
X0499469Y0224376D01*
X0500276Y0226324D01*
X0500276Y0228432D01*
X0499469Y0230380D01*
X0497979Y0231871D01*
X0496031Y0232678D01*
X0493922Y0232678D01*
X0491974Y0231871D01*
X0490483Y0230380D01*
X0489676Y0228432D01*
X0489676Y0226324D01*
X0490483Y0224376D01*
X0491974Y0222885D01*
X0493922Y0222078D01*
X0496031Y0222078D01*
X0497979Y0222885D01*
X0499642Y0224792D02*
X0544200Y0224792D01*
X0544200Y0226390D02*
X0500276Y0226390D01*
X0500276Y0227989D02*
X0544200Y0227989D01*
X0544200Y0229587D02*
X0499798Y0229587D01*
X0498664Y0231186D02*
X0544200Y0231186D01*
X0544200Y0232784D02*
X0392620Y0232784D01*
X0392770Y0232421D02*
X0392225Y0233737D01*
X0391217Y0234745D01*
X0389901Y0235290D01*
X0388477Y0235290D01*
X0387160Y0234745D01*
X0386153Y0233737D01*
X0385608Y0232421D01*
X0385608Y0230996D01*
X0386153Y0229680D01*
X0387160Y0228673D01*
X0388477Y0228128D01*
X0389901Y0228128D01*
X0391217Y0228673D01*
X0392225Y0229680D01*
X0392770Y0230996D01*
X0392770Y0232421D01*
X0392770Y0231186D02*
X0491289Y0231186D01*
X0490155Y0229587D02*
X0418635Y0229587D01*
X0418492Y0229730D02*
X0416875Y0230400D01*
X0415125Y0230400D01*
X0413508Y0229730D01*
X0412270Y0228492D01*
X0411600Y0226875D01*
X0411600Y0225125D01*
X0412270Y0223508D01*
X0413508Y0222270D01*
X0415125Y0221600D01*
X0416875Y0221600D01*
X0418492Y0222270D01*
X0419730Y0223508D01*
X0420400Y0225125D01*
X0420400Y0226875D01*
X0419730Y0228492D01*
X0418492Y0229730D01*
X0419939Y0227989D02*
X0489676Y0227989D01*
X0489676Y0226390D02*
X0420400Y0226390D01*
X0420262Y0224792D02*
X0490311Y0224792D01*
X0491666Y0223193D02*
X0438622Y0223193D01*
X0439249Y0222934D02*
X0437933Y0223479D01*
X0436508Y0223479D01*
X0435192Y0222934D01*
X0434185Y0221926D01*
X0433639Y0220610D01*
X0433639Y0219185D01*
X0434185Y0217869D01*
X0435192Y0216862D01*
X0436508Y0216317D01*
X0437933Y0216317D01*
X0439249Y0216862D01*
X0440256Y0217869D01*
X0440802Y0219185D01*
X0440802Y0220610D01*
X0440256Y0221926D01*
X0439249Y0222934D01*
X0440394Y0221595D02*
X0503804Y0221595D01*
X0504211Y0222002D02*
X0503030Y0220820D01*
X0502391Y0219276D01*
X0502391Y0217605D01*
X0503030Y0216062D01*
X0504211Y0214880D01*
X0505755Y0214241D01*
X0507426Y0214241D01*
X0508970Y0214880D01*
X0510151Y0216062D01*
X0510791Y0217605D01*
X0510791Y0219276D01*
X0510151Y0220820D01*
X0508970Y0222002D01*
X0507426Y0222641D01*
X0505755Y0222641D01*
X0504211Y0222002D01*
X0502689Y0219996D02*
X0440802Y0219996D01*
X0440475Y0218398D02*
X0502391Y0218398D01*
X0502725Y0216799D02*
X0439098Y0216799D01*
X0435343Y0216799D02*
X0420400Y0216799D01*
X0420400Y0216875D02*
X0419730Y0218492D01*
X0418492Y0219730D01*
X0416875Y0220400D01*
X0415125Y0220400D01*
X0413508Y0219730D01*
X0412270Y0218492D01*
X0411600Y0216875D01*
X0411600Y0215125D01*
X0412270Y0213508D01*
X0413508Y0212270D01*
X0415125Y0211600D01*
X0416875Y0211600D01*
X0418492Y0212270D01*
X0419730Y0213508D01*
X0420400Y0215125D01*
X0420400Y0216875D01*
X0419769Y0218398D02*
X0433966Y0218398D01*
X0433639Y0219996D02*
X0417850Y0219996D01*
X0419416Y0223193D02*
X0435819Y0223193D01*
X0434047Y0221595D02*
X0330134Y0221595D01*
X0330134Y0223193D02*
X0402584Y0223193D01*
X0402270Y0223508D02*
X0403508Y0222270D01*
X0405125Y0221600D01*
X0406875Y0221600D01*
X0408492Y0222270D01*
X0409730Y0223508D01*
X0410400Y0225125D01*
X0410400Y0226875D01*
X0409730Y0228492D01*
X0408492Y0229730D01*
X0406875Y0230400D01*
X0405125Y0230400D01*
X0403508Y0229730D01*
X0402270Y0228492D01*
X0401600Y0226875D01*
X0401600Y0225125D01*
X0402270Y0223508D01*
X0401738Y0224792D02*
X0330134Y0224792D01*
X0330134Y0226390D02*
X0401600Y0226390D01*
X0402061Y0227989D02*
X0330134Y0227989D01*
X0330134Y0229587D02*
X0386246Y0229587D01*
X0385608Y0231186D02*
X0330134Y0231186D01*
X0330134Y0232784D02*
X0385758Y0232784D01*
X0386799Y0234383D02*
X0330134Y0234383D01*
X0330134Y0235981D02*
X0406240Y0235981D01*
X0406738Y0235483D02*
X0408686Y0234676D01*
X0410794Y0234676D01*
X0412742Y0235483D01*
X0414233Y0236974D01*
X0415040Y0238922D01*
X0415040Y0241031D01*
X0414233Y0242979D01*
X0412742Y0244469D01*
X0410794Y0245276D01*
X0408686Y0245276D01*
X0406738Y0244469D01*
X0405247Y0242979D01*
X0404440Y0241031D01*
X0404440Y0238922D01*
X0405247Y0236974D01*
X0406738Y0235483D01*
X0404996Y0237580D02*
X0330134Y0237580D01*
X0330134Y0239178D02*
X0404440Y0239178D01*
X0404440Y0240777D02*
X0330134Y0240777D01*
X0330134Y0242375D02*
X0404997Y0242375D01*
X0406242Y0243974D02*
X0386046Y0243974D01*
X0385706Y0243633D02*
X0386713Y0244641D01*
X0387258Y0245957D01*
X0387258Y0247382D01*
X0386713Y0248698D01*
X0385706Y0249705D01*
X0384389Y0250250D01*
X0382965Y0250250D01*
X0381649Y0249705D01*
X0380641Y0248698D01*
X0380096Y0247382D01*
X0380096Y0245957D01*
X0380641Y0244641D01*
X0381649Y0243633D01*
X0382965Y0243088D01*
X0384389Y0243088D01*
X0385706Y0243633D01*
X0387099Y0245572D02*
X0421668Y0245572D01*
X0421487Y0246009D02*
X0422294Y0244061D01*
X0423785Y0242570D01*
X0425733Y0241763D01*
X0427842Y0241763D01*
X0429790Y0242570D01*
X0431281Y0244061D01*
X0432087Y0246009D01*
X0432087Y0248117D01*
X0431281Y0250065D01*
X0429790Y0251556D01*
X0427842Y0252363D01*
X0425733Y0252363D01*
X0423785Y0251556D01*
X0422294Y0250065D01*
X0421487Y0248117D01*
X0421487Y0246009D01*
X0421487Y0247171D02*
X0387258Y0247171D01*
X0386642Y0248769D02*
X0401746Y0248769D01*
X0401029Y0249066D02*
X0402977Y0248259D01*
X0405086Y0248259D01*
X0407034Y0249066D01*
X0408525Y0250557D01*
X0409331Y0252505D01*
X0409331Y0254613D01*
X0408525Y0256561D01*
X0407034Y0258052D01*
X0405086Y0258859D01*
X0402977Y0258859D01*
X0401029Y0258052D01*
X0399538Y0256561D01*
X0398731Y0254613D01*
X0398731Y0252505D01*
X0399538Y0250557D01*
X0401029Y0249066D01*
X0399727Y0250368D02*
X0351391Y0250368D01*
X0350925Y0250175D02*
X0352241Y0250720D01*
X0353248Y0251727D01*
X0353794Y0253044D01*
X0353794Y0254468D01*
X0353248Y0255784D01*
X0352241Y0256792D01*
X0350925Y0257337D01*
X0349500Y0257337D01*
X0348184Y0256792D01*
X0347177Y0255784D01*
X0346631Y0254468D01*
X0346631Y0253044D01*
X0347177Y0251727D01*
X0348184Y0250720D01*
X0349500Y0250175D01*
X0350925Y0250175D01*
X0349034Y0250368D02*
X0330134Y0250368D01*
X0330134Y0251966D02*
X0347078Y0251966D01*
X0346631Y0253565D02*
X0330134Y0253565D01*
X0330134Y0255163D02*
X0346919Y0255163D01*
X0348154Y0256762D02*
X0330134Y0256762D01*
X0330134Y0258360D02*
X0401773Y0258360D01*
X0399739Y0256762D02*
X0352271Y0256762D01*
X0353506Y0255163D02*
X0398959Y0255163D01*
X0398731Y0253565D02*
X0353794Y0253565D01*
X0353347Y0251966D02*
X0398955Y0251966D01*
X0406317Y0248769D02*
X0421757Y0248769D01*
X0422597Y0250368D02*
X0408336Y0250368D01*
X0409108Y0251966D02*
X0424775Y0251966D01*
X0425261Y0255149D02*
X0423313Y0255956D01*
X0421822Y0257447D01*
X0421015Y0259395D01*
X0421015Y0261503D01*
X0421822Y0263451D01*
X0423313Y0264942D01*
X0425261Y0265749D01*
X0427369Y0265749D01*
X0429317Y0264942D01*
X0430808Y0263451D01*
X0431615Y0261503D01*
X0431615Y0259395D01*
X0430808Y0257447D01*
X0429317Y0255956D01*
X0427369Y0255149D01*
X0425261Y0255149D01*
X0425226Y0255163D02*
X0409104Y0255163D01*
X0409331Y0253565D02*
X0544200Y0253565D01*
X0544200Y0255163D02*
X0427404Y0255163D01*
X0430123Y0256762D02*
X0544200Y0256762D01*
X0544200Y0258360D02*
X0431187Y0258360D01*
X0431615Y0259959D02*
X0544200Y0259959D01*
X0544200Y0261557D02*
X0431592Y0261557D01*
X0430930Y0263156D02*
X0544200Y0263156D01*
X0544200Y0264754D02*
X0429505Y0264754D01*
X0423125Y0264754D02*
X0330134Y0264754D01*
X0330134Y0263156D02*
X0421700Y0263156D01*
X0421037Y0261557D02*
X0330134Y0261557D01*
X0330134Y0259959D02*
X0421015Y0259959D01*
X0421443Y0258360D02*
X0406290Y0258360D01*
X0408324Y0256762D02*
X0422507Y0256762D01*
X0428799Y0251966D02*
X0472099Y0251966D01*
X0472200Y0252067D02*
X0471192Y0251060D01*
X0471181Y0251031D01*
X0455290Y0251031D01*
X0455284Y0251026D01*
X0455256Y0251038D01*
X0453831Y0251038D01*
X0452515Y0250493D01*
X0451507Y0249485D01*
X0450962Y0248169D01*
X0450962Y0246744D01*
X0451507Y0245428D01*
X0452515Y0244421D01*
X0453831Y0243876D01*
X0455256Y0243876D01*
X0456572Y0244421D01*
X0457579Y0245428D01*
X0458124Y0246744D01*
X0458124Y0247031D01*
X0471181Y0247031D01*
X0471192Y0247003D01*
X0472200Y0245996D01*
X0473516Y0245450D01*
X0474941Y0245450D01*
X0476257Y0245996D01*
X0477264Y0247003D01*
X0477809Y0248319D01*
X0477809Y0249744D01*
X0477264Y0251060D01*
X0476257Y0252067D01*
X0474941Y0252613D01*
X0473516Y0252613D01*
X0472200Y0252067D01*
X0476358Y0251966D02*
X0544200Y0251966D01*
X0544200Y0250368D02*
X0477551Y0250368D01*
X0477809Y0248769D02*
X0544200Y0248769D01*
X0544200Y0247171D02*
X0477334Y0247171D01*
X0475235Y0245572D02*
X0544200Y0245572D01*
X0544200Y0243974D02*
X0455493Y0243974D01*
X0453594Y0243974D02*
X0431193Y0243974D01*
X0431907Y0245572D02*
X0451448Y0245572D01*
X0450962Y0247171D02*
X0432087Y0247171D01*
X0431817Y0248769D02*
X0451211Y0248769D01*
X0452390Y0250368D02*
X0430978Y0250368D01*
X0429320Y0242375D02*
X0544200Y0242375D01*
X0544200Y0240777D02*
X0415040Y0240777D01*
X0415040Y0239178D02*
X0544200Y0239178D01*
X0544200Y0237580D02*
X0414484Y0237580D01*
X0413240Y0235981D02*
X0544200Y0235981D01*
X0544200Y0234383D02*
X0391579Y0234383D01*
X0392132Y0229587D02*
X0403365Y0229587D01*
X0408635Y0229587D02*
X0413365Y0229587D01*
X0412061Y0227989D02*
X0409939Y0227989D01*
X0410400Y0226390D02*
X0411600Y0226390D01*
X0411738Y0224792D02*
X0410262Y0224792D01*
X0409416Y0223193D02*
X0412584Y0223193D01*
X0414150Y0219996D02*
X0407850Y0219996D01*
X0408492Y0219730D02*
X0406875Y0220400D01*
X0405125Y0220400D01*
X0403508Y0219730D01*
X0402270Y0218492D01*
X0401600Y0216875D01*
X0401600Y0215125D01*
X0402270Y0213508D01*
X0403508Y0212270D01*
X0405125Y0211600D01*
X0406875Y0211600D01*
X0408492Y0212270D01*
X0409730Y0213508D01*
X0410400Y0215125D01*
X0410400Y0216875D01*
X0409730Y0218492D01*
X0408492Y0219730D01*
X0409769Y0218398D02*
X0412231Y0218398D01*
X0411600Y0216799D02*
X0410400Y0216799D01*
X0410400Y0215201D02*
X0411600Y0215201D01*
X0412231Y0213602D02*
X0409769Y0213602D01*
X0407849Y0212003D02*
X0414151Y0212003D01*
X0412584Y0208806D02*
X0409416Y0208806D01*
X0409730Y0208492D02*
X0408492Y0209730D01*
X0406875Y0210400D01*
X0405125Y0210400D01*
X0403508Y0209730D01*
X0402270Y0208492D01*
X0401600Y0206875D01*
X0401600Y0205125D01*
X0402270Y0203508D01*
X0403508Y0202270D01*
X0405125Y0201600D01*
X0406875Y0201600D01*
X0408492Y0202270D01*
X0409730Y0203508D01*
X0410400Y0205125D01*
X0410400Y0206875D01*
X0409730Y0208492D01*
X0410262Y0207208D02*
X0411738Y0207208D01*
X0411600Y0205609D02*
X0410400Y0205609D01*
X0409939Y0204011D02*
X0412061Y0204011D01*
X0413365Y0202412D02*
X0408635Y0202412D01*
X0403365Y0202412D02*
X0330134Y0202412D01*
X0330134Y0200814D02*
X0521298Y0200814D01*
X0518470Y0199215D02*
X0514650Y0199215D01*
X0516175Y0197617D02*
X0517337Y0197617D01*
X0517176Y0192821D02*
X0516572Y0192821D01*
X0515608Y0191223D02*
X0518145Y0191223D01*
X0520316Y0189624D02*
X0513129Y0189624D01*
X0510131Y0189624D02*
X0410741Y0189624D01*
X0409493Y0191223D02*
X0507652Y0191223D01*
X0506688Y0192821D02*
X0472689Y0192821D01*
X0472320Y0192452D02*
X0473327Y0193460D01*
X0473872Y0194776D01*
X0473872Y0196201D01*
X0473327Y0197517D01*
X0472320Y0198524D01*
X0471004Y0199069D01*
X0469579Y0199069D01*
X0468263Y0198524D01*
X0467255Y0197517D01*
X0466710Y0196201D01*
X0466710Y0194776D01*
X0467255Y0193460D01*
X0468263Y0192452D01*
X0469579Y0191907D01*
X0471004Y0191907D01*
X0472320Y0192452D01*
X0473725Y0194420D02*
X0506330Y0194420D01*
X0506423Y0196018D02*
X0473872Y0196018D01*
X0473227Y0197617D02*
X0507085Y0197617D01*
X0508610Y0199215D02*
X0330134Y0199215D01*
X0330134Y0197617D02*
X0452001Y0197617D01*
X0451901Y0197517D02*
X0451356Y0196201D01*
X0451356Y0194776D01*
X0451901Y0193460D01*
X0452908Y0192452D01*
X0454225Y0191907D01*
X0455649Y0191907D01*
X0456966Y0192452D01*
X0457973Y0193460D01*
X0458518Y0194776D01*
X0458518Y0196201D01*
X0457973Y0197517D01*
X0456966Y0198524D01*
X0455649Y0199069D01*
X0454225Y0199069D01*
X0452908Y0198524D01*
X0451901Y0197517D01*
X0451356Y0196018D02*
X0330134Y0196018D01*
X0330134Y0194420D02*
X0352348Y0194420D01*
X0352515Y0194587D02*
X0351507Y0193580D01*
X0350962Y0192264D01*
X0350962Y0190839D01*
X0351507Y0189523D01*
X0352515Y0188515D01*
X0353831Y0187970D01*
X0355256Y0187970D01*
X0356572Y0188515D01*
X0357579Y0189523D01*
X0358124Y0190839D01*
X0358124Y0192264D01*
X0357579Y0193580D01*
X0356572Y0194587D01*
X0355256Y0195132D01*
X0353831Y0195132D01*
X0352515Y0194587D01*
X0351193Y0192821D02*
X0330134Y0192821D01*
X0330134Y0191223D02*
X0350962Y0191223D01*
X0351465Y0189624D02*
X0330134Y0189624D01*
X0330134Y0188026D02*
X0353696Y0188026D01*
X0355390Y0188026D02*
X0367870Y0188026D01*
X0368004Y0187970D02*
X0369429Y0187970D01*
X0370745Y0188515D01*
X0371752Y0189523D01*
X0372298Y0190839D01*
X0372298Y0192264D01*
X0371752Y0193580D01*
X0370745Y0194587D01*
X0369429Y0195132D01*
X0368004Y0195132D01*
X0366688Y0194587D01*
X0365681Y0193580D01*
X0365135Y0192264D01*
X0365135Y0190839D01*
X0365681Y0189523D01*
X0366688Y0188515D01*
X0368004Y0187970D01*
X0369563Y0188026D02*
X0386111Y0188026D01*
X0386373Y0188288D02*
X0385366Y0187280D01*
X0384820Y0185964D01*
X0384820Y0184540D01*
X0385366Y0183223D01*
X0386373Y0182216D01*
X0387689Y0181671D01*
X0389114Y0181671D01*
X0390430Y0182216D01*
X0391437Y0183223D01*
X0391983Y0184540D01*
X0391983Y0185964D01*
X0391437Y0187280D01*
X0390430Y0188288D01*
X0389114Y0188833D01*
X0387689Y0188833D01*
X0386373Y0188288D01*
X0385012Y0186427D02*
X0330134Y0186427D01*
X0330134Y0184829D02*
X0338819Y0184829D01*
X0337749Y0183230D02*
X0330134Y0183230D01*
X0330134Y0182102D02*
X0331709Y0183677D01*
X0332496Y0183677D01*
X0330134Y0181632D02*
X0337576Y0181632D01*
X0338162Y0180033D02*
X0330134Y0180033D01*
X0327786Y0180033D02*
X0157800Y0180033D01*
X0157800Y0178435D02*
X0327784Y0178435D01*
X0327782Y0176836D02*
X0157800Y0176836D01*
X0157800Y0175238D02*
X0327780Y0175238D01*
X0327778Y0173639D02*
X0157800Y0173639D01*
X0157800Y0172041D02*
X0284707Y0172041D01*
X0285327Y0172298D02*
X0284011Y0171752D01*
X0283003Y0170745D01*
X0282458Y0169429D01*
X0282458Y0168004D01*
X0283003Y0166688D01*
X0284011Y0165681D01*
X0285327Y0165135D01*
X0286752Y0165135D01*
X0288068Y0165681D01*
X0289075Y0166688D01*
X0289620Y0168004D01*
X0289620Y0169429D01*
X0289075Y0170745D01*
X0288068Y0171752D01*
X0286752Y0172298D01*
X0285327Y0172298D01*
X0287372Y0172041D02*
X0327776Y0172041D01*
X0327774Y0170442D02*
X0289201Y0170442D01*
X0289620Y0168844D02*
X0327772Y0168844D01*
X0327788Y0181632D02*
X0301782Y0181632D01*
X0301149Y0181369D02*
X0303097Y0182176D01*
X0304588Y0183667D01*
X0305394Y0185615D01*
X0305394Y0187724D01*
X0304588Y0189671D01*
X0303097Y0191162D01*
X0301149Y0191969D01*
X0299040Y0191969D01*
X0297092Y0191162D01*
X0295601Y0189671D01*
X0294794Y0187724D01*
X0294794Y0185615D01*
X0295601Y0183667D01*
X0297092Y0182176D01*
X0299040Y0181369D01*
X0301149Y0181369D01*
X0298407Y0181632D02*
X0157800Y0181632D01*
X0157800Y0183230D02*
X0296038Y0183230D01*
X0295120Y0184829D02*
X0157800Y0184829D01*
X0157800Y0186427D02*
X0294794Y0186427D01*
X0294920Y0188026D02*
X0157800Y0188026D01*
X0157800Y0189624D02*
X0295582Y0189624D01*
X0297238Y0191223D02*
X0157800Y0191223D01*
X0157800Y0192821D02*
X0316891Y0192821D01*
X0317082Y0193012D02*
X0316074Y0192005D01*
X0315529Y0190689D01*
X0315529Y0189264D01*
X0316074Y0187948D01*
X0317082Y0186940D01*
X0318398Y0186395D01*
X0319823Y0186395D01*
X0321139Y0186940D01*
X0322146Y0187948D01*
X0322691Y0189264D01*
X0322691Y0190689D01*
X0322146Y0192005D01*
X0321139Y0193012D01*
X0319823Y0193557D01*
X0318398Y0193557D01*
X0317082Y0193012D01*
X0315750Y0191223D02*
X0302951Y0191223D01*
X0304607Y0189624D02*
X0315529Y0189624D01*
X0316042Y0188026D02*
X0305269Y0188026D01*
X0305394Y0186427D02*
X0318321Y0186427D01*
X0319900Y0186427D02*
X0327794Y0186427D01*
X0327792Y0184829D02*
X0305069Y0184829D01*
X0304151Y0183230D02*
X0327790Y0183230D01*
X0327796Y0188026D02*
X0322178Y0188026D01*
X0322691Y0189624D02*
X0327798Y0189624D01*
X0327801Y0191223D02*
X0322470Y0191223D01*
X0321330Y0192821D02*
X0327803Y0192821D01*
X0327805Y0194420D02*
X0157800Y0194420D01*
X0157800Y0196018D02*
X0327807Y0196018D01*
X0327809Y0197617D02*
X0157800Y0197617D01*
X0157800Y0199215D02*
X0327811Y0199215D01*
X0327813Y0200814D02*
X0157800Y0200814D01*
X0157800Y0202412D02*
X0327815Y0202412D01*
X0327817Y0204011D02*
X0157800Y0204011D01*
X0157800Y0205609D02*
X0281877Y0205609D01*
X0281429Y0206058D02*
X0282436Y0205051D01*
X0283752Y0204506D01*
X0285177Y0204506D01*
X0286493Y0205051D01*
X0287500Y0206058D01*
X0288046Y0207374D01*
X0288046Y0208799D01*
X0287500Y0210115D01*
X0286493Y0211123D01*
X0285177Y0211668D01*
X0283752Y0211668D01*
X0282436Y0211123D01*
X0281429Y0210115D01*
X0280883Y0208799D01*
X0280883Y0207374D01*
X0281429Y0206058D01*
X0280952Y0207208D02*
X0157800Y0207208D01*
X0157800Y0208806D02*
X0280887Y0208806D01*
X0281719Y0210405D02*
X0157800Y0210405D01*
X0157800Y0212003D02*
X0296980Y0212003D01*
X0297177Y0212477D02*
X0296631Y0211161D01*
X0296631Y0209736D01*
X0297177Y0208420D01*
X0298184Y0207413D01*
X0299500Y0206868D01*
X0300925Y0206868D01*
X0302241Y0207413D01*
X0303248Y0208420D01*
X0303794Y0209736D01*
X0303794Y0211161D01*
X0303248Y0212477D01*
X0302241Y0213485D01*
X0300925Y0214030D01*
X0299500Y0214030D01*
X0298184Y0213485D01*
X0297177Y0212477D01*
X0298467Y0213602D02*
X0157800Y0213602D01*
X0157800Y0215201D02*
X0327831Y0215201D01*
X0327833Y0216799D02*
X0294304Y0216799D01*
X0294587Y0217082D02*
X0295132Y0218398D01*
X0295132Y0219823D01*
X0294587Y0221139D01*
X0293580Y0222146D01*
X0292264Y0222691D01*
X0290839Y0222691D01*
X0289523Y0222146D01*
X0288515Y0221139D01*
X0287970Y0219823D01*
X0287970Y0218398D01*
X0288515Y0217082D01*
X0289523Y0216074D01*
X0290839Y0215529D01*
X0292264Y0215529D01*
X0293580Y0216074D01*
X0294587Y0217082D01*
X0295132Y0218398D02*
X0327835Y0218398D01*
X0327837Y0219996D02*
X0295060Y0219996D01*
X0294131Y0221595D02*
X0327840Y0221595D01*
X0327842Y0223193D02*
X0157800Y0223193D01*
X0157800Y0221595D02*
X0288971Y0221595D01*
X0288042Y0219996D02*
X0157800Y0219996D01*
X0157800Y0218398D02*
X0287970Y0218398D01*
X0288798Y0216799D02*
X0157800Y0216799D01*
X0157800Y0224792D02*
X0259546Y0224792D01*
X0259381Y0224956D02*
X0260389Y0223948D01*
X0261705Y0223403D01*
X0263130Y0223403D01*
X0264446Y0223948D01*
X0265453Y0224956D01*
X0265998Y0226272D01*
X0265998Y0227697D01*
X0265453Y0229013D01*
X0264446Y0230020D01*
X0263130Y0230565D01*
X0261705Y0230565D01*
X0260389Y0230020D01*
X0259381Y0229013D01*
X0258836Y0227697D01*
X0258836Y0226272D01*
X0259381Y0224956D01*
X0258836Y0226390D02*
X0157800Y0226390D01*
X0157800Y0227989D02*
X0227447Y0227989D01*
X0228410Y0227590D02*
X0226462Y0228397D01*
X0224971Y0229888D01*
X0224165Y0231836D01*
X0224165Y0233944D01*
X0224971Y0235892D01*
X0226462Y0237383D01*
X0228410Y0238190D01*
X0230519Y0238190D01*
X0232467Y0237383D01*
X0233958Y0235892D01*
X0234765Y0233944D01*
X0234765Y0231836D01*
X0233958Y0229888D01*
X0232467Y0228397D01*
X0230519Y0227590D01*
X0228410Y0227590D01*
X0231482Y0227989D02*
X0258957Y0227989D01*
X0259956Y0229587D02*
X0233657Y0229587D01*
X0234495Y0231186D02*
X0327852Y0231186D01*
X0327854Y0232784D02*
X0234765Y0232784D01*
X0234583Y0234383D02*
X0327856Y0234383D01*
X0327858Y0235981D02*
X0273328Y0235981D01*
X0273327Y0235979D02*
X0273872Y0237296D01*
X0273872Y0238720D01*
X0273327Y0240036D01*
X0272320Y0241044D01*
X0271004Y0241589D01*
X0269579Y0241589D01*
X0268263Y0241044D01*
X0267255Y0240036D01*
X0266786Y0238903D01*
X0266786Y0240295D01*
X0266241Y0241611D01*
X0265233Y0242619D01*
X0263917Y0243164D01*
X0262492Y0243164D01*
X0261176Y0242619D01*
X0260169Y0241611D01*
X0259624Y0240295D01*
X0259624Y0238870D01*
X0260169Y0237554D01*
X0261176Y0236547D01*
X0262492Y0236002D01*
X0263917Y0236002D01*
X0265233Y0236547D01*
X0266241Y0237554D01*
X0266710Y0238688D01*
X0266710Y0237296D01*
X0267255Y0235979D01*
X0268263Y0234972D01*
X0269579Y0234427D01*
X0271004Y0234427D01*
X0272320Y0234972D01*
X0273327Y0235979D01*
X0273872Y0237580D02*
X0327860Y0237580D01*
X0327862Y0239178D02*
X0278943Y0239178D01*
X0278878Y0239151D02*
X0280194Y0239696D01*
X0281201Y0240704D01*
X0281746Y0242020D01*
X0281746Y0243445D01*
X0281201Y0244761D01*
X0280194Y0245768D01*
X0278878Y0246313D01*
X0277453Y0246313D01*
X0276137Y0245768D01*
X0275129Y0244761D01*
X0274584Y0243445D01*
X0274584Y0242020D01*
X0275129Y0240704D01*
X0276137Y0239696D01*
X0277453Y0239151D01*
X0278878Y0239151D01*
X0277388Y0239178D02*
X0273683Y0239178D01*
X0272587Y0240777D02*
X0275099Y0240777D01*
X0274584Y0242375D02*
X0265477Y0242375D01*
X0266586Y0240777D02*
X0267996Y0240777D01*
X0266900Y0239178D02*
X0266786Y0239178D01*
X0266710Y0237580D02*
X0266251Y0237580D01*
X0267255Y0235981D02*
X0233868Y0235981D01*
X0231992Y0237580D02*
X0260158Y0237580D01*
X0259624Y0239178D02*
X0157800Y0239178D01*
X0157800Y0237580D02*
X0226937Y0237580D01*
X0225061Y0235981D02*
X0157800Y0235981D01*
X0157800Y0234383D02*
X0224346Y0234383D01*
X0224165Y0232784D02*
X0157800Y0232784D01*
X0157800Y0231186D02*
X0224434Y0231186D01*
X0225272Y0229587D02*
X0157800Y0229587D01*
X0157800Y0240777D02*
X0259823Y0240777D01*
X0260933Y0242375D02*
X0157800Y0242375D01*
X0157800Y0243974D02*
X0274803Y0243974D01*
X0275941Y0245572D02*
X0157800Y0245572D01*
X0157800Y0247171D02*
X0327872Y0247171D01*
X0327874Y0248769D02*
X0285586Y0248769D01*
X0285177Y0248600D02*
X0286493Y0249145D01*
X0287500Y0250153D01*
X0288046Y0251469D01*
X0288046Y0252893D01*
X0287500Y0254210D01*
X0286493Y0255217D01*
X0285177Y0255762D01*
X0283752Y0255762D01*
X0283597Y0255698D01*
X0284351Y0256452D01*
X0284896Y0257768D01*
X0284896Y0259193D01*
X0284351Y0260509D01*
X0283343Y0261516D01*
X0282027Y0262061D01*
X0280603Y0262061D01*
X0279286Y0261516D01*
X0278279Y0260509D01*
X0277734Y0259193D01*
X0277734Y0257768D01*
X0278279Y0256452D01*
X0279286Y0255444D01*
X0280603Y0254899D01*
X0282027Y0254899D01*
X0282183Y0254964D01*
X0281429Y0254210D01*
X0280883Y0252893D01*
X0280883Y0251469D01*
X0281429Y0250153D01*
X0282436Y0249145D01*
X0283752Y0248600D01*
X0285177Y0248600D01*
X0283344Y0248769D02*
X0157800Y0248769D01*
X0157800Y0250368D02*
X0281340Y0250368D01*
X0280883Y0251966D02*
X0157800Y0251966D01*
X0157800Y0253565D02*
X0281162Y0253565D01*
X0279965Y0255163D02*
X0157800Y0255163D01*
X0157800Y0256762D02*
X0278151Y0256762D01*
X0277734Y0258360D02*
X0157800Y0258360D01*
X0157800Y0259959D02*
X0278051Y0259959D01*
X0279386Y0261557D02*
X0266358Y0261557D01*
X0266808Y0261744D02*
X0267815Y0262751D01*
X0268361Y0264067D01*
X0268361Y0265492D01*
X0267815Y0266808D01*
X0266808Y0267815D01*
X0265492Y0268361D01*
X0264067Y0268361D01*
X0262751Y0267815D01*
X0261744Y0266808D01*
X0261198Y0265492D01*
X0261198Y0264067D01*
X0261744Y0262751D01*
X0262751Y0261744D01*
X0264067Y0261198D01*
X0265492Y0261198D01*
X0266808Y0261744D01*
X0267983Y0263156D02*
X0303718Y0263156D01*
X0303718Y0262492D02*
X0304263Y0261176D01*
X0305271Y0260169D01*
X0306587Y0259624D01*
X0308012Y0259624D01*
X0309328Y0260169D01*
X0310335Y0261176D01*
X0310880Y0262492D01*
X0310880Y0263917D01*
X0310335Y0265233D01*
X0309328Y0266241D01*
X0308012Y0266786D01*
X0306587Y0266786D01*
X0305271Y0266241D01*
X0304263Y0265233D01*
X0303718Y0263917D01*
X0303718Y0262492D01*
X0304105Y0261557D02*
X0283244Y0261557D01*
X0284579Y0259959D02*
X0305778Y0259959D01*
X0308821Y0259959D02*
X0327889Y0259959D01*
X0327891Y0261557D02*
X0310493Y0261557D01*
X0310880Y0263156D02*
X0327893Y0263156D01*
X0327895Y0264754D02*
X0310533Y0264754D01*
X0309057Y0266353D02*
X0327897Y0266353D01*
X0327899Y0267951D02*
X0266480Y0267951D01*
X0268004Y0266353D02*
X0305542Y0266353D01*
X0304065Y0264754D02*
X0268361Y0264754D01*
X0263201Y0261557D02*
X0157800Y0261557D01*
X0157800Y0263156D02*
X0261576Y0263156D01*
X0261198Y0264754D02*
X0157800Y0264754D01*
X0157800Y0266353D02*
X0261555Y0266353D01*
X0263079Y0267951D02*
X0157800Y0267951D01*
X0157800Y0269550D02*
X0327901Y0269550D01*
X0327903Y0271148D02*
X0157800Y0271148D01*
X0157800Y0272747D02*
X0327905Y0272747D01*
X0327907Y0274345D02*
X0157800Y0274345D01*
X0157800Y0275944D02*
X0327909Y0275944D01*
X0327911Y0277542D02*
X0157800Y0277542D01*
X0157800Y0279141D02*
X0274488Y0279141D01*
X0274562Y0279066D02*
X0275878Y0278521D01*
X0277303Y0278521D01*
X0278619Y0279066D01*
X0279626Y0280074D01*
X0280172Y0281390D01*
X0280172Y0282815D01*
X0279626Y0284131D01*
X0278619Y0285138D01*
X0277303Y0285683D01*
X0275878Y0285683D01*
X0274562Y0285138D01*
X0273555Y0284131D01*
X0273009Y0282815D01*
X0273009Y0281390D01*
X0273555Y0280074D01*
X0274562Y0279066D01*
X0273279Y0280739D02*
X0157800Y0280739D01*
X0157800Y0282338D02*
X0273009Y0282338D01*
X0273474Y0283937D02*
X0157800Y0283937D01*
X0157800Y0285535D02*
X0275520Y0285535D01*
X0277661Y0285535D02*
X0283620Y0285535D01*
X0284011Y0285926D02*
X0283003Y0284918D01*
X0282458Y0283602D01*
X0282458Y0282177D01*
X0283003Y0280861D01*
X0284011Y0279854D01*
X0285327Y0279309D01*
X0286752Y0279309D01*
X0288068Y0279854D01*
X0289075Y0280861D01*
X0289620Y0282177D01*
X0289620Y0283602D01*
X0289075Y0284918D01*
X0288068Y0285926D01*
X0286752Y0286471D01*
X0285327Y0286471D01*
X0284011Y0285926D01*
X0282597Y0283937D02*
X0279707Y0283937D01*
X0280172Y0282338D02*
X0282458Y0282338D01*
X0283125Y0280739D02*
X0279902Y0280739D01*
X0278694Y0279141D02*
X0318582Y0279141D01*
X0318437Y0279286D02*
X0319444Y0278279D01*
X0320760Y0277734D01*
X0322185Y0277734D01*
X0323501Y0278279D01*
X0324508Y0279286D01*
X0325054Y0280603D01*
X0325054Y0282027D01*
X0324508Y0283343D01*
X0323501Y0284351D01*
X0322185Y0284896D01*
X0320760Y0284896D01*
X0319444Y0284351D01*
X0318437Y0283343D01*
X0317891Y0282027D01*
X0317891Y0280603D01*
X0318437Y0279286D01*
X0317891Y0280739D02*
X0288954Y0280739D01*
X0289620Y0282338D02*
X0318020Y0282338D01*
X0319030Y0283937D02*
X0289482Y0283937D01*
X0288459Y0285535D02*
X0327922Y0285535D01*
X0327920Y0283937D02*
X0323915Y0283937D01*
X0324925Y0282338D02*
X0327918Y0282338D01*
X0327915Y0280739D02*
X0325054Y0280739D01*
X0324363Y0279141D02*
X0327913Y0279141D01*
X0330134Y0279141D02*
X0544200Y0279141D01*
X0544200Y0280739D02*
X0330134Y0280739D01*
X0330134Y0282338D02*
X0544200Y0282338D01*
X0544200Y0283937D02*
X0342544Y0283937D01*
X0342619Y0284011D02*
X0343164Y0285327D01*
X0343164Y0286752D01*
X0342619Y0288068D01*
X0341611Y0289075D01*
X0340295Y0289620D01*
X0338870Y0289620D01*
X0337554Y0289075D01*
X0336547Y0288068D01*
X0336002Y0286752D01*
X0336002Y0285327D01*
X0336547Y0284011D01*
X0337554Y0283003D01*
X0338870Y0282458D01*
X0340295Y0282458D01*
X0341611Y0283003D01*
X0342619Y0284011D01*
X0343164Y0285535D02*
X0544200Y0285535D01*
X0544200Y0287134D02*
X0343006Y0287134D01*
X0341954Y0288732D02*
X0544200Y0288732D01*
X0544200Y0290331D02*
X0330134Y0290331D01*
X0330134Y0291929D02*
X0544200Y0291929D01*
X0544200Y0293528D02*
X0330134Y0293528D01*
X0330134Y0295126D02*
X0544200Y0295126D01*
X0544200Y0296725D02*
X0330134Y0296725D01*
X0330921Y0295488D02*
X0331709Y0296276D01*
X0331709Y0297063D01*
X0330134Y0298323D02*
X0544200Y0298323D01*
X0544200Y0299922D02*
X0330134Y0299922D01*
X0330134Y0301520D02*
X0544200Y0301520D01*
X0544200Y0303119D02*
X0330134Y0303119D01*
X0330134Y0304717D02*
X0544200Y0304717D01*
X0544200Y0306316D02*
X0330134Y0306316D01*
X0330134Y0307914D02*
X0544200Y0307914D01*
X0544200Y0309513D02*
X0330134Y0309513D01*
X0330134Y0311111D02*
X0544200Y0311111D01*
X0544200Y0312710D02*
X0330134Y0312710D01*
X0327956Y0312710D02*
X0157800Y0312710D01*
X0157800Y0311111D02*
X0327954Y0311111D01*
X0327952Y0309513D02*
X0322710Y0309513D01*
X0322492Y0309730D02*
X0320875Y0310400D01*
X0319125Y0310400D01*
X0317508Y0309730D01*
X0316270Y0308492D01*
X0315600Y0306875D01*
X0315600Y0305125D01*
X0316270Y0303508D01*
X0317508Y0302270D01*
X0319125Y0301600D01*
X0320875Y0301600D01*
X0322492Y0302270D01*
X0323730Y0303508D01*
X0324400Y0305125D01*
X0324400Y0306875D01*
X0323730Y0308492D01*
X0322492Y0309730D01*
X0323970Y0307914D02*
X0327950Y0307914D01*
X0327948Y0306316D02*
X0324400Y0306316D01*
X0324231Y0304717D02*
X0327946Y0304717D01*
X0327944Y0303119D02*
X0323341Y0303119D01*
X0327942Y0301520D02*
X0298349Y0301520D01*
X0298632Y0301804D02*
X0299125Y0301600D01*
X0300875Y0301600D01*
X0302492Y0302270D01*
X0303730Y0303508D01*
X0304400Y0305125D01*
X0304400Y0306875D01*
X0303730Y0308492D01*
X0302492Y0309730D01*
X0300875Y0310400D01*
X0299125Y0310400D01*
X0297508Y0309730D01*
X0296270Y0308492D01*
X0295600Y0306875D01*
X0295600Y0305125D01*
X0295804Y0304632D01*
X0290235Y0299063D01*
X0282000Y0299063D01*
X0281989Y0299092D01*
X0280981Y0300099D01*
X0279665Y0300644D01*
X0278240Y0300644D01*
X0276924Y0300099D01*
X0275917Y0299092D01*
X0275372Y0297775D01*
X0275372Y0296351D01*
X0275917Y0295034D01*
X0276924Y0294027D01*
X0278240Y0293482D01*
X0279665Y0293482D01*
X0280981Y0294027D01*
X0281989Y0295034D01*
X0282000Y0295063D01*
X0291891Y0295063D01*
X0298632Y0301804D01*
X0296750Y0299922D02*
X0327940Y0299922D01*
X0327938Y0298323D02*
X0295152Y0298323D01*
X0293553Y0296725D02*
X0327936Y0296725D01*
X0327934Y0295126D02*
X0291955Y0295126D01*
X0291093Y0299922D02*
X0281159Y0299922D01*
X0280875Y0301600D02*
X0282492Y0302270D01*
X0283730Y0303508D01*
X0284400Y0305125D01*
X0284400Y0306875D01*
X0283730Y0308492D01*
X0282492Y0309730D01*
X0280875Y0310400D01*
X0279125Y0310400D01*
X0277508Y0309730D01*
X0276270Y0308492D01*
X0275600Y0306875D01*
X0275600Y0305125D01*
X0276270Y0303508D01*
X0277508Y0302270D01*
X0279125Y0301600D01*
X0280875Y0301600D01*
X0283341Y0303119D02*
X0286659Y0303119D01*
X0286270Y0303508D02*
X0287508Y0302270D01*
X0289125Y0301600D01*
X0290875Y0301600D01*
X0292492Y0302270D01*
X0293730Y0303508D01*
X0294400Y0305125D01*
X0294400Y0306875D01*
X0293730Y0308492D01*
X0292492Y0309730D01*
X0290875Y0310400D01*
X0289125Y0310400D01*
X0287508Y0309730D01*
X0286270Y0308492D01*
X0285600Y0306875D01*
X0285600Y0305125D01*
X0286270Y0303508D01*
X0285769Y0304717D02*
X0284231Y0304717D01*
X0284400Y0306316D02*
X0285600Y0306316D01*
X0286030Y0307914D02*
X0283970Y0307914D01*
X0282710Y0309513D02*
X0287290Y0309513D01*
X0292710Y0309513D02*
X0297290Y0309513D01*
X0296030Y0307914D02*
X0293970Y0307914D01*
X0294400Y0306316D02*
X0295600Y0306316D01*
X0295769Y0304717D02*
X0294231Y0304717D01*
X0294290Y0303119D02*
X0293341Y0303119D01*
X0292692Y0301520D02*
X0157800Y0301520D01*
X0157800Y0299922D02*
X0276747Y0299922D01*
X0275599Y0298323D02*
X0157800Y0298323D01*
X0157800Y0296725D02*
X0275372Y0296725D01*
X0275879Y0295126D02*
X0157800Y0295126D01*
X0157800Y0293528D02*
X0278130Y0293528D01*
X0279775Y0293528D02*
X0327932Y0293528D01*
X0327930Y0291929D02*
X0157800Y0291929D01*
X0157800Y0290331D02*
X0327928Y0290331D01*
X0327926Y0288732D02*
X0157800Y0288732D01*
X0157800Y0287134D02*
X0327924Y0287134D01*
X0330134Y0287134D02*
X0336160Y0287134D01*
X0336002Y0285535D02*
X0330134Y0285535D01*
X0330134Y0283937D02*
X0336621Y0283937D01*
X0332496Y0286039D02*
X0331709Y0285252D01*
X0330134Y0288732D02*
X0337211Y0288732D01*
X0330134Y0277542D02*
X0544200Y0277542D01*
X0544200Y0275944D02*
X0330134Y0275944D01*
X0330134Y0274345D02*
X0544200Y0274345D01*
X0544200Y0272747D02*
X0330134Y0272747D01*
X0330134Y0271148D02*
X0544200Y0271148D01*
X0544200Y0269550D02*
X0330134Y0269550D01*
X0330134Y0267951D02*
X0544200Y0267951D01*
X0544200Y0266353D02*
X0330134Y0266353D01*
X0327887Y0258360D02*
X0284896Y0258360D01*
X0284479Y0256762D02*
X0301304Y0256762D01*
X0301334Y0256792D02*
X0300326Y0255784D01*
X0299781Y0254468D01*
X0299781Y0253044D01*
X0300326Y0251727D01*
X0301334Y0250720D01*
X0302650Y0250175D01*
X0304075Y0250175D01*
X0305391Y0250720D01*
X0306398Y0251727D01*
X0306943Y0253044D01*
X0306943Y0254468D01*
X0306398Y0255784D01*
X0305391Y0256792D01*
X0304075Y0257337D01*
X0302650Y0257337D01*
X0301334Y0256792D01*
X0300069Y0255163D02*
X0286547Y0255163D01*
X0287768Y0253565D02*
X0299781Y0253565D01*
X0300227Y0251966D02*
X0288046Y0251966D01*
X0287590Y0250368D02*
X0302184Y0250368D01*
X0304540Y0250368D02*
X0327876Y0250368D01*
X0327879Y0251966D02*
X0318448Y0251966D01*
X0317989Y0251507D02*
X0318997Y0252515D01*
X0319542Y0253831D01*
X0319542Y0255256D01*
X0318997Y0256572D01*
X0317989Y0257579D01*
X0316673Y0258124D01*
X0315248Y0258124D01*
X0313932Y0257579D01*
X0312925Y0256572D01*
X0312380Y0255256D01*
X0312380Y0253831D01*
X0312925Y0252515D01*
X0313932Y0251507D01*
X0315248Y0250962D01*
X0316673Y0250962D01*
X0317989Y0251507D01*
X0319431Y0253565D02*
X0327881Y0253565D01*
X0327883Y0255163D02*
X0319542Y0255163D01*
X0318807Y0256762D02*
X0327885Y0256762D01*
X0330134Y0248769D02*
X0380713Y0248769D01*
X0380096Y0247171D02*
X0330134Y0247171D01*
X0330134Y0245572D02*
X0380255Y0245572D01*
X0381308Y0243974D02*
X0330134Y0243974D01*
X0327868Y0243974D02*
X0281527Y0243974D01*
X0281746Y0242375D02*
X0327866Y0242375D01*
X0327864Y0240777D02*
X0281231Y0240777D01*
X0280390Y0245572D02*
X0327870Y0245572D01*
X0313473Y0251966D02*
X0306497Y0251966D01*
X0306943Y0253565D02*
X0312490Y0253565D01*
X0312380Y0255163D02*
X0306655Y0255163D01*
X0305421Y0256762D02*
X0313115Y0256762D01*
X0314386Y0275016D02*
X0313598Y0275803D01*
X0314386Y0275016D02*
X0314386Y0278953D01*
X0310875Y0301600D02*
X0309125Y0301600D01*
X0307508Y0302270D01*
X0306270Y0303508D01*
X0305600Y0305125D01*
X0305600Y0306875D01*
X0306270Y0308492D01*
X0307508Y0309730D01*
X0309125Y0310400D01*
X0310875Y0310400D01*
X0312492Y0309730D01*
X0313730Y0308492D01*
X0314400Y0306875D01*
X0314400Y0305125D01*
X0313730Y0303508D01*
X0312492Y0302270D01*
X0310875Y0301600D01*
X0313341Y0303119D02*
X0316659Y0303119D01*
X0315769Y0304717D02*
X0314231Y0304717D01*
X0314400Y0306316D02*
X0315600Y0306316D01*
X0316030Y0307914D02*
X0313970Y0307914D01*
X0312710Y0309513D02*
X0317290Y0309513D01*
X0307290Y0309513D02*
X0302710Y0309513D01*
X0303970Y0307914D02*
X0306030Y0307914D01*
X0305600Y0306316D02*
X0304400Y0306316D01*
X0304231Y0304717D02*
X0305769Y0304717D01*
X0306659Y0303119D02*
X0303341Y0303119D01*
X0276659Y0303119D02*
X0273341Y0303119D01*
X0273730Y0303508D02*
X0274400Y0305125D01*
X0274400Y0306875D01*
X0273730Y0308492D01*
X0272492Y0309730D01*
X0270875Y0310400D01*
X0269125Y0310400D01*
X0267508Y0309730D01*
X0266270Y0308492D01*
X0265600Y0306875D01*
X0265600Y0305125D01*
X0266270Y0303508D01*
X0267508Y0302270D01*
X0269125Y0301600D01*
X0270875Y0301600D01*
X0272492Y0302270D01*
X0273730Y0303508D01*
X0274231Y0304717D02*
X0275769Y0304717D01*
X0275600Y0306316D02*
X0274400Y0306316D01*
X0273970Y0307914D02*
X0276030Y0307914D01*
X0277290Y0309513D02*
X0272710Y0309513D01*
X0267290Y0309513D02*
X0262710Y0309513D01*
X0262492Y0309730D02*
X0260875Y0310400D01*
X0259125Y0310400D01*
X0257508Y0309730D01*
X0256270Y0308492D01*
X0255600Y0306875D01*
X0255600Y0305125D01*
X0256270Y0303508D01*
X0257508Y0302270D01*
X0259125Y0301600D01*
X0260875Y0301600D01*
X0262492Y0302270D01*
X0263730Y0303508D01*
X0264400Y0305125D01*
X0264400Y0306875D01*
X0263730Y0308492D01*
X0262492Y0309730D01*
X0263970Y0307914D02*
X0266030Y0307914D01*
X0265600Y0306316D02*
X0264400Y0306316D01*
X0264231Y0304717D02*
X0265769Y0304717D01*
X0266659Y0303119D02*
X0263341Y0303119D01*
X0256659Y0303119D02*
X0253341Y0303119D01*
X0253730Y0303508D02*
X0254400Y0305125D01*
X0254400Y0306875D01*
X0253730Y0308492D01*
X0252492Y0309730D01*
X0250875Y0310400D01*
X0249125Y0310400D01*
X0247508Y0309730D01*
X0246270Y0308492D01*
X0245600Y0306875D01*
X0245600Y0305125D01*
X0246270Y0303508D01*
X0247508Y0302270D01*
X0249125Y0301600D01*
X0250875Y0301600D01*
X0252492Y0302270D01*
X0253730Y0303508D01*
X0254231Y0304717D02*
X0255769Y0304717D01*
X0255600Y0306316D02*
X0254400Y0306316D01*
X0253970Y0307914D02*
X0256030Y0307914D01*
X0257290Y0309513D02*
X0252710Y0309513D01*
X0247290Y0309513D02*
X0242710Y0309513D01*
X0242492Y0309730D02*
X0240875Y0310400D01*
X0239125Y0310400D01*
X0237508Y0309730D01*
X0236270Y0308492D01*
X0235600Y0306875D01*
X0235600Y0305125D01*
X0236270Y0303508D01*
X0237508Y0302270D01*
X0239125Y0301600D01*
X0240875Y0301600D01*
X0242492Y0302270D01*
X0243730Y0303508D01*
X0244400Y0305125D01*
X0244400Y0306875D01*
X0243730Y0308492D01*
X0242492Y0309730D01*
X0243970Y0307914D02*
X0246030Y0307914D01*
X0245600Y0306316D02*
X0244400Y0306316D01*
X0244231Y0304717D02*
X0245769Y0304717D01*
X0246659Y0303119D02*
X0243341Y0303119D01*
X0236659Y0303119D02*
X0233341Y0303119D01*
X0233730Y0303508D02*
X0234400Y0305125D01*
X0234400Y0306875D01*
X0233730Y0308492D01*
X0232492Y0309730D01*
X0230875Y0310400D01*
X0229125Y0310400D01*
X0227508Y0309730D01*
X0226270Y0308492D01*
X0225600Y0306875D01*
X0225600Y0305125D01*
X0226270Y0303508D01*
X0227508Y0302270D01*
X0229125Y0301600D01*
X0230875Y0301600D01*
X0232492Y0302270D01*
X0233730Y0303508D01*
X0234231Y0304717D02*
X0235769Y0304717D01*
X0235600Y0306316D02*
X0234400Y0306316D01*
X0233970Y0307914D02*
X0236030Y0307914D01*
X0237290Y0309513D02*
X0232710Y0309513D01*
X0227290Y0309513D02*
X0157800Y0309513D01*
X0157800Y0307914D02*
X0226030Y0307914D01*
X0225600Y0306316D02*
X0157800Y0306316D01*
X0157800Y0304717D02*
X0225769Y0304717D01*
X0226659Y0303119D02*
X0157800Y0303119D01*
X0245094Y0282890D02*
X0247457Y0282890D01*
X0253756Y0240370D02*
X0252181Y0238795D01*
X0251394Y0238795D01*
X0253756Y0240370D02*
X0254543Y0240370D01*
X0264879Y0229587D02*
X0327850Y0229587D01*
X0327848Y0227989D02*
X0265877Y0227989D01*
X0265998Y0226390D02*
X0327846Y0226390D01*
X0327844Y0224792D02*
X0265289Y0224792D01*
X0287211Y0210405D02*
X0296631Y0210405D01*
X0297017Y0208806D02*
X0288043Y0208806D01*
X0287977Y0207208D02*
X0298679Y0207208D01*
X0301746Y0207208D02*
X0327821Y0207208D01*
X0327823Y0208806D02*
X0303408Y0208806D01*
X0303794Y0210405D02*
X0327825Y0210405D01*
X0327827Y0212003D02*
X0303445Y0212003D01*
X0301958Y0213602D02*
X0327829Y0213602D01*
X0330134Y0213602D02*
X0380184Y0213602D01*
X0379854Y0213932D02*
X0380861Y0212925D01*
X0382177Y0212380D01*
X0383602Y0212380D01*
X0384918Y0212925D01*
X0385926Y0213932D01*
X0386471Y0215248D01*
X0386471Y0216673D01*
X0385926Y0217989D01*
X0384918Y0218997D01*
X0383602Y0219542D01*
X0382177Y0219542D01*
X0380861Y0218997D01*
X0379854Y0217989D01*
X0379309Y0216673D01*
X0379309Y0215248D01*
X0379854Y0213932D01*
X0379328Y0215201D02*
X0330134Y0215201D01*
X0330134Y0216799D02*
X0379361Y0216799D01*
X0380262Y0218398D02*
X0330134Y0218398D01*
X0330134Y0219996D02*
X0404150Y0219996D01*
X0402231Y0218398D02*
X0385517Y0218398D01*
X0386419Y0216799D02*
X0401600Y0216799D01*
X0401600Y0215201D02*
X0386451Y0215201D01*
X0385596Y0213602D02*
X0402231Y0213602D01*
X0404151Y0212003D02*
X0330134Y0212003D01*
X0330134Y0210405D02*
X0474172Y0210405D01*
X0474342Y0209995D02*
X0475349Y0208988D01*
X0476666Y0208443D01*
X0478090Y0208443D01*
X0479406Y0208988D01*
X0480414Y0209995D01*
X0480959Y0211311D01*
X0480959Y0212736D01*
X0480414Y0214052D01*
X0479406Y0215060D01*
X0478090Y0215605D01*
X0476666Y0215605D01*
X0475349Y0215060D01*
X0474342Y0214052D01*
X0473797Y0212736D01*
X0473797Y0211311D01*
X0474342Y0209995D01*
X0475787Y0208806D02*
X0419416Y0208806D01*
X0420262Y0207208D02*
X0502555Y0207208D01*
X0502391Y0207605D02*
X0503030Y0206062D01*
X0504211Y0204880D01*
X0505755Y0204241D01*
X0507426Y0204241D01*
X0508970Y0204880D01*
X0510151Y0206062D01*
X0510791Y0207605D01*
X0510791Y0209276D01*
X0510151Y0210820D01*
X0508970Y0212002D01*
X0507426Y0212641D01*
X0505755Y0212641D01*
X0504211Y0212002D01*
X0503030Y0210820D01*
X0502391Y0209276D01*
X0502391Y0207605D01*
X0502391Y0208806D02*
X0478969Y0208806D01*
X0480584Y0210405D02*
X0502858Y0210405D01*
X0504216Y0212003D02*
X0480959Y0212003D01*
X0480600Y0213602D02*
X0544200Y0213602D01*
X0544200Y0199215D02*
X0526837Y0199215D01*
X0527970Y0197617D02*
X0544200Y0197617D01*
X0544200Y0196018D02*
X0528475Y0196018D01*
X0528526Y0194420D02*
X0544200Y0194420D01*
X0544200Y0192821D02*
X0528131Y0192821D01*
X0527162Y0191223D02*
X0544200Y0191223D01*
X0523482Y0205609D02*
X0519699Y0205609D01*
X0520151Y0206062D02*
X0518970Y0204880D01*
X0517426Y0204241D01*
X0515755Y0204241D01*
X0514211Y0204880D01*
X0513030Y0206062D01*
X0512391Y0207605D01*
X0512391Y0209276D01*
X0513030Y0210820D01*
X0514211Y0212002D01*
X0515755Y0212641D01*
X0517426Y0212641D01*
X0518970Y0212002D01*
X0520151Y0210820D01*
X0520791Y0209276D01*
X0520791Y0207605D01*
X0520151Y0206062D01*
X0520626Y0207208D02*
X0522555Y0207208D01*
X0522391Y0208806D02*
X0520791Y0208806D01*
X0520323Y0210405D02*
X0522858Y0210405D01*
X0524216Y0212003D02*
X0518965Y0212003D01*
X0517426Y0214241D02*
X0518970Y0214880D01*
X0520151Y0216062D01*
X0520791Y0217605D01*
X0520791Y0219276D01*
X0520151Y0220820D01*
X0518970Y0222002D01*
X0517426Y0222641D01*
X0515755Y0222641D01*
X0514211Y0222002D01*
X0513030Y0220820D01*
X0512391Y0219276D01*
X0512391Y0217605D01*
X0513030Y0216062D01*
X0514211Y0214880D01*
X0515755Y0214241D01*
X0517426Y0214241D01*
X0519290Y0215201D02*
X0523891Y0215201D01*
X0522725Y0216799D02*
X0520456Y0216799D01*
X0520791Y0218398D02*
X0522391Y0218398D01*
X0522689Y0219996D02*
X0520492Y0219996D01*
X0519377Y0221595D02*
X0523804Y0221595D01*
X0513804Y0221595D02*
X0509377Y0221595D01*
X0510492Y0219996D02*
X0512689Y0219996D01*
X0512391Y0218398D02*
X0510791Y0218398D01*
X0510456Y0216799D02*
X0512725Y0216799D01*
X0513891Y0215201D02*
X0509290Y0215201D01*
X0508965Y0212003D02*
X0514216Y0212003D01*
X0512858Y0210405D02*
X0510323Y0210405D01*
X0510791Y0208806D02*
X0512391Y0208806D01*
X0512555Y0207208D02*
X0510626Y0207208D01*
X0509699Y0205609D02*
X0513482Y0205609D01*
X0503482Y0205609D02*
X0420400Y0205609D01*
X0417849Y0212003D02*
X0473797Y0212003D01*
X0474156Y0213602D02*
X0419769Y0213602D01*
X0420400Y0215201D02*
X0475690Y0215201D01*
X0479066Y0215201D02*
X0503891Y0215201D01*
X0467356Y0197617D02*
X0457873Y0197617D01*
X0458518Y0196018D02*
X0466710Y0196018D01*
X0466858Y0194420D02*
X0458371Y0194420D01*
X0457335Y0192821D02*
X0467894Y0192821D01*
X0452539Y0192821D02*
X0372067Y0192821D01*
X0372298Y0191223D02*
X0402507Y0191223D01*
X0401259Y0189624D02*
X0371795Y0189624D01*
X0365638Y0189624D02*
X0357621Y0189624D01*
X0358124Y0191223D02*
X0365135Y0191223D01*
X0365367Y0192821D02*
X0357893Y0192821D01*
X0356739Y0194420D02*
X0366521Y0194420D01*
X0370912Y0194420D02*
X0451503Y0194420D01*
X0402495Y0183230D02*
X0391440Y0183230D01*
X0391983Y0184829D02*
X0401254Y0184829D01*
X0400700Y0186427D02*
X0391791Y0186427D01*
X0390692Y0188026D02*
X0400700Y0188026D01*
X0385363Y0183230D02*
X0344566Y0183230D01*
X0343495Y0184829D02*
X0384820Y0184829D01*
X0402061Y0204011D02*
X0330134Y0204011D01*
X0330134Y0205609D02*
X0401600Y0205609D01*
X0401738Y0207208D02*
X0330134Y0207208D01*
X0330134Y0208806D02*
X0402584Y0208806D01*
X0393126Y0224622D02*
X0389976Y0224622D01*
X0383677Y0240370D02*
X0380528Y0240370D01*
X0382102Y0254543D02*
X0379740Y0256906D01*
X0413238Y0243974D02*
X0422381Y0243974D01*
X0424255Y0242375D02*
X0414483Y0242375D01*
X0438795Y0261630D02*
X0440370Y0263205D01*
X0441945Y0263205D01*
X0457639Y0245572D02*
X0473222Y0245572D01*
X0454543Y0241157D02*
X0452181Y0238795D01*
X0374228Y0298638D02*
X0371866Y0298638D01*
X0466354Y0301787D02*
X0467142Y0302575D01*
X0508087Y0301787D02*
X0510449Y0301787D01*
X0327819Y0205609D02*
X0287052Y0205609D01*
X0300213Y0204150D02*
X0301787Y0204150D01*
X0282878Y0170442D02*
X0157800Y0170442D01*
X0157800Y0168844D02*
X0282458Y0168844D01*
X0282773Y0167245D02*
X0157800Y0167245D01*
X0157800Y0165647D02*
X0284093Y0165647D01*
X0287986Y0165647D02*
X0544200Y0165647D01*
X0544200Y0167245D02*
X0289306Y0167245D01*
X0262417Y0167142D02*
X0258480Y0167142D01*
X0257693Y0167929D01*
X0350606Y0184465D02*
X0351394Y0184465D01*
X0352969Y0182890D01*
X0444307Y0161630D02*
X0444307Y0157693D01*
X0445094Y0156906D01*
X0496276Y0134071D02*
X0497063Y0134071D01*
X0497850Y0133283D01*
X0544200Y0152859D02*
X0157800Y0152859D01*
X0157800Y0154457D02*
X0544200Y0154457D01*
X0544200Y0156056D02*
X0157800Y0156056D01*
X0157800Y0157654D02*
X0544200Y0157654D01*
X0544200Y0159253D02*
X0157800Y0159253D01*
X0157800Y0160851D02*
X0544200Y0160851D01*
X0544200Y0162450D02*
X0157800Y0162450D01*
X0157800Y0164048D02*
X0544200Y0164048D01*
D16*
X0482102Y0188402D02*
X0480528Y0189976D01*
X0474228Y0249031D02*
X0456118Y0249031D01*
X0454543Y0247457D01*
X0300000Y0306000D02*
X0291063Y0297063D01*
X0278953Y0297063D01*
X0272654Y0204937D02*
X0271079Y0203362D01*
D17*
X0288402Y0239583D02*
X0289976Y0239583D01*
X0363205Y0182890D02*
X0367142Y0178953D01*
M02*
